<svg width="24" height="16" viewBox="0 0 24 16" fill="none" xmlns="http://www.w3.org/2000/svg">
<path fill-rule="evenodd" clip-rule="evenodd" d="M10.9659 5.01887C10.9659 5.03632 10.943 5.07856 10.9325 5.0804C10.7748 5.35132 10.4679 5.54693 10.142 5.54969C9.97947 5.54969 9.80645 5.50285 9.70895 5.38071C9.61527 5.26958 9.60285 5.11346 9.61814 4.96928C9.6516 4.68642 9.79116 4.41367 10.0053 4.2153C10.1056 4.12071 10.2299 4.04173 10.3723 4.02887C10.6065 4.00959 10.8187 4.1905 10.9038 4.40081C10.9583 4.53489 10.9736 4.67907 10.9736 4.82326L11.051 4.70846C11.0462 4.81775 11.0147 4.92244 10.9659 5.01887ZM7.33835 4.62214C7.23703 4.74336 7.06401 4.7902 6.90438 4.78836C6.57651 4.78561 6.26871 4.58999 6.10908 4.31908C6.09856 4.31632 6.07849 4.27959 6.07849 4.26489C6.03165 4.16846 6.00011 4.06101 5.99533 3.94989L6.07275 4.06377C6.07275 3.91775 6.08614 3.77632 6.14253 3.63948C6.22761 3.43102 6.43982 3.2501 6.6721 3.2703C6.81357 3.27949 6.93783 3.36214 7.04107 3.45581C7.25328 3.65418 7.39284 3.9251 7.42629 4.20795C7.4435 4.35122 7.43107 4.50734 7.33835 4.62214ZM19.893 14.006C19.7257 14.1832 19.5383 14.3146 19.3386 14.3486C19.0967 12.7699 18.7574 11.3932 17.6906 10.0928C16.3419 8.4508 14.3163 7.58662 12.1436 7.6904C12.1407 7.6904 11.3684 2.72938 11.3684 1.48867C10.7566 1.80092 11.1132 1.6751 10.4603 1.91571C10.0521 2.06449 9.58755 1.94051 9.19468 1.74398C8.88211 1.59061 8.67277 1.36469 8.51792 1.08459C8.44622 0.953264 7.91953 0.0899999 8.01225 0C3.88568 3.91224 1.55427 9.15427 1.37552 14.4707C0.929123 14.5129 0.580224 14.5129 0 15.9171C0.141471 15.5773 4.21164 16.0209 4.72782 15.9943C6.36239 15.907 7.99696 15.8519 9.63153 15.8253C11.3053 15.7987 12.979 15.8115 14.6528 15.8538C15.5064 15.8749 16.3591 15.9043 17.2117 15.941C17.6371 15.9584 18.0634 15.9759 18.4888 15.9998C18.7641 16.0154 21.7503 15.2219 22.4223 14.557C26.8614 10.1718 20.6864 7.27621 19.1149 7.6904C18.441 7.86856 17.3197 8.17713 17.2117 8.84019C18.614 8.6804 21.0209 9.42703 21.5113 10.699C21.7579 11.3418 21.1863 12.4181 20.9636 13.0656C20.8508 13.3916 20.2151 13.6625 19.893 14.006Z" fill="#4D4A2F"/>
</svg>
