<svg width="34" height="38" viewBox="0 0 34 38" fill="none" xmlns="http://www.w3.org/2000/svg">
<path fill-rule="evenodd" clip-rule="evenodd" d="M0.5 0.5H33.2143V35.7857H0.5V0.5ZM1.5 1.5V4.78571H9.07143V1.5H1.5ZM10.0714 1.5V4.78571H18.0714V1.5H10.0714ZM19.0714 1.5V4.78571H32.2143V1.5H19.0714ZM32.2143 5.78571H19.0714V7.35714H32.2143V5.78571ZM32.2143 8.35714H27.3779C27.4225 8.40013 27.4633 8.44461 27.5001 8.49071C27.7452 8.79765 27.7926 9.15428 27.6595 9.48133C27.5451 9.76248 27.3183 9.97124 27.1203 10.1138C27.0133 10.1908 26.8993 10.2595 26.7857 10.3193V10.8505C27.3432 10.9349 28.0504 11.0665 28.7251 11.2409C29.159 11.353 29.5898 11.4855 29.9631 11.6388C30.3244 11.7872 30.6817 11.9746 30.925 12.2179C31.1423 12.4352 31.297 12.6799 31.3461 12.953C31.3972 13.2371 31.3228 13.4893 31.1963 13.6872C30.9661 14.0471 30.5579 14.2458 30.301 14.3315L30.224 14.3571H22V13.3571H30.0532C30.1072 13.3347 30.1638 13.3061 30.2154 13.2726C30.2921 13.223 30.335 13.1778 30.3537 13.1485C30.3594 13.1397 30.3615 13.1343 30.3623 13.1323C30.3622 13.1318 30.3621 13.131 30.3619 13.13C30.3601 13.1201 30.3434 13.0505 30.2179 12.925C30.1183 12.8254 29.9113 12.6986 29.5833 12.5639C29.2673 12.4341 28.8839 12.3148 28.4749 12.2091C27.6572 11.9978 26.779 11.8513 26.2237 11.7819L25.7857 11.7271V9.66148L26.1 9.53576C26.2504 9.47559 26.409 9.3937 26.536 9.30227C26.6493 9.22065 26.7031 9.15628 26.7242 9.12182C26.7225 9.11963 26.7207 9.11724 26.7186 9.11465C26.6671 9.05008 26.5244 8.93069 26.1912 8.78773C25.9797 8.79717 25.8894 8.83742 25.8568 8.85814C25.859 8.87636 25.8659 8.89942 25.8758 8.91925L24.9814 9.36646C24.8726 9.14895 24.7624 8.74161 24.9848 8.35714H19.0714V21.9286H32.2143V8.35714ZM32.2143 22.9286H19.0714V26.2143H32.2143V22.9286ZM32.2143 27.2143H19.0714V30.5H32.2143V27.2143ZM32.2143 31.5H19.0714V34.7857H32.2143V31.5ZM18.0714 34.7857V31.5H16.3511C15.9323 32.3949 14.943 32.7857 14.0714 32.7857C13.1999 32.7857 12.2106 32.3949 11.7917 31.5H7.77972C7.36082 32.3949 6.37157 32.7857 5.5 32.7857C4.62843 32.7857 3.63918 32.3949 3.22028 31.5H1.5V34.7857H18.0714ZM1.5 30.5H18.0714V8.35714H12.3779C12.4225 8.40013 12.4633 8.44461 12.5001 8.49071C12.7452 8.79765 12.7926 9.15428 12.6595 9.48133C12.5451 9.76248 12.3183 9.97124 12.1203 10.1138C12.0133 10.1908 11.8993 10.2595 11.7857 10.3193V10.8505C12.3432 10.9349 13.0504 11.0665 13.7251 11.2409C14.159 11.353 14.5898 11.4855 14.9631 11.6388C15.3244 11.7872 15.6817 11.9746 15.925 12.2179C16.1423 12.4352 16.297 12.6799 16.3461 12.953C16.3972 13.2371 16.3228 13.4893 16.1963 13.6872C15.9661 14.0471 15.5579 14.2458 15.301 14.3315L15.224 14.3571H2.71429V13.3571H10.7675C10.8215 13.3347 10.8781 13.3061 10.9297 13.2726C11.0064 13.223 11.0493 13.1778 11.068 13.1485C11.0737 13.1397 11.0758 13.1343 11.0765 13.1323C11.0765 13.1318 11.0764 13.131 11.0762 13.13C11.0744 13.1201 11.0577 13.0505 10.9322 12.925C10.8325 12.8254 10.6256 12.6986 10.2976 12.5639C9.98158 12.4341 9.59818 12.3148 9.18916 12.2091C8.37153 11.9978 7.49327 11.8513 6.93798 11.7819L6.5 11.7271V9.66148L6.8143 9.53576C6.96473 9.47559 7.12326 9.3937 7.25026 9.30227C7.36362 9.22065 7.41734 9.15628 7.43844 9.12182C7.43682 9.11962 7.43499 9.11724 7.43293 9.11465C7.38137 9.05008 7.23872 8.93069 6.90553 8.78773C6.69398 8.79717 6.60366 8.83742 6.57112 8.85815C6.57331 8.87636 6.58015 8.89942 6.59007 8.91925L5.69564 9.36646C5.58689 9.14895 5.47665 8.74161 5.69913 8.35714H1.5V30.5ZM1.5 7.35714H18.0714V5.78571H1.5V7.35714ZM8.09216 8.35714H9.98484C9.76237 8.74161 9.8726 9.14895 9.98136 9.36646L10.8758 8.91925C10.8659 8.89942 10.859 8.87636 10.8568 8.85814C10.8894 8.83742 10.9797 8.79717 11.1912 8.78773C11.5244 8.93069 11.6671 9.05008 11.7186 9.11465C11.7207 9.11724 11.7225 9.11962 11.7242 9.12182C11.7031 9.15628 11.6493 9.22065 11.536 9.30227C11.409 9.3937 11.2504 9.47559 11.1 9.53576L10.7857 9.66148V11.6846C10.7497 11.6689 10.7136 11.6537 10.6774 11.6388C10.3041 11.4855 9.87325 11.353 9.43941 11.2409C8.76465 11.0665 8.05746 10.9349 7.5 10.8505V10.3193C7.61362 10.2595 7.7276 10.1908 7.83456 10.1138C8.03256 9.97124 8.25941 9.76248 8.37383 9.48133C8.50693 9.15428 8.45947 8.79765 8.21439 8.49071C8.17759 8.44461 8.13679 8.40013 8.09216 8.35714ZM10.9158 11.7434C11.1914 11.873 11.4499 12.0285 11.6393 12.2179C11.8566 12.4352 12.0113 12.6799 12.0604 12.953C12.0863 13.0969 12.08 13.2326 12.051 13.3571H15.0532C15.1072 13.3347 15.1638 13.3061 15.2154 13.2726C15.2921 13.223 15.335 13.1778 15.3537 13.1485C15.3594 13.1397 15.3615 13.1343 15.3623 13.1323C15.3622 13.1318 15.3621 13.131 15.3619 13.13C15.3601 13.1201 15.3434 13.0505 15.2179 12.925C15.1183 12.8254 14.9113 12.6986 14.5833 12.5639C14.2673 12.4341 13.8839 12.3148 13.4749 12.2091C12.6572 11.9978 11.779 11.8513 11.2237 11.7819L10.9158 11.7434ZM7.4501 9.14051C7.45031 9.1411 7.45009 9.14052 7.4501 9.14051V9.14051ZM4.49859 31.5C4.75833 31.6819 5.10727 31.7857 5.5 31.7857C5.89273 31.7857 6.24167 31.6819 6.50141 31.5H4.49859ZM13.07 31.5C13.3298 31.6819 13.6787 31.7857 14.0714 31.7857C14.4642 31.7857 14.8131 31.6819 15.0728 31.5H13.07ZM26.7358 9.14051C26.736 9.14105 26.7358 9.1405 26.7358 9.14051V9.14051Z" fill="currentColor"/>
<path fill-rule="evenodd" clip-rule="evenodd" d="M23.0429 11.5234C24.0566 11.0819 25.3604 10.8607 26.2439 10.7871L26.3269 11.7837C25.4962 11.8529 24.3143 12.0603 23.4422 12.4402C23.0017 12.6321 22.6969 12.8441 22.5371 13.0544C22.4645 13.1499 22.4188 13.247 22.4085 13.3568H22.8572V14.3568H21.6612L21.5355 14.0425C21.296 13.4438 21.4036 12.8933 21.7409 12.4494C22.0525 12.0392 22.5406 11.7422 23.0429 11.5234Z" fill="currentColor"/>
<path fill-rule="evenodd" clip-rule="evenodd" d="M7.7089 11.5234C8.72258 11.0819 10.0264 10.8607 10.9099 10.7871L10.993 11.7837C10.1622 11.8529 8.9803 12.0603 8.10826 12.4402C7.66774 12.6321 7.3629 12.8441 7.20315 13.0544C7.13055 13.1499 7.08483 13.247 7.07452 13.3568H7.5232V14.3568H6.32721L6.20149 14.0425C5.962 13.4438 6.06964 12.8933 6.40687 12.4494C6.71855 12.0392 7.20657 11.7422 7.7089 11.5234Z" fill="currentColor"/>
<path fill-rule="evenodd" clip-rule="evenodd" d="M3.42179 11.5234C4.43547 11.0819 5.73931 10.8607 6.62281 10.7871L6.70585 11.7837C5.87507 11.8529 4.69319 12.0603 3.82115 12.4402C3.38063 12.6321 3.07579 12.8441 2.91604 13.0544C2.84344 13.1499 2.79772 13.247 2.78741 13.3568H3.23609V14.3568H2.0401L1.91438 14.0425C1.67489 13.4438 1.78253 12.8933 2.11977 12.4494C2.43144 12.0392 2.91946 11.7422 3.42179 11.5234Z" fill="currentColor"/>
<path fill-rule="evenodd" clip-rule="evenodd" d="M10.5 35.2857H9.5V31H10.5V35.2857Z" fill="currentColor"/>
<path fill-rule="evenodd" clip-rule="evenodd" d="M2.21484 35.2861H3.21484V36.5004H30.5006V35.7147H31.5006V37.5004H2.21484V35.2861Z" fill="currentColor"/>
</svg>
