<svg width="46" height="46" viewBox="0 0 46 46" fill="none" xmlns="http://www.w3.org/2000/svg">
<path d="M24.4731 5.16699H0.526335C0.386742 5.16699 0.252866 5.22245 0.154159 5.32115C0.0554526 5.41986 0 5.55373 0 5.69333V38.4765C0 38.6161 0.0554526 38.7499 0.154159 38.8486C0.252866 38.9474 0.386742 39.0028 0.526335 39.0028H2.87529L3.30929 40.4338C3.34208 40.5419 3.40875 40.6366 3.49947 40.7038C3.59019 40.7711 3.70013 40.8074 3.81307 40.8074H6.4658C6.60539 40.8074 6.73927 40.7519 6.83797 40.6532C6.93668 40.5545 6.99213 40.4206 6.99213 40.281V39.0028H18.0067V40.281C18.0067 40.4206 18.0621 40.5545 18.1608 40.6532C18.2595 40.7519 18.3934 40.8074 18.533 40.8074H21.1857C21.2987 40.8074 21.4086 40.7711 21.4993 40.7038C21.59 40.6366 21.6567 40.5419 21.6895 40.4338L22.1241 39.0028H24.4737C24.6133 39.0028 24.7471 38.9474 24.8458 38.8486C24.9445 38.7499 25 38.6161 25 38.4765V5.69333C25 5.62416 24.9864 5.55567 24.9599 5.49177C24.9334 5.42787 24.8946 5.36982 24.8456 5.32094C24.7967 5.27206 24.7386 5.2333 24.6747 5.20688C24.6107 5.18047 24.5422 5.16691 24.4731 5.16699ZM23.9467 12.9267H13.026V6.21966H23.9467V12.9267ZM1.05267 6.21966H11.9734V12.9267H1.05267V6.21966ZM1.05267 13.9793H11.9734V37.9501H1.05267V13.9793ZM5.94006 39.7547H4.20406L3.97608 39.0028H5.94006V39.7547ZM20.7953 39.7547H19.0593V39.0028H21.0233L20.7953 39.7547ZM13.026 37.9501V13.9793H23.9467V37.9501H13.026Z" fill="currentColor"/>
<path d="M9.79001 8.14453C9.65044 8.14461 9.51661 8.20009 9.41792 8.29878C9.31923 8.39747 9.26375 8.5313 9.26367 8.67087V10.4754C9.26367 10.5446 9.27729 10.613 9.30374 10.6769C9.33019 10.7407 9.36896 10.7987 9.41783 10.8476C9.46671 10.8965 9.52473 10.9353 9.58859 10.9617C9.65244 10.9882 9.72089 11.0018 9.79001 11.0018C9.85913 11.0018 9.92757 10.9882 9.99143 10.9617C10.0553 10.9353 10.1133 10.8965 10.1622 10.8476C10.2111 10.7987 10.2498 10.7407 10.2763 10.6769C10.3027 10.613 10.3163 10.5446 10.3163 10.4754V8.67087C10.3163 8.5313 10.2608 8.39747 10.1621 8.29878C10.0634 8.20009 9.92958 8.14461 9.79001 8.14453Z" fill="currentColor"/>
<path d="M15.208 11.0018C15.3476 11.0018 15.4814 10.9463 15.5801 10.8476C15.6789 10.7489 15.7343 10.615 15.7343 10.4754V8.67087C15.7343 8.53127 15.6789 8.3974 15.5801 8.29869C15.4814 8.19998 15.3476 8.14453 15.208 8.14453C15.0684 8.14453 14.9345 8.19998 14.8358 8.29869C14.7371 8.3974 14.6816 8.53127 14.6816 8.67087V10.4754C14.6816 10.615 14.7371 10.7489 14.8358 10.8476C14.9345 10.9463 15.0684 11.0018 15.208 11.0018Z" fill="currentColor"/>
<path d="M9.79001 27.8081C9.9296 27.8081 10.0635 27.7526 10.1622 27.6539C10.2609 27.5552 10.3163 27.4213 10.3163 27.2818V22.3056C10.3163 22.166 10.2609 22.0322 10.1622 21.9335C10.0635 21.8348 9.9296 21.7793 9.79001 21.7793C9.65041 21.7793 9.51654 21.8348 9.41783 21.9335C9.31912 22.0322 9.26367 22.166 9.26367 22.3056V27.2818C9.26367 27.4213 9.31912 27.5552 9.41783 27.6539C9.51654 27.7526 9.65041 27.8081 9.79001 27.8081Z" fill="currentColor"/>
<path d="M15.208 21.7793C15.0684 21.7794 14.9346 21.8349 14.8359 21.9335C14.7372 22.0322 14.6817 22.1661 14.6816 22.3056V27.2818C14.6816 27.4213 14.7371 27.5552 14.8358 27.6539C14.9345 27.7526 15.0684 27.8081 15.208 27.8081C15.3476 27.8081 15.4814 27.7526 15.5801 27.6539C15.6789 27.5552 15.7343 27.4213 15.7343 27.2818V22.3056C15.7342 22.1661 15.6788 22.0322 15.5801 21.9335C15.4814 21.8349 15.3475 21.7794 15.208 21.7793Z" fill="currentColor"/>
<path fill-rule="evenodd" clip-rule="evenodd" d="M32.3651 0.5H45.4994V44H32.3512L23.8936 38.5026C23.6621 38.3521 23.5964 38.0424 23.7469 37.8108C23.8973 37.5793 24.207 37.5136 24.4386 37.6641L31.9994 42.5787V1.86722L24.8333 6.01605L24.3322 5.15062L32.3651 0.5ZM32.9994 1.5V8.91981H44.4994V1.5H32.9994ZM44.4994 9.91981H34.6919L37.6134 11.3255H44.4994V9.91981ZM44.4994 12.3255H37.3854L32.9994 10.2152V14.934H44.4994V12.3255ZM44.4994 15.934H34.6919L37.6134 17.3396H44.4994V15.934ZM44.4994 18.3396H37.3854L32.9994 16.2294V21.3491H44.4994V18.3396ZM44.4994 22.3491H34.6919L37.6134 23.7547H44.4994V22.3491ZM44.4994 24.7547H37.3854L32.9994 22.6445V27.1627H44.4994V24.7547ZM44.4994 28.1627H34.6919L37.6134 29.5684H44.4994V28.1627ZM44.4994 30.5684H37.3854L32.9994 28.4582V33.7783H44.4994V30.5684ZM44.4994 34.7783H34.6919L37.6134 36.184H44.4994V34.7783ZM44.4994 37.184H37.3854L32.9994 35.0737V43H44.4994V37.184ZM28.4161 21V26.8333H27.4161V21H28.4161Z" fill="currentColor"/>
<path fill-rule="evenodd" clip-rule="evenodd" d="M32.0527 43.7236L32.9472 43.2764L33.6423 44.6666H34.9166V43.5H35.9166V45.6666H33.0243L32.0527 43.7236Z" fill="currentColor"/>
<path fill-rule="evenodd" clip-rule="evenodd" d="M45.4844 43.6205L44.5142 43.3779L44.1922 44.6659H42.9993V43.4992H41.9993V45.6659H44.973L45.4844 43.6205Z" fill="currentColor"/>
</svg>
