<svg width="39" height="28" viewBox="0 0 39 28" fill="none" xmlns="http://www.w3.org/2000/svg">
<path fill-rule="evenodd" clip-rule="evenodd" d="M2.6627 0.589572C2.77611 0.468857 2.93437 0.400391 3.1 0.400391H5.6C5.93137 0.400391 6.2 0.66902 6.2 1.00039V1.90039H7.6C7.90573 1.90039 8.16257 2.13027 8.19633 2.43413C8.28337 3.21746 8.29333 4.39661 7.97988 5.30802C7.82274 5.76494 7.55435 6.24184 7.08434 6.51885C6.8133 6.6786 6.51516 6.74924 6.2 6.74061V10.1296L6.74164 10.4004H7.6C7.93137 10.4004 8.2 10.669 8.2 11.0004V14.4004H11V12.5004C11 12.169 11.2686 11.9004 11.6 11.9004H12.5V10.6004H11.6C11.2686 10.6004 11 10.3318 11 10.0004V7.00039C11 6.66902 11.2686 6.40039 11.6 6.40039H19.6C19.9314 6.40039 20.2 6.66902 20.2 7.00039V9.40039H21.1C21.4314 9.40039 21.7 9.66902 21.7 10.0004V12.5004C21.7 12.8318 21.4314 13.1004 21.1 13.1004H20.2V14.4004H28.4046C27.8788 13.8709 27.0702 13.3063 25.9823 13.0887C25.6798 13.0282 25.4725 12.7482 25.5029 12.4413C25.5333 12.1343 25.7915 11.9004 26.1 11.9004H36.1C36.3943 11.9004 36.6451 12.1138 36.6922 12.4043C36.7394 12.6948 36.5689 12.9765 36.2897 13.0696C35.8248 13.2246 35.0938 13.5313 34.4408 13.9355C34.193 14.089 33.9749 14.2452 33.7913 14.4004H37.6C37.9314 14.4004 38.2 14.669 38.2 15.0004V18.5004C38.2 18.8318 37.9314 19.1004 37.6 19.1004H36.7V27.0004C36.7 27.3318 36.4314 27.6004 36.1 27.6004H34.1C33.8089 27.6004 33.5597 27.3914 33.5091 27.1047L32.0966 19.1004H6.10339L4.69087 27.1047C4.64027 27.3914 4.39114 27.6004 4.1 27.6004H2.1C1.76863 27.6004 1.5 27.3318 1.5 27.0004V19.1004H0.6C0.268629 19.1004 0 18.8318 0 18.5004V15.0004C0 14.669 0.268629 14.4004 0.6 14.4004H3.5V11.0004C3.5 10.7421 3.66526 10.5128 3.91026 10.4312L5 10.0679V7.91289C4.64982 7.9133 4.36098 7.75176 4.1464 7.54963C3.72258 7.15039 3.44054 6.45837 3.23713 5.77055C2.81396 4.3396 2.5855 2.38706 2.50117 1.03782C2.49084 0.872511 2.5493 0.710287 2.6627 0.589572ZM5 6.70252V1.60039H3.74643C3.85272 2.83243 4.06158 4.32692 4.38787 5.43024C4.58862 6.10908 4.80033 6.51706 4.96922 6.67615C4.98177 6.68797 4.99198 6.69647 5 6.70252ZM5.55396 11.1482L4.7 11.4328V14.4004H7V11.6004H6.6C6.50685 11.6004 6.41499 11.5787 6.33167 11.537L5.55396 11.1482ZM2.7 19.1004V26.4004H3.59661L4.88485 19.1004H2.7ZM33.3152 19.1004L34.6034 26.4004H35.5V19.1004H33.3152ZM32.2172 14.4004C32.5191 13.8779 33.0211 13.4427 33.5238 13.1004H28.7509C29.2963 13.5388 29.694 14.014 29.9448 14.4004H32.2172ZM19 14.4004V13.1004H12.2V14.4004H19ZM19 9.40039V7.60039H12.2V9.40039H19ZM13.7 10.6004V11.9004H20.5V10.6004H13.7ZM6.2 5.53981C6.33776 5.54901 6.42205 5.51628 6.47504 5.48505C6.59357 5.41519 6.73142 5.24834 6.84512 4.91776C7.0203 4.40837 7.06688 3.71793 7.04305 3.10039H6.2V5.53981ZM1.2 15.6004V17.9004H37V15.6004H1.2Z" fill="currentColor"/>
</svg>
