<svg width="50" height="36" viewBox="0 0 50 36" fill="none" xmlns="http://www.w3.org/2000/svg">
<path d="M49.2661 12.5697H45.3009C45.302 12.5535 45.3033 12.5373 45.3033 12.5208V8.55801H46.9178C47.3642 8.55801 47.7151 8.14414 47.6416 7.70352L46.8588 3.00684C46.7998 2.65293 46.4937 2.39365 46.1349 2.39365H43.0039C42.6452 2.39365 42.3391 2.65293 42.2801 3.00684L41.4973 7.70352C41.4239 8.14414 41.7749 8.55801 42.2211 8.55801H43.8355V12.5208C43.8355 12.5373 43.8369 12.5535 43.838 12.5697H40.1616C40.1616 12.5697 39.8237 11.4897 39.8237 11.4445V3.12754C39.8237 1.85967 38.7922 0.828125 37.5243 0.828125H12.4756C11.2077 0.828125 10.1762 1.85967 10.1762 3.12754V11.4935C10.1762 11.5269 9.83828 12.5697 9.83828 12.5697H6.16191C6.16299 12.5535 6.16436 12.5373 6.16436 12.5208V8.55801H7.77881C8.22519 8.55801 8.57617 8.14414 8.50264 7.70352L7.71982 3.00684C7.66084 2.65293 7.35469 2.39365 6.9959 2.39365H3.86494C3.50625 2.39365 3.2001 2.65293 3.14111 3.00684L2.3583 7.70352C2.28477 8.14414 2.63584 8.55801 3.08213 8.55801H4.69658V12.5208C4.69658 12.5373 4.69795 12.5535 4.69902 12.5697H0.733887C0.328516 12.5697 0 12.8982 0 13.3036V22.697C0 23.1023 0.328516 23.4309 0.733887 23.4309H6.00488L5.52119 24.8011C5.49365 24.8782 5.47939 24.9634 5.47939 25.0453V31.3075C5.47939 31.9473 6.2793 32.2792 6.73223 31.8265L7.04492 31.5137V32.0903C7.04492 32.4957 7.37344 32.8242 7.77881 32.8242H8.61055V34.4387C8.61055 34.844 8.93906 35.1726 9.34443 35.1726H40.6556C41.0609 35.1726 41.3895 34.844 41.3895 34.4387V32.8242H42.2212C42.6266 32.8242 42.9551 32.4957 42.9551 32.0903V31.5137L43.2678 31.8264C43.721 32.2793 44.5206 31.946 44.5206 31.3074V25.0452C44.5206 24.9633 44.5063 24.8781 44.4787 24.801L43.9951 23.4309H49.2661C49.6715 23.4309 50 23.1023 50 22.697V13.3036C50 12.8982 49.6715 12.5697 49.2661 12.5697ZM43.0875 7.09033L43.6257 3.86133H45.5135L46.0517 7.09033H43.0875ZM11.6438 3.12754C11.6438 2.66895 12.0169 2.2958 12.4756 2.2958H37.5244C37.983 2.2958 38.3562 2.66885 38.3562 3.12754V11.0043H37.3192C37.4197 10.7462 37.4755 10.4658 37.4755 10.1726V5.47588C37.4755 4.20801 36.4439 3.17647 35.1761 3.17647H27.3482C26.0804 3.17647 25.0488 4.20801 25.0488 5.47588V10.1726C25.0488 10.4658 25.1046 10.7461 25.2051 11.0043H24.7946C24.8951 10.7462 24.9509 10.4658 24.9509 10.1726V5.47588C24.9509 4.20801 23.9193 3.17647 22.6515 3.17647H14.8236C13.5558 3.17647 12.5242 4.20801 12.5242 5.47588V10.1726C12.5242 10.4658 12.58 10.7461 12.6805 11.0043H11.6437V3.12754H11.6438ZM34.5487 8.96582L32.3347 6.75166C31.7434 6.16045 30.7812 6.16035 30.1897 6.75176L27.9758 8.96572C27.4187 9.52295 27.3869 10.409 27.8797 11.0042H27.3483C26.8897 11.0042 26.5166 10.6312 26.5166 10.1725V5.47588C26.5166 5.01728 26.8896 4.64414 27.3483 4.64414H35.1762C35.6348 4.64414 36.0079 5.01719 36.0079 5.47588V10.1726C36.0079 10.6312 35.6349 11.0043 35.1762 11.0043H34.6449C35.1376 10.409 35.1059 9.52295 34.5487 8.96582ZM33.5108 10.0728L31.297 12.2868C31.2778 12.306 31.2465 12.3057 31.2277 12.2869L29.0137 10.0727C28.9946 10.0537 28.9946 10.0226 29.0137 10.0035L31.2275 7.78955C31.2371 7.77998 31.2497 7.77529 31.2622 7.77529C31.2748 7.77529 31.2874 7.78008 31.2969 7.78955L33.5108 10.0037C33.53 10.0227 33.53 10.0538 33.5108 10.0728ZM22.0243 8.96582L19.8103 6.75166C19.219 6.16045 18.2569 6.16035 17.6653 6.75176L15.4514 8.96572C14.8942 9.52295 14.8625 10.409 15.3553 11.0042H14.8239C14.3653 11.0042 13.9922 10.6312 13.9922 10.1725V5.47588C13.9922 5.01728 14.3652 4.64414 14.8239 4.64414H22.6518C23.1104 4.64414 23.4835 5.01719 23.4835 5.47588V10.1726C23.4835 10.6312 23.1104 11.0043 22.6518 11.0043H22.1205C22.6131 10.409 22.5814 9.52295 22.0243 8.96582ZM20.9864 10.0728L18.7726 12.2868C18.7535 12.306 18.7222 12.3057 18.7033 12.2869L16.4894 10.0727C16.4703 10.0537 16.4703 10.0226 16.4894 10.0035L18.7032 7.78955C18.7128 7.77998 18.7254 7.77529 18.7379 7.77529C18.7505 7.77529 18.7631 7.78008 18.7726 7.78955L20.9865 10.0037C21.0055 10.0227 21.0055 10.0538 20.9864 10.0728ZM11.4293 12.4719H16.683C16.7237 12.4719 17.6654 13.3247 17.6654 13.3247C18.2492 13.9085 19.2266 13.9082 19.8104 13.3246L20.6646 12.4704C20.6746 12.4708 29.3371 12.472 29.3371 12.472L30.1898 13.3248C30.7736 13.9086 31.751 13.9083 32.3348 13.3247L33.1874 12.472H38.5708L39.4515 14.9671H10.5486L11.4293 12.4719ZM3.94853 7.09033L4.48672 3.86133H6.37451L6.9127 7.09033H3.94853ZM1.46768 14.0375H9.32022L8.18057 17.2665H1.46768V14.0375ZM6.52295 21.9631H1.46768V18.7341H7.6626L6.52295 21.9631ZM39.9217 33.7048H10.0783V32.8241H39.9218V33.7048H39.9217ZM41.4873 30.2312V31.3564H8.5127V30.1823C8.5127 30.1396 9.64834 28.9104 9.64834 28.9104H40.3516L41.5067 30.0655C41.4944 30.1187 41.4873 30.1741 41.4873 30.2312ZM43.0528 29.5359L41.1745 27.6574C41.0368 27.5198 40.8503 27.4426 40.6556 27.4426H9.34443C9.1498 27.4426 8.96318 27.5199 8.82549 27.6574L6.94717 29.5359V25.7792H35.1762C35.5815 25.7792 35.9101 25.4507 35.9101 25.0453C35.9101 24.6399 35.5815 24.3114 35.1762 24.3114H7.25049L10.0306 16.4347H39.9694L42.7496 24.3114H37.5244C37.119 24.3114 36.7905 24.6399 36.7905 25.0453C36.7905 25.4507 37.119 25.7792 37.5244 25.7792H43.0528V29.5359ZM48.5323 21.9631H43.4771L42.3374 18.7341H48.5323V21.9631ZM48.5323 17.2664H41.8195L40.6799 14.0374H48.5323V17.2664Z" fill="currentColor"/>
</svg>
