<svg width="50" height="37" viewBox="0 0 50 37" fill="none" xmlns="http://www.w3.org/2000/svg">
<path fill-rule="evenodd" clip-rule="evenodd" d="M16.3251 4.46588L25.6957 35.1158L32.4214 33.0595L31.7259 30.7846L28.1891 31.8659C27.8318 31.9751 27.4579 31.7864 27.3532 31.4441L19.7524 6.58299C19.648 6.24138 19.8522 5.87508 20.2095 5.76587L23.7463 4.68455L23.0508 2.40964L16.3251 4.46588ZM14.8429 4.24166C14.7382 3.89931 14.9426 3.53375 15.2999 3.42453L23.3184 0.973024C23.6757 0.863806 24.0496 1.05253 24.1542 1.39488L25.2285 4.90877C25.3332 5.25112 25.1288 5.61668 24.7715 5.7259L21.2347 6.80721L28.4567 30.4293L31.9935 29.348C32.3507 29.2388 32.7247 29.4275 32.8293 29.7698L33.9036 33.2837C34.0083 33.6261 33.8038 33.9916 33.4466 34.1009L25.4281 36.5524C25.0708 36.6616 24.6969 36.4729 24.5923 36.1305L14.8429 4.24166Z" fill="currentColor"/>
<path fill-rule="evenodd" clip-rule="evenodd" d="M46.4616 26.5518H43.8472C43.7201 26.5518 43.6172 26.6559 43.6172 26.7845V29.4923C43.6172 29.6208 43.7201 29.725 43.8472 29.725H46.4616C46.5887 29.725 46.6916 29.6208 46.6916 29.4923V26.7845C46.6916 26.6559 46.5887 26.5518 46.4616 26.5518Z" fill="currentColor"/>
<path fill-rule="evenodd" clip-rule="evenodd" d="M8.9343 10H6.31982C6.19281 10 6.08984 10.1042 6.08984 10.2327V12.9405C6.08984 13.0691 6.19281 13.1732 6.31982 13.1732H8.9343C9.06132 13.1732 9.16428 13.0691 9.16428 12.9405V10.2327C9.16428 10.1042 9.06132 10 8.9343 10Z" fill="currentColor"/>
<path fill-rule="evenodd" clip-rule="evenodd" d="M49.978 16.6678H48.3691V11.628H30.7827V16.6678H29.1738V10.814C29.1738 10.3642 29.5337 10 29.9783 10L49.1735 10C49.6181 10 49.978 10.3642 49.978 10.814V16.6678Z" fill="currentColor"/>
<path fill-rule="evenodd" clip-rule="evenodd" d="M8.97656 22.6359H40.4792V21.7061H8.97656V22.6359Z" fill="currentColor"/>
</svg>
