<svg width="45" height="45" viewBox="0 0 45 45" fill="none" xmlns="http://www.w3.org/2000/svg">
<path d="M44.25 9H30.75C30.3358 9 30 9.33582 30 9.75V27H13.5V24.75C13.5 24.3358 13.1642 24 12.75 24H10.5V25.5H12V27H9V24H7.5V27H4.5V25.5H6V24H3.75C3.33582 24 3 24.3358 3 24.75V27H0.75C0.335815 27 0 27.3358 0 27.75V44.25C0 44.6642 0.335815 45 0.75 45H44.25C44.6642 45 45 44.6642 45 44.25V9.75C45 9.33582 44.6642 9 44.25 9ZM31.5 10.5H43.5V19.5H31.5V10.5ZM30 31.5H16.5V28.5H30V31.5ZM1.5 28.5H15V31.5H1.5V28.5ZM1.5 33H15V43.5H1.5V33ZM16.5 33H22.5V43.5H16.5V33ZM24 33H30V43.5H24V33ZM31.5 43.5V21H43.5V43.5H31.5Z" fill="currentColor"/>
<path d="M33 13.5H34.5V16.5H33V13.5Z" fill="currentColor"/>
<path d="M33 24H34.5V27H33V24Z" fill="currentColor"/>
<path d="M4.5 30C4.5 30.4142 4.16418 30.75 3.75 30.75C3.33582 30.75 3 30.4142 3 30C3 29.5858 3.33582 29.25 3.75 29.25C4.16418 29.25 4.5 29.5858 4.5 30Z" fill="currentColor"/>
<path d="M7.5 30C7.5 30.4142 7.16418 30.75 6.75 30.75C6.33582 30.75 6 30.4142 6 30C6 29.5858 6.33582 29.25 6.75 29.25C7.16418 29.25 7.5 29.5858 7.5 30Z" fill="currentColor"/>
<path d="M10.5 30C10.5 30.4142 10.1642 30.75 9.75 30.75C9.33582 30.75 9 30.4142 9 30C9 29.5858 9.33582 29.25 9.75 29.25C10.1642 29.25 10.5 29.5858 10.5 30Z" fill="currentColor"/>
<path d="M13.5 30C13.5 30.4142 13.1642 30.75 12.75 30.75C12.3358 30.75 12 30.4142 12 30C12 29.5858 12.3358 29.25 12.75 29.25C13.1642 29.25 13.5 29.5858 13.5 30Z" fill="currentColor"/>
<path d="M0.75 14.25H15.75C16.1642 14.25 16.5 13.9142 16.5 13.5V11.25C16.5 11.0511 16.4209 10.8604 16.2803 10.7197L13.2803 7.71973C13.1396 7.5791 12.9489 7.5 12.75 7.5H12V0.75C12 0.335815 11.6642 0 11.25 0H5.25C4.83581 0 4.5 0.335815 4.5 0.75V7.5H3.75C3.55115 7.5 3.36035 7.5791 3.21973 7.71973L0.219727 10.7197C0.0791015 10.8604 0 11.0511 0 11.25V13.5C0 13.9142 0.335815 14.25 0.75 14.25ZM6 1.5H10.5V7.5H6V1.5ZM1.5 11.5605L4.06055 9H12.4395L15 11.5605V12.75H1.5V11.5605Z" fill="currentColor"/>
<path d="M12.75 34.5H3.75C3.33582 34.5 3 34.8358 3 35.25V41.25C3 41.6642 3.33582 42 3.75 42H12.75C13.1642 42 13.5 41.6642 13.5 41.25V35.25C13.5 34.8358 13.1642 34.5 12.75 34.5ZM12 40.5H4.5V36H12V40.5Z" fill="currentColor"/>
<path d="M21.75 29.25H24.75V30.75H21.75V29.25Z" fill="currentColor"/>
<path d="M19.5 36.75H21V39.75H19.5V36.75Z" fill="currentColor"/>
<path d="M25.5 36.75H27V39.75H25.5V36.75Z" fill="currentColor"/>
<path d="M18 18.75H22.5C22.9142 18.75 23.25 18.4142 23.25 18V17.25C23.2449 15.8862 22.3206 14.6975 21 14.3566V0H19.5V14.3566C18.1794 14.6975 17.2551 15.8862 17.25 17.25V18C17.25 18.4142 17.5858 18.75 18 18.75ZM20.25 15.75C21.0784 15.75 21.75 16.4216 21.75 17.25H18.75C18.75 16.4216 19.4216 15.75 20.25 15.75Z" fill="currentColor"/>
<path d="M23.25 12.75H27.75C28.1642 12.75 28.5 12.4142 28.5 12V11.25C28.4949 9.88623 27.5706 8.69751 26.25 8.35657V0H24.75V8.35657C23.4294 8.69751 22.5051 9.88623 22.5 11.25V12C22.5 12.4142 22.8358 12.75 23.25 12.75ZM25.5 9.75C26.3284 9.75 27 10.4216 27 11.25H24C24 10.4216 24.6716 9.75 25.5 9.75Z" fill="currentColor"/>
</svg>
