<svg width="50" height="36" viewBox="0 0 50 36" fill="none" xmlns="http://www.w3.org/2000/svg">
<path fill-rule="evenodd" clip-rule="evenodd" d="M47.3 16.1504H46V0.650391H47.3V16.1504Z" fill="currentColor"/>
<path fill-rule="evenodd" clip-rule="evenodd" d="M1.15039 32H17.1504V33.3H1.15039V32Z" fill="currentColor"/>
<path fill-rule="evenodd" clip-rule="evenodd" d="M18.8004 16.1504H17.5004V0.650391H18.8004V16.1504ZM17.1504 16.5004V17.8004H0.650391V16.5004H17.1504Z" fill="currentColor"/>
<path fill-rule="evenodd" clip-rule="evenodd" d="M6.17893 6.0278C5.62641 6.80133 5.3 7.79586 5.3 8.65V32.65H4V8.65C4 7.50414 4.42359 6.24867 5.12107 5.2722C5.81493 4.3008 6.86284 3.5 8.15 3.5H46.65V4.8H8.15C7.43716 4.8 6.73507 5.2492 6.17893 6.0278Z" fill="currentColor"/>
<path fill-rule="evenodd" clip-rule="evenodd" d="M0.0166457 7.00384C1.29764 1.45289 5.57551 0 7.65 0H49.3V16.8H18.4192L17.8 17.4192V35.3H0V7.07597L0.0166457 7.00384ZM18.15 16.15C18.15 15.5 18.1501 15.5 18.1502 15.5H48V1.3H7.65C6.06563 1.3 2.43817 2.43589 1.3 7.22508V34H16.5V16.8808L17.8808 15.5H18.1502L18.15 16.15Z" fill="currentColor"/>
</svg>
