<svg width="26" height="40" viewBox="0 0 26 40" fill="none" xmlns="http://www.w3.org/2000/svg">
<path d="M24.9911 17.107H16.5528C16.4136 16.3223 16.1812 15.6072 15.8643 15.002C16.3998 13.9732 16.7023 12.6112 16.7023 11.1941C16.7023 10.0763 16.5132 8.99203 16.1709 8.0793H17.7993V12.8193C17.7993 13.1851 18.0958 13.4816 18.4616 13.4816C18.8273 13.4816 19.1238 13.1851 19.1238 12.8193V8.0793H19.8631C20.1023 8.0793 20.323 7.95031 20.4403 7.7418C20.5577 7.53328 20.5534 7.27773 20.4293 7.07328C19.1327 4.93773 17.994 2.69539 17.0451 0.408359C16.9424 0.161172 16.701 0 16.4334 0H10.2904C10.0227 0 9.78125 0.161172 9.67875 0.408438C8.72977 2.69547 7.59117 4.93781 6.29453 7.07336C6.17039 7.27789 6.16617 7.53336 6.28352 7.74188C6.40086 7.95039 6.62148 8.07938 6.86063 8.07938H10.5525C10.2103 8.99219 10.0211 10.0765 10.0211 11.1941C10.0211 12.6117 10.3238 13.9735 10.8597 15.002C10.5425 15.607 10.3099 16.3222 10.1705 17.1071H4.46188C4.09609 17.1071 3.79961 17.4036 3.79961 17.7694C3.79961 18.1352 4.09609 18.4316 4.46188 18.4316H24.3289V19.3906H23.7366H2.26453H1.67219V18.4316H2.2543C2.62008 18.4316 2.91656 18.1351 2.91656 17.7693C2.91656 17.4035 2.62008 17.107 2.2543 17.107H1.00992C0.64414 17.107 0.347656 17.4035 0.347656 17.7693V20.0529C0.347656 20.4187 0.64414 20.7152 1.00992 20.7152H1.60227V35.7811C1.60227 36.1469 1.89875 36.4434 2.26453 36.4434H2.95719C3.08484 36.8527 3.32945 37.2209 3.67109 37.5016C3.86578 37.6608 3.905 37.9658 3.76016 38.1963L3.26477 38.9857C3.13664 39.1898 3.12961 39.4473 3.24609 39.6582C3.36274 39.8691 3.58461 40 3.82563 40H6.63953C7.00531 40 7.3018 39.7035 7.3018 39.3377V36.4434H18.699V39.3377C18.699 39.7034 18.9955 39.9999 19.3613 39.9999H22.1752C22.4162 39.9999 22.6381 39.8691 22.7547 39.6581C22.8713 39.4473 22.8642 39.1897 22.7361 38.9856L22.2405 38.1959C22.0959 37.9659 22.135 37.6609 22.3309 37.5006C22.6718 37.2205 22.9161 36.8526 23.0438 36.4434H23.7364C24.1022 36.4434 24.3987 36.1469 24.3987 35.7811V24.7044C24.3987 24.3386 24.1022 24.0421 23.7364 24.0421C23.3706 24.0421 23.0741 24.3386 23.0741 24.7044V27.2548H2.9268V20.7152H23.0744V22.5087C23.0744 22.8745 23.3709 23.1709 23.7366 23.1709C24.1024 23.1709 24.3989 22.8745 24.3989 22.5087V20.7152H24.9913C25.357 20.7152 25.6535 20.4187 25.6535 20.0529V17.7693C25.6534 17.4035 25.3569 17.107 24.9911 17.107ZM8.02164 6.75477C9.03422 4.99687 9.9425 3.17625 10.7304 1.32453H15.9933C16.7812 3.17625 17.6894 4.99687 18.702 6.75477H8.02164ZM11.5187 17.107C11.632 16.5705 11.7991 16.0791 12.0091 15.6648H14.7148C14.9245 16.0794 15.0915 16.5706 15.2048 17.107H11.5187ZM14.7151 14.3402H12.0087C11.5848 13.5065 11.3455 12.3835 11.3455 11.1941C11.3455 10.0209 11.5785 8.90953 11.9914 8.0793H14.7319C15.1448 8.90961 15.3778 10.021 15.3778 11.1941C15.3778 12.383 15.1386 13.5059 14.7151 14.3402ZM5.97742 38.6755H5.97734H5.00328C5.34961 37.9151 5.1582 37.0067 4.5107 36.4773C4.49774 36.4666 4.48617 36.4547 4.47391 36.4434H5.97742V38.6755ZM21.4913 36.4762C20.8427 37.0066 20.6513 37.9152 20.9977 38.6754H20.0236V36.4433H21.5272C21.5152 36.4543 21.504 36.4659 21.4913 36.4762ZM23.0742 28.5793V35.1189H2.9268V28.5793H23.0742Z" fill="currentColor"/>
<path d="M13.6501 23.8049C13.6413 23.7625 13.6289 23.721 13.6121 23.6804C13.5953 23.6406 13.5749 23.6018 13.5512 23.5664C13.5265 23.5303 13.4991 23.4958 13.4691 23.4657C13.4381 23.4348 13.4046 23.4075 13.3675 23.3836C13.3322 23.3589 13.2934 23.3386 13.2536 23.3227C13.2138 23.3059 13.1723 23.2927 13.13 23.2847C13.0444 23.2671 12.956 23.2671 12.8713 23.2847C12.8288 23.2927 12.7873 23.3059 12.7467 23.3227C12.707 23.3386 12.6681 23.3589 12.6328 23.3836C12.5966 23.4075 12.5622 23.4349 12.5321 23.4657C12.5012 23.4957 12.4738 23.5302 12.45 23.5664C12.4262 23.6018 12.405 23.6406 12.3891 23.6804C12.3723 23.721 12.3599 23.7625 12.3511 23.8049C12.3423 23.8473 12.3379 23.8905 12.3379 23.9338C12.3379 23.9771 12.3423 24.0204 12.3511 24.0636C12.3599 24.106 12.3723 24.1475 12.3891 24.1872C12.4049 24.2269 12.4262 24.2657 12.45 24.3011C12.4738 24.3382 12.5013 24.3717 12.5321 24.4018C12.5621 24.4327 12.5966 24.46 12.6328 24.4848C12.6681 24.5086 12.707 24.529 12.7467 24.5457C12.7873 24.5616 12.8288 24.5749 12.8713 24.5829C12.9137 24.5917 12.9569 24.5961 13.0002 24.5961C13.0434 24.5961 13.0867 24.5917 13.1299 24.5829C13.1723 24.5749 13.2138 24.5617 13.2535 24.5457C13.2933 24.529 13.3321 24.5086 13.3674 24.4848C13.4045 24.4601 13.4381 24.4327 13.469 24.4018C13.499 24.3718 13.5264 24.3382 13.5511 24.3011C13.5749 24.2657 13.5952 24.2269 13.612 24.1872C13.6288 24.1474 13.6412 24.1059 13.65 24.0636C13.658 24.0203 13.6624 23.977 13.6624 23.9338C13.6624 23.8906 13.6581 23.8473 13.6501 23.8049Z" fill="currentColor"/>
<path d="M13.6502 31.771C13.6413 31.7285 13.629 31.6871 13.6122 31.6474C13.5954 31.6067 13.5751 31.5688 13.5512 31.5326C13.5265 31.4964 13.4991 31.4628 13.4691 31.4319C13.4382 31.4019 13.4047 31.3736 13.3676 31.3498C13.3323 31.326 13.2934 31.3056 13.2537 31.2888C13.2139 31.2721 13.1724 31.2597 13.1301 31.2509C13.0445 31.2341 12.9561 31.2341 12.8713 31.2509C12.8289 31.2597 12.7874 31.2721 12.7468 31.2888C12.707 31.3056 12.6682 31.326 12.6329 31.3498C12.5967 31.3736 12.5623 31.4019 12.5322 31.4319C12.5012 31.4628 12.4739 31.4963 12.4501 31.5326C12.4262 31.5688 12.4051 31.6067 12.3891 31.6474C12.3723 31.6871 12.36 31.7286 12.3512 31.771C12.3423 31.8133 12.3379 31.8575 12.3379 31.9007C12.3379 31.944 12.3423 31.9873 12.3512 32.0296C12.36 32.0721 12.3723 32.1135 12.3891 32.1532C12.405 32.1938 12.4262 32.2318 12.4501 32.268C12.4739 32.3042 12.5013 32.3378 12.5322 32.3687C12.5622 32.3996 12.5966 32.427 12.6329 32.4508C12.6682 32.4746 12.707 32.4949 12.7468 32.5117C12.7874 32.5285 12.8289 32.5409 12.8713 32.5497C12.9138 32.5585 12.957 32.563 13.0002 32.563C13.0435 32.563 13.0868 32.5585 13.13 32.5497C13.1724 32.5409 13.2139 32.5285 13.2536 32.5117C13.2934 32.4949 13.3322 32.4746 13.3675 32.4508C13.4046 32.427 13.4381 32.3995 13.4691 32.3687C13.4991 32.3378 13.5265 32.3042 13.5512 32.268C13.575 32.2318 13.5953 32.1938 13.6121 32.1532C13.6289 32.1135 13.6413 32.072 13.6501 32.0296C13.658 31.9872 13.6624 31.9431 13.6624 31.9007C13.6625 31.8575 13.6581 31.8134 13.6502 31.771Z" fill="currentColor"/>
</svg>
