<svg width="32" height="33" viewBox="0 0 32 33" fill="none" xmlns="http://www.w3.org/2000/svg">
<path fill-rule="evenodd" clip-rule="evenodd" d="M0 0.5H32V30.5H30V32.5H26V30.5H5.5V32.5H1.5V30.5H0V0.5ZM1 20.5V29.5H4.56635L4.50503 29.0707C4.42041 28.4784 4.318 27.585 4.2879 26.8325C4.27303 26.4608 4.27455 26.0976 4.31225 25.8164C4.33038 25.6811 4.36175 25.5239 4.42718 25.387C4.48611 25.2636 4.65528 25 5 25H7.67539L7.81235 25.1096C8.54357 25.6945 9.5911 26.0074 11.6213 26.5149C12.4485 26.7217 13.325 27.153 13.855 27.618C13.9905 27.7368 14.1161 27.869 14.2131 28.0124C14.308 28.1527 14.395 28.3326 14.4084 28.5404C14.4231 28.7668 14.3469 28.9818 14.19 29.1529C14.0457 29.3103 13.8536 29.4092 13.6581 29.4743L13.5811 29.5H18.0664L18.005 29.0707C17.9204 28.4784 17.818 27.585 17.7879 26.8325C17.773 26.4608 17.7745 26.0976 17.8122 25.8164C17.8304 25.6811 17.8618 25.5239 17.9272 25.387C17.9861 25.2636 18.1553 25 18.5 25H21.1754L21.3123 25.1096C22.0436 25.6945 23.0911 26.0074 25.1213 26.5149C25.9485 26.7217 26.825 27.153 27.355 27.618C27.4905 27.7368 27.6161 27.869 27.7131 28.0124C27.808 28.1527 27.895 28.3326 27.9084 28.5404C27.9231 28.7668 27.8469 28.9818 27.69 29.1529C27.5457 29.3103 27.3536 29.4092 27.1581 29.4743L27.0811 29.5H31V20.5H1ZM1 19.5V11H31V19.5H26.5811L26.6581 19.4743C26.8536 19.4092 27.0457 19.3103 27.19 19.1529C27.3469 18.9818 27.4231 18.7668 27.4084 18.5404C27.395 18.3326 27.308 18.1527 27.2131 18.0124C27.1161 17.869 26.9905 17.7368 26.855 17.618C26.325 17.153 25.4485 16.7217 24.6213 16.5149C22.5911 16.0074 21.5436 15.6945 20.8123 15.1096L20.6754 15H18C17.6553 15 17.4861 15.2636 17.4272 15.387C17.3618 15.5239 17.3304 15.6811 17.3122 15.8164C17.2745 16.0976 17.273 16.4608 17.2879 16.8325C17.318 17.585 17.4204 18.4784 17.505 19.0707L17.5664 19.5H12.8311L12.9081 19.4743C13.1036 19.4092 13.2957 19.3103 13.44 19.1529C13.5969 18.9818 13.6731 18.7668 13.6584 18.5404C13.645 18.3326 13.558 18.1527 13.4631 18.0124C13.3661 17.869 13.2405 17.7368 13.105 17.618C12.575 17.153 11.6985 16.7217 10.8713 16.5149C8.8411 16.0074 7.79357 15.6945 7.06235 15.1096L6.92539 15H4.25C3.90528 15 3.73611 15.2636 3.67718 15.387C3.61175 15.5239 3.58038 15.6811 3.56225 15.8164C3.52455 16.0976 3.52303 16.4608 3.5379 16.8325C3.568 17.585 3.67041 18.4784 3.75503 19.0707L3.81635 19.5H1ZM31 10V4H1V10H31ZM1 3H31V1.5H1V3ZM2.5 30.5V31.5H4.5V30.5H2.5ZM27 30.5V31.5H29V30.5H27ZM12.75 7.5V6.5H19.75V7.5H12.75ZM4.68774 18.5H12.5778C12.5441 18.4616 12.5004 18.4179 12.4455 18.3697C12.0589 18.0305 11.3355 17.6618 10.6287 17.4851C8.75758 17.0173 7.50364 16.6746 6.58092 16H4.5473C4.52687 16.1918 4.524 16.4651 4.5371 16.7925C4.55893 17.3382 4.62222 17.9741 4.68774 18.5ZM18.4377 18.5H26.3278C26.2941 18.4616 26.2504 18.4179 26.1955 18.3697C25.8089 18.0305 25.0855 17.6618 24.3787 17.4851C22.5076 17.0173 21.2536 16.6746 20.3309 16H18.2973C18.2769 16.1918 18.274 16.4651 18.2871 16.7925C18.3089 17.3382 18.3722 17.9741 18.4377 18.5ZM5.43774 28.5H13.3278C13.2941 28.4616 13.2504 28.4179 13.1955 28.3697C12.8089 28.0305 12.0855 27.6618 11.3787 27.4851C9.50758 27.0173 8.25364 26.6746 7.33092 26H5.2973C5.27687 26.1918 5.274 26.4651 5.2871 26.7925C5.30893 27.3382 5.37222 27.9741 5.43774 28.5ZM18.9377 28.5H26.8278C26.7941 28.4616 26.7504 28.4179 26.6955 28.3697C26.3089 28.0305 25.5855 27.6618 24.8787 27.4851C23.0076 27.0173 21.7536 26.6746 20.8309 26H18.7973C18.7769 26.1918 18.774 26.4651 18.7871 26.7925C18.8089 27.3382 18.8722 27.9741 18.9377 28.5Z" fill="currentColor"/>
</svg>
