<svg width="45" height="29" viewBox="0 0 45 29" fill="none" xmlns="http://www.w3.org/2000/svg">
<path d="M44.9611 7.95413C44.7031 6.1496 43.0906 4.78833 41.196 4.75607C39.4028 1.96678 36.3067 0.25 32.9999 0.25H11.9996C8.6935 0.25 5.59745 1.96678 3.80342 4.75607C1.90814 4.78833 0.295609 6.1496 0.0383545 7.95413C-0.20615 9.67166 0.740366 11.3524 2.24939 12.0289V19.7503C2.24939 22.1241 3.83417 24.1319 5.99945 24.7792V28.0005C5.99945 28.4145 6.33471 28.7505 6.74947 28.7505H8.9995C9.30626 28.7505 9.58151 28.5637 9.69627 28.2795L11.008 25.0004H33.9922L35.3039 28.2795C35.4179 28.5637 35.6939 28.7505 36.0007 28.7505H38.2507C38.6655 28.7505 39.0008 28.4145 39.0008 28.0005V24.7792C41.1668 24.1319 42.7508 22.1234 42.7508 19.7503V12.0289C44.2591 11.3524 45.2056 9.67091 44.9611 7.95413ZM11.9988 1.74927H32.9992C35.5822 1.74927 38.0167 2.98905 39.5708 5.04033C39.3608 5.12058 39.1575 5.21508 38.9647 5.32608C38.8845 4.99833 38.6025 4.74933 38.25 4.74933C37.836 4.74933 37.5 5.08533 37.5 5.49934C37.5 5.79109 37.6717 6.03785 37.9155 6.1616C37.9087 6.16835 37.9035 6.1766 37.8975 6.18335C37.7932 6.2981 37.6942 6.4181 37.6027 6.54336C37.5735 6.58236 37.5427 6.61986 37.515 6.66036C37.416 6.80511 37.3267 6.95661 37.2457 7.11336C37.2165 7.16961 37.1902 7.22662 37.1632 7.28362C37.0995 7.42087 37.0417 7.56112 36.9922 7.70587C36.9795 7.74337 36.963 7.77938 36.951 7.81763C36.8947 7.99688 36.8535 8.18213 36.8205 8.36964C36.8115 8.42064 36.804 8.47164 36.7972 8.52339C36.7695 8.72139 36.7507 8.92165 36.7507 9.12715V12.2487V13.7682C36.1222 13.292 35.3482 12.9987 34.5007 12.9987C32.4329 12.9987 30.7506 14.681 30.7506 16.7488C30.7506 17.5963 31.0439 18.3703 31.5201 18.9988H30.0006C30.0006 18.5848 29.6646 18.2488 29.2506 18.2488C28.8366 18.2488 28.5006 18.5848 28.5006 18.9988H25.5005C25.5005 18.5848 25.1645 18.2488 24.7505 18.2488C24.3365 18.2488 24.0005 18.5848 24.0005 18.9988H21.0005C21.0005 18.5848 20.6644 18.2488 20.2504 18.2488C19.8364 18.2488 19.5004 18.5848 19.5004 18.9988H16.5004C16.5004 18.5848 16.1644 18.2488 15.7504 18.2488C15.3364 18.2488 15.0004 18.5848 15.0004 18.9988H13.4808C13.9571 18.3703 14.2503 17.5963 14.2503 16.7488C14.2503 14.681 12.5681 12.9987 10.5003 12.9987C9.65276 12.9987 8.87875 13.292 8.25024 13.7682V12.2487V9.12715C8.25024 8.92165 8.23074 8.72139 8.20374 8.52339C8.19699 8.47164 8.18874 8.42064 8.18049 8.36964C8.14749 8.18138 8.10624 7.99688 8.04999 7.81763C8.03799 7.77863 8.02149 7.74262 8.00874 7.70437C7.95924 7.56037 7.90224 7.42012 7.83773 7.28362C7.81073 7.22587 7.78448 7.16886 7.75523 7.11336C7.67348 6.95661 7.58498 6.80511 7.48598 6.66036C7.45823 6.61986 7.42748 6.58236 7.39823 6.54336C7.30598 6.4181 7.20772 6.2981 7.10347 6.18335C7.09672 6.1766 7.09222 6.16835 7.08547 6.1616C7.32923 6.03785 7.50098 5.79109 7.50098 5.49934C7.50098 5.08533 7.16497 4.74933 6.75097 4.74933C6.39846 4.74933 6.11571 4.99833 6.0362 5.32608C5.8427 5.21583 5.6402 5.12133 5.43019 5.04033C6.98122 2.98905 9.41576 1.74927 11.9988 1.74927ZM32.2491 16.7495C32.2491 15.509 33.2587 14.4995 34.4992 14.4995C35.7397 14.4995 36.7492 15.509 36.7492 16.7495C36.7492 17.99 35.7397 18.9996 34.4992 18.9996C33.2587 18.9996 32.2491 17.9908 32.2491 16.7495ZM8.24874 16.7495C8.24874 15.509 9.25826 14.4995 10.4988 14.4995C11.7393 14.4995 12.7488 15.509 12.7488 16.7495C12.7488 17.99 11.7393 18.9996 10.4988 18.9996C9.25826 18.9996 8.24874 17.9908 8.24874 16.7495ZM8.49174 27.2497H7.49873V24.9997H9.39101L8.49174 27.2497ZM37.4992 27.2497H36.507L35.6069 24.9997H37.4992V27.2497ZM41.8763 10.7494H40.5C40.0853 10.7494 39.75 11.0854 39.75 11.4994C39.75 11.9134 40.0853 12.2495 40.5 12.2495H41.25V19.7496C41.25 21.8174 39.5678 23.4996 37.5 23.4996H34.4999H10.4995H7.49948C5.43169 23.4996 3.74942 21.8174 3.74942 19.7496V12.2495H4.49943C4.91419 12.2495 5.24944 11.9134 5.24944 11.4994C5.24944 11.0854 4.91419 10.7494 4.49943 10.7494H3.12241C2.05814 10.4359 1.35838 9.3184 1.52263 8.16563C1.67788 7.07286 2.6874 6.24935 3.87017 6.24935C3.95042 6.24935 4.02617 6.2666 4.10417 6.27335C4.11392 6.27485 4.12292 6.2786 4.13267 6.27935C4.50318 6.31385 4.85043 6.4151 5.16394 6.57111C5.16994 6.57411 5.17669 6.57786 5.18269 6.58161C5.32519 6.65361 5.45944 6.73836 5.5862 6.83136C5.6207 6.85761 5.65295 6.88686 5.6867 6.91386C5.78495 6.99261 5.87795 7.07511 5.9642 7.16511C6.01745 7.22212 6.0647 7.28437 6.11271 7.34512C6.17196 7.41862 6.23196 7.49062 6.28371 7.56937C6.34071 7.65712 6.38646 7.75163 6.43371 7.84538C6.46671 7.91063 6.50421 7.97213 6.53196 8.03963C6.57921 8.15588 6.61221 8.27888 6.64446 8.40189C6.65871 8.45664 6.68047 8.50839 6.69172 8.56464C6.72772 8.74689 6.74872 8.93514 6.74872 9.1279V18.5998V19.7496C6.74872 20.1636 7.08397 20.4996 7.49873 20.4996H8.6485H36.3495H37.4992C37.914 20.4996 38.2492 20.1636 38.2492 19.7496V18.5998V9.1279C38.2492 8.93514 38.2695 8.74689 38.3062 8.56464C38.3175 8.50839 38.3392 8.45664 38.3535 8.40114C38.3857 8.27813 38.418 8.15588 38.466 8.03963C38.4937 7.97138 38.532 7.90913 38.565 7.84388C38.6122 7.75012 38.658 7.65562 38.715 7.56862C38.7667 7.48987 38.8275 7.41787 38.886 7.34437C38.9347 7.28362 38.9813 7.22062 39.0345 7.16437C39.12 7.07436 39.2138 6.99261 39.3105 6.91386C39.3443 6.88611 39.3758 6.85686 39.411 6.83136C39.5378 6.73761 39.6728 6.65286 39.8153 6.58086C39.8213 6.57786 39.8273 6.57411 39.834 6.57111C40.1475 6.4151 40.4955 6.3131 40.866 6.27935C40.8758 6.2786 40.8848 6.2741 40.8945 6.27335C40.9733 6.2666 41.0483 6.24935 41.1285 6.24935C42.3113 6.24935 43.3208 7.07286 43.4761 8.16563C43.6396 9.31915 42.9398 10.4367 41.8763 10.7494Z" fill="currentColor"/>
<path d="M8.99806 4.00002C9.41228 4.00002 9.74807 3.66423 9.74807 3.25001C9.74807 2.83579 9.41228 2.5 8.99806 2.5C8.58384 2.5 8.24805 2.83579 8.24805 3.25001C8.24805 3.66423 8.58384 4.00002 8.99806 4.00002Z" fill="currentColor"/>
<path d="M13.4981 4.00002C13.9123 4.00002 14.2481 3.66423 14.2481 3.25001C14.2481 2.83579 13.9123 2.5 13.4981 2.5C13.0838 2.5 12.748 2.83579 12.748 3.25001C12.748 3.66423 13.0838 4.00002 13.4981 4.00002Z" fill="currentColor"/>
<path d="M8.99806 8.50003C9.41228 8.50003 9.74807 8.16423 9.74807 7.75001C9.74807 7.33579 9.41228 7 8.99806 7C8.58384 7 8.24805 7.33579 8.24805 7.75001C8.24805 8.16423 8.58384 8.50003 8.99806 8.50003Z" fill="currentColor"/>
<path d="M13.4981 8.50003C13.9123 8.50003 14.2481 8.16423 14.2481 7.75001C14.2481 7.33579 13.9123 7 13.4981 7C13.0838 7 12.748 7.33579 12.748 7.75001C12.748 8.16423 13.0838 8.50003 13.4981 8.50003Z" fill="currentColor"/>
<path d="M11.2481 6.25002C11.6623 6.25002 11.9981 5.91423 11.9981 5.50001C11.9981 5.08579 11.6623 4.75 11.2481 4.75C10.8338 4.75 10.498 5.08579 10.498 5.50001C10.498 5.91423 10.8338 6.25002 11.2481 6.25002Z" fill="currentColor"/>
<path d="M15.7481 6.25002C16.1623 6.25002 16.4981 5.91423 16.4981 5.50001C16.4981 5.08579 16.1623 4.75 15.7481 4.75C15.3338 4.75 14.998 5.08579 14.998 5.50001C14.998 5.91423 15.3338 6.25002 15.7481 6.25002Z" fill="currentColor"/>
<path d="M11.2481 10.75C11.6623 10.75 11.9981 10.4142 11.9981 10C11.9981 9.58579 11.6623 9.25 11.2481 9.25C10.8338 9.25 10.498 9.58579 10.498 10C10.498 10.4142 10.8338 10.75 11.2481 10.75Z" fill="currentColor"/>
<path d="M15.7481 10.75C16.1623 10.75 16.4981 10.4142 16.4981 10C16.4981 9.58579 16.1623 9.25 15.7481 9.25C15.3338 9.25 14.998 9.58579 14.998 10C14.998 10.4142 15.3338 10.75 15.7481 10.75Z" fill="currentColor"/>
<path d="M17.9981 4.00002C18.4123 4.00002 18.7481 3.66423 18.7481 3.25001C18.7481 2.83579 18.4123 2.5 17.9981 2.5C17.5838 2.5 17.248 2.83579 17.248 3.25001C17.248 3.66423 17.5838 4.00002 17.9981 4.00002Z" fill="currentColor"/>
<path d="M22.4981 4.00002C22.9123 4.00002 23.2481 3.66423 23.2481 3.25001C23.2481 2.83579 22.9123 2.5 22.4981 2.5C22.0838 2.5 21.748 2.83579 21.748 3.25001C21.748 3.66423 22.0838 4.00002 22.4981 4.00002Z" fill="currentColor"/>
<path d="M17.9981 8.50003C18.4123 8.50003 18.7481 8.16423 18.7481 7.75001C18.7481 7.33579 18.4123 7 17.9981 7C17.5838 7 17.248 7.33579 17.248 7.75001C17.248 8.16423 17.5838 8.50003 17.9981 8.50003Z" fill="currentColor"/>
<path d="M22.4981 8.50003C22.9123 8.50003 23.2481 8.16423 23.2481 7.75001C23.2481 7.33579 22.9123 7 22.4981 7C22.0838 7 21.748 7.33579 21.748 7.75001C21.748 8.16423 22.0838 8.50003 22.4981 8.50003Z" fill="currentColor"/>
<path d="M20.2481 6.25002C20.6623 6.25002 20.9981 5.91423 20.9981 5.50001C20.9981 5.08579 20.6623 4.75 20.2481 4.75C19.8338 4.75 19.498 5.08579 19.498 5.50001C19.498 5.91423 19.8338 6.25002 20.2481 6.25002Z" fill="currentColor"/>
<path d="M24.7481 6.25002C25.1623 6.25002 25.4981 5.91423 25.4981 5.50001C25.4981 5.08579 25.1623 4.75 24.7481 4.75C24.3338 4.75 23.998 5.08579 23.998 5.50001C23.998 5.91423 24.3338 6.25002 24.7481 6.25002Z" fill="currentColor"/>
<path d="M20.2481 10.75C20.6623 10.75 20.9981 10.4142 20.9981 10C20.9981 9.58579 20.6623 9.25 20.2481 9.25C19.8338 9.25 19.498 9.58579 19.498 10C19.498 10.4142 19.8338 10.75 20.2481 10.75Z" fill="currentColor"/>
<path d="M24.7481 10.75C25.1623 10.75 25.4981 10.4142 25.4981 10C25.4981 9.58579 25.1623 9.25 24.7481 9.25C24.3338 9.25 23.998 9.58579 23.998 10C23.998 10.4142 24.3338 10.75 24.7481 10.75Z" fill="currentColor"/>
<path d="M26.9981 4.00002C27.4123 4.00002 27.7481 3.66423 27.7481 3.25001C27.7481 2.83579 27.4123 2.5 26.9981 2.5C26.5838 2.5 26.248 2.83579 26.248 3.25001C26.248 3.66423 26.5838 4.00002 26.9981 4.00002Z" fill="currentColor"/>
<path d="M31.5 4.00002C31.9142 4.00002 32.25 3.66423 32.25 3.25001C32.25 2.83579 31.9142 2.5 31.5 2.5C31.0858 2.5 30.75 2.83579 30.75 3.25001C30.75 3.66423 31.0858 4.00002 31.5 4.00002Z" fill="currentColor"/>
<path d="M26.9981 8.50003C27.4123 8.50003 27.7481 8.16423 27.7481 7.75001C27.7481 7.33579 27.4123 7 26.9981 7C26.5838 7 26.248 7.33579 26.248 7.75001C26.248 8.16423 26.5838 8.50003 26.9981 8.50003Z" fill="currentColor"/>
<path d="M31.5 8.50003C31.9142 8.50003 32.25 8.16423 32.25 7.75001C32.25 7.33579 31.9142 7 31.5 7C31.0858 7 30.75 7.33579 30.75 7.75001C30.75 8.16423 31.0858 8.50003 31.5 8.50003Z" fill="currentColor"/>
<path d="M29.25 6.25002C29.6642 6.25002 30 5.91423 30 5.50001C30 5.08579 29.6642 4.75 29.25 4.75C28.8358 4.75 28.5 5.08579 28.5 5.50001C28.5 5.91423 28.8358 6.25002 29.25 6.25002Z" fill="currentColor"/>
<path d="M33.75 6.25002C34.1642 6.25002 34.5 5.91423 34.5 5.50001C34.5 5.08579 34.1642 4.75 33.75 4.75C33.3358 4.75 33 5.08579 33 5.50001C33 5.91423 33.3358 6.25002 33.75 6.25002Z" fill="currentColor"/>
<path d="M29.25 10.75C29.6642 10.75 30 10.4142 30 10C30 9.58579 29.6642 9.25 29.25 9.25C28.8358 9.25 28.5 9.58579 28.5 10C28.5 10.4142 28.8358 10.75 29.25 10.75Z" fill="currentColor"/>
<path d="M33.75 10.75C34.1642 10.75 34.5 10.4142 34.5 10C34.5 9.58579 34.1642 9.25 33.75 9.25C33.3358 9.25 33 9.58579 33 10C33 10.4142 33.3358 10.75 33.75 10.75Z" fill="currentColor"/>
<path d="M36 4.00002C36.4142 4.00002 36.75 3.66423 36.75 3.25001C36.75 2.83579 36.4142 2.5 36 2.5C35.5858 2.5 35.25 2.83579 35.25 3.25001C35.25 3.66423 35.5858 4.00002 36 4.00002Z" fill="currentColor"/>
<path d="M36 8.50003C36.4142 8.50003 36.75 8.16423 36.75 7.75001C36.75 7.33579 36.4142 7 36 7C35.5858 7 35.25 7.33579 35.25 7.75001C35.25 8.16423 35.5858 8.50003 36 8.50003Z" fill="currentColor"/>
<path d="M8.99806 13C9.41228 13 9.74807 12.6642 9.74807 12.25C9.74807 11.8358 9.41228 11.5 8.99806 11.5C8.58384 11.5 8.24805 11.8358 8.24805 12.25C8.24805 12.6642 8.58384 13 8.99806 13Z" fill="currentColor"/>
<path d="M13.4981 13C13.9123 13 14.2481 12.6642 14.2481 12.25C14.2481 11.8358 13.9123 11.5 13.4981 11.5C13.0838 11.5 12.748 11.8358 12.748 12.25C12.748 12.6642 13.0838 13 13.4981 13Z" fill="currentColor"/>
<path d="M15.7481 15.25C16.1623 15.25 16.4981 14.9142 16.4981 14.5C16.4981 14.0858 16.1623 13.75 15.7481 13.75C15.3338 13.75 14.998 14.0858 14.998 14.5C14.998 14.9142 15.3338 15.25 15.7481 15.25Z" fill="currentColor"/>
<path d="M17.9981 13C18.4123 13 18.7481 12.6642 18.7481 12.25C18.7481 11.8358 18.4123 11.5 17.9981 11.5C17.5838 11.5 17.248 11.8358 17.248 12.25C17.248 12.6642 17.5838 13 17.9981 13Z" fill="currentColor"/>
<path d="M22.4981 13C22.9123 13 23.2481 12.6642 23.2481 12.25C23.2481 11.8358 22.9123 11.5 22.4981 11.5C22.0838 11.5 21.748 11.8358 21.748 12.25C21.748 12.6642 22.0838 13 22.4981 13Z" fill="currentColor"/>
<path d="M17.9981 17.5C18.4123 17.5 18.7481 17.1642 18.7481 16.75C18.7481 16.3358 18.4123 16 17.9981 16C17.5838 16 17.248 16.3358 17.248 16.75C17.248 17.1642 17.5838 17.5 17.9981 17.5Z" fill="currentColor"/>
<path d="M22.4981 17.5C22.9123 17.5 23.2481 17.1642 23.2481 16.75C23.2481 16.3358 22.9123 16 22.4981 16C22.0838 16 21.748 16.3358 21.748 16.75C21.748 17.1642 22.0838 17.5 22.4981 17.5Z" fill="currentColor"/>
<path d="M20.2481 15.25C20.6623 15.25 20.9981 14.9142 20.9981 14.5C20.9981 14.0858 20.6623 13.75 20.2481 13.75C19.8338 13.75 19.498 14.0858 19.498 14.5C19.498 14.9142 19.8338 15.25 20.2481 15.25Z" fill="currentColor"/>
<path d="M24.7481 15.25C25.1623 15.25 25.4981 14.9142 25.4981 14.5C25.4981 14.0858 25.1623 13.75 24.7481 13.75C24.3338 13.75 23.998 14.0858 23.998 14.5C23.998 14.9142 24.3338 15.25 24.7481 15.25Z" fill="currentColor"/>
<path d="M26.9981 13C27.4123 13 27.7481 12.6642 27.7481 12.25C27.7481 11.8358 27.4123 11.5 26.9981 11.5C26.5838 11.5 26.248 11.8358 26.248 12.25C26.248 12.6642 26.5838 13 26.9981 13Z" fill="currentColor"/>
<path d="M31.5 13C31.9142 13 32.25 12.6642 32.25 12.25C32.25 11.8358 31.9142 11.5 31.5 11.5C31.0858 11.5 30.75 11.8358 30.75 12.25C30.75 12.6642 31.0858 13 31.5 13Z" fill="currentColor"/>
<path d="M26.9981 17.5C27.4123 17.5 27.7481 17.1642 27.7481 16.75C27.7481 16.3358 27.4123 16 26.9981 16C26.5838 16 26.248 16.3358 26.248 16.75C26.248 17.1642 26.5838 17.5 26.9981 17.5Z" fill="currentColor"/>
<path d="M29.25 15.25C29.6642 15.25 30 14.9142 30 14.5C30 14.0858 29.6642 13.75 29.25 13.75C28.8358 13.75 28.5 14.0858 28.5 14.5C28.5 14.9142 28.8358 15.25 29.25 15.25Z" fill="currentColor"/>
<path d="M36 13C36.4142 13 36.75 12.6642 36.75 12.25C36.75 11.8358 36.4142 11.5 36 11.5C35.5858 11.5 35.25 11.8358 35.25 12.25C35.25 12.6642 35.5858 13 36 13Z" fill="currentColor"/>
</svg>
