<svg width="37" height="35" viewBox="0 0 37 35" fill="none" xmlns="http://www.w3.org/2000/svg">
<path d="M16.6499 28.2457H20.3499C20.6909 28.2457 20.9665 27.9712 20.9665 27.6316C20.9665 27.2921 20.6909 27.0176 20.3499 27.0176H16.6499C16.3089 27.0176 16.0332 27.2921 16.0332 27.6316C16.0332 27.9712 16.3089 28.2457 16.6499 28.2457Z" fill="currentColor"/>
<path d="M16.6499 18.4195H20.3499C20.6909 18.4195 20.9665 18.145 20.9665 17.8054C20.9665 17.4659 20.6909 17.1914 20.3499 17.1914H16.6499C16.3089 17.1914 16.0332 17.4659 16.0332 17.8054C16.0332 18.145 16.3089 18.4195 16.6499 18.4195Z" fill="currentColor"/>
<path d="M32.0667 2.45614V1.89675C32.2708 1.63026 33.3709 1.22807 33.9167 1.22807H34.5333C34.8744 1.22807 35.15 0.953596 35.15 0.614035C35.15 0.274474 34.8744 0 34.5333 0H33.9167H25.2833H24.6667C24.3257 0 24.05 0.274474 24.05 0.614035C24.05 0.953596 24.3257 1.22807 24.6667 1.22807H25.2833C25.8291 1.22807 26.9292 1.63026 27.1333 1.89675V2.45614H0V12.2807V13.5088V22.1053V23.3333V33.1579H1.85V35H5.55V33.1579H31.45V35H35.15V33.1579H37V23.3333V22.1053V13.5088V12.2807V2.45614H32.0667ZM28.1632 1.22807H31.0368C30.9092 1.41105 30.8333 1.61553 30.8333 1.84211V2.45614H28.3667V1.84211C28.3667 1.61553 28.2908 1.41105 28.1632 1.22807ZM4.31667 33.7719H3.08333V33.1579H4.31667V33.7719ZM33.9167 33.7719H32.6833V33.1579H33.9167V33.7719ZM35.7667 31.9298H35.15H31.45H5.55H1.85H1.23333V23.3333H35.7667V31.9298ZM35.7667 22.1053H1.23333V13.5088H35.7667V22.1053ZM1.23333 12.2807V3.68421H27.1333H32.0667H35.7667V12.2807H1.23333Z" fill="currentColor"/>
<path d="M20.3499 7.36914H16.6499C16.3089 7.36914 16.0332 7.64361 16.0332 7.98318C16.0332 8.32274 16.3089 8.59721 16.6499 8.59721H20.3499C20.6909 8.59721 20.9665 8.32274 20.9665 7.98318C20.9665 7.64361 20.6909 7.36914 20.3499 7.36914Z" fill="currentColor"/>
</svg>
