<svg width="53" height="23" viewBox="0 0 53 23" fill="none" xmlns="http://www.w3.org/2000/svg">
<path fill-rule="evenodd" clip-rule="evenodd" d="M0.25 12C0.25 11.5858 0.585786 11.25 1 11.25H52C52.4142 11.25 52.75 11.5858 52.75 12V20C52.75 20.4142 52.4142 20.75 52 20.75H1C0.585786 20.75 0.25 20.4142 0.25 20V12ZM1.75 12.75V19.25H51.25V12.75H1.75Z" fill="currentColor"/>
<path fill-rule="evenodd" clip-rule="evenodd" d="M1 17.9549H52V16.0449H1V17.9549Z" fill="currentColor"/>
<path fill-rule="evenodd" clip-rule="evenodd" d="M48.8154 19.7412H46.0984C45.9664 19.7412 45.8594 19.8482 45.8594 19.9802V22.7612C45.8594 22.8932 45.9664 23.0002 46.0984 23.0002H48.8154C48.9474 23.0002 49.0544 22.8932 49.0544 22.7612V19.9802C49.0544 19.8482 48.9474 19.7412 48.8154 19.7412Z" fill="currentColor"/>
<path fill-rule="evenodd" clip-rule="evenodd" d="M6.60639 19.7412H3.88939C3.75739 19.7412 3.65039 19.8482 3.65039 19.9802V22.7612C3.65039 22.8932 3.75739 23.0002 3.88939 23.0002H6.60639C6.73839 23.0002 6.84539 22.8932 6.84539 22.7612V19.9802C6.84539 19.8482 6.73839 19.7412 6.60639 19.7412Z" fill="currentColor"/>
<path fill-rule="evenodd" clip-rule="evenodd" d="M51 12H49.3244V2.03737H4.67563V12H3V1.01868C3 0.455727 3.37481 0 3.83782 0H50.1622C50.6252 0 51 0.455727 51 1.01868V12Z" fill="currentColor"/>
<path fill-rule="evenodd" clip-rule="evenodd" d="M6.38867 12.4989H47.1267V11.5439H6.38867V12.4989Z" fill="currentColor"/>
</svg>
