<svg width="58" height="41" viewBox="0 0 58 41" fill="none" xmlns="http://www.w3.org/2000/svg">
<path fill-rule="evenodd" clip-rule="evenodd" d="M1.60039 1.60046L1.60039 18.2314L0.400391 18.2314L0.400391 0.400457L17.3245 0.400457L17.3245 1.60046L1.60039 1.60046ZM4.02797 18.2314L4.02797 3.80131L17.3245 3.80131L17.3245 5.00131L5.22797 5.00131L5.22797 18.2314L4.02797 18.2314Z" fill="currentColor"/>
<path fill-rule="evenodd" clip-rule="evenodd" d="M38.1816 0.400391H57.5997V29.0339H40.5V27.8339H56.3997V18.3779H50.9583V1.60039H38.1816V0.400391ZM52.1583 1.60039V17.1779H56.3997V1.60039H52.1583Z" fill="currentColor"/>
<path fill-rule="evenodd" clip-rule="evenodd" d="M0.400391 40.1436L0.40039 18.1182L1.60039 18.1182L1.60039 33.2755L16.7245 33.2755L16.7245 8.50058L17.9245 8.50058L17.9245 40.1436L0.400391 40.1436ZM16.7245 34.4755L1.60039 34.4755L1.60039 38.9436L16.7245 38.9436L16.7245 34.4755Z" fill="currentColor"/>
<path fill-rule="evenodd" clip-rule="evenodd" d="M4.02734 33.9884L4.02734 18.2319L5.22734 18.2319L5.22734 33.9884L4.02734 33.9884ZM6.06786 34.1025L6.06785 18.2319L7.26785 18.2319L7.26786 34.1025L6.06786 34.1025ZM7.88164 34.1025L7.88164 18.2319L9.08164 18.2319L9.08164 34.1025L7.88164 34.1025Z" fill="currentColor"/>
<path fill-rule="evenodd" clip-rule="evenodd" d="M38.1824 1.60039H17.3238V0.400391H38.1824V1.60039ZM17.3238 3.80124H51.3329V5.00124H17.3238V3.80124ZM6.06836 5.7692H51.6956V6.9692H7.26836V18.2314H6.06836V5.7692ZM7.88163 7.78251H51.6956V8.98251H9.08163V18.2314H7.88163V7.78251ZM41.4037 18.6047H17.0004V17.4047H41.4037V18.6047Z" fill="currentColor"/>
<path fill-rule="evenodd" clip-rule="evenodd" d="M41.6004 8L41.6004 29L40.4004 29L40.4004 8L41.6004 8Z" fill="currentColor"/>
</svg>
