<svg width="32" height="40" viewBox="0 0 32 40" fill="none" xmlns="http://www.w3.org/2000/svg">
<path d="M29.992 13.3276H27.3267C27.0994 13.3294 26.8741 13.37 26.6604 13.4475V7.99704C26.5693 3.49933 22.8561 -0.0767888 18.3581 0.00125341H13.3341C8.96626 -0.0468879 5.38648 3.45502 5.33834 7.8228C5.33767 7.88085 5.33767 7.9389 5.33834 7.99704V13.4475C5.1247 13.37 4.89932 13.3294 4.67202 13.3276H2.00676C0.902757 13.3276 0.0078125 14.2225 0.0078125 15.3265C0.0078125 16.4305 0.902757 17.3255 2.00676 17.3255H2.67307V21.4233C2.67674 22.4706 3.52479 23.3186 4.57207 23.3223H5.43162C5.73463 24.4959 6.79149 25.3173 8.0036 25.3212H12.6678V27.3202C12.6678 27.6882 12.9661 27.9865 13.3341 27.9865H14.0004V29.9855C14.0012 30.0483 13.9559 30.1021 13.8938 30.112L8.37673 31.0316C7.01195 31.2592 5.92986 32.3068 5.65817 33.6635L5.39164 34.9961C4.10032 35.7028 3.62632 37.3223 4.33295 38.6137C5.03958 39.905 6.65914 40.379 7.95046 39.6723C8.811 39.2014 9.34339 38.2959 9.33623 37.3149C9.33531 37.1426 9.31749 36.9707 9.28292 36.8019L9.83596 34.583L13.9671 34.0633V35.5625C12.9935 36.6665 13.0992 38.3507 14.2032 39.3244C15.3072 40.298 16.9914 40.1923 17.965 39.0883C18.8535 38.0809 18.8535 36.5699 17.965 35.5625V34.07L22.0962 34.5897L22.6625 36.8085C22.6462 36.9769 22.6462 37.1465 22.6625 37.3149C22.6555 38.7869 23.8431 39.9858 25.3151 39.9928C26.787 39.9998 27.986 38.8123 27.993 37.3403C27.9976 36.3617 27.4656 35.4592 26.6071 34.9895L26.3406 33.6568C26.0689 32.3001 24.9868 31.2525 23.622 31.0249L18.1049 30.1054C18.0454 30.0959 18.0007 30.0458 17.9983 29.9855V27.9865H18.6646C19.0326 27.9865 19.331 27.6882 19.331 27.3202V25.3212H23.9952C25.2073 25.3173 26.2641 24.4959 26.5671 23.3223H27.4267C28.474 23.3186 29.322 22.4706 29.3257 21.4233V17.3255H29.992C31.096 17.3255 31.9909 16.4305 31.9909 15.3265C31.9909 14.2225 31.0959 13.3276 29.992 13.3276ZM5.33834 21.9897H4.57207C4.25932 21.9897 4.0057 21.7361 4.0057 21.4233V17.3255H4.67202C4.89932 17.3236 5.1247 17.2831 5.33834 17.2055V21.9897ZM4.67202 15.9928H2.00676C1.63879 15.9928 1.34044 15.6945 1.34044 15.3265C1.34044 14.9585 1.63879 14.6602 2.00676 14.6602H4.67202C5.03999 14.6602 5.33834 14.9585 5.33834 15.3265C5.33834 15.6945 5.03999 15.9928 4.67202 15.9928ZM6.67097 38.6476C5.93494 38.6476 5.33834 38.0509 5.33834 37.3149C5.33834 36.5789 5.93494 35.9823 6.67097 35.9823C7.40699 35.9823 8.0036 36.5789 8.0036 37.3149C8.0036 38.0509 7.40691 38.6476 6.67097 38.6476ZM15.9994 38.6476C15.2634 38.6476 14.6667 38.0509 14.6667 37.3149C14.6667 36.5789 15.2634 35.9823 15.9994 35.9823C16.7354 35.9823 17.332 36.5789 17.332 37.3149C17.332 38.0509 16.7353 38.6476 15.9994 38.6476ZM26.6604 37.3149C26.6604 38.0509 26.0638 38.6476 25.3278 38.6476C24.5918 38.6476 23.9952 38.0509 23.9952 37.3149C23.9952 36.5789 24.5918 35.9823 25.3278 35.9823C26.0638 35.9823 26.6604 36.5789 26.6604 37.3149ZM23.4021 32.3375C24.2215 32.4736 24.8715 33.1023 25.0346 33.9167L25.1812 34.6497C24.6283 34.6832 24.0997 34.8881 23.6687 35.236L23.3288 33.8234C23.2618 33.5556 23.0366 33.3568 22.7625 33.3237L17.432 32.6574C17.2439 32.6344 17.0548 32.6925 16.9122 32.8173C16.761 32.9399 16.6709 33.1225 16.6657 33.317V34.7429C16.2302 34.6185 15.7686 34.6185 15.3331 34.7429V33.317C15.3328 33.1256 15.2503 32.9436 15.1065 32.8173C14.9639 32.6925 14.7749 32.6344 14.5868 32.6574L9.25627 33.3237C8.98216 33.3568 8.75695 33.5556 8.6899 33.8234L8.33009 35.2493C7.90073 34.8967 7.37193 34.687 6.81755 34.6497L6.96414 33.9034C7.12739 33.089 7.77722 32.4603 8.59662 32.3242L14.1137 31.4047C14.8113 31.2913 15.326 30.6922 15.3331 29.9855V27.9865H16.6657V29.9855C16.6663 30.6972 17.1825 31.3038 17.8851 31.418L23.4021 32.3375ZM17.9983 26.6539H14.0004V25.3212H17.9983V26.6539ZM23.5154 23.9886H18.6646H8.48334C7.56683 24.0027 6.78632 23.3255 6.67097 22.4161C6.78815 21.7749 7.35194 21.3127 8.0036 21.3233H23.9952C24.6468 21.3127 25.2106 21.7749 25.3278 22.4161C25.2124 23.3255 24.4319 24.0027 23.5154 23.9886ZM25.3278 20.3639C24.9253 20.1216 24.4649 19.9927 23.9952 19.9907H8.0036C7.53384 19.9927 7.07342 20.1216 6.67097 20.3639V7.99704C6.63024 4.35779 9.54745 1.37461 13.1867 1.33388C13.2358 1.3333 13.285 1.3333 13.3341 1.33388H18.3581C22.1202 1.25568 25.2368 4.23527 25.3278 7.99704V20.3639ZM27.9931 21.4233C27.9931 21.736 27.7395 21.9897 27.4267 21.9897H26.6604V17.2055C26.8741 17.2831 27.0994 17.3236 27.3267 17.3255H27.9931V21.4233ZM29.992 15.9928H27.3267C26.9588 15.9928 26.6604 15.6945 26.6604 15.3265C26.6604 14.9585 26.9588 14.6602 27.3267 14.6602H29.992C30.36 14.6602 30.6583 14.9585 30.6583 15.3265C30.6583 15.6945 30.36 15.9928 29.992 15.9928Z" fill="currentColor"/>
</svg>
