<svg width="39" height="37" viewBox="0 0 39 37" fill="none" xmlns="http://www.w3.org/2000/svg">
<path fill-rule="evenodd" clip-rule="evenodd" d="M0 1C0 0.723858 0.223858 0.5 0.5 0.5H19.5C19.7761 0.5 20 0.723858 20 1V18H29C29.2761 18 29.5 18.2239 29.5 18.5V26.75H38.5C38.7761 26.75 39 26.9739 39 27.25V36C39 36.2761 38.7761 36.5 38.5 36.5H0.5C0.223858 36.5 0 36.2761 0 36V1ZM28.5 26.75V19H20V26.75H28.5ZM20 27.75H28.5V35.5H20V27.75ZM19 26.75V19H10.5V26.75H19ZM10.5 27.75H19V35.5H10.5V27.75ZM9.5 26.75V19H1V26.75H9.5ZM1 27.75H9.5V35.5H1V27.75ZM1 18H9.5V10.25H1V18ZM1 9.25H9.5V1.5H1V9.25ZM10.5 1.5V9.25H19V1.5H10.5ZM19 10.25H10.5V18H19V10.25ZM29.5 35.5V27.75H38V35.5H29.5Z" fill="currentColor"/>
</svg>
