<svg width="39" height="37" viewBox="0 0 39 37" fill="none" xmlns="http://www.w3.org/2000/svg">
<path fill-rule="evenodd" clip-rule="evenodd" d="M0 0H38.838V36.5H0V0ZM11 35.5H19V33.75H11V35.5ZM11 32.75H19V30.5H11V32.75ZM11 29.5H19V28H11V29.5ZM10 28V35.5H1V28H10ZM11 27H13.5V25.5H16V25H12V15.5H26.9697L26.999 15.9688C27.0837 17.3232 27.0833 19.4657 27.0625 21.2558C27.052 22.1538 27.0364 22.9682 27.0233 23.5579C27.0168 23.8529 27.0109 24.0917 27.0067 24.257L27.0016 24.4474L26.9998 24.5131L26.9998 24.5142L26.9859 25H22.5V25.5H25.5V27H28V12.5H11V27ZM11 11.5H19V6.75H11V11.5ZM10 6.75V11.5H6V6.75H10ZM11 5.75H19V1H11V5.75ZM10 1V5.75H6V1H10ZM5 1H1V5.75H5V1ZM5 6.75H1V11.5H5V6.75ZM1 12.5H10V15.5H1V12.5ZM1 16.5V19.5H10V16.5H1ZM10 20.5V27H1V20.5H10ZM20 1V5.75H28V1H20ZM29 1V5.75H33V1H29ZM34 1V5.75H37.838V1H34ZM37.838 6.75H34V11.5H37.838V6.75ZM37.838 12.5H29V15.5H37.838V12.5ZM37.838 16.5H29V19.5H37.838V16.5ZM37.838 20.5H29V27H37.838V20.5ZM37.838 28H29V35.5H37.838V28ZM28 35.5V33.75H20V35.5H28ZM20 32.75H28V30.5H20V32.75ZM20 29.5H28V28H20V29.5ZM29 11.5H33V6.75H29V11.5ZM28 6.75H20V11.5H28V6.75ZM24.5 27V26.5H14.5V27H24.5ZM21.5 25.5V25H17V25.5H21.5ZM26.0128 24C26.016 23.8679 26.0197 23.7119 26.0236 23.5358C26.0366 22.9485 26.0521 22.1378 26.0625 21.2442C26.0811 19.6516 26.0828 17.8112 26.0255 16.5H13V24H26.0128Z" fill="currentColor"/>
<path d="M6.5 13.75C6.5 14.1642 6.16421 14.5 5.75 14.5C5.33579 14.5 5 14.1642 5 13.75C5 13.3358 5.33579 13 5.75 13C6.16421 13 6.5 13.3358 6.5 13.75Z" fill="currentColor"/>
<path d="M6.5 17.75C6.5 18.1642 6.16421 18.5 5.75 18.5C5.33579 18.5 5 18.1642 5 17.75C5 17.3358 5.33579 17 5.75 17C6.16421 17 6.5 17.3358 6.5 17.75Z" fill="currentColor"/>
<path d="M34.5 13.75C34.5 14.1642 34.1642 14.5 33.75 14.5C33.3358 14.5 33 14.1642 33 13.75C33 13.3358 33.3358 13 33.75 13C34.1642 13 34.5 13.3358 34.5 13.75Z" fill="currentColor"/>
<path d="M34.5 17.75C34.5 18.1642 34.1642 18.5 33.75 18.5C33.3358 18.5 33 18.1642 33 17.75C33 17.3358 33.3358 17 33.75 17C34.1642 17 34.5 17.3358 34.5 17.75Z" fill="currentColor"/>
</svg>
