<svg width="50" height="22" viewBox="0 0 50 22" fill="none" xmlns="http://www.w3.org/2000/svg">
<path d="M49.5392 14.0408L48.3067 13.4253C48.0247 9.5058 44.7647 6.46782 40.8333 6.46095H34.6583L23.3333 6.46085L21.6667 6.46095C17.2004 6.44773 9.20333 6.46097 9.20333 6.46097L7.0925 6.46095H2.72083C2.72083 6.46095 1.66896 7.98494 1.66667 9.86272V13.1246H0.833335C0.373126 13.1246 1.4576e-06 13.4975 1.4576e-06 13.9575V14.7438C-0.00114438 16.0926 0.673334 17.3524 1.79667 18.0998L2.06583 18.278C2.72771 18.7205 3.50625 18.9562 4.3025 18.9552H6.18667C7.1026 21.0603 9.55229 22.0246 11.6583 21.1092C12.6234 20.6897 13.3935 19.92 13.8133 18.9552H37.02C37.9359 21.0603 40.3856 22.0246 42.4917 21.1092C43.4568 20.6897 44.2269 19.92 44.6467 18.9552H49.1667C49.6269 18.9552 50 18.5823 50 18.1223V14.7905C50.0018 14.4732 49.823 14.1825 49.5392 14.0408ZM5.83333 17.2893H4.3025C3.8349 17.2896 3.37781 17.151 2.98917 16.8912L2.72083 16.7137C2.0749 16.2845 1.68083 15.5656 1.66667 14.7905H6.6875C6.13625 15.5072 5.83615 16.3852 5.83333 17.2893ZM10 19.7882C8.61927 19.7882 7.5 18.6694 7.5 17.2893C7.5 15.9092 8.61927 14.7905 10 14.7905C11.3807 14.7905 12.5 15.9092 12.5 17.2893C12.5 18.6694 11.3807 19.7882 10 19.7882ZM14.1667 17.2893C14.164 14.9904 12.3 13.1273 10 13.1246H3.33333V11.4587H5.83333V9.79275H2.72083V8.12685H10.8333V10.8439C10.8334 11.2237 11.0905 11.5553 11.4583 11.6502C14.0327 12.3125 15.8325 14.6322 15.8333 17.2893H14.1667ZM21.6667 17.2893H17.5C17.4991 16.4377 17.3522 15.5925 17.0658 14.7905H21.6667V17.2893ZM21.6667 13.1246H16.2283C15.3308 11.7819 14.023 10.7654 12.5 10.2267V8.12685H21.6667V13.1246ZM21.6667 6.46095L9.20333 6.46097C9.20333 6.46097 17.7135 6.4496 21.6667 6.46095ZM33.3333 17.2893H23.3333V14.7905H33.3333V17.2893ZM33.3333 13.1246H23.3333V8.12685H33.3333V13.1246ZM40.8333 19.7882C39.4526 19.7882 38.3333 18.6694 38.3333 17.2893C38.3333 15.9092 39.4526 14.7905 40.8333 14.7905C42.2141 14.7905 43.3333 15.9092 43.3333 17.2893C43.3333 18.6694 42.2141 19.7882 40.8333 19.7882ZM40.8333 13.1246C38.5333 13.1273 36.6694 14.9904 36.6667 17.2893H35V8.12685H40.8333C42.3579 8.12664 43.8216 8.72491 44.9092 9.79275H41.6667V11.4587H46.095C46.3464 11.9853 46.5168 12.547 46.6 13.1246H40.8333ZM48.3333 17.2893H45C44.997 16.3851 44.6964 15.5071 44.145 14.7905H47.3033L48.3333 15.3052V17.2893Z" fill="currentColor"/>
<path fill-rule="evenodd" clip-rule="evenodd" d="M2.75 1.61605C7.39853 1.12587 17.2414 1.98519 27.1052 8.09201L27.8948 6.81666C17.2377 0.21868 6.55772 -0.478708 1.89009 0.212794L1.25 0.307622V13.4544H2.75V1.61605Z" fill="currentColor"/>
</svg>
