<svg width="50" height="26" viewBox="0 0 50 26" fill="none" xmlns="http://www.w3.org/2000/svg">
<path fill-rule="evenodd" clip-rule="evenodd" d="M0 1C0 0.723858 0.223858 0.5 0.5 0.5H49.5C49.7761 0.5 50 0.723858 50 1V3.5C50 3.77614 49.7761 4 49.5 4H37.75V10.5H38.5C38.7761 10.5 39 10.7239 39 11V25.5C39 25.7761 38.7761 26 38.5 26H36C35.7239 26 35.5 25.7761 35.5 25.5V13.5C35.5 13.2239 35.7239 13 36 13C36.2761 13 36.5 13.2239 36.5 13.5V25H38V11.5H12V13H14.5C14.7761 13 15 13.2239 15 13.5C15 13.7761 14.7761 14 14.5 14V25.5C14.5 25.7761 14.2761 26 14 26H11.5C11.2239 26 11 25.7761 11 25.5V11C11 10.7239 11.2239 10.5 11.5 10.5H12.25V4H0.5C0.223858 4 0 3.77614 0 3.5V1ZM13.25 4V10.5H36.75V4H13.25ZM13.5 14H12V25H13.5V14ZM1 1.5V3H24.5V1.5H1ZM25.5 1.5V3H49V1.5H25.5Z" fill="currentColor"/>
<path fill-rule="evenodd" clip-rule="evenodd" d="M14.5 14V13H38.5V14H14.5Z" fill="currentColor"/>
</svg>
