<svg width="36" height="26" viewBox="0 0 36 26" fill="none" xmlns="http://www.w3.org/2000/svg">
<path fill-rule="evenodd" clip-rule="evenodd" d="M1.3472 22.7741H33.8616V11.4357H28.412V16.8495C28.412 17.2265 28.1104 17.5322 27.7376 17.5322H7.4704C7.0984 17.5322 6.7968 17.2265 6.7968 16.8495V11.4357H1.3472V22.7741ZM34.5344 24.1395H0.6736C0.3016 24.1395 0 23.8338 0 23.4568V10.753C0 10.3752 0.3016 10.0703 0.6736 10.0703H7.4704C7.8432 10.0703 8.144 10.3752 8.144 10.753V16.1668H27.064V10.753C27.064 10.3752 27.3656 10.0703 27.7376 10.0703H34.5344C34.9072 10.0703 35.2088 10.3752 35.2088 10.753V23.4568C35.2088 23.8338 34.9072 24.1395 34.5344 24.1395Z" fill="currentColor"/>
<path fill-rule="evenodd" clip-rule="evenodd" d="M3.28184 23.3613C3.17544 23.3613 3.08984 23.4481 3.08984 23.5559V25.7492C3.08984 25.8578 3.17544 25.9446 3.28184 25.9446H5.89064C5.99704 25.9446 6.08264 25.8578 6.08264 25.7492V23.5559C6.08264 23.4481 5.99704 23.3613 5.89064 23.3613H3.28184Z" fill="currentColor"/>
<path fill-rule="evenodd" clip-rule="evenodd" d="M29.3198 23.3613C29.2126 23.3613 29.127 23.4481 29.127 23.5559V25.7492C29.127 25.8578 29.2126 25.9446 29.3198 25.9446H31.9278C32.0342 25.9446 32.1206 25.8578 32.1206 25.7492V23.5559C32.1206 23.4481 32.0342 23.3613 31.9278 23.3613H29.3198Z" fill="currentColor"/>
<path fill-rule="evenodd" clip-rule="evenodd" d="M31.3194 11.4357H29.9722V1.36541H5.23783V11.4357H3.89062V0.681892C3.89062 0.304865 4.19223 0 4.56423 0H30.6458C31.0178 0 31.3194 0.304865 31.3194 0.681892V11.4357Z" fill="currentColor"/>
<path fill-rule="evenodd" clip-rule="evenodd" d="M7.4707 13.864H27.7379V13.084H7.4707V13.864Z" fill="currentColor"/>
</svg>
