<svg width="40" height="26" viewBox="0 0 40 26" fill="none" xmlns="http://www.w3.org/2000/svg">
<path d="M39.3243 0.251953H0.675681C0.302435 0.251953 0 0.554478 0 0.927633V4.1709C0 4.54405 0.302435 4.84658 0.675681 4.84658H1.63443V25.0719C1.63443 25.445 1.93686 25.7475 2.31011 25.7475H4.8976C5.27085 25.7475 5.57328 25.445 5.57328 25.0719V10.0218H34.4275V25.0719C34.4275 25.445 34.7299 25.7475 35.1031 25.7475H37.6906C38.0639 25.7475 38.3663 25.445 38.3663 25.0719V4.84658H39.3244C39.6977 4.84658 40.0001 4.54405 40.0001 4.1709V0.927633C40 0.554478 39.6976 0.251953 39.3243 0.251953ZM2.98579 24.3962V4.84658H4.22165L4.22183 24.3962H2.98579ZM5.57319 4.84658H10.8458V8.67048H5.57319V4.84658ZM12.1972 8.67048V4.84658H27.8029V8.67048H12.1972ZM34.427 8.67048H29.1543V4.84658H34.427V8.67048ZM37.0149 24.3962H35.7787V4.84658H37.0149V24.3962ZM38.6487 3.49522H1.35136V1.60331H38.6487V3.49522Z" fill="currentColor"/>
<path d="M19.9999 6.08398C19.8215 6.08398 19.6476 6.15606 19.5214 6.28128C19.3962 6.40741 19.3242 6.58129 19.3242 6.75876C19.3242 6.93714 19.3963 7.11102 19.5214 7.23714C19.6476 7.36237 19.8214 7.43444 19.9999 7.43444C20.1774 7.43444 20.3512 7.36237 20.4774 7.23714C20.6035 7.11102 20.6756 6.93714 20.6756 6.75876C20.6756 6.58129 20.6035 6.40741 20.4774 6.28128C20.3512 6.15606 20.1774 6.08398 19.9999 6.08398Z" fill="currentColor"/>
</svg>
