<svg width="40" height="37" viewBox="0 0 40 37" fill="none" xmlns="http://www.w3.org/2000/svg">
<path fill-rule="evenodd" clip-rule="evenodd" d="M0 1.00039C0 0.66902 0.268629 0.400391 0.6 0.400391H19.6C19.9314 0.400391 20.2 0.66902 20.2 1.00039V17.9004H29.1C29.4314 17.9004 29.7 18.169 29.7 18.5004V26.6504H38.6C38.9314 26.6504 39.2 26.919 39.2 27.2504V36.0004C39.2 36.3318 38.9314 36.6004 38.6 36.6004H0.6C0.268629 36.6004 0 36.3318 0 36.0004V1.00039ZM28.5 26.6504V19.1004H20.2V26.6504H28.5ZM20.2 27.8504H28.5V35.4004H20.2V27.8504ZM19 26.6504V19.1004H10.7V26.6504H19ZM10.7 27.8504H19V35.4004H10.7V27.8504ZM9.5 26.6504V19.1004H1.2V26.6504H9.5ZM1.2 27.8504H9.5V35.4004H1.2V27.8504ZM1.2 17.9004H9.5V10.3504H1.2V17.9004ZM1.2 9.15039H9.5V1.60039H1.2V9.15039ZM10.7 1.60039V9.15039H19V1.60039H10.7ZM19 10.3504H10.7V17.9004H19V10.3504ZM29.7 35.4004V27.8504H38V35.4004H29.7Z" fill="currentColor"/>
</svg>
