<svg width="38" height="32" viewBox="0 0 38 32" fill="none" xmlns="http://www.w3.org/2000/svg">
<path d="M37.125 21.625H36.5V19.75C36.4993 18.9592 36.2832 18.1835 35.875 17.5063V2.875C35.875 2.21196 35.6116 1.57607 35.1428 1.10723C34.6739 0.638392 34.038 0.375 33.375 0.375C32.712 0.375 32.0761 0.638392 31.6072 1.10723C31.1384 1.57607 30.875 2.21196 30.875 2.875V5.375H7.125V2.875C7.125 2.21196 6.86161 1.57607 6.39277 1.10723C5.92393 0.638392 5.28804 0.375 4.625 0.375C3.96196 0.375 3.32607 0.638392 2.85723 1.10723C2.38839 1.57607 2.125 2.21196 2.125 2.875V17.5063C1.71679 18.1835 1.50073 18.9592 1.5 19.75V21.625H0.875C0.70924 21.625 0.550268 21.6908 0.433058 21.8081C0.315848 21.9253 0.25 22.0842 0.25 22.25V27.25C0.25 27.4158 0.315848 27.5747 0.433058 27.6919C0.550268 27.8092 0.70924 27.875 0.875 27.875H1.5V31C1.5 31.1658 1.56585 31.3247 1.68306 31.4419C1.80027 31.5592 1.95924 31.625 2.125 31.625H4C4.13072 31.624 4.25794 31.5827 4.36423 31.5066C4.47053 31.4305 4.5507 31.3234 4.59375 31.2L5.7 27.875H32.3L33.4062 31.2C33.4493 31.3234 33.5295 31.4305 33.6358 31.5066C33.7421 31.5827 33.8693 31.624 34 31.625H35.875C36.0408 31.625 36.1997 31.5592 36.3169 31.4419C36.4342 31.3247 36.5 31.1658 36.5 31V27.875H37.125C37.2908 27.875 37.4497 27.8092 37.5669 27.6919C37.6842 27.5747 37.75 27.4158 37.75 27.25V22.25C37.75 22.0842 37.6842 21.9253 37.5669 21.8081C37.4497 21.6908 37.2908 21.625 37.125 21.625ZM32.125 2.875C32.125 2.54348 32.2567 2.22554 32.4911 1.99112C32.7255 1.7567 33.0435 1.625 33.375 1.625C33.7065 1.625 34.0245 1.7567 34.2589 1.99112C34.4933 2.22554 34.625 2.54348 34.625 2.875V5.375H32.125V2.875ZM3.375 2.875C3.375 2.54348 3.5067 2.22554 3.74112 1.99112C3.97554 1.7567 4.29348 1.625 4.625 1.625C4.95652 1.625 5.27446 1.7567 5.50888 1.99112C5.7433 2.22554 5.875 2.54348 5.875 2.875V5.375H3.375V2.875ZM3.375 6.625H34.625V16.1625C33.892 15.6502 33.0193 15.3753 32.125 15.375V12.25C32.1235 11.7532 31.9255 11.2771 31.5742 10.9258C31.2229 10.5745 30.7468 10.3765 30.25 10.375H21.5C21.0032 10.3765 20.5271 10.5745 20.1758 10.9258C19.8245 11.2771 19.6265 11.7532 19.625 12.25V15.375H18.375V12.25C18.3735 11.7532 18.1755 11.2771 17.8242 10.9258C17.4729 10.5745 16.9968 10.3765 16.5 10.375H7.75C7.25318 10.3765 6.77712 10.5745 6.42581 10.9258C6.0745 11.2771 5.87648 11.7532 5.875 12.25V15.375C4.98069 15.3753 4.10804 15.6502 3.375 16.1625V6.625ZM30.875 12.25V15.375H20.875V12.25C20.875 12.0842 20.9408 11.9253 21.0581 11.8081C21.1753 11.6908 21.3342 11.625 21.5 11.625H30.25C30.4158 11.625 30.5747 11.6908 30.6919 11.8081C30.8092 11.9253 30.875 12.0842 30.875 12.25ZM17.125 12.25V15.375H7.125V12.25C7.125 12.0842 7.19085 11.9253 7.30806 11.8081C7.42527 11.6908 7.58424 11.625 7.75 11.625H16.5C16.6658 11.625 16.8247 11.6908 16.9419 11.8081C17.0592 11.9253 17.125 12.0842 17.125 12.25ZM2.75 19.75C2.75 18.9212 3.07924 18.1263 3.66529 17.5403C4.25134 16.9542 5.0462 16.625 5.875 16.625H32.125C32.9538 16.625 33.7487 16.9542 34.3347 17.5403C34.9208 18.1263 35.25 18.9212 35.25 19.75V21.625H2.75V19.75ZM3.55 30.375H2.75V27.875H4.38125L3.55 30.375ZM35.25 30.375H34.45L33.6188 27.875H35.25V30.375ZM36.5 26.625H1.5V22.875H36.5V26.625Z" fill="currentColor"/>
</svg>
