<svg width="53" height="25" viewBox="0 0 53 25" fill="none" xmlns="http://www.w3.org/2000/svg">
<path fill-rule="evenodd" clip-rule="evenodd" d="M26.4884 0.425695C26.6015 0.391752 26.7221 0.391961 26.8352 0.426298L52.1748 8.12441C52.4276 8.20121 52.6004 8.43431 52.6004 8.6985V15.1136C52.6004 15.3719 52.4351 15.6011 52.1901 15.6828L26.209 24.3432C26.0836 24.385 25.9479 24.3842 25.823 24.341L0.804124 15.6806C0.56247 15.5969 0.400391 15.3693 0.400391 15.1136V8.6985C0.400391 8.43354 0.574192 8.19994 0.827982 8.12381L26.4884 0.425695ZM1.60039 9.53096L25.8295 17.6073C25.9505 17.6477 26.0812 17.6484 26.2026 17.6094L51.4004 9.52125V14.6811L26.0229 23.1403L1.60039 14.6864V9.53096ZM49.9881 8.71426L26.6597 1.62714L2.98809 8.72861L26.0228 16.4068L49.9881 8.71426Z" fill="currentColor"/>
<path d="M26.9812 5.65105C26.9812 5.91678 26.5503 6.13219 26.0189 6.13219C25.4875 6.13219 25.0566 5.91678 25.0566 5.65105C25.0566 5.38533 25.4875 5.16992 26.0189 5.16992C26.5503 5.16992 26.9812 5.38533 26.9812 5.65105Z" fill="currentColor"/>
<path d="M33.3972 7.57488C33.3972 7.8406 32.9664 8.05601 32.4349 8.05601C31.9035 8.05601 31.4727 7.8406 31.4727 7.57488C31.4727 7.30916 31.9035 7.09375 32.4349 7.09375C32.9664 7.09375 33.3972 7.30916 33.3972 7.57488Z" fill="currentColor"/>
<path d="M40.4538 9.49871C40.4538 9.76443 40.023 9.97984 39.4916 9.97984C38.9601 9.97984 38.5293 9.76443 38.5293 9.49871C38.5293 9.23299 38.9601 9.01758 39.4916 9.01758C40.023 9.01758 40.4538 9.23299 40.4538 9.49871Z" fill="currentColor"/>
<path d="M29.5456 12.7096C29.5456 12.9754 29.1148 13.1908 28.5834 13.1908C28.0519 13.1908 27.6211 12.9754 27.6211 12.7096C27.6211 12.4439 28.0519 12.2285 28.5834 12.2285C29.1148 12.2285 29.5456 12.4439 29.5456 12.7096Z" fill="currentColor"/>
<path d="M23.1335 10.7839C23.1335 11.0496 22.7027 11.265 22.1712 11.265C21.6398 11.265 21.209 11.0496 21.209 10.7839C21.209 10.5181 21.6398 10.3027 22.1712 10.3027C22.7027 10.3027 23.1335 10.5181 23.1335 10.7839Z" fill="currentColor"/>
<path d="M16.0769 8.21746C16.0769 8.48318 15.6461 8.69859 15.1146 8.69859C14.5832 8.69859 14.1523 8.48318 14.1523 8.21746C14.1523 7.95174 14.5832 7.73633 15.1146 7.73633C15.6461 7.73633 16.0769 7.95174 16.0769 8.21746Z" fill="currentColor"/>
</svg>
