<svg width="30" height="27" viewBox="0 0 30 27" fill="none" xmlns="http://www.w3.org/2000/svg">
<path fill-rule="evenodd" clip-rule="evenodd" d="M0.400391 1.00039C0.400391 0.66902 0.66902 0.400391 1.00039 0.400391H29.0004C29.3318 0.400391 29.6004 0.66902 29.6004 1.00039V23.4004C29.6004 23.7318 29.3318 24.0004 29.0004 24.0004H27.3604V25.6404C27.3604 25.9718 27.0918 26.2404 26.7604 26.2404H23.9604C23.629 26.2404 23.3604 25.9718 23.3604 25.6404V24.0004H6.64039V25.6404C6.64039 25.9718 6.37176 26.2404 6.04039 26.2404H3.24039C2.90902 26.2404 2.64039 25.9718 2.64039 25.6404V24.0004H1.00039C0.66902 24.0004 0.400391 23.7318 0.400391 23.4004V1.00039ZM3.84039 24.0004V25.0404H5.44039V24.0004H3.84039ZM1.60039 22.8004V4.96039H28.4004V22.8004H1.60039ZM28.4004 3.76039V1.60039H1.60039V3.76039H28.4004ZM24.5604 24.0004V25.0404H26.1604V24.0004H24.5604Z" fill="currentColor"/>
</svg>
