<svg width="47" height="37" viewBox="0 0 47 37" fill="none" xmlns="http://www.w3.org/2000/svg">
<path fill-rule="evenodd" clip-rule="evenodd" d="M34.5 0.5H47V24.5H34.5V0.5ZM35.5 1.5V8H40.25V1.5H35.5ZM41.25 1.5V8H46V1.5H41.25ZM46 9H41.25V11.875H42V10.5H43V11.875H43.5V11.5H44.5V11.875H46V9ZM46 12.875H41.25V15.75H44V14.5H45V15.75H46V12.875ZM46 16.75H41.25V23.5H46V16.75ZM40.25 23.5V16.75H35.5V23.5H40.25ZM35.5 15.75H38V14.5H39V15.75H39.25V13.5H40.25V12.875H35.5V15.75ZM35.5 11.875H37.5V10.5H38.5V11.875H40.25V9H35.5V11.875ZM13 27H47V37H13V27ZM14 28V36H46V28H14Z" fill="currentColor"/>
<path fill-rule="evenodd" clip-rule="evenodd" d="M0 0H14V27.5H13V1H7.5V36H13.5V37H0V0ZM6.5 36V1H1V36H6.5ZM19.5 25.5H29.5V27.5H28.5V26.5H20.5V27.5H19.5V25.5Z" fill="currentColor"/>
<path fill-rule="evenodd" clip-rule="evenodd" d="M16 14.5H32.5V25H26.5V26.5H22V25H16V14.5ZM23 25V25.5H25.5V25H23ZM17 15.5V24H31.5V15.5H17Z" fill="currentColor"/>
<path d="M9.7 19.6C9.7 19.9314 9.43137 20.2 9.1 20.2C8.76863 20.2 8.5 19.9314 8.5 19.6C8.5 19.2686 8.76863 19 9.1 19C9.43137 19 9.7 19.2686 9.7 19.6Z" fill="currentColor"/>
<path d="M5.7 19.6C5.7 19.9314 5.43137 20.2 5.1 20.2C4.76863 20.2 4.5 19.9314 4.5 19.6C4.5 19.2686 4.76863 19 5.1 19C5.43137 19 5.7 19.2686 5.7 19.6Z" fill="currentColor"/>
<path fill-rule="evenodd" clip-rule="evenodd" d="M13.5 32.5V31.5H47V32.5H35.5V36.5H34.5V32.5H24V36.5H23V32.5H13.5Z" fill="currentColor"/>
<path fill-rule="evenodd" clip-rule="evenodd" d="M13.5 6.5L13.5 5.5L31.5 5.5L31.5 6.5L13.5 6.5Z" fill="currentColor"/>
<path fill-rule="evenodd" clip-rule="evenodd" d="M17.5 2.5V5.5H16.5V2.5H17.5ZM19 4V5.5H18V4H19Z" fill="currentColor"/>
<path fill-rule="evenodd" clip-rule="evenodd" d="M25 3V5.5H23V4.5H24V3H25ZM27 5.5H26V4H27V5.5Z" fill="currentColor"/>
</svg>
