<svg width="38" height="21" viewBox="0 0 38 21" fill="none" xmlns="http://www.w3.org/2000/svg">
<path fill-rule="evenodd" clip-rule="evenodd" d="M28.4676 1.61117C28.0854 1.68755 27.7 2.09529 27.7 2.52241V9.42241H29.2297L29.0003 2.54239C29.0001 2.53573 29 2.52907 29 2.52241C29 1.98446 28.8645 1.76081 28.7852 1.6815C28.7208 1.61714 28.626 1.57951 28.4676 1.61117ZM30.4303 9.42241H32.6C32.7739 9.42241 32.9393 9.49789 33.0533 9.62929C33.1672 9.76069 33.2186 9.93507 33.194 10.1073L32.2918 16.4224H37.1C37.4314 16.4224 37.7 16.691 37.7 17.0224V19.5216C37.7 19.8529 37.4314 20.1216 37.1 20.1216L0.600014 20.1224C0.440882 20.1224 0.288266 20.0592 0.175741 19.9467C0.063216 19.8342 0 19.6815 0 19.5224V17.0224C0 16.691 0.268629 16.4224 0.6 16.4224H3.5V2.52241C3.5 2.19103 3.76863 1.92241 4.1 1.92241H8.6C8.93137 1.92241 9.2 2.19103 9.2 2.52241V3.42241H12.1C12.4314 3.42241 12.7 3.69103 12.7 4.02241V4.11248L15.3636 2.97092C15.6629 2.84267 16.0098 2.97646 16.1454 3.27241L21.6454 15.2724C21.7802 15.5665 21.6576 15.9144 21.3683 16.0591L20.6416 16.4224H24.9082L24.006 10.1073C23.9814 9.93507 24.0328 9.76069 24.1467 9.62929C24.2607 9.49789 24.4261 9.42241 24.6 9.42241H26.5V2.52241C26.5 1.44968 27.3646 0.607871 28.2324 0.434438C28.699 0.341186 29.2292 0.428587 29.6336 0.832869C30.0211 1.22031 30.1983 1.80509 30.2 2.51205L30.2637 4.4224H31.5V2.02278C31.5 1.69141 31.7686 1.42278 32.1 1.42278C32.4314 1.42278 32.7 1.69141 32.7 2.02278V5.0224C32.7 5.35378 32.4314 5.6224 32.1 5.6224H30.3037L30.4303 9.42241ZM26.1204 16.4224H31.0796L31.9082 10.6224H25.2918L26.1204 16.4224ZM17.9584 16.4224L20.3129 15.2451L15.2984 4.30444L12.7 5.41804V5.89244L17.4863 16.4224H17.9584ZM16.1682 16.4224L12.7 8.79237V16.4224H16.1682ZM11.5 16.4224V4.62241H9.2V16.4224H11.5ZM8 16.4224V3.12241H4.7V16.4224H8ZM1.2 17.6224V18.9224L36.5 18.9216V17.6224H1.2Z" fill="currentColor"/>
</svg>
