<svg width="40" height="40" viewBox="0 0 40 40" fill="none" xmlns="http://www.w3.org/2000/svg">
<path d="M31.2827 23.3272H32.6139C33.0132 23.3272 33.2794 23.061 33.2794 22.6616C33.2794 22.2623 33.0132 21.9961 32.6139 21.9961H31.2827C30.8834 21.9961 30.6172 22.2623 30.6172 22.6616C30.6172 23.061 30.8834 23.3272 31.2827 23.3272Z" fill="currentColor"/>
<path d="M31.2827 29.9834H32.6139C33.0132 29.9834 33.2794 29.7172 33.2794 29.3179C33.2794 28.9185 33.0132 28.6523 32.6139 28.6523H31.2827C30.8834 28.6523 30.6172 28.9185 30.6172 29.3179C30.6172 29.7172 30.8834 29.9834 31.2827 29.9834Z" fill="currentColor"/>
<path d="M31.2827 36.6397H32.6139C33.0132 36.6397 33.2794 36.3735 33.2794 35.9741C33.2794 35.5748 33.0132 35.3086 32.6139 35.3086H31.2827C30.8834 35.3086 30.6172 35.5748 30.6172 35.9741C30.6171 36.3735 30.8834 36.6397 31.2827 36.6397Z" fill="currentColor"/>
<path d="M39.2679 15.9401H35.9401V9.35104C35.9401 8.9517 35.6739 8.68551 35.2746 8.68551H33.2779V6.68883C33.2779 6.2895 33.0117 6.0233 32.6124 6.0233H29.9501C29.5508 6.0233 29.2846 6.2895 29.2846 6.68883V7.35436H27.2879C26.8886 7.35436 26.6224 7.62056 26.6224 8.0199V15.9401H17.9035V15.5407C17.9035 14.6755 17.238 14.0099 16.3727 14.0099H15.9734V13.3444H22.6289C23.3611 13.3444 23.9601 12.7454 23.9601 12.0132V10.0166V1.36434C23.9601 0.632205 23.3611 0.0332031 22.6289 0.0332031H5.32449C4.59235 0.0332031 3.99335 0.632205 3.99335 1.36434V10.0166V12.0132C3.99335 12.7454 4.59235 13.3444 5.32449 13.3444H11.98V14.0099H11.5142C10.649 14.0099 9.98337 14.6754 9.98337 15.5407V15.9401H0.73214C0.332805 15.9401 0 16.2729 0 16.6722V19.2679C0 19.6672 0.332805 20 0.73214 20H1.33114V39.3012C1.33114 39.7006 1.59734 39.9667 1.99667 39.9667H4.65888C5.05821 39.9667 5.32441 39.7006 5.32441 39.3012V20H25.2911V25.99V32.6456V39.3011C25.2911 39.7005 25.5573 39.9667 25.9567 39.9667H37.9367C38.3361 39.9667 38.6022 39.7005 38.6022 39.3011V32.6456V25.99V20H39.2013C39.6006 20 39.9334 19.6672 39.9999 19.2679V16.6722C40 16.2729 39.6673 15.9401 39.2679 15.9401ZM34.609 10.0166V15.9401H33.2778V10.0166H34.609ZM30.6156 7.35436H31.9468V9.35104V15.9401H30.6156V8.01997V7.35436ZM27.9534 8.68551H29.2846V15.9401H27.9534V8.68551ZM22.6289 1.36434V9.35104H5.32449V1.36434H22.6289ZM5.32449 10.6822H22.629V12.0133H15.3079H12.6456H5.32449V10.6822ZM13.3112 13.3444H14.6423V14.0099H13.3112V13.3444ZM11.381 15.5407C11.381 15.4076 11.4476 15.3411 11.5807 15.3411H12.6456H15.3078H16.4393C16.5724 15.3411 16.6389 15.4076 16.6389 15.5407V15.9401H11.381V15.5407ZM3.99335 38.6356H2.66221V20H3.99335V38.6356ZM37.2713 31.9801H26.6223V26.6556H37.2712V31.9801H37.2713ZM37.2713 38.6356H26.6223V33.3111H37.2712V38.6356H37.2713ZM37.2713 25.3244H26.6223V19.9999H37.2712V25.3244H37.2713ZM38.6023 18.6689H37.9368H25.9568H4.65888H1.99667H1.33114V17.3377H10.649H17.3045H27.2879H29.9501H32.6123H35.2745H38.6023V18.6689Z" fill="currentColor"/>
<path d="M6.65575 4.69159C6.85541 4.69159 6.98855 4.62506 7.12161 4.49192L8.45275 3.16078C8.71895 2.89458 8.71895 2.49525 8.45275 2.22897C8.18656 1.9627 7.78722 1.96278 7.52095 2.22897L6.18988 3.56012C5.92369 3.82631 5.92369 4.22565 6.18988 4.49192C6.32302 4.62506 6.45608 4.69159 6.65575 4.69159Z" fill="currentColor"/>
<path d="M6.85394 7.15461C6.98708 7.28775 7.12014 7.35428 7.31981 7.35428C7.51948 7.35428 7.65261 7.28775 7.78567 7.15461L11.1135 3.8268C11.3797 3.5606 11.3797 3.16126 11.1135 2.89499C10.8473 2.62871 10.448 2.62879 10.1817 2.89499L6.85394 6.22288C6.58775 6.48908 6.58775 6.88841 6.85394 7.15461Z" fill="currentColor"/>
</svg>
