<svg width="26" height="36" viewBox="0 0 26 36" fill="none" xmlns="http://www.w3.org/2000/svg">
<path d="M24.561 3.44994e-07H0.528226C0.388132 3.44994e-07 0.253775 0.0556526 0.154713 0.154714C0.0556519 0.253776 0 0.388132 0 0.528227V33.4292C0 33.5693 0.0556519 33.7036 0.154713 33.8027C0.253775 33.9018 0.388132 33.9574 0.528226 33.9574H2.88562L3.32119 35.3936C3.35409 35.502 3.421 35.597 3.51204 35.6646C3.60309 35.7321 3.71343 35.7685 3.82677 35.7685H6.48903C6.62913 35.7685 6.76348 35.7128 6.86255 35.6138C6.96161 35.5147 7.01726 35.3803 7.01726 35.2402V33.9574H18.0714V35.2402C18.0714 35.3803 18.127 35.5147 18.2261 35.6138C18.3251 35.7128 18.4595 35.7685 18.5996 35.7685H21.2619C21.3752 35.7685 21.4855 35.7321 21.5766 35.6646C21.6676 35.597 21.7345 35.502 21.7675 35.3936L22.2036 33.9574H24.5616C24.7017 33.9574 24.8361 33.9018 24.9351 33.8027C25.0342 33.7036 25.0898 33.5693 25.0898 33.4292V0.528227C25.0898 0.458808 25.0762 0.39007 25.0496 0.325944C25.023 0.261817 24.984 0.203559 24.9349 0.154501C24.8858 0.105442 24.8275 0.0665462 24.7633 0.0400358C24.6992 0.0135255 24.6304 -7.89904e-05 24.561 3.44994e-07ZM24.0328 7.78757H13.0728V1.05645H24.0328V7.78757ZM1.05645 1.05645H12.0164V7.78757H1.05645V1.05645ZM1.05645 8.84402H12.0164V32.901H1.05645V8.84402ZM5.96141 34.712H4.21917L3.99037 33.9574H5.96141V34.712ZM20.8701 34.712H19.1278V33.9574H21.0989L20.8701 34.712ZM13.0728 32.901V8.84402H24.0328V32.901H13.0728Z" fill="currentColor"/>
<path d="M9.8251 2.98828C9.68503 2.98836 9.55072 3.04404 9.45168 3.14308C9.35263 3.24213 9.29695 3.37644 9.29688 3.51651V5.32757C9.29687 5.39694 9.31054 5.46563 9.33708 5.52971C9.36363 5.5938 9.40254 5.65203 9.45159 5.70108C9.50064 5.75013 9.55887 5.78904 9.62296 5.81559C9.68705 5.84213 9.75573 5.8558 9.8251 5.8558C9.89447 5.8558 9.96316 5.84213 10.0272 5.81559C10.0913 5.78904 10.1496 5.75013 10.1986 5.70108C10.2477 5.65203 10.2866 5.5938 10.3131 5.52971C10.3397 5.46563 10.3533 5.39694 10.3533 5.32757V3.51651C10.3532 3.37644 10.2976 3.24213 10.1985 3.14308C10.0995 3.04404 9.96517 2.98836 9.8251 2.98828Z" fill="currentColor"/>
<path d="M15.2626 5.8558C15.4027 5.8558 15.5371 5.80014 15.6361 5.70108C15.7352 5.60202 15.7908 5.46766 15.7908 5.32757V3.51651C15.7908 3.37641 15.7352 3.24206 15.6361 3.143C15.5371 3.04393 15.4027 2.98828 15.2626 2.98828C15.1225 2.98828 14.9882 3.04393 14.8891 3.143C14.79 3.24206 14.7344 3.37641 14.7344 3.51651V5.32757C14.7344 5.46766 14.79 5.60202 14.8891 5.70108C14.9882 5.80014 15.1225 5.8558 15.2626 5.8558Z" fill="currentColor"/>
<path d="M9.8251 22.7223C9.9652 22.7223 10.0996 22.6667 10.1986 22.5676C10.2977 22.4686 10.3533 22.3342 10.3533 22.1941V17.2001C10.3533 17.06 10.2977 16.9257 10.1986 16.8266C10.0996 16.7275 9.9652 16.6719 9.8251 16.6719C9.68501 16.6719 9.55065 16.7275 9.45159 16.8266C9.35253 16.9257 9.29688 17.06 9.29688 17.2001V22.1941C9.29688 22.3342 9.35253 22.4686 9.45159 22.5676C9.55065 22.6667 9.68501 22.7223 9.8251 22.7223Z" fill="currentColor"/>
<path d="M15.2626 16.6719C15.1225 16.672 14.9882 16.7276 14.8892 16.8267C14.7901 16.9257 14.7345 17.06 14.7344 17.2001V22.1941C14.7344 22.3342 14.79 22.4686 14.8891 22.5676C14.9882 22.6667 15.1225 22.7223 15.2626 22.7223C15.4027 22.7223 15.5371 22.6667 15.6361 22.5676C15.7352 22.4686 15.7908 22.3342 15.7908 22.1941V17.2001C15.7907 17.06 15.7351 16.9257 15.636 16.8267C15.537 16.7276 15.4027 16.672 15.2626 16.6719Z" fill="currentColor"/>
</svg>
