<svg width="34" height="19" viewBox="0 0 34 19" fill="none" xmlns="http://www.w3.org/2000/svg">
<path fill-rule="evenodd" clip-rule="evenodd" d="M1.25 12C1.25 11.5858 1.58579 11.25 2 11.25H32C32.4142 11.25 32.75 11.5858 32.75 12V16C32.75 16.4142 32.4142 16.75 32 16.75H2C1.58579 16.75 1.25 16.4142 1.25 16V12ZM2.75 12.75V15.25H31.25V12.75H2.75Z" fill="currentColor"/>
<path fill-rule="evenodd" clip-rule="evenodd" d="M4.192 16C4.0856 16 4 16.0868 4 16.1946V18.3878C4 18.4965 4.0856 18.5832 4.192 18.5832H6.8008C6.9072 18.5832 6.9928 18.4965 6.9928 18.3878V16.1946C6.9928 16.0868 6.9072 16 6.8008 16H4.192Z" fill="currentColor"/>
<path fill-rule="evenodd" clip-rule="evenodd" d="M28.192 16C28.0856 16 28 16.0868 28 16.1946V18.3878C28 18.4965 28.0856 18.5832 28.192 18.5832H30.8008C30.9072 18.5832 30.9928 18.4965 30.9928 18.3878V16.1946C30.9928 16.0868 30.9072 16 30.8008 16H28.192Z" fill="currentColor"/>
<path fill-rule="evenodd" clip-rule="evenodd" d="M0.25 1C0.25 0.585786 0.585786 0.25 1 0.25H33C33.4142 0.25 33.75 0.585786 33.75 1V12C33.75 12.4142 33.4142 12.75 33 12.75H1C0.585786 12.75 0.25 12.4142 0.25 12V1ZM1.75 1.75V11.25H32.25V1.75H1.75Z" fill="currentColor"/>
<path fill-rule="evenodd" clip-rule="evenodd" d="M1 8.79562H32.2672V8.01562H1V8.79562Z" fill="currentColor"/>
</svg>
