<svg width="27" height="33" viewBox="0 0 27 33" fill="none" xmlns="http://www.w3.org/2000/svg">
<path d="M13.5113 30.9303C7.25314 30.9303 2.16211 24.4551 2.16211 16.4964C2.16211 8.53766 7.25314 2.0625 13.5113 2.0625C19.7695 2.0625 24.8605 8.53766 24.8605 16.4964C24.8605 24.4551 19.7695 30.9303 13.5113 30.9303ZM13.5113 3.09349C7.82174 3.09349 3.1931 9.10577 3.1931 16.4964C3.1931 23.887 7.82174 29.8993 13.5113 29.8993C19.2009 29.8993 23.8296 23.887 23.8296 16.4964C23.8296 9.10577 19.2009 3.09349 13.5113 3.09349Z" fill="currentColor"/>
<path d="M13.5128 32.9917C6.11812 32.9917 0.101562 25.5918 0.101562 16.4959C0.101562 7.39994 6.11812 0 13.5128 0C20.9077 0 26.924 7.39994 26.924 16.4959C26.924 25.5918 20.9077 32.9917 13.5128 32.9917ZM13.5128 1.03099C6.68672 1.03099 1.13255 7.96854 1.13255 16.4959C1.13255 25.0232 6.68597 31.9608 13.5128 31.9608C20.3396 31.9608 25.893 25.0232 25.893 16.4959C25.893 7.96854 20.3391 1.03099 13.5128 1.03099Z" fill="currentColor"/>
<path d="M7.06052 5.83466C6.88231 5.83466 6.70914 5.74253 6.61374 5.57691L5.56513 3.76185C5.42291 3.51493 5.50749 3.20004 5.75391 3.05783C5.99983 2.91486 6.31522 2.99943 6.45793 3.24635L7.50655 5.06141C7.64876 5.30834 7.56419 5.62348 7.31777 5.76569C7.23697 5.81251 7.14837 5.83466 7.06052 5.83466Z" fill="currentColor"/>
<path d="M21.0143 30.0038C20.8358 30.0038 20.6626 29.9109 20.5672 29.7461L19.5204 27.9315C19.3779 27.6846 19.4625 27.3695 19.7089 27.2272C19.9548 27.085 20.2702 27.1696 20.4132 27.416L21.46 29.2306C21.6023 29.4775 21.5179 29.7924 21.2715 29.9346C21.1905 29.9817 21.1019 30.0038 21.0143 30.0038Z" fill="currentColor"/>
<path d="M3.63362 11.307C3.54602 11.307 3.45742 11.2848 3.37637 11.2378L1.56081 10.1889C1.31388 10.0467 1.22931 9.73055 1.37228 9.48464C1.51449 9.23771 1.83039 9.15314 2.0763 9.29611L3.89187 10.345C4.13879 10.4874 4.22336 10.8033 4.08065 11.0492C3.98525 11.2146 3.81208 11.307 3.63362 11.307Z" fill="currentColor"/>
<path d="M25.2012 23.7588C25.1136 23.7588 25.025 23.7366 24.9442 23.6898L23.1312 22.6437C22.8843 22.5015 22.7997 22.1861 22.9424 21.9397C23.0851 21.6933 23.4003 21.6082 23.6467 21.7509L25.4597 22.797C25.7064 22.9392 25.791 23.2546 25.6483 23.501C25.5524 23.6661 25.3797 23.7588 25.2012 23.7588Z" fill="currentColor"/>
<path d="M1.82849 23.7578C1.65028 23.7578 1.47686 23.665 1.38171 23.5001C1.23924 23.2532 1.32382 22.9383 1.57024 22.7961L3.37447 21.7548C3.62039 21.6123 3.93578 21.6969 4.07875 21.9433C4.22096 22.1902 4.13639 22.5051 3.88997 22.6476L2.08573 23.6889C2.00494 23.7357 1.91608 23.7578 1.82849 23.7578Z" fill="currentColor"/>
<path d="M23.3657 11.3236C23.1872 11.3236 23.014 11.2314 22.9186 11.0658C22.7764 10.8194 22.861 10.504 23.1074 10.3618L24.9426 9.30134C25.1883 9.15963 25.5039 9.2432 25.6466 9.49012C25.7889 9.73654 25.7043 10.0519 25.4581 10.1941L23.6229 11.2546C23.5419 11.3014 23.4533 11.3236 23.3657 11.3236Z" fill="currentColor"/>
<path d="M6.01138 30.0028C5.92378 30.0028 5.83543 29.9806 5.75413 29.9335C5.50771 29.7918 5.42263 29.4759 5.56535 29.2295L6.61346 27.4124C6.75567 27.1655 7.06955 27.0809 7.31748 27.2237C7.5639 27.3654 7.64898 27.6815 7.50626 27.9279L6.45816 29.745C6.36276 29.9104 6.18959 30.0028 6.01138 30.0028Z" fill="currentColor"/>
<path d="M19.9665 5.83107C19.8789 5.83107 19.7903 5.80892 19.7092 5.76185C19.4623 5.61963 19.3777 5.30424 19.5207 5.05782L20.5593 3.25988C20.7017 3.01295 21.0171 2.92888 21.2635 3.0711C21.5105 3.21331 21.595 3.52895 21.4521 3.77537L20.4135 5.57332C20.3181 5.73869 20.145 5.83107 19.9665 5.83107Z" fill="currentColor"/>
<path d="M1.66368 18.052C0.811144 18.052 0.117188 17.358 0.117188 16.5055C0.117188 15.6527 0.811144 14.959 1.66368 14.959C2.51621 14.959 3.21016 15.6527 3.21016 16.5055C3.21016 17.358 2.51621 18.052 1.66368 18.052ZM1.66368 15.99C1.37899 15.99 1.14818 16.2208 1.14818 16.5055C1.14818 16.7899 1.37899 17.021 1.66368 17.021C1.9481 17.021 2.17917 16.7899 2.17917 16.5055C2.17917 16.2208 1.9476 15.99 1.66368 15.99Z" fill="currentColor"/>
<path d="M25.3766 18.052C24.524 18.052 23.8301 17.358 23.8301 16.5055C23.8301 15.6527 24.524 14.959 25.3766 14.959C26.2291 14.959 26.9231 15.6527 26.9231 16.5055C26.9231 17.358 26.2291 18.052 25.3766 18.052ZM25.3766 15.99C25.0919 15.99 24.8611 16.2208 24.8611 16.5055C24.8611 16.7899 25.0919 17.021 25.3766 17.021C25.661 17.021 25.8921 16.7899 25.8921 16.5055C25.8921 16.2208 25.6605 15.99 25.3766 15.99Z" fill="currentColor"/>
<path d="M13.5211 3.10079C12.6686 3.10079 11.9746 2.40683 11.9746 1.5543C11.9746 0.701517 12.6686 0.0078125 13.5211 0.0078125C14.3736 0.0078125 15.0676 0.701517 15.0676 1.5543C15.0676 2.40683 14.3736 3.10079 13.5211 3.10079ZM13.5211 1.0388C13.2364 1.0388 13.0056 1.26962 13.0056 1.5543C13.0056 1.83873 13.2364 2.0698 13.5211 2.0698C13.8055 2.0698 14.0366 1.83873 14.0366 1.5543C14.0366 1.26962 13.805 1.0388 13.5211 1.0388Z" fill="currentColor"/>
<path d="M13.5211 32.9992C12.6686 32.9992 11.9746 32.3053 11.9746 31.4527C11.9746 30.6 12.6686 29.9062 13.5211 29.9062C14.3736 29.9062 15.0676 30.6 15.0676 31.4527C15.0676 32.3053 14.3736 32.9992 13.5211 32.9992ZM13.5211 30.9372C13.2364 30.9372 13.0056 31.1681 13.0056 31.4527C13.0056 31.7372 13.2364 31.9682 13.5211 31.9682C13.8055 31.9682 14.0366 31.7372 14.0366 31.4527C14.0366 31.1681 13.805 30.9372 13.5211 30.9372Z" fill="currentColor"/>
<path d="M8.87311 21.651C8.74121 21.651 8.60932 21.6004 8.50863 21.4999C8.30702 21.2983 8.30702 20.9726 8.50863 20.771L17.7886 11.4911C17.9902 11.2894 18.3159 11.2894 18.5175 11.4911C18.7191 11.6927 18.7191 12.0184 18.5175 12.22L9.23758 21.4999C9.13715 21.6009 9.005 21.651 8.87311 21.651Z" fill="currentColor"/>
<path d="M13.5196 21.1444C13.3877 21.1444 13.2556 21.0938 13.1551 20.9934C12.9535 20.7918 12.9535 20.4661 13.1551 20.2645L17.2801 16.1395C17.4817 15.9379 17.8074 15.9379 18.009 16.1395C18.2107 16.3411 18.2107 16.6668 18.009 16.8684L13.8841 20.9934C13.7829 21.0938 13.6515 21.1444 13.5196 21.1444Z" fill="currentColor"/>
<path d="M9.39654 17.0214C9.26465 17.0214 9.1325 16.9708 9.03207 16.8704C8.83046 16.6687 8.83046 16.343 9.03207 16.1414L13.157 12.0164C13.3587 11.8148 13.6844 11.8148 13.886 12.0164C14.0876 12.2181 14.0876 12.5438 13.886 12.7454L9.76102 16.8704C9.65983 16.9708 9.52844 17.0214 9.39654 17.0214Z" fill="currentColor"/>
</svg>
