<svg width="33" height="31" viewBox="0 0 33 31" fill="none" xmlns="http://www.w3.org/2000/svg">
<path fill-rule="evenodd" clip-rule="evenodd" d="M6 1C6 0.723858 6.22386 0.5 6.5 0.5H26.5C26.7761 0.5 27 0.723858 27 1V14.5C27 14.7761 26.7761 15 26.5 15H17V16.0053C17.8034 16.0218 18.8175 16.0786 19.6963 16.2051C20.2285 16.2818 20.7419 16.3881 21.1339 16.5401C21.328 16.6153 21.525 16.714 21.6815 16.8499C21.8419 16.9893 22 17.2064 22 17.5H32.5C32.7761 17.5 33 17.7239 33 18V29C33 29.2761 32.7761 29.5 32.5 29.5H31.5008L31.5 30.5C31.5 30.7761 31.2761 31 31 31H1.5C1.22386 31 1 30.7761 1 30.5V29.5H0.5C0.223858 29.5 0 29.2761 0 29V18C0 17.7239 0.223858 17.5 0.5 17.5H11C11 17.2064 11.1581 16.9893 11.3185 16.8499C11.475 16.714 11.672 16.6153 11.8661 16.5401C12.2581 16.3881 12.7715 16.2818 13.3037 16.2051C14.1825 16.0786 15.1966 16.0218 16 16.0053V15H6.5C6.22386 15 6 14.7761 6 14.5V1ZM12.1603 17.5C12.1809 17.4911 12.2033 17.4819 12.2276 17.4724C12.5127 17.3619 12.9369 17.2682 13.4463 17.1949C14.4557 17.0495 15.6799 17 16.5 17C17.3201 17 18.5443 17.0495 19.5537 17.1949C20.0631 17.2682 20.4873 17.3619 20.7724 17.4724C20.7967 17.4819 20.8191 17.4911 20.8397 17.5H12.1603ZM2 29.5V30H30.5V29.5H2ZM1.00043 28.5H16V18.5H1L1.00043 28.5ZM17 18.5V28.5H32V18.5H17ZM7 1.5V14H26V1.5H7ZM2 20C2 19.7239 2.22386 19.5 2.5 19.5H14.5C14.7761 19.5 15 19.7239 15 20V27.5C15 27.7761 14.7761 28 14.5 28H2.5C2.22386 28 2 27.7761 2 27.5V20ZM3 20.5V23.25H14V20.5H3ZM14 24.25H3V27H14V24.25ZM18.5 21C18.7761 21 19 21.2239 19 21.5V25C19 25.2761 18.7761 25.5 18.5 25.5C18.2239 25.5 18 25.2761 18 25V21.5C18 21.2239 18.2239 21 18.5 21Z" fill="currentColor"/>
</svg>
