<svg width="40" height="40" viewBox="0 0 40 40" fill="none" xmlns="http://www.w3.org/2000/svg">
<path d="M19.375 25.6251V21.8751H11.8119C11.5212 20.4507 10.2594 19.3751 8.75 19.3751H6.875V14.3751H7.8825L8.15938 16.0338C8.35938 17.2457 9.39625 18.1251 10.6244 18.1251C10.7613 18.1251 10.8962 18.1138 11.035 18.0907C11.6931 17.9813 12.27 17.622 12.6594 17.0776C13.0475 16.5332 13.2006 15.8713 13.0906 15.2138L11.8406 7.71635C11.6187 6.3726 10.3787 5.42385 8.96438 5.65885C8.305 5.76885 7.72875 6.12822 7.34062 6.67135C6.95187 7.2151 6.79875 7.8776 6.90875 8.53572L7.2575 10.6251H6.25C4.52688 10.6251 3.125 12.027 3.125 13.7501V21.8751H0.625V25.0001V25.6251V39.3751H14.375V25.6251H19.375ZM8.35813 7.39822C8.5525 7.12635 8.84 6.94697 9.17 6.89197C9.23938 6.88072 9.3075 6.8751 9.37437 6.8751C9.98875 6.8751 10.5075 7.31447 10.6081 7.92072L11.8581 15.4188C11.9131 15.7476 11.8363 16.0788 11.6419 16.3507C11.4469 16.6232 11.1594 16.8032 10.83 16.8576C10.1369 16.972 9.50313 16.5026 9.39188 15.8288L8.14188 8.3301C8.08688 8.00135 8.16375 7.6701 8.35813 7.39822ZM4.375 13.7501C4.375 12.7163 5.21625 11.8751 6.25 11.8751H7.46562L7.67375 13.1251H6.875C6.18563 13.1251 5.625 13.6857 5.625 14.3751V20.6251H8.75C9.56375 20.6251 10.2513 21.1495 10.51 21.8751H4.375V13.7501ZM1.875 23.1251H18.125V24.3751H1.875V23.1251ZM13.125 38.1251H1.875V25.6251H13.125V38.1251Z" fill="currentColor"/>
<path d="M39.375 3.75C39.375 2.02688 37.9731 0.625 36.25 0.625H17.5C15.7769 0.625 14.375 2.02688 14.375 3.75V5.625H15.625V20.625H26.6019L25.9987 27.6031C25.9481 27.905 25.6894 28.125 25.3819 28.125H17.5C16.4662 28.125 15.625 28.9662 15.625 30C15.625 31.0338 16.4662 31.875 17.5 31.875H17.7112L15.4037 39.375H19.2113L21.5194 31.875H23.4806L25.7888 39.375H29.5963L27.1706 31.4919C28.4744 30.9069 29.45 29.6963 29.7031 28.1713L30.3556 20.625H38.125V5.625H39.375V3.75ZM18.125 5.625V10.625H16.875V5.625H18.125ZM26.875 9.375C26.875 8.68563 27.4356 8.125 28.125 8.125H33.125V10.625H28.125C27.4356 10.625 26.875 10.0644 26.875 9.375ZM28.125 11.875H34.375H36.875V13.125H16.875V11.875H28.125ZM30 15.625H23.75C23.405 15.625 23.125 15.3444 23.125 15V14.375H30.625V15C30.625 15.3444 30.345 15.625 30 15.625ZM21.875 10.625V5.625H23.125V10.625H21.875ZM20.625 10.625H19.375V5.625H20.625V10.625ZM16.875 19.375V14.375H21.875V15C21.875 16.0337 22.7163 16.875 23.75 16.875H26.9913C26.9488 16.9912 26.9156 17.1125 26.8944 17.24L26.71 19.375H16.875ZM18.2887 38.125H17.0963L19.02 31.875H20.2119L18.2887 38.125ZM27.9037 38.125H26.7112L24.7881 31.875H25.3819C25.5806 31.875 25.775 31.8575 25.9669 31.8319L27.9037 38.125ZM28.4644 28.0137C28.2125 29.5269 26.9156 30.625 25.3819 30.625H17.5C17.155 30.625 16.875 30.3444 16.875 30C16.875 29.6556 17.155 29.375 17.5 29.375H25.3819C26.3025 29.375 27.0806 28.7163 27.2375 27.7594L28.1337 17.3969C28.19 17.0606 28.5013 16.8244 28.8531 16.8838C29.0169 16.9112 29.1606 17.0012 29.2575 17.1375C29.355 17.2738 29.3938 17.4387 29.36 17.6519L28.4644 28.0137ZM30.4638 19.375L30.5994 17.8088C30.6569 17.4644 30.6125 17.12 30.4844 16.8037C31.2825 16.5881 31.875 15.865 31.875 15V14.375H36.875V19.375H30.4638ZM36.875 10.625H34.375V6.875H28.125C26.7463 6.875 25.625 7.99625 25.625 9.375C25.625 9.8325 25.7575 10.2556 25.9725 10.625H24.375V5.625H36.875V10.625ZM38.125 4.375H15.625V3.75C15.625 2.71625 16.4662 1.875 17.5 1.875H36.25C37.2838 1.875 38.125 2.71625 38.125 3.75V4.375Z" fill="currentColor"/>
<path d="M3.125 35.625H4.375V36.875H3.125V35.625Z" fill="currentColor"/>
<path d="M3.125 33.125H4.375V34.375H3.125V33.125Z" fill="currentColor"/>
<path d="M3.125 30.625H4.375V31.875H3.125V30.625Z" fill="currentColor"/>
<path d="M5.625 26.875H6.875V28.125H5.625V26.875Z" fill="currentColor"/>
<path d="M8.125 26.875H9.375V28.125H8.125V26.875Z" fill="currentColor"/>
<path d="M10.625 26.875H11.875V28.125H10.625V26.875Z" fill="currentColor"/>
</svg>
