<svg width="29" height="35" viewBox="0 0 29 35" fill="none" xmlns="http://www.w3.org/2000/svg">
<path d="M21.4777 2.03583C21.0348 1.80055 20.5123 1.76656 20.0427 1.9425C19.1288 2.23298 18.172 2.36516 17.2135 2.33333C14.081 2.33333 13.0427 0.396667 12.9785 0.320833C12.8797 0.12467 12.679 0.000665758 12.4594 0H10.126C9.90847 0.00284402 9.71058 0.126526 9.61269 0.320833C9.54269 0.285833 8.65019 2.33333 5.37185 2.33333C4.41342 2.36516 3.45659 2.23298 2.54269 1.9425C2.07824 1.77181 1.56324 1.80572 1.12519 2.03583C0.555312 2.33467 0.207145 2.93368 0.229534 3.57676C0.251924 4.21984 0.640909 4.79319 1.23019 5.05167C2.34634 5.55255 3.55355 5.81861 4.77685 5.83333C6.4034 5.86583 8.02113 5.58664 9.54269 5.01083V15.75H6.62602C5.72595 15.7452 4.96901 16.4239 4.87602 17.3192C1.95935 22.3242 1.90102 28.56 1.95935 30.3683C1.97828 30.999 2.49511 31.5003 3.12602 31.5C3.86124 31.4575 4.58635 31.3082 5.27852 31.0567C5.73816 30.8877 6.04337 30.4497 6.04269 29.96V28.2975C6.36935 28.5775 6.55602 28.8167 6.80685 28.9858C7.11128 29.2096 7.51685 29.2397 7.85099 29.0634C8.18513 28.887 8.38907 28.5351 8.37602 28.1575C8.31769 26.3083 8.07852 22.0442 7.09269 19.25H9.54269V31.5H8.37602C7.40952 31.5 6.62602 32.2835 6.62602 33.25V33.8333C6.62602 34.4777 7.14835 35 7.79269 35H14.7927C15.437 35 15.9594 34.4777 15.9594 33.8333V33.25C15.9594 32.2835 15.1759 31.5 14.2094 31.5H13.0427V13.4167H15.9594C16.9259 13.4167 17.7094 12.6332 17.7094 11.6667C17.7094 10.7002 16.9259 9.91667 15.9594 9.91667H13.0427V5.01083C14.5642 5.58664 16.182 5.86583 17.8085 5.83333C19.0377 5.82101 20.2511 5.55489 21.3727 5.05167C21.962 4.79319 22.351 4.21984 22.3733 3.57676C22.3957 2.93368 22.0476 2.33467 21.4777 2.03583ZM4.77685 4.66667C3.71001 4.65698 2.65696 4.42451 1.68519 3.98417C1.45759 3.88807 1.33384 3.64057 1.39352 3.40083C1.43679 3.25256 1.5406 3.12941 1.67941 3.06167C1.81823 2.99393 1.97918 2.98787 2.12269 3.045C3.17203 3.38015 4.27081 3.53402 5.37185 3.5C6.88087 3.55327 8.35951 3.06728 9.54269 2.12917V3.73333C8.04421 4.39803 6.41537 4.71702 4.77685 4.66667ZM3.12602 30.3333C3.02906 26.8066 3.62358 23.295 4.87602 19.9967V29.96C4.31329 30.1666 3.72408 30.2923 3.12602 30.3333ZM6.04269 26.9383V19.8333C6.85352 22.2542 7.09852 25.8592 7.17435 27.7783C6.86379 27.4182 6.47731 27.1313 6.04269 26.9383ZM6.62602 18.0833C6.30385 18.0833 6.04269 17.8222 6.04269 17.5C6.04269 17.1778 6.30385 16.9167 6.62602 16.9167H9.54269V18.0833H6.62602ZM14.7927 33.25V33.8333H7.79269V33.25C7.79269 32.9278 8.05385 32.6667 8.37602 32.6667H14.2094C14.5315 32.6667 14.7927 32.9278 14.7927 33.25ZM10.7094 31.5V1.16667H11.876V31.5H10.7094ZM15.9594 11.0833C16.2815 11.0833 16.5427 11.3445 16.5427 11.6667C16.5427 11.9888 16.2815 12.25 15.9594 12.25H13.0427V11.0833H15.9594ZM20.9002 3.98417C19.9284 4.42451 18.8754 4.65698 17.8085 4.66667C16.17 4.71702 14.5412 4.39803 13.0427 3.73333V2.12917C14.2259 3.06728 15.7045 3.55327 17.2135 3.5C20.2469 3.5 20.4044 2.78833 20.9352 3.06833C21.1086 3.15916 21.2144 3.34166 21.2069 3.5373C21.1994 3.73295 21.0801 3.90684 20.9002 3.98417Z" fill="currentColor"/>
<path d="M27.0426 10.5C26.0761 10.5 25.2926 11.2835 25.2926 12.25V15.3125C23.9859 15.9717 23.5426 18.8125 23.5426 19.8333C23.5014 21.0098 23.6151 22.1866 23.8809 23.3333C23.3336 23.4507 22.9468 23.9404 22.9593 24.5V33.25C22.9593 34.2165 23.7428 35 24.7093 35H27.0426C28.0091 35 28.7926 34.2165 28.7926 33.25V24.5C28.8051 23.9404 28.4183 23.4507 27.8709 23.3333C28.1368 22.1866 28.2505 21.0098 28.2093 19.8333C28.2093 18.7833 27.7659 15.9717 26.4593 15.3067V12.25C26.4593 11.9278 26.7204 11.6667 27.0426 11.6667C27.3648 11.6667 27.6259 11.9278 27.6259 12.25V12.8333C27.6259 13.1555 27.8871 13.4167 28.2093 13.4167C28.5314 13.4167 28.7926 13.1555 28.7926 12.8333V12.25C28.7926 11.2835 28.0091 10.5 27.0426 10.5ZM27.6259 24.5V25.6667H24.1259V24.5H27.6259ZM27.6259 33.25C27.6259 33.5722 27.3648 33.8333 27.0426 33.8333H24.7093C24.3871 33.8333 24.1259 33.5722 24.1259 33.25V26.8333H27.6259V33.25ZM27.0426 19.8333C27.1028 21.0131 26.9728 22.1949 26.6576 23.3333H25.0943C24.7791 22.1949 24.6491 21.0131 24.7093 19.8333C24.7093 18.3925 25.3976 16.3333 25.8759 16.3333C26.3543 16.3333 27.0426 18.3925 27.0426 19.8333Z" fill="currentColor"/>
</svg>
