<svg width="48" height="37" viewBox="0 0 48 37" fill="none" xmlns="http://www.w3.org/2000/svg">
<path fill-rule="evenodd" clip-rule="evenodd" d="M42.5008 6L43.8008 6L43.8008 14.5L42.5008 14.5L42.5008 6Z" fill="currentColor"/>
<path fill-rule="evenodd" clip-rule="evenodd" d="M44.1575 6.64961L37.3007 6.64961L37.3007 14.3496L44.1103 14.3496C47.0273 11.8703 46.1872 7.98851 44.1575 6.64961ZM44.6709 5.43857C47.6273 7.16815 48.6584 12.411 44.7462 15.5092L44.5688 15.6496L36.0007 15.6496L36.0007 5.34961L44.5188 5.34961L44.6709 5.43857Z" fill="currentColor"/>
<path fill-rule="evenodd" clip-rule="evenodd" d="M42.5008 22L43.8008 22L43.8008 30.5L42.5008 30.5L42.5008 22Z" fill="currentColor"/>
<path fill-rule="evenodd" clip-rule="evenodd" d="M44.1575 22.6496L37.3007 22.6496L37.3007 30.3496L44.1103 30.3496C47.0273 27.8703 46.1872 23.9885 44.1575 22.6496ZM44.6709 21.4386C47.6273 23.1681 48.6584 28.411 44.7462 31.5092L44.5688 31.6496L36.0007 31.6496L36.0007 21.3496L44.5188 21.3496L44.6709 21.4386Z" fill="currentColor"/>
<path fill-rule="evenodd" clip-rule="evenodd" d="M4.8 6L3.5 6L3.5 14.5L4.8 14.5L4.8 6Z" fill="currentColor"/>
<path fill-rule="evenodd" clip-rule="evenodd" d="M3.14333 6.64961L10.0001 6.64961L10.0001 14.3496L3.19049 14.3496C0.273523 11.8703 1.1136 7.98851 3.14333 6.64961ZM2.62991 5.43857C-0.326512 7.16815 -1.35761 12.411 2.5546 15.5092L2.73193 15.6496L11.3001 15.6496L11.3001 5.34961L2.78197 5.34961L2.62991 5.43857Z" fill="currentColor"/>
<path fill-rule="evenodd" clip-rule="evenodd" d="M4.8 22L3.5 22L3.5 30.5L4.8 30.5L4.8 22Z" fill="currentColor"/>
<path fill-rule="evenodd" clip-rule="evenodd" d="M3.14333 22.6496L10.0001 22.6496L10.0001 30.3496L3.19049 30.3496C0.273523 27.8703 1.1136 23.9885 3.14333 22.6496ZM2.62991 21.4386C-0.326512 23.1681 -1.35761 28.411 2.5546 31.5092L2.73193 31.6496L11.3001 31.6496L11.3001 21.3496L2.78197 21.3496L2.62991 21.4386Z" fill="currentColor"/>
<path fill-rule="evenodd" clip-rule="evenodd" d="M33.3504 1.3H13.9504V35.7H33.3504V1.3ZM12.6504 0V37H34.6504V0H12.6504Z" fill="currentColor"/>
</svg>
