<svg width="57" height="29" viewBox="0 0 57 29" fill="none" xmlns="http://www.w3.org/2000/svg">
<path fill-rule="evenodd" clip-rule="evenodd" d="M37.0527 0H57.0011V29H37.0527V0ZM38.2486 1.21536V3.674H50.3828V1.21536H38.2486ZM51.5787 1.21536V16.9923H55.8053V1.21536H51.5787ZM55.8053 18.2076H50.3828V8.79299H38.2486V27.7846H55.8053V18.2076ZM38.2486 7.57763H50.3828V6.84118H38.2486V7.57763ZM38.2486 5.62581H50.3828V4.88936H38.2486V5.62581Z" fill="currentColor"/>
<path fill-rule="evenodd" clip-rule="evenodd" d="M0 0H38.249V17.7484H0V0ZM1.19583 1.21536V16.533H5.64835V1.21536H1.19583ZM6.84418 1.21536V16.533H21.3508V1.21536H6.84418ZM22.5466 1.21536V16.533H37.0532V1.21536H22.5466Z" fill="currentColor"/>
<path fill-rule="evenodd" clip-rule="evenodd" d="M6.47203 3.6748H37.6509V4.89017H6.47203V3.6748ZM6.24609 5.74143H37.6509V6.95679H6.24609V5.74143ZM6.24609 7.57843H37.6509V8.79379H6.24609V7.57843Z" fill="currentColor"/>
</svg>
