<svg width="36" height="47" viewBox="0 0 36 47" fill="none" xmlns="http://www.w3.org/2000/svg">
<path fill-rule="evenodd" clip-rule="evenodd" d="M20.8496 0.999609C20.8496 0.640624 21.1406 0.349609 21.4996 0.349609H34.9996C35.3586 0.349609 35.6496 0.640624 35.6496 0.999609V45.4996C35.6496 45.8586 35.3586 46.1496 34.9996 46.1496H0.999609C0.640624 46.1496 0.349609 45.8586 0.349609 45.4996V36.4996C0.349609 36.1406 0.640624 35.8496 0.999609 35.8496H20.8496V0.999609ZM20.8496 37.1496H1.64961V44.8496H20.8496V37.1496ZM22.1496 44.8496H34.3496V1.64961H22.1496V44.8496ZM0.349609 5.99961C0.349609 5.64062 0.640624 5.34961 0.999609 5.34961H19.9996C20.3586 5.34961 20.6496 5.64062 20.6496 5.99961V8.49961C20.6496 8.85859 20.3586 9.14961 19.9996 9.14961H18.1496V10.4996C18.1496 10.8586 17.8586 11.1496 17.4996 11.1496C17.1406 11.1496 16.8496 10.8586 16.8496 10.4996V9.14961H13.6496V10.3473C13.9021 10.8606 14.247 11.605 14.5399 12.3315C14.7 12.7286 14.8483 13.1292 14.9575 13.4888C15.0614 13.831 15.1496 14.1969 15.1496 14.4996C15.1496 14.6456 15.1837 14.9709 15.2523 15.4475C15.3187 15.9082 15.4112 16.4698 15.5149 17.0627C15.7221 18.2478 15.971 19.5424 16.137 20.3721C16.1454 20.4141 16.1496 20.4568 16.1496 20.4996V30.9996C16.1496 31.3308 15.9006 31.6091 15.5714 31.6456L11.0714 32.1456C10.8876 32.166 10.7039 32.1072 10.5661 31.9839C10.4283 31.8606 10.3496 31.6845 10.3496 31.4996V21.4996C10.3496 20.1412 10.4511 17.9602 10.756 15.8084C11.0436 13.7793 11.5267 11.6581 12.3496 10.3102V9.14961H8.64961V10.4996C8.64961 10.8586 8.35859 11.1496 7.99961 11.1496C7.64062 11.1496 7.34961 10.8586 7.34961 10.4996V9.14961H3.64961V10.4996C3.64961 10.8586 3.35859 11.1496 2.99961 11.1496C2.64062 11.1496 2.34961 10.8586 2.34961 10.4996V9.14961H0.999609C0.640624 9.14961 0.349609 8.85859 0.349609 8.49961V5.99961ZM12.9806 11.9857C12.5647 13.0641 12.2566 14.4852 12.0432 15.9908C11.7482 18.0724 11.6496 20.1914 11.6496 21.4996V30.7734L14.8496 30.4178V20.5639C14.6824 19.7254 14.4386 18.455 14.2343 17.2865C14.1296 16.6878 14.0347 16.1119 13.9656 15.633C13.8989 15.1699 13.8496 14.7536 13.8496 14.4996C13.8496 14.4023 13.8128 14.1933 13.7136 13.8666C13.6197 13.5575 13.4867 13.1957 13.3343 12.8177C13.2218 12.5388 13.1008 12.256 12.9806 11.9857ZM1.64961 6.64961V7.84961H19.3496V6.64961H1.64961ZM23.9996 20.3496C24.3586 20.3496 24.6496 20.6406 24.6496 20.9996V25.9996C24.6496 26.3586 24.3586 26.6496 23.9996 26.6496C23.6406 26.6496 23.3496 26.3586 23.3496 25.9996V20.9996C23.3496 20.6406 23.6406 20.3496 23.9996 20.3496ZM8.34961 38.4996C8.34961 38.1406 8.64062 37.8496 8.99961 37.8496H13.4996C13.8586 37.8496 14.1496 38.1406 14.1496 38.4996C14.1496 38.8586 13.8586 39.1496 13.4996 39.1496H8.99961C8.64062 39.1496 8.34961 38.8586 8.34961 38.4996Z" fill="currentColor"/>
</svg>
