<svg width="42" height="24" viewBox="0 0 42 24" fill="none" xmlns="http://www.w3.org/2000/svg">
<path fill-rule="evenodd" clip-rule="evenodd" d="M0.400391 0.400391H4.13204V6.023C5.2216 4.4404 6.66057 3.90304 7.5759 3.9004C11.5444 3.81705 17.671 3.71707 23.1618 3.6879C25.9082 3.67331 28.4983 3.67641 30.5808 3.70827C32.6462 3.73988 34.2546 3.79996 35.0083 3.90627C36.3173 4.09094 37.241 4.7229 37.8687 5.50271V0.400391H41.6004V23.6004H37.8687V20.1004H4.13204V23.6004H0.400391V0.400391ZM4.13204 18.9004H37.8687V17.6004H4.13204V18.9004ZM4.13204 16.4004H37.8687V12.6004H4.13204V16.4004ZM4.13204 11.4004H37.8687V9.60039H4.13204V11.4004ZM4.31397 8.40039H37.822C37.746 7.88088 37.5699 7.26359 37.2421 6.70347C36.7865 5.92517 36.0467 5.26466 34.8406 5.09451C34.1765 5.00082 32.6499 4.94007 30.5624 4.90813C28.4919 4.87645 25.9111 4.87331 23.1681 4.88788C17.6827 4.91703 11.5594 5.01697 7.59527 5.10026L7.58267 5.10052C6.94005 5.10052 5.17701 5.67018 4.31397 8.40039ZM39.0687 22.4004H40.4004V1.60039H39.0687V22.4004ZM1.60039 1.60039V22.4004H2.93204V1.60039H1.60039Z" fill="currentColor"/>
</svg>
