<svg width="26" height="35" viewBox="0 0 26 35" fill="none" xmlns="http://www.w3.org/2000/svg">
<path d="M24.6094 19.6875H21.3281V12.5781H21.875C22.31 12.5776 22.727 12.4046 23.0346 12.0971C23.3421 11.7895 23.5151 11.3725 23.5156 10.9375V2.1875C23.5151 1.75253 23.3421 1.33551 23.0346 1.02794C22.727 0.720371 22.31 0.547364 21.875 0.546875H3.28125C2.84628 0.547364 2.42926 0.720371 2.12169 1.02794C1.81412 1.33551 1.64111 1.75253 1.64062 2.1875V10.9375C1.64111 11.3725 1.81412 11.7895 2.12169 12.0971C2.42926 12.4046 2.84628 12.5776 3.28125 12.5781H3.82812V19.6875H0.546875C0.401835 19.6875 0.262735 19.7451 0.160176 19.8477C0.0576171 19.9502 0 20.0893 0 20.2344V22.4219C0 22.5669 0.0576171 22.706 0.160176 22.8086C0.262735 22.9111 0.401835 22.9688 0.546875 22.9688H1.09375V33.9062C1.09375 34.0513 1.15137 34.1904 1.25393 34.2929C1.35649 34.3955 1.49558 34.4531 1.64062 34.4531H3.82812C3.97317 34.4531 4.11227 34.3955 4.21482 34.2929C4.31738 34.1904 4.375 34.0513 4.375 33.9062V22.9688H20.7812V33.9062C20.7812 34.0513 20.8389 34.1904 20.9414 34.2929C21.044 34.3955 21.1831 34.4531 21.3281 34.4531H23.5156C23.6607 34.4531 23.7998 34.3955 23.9023 34.2929C24.0049 34.1904 24.0625 34.0513 24.0625 33.9062V22.9688H24.6094C24.7544 22.9688 24.8935 22.9111 24.9961 22.8086C25.0986 22.706 25.1562 22.5669 25.1562 22.4219V20.2344C25.1562 20.0893 25.0986 19.9502 24.9961 19.8477C24.8935 19.7451 24.7544 19.6875 24.6094 19.6875ZM20.2344 19.6875H19.1406V12.5781H20.2344V19.6875ZM7.10938 19.6875V12.5781H18.0469V19.6875H7.10938ZM2.73438 10.9375V2.1875C2.73454 2.04251 2.79221 1.9035 2.89473 1.80098C2.99725 1.69846 3.13626 1.64079 3.28125 1.64062H21.875C22.02 1.64079 22.159 1.69846 22.2615 1.80098C22.364 1.9035 22.4217 2.04251 22.4219 2.1875V10.9375C22.4217 11.0825 22.364 11.2215 22.2615 11.324C22.159 11.4265 22.02 11.4842 21.875 11.4844H3.28125C3.13626 11.4842 2.99725 11.4265 2.89473 11.324C2.79221 11.2215 2.73454 11.0825 2.73438 10.9375ZM4.92188 12.5781H6.01562V19.6875H4.92188V12.5781ZM3.28125 33.3594H2.1875V22.9688H3.28125V33.3594ZM22.9688 33.3594H21.875V22.9688H22.9688V33.3594ZM24.0625 21.875H1.09375V20.7812H24.0625V21.875Z" fill="currentColor"/>
<path d="M9.29688 3.82812C9.44192 3.82812 9.58102 3.77051 9.68357 3.66795C9.78613 3.56539 9.84375 3.42629 9.84375 3.28125C9.84375 3.13621 9.78613 2.99711 9.68357 2.89455C9.58102 2.79199 9.44192 2.73438 9.29688 2.73438H4.375C4.22996 2.73438 4.09086 2.79199 3.9883 2.89455C3.88574 2.99711 3.82812 3.13621 3.82812 3.28125C3.82812 3.42629 3.88574 3.56539 3.9883 3.66795C4.09086 3.77051 4.22996 3.82812 4.375 3.82812H9.29688Z" fill="currentColor"/>
<path d="M10.9375 3.82812H11.416C11.5611 3.82812 11.7002 3.77051 11.8027 3.66795C11.9053 3.56539 11.9629 3.42629 11.9629 3.28125C11.9629 3.13621 11.9053 2.99711 11.8027 2.89455C11.7002 2.79199 11.5611 2.73438 11.416 2.73438H10.9375C10.7925 2.73438 10.6534 2.79199 10.5508 2.89455C10.4482 2.99711 10.3906 3.13621 10.3906 3.28125C10.3906 3.42629 10.4482 3.56539 10.5508 3.66795C10.6534 3.77051 10.7925 3.82812 10.9375 3.82812Z" fill="currentColor"/>
</svg>
