<svg width="36" height="26" viewBox="0 0 36 26" fill="none" xmlns="http://www.w3.org/2000/svg">
<path fill-rule="evenodd" clip-rule="evenodd" d="M1.3472 22.8288H33.8616V11.4904H28.412V16.9042C28.412 17.2812 28.1104 17.5869 27.7376 17.5869H7.4704C7.0984 17.5869 6.7968 17.2812 6.7968 16.9042V11.4904H1.3472V22.8288ZM34.5344 24.1942H0.6736C0.3016 24.1942 0 23.8885 0 23.5115V10.8077C0 10.4299 0.3016 10.125 0.6736 10.125H7.4704C7.8432 10.125 8.144 10.4299 8.144 10.8077V16.2215H27.064V10.8077C27.064 10.4299 27.3656 10.125 27.7376 10.125H34.5344C34.9072 10.125 35.2088 10.4299 35.2088 10.8077V23.5115C35.2088 23.8885 34.9072 24.1942 34.5344 24.1942Z" fill="currentColor"/>
<path fill-rule="evenodd" clip-rule="evenodd" d="M3.28184 23.417C3.17544 23.417 3.08984 23.5037 3.08984 23.6116V25.8048C3.08984 25.9135 3.17544 26.0002 3.28184 26.0002H5.89064C5.99704 26.0002 6.08264 25.9135 6.08264 25.8048V23.6116C6.08264 23.5037 5.99704 23.417 5.89064 23.417H3.28184Z" fill="currentColor"/>
<path fill-rule="evenodd" clip-rule="evenodd" d="M29.3198 23.417C29.2126 23.417 29.127 23.5037 29.127 23.6116V25.8048C29.127 25.9135 29.2126 26.0002 29.3198 26.0002H31.9278C32.0342 26.0002 32.1206 25.9135 32.1206 25.8048V23.6116C32.1206 23.5037 32.0342 23.417 31.9278 23.417H29.3198Z" fill="currentColor"/>
<path fill-rule="evenodd" clip-rule="evenodd" d="M31.3194 11.4904H29.9722V1.42009H5.23783V11.4904H3.89062V0.736579C3.89062 0.359552 4.19223 0.0546875 4.56423 0.0546875H30.6458C31.0178 0.0546875 31.3194 0.359552 31.3194 0.736579V11.4904Z" fill="currentColor"/>
<path fill-rule="evenodd" clip-rule="evenodd" d="M7.4707 13.9194H27.7379V13.1394H7.4707V13.9194Z" fill="currentColor"/>
</svg>
