<svg width="13" height="13" viewBox="0 0 13 13" fill="none" xmlns="http://www.w3.org/2000/svg">
<path d="M7.6497 6.50084L12.7618 1.38875C13.0794 1.07141 13.0794 0.556521 12.7618 0.239183C12.4442 -0.0784256 11.9298 -0.0784256 11.6122 0.239183L6.50014 5.35127L1.38778 0.239183C1.07017 -0.0784256 0.555815 -0.0784256 0.238206 0.239183C-0.0794021 0.556521 -0.0794021 1.07141 0.238206 1.38875L5.35057 6.50084L0.238206 11.6129C-0.0794021 11.9303 -0.0794021 12.4452 0.238206 12.7625C0.397011 12.921 0.605136 13.0004 0.812991 13.0004C1.02085 13.0004 1.22897 12.921 1.38778 12.7622L6.50014 7.65014L11.6122 12.7622C11.771 12.921 11.9792 13.0004 12.187 13.0004C12.3949 13.0004 12.603 12.921 12.7618 12.7622C13.0794 12.4449 13.0794 11.93 12.7618 11.6127L7.6497 6.50084Z" fill="currentColor"/>
</svg>
