<svg width="30" height="24" viewBox="0 0 30 24" fill="none" xmlns="http://www.w3.org/2000/svg">
<path d="M27.324 23.7865C27.9984 23.7865 28.5827 23.5638 29.0794 23.1242L20.5799 14.6244C20.376 14.7704 20.1784 14.9124 19.9916 15.0474C19.3556 15.516 18.8393 15.8817 18.4429 16.1438C18.0466 16.4064 17.5192 16.6741 16.8609 16.9474C16.2022 17.2211 15.5886 17.3574 15.0193 17.3574H15.0026H14.9859C14.4166 17.3574 13.8029 17.2211 13.1442 16.9474C12.4856 16.6741 11.9582 16.4064 11.5623 16.1438C11.1659 15.8817 10.6499 15.5161 10.0136 15.0474C9.83621 14.9174 9.63953 14.7747 9.42689 14.6221L0.925781 23.1242C1.42246 23.5638 2.00716 23.7865 2.68146 23.7865H27.324Z" fill="#474216"/>
<path d="M1.69103 9.27209C1.05502 8.84807 0.491018 8.36244 0 7.81543V20.7472L7.49141 13.2558C5.9927 12.2095 4.06169 10.8831 1.69103 9.27209Z" fill="#474216"/>
<path d="M28.326 9.27209C26.0458 10.8155 24.1077 12.1441 22.5117 13.2588L30.0001 20.7475V7.81543C29.52 8.35144 28.962 8.83674 28.326 9.27209Z" fill="#474216"/>
<path d="M27.3248 0.214844H2.68231C1.8226 0.214844 1.16165 0.505151 0.698629 1.08517C0.235226 1.66546 0.00390625 2.39117 0.00390625 3.26149C0.00390625 3.9645 0.310881 4.72621 0.924557 5.54686C1.53823 6.36719 2.19124 7.01153 2.88324 7.48022C3.2626 7.74825 4.40662 8.54357 6.31529 9.86591C7.34564 10.5799 8.24167 11.2023 9.01167 11.7393C9.66799 12.1966 10.234 12.5926 10.7013 12.9213C10.755 12.9589 10.8394 13.0193 10.9513 13.0993C11.072 13.186 11.2247 13.296 11.413 13.432C11.7757 13.6943 12.077 13.9063 12.317 14.0683C12.5566 14.2303 12.847 14.4113 13.1876 14.6123C13.528 14.813 13.849 14.9639 14.1503 15.0643C14.4517 15.1647 14.7307 15.215 14.9873 15.215H15.004H15.0207C15.2772 15.215 15.5563 15.1647 15.8577 15.0643C16.159 14.9639 16.4797 14.8133 16.8203 14.6123C17.1607 14.4113 17.4506 14.2299 17.691 14.0683C17.931 13.9063 18.2323 13.6943 18.5951 13.432C18.7831 13.296 18.9357 13.1859 19.0564 13.0996C19.1684 13.0192 19.2527 12.9592 19.3067 12.9213C19.6708 12.668 20.2381 12.2736 21.0008 11.7439C22.3888 10.7796 24.4328 9.36024 27.1415 7.48022C27.9562 6.9112 28.6368 6.22454 29.1838 5.42121C29.7298 4.61788 30.0036 3.77522 30.0036 2.89352C30.0036 2.15685 29.7382 1.52651 29.2085 1.00151C28.6782 0.477156 28.0502 0.214844 27.3248 0.214844Z" fill="#474216"/>
</svg>
