<svg width="20" height="20" viewBox="0 0 20 20" fill="none" xmlns="http://www.w3.org/2000/svg">
<path d="M18.9253 1.50595e-06H1.0943C0.779813 -0.000593372 0.491497 0.175093 0.347735 0.454883C0.201991 0.73844 0.22757 1.0799 0.413766 1.33887L6.94629 10.5412C6.94847 10.5444 6.95085 10.5473 6.95303 10.5505C7.19039 10.871 7.31868 11.259 7.31948 11.658V19.1605C7.31809 19.3828 7.40534 19.5962 7.56199 19.7538C7.71864 19.9115 7.9316 19.9999 8.15369 19.9999C8.26672 19.9999 8.37836 19.9773 8.48266 19.9341L12.1534 18.5343C12.4824 18.434 12.7007 18.1237 12.7007 17.7499V11.658C12.7013 11.2592 12.8298 10.871 13.067 10.5505C13.0691 10.5473 13.0715 10.5444 13.0737 10.5412L19.606 1.33847C19.7922 1.0797 19.8178 0.73844 19.6721 0.454883C19.5283 0.175093 19.24 -0.000593372 18.9253 1.50595e-06ZM12.2484 9.94909C11.8836 10.4442 11.6863 11.0429 11.6851 11.658V17.6266L8.33473 18.904V11.658C8.33354 11.0429 8.13624 10.4442 7.77119 9.94909L1.42922 1.01526H18.5906L12.2484 9.94909Z" fill="#4D4A2F"/>
</svg>
