<svg width="15" height="15" viewBox="0 0 15 15" fill="none" xmlns="http://www.w3.org/2000/svg">
<path d="M7.50002 0C3.35925 0 0 3.35501 0 7.49606C0 11.6411 3.35925 15 7.49998 15C11.643 15 14.9994 11.641 14.9994 7.49606C14.9994 3.35501 11.643 0 7.50002 0ZM8.03447 11.6693C7.86028 11.8243 7.6584 11.9022 7.42972 11.9022C7.19311 11.9022 6.98672 11.8257 6.81055 11.6724C6.6341 11.5193 6.5457 11.305 6.5457 11.0297C6.5457 10.7855 6.63125 10.58 6.8018 10.4134C6.97234 10.2468 7.18154 10.1635 7.42972 10.1635C7.67393 10.1635 7.87948 10.2468 8.04635 10.4134C8.21293 10.58 8.2965 10.7855 8.2965 11.0297C8.29619 11.3011 8.20893 11.5143 8.03447 11.6693ZM10.2065 6.28454C10.0726 6.53271 9.91371 6.74671 9.72934 6.92715C9.54553 7.10756 9.21493 7.41079 8.73776 7.83711C8.60619 7.95739 8.50032 8.06298 8.42099 8.15388C8.34165 8.24509 8.28236 8.32835 8.24367 8.40404C8.2047 8.47969 8.17479 8.55537 8.1536 8.63102C8.13242 8.70639 8.10053 8.83939 8.05732 9.02939C7.98393 9.43258 7.75326 9.63414 7.3656 9.63414C7.164 9.63414 6.9946 9.56835 6.85654 9.4365C6.71903 9.30465 6.65043 9.10899 6.65043 8.84925C6.65043 8.52373 6.70096 8.24166 6.80176 8.0031C6.902 7.76452 7.03611 7.55531 7.20269 7.37491C7.36956 7.1945 7.59428 6.98047 7.87747 6.73229C8.12564 6.51517 8.30494 6.35144 8.41532 6.24102C8.52599 6.13036 8.6189 6.00726 8.69427 5.87173C8.77023 5.73592 8.8075 5.58882 8.8075 5.42988C8.8075 5.1196 8.6926 4.85816 8.46166 4.645C8.23099 4.43183 7.93339 4.3251 7.56889 4.3251C7.14229 4.3251 6.82833 4.43267 6.62674 4.64781C6.42514 4.86295 6.25491 5.17972 6.11514 5.59844C5.98301 6.03664 5.73286 6.25571 5.36496 6.25571C5.14784 6.25571 4.96462 6.17919 4.81526 6.02615C4.66618 5.87312 4.59165 5.7074 4.59165 5.52897C4.59165 5.16079 4.70995 4.78754 4.94628 4.4095C5.18288 4.03146 5.5279 3.71833 5.98159 3.47044C6.43501 3.22226 6.96442 3.09802 7.56889 3.09802C8.13103 3.09802 8.6271 3.20191 9.05738 3.40944C9.48766 3.61667 9.82024 3.89874 10.0549 4.25559C10.2892 4.61217 10.4067 4.99984 10.4067 5.41855C10.4072 5.74752 10.3403 6.03637 10.2065 6.28454Z" fill="#4D4A2F"/>
</svg>
