<svg width="26" height="26" viewBox="0 0 26 26" fill="none" xmlns="http://www.w3.org/2000/svg">
<path fill-rule="evenodd" clip-rule="evenodd" d="M18.962 0H7.03796C3.15717 0 0 3.15717 0 7.03796V18.9622C0 22.8428 3.15717 26 7.03796 26H18.9622C22.8428 26 26 22.8428 26 18.9622V7.03796C26 3.15717 22.8428 0 18.962 0ZM13 20.1092C9.07993 20.1092 5.89082 16.9201 5.89082 13C5.89082 9.07993 9.07993 5.89082 13 5.89082C16.9201 5.89082 20.1092 9.07993 20.1092 13C20.1092 16.9201 16.9201 20.1092 13 20.1092ZM18.1785 5.46672C18.1785 6.62517 19.1207 7.5674 20.2792 7.5674C21.4376 7.5674 22.3801 6.62517 22.3801 5.46672C22.3801 4.30827 21.4376 3.36584 20.2792 3.36584C19.1207 3.36584 18.1785 4.30827 18.1785 5.46672Z" fill="currentColor"/>
<path d="M13 7.41602C9.92058 7.41602 7.41504 9.92136 7.41504 13.001C7.41504 16.0804 9.92058 18.5859 13 18.5859C16.0796 18.5859 18.5849 16.0804 18.5849 13.001C18.5849 9.92136 16.0796 7.41602 13 7.41602Z" fill="currentColor"/>
<path d="M20.2791 4.89062C19.9613 4.89062 19.7026 5.14929 19.7026 5.46707C19.7026 5.78485 19.9613 6.04352 20.2791 6.04352C20.5971 6.04352 20.8557 5.78505 20.8557 5.46707C20.8557 5.14909 20.5971 4.89062 20.2791 4.89062Z" fill="currentColor"/>
</svg>
