<svg width="61" height="35" viewBox="0 0 61 35" fill="none" xmlns="http://www.w3.org/2000/svg">
<path d="M58.4578 23.2985C58.4578 29.0347 58.4578 33.7255 58.4578 34H39.4863V13.9631M58.4578 23.2985C58.4578 17.6154 58.4578 10.9063 58.4578 6.44922H52.972M58.4578 23.2985H52.972V13.9631M52.972 6.44922H39.4863V10.0923M52.972 6.44922V10.0923M52.972 10.0923H39.4863M52.972 10.0923V12.0277M39.4863 10.0923V12.0277M52.972 13.9631H39.4863M52.972 13.9631V12.0277M39.4863 13.9631V12.0277M52.972 12.0277H39.4863" stroke="#95958C"/>
<path d="M7.71429 22.8431H2V6.44922H7.71429M7.71429 22.8431H23.6M7.71429 22.8431V9.40922V6.44922M7.71429 6.44922H23.6M23.6 22.8431H39.4857V6.44922H23.6M23.6 22.8431V6.44922" stroke="#95958C"/>
<path d="M39.4863 10.0918H7.94342M39.4863 13.9626H7.71484M39.4863 12.141H7.71484" stroke="#95958C"/>
<path d="M59 1.99219L1 1.99185" stroke="#FF9100" stroke-width="1.5"/>
<ellipse cx="2" cy="1.99231" rx="2" ry="1.99231" fill="#FF9100"/>
<ellipse cx="59" cy="1.99231" rx="2" ry="1.99231" fill="#FF9100"/>
</svg>
