<svg width="42" height="42" viewBox="0 0 42 42" xmlns="http://www.w3.org/2000/svg">
	<path fill="currentColor" d="m37.02322,0.02322l-32,0c-2.76,0 -5,2.24 -5,5l0,32c0,2.76 2.24,5 5,5l32,0c2.76,0 5,-2.24 5,-5l0,-32c0,-2.76 -2.24,-5 -5,-5zm-25.41,33.59l5.16,-5.17c-1.73,-0.48 -3.38,-1.23 -4.88,-2.28c-0.9,-0.63 -1.13,-1.87 -0.5,-2.78c0.39,-0.56 1.01,-0.86 1.65,-0.86c0.39,0 0.79,0.12 1.14,0.36c2.01,1.4 4.38,2.14 6.84,2.14c2.47,0 4.84,-0.74 6.86,-2.15c0.34,-0.24 0.74,-0.36 1.14,-0.36c0.63,0 1.25,0.3 1.64,0.86c0.63,0.9 0.41,2.15 -0.5,2.78c-1.5,1.05 -3.15,1.81 -4.89,2.29l5.16,5.17c0.79,0.78 0.79,2.04 0,2.82c-0.39,0.39 -0.9,0.59 -1.41,0.59s-1.02,-0.2 -1.41,-0.59l-6.59,-6.58l-6.59,6.58c-0.39,0.39 -0.9,0.59 -1.41,0.59s-1.02,-0.2 -1.41,-0.59c-0.79,-0.78 -0.79,-2.04 0,-2.82zm9.41,-12.59c-4.42,0 -8,-3.58 -8,-8s3.58,-8 8,-8s8,3.58 8,8s-3.58,8 -8,8z" />
	<path fill="currentColor" d="m21.02322,9.02322a4,4 0 1 0 0,8a4,4 0 1 0 0,-8z" />
</svg>