<svg width="30" height="30" viewBox="0 0 30 30" fill="none" xmlns="http://www.w3.org/2000/svg">
<g clip-path="url(#clip0)">
<path d="M18.147 5.02333L14.1354 9.03455C13.9044 9.26587 13.5281 9.26587 13.2962 9.03455L13.2386 8.9754V6.0224C8.39458 6.36089 4.5567 10.4073 4.5567 15.3356C4.5567 18.7966 6.45617 21.9581 9.51605 23.5855C10.2864 23.996 10.5792 24.9532 10.1699 25.726C9.75908 26.4975 8.80217 26.7901 8.03061 26.3792C3.93623 24.2007 1.39258 19.9699 1.39258 15.3356C1.39258 8.6618 6.64942 3.19267 13.2388 2.84979V0.23176L13.2965 0.173491C13.5284 -0.0578303 13.9047 -0.0578303 14.1357 0.173491L18.147 4.18384C18.3794 4.41633 18.3794 4.79288 18.147 5.02333Z" fill="#FF9100"/>
<path d="M15.8623 29.8261L11.8517 25.8161C11.6198 25.5847 11.6198 25.2088 11.8517 24.9774L15.8623 20.9674C16.0939 20.7349 16.4696 20.7349 16.7021 20.9674L16.758 21.0254L16.7601 23.9775C21.602 23.6396 25.4419 19.5944 25.4419 14.6652C25.4419 11.2042 23.5413 8.04357 20.482 6.41525C19.7104 6.00531 19.4176 5.04635 19.8278 4.27479C20.2395 3.50324 21.1976 3.21072 21.9689 3.62153C26.0621 5.80005 28.6066 10.0318 28.6066 14.6652C28.6066 21.3396 23.3498 26.8078 16.7604 27.1495V29.7678L16.7024 29.8258C16.4696 30.0577 16.0939 30.0577 15.8623 29.8261Z" fill="#FF9100"/>
</g>
<defs>
<clipPath id="clip0">
<rect width="30" height="30" fill="white"/>
</clipPath>
</defs>
</svg>
