<svg width="26" height="26" viewBox="0 0 26 26" fill="none" xmlns="http://www.w3.org/2000/svg">
<path fill-rule="evenodd" clip-rule="evenodd" d="M1.66043 0H24.3432C25.2588 0 26.0018 0.741232 26 1.6586V24.3414C26 25.2569 25.2569 26 24.3414 26H1.66043C0.743067 26 0 25.2569 0 24.3414V1.6586C0 0.743067 0.743067 0 1.66043 0ZM21.8072 16.0768C21.719 15.9924 21.6371 15.9141 21.5673 15.8429C21.4116 15.6843 21.2167 15.5167 21.0137 15.3423C20.4563 14.8631 19.8382 14.3319 19.8059 13.7899C19.7638 13.0753 20.5703 12.1706 21.1397 11.5319C21.3144 11.3359 21.4668 11.165 21.5654 11.0322C22.2865 10.0672 22.9745 7.89119 22.9745 7.89119L18.5748 7.86367C18.5748 7.86367 17.008 11.8891 15.1732 12.8505C14.4772 12.3871 14.6104 11.3238 14.7424 10.2693C14.8582 9.34456 14.9732 8.42665 14.5274 7.92605C13.8706 7.18848 9.80665 7.38663 9.6562 8.33703C10.102 8.46729 10.5332 8.60123 10.713 8.98469C11.1643 9.93141 11.0322 12.7569 10.3039 12.8505C9.91589 12.8998 9.55687 12.3827 9.29962 12.0122C9.26003 11.9552 9.22285 11.9017 9.18834 11.8542C9.12534 11.7665 9.06271 11.6807 9.00063 11.5957C8.759 11.2647 8.52554 10.945 8.3095 10.5626C7.99026 9.99746 6.78484 7.80495 6.78484 7.80495L3.02731 7.8178C3.02731 7.8178 4.34465 11.1313 5.25651 12.6743C7.13894 15.8594 9.27274 19.1418 14.5861 18.3051C14.6975 18.007 14.7402 17.6632 14.781 17.3342C14.8644 16.6609 14.9403 16.0493 15.5824 16.0172C16.0201 15.9976 16.3621 16.4125 16.6423 16.7523C16.7028 16.8256 16.7603 16.8954 16.8153 16.9566C16.9329 17.0881 17.0348 17.2148 17.1324 17.3361C17.3181 17.567 17.4884 17.7787 17.7217 17.9675C18.4776 18.5748 19.2225 18.5473 20.4793 18.4941C20.7447 18.4835 21.012 18.4915 21.2672 18.4992C22.0709 18.5234 22.7556 18.544 22.8865 17.9675C23.0461 17.2617 22.3193 16.5665 21.8072 16.0768Z" fill="currentColor"/>
</svg>
