<svg width="22" height="26" viewBox="0 0 22 26" fill="none" xmlns="http://www.w3.org/2000/svg">
<path fill-rule="evenodd" clip-rule="evenodd" d="M6.94203 10.179H5.33339L5.33075 4.70427L3.30851 0H5.04973L6.07464 3.49469L7.08517 0.00953333H8.84459L6.94379 4.70167L6.94203 10.179ZM8.89035 3.81564C8.77507 4.2016 8.71699 4.73691 8.71699 5.42244L8.71611 7.31322C8.71611 7.93924 8.74661 8.40898 8.81085 8.72127C8.8748 9.03384 8.98069 9.30193 9.13117 9.52207C9.28019 9.74191 9.48933 9.90744 9.76008 10.0172C10.0299 10.1276 10.3573 10.1804 10.746 10.1804C11.0939 10.1804 11.4019 10.1175 11.6711 9.98891C11.9375 9.86151 12.1572 9.66189 12.3273 9.39496C12.5001 9.12513 12.6116 8.8374 12.6635 8.52713C12.716 8.21773 12.743 7.73038 12.743 7.06796V5.26182C12.743 4.73807 12.7148 4.3498 12.6576 4.0924C12.6016 3.83847 12.4966 3.59031 12.342 3.3488C12.1903 3.10816 11.9715 2.91316 11.6879 2.76293C11.4057 2.61358 11.0678 2.53731 10.6732 2.53731C10.2042 2.53731 9.81845 2.6546 9.5172 2.88889C9.21507 3.12202 9.00651 3.43113 8.89035 3.81564ZM13.8843 9.45591C13.9633 9.64484 14.0859 9.79796 14.2522 9.91351C14.4165 10.0273 14.6265 10.0845 14.8782 10.0845C15.0987 10.0845 15.2941 10.0259 15.4642 9.90484C15.6338 9.78438 15.7766 9.6044 15.8934 9.36433L15.8643 9.9554H17.5695V2.81378H16.2272V8.372C16.2272 8.67302 15.9755 8.91944 15.6678 8.91944C15.3619 8.91944 15.1093 8.67302 15.1093 8.372V2.81378H13.7083V7.63071C13.7083 8.24431 13.7198 8.65338 13.7383 8.8608C13.7573 9.06678 13.8054 9.26438 13.8843 9.45591ZM22 22.6555V14.9873C22 13.1479 20.3805 11.6425 18.4008 11.6425H3.59949C1.6192 11.6425 0 13.1479 0 14.9873V22.6555C0 24.4949 1.6192 26 3.59949 26H18.4008C20.3805 26 22 24.4949 22 22.6555ZM13.1745 17.242C12.8069 17.242 12.5063 17.4853 12.5063 17.7831V21.814C12.5063 22.1113 12.8069 22.3539 13.1745 22.3539C13.5435 22.3539 13.8445 22.1113 13.8445 21.814V17.7831C13.8445 17.485 13.5435 17.242 13.1745 17.242ZM18.6088 19.0181H17.16L17.1667 18.1893C17.1667 17.821 17.4739 17.5197 17.849 17.5197H17.9414C18.3175 17.5197 18.6255 17.821 18.6255 18.1893L18.6088 19.0181ZM4.58685 23.4881L4.58568 15.4105L6.42048 15.4111V14.2142L1.52944 14.207V15.3836L3.05624 15.388V23.4881H4.58685ZM8.55712 16.6137H10.0869L10.0871 23.4864L8.85867 23.4849L8.8616 22.5943C8.5316 23.2922 7.21248 23.8533 6.52432 23.365C6.20024 23.1359 6.17072 22.7559 6.14317 22.4013C6.13933 22.3518 6.13552 22.3029 6.13096 22.2548C6.11788 22.1111 6.11999 21.8561 6.12281 21.5168C6.12435 21.3312 6.12609 21.1204 6.12568 20.8887L6.12099 16.6137H7.64221L7.64837 20.9569C7.6486 21.1817 7.64405 21.3709 7.64034 21.5255V21.5255C7.63426 21.7783 7.63042 21.9383 7.65336 22.0093C7.87131 22.663 8.4304 22.3077 8.55477 21.9732C8.5794 21.9067 8.57514 21.7666 8.5679 21.5286C8.56315 21.3725 8.55712 21.1743 8.55712 20.9271V16.6137ZM14.9805 21.5531L14.9773 17.9631C14.9761 16.5949 13.9369 15.7756 12.5262 16.8827L12.5324 14.2136L11.0044 14.2159L10.9971 23.4286L12.2537 23.4107L12.3681 22.837C13.9735 24.2875 14.9829 23.2934 14.9805 21.5531ZM18.6211 21.0834L19.768 21.0773C20.2916 24.1381 15.9028 24.6411 15.9022 21.0825V18.9419C15.9022 18.2997 15.967 17.7941 16.0973 17.424C16.2263 17.0543 16.4484 16.779 16.7391 16.5733C17.6654 15.9146 19.4993 16.1188 19.6874 17.4056C19.7472 17.8123 19.7657 18.5236 19.7657 19.2351V20.2086H17.1392V21.1033V21.7967V21.8666C17.1392 22.204 17.4222 22.4787 17.7666 22.4787H17.9913C18.3351 22.4787 18.6182 22.204 18.6182 21.8666V21.2362C18.6185 21.205 18.6192 21.1751 18.6198 21.1471L18.6198 21.1468L18.6198 21.1465C18.6203 21.1243 18.6208 21.1032 18.6211 21.0834ZM10.0525 8.25933C10.0525 8.66378 10.3582 8.99398 10.7304 8.99398C11.103 8.99398 11.4074 8.66378 11.4074 8.25933V4.45756C11.4074 4.05369 11.103 3.72349 10.7304 3.72349C10.3582 3.72349 10.0525 4.05369 10.0525 4.45756V8.25933Z" fill="currentColor"/>
</svg>
