<svg width="134" height="153" viewBox="0 0 134 153" fill="none" xmlns="http://www.w3.org/2000/svg">
<path fill-rule="evenodd" clip-rule="evenodd" d="M94.3941 95.2024C93.8558 93.9934 94.3989 92.5772 95.6072 92.0393C96.8154 91.5013 98.2312 92.0453 98.7695 93.2543C99.3078 94.4633 98.7647 95.8794 97.5564 96.4174C96.3482 96.9553 94.9324 96.4113 94.3941 95.2024Z" fill="#4D4A2F"/>
<path fill-rule="evenodd" clip-rule="evenodd" d="M83.8023 80.2453C83.264 79.0363 83.8071 77.6202 85.0154 77.0822C86.2236 76.5443 87.6394 77.0883 88.1777 78.2973C88.716 79.5063 88.1729 80.9224 86.9646 81.4604C85.7564 81.9983 84.3406 81.4543 83.8023 80.2453Z" fill="#4D4A2F"/>
<path fill-rule="evenodd" clip-rule="evenodd" d="M81.7907 74.5019C81.7052 74.54 81.5465 74.7442 81.5571 74.7967C80.5552 76.1266 80.2308 78.0006 80.9005 79.5337C81.2408 80.2978 81.832 81.0075 82.6359 81.2027C83.38 81.3929 84.1777 81.114 84.8552 80.7233C86.1734 79.9457 87.2291 78.6935 87.7579 77.25C88.0071 76.5731 88.1396 75.821 87.906 75.1238C87.5107 73.9772 86.1743 73.3768 84.9606 73.4403C84.1901 73.4781 83.4464 73.7202 82.7412 74.0342L83.1415 73.4236M91.4229 93.0737C92.1211 94.6132 93.7254 95.6284 95.3942 95.782C95.4262 95.825 95.6527 95.8449 95.7275 95.8116C96.2999 95.8175 96.8873 95.7277 97.4494 95.5092L96.7254 95.3928C97.4466 95.0717 98.1152 94.7041 98.6702 94.139C99.5164 93.279 99.9668 91.8894 99.3786 90.8414C99.0328 90.1942 98.3746 89.7942 97.6924 89.5129C96.2729 88.9559 94.6496 88.8901 93.1867 89.3571C92.4436 89.5862 91.7003 89.9871 91.333 90.672C90.9449 91.4107 91.0737 92.3326 91.4229 93.0737ZM18.2155 63.5451C23.1426 59.9483 31.6445 54.3396 40.2777 56.5048C51.1798 59.2366 56.7004 71.1752 60.7256 81.6107C60.7304 81.6213 89.7057 68.7079 95.807 65.9914C95.5542 69.5503 94.1397 72.5742 97.9261 78.3036C101.713 84.0331 112.429 78.0099 112.674 77.3797C102.042 105.335 81.1187 127.775 55.3237 140.264C56.0486 142.453 56.7787 144.093 51.0797 149.898C52.4543 148.485 41.7587 130.343 40.8179 127.856C37.8265 119.987 34.6748 112.19 31.392 104.457C28.0187 96.5352 24.4584 88.6968 20.7486 80.9251C18.8579 76.9662 16.9298 73.0239 14.972 69.1011C13.9905 67.1409 13.0143 65.1784 12.006 63.2301C11.3494 61.971 7.63006 48.5695 9.4916 43.951C21.7983 13.4887 49.0572 34.0598 50.3028 42.35C50.8401 45.9005 52.9612 51.5768 49.9183 53.542C47.7716 46.6068 39.0663 36.9324 31.7793 37.4172C28.0937 37.6656 23.6492 42.2247 21.2759 45.1712C13.8669 54.3693 17.9629 62.532 18.2155 63.5451Z" fill="url(#paint0_linear)"/>
<path fill-rule="evenodd" clip-rule="evenodd" d="M88.54 116.577C88.54 116.577 97.0785 114.535 98.4394 119.239C99.8003 123.944 101.158 124.371 99.5544 125.334C98.6102 125.901 97.687 125.763 96.3185 124.874C95.3632 124.254 94.8198 121.599 92.8346 121.684C90.3559 121.79 79.6018 127.092 79.6018 127.092C79.6018 127.092 85.4398 121.528 88.2173 118.539C90.9949 115.55 88.54 116.577 88.54 116.577Z" fill="url(#paint1_linear)"/>
<path fill-rule="evenodd" clip-rule="evenodd" d="M101.349 115.793C100.035 113.517 97.8797 111.177 94.8886 108.754L93.8462 107.91L93.1254 109.041C90.8317 112.639 88.7328 115.401 86.8402 117.319C84.9004 119.285 81.8856 122.113 77.8014 125.797L69.53 133.258L79.1986 127.727C82.9776 125.565 85.9819 124.044 88.1971 123.165C90.1532 122.389 91.4076 122.172 91.7121 122.331C92.3702 122.675 92.9735 123.094 93.6009 123.622C93.8487 123.83 94.0916 124.048 94.3926 124.327C94.397 124.331 94.4186 124.351 94.452 124.383C94.6049 124.526 95.0052 124.9 95.1345 125.018C96.812 126.55 98.0645 126.973 99.6503 125.85C102.461 123.858 103.374 119.301 101.349 115.793ZM86.0225 121.472C86.999 120.541 87.8399 119.717 88.5454 119.002C90.36 117.163 92.3107 114.654 94.4057 111.472C96.6498 113.409 98.2719 115.253 99.2749 116.991C100.69 119.442 100.052 122.629 98.2651 123.894C97.874 124.172 97.6912 124.11 96.7491 123.249C96.6349 123.145 96.2688 122.803 96.1029 122.648C96.0586 122.606 96.0286 122.578 96.0214 122.572C95.6942 122.268 95.4241 122.026 95.142 121.789C94.3897 121.156 93.6463 120.639 92.8201 120.207C91.585 119.562 89.3899 119.988 86.0225 121.472Z" fill="#4D4A2F"/>
<path d="M105.611 120.859C105.611 120.859 113.914 120.09 116.551 116.856" stroke="#4D4A2F" stroke-width="2"/>
<path d="M104.647 117.821C104.647 117.821 108.823 114.787 109.846 110.742" stroke="#4D4A2F" stroke-width="2"/>
<path d="M77.7844 87.6959L79.9721 86.7219C80.6248 88.1878 82.2713 88.6171 85.3413 87.814L88.4341 87.0049L86.6345 89.6478C84.433 92.8808 83.8256 95.377 84.6251 97.1726L82.4374 98.1467C81.4782 95.9923 81.7912 93.4642 83.2817 90.5804C80.6191 90.7354 78.7226 89.803 77.7844 87.6959Z" fill="#4D4A2F"/>
<path fill-rule="evenodd" clip-rule="evenodd" d="M49.2703 52.5004C40.6705 49.6627 30.8919 49.8079 21.7875 53.6339C21.375 53.805 20.9619 53.9889 20.5511 54.1781C20.5651 53.7106 20.6903 53.1367 20.928 52.4874L20.9257 52.4821C21.486 50.9183 22.4946 49.3065 23.3146 48.0694C25.2392 45.1652 27.8556 42.8313 30.8718 41.3241C32.0212 40.7555 32.9456 40.4513 33.7898 40.3661C35.4 40.2053 37.1759 40.7732 39.3858 42.1589C44.4941 45.3505 47.3678 48.3554 49.2703 52.5004ZM111.124 78.6037C107.384 87.4661 90.2427 123.9 56.0268 138.761L54.9151 139.244L55.2946 140.395C55.3574 141.22 55.3893 143.544 52.8096 146.873C50.8911 141.509 44.1475 129.156 43.3946 127.166C40.5035 119.575 37.3492 111.735 34.0042 103.865C29.9385 94.3203 25.524 84.6903 20.5037 74.4265C16.5207 66.2789 10.7462 52.9385 11.1612 49.5943C11.658 45.5501 12.5764 40.3576 15.2476 36.0657C19.1837 29.7256 27.1104 25.9057 34.5233 26.7759C41.9338 27.6408 48.7263 33.2041 51.0461 40.2533C52.1517 43.6346 52.0301 46.5829 50.6415 49.3938C48.0199 44.8739 44.3883 42.1623 40.7998 39.918C38.0654 38.2097 35.7584 37.5181 33.5388 37.7354C31.9962 37.8914 30.6033 38.5116 29.6952 38.9665C26.257 40.6805 23.2915 43.3278 21.1077 46.6192C20.207 47.9744 19.0835 49.77 18.4353 51.6068C17.6426 53.8175 17.735 55.5646 18.7192 56.82L19.3708 57.642L20.3253 57.1917C21.1392 56.8104 21.9743 56.4196 22.8076 56.0676C40.5586 48.613 61.0295 56.1052 68.4468 72.7646L68.8671 73.7086L69.8949 73.5227C73.039 72.9443 76.0096 71.805 78.8854 70.6952C83.0652 69.0933 87.3216 67.4637 91.39 65.5259C93.6899 64.4198 95.9611 63.2064 98.1618 61.8917C98.1291 62.2032 98.0941 62.5094 98.0562 62.8233C97.7774 65.3045 97.492 67.8707 97.6173 70.3615C97.7463 72.661 99.1147 74.908 101.576 76.858C103.078 78.0658 104.832 78.7258 106.939 78.8683C107.482 78.9046 109.457 78.7518 111.124 78.6037ZM51.884 152.163L53.3698 150.383C55.7367 147.56 57.3651 143.72 57.8543 140.842C97.2629 123.233 114.241 77.9931 114.407 77.5399L115.124 75.5716L113.037 75.774C110.494 76.0214 107.579 76.2579 107.118 76.2355C105.56 76.1269 104.323 75.6728 103.236 74.7984C101.938 73.7649 100.367 72.1325 100.262 70.2142C100.147 67.9462 100.422 65.4856 100.691 63.1101C100.831 61.8721 100.966 60.6495 101.052 59.4609L101.24 56.831L99.0182 58.2561C96.2111 60.0619 93.2613 61.7039 90.2457 63.1412C86.2803 65.0395 82.074 66.6532 78.0054 68.2055C75.5021 69.1684 72.9776 70.1408 70.4246 70.7213C66.4623 62.5203 59.5309 56.488 51.3361 53.2488L51.6159 52.8652C54.5522 48.7838 55.1899 44.3862 53.5664 39.4282C50.9082 31.2912 43.3774 25.1529 34.8399 24.1515C26.3101 23.1531 17.5265 27.3861 12.9936 34.6807C10.0532 39.4084 9.06317 44.9676 8.53084 49.2741C7.89777 54.3521 16.414 72.083 18.126 75.5862C23.1247 85.8155 27.5204 95.4032 31.5649 104.901C34.8958 112.739 38.0384 120.552 40.9154 128.112C41.8373 130.539 51.0351 149.786 51.106 149.988L51.884 152.163Z" fill="#4D4A2F"/>
<defs>
<linearGradient id="paint0_linear" x1="85.7252" y1="17.7286" x2="70.1293" y2="139.292" gradientUnits="userSpaceOnUse">
<stop stop-color="#FF9100"/>
<stop offset="1" stop-color="#FFC400"/>
</linearGradient>
<linearGradient id="paint1_linear" x1="92.6331" y1="117.556" x2="96.3331" y2="129.039" gradientUnits="userSpaceOnUse">
<stop stop-color="#FFC400"/>
<stop offset="1" stop-color="#FF9100"/>
</linearGradient>
</defs>
</svg>
