<svg width="135" height="154" viewBox="0 0 135 154" fill="none" xmlns="http://www.w3.org/2000/svg">
<path fill-rule="evenodd" clip-rule="evenodd" d="M95.4971 95.4797C94.9589 94.2707 95.502 92.8545 96.7102 92.3166C97.9184 91.7787 99.3343 92.3227 99.8725 93.5316C100.411 94.7406 99.8677 96.1568 98.6595 96.6947C97.4512 97.2327 96.0354 96.6887 95.4971 95.4797Z" fill="#4D4A2F"/>
<path fill-rule="evenodd" clip-rule="evenodd" d="M84.9058 80.5227C84.3675 79.3137 84.9107 77.8975 86.1189 77.3596C87.3271 76.8216 88.743 77.3656 89.2812 78.5746C89.8195 79.7836 89.2764 81.1998 88.0682 81.7377C86.8599 82.2756 85.4441 81.7316 84.9058 80.5227Z" fill="#4D4A2F"/>
<path fill-rule="evenodd" clip-rule="evenodd" d="M82.8928 74.7783C82.8073 74.8163 82.6485 75.0205 82.6591 75.0731C81.6572 76.403 81.3328 78.2769 82.0026 79.81C82.3428 80.5742 82.9341 81.2838 83.738 81.4791C84.482 81.6692 85.2797 81.3904 85.9572 80.9997C87.2754 80.222 88.3312 78.9699 88.8599 77.5263C89.1091 76.8495 89.2416 76.0974 89.008 75.4002C88.6128 74.2536 87.2764 73.6532 86.0627 73.7167C85.2921 73.7545 84.5485 73.9966 83.8432 74.3106L84.2436 73.7M92.5246 93.3491C93.2228 94.8886 94.8271 95.9038 96.4959 96.0574C96.5279 96.1004 96.7544 96.1203 96.8292 96.087C97.4016 96.0929 97.989 96.0031 98.5511 95.7846L97.8271 95.6682C98.5483 95.3471 99.2169 94.9795 99.7719 94.4144C100.618 93.5544 101.069 92.1648 100.48 91.1168C100.135 90.4696 99.4763 90.0696 98.7941 89.7883C97.3746 89.2313 95.7513 89.1655 94.2884 89.6325C93.5453 89.8616 92.802 90.2625 92.4347 90.9474C92.0466 91.6861 92.1754 92.608 92.5246 93.3491ZM19.3175 63.8214C24.2446 60.2247 32.7465 54.616 41.3797 56.7811C52.2818 59.513 57.8025 71.4516 61.8277 81.887C61.8324 81.8976 90.8077 68.9843 96.909 66.2678C96.6563 69.8267 95.2417 72.8505 99.0282 78.58C102.815 84.3095 113.531 78.2863 113.776 77.6561C103.144 105.611 82.2208 128.051 56.4258 140.54C57.1507 142.729 57.8807 144.369 52.1818 150.175C53.5563 148.762 42.8608 130.62 41.9199 128.133C38.9286 120.264 35.7769 112.466 32.494 104.733C29.1207 96.8115 25.5605 88.9732 21.8506 81.2015C19.9599 77.2425 18.0319 73.3002 16.0741 69.3775C15.0925 67.4173 14.1163 65.4548 13.1081 63.5065C12.4514 62.2473 8.73211 48.8459 10.5936 44.2273C22.9003 13.7651 50.1593 34.3362 51.4048 42.6264C51.9422 46.1769 54.0633 51.8532 51.0204 53.8184C48.8737 46.8832 40.1684 37.2088 32.8814 37.6935C29.1958 37.942 24.7513 42.5011 22.3779 45.4475C14.969 54.6456 19.0649 62.8084 19.3175 63.8214Z" fill="url(#paint0_linear)"/>
<path fill-rule="evenodd" clip-rule="evenodd" d="M89.642 116.854C89.642 116.854 98.1805 114.812 99.5414 119.516C100.902 124.221 102.26 124.648 100.656 125.611C99.7122 126.179 98.7891 126.04 97.4205 125.151C96.4653 124.531 95.9218 121.876 93.9366 121.961C91.4579 122.068 80.7039 127.369 80.7039 127.369C80.7039 127.369 86.5418 121.806 89.3194 118.816C92.0969 115.827 89.642 116.854 89.642 116.854Z" fill="url(#paint1_linear)"/>
<path fill-rule="evenodd" clip-rule="evenodd" d="M102.451 116.07C101.137 113.793 98.9822 111.454 95.9912 109.031L94.9488 108.186L94.228 109.317C91.9342 112.916 89.8353 115.677 87.9428 117.595C86.003 119.562 82.9881 122.39 78.904 126.074L70.6325 133.534L80.3011 128.004C84.0801 125.842 87.0845 124.32 89.2996 123.441C91.2557 122.666 92.5101 122.448 92.8146 122.607C93.4728 122.951 94.0761 123.37 94.7034 123.898C94.9512 124.107 95.1941 124.324 95.4952 124.604C95.4995 124.608 95.5211 124.628 95.5545 124.659C95.7074 124.802 96.1077 125.176 96.2371 125.294C97.9146 126.827 99.1671 127.25 100.753 126.126C103.563 124.135 104.476 119.577 102.451 116.07ZM87.125 121.748C88.1016 120.817 88.9425 119.994 89.648 119.279C91.4625 117.439 93.4132 114.93 95.5082 111.748C97.7523 113.686 99.3744 115.53 100.377 117.267C101.793 119.718 101.154 122.905 99.3676 124.171C98.9765 124.448 98.7937 124.386 97.8516 123.526C97.7375 123.421 97.3713 123.079 97.2054 122.924C97.1611 122.883 97.1311 122.855 97.124 122.848C96.7967 122.544 96.5267 122.302 96.2445 122.065C95.4922 121.432 94.7488 120.916 93.9226 120.484C92.6875 119.839 90.4924 120.265 87.125 121.748Z" fill="#4D4A2F"/>
<path d="M106.715 121.137C106.715 121.137 115.017 120.367 117.654 117.134" stroke="#4D4A2F" stroke-width="2"/>
<path d="M105.75 118.099C105.75 118.099 109.926 115.066 110.949 111.021" stroke="#4D4A2F" stroke-width="2"/>
<path d="M78.8869 87.9723L81.0746 86.9982C81.7273 88.4642 83.3738 88.8934 86.4438 88.0903L89.5367 87.2813L87.737 89.9241C85.5355 93.1572 84.9282 95.6534 85.7276 97.449L83.5399 98.423C82.5807 96.2687 82.8937 93.7405 84.3842 90.8568C81.7216 91.0117 79.8251 90.0794 78.8869 87.9723Z" fill="#4D4A2F"/>
<path fill-rule="evenodd" clip-rule="evenodd" d="M50.3734 52.7777C41.7735 49.94 31.995 50.0852 22.8906 53.9113C22.478 54.0823 22.0649 54.2662 21.6542 54.4555C21.6681 53.9879 21.7934 53.414 22.0311 52.7648L22.0287 52.7595C22.589 51.1956 23.5976 49.5839 24.4177 48.3468C26.3422 45.4425 28.9586 43.1086 31.9748 41.6014C33.1242 41.0328 34.0486 40.7287 34.8928 40.6435C36.503 40.4826 38.279 41.0505 40.4889 42.4363C45.5971 45.6279 48.4708 48.6327 50.3734 52.7777ZM112.227 78.8811C108.487 87.7434 91.3458 124.177 57.1298 139.039L56.0182 139.521L56.3977 140.673C56.4604 141.498 56.4923 143.822 53.9126 147.15C51.9942 141.786 45.2505 129.434 44.4976 127.443C41.6066 119.852 38.4522 112.012 35.1072 104.143C31.0415 94.5977 26.627 84.9677 21.6067 74.7038C17.6238 66.5562 11.8492 53.2159 12.2642 49.8716C12.761 45.8274 13.6795 40.635 16.3507 36.343C20.2868 30.003 28.2135 26.1831 35.6263 27.0532C43.0368 27.9181 49.8293 33.4815 52.1491 40.5307C53.2548 43.912 53.1332 46.8602 51.7446 49.6712C49.1229 45.1513 45.4913 42.4396 41.9028 40.1954C39.1685 38.4871 36.8614 37.7954 34.6418 38.0128C33.0992 38.1688 31.7063 38.7889 30.7982 39.2438C27.36 40.9578 24.3945 43.6052 22.2107 46.8965C21.31 48.2517 20.1865 50.0473 19.5383 51.8841C18.7456 54.0948 18.8381 55.842 19.8222 57.0973L20.4738 57.9193L21.4283 57.4691C22.2422 57.0877 23.0773 56.697 23.9106 56.3449C41.6616 48.8903 62.1325 56.3825 69.5498 73.042L69.9701 73.986L70.9979 73.8001C74.1421 73.2217 77.1126 72.0823 79.9884 70.9726C84.1683 69.3707 88.4246 67.741 92.493 65.8033C94.7929 64.6971 97.0641 63.4837 99.2648 62.169C99.2322 62.4805 99.1972 62.7868 99.1592 63.1007C98.8804 65.5818 98.595 68.148 98.7203 70.6388C98.8493 72.9384 100.218 75.1853 102.679 77.1353C104.181 78.3431 105.935 79.0032 108.042 79.1456C108.585 79.182 110.56 79.0291 112.227 78.8811ZM52.987 152.441L54.4729 150.661C56.8397 147.837 58.4681 143.997 58.9573 141.119C98.366 123.51 115.344 78.2705 115.51 77.8173L116.227 75.849L114.14 76.0513C111.598 76.2987 108.682 76.5352 108.221 76.5128C106.663 76.4043 105.426 75.9502 104.339 75.0757C103.041 74.0422 101.47 72.4099 101.365 70.4915C101.25 68.2236 101.525 65.763 101.794 63.3874C101.934 62.1495 102.069 60.9268 102.155 59.7383L102.343 57.1083L100.121 58.5334C97.3142 60.3393 94.3643 61.9812 91.3488 63.4186C87.3834 65.3168 83.177 66.9305 79.1084 68.4829C76.6051 69.4458 74.0806 70.4181 71.5276 70.9987C67.5654 62.7977 60.6339 56.7654 52.4392 53.5262L52.7189 53.1425C55.6552 49.0612 56.2929 44.6635 54.6694 39.7056C52.0112 31.5685 44.4804 25.4302 35.9429 24.4289C27.4131 23.4304 18.6295 27.6634 14.0966 34.958C11.1562 39.6858 10.1662 45.245 9.63386 49.5514C9.00079 54.6294 17.5171 72.3604 19.2291 75.8635C24.2277 86.0928 28.6234 95.6806 32.668 105.178C35.9988 113.016 39.1415 120.83 42.0185 128.389C42.9403 130.816 52.1381 150.063 52.2091 150.266L52.987 152.441Z" fill="#4D4A2F"/>
<defs>
<linearGradient id="paint0_linear" x1="86.8273" y1="18.005" x2="71.2313" y2="139.568" gradientUnits="userSpaceOnUse">
<stop stop-color="#FF9100"/>
<stop offset="1" stop-color="#FFC400"/>
</linearGradient>
<linearGradient id="paint1_linear" x1="93.7352" y1="117.834" x2="97.4352" y2="129.316" gradientUnits="userSpaceOnUse">
<stop stop-color="#FFC400"/>
<stop offset="1" stop-color="#FF9100"/>
</linearGradient>
</defs>
</svg>
