<svg width="14" height="14" viewBox="0 0 14 14" fill="none" xmlns="http://www.w3.org/2000/svg">
<path d="M8.23814 6.99985L13.7435 1.49453C14.0855 1.15278 14.0855 0.598278 13.7435 0.25653C13.4014 -0.08551 12.8475 -0.08551 12.5055 0.25653L7.00015 5.76186L1.49453 0.25653C1.15249 -0.08551 0.59857 -0.08551 0.25653 0.25653C-0.08551 0.598278 -0.08551 1.15278 0.25653 1.49453L5.76215 6.99985L0.25653 12.5052C-0.08551 12.8469 -0.08551 13.4014 0.25653 13.7432C0.42755 13.9139 0.651685 13.9994 0.875529 13.9994C1.09937 13.9994 1.32351 13.9139 1.49453 13.7429L7.00015 8.23756L12.5055 13.7429C12.6765 13.9139 12.9006 13.9994 13.1245 13.9994C13.3483 13.9994 13.5724 13.9139 13.7435 13.7429C14.0855 13.4011 14.0855 12.8466 13.7435 12.5049L8.23814 6.99985Z" fill="#474216"/>
</svg>
