<svg width="37" height="28" viewBox="0 0 37 28" fill="none" xmlns="http://www.w3.org/2000/svg">
<path fill-rule="evenodd" clip-rule="evenodd" d="M12.0859 3.51348L19.0232 26.2045L24.0024 24.6822L23.4875 22.998L20.8691 23.7985C20.6046 23.8794 20.3278 23.7397 20.2503 23.4862L14.6232 5.08084C14.5459 4.82794 14.6971 4.55676 14.9616 4.4759L17.58 3.67538L17.0651 1.99119L12.0859 3.51348ZM10.987 3.34743C10.9095 3.09398 11.0608 2.82335 11.3253 2.74249L17.2617 0.927564C17.5261 0.846706 17.803 0.986425 17.8805 1.23988L18.6758 3.84132C18.7533 4.09477 18.6019 4.3654 18.3374 4.44626L15.719 5.24678L21.0657 22.7349L23.6841 21.9344C23.9486 21.8535 24.2254 21.9932 24.3029 22.2467L25.0982 24.8481C25.1757 25.1016 25.0243 25.3722 24.7599 25.4531L18.8235 27.268C18.559 27.3489 18.2822 27.2091 18.2047 26.9557L10.987 3.34743Z" fill="white"/>
<path fill-rule="evenodd" clip-rule="evenodd" d="M34.3968 19.8652H32.4613C32.3672 19.8652 32.291 19.9424 32.291 20.0375V22.0422C32.291 22.1373 32.3672 22.2145 32.4613 22.2145H34.3968C34.4909 22.2145 34.5671 22.1373 34.5671 22.0422V20.0375C34.5671 19.9424 34.4909 19.8652 34.3968 19.8652Z" fill="white"/>
<path fill-rule="evenodd" clip-rule="evenodd" d="M6.61364 7.61133H4.67807C4.58404 7.61133 4.50781 7.68846 4.50781 7.78361V9.78829C4.50781 9.88344 4.58404 9.96057 4.67807 9.96057H6.61364C6.70768 9.96057 6.78391 9.88344 6.78391 9.78829V7.78361C6.78391 7.68846 6.70768 7.61133 6.61364 7.61133Z" fill="white"/>
<path fill-rule="evenodd" clip-rule="evenodd" d="M36.9996 12.5477H35.8085V8.81658H22.7888V12.5477H21.5977V8.21396C21.5977 7.88092 21.8641 7.61133 22.1932 7.61133L36.404 7.61133C36.7331 7.61133 36.9996 7.88092 36.9996 8.21396V12.5477Z" fill="white"/>
<path fill-rule="evenodd" clip-rule="evenodd" d="M6.64453 16.9644H29.9668V16.276H6.64453V16.9644Z" fill="white"/>
</svg>
