<svg width="87" height="163" viewBox="0 0 87 163" fill="none" xmlns="http://www.w3.org/2000/svg">
<path fill-rule="evenodd" clip-rule="evenodd" d="M46.4715 93.9066C47.1163 92.4583 46.4657 90.7618 45.0183 90.1174C43.5709 89.473 41.8749 90.1247 41.2301 91.5729C40.5852 93.0212 41.2358 94.7177 42.6832 95.3621C44.1306 96.0066 45.8267 95.3549 46.4715 93.9066Z" fill="#4D4A2F"/>
<path fill-rule="evenodd" clip-rule="evenodd" d="M59.1629 75.9886C59.8077 74.5403 59.1571 72.8439 57.7097 72.1994C56.2624 71.555 54.5663 72.2067 53.9215 73.655C53.2766 75.1033 53.9272 76.7997 55.3746 77.4442C56.822 78.0886 58.5181 77.4369 59.1629 75.9886Z" fill="#4D4A2F"/>
<path fill-rule="evenodd" clip-rule="evenodd" d="M61.5761 69.1089C61.6785 69.1545 61.8687 69.3991 61.856 69.462C63.0562 71.0552 63.4448 73.3001 62.6424 75.1366C62.2349 76.052 61.5266 76.9021 60.5636 77.136C59.6723 77.3638 58.7167 77.0298 57.9051 76.5618C56.3259 75.6302 55.0612 74.1302 54.4278 72.4009C54.1292 71.59 53.9705 70.6891 54.2504 69.8539C54.7239 68.4803 56.3248 67.7611 57.7787 67.8371C58.7018 67.8825 59.5926 68.1725 60.4375 68.5486L59.9579 67.8171M50.04 91.3558C49.2036 93.2 47.2817 94.4162 45.2826 94.6002C45.2443 94.6517 44.9729 94.6756 44.8833 94.6357C44.1977 94.6427 43.494 94.5351 42.8207 94.2734L43.688 94.1339C42.8239 93.7493 42.0231 93.3089 41.3581 92.632C40.3444 91.6017 39.8049 89.9371 40.5095 88.6817C40.9238 87.9063 41.7123 87.4271 42.5295 87.0902C44.23 86.4229 46.1746 86.3441 47.9271 86.9035C48.8172 87.1779 49.7077 87.6582 50.1476 88.4787C50.6126 89.3636 50.4583 90.468 50.04 91.3558ZM137.736 55.9832C131.833 51.6745 121.649 44.9557 111.306 47.5493C98.2464 50.822 91.633 65.1236 86.8111 77.6247C86.8054 77.6374 52.0947 62.168 44.7858 58.9138C45.0886 63.1771 46.7831 66.7995 42.2472 73.6631C37.7112 80.5266 24.8734 73.3112 24.5807 72.5563C37.3168 106.045 62.3814 132.926 93.2823 147.888C92.4139 150.51 91.5393 152.474 98.3663 159.429C96.7197 157.736 109.532 136.004 110.659 133.024C114.243 123.598 118.018 114.256 121.951 104.993C125.992 95.5033 130.257 86.1135 134.701 76.8035C136.966 72.0609 139.276 67.3382 141.621 62.639C142.797 60.2908 143.966 57.9398 145.174 55.6059C145.961 54.0975 150.416 38.0434 148.186 32.5107C133.444 -3.98126 100.789 20.6616 99.297 30.5928C98.6534 34.8461 96.1124 41.646 99.7576 44.0002C102.329 35.6922 112.758 24.1029 121.487 24.6836C125.902 24.9812 131.226 30.4428 134.069 33.9724C142.945 44.9911 138.038 54.7697 137.736 55.9832Z" fill="url(#paint0_linear)"/>
<path fill-rule="evenodd" clip-rule="evenodd" d="M53.4877 119.511C53.4877 119.511 43.2591 117.065 41.6288 122.701C39.9985 128.336 38.3723 128.848 40.293 130.002C41.4242 130.682 42.5301 130.516 44.1695 129.451C45.3139 128.708 45.9649 125.527 48.343 125.629C51.3123 125.757 64.195 132.108 64.195 132.108C64.195 132.108 57.2015 125.443 53.8742 121.862C50.5469 118.281 53.4877 119.511 53.4877 119.511Z" fill="url(#paint1_linear)"/>
<path fill-rule="evenodd" clip-rule="evenodd" d="M38.1421 118.573C39.7164 115.847 42.2979 113.043 45.8809 110.141L47.1297 109.13L47.9931 110.484C50.741 114.795 53.2553 118.103 55.5225 120.401C57.8462 122.756 61.4578 126.144 66.3504 130.557L76.2591 139.495L64.6767 132.869C60.1497 130.28 56.5506 128.457 53.897 127.404C51.5537 126.475 50.0511 126.214 49.6863 126.405C48.8978 126.817 48.1751 127.319 47.4236 127.951C47.1267 128.201 46.8357 128.462 46.4751 128.796C46.4699 128.801 46.4441 128.825 46.4041 128.863C46.221 129.034 45.7414 129.482 45.5864 129.624C43.5769 131.46 42.0764 131.966 40.1768 130.62C36.81 128.234 35.7164 122.775 38.1421 118.573ZM56.502 125.376C55.3322 124.26 54.3249 123.274 53.4797 122.417C51.306 120.214 48.9692 117.208 46.4595 113.396C43.7712 115.717 41.8281 117.926 40.6265 120.008C38.9313 122.944 39.6961 126.761 41.8362 128.278C42.3047 128.61 42.5237 128.536 43.6522 127.505C43.7889 127.38 44.2272 126.97 44.4261 126.784C44.4793 126.735 44.5154 126.701 44.5239 126.693C44.916 126.329 45.2394 126.039 45.5774 125.755C46.4786 124.997 47.3692 124.378 48.359 123.861C49.8385 123.088 52.4681 123.598 56.502 125.376Z" fill="#4D4A2F"/>
<path d="M33.0352 124.642C33.0352 124.642 23.0894 123.72 19.9304 119.846" stroke="#4D4A2F" stroke-width="2"/>
<path d="M34.1892 121.002C34.1892 121.002 29.1863 117.368 27.9603 112.523" stroke="#4D4A2F" stroke-width="2"/>
<path d="M66.3725 84.9146L63.7518 83.7478C62.9699 85.5039 60.9975 86.0181 57.3198 85.0561L53.6148 84.0868L55.7706 87.2529C58.4079 91.1258 59.1355 94.1162 58.1778 96.2672L60.7985 97.434C61.9475 94.8532 61.5726 91.8246 59.787 88.3701C62.9767 88.5557 65.2486 87.4389 66.3725 84.9146Z" fill="#4D4A2F"/>
<path fill-rule="evenodd" clip-rule="evenodd" d="M83.9367 55.3207C92.5365 52.483 102.315 52.6282 111.419 56.4542C111.832 56.6253 112.245 56.8092 112.656 56.9984C112.642 56.5309 112.517 55.957 112.279 55.3077L112.281 55.3024C111.721 53.7386 110.712 52.1269 109.892 50.8897C107.968 47.9855 105.351 45.6516 102.335 44.1444C101.186 43.5758 100.261 43.2716 99.4172 43.1864C97.8071 43.0256 96.0311 43.5935 93.8212 44.9792C88.7129 48.1708 85.8393 51.1757 83.9367 55.3207ZM22.0832 81.424C25.8229 90.2864 42.9643 126.72 77.1802 141.582L78.2919 142.064L77.9124 143.216C77.8496 144.041 77.8177 146.365 80.3974 149.693C82.3159 144.329 89.0596 131.977 89.8124 129.986C92.7035 122.395 95.8579 114.555 99.2028 106.686C103.269 97.1406 107.683 87.5106 112.703 77.2468C116.686 69.0992 122.461 55.7589 122.046 52.4146C121.549 48.3704 120.631 43.1779 117.959 38.886C114.023 32.5459 106.097 28.726 98.6837 29.5962C91.2732 30.4611 84.4807 36.0244 82.1609 43.0736C81.0553 46.4549 81.1769 49.4032 82.5655 52.2141C85.1871 47.6942 88.8187 44.9826 92.4073 42.7383C95.1416 41.03 97.4486 40.3384 99.6683 40.5557C101.211 40.7117 102.604 41.3319 103.512 41.7868C106.95 43.5008 109.916 46.1481 112.099 49.4395C113 50.7947 114.124 52.5903 114.772 54.4271C115.564 56.6378 115.472 58.3849 114.488 59.6403L113.836 60.4623L112.882 60.012C112.068 59.6307 111.233 59.2399 110.399 58.8879C92.6485 51.4333 72.1775 58.9255 64.7603 75.5849L64.34 76.5289L63.3121 76.343C60.168 75.7646 57.1974 74.6253 54.3216 73.5155C50.1418 71.9136 45.8855 70.284 41.8171 68.3462C39.5171 67.2401 37.246 66.0267 35.0452 64.712C35.0779 65.0235 35.1129 65.3298 35.1508 65.6436C35.4297 68.1248 35.7151 70.691 35.5898 73.1818C35.4608 75.4814 34.0923 77.7283 31.6312 79.6783C30.1287 80.8861 28.3752 81.5461 26.2683 81.6886C25.7253 81.7249 23.7499 81.5721 22.0832 81.424ZM81.323 154.984L79.8372 153.204C77.4704 150.38 75.842 146.54 75.3528 143.662C35.9441 126.053 18.9661 80.8134 18.7998 80.3603L18.0832 78.3919L20.1699 78.5943C22.7125 78.8417 25.6281 79.0782 26.0887 79.0558C27.6474 78.9473 28.8841 78.4931 29.9715 77.6187C31.2694 76.5852 32.8402 74.9528 32.9455 73.0345C33.0604 70.7665 32.7851 68.3059 32.5164 65.9304C32.3758 64.6925 32.2411 63.4698 32.1546 62.2812L31.9674 59.6513L34.1888 61.0764C36.9959 62.8822 39.9458 64.5242 42.9613 65.9616C46.9267 67.8598 51.133 69.4735 55.2016 71.0259C57.705 71.9887 60.2295 72.9611 62.7824 73.5416C66.7447 65.3406 73.6762 59.3084 81.8709 56.0691L81.5911 55.6855C78.6548 51.6041 78.0171 47.2065 79.6407 42.2485C82.2989 34.1115 89.8297 27.9732 98.3671 26.9719C106.897 25.9734 115.681 30.2064 120.213 37.501C123.154 42.2287 124.144 47.7879 124.676 52.0944C125.309 57.1724 116.793 74.9034 115.081 78.4065C110.082 88.6358 105.687 98.2236 101.642 107.721C98.3112 115.559 95.1686 123.373 92.2916 130.932C91.3698 133.359 82.172 152.606 82.101 152.809L81.323 154.984Z" fill="#4D4A2F"/>
<defs>
<linearGradient id="paint0_linear" x1="56.8631" y1="1.09791" x2="75.5461" y2="146.723" gradientUnits="userSpaceOnUse">
<stop stop-color="#FF9100"/>
<stop offset="1" stop-color="#FFC400"/>
</linearGradient>
<linearGradient id="paint1_linear" x1="48.5843" y1="120.685" x2="44.1519" y2="134.44" gradientUnits="userSpaceOnUse">
<stop stop-color="#FFC400"/>
<stop offset="1" stop-color="#FF9100"/>
</linearGradient>
</defs>
</svg>
