<svg width="80" height="80" viewBox="0 0 80 80" fill="none" xmlns="http://www.w3.org/2000/svg">
<path d="M77.8764 27.4543L52.5442 2.12242C51.1767 0.755078 49.3531 0.00195312 47.4091 0.00195312C45.4652 0.00195312 43.6414 0.754766 42.2739 2.12211L2.12047 42.2757C0.753125 43.6432 0 45.4666 0 47.4107C0 49.3548 0.753125 51.1785 2.12047 52.5457L5.24422 55.6695C5.24453 55.6696 5.24469 55.6699 5.245 55.6702C5.24531 55.6705 5.24563 55.6709 5.24594 55.6712L26.2397 76.6649H23.3328C22.4125 76.6649 21.6663 77.411 21.6663 78.3315C21.6663 79.2518 22.4125 79.998 23.3328 79.998H32.5811C32.5833 79.998 32.5853 79.9982 32.5875 79.9982C32.5897 79.9982 32.5917 79.998 32.5939 79.998L56.6647 79.9984C57.585 79.9984 58.3313 79.2521 58.3313 78.3318C58.3313 77.4113 57.585 76.6652 56.6647 76.6652L38.9359 76.6649L77.8766 37.7243C80.7078 34.8927 80.7078 30.2855 77.8764 27.4543ZM75.5195 35.3674L35.3658 75.5212C34.6294 76.2574 33.645 76.6634 32.5936 76.6649H32.5809C31.5298 76.6632 30.5458 76.2574 29.8097 75.5212L8.78047 54.4918L47.3422 15.9298C47.993 15.279 47.993 14.2237 47.3422 13.5729C46.6913 12.9221 45.6363 12.9221 44.9852 13.573L6.42344 52.1351L4.47719 50.1888C3.73953 49.4512 3.33328 48.4646 3.33328 47.4109C3.33328 46.3571 3.73953 45.3704 4.47734 44.6326L44.6308 4.47914C45.3686 3.74148 46.3553 3.33523 47.4091 3.33523C48.4628 3.33523 49.4495 3.74148 50.1874 4.4793L59.2034 13.4952L20.6413 52.0577C19.9905 52.7084 19.9905 53.7637 20.6413 54.4148C20.9667 54.7401 21.3933 54.9027 21.8197 54.9027C22.2461 54.9027 22.6727 54.7399 22.9981 54.4146L61.5603 15.8523L75.5195 29.811C77.0513 31.3429 77.0511 33.8355 75.5195 35.3674Z" fill="url(#paint0_linear)"/>
<path d="M41.0623 48.1345C40.4116 47.4837 39.3566 47.4839 38.7053 48.1345L25.5906 61.249C24.9398 61.8998 24.9398 62.955 25.5906 63.6061C25.9161 63.9315 26.3427 64.0942 26.7691 64.0942C27.1955 64.0942 27.622 63.9314 27.9475 63.6061L41.0622 50.4915C41.7131 49.8404 41.7131 48.7853 41.0623 48.1345Z" fill="url(#paint1_linear)"/>
<path d="M35.6834 60.5839L30.3045 65.9628C29.6537 66.6136 29.6537 67.6689 30.3045 68.3198C30.63 68.6451 31.0565 68.808 31.4829 68.808C31.9097 68.808 32.3359 68.6451 32.6614 68.3198L38.0403 62.9409C38.6911 62.2902 38.6911 61.2348 38.0403 60.5839C37.3895 59.933 36.3347 59.933 35.6834 60.5839Z" fill="url(#paint2_linear)"/>
<path d="M40.6337 55.6345L39.9267 56.3414C39.2758 56.9921 39.2758 58.0473 39.9265 58.6984C40.2519 59.0239 40.6786 59.1867 41.105 59.1867C41.5314 59.1867 41.9579 59.0239 42.2833 58.6984L42.9903 57.9915C43.6412 57.3407 43.6412 56.2856 42.9904 55.6346C42.34 54.9839 41.2845 54.9837 40.6337 55.6345Z" fill="url(#paint3_linear)"/>
<path d="M63.6046 25.5936C63.2921 25.2811 62.8682 25.1055 62.4261 25.1055C61.9841 25.1055 61.5604 25.2811 61.2477 25.5936L54.1766 32.6645C53.8641 32.9772 53.6885 33.4009 53.6885 33.843C53.6885 34.285 53.8641 34.7089 54.1766 35.0214L58.8907 39.735C59.2161 40.0605 59.6427 40.2231 60.0691 40.2231C60.4958 40.2231 60.9221 40.0603 61.2475 39.735L68.3183 32.6644C68.9691 32.0136 68.9691 30.9583 68.3183 30.3075L63.6046 25.5936ZM60.069 36.1998L57.7119 33.843L62.426 29.1291L64.7829 31.4861L60.069 36.1998Z" fill="url(#paint4_linear)"/>
<path d="M50.0533 12.5288C50.48 12.5288 50.9066 12.366 51.2319 12.0404L51.9389 11.333C52.5896 10.6821 52.5894 9.62676 51.9385 8.97613C51.2877 8.32551 50.2322 8.32566 49.5816 8.9766L48.8746 9.68395C48.2239 10.3349 48.2241 11.3902 48.875 12.0408C49.2005 12.3663 49.6268 12.5288 50.0533 12.5288Z" fill="url(#paint5_linear)"/>
<path d="M16.7518 55.9472L16.0447 56.6542C15.3939 57.3048 15.3939 58.3601 16.0447 59.0112C16.3702 59.3366 16.7968 59.4992 17.2232 59.4992C17.6496 59.4992 18.0761 59.3366 18.4016 59.0112L19.1086 58.3042C19.7594 57.6533 19.7594 56.598 19.1086 55.9472C18.4577 55.2963 17.4027 55.2963 16.7518 55.9472Z" fill="url(#paint6_linear)"/>
<defs>
<linearGradient id="paint0_linear" x1="60.771" y1="9.41227" x2="-0.406742" y2="33.4756" gradientUnits="userSpaceOnUse">
<stop stop-color="#FF803B"/>
<stop offset="1" stop-color="#FF9100"/>
</linearGradient>
<linearGradient id="paint1_linear" x1="37.597" y1="49.5813" x2="25.0188" y2="54.5285" gradientUnits="userSpaceOnUse">
<stop stop-color="#FF803B"/>
<stop offset="1" stop-color="#FF9100"/>
</linearGradient>
<linearGradient id="paint2_linear" x1="36.4343" y1="61.1206" x2="29.772" y2="63.7409" gradientUnits="userSpaceOnUse">
<stop stop-color="#FF803B"/>
<stop offset="1" stop-color="#FF9100"/>
</linearGradient>
<linearGradient id="paint3_linear" x1="42.5074" y1="55.6217" x2="39.4179" y2="56.8369" gradientUnits="userSpaceOnUse">
<stop stop-color="#FF803B"/>
<stop offset="1" stop-color="#FF9100"/>
</linearGradient>
<linearGradient id="paint4_linear" x1="65.1726" y1="26.8838" x2="53.6115" y2="31.4311" gradientUnits="userSpaceOnUse">
<stop stop-color="#FF803B"/>
<stop offset="1" stop-color="#FF9100"/>
</linearGradient>
<linearGradient id="paint5_linear" x1="51.4557" y1="8.96358" x2="48.366" y2="10.1787" gradientUnits="userSpaceOnUse">
<stop stop-color="#FF803B"/>
<stop offset="1" stop-color="#FF9100"/>
</linearGradient>
<linearGradient id="paint6_linear" x1="18.6256" y1="55.9343" x2="15.536" y2="57.1494" gradientUnits="userSpaceOnUse">
<stop stop-color="#FF803B"/>
<stop offset="1" stop-color="#FF9100"/>
</linearGradient>
</defs>
</svg>
