<svg width="35" height="28" viewBox="0 0 35 28" fill="none" xmlns="http://www.w3.org/2000/svg">
<path fill-rule="evenodd" clip-rule="evenodd" d="M33.7863 17.4686V17.9746H33.7018V17.4686H33.5479V17.3656H33.9403V17.4686H33.7863ZM34.5479 17.3646V17.9746H34.4633V17.5136L34.3335 17.9116H34.2452L34.1154 17.5146V17.9746H34.0301V17.3646H34.1509L34.289 17.7836L34.4279 17.3646H34.5479Z" fill="#0099DF"/>
<path d="M22.2736 19.4102H13.0107V2.76367H22.2736V19.4102Z" fill="#6C6BBD"/>
<path d="M13.5988 11.087C13.5988 7.71017 15.1798 4.70219 17.6419 2.76373C15.8415 1.34623 13.5692 0.500174 11.0996 0.500174C5.25329 0.500174 0.51416 5.23998 0.51416 11.087C0.51416 16.934 5.25329 21.6738 11.0996 21.6738C13.5692 21.6738 15.8415 20.8278 17.6419 19.4103C15.1798 17.4718 13.5988 14.4638 13.5988 11.087Z" fill="#EB001B"/>
<path d="M34.7706 11.087C34.7706 16.934 30.0314 21.6738 24.1851 21.6738C21.7156 21.6738 19.4432 20.8278 17.6421 19.4103C20.1049 17.4718 21.6859 14.4638 21.6859 11.087C21.6859 7.71017 20.1049 4.70219 17.6421 2.76373C19.4432 1.34623 21.7156 0.500174 24.1851 0.500174C30.0314 0.500174 34.7706 5.23998 34.7706 11.087Z" fill="#0099DF"/>
<path fill-rule="evenodd" clip-rule="evenodd" d="M27.6429 24.115C27.861 24.115 28.0629 24.1527 28.2487 24.2287C28.4345 24.3041 28.5953 24.4084 28.7306 24.541C28.8666 24.6736 28.9722 24.8305 29.049 25.0108C29.1257 25.1919 29.1641 25.3884 29.1641 25.6005C29.1641 25.8125 29.1257 26.009 29.049 26.1901C28.9722 26.3705 28.8666 26.528 28.7306 26.6606C28.5953 26.7931 28.4345 26.8968 28.2487 26.9729C28.0629 27.0482 27.861 27.0859 27.6429 27.0859C27.4248 27.0859 27.2229 27.0482 27.0371 26.9729C26.8514 26.8968 26.6919 26.7931 26.5572 26.6606C26.4226 26.528 26.317 26.3705 26.2402 26.1901C26.1635 26.009 26.1251 25.8125 26.1251 25.6005C26.1251 25.3884 26.1635 25.1919 26.2402 25.0108C26.317 24.8305 26.4226 24.6736 26.5572 24.541C26.6919 24.4084 26.8514 24.3041 27.0371 24.2287C27.2229 24.1527 27.4248 24.115 27.6429 24.115ZM22.1479 24.7443L23.1474 24.7443V24.1856L22.1479 24.1856V23.3329H21.5307V24.1856H20.9599V24.7443H21.5307V26.0258C21.5307 26.6787 21.7831 27.0671 22.5067 27.0671C22.7712 27.0671 23.0768 26.9843 23.2706 26.849L23.0943 26.326C22.9125 26.4317 22.7126 26.4849 22.5538 26.4849C22.2475 26.4849 22.1479 26.2964 22.1479 26.0144V24.7443ZM25.8431 24.1917C25.7078 24.1385 25.5308 24.115 25.4076 24.115C25.0549 24.115 24.8254 24.2799 24.6666 24.5269V24.1856H24.0608V26.9964H24.6726V25.4201C24.6726 24.9556 24.8725 24.6972 25.2723 24.6972C25.3962 24.6972 25.5254 24.7147 25.6546 24.7679L25.8431 24.1917ZM15.3202 25.344C15.3855 24.9381 15.6319 24.6615 16.0673 24.6615C16.4611 24.6615 16.7142 24.9085 16.7788 25.344H15.3202ZM16.0788 24.115C16.867 24.115 17.4081 24.7147 17.4142 25.591C17.4142 25.6725 17.4082 25.748 17.4022 25.8241L17.402 25.8259H15.3148C15.403 26.3314 15.7618 26.5138 16.1555 26.5138C16.4375 26.5138 16.7377 26.4081 16.9726 26.2197L17.2728 26.6727C16.9316 26.9607 16.5439 27.0664 16.1205 27.0664C15.2792 27.0664 14.6795 26.4842 14.6795 25.591C14.6795 24.7147 15.2556 24.115 16.0788 24.115ZM20.1011 24.9031C19.9308 24.7968 19.5842 24.6615 19.2254 24.6615C18.8902 24.6615 18.6903 24.7854 18.6903 24.9913C18.6903 25.1791 18.9017 25.2323 19.1662 25.2673L19.4543 25.3083C20.0661 25.3972 20.4363 25.6556 20.4363 26.1497C20.4363 26.6848 19.9658 27.0671 19.1547 27.0671C18.6957 27.0671 18.2723 26.9493 17.9371 26.7023L18.2252 26.2257C18.4312 26.3846 18.7374 26.5199 19.1608 26.5199C19.5781 26.5199 19.8016 26.3967 19.8016 26.1786C19.8016 26.0205 19.6427 25.9316 19.3075 25.8852L19.0195 25.8441C18.3901 25.7553 18.0489 25.4732 18.0489 25.0149C18.0489 24.4562 18.5079 24.115 19.2194 24.115C19.6663 24.115 20.0721 24.2153 20.3656 24.4091L20.1011 24.9031ZM27.2922 24.7618C27.4006 24.7181 27.517 24.6958 27.6429 24.6958C27.7688 24.6958 27.8859 24.7181 27.9936 24.7618C28.102 24.8062 28.1962 24.8681 28.2749 24.9476C28.355 25.027 28.417 25.1226 28.4627 25.2336C28.5078 25.3447 28.53 25.4672 28.53 25.6005C28.53 25.7344 28.5078 25.8562 28.4627 25.9673C28.417 26.0783 28.355 26.1739 28.2749 26.2533C28.1962 26.3328 28.102 26.3947 27.9936 26.4391C27.8859 26.4835 27.7688 26.5051 27.6429 26.5051C27.517 26.5051 27.4006 26.4835 27.2922 26.4391C27.1845 26.3947 27.091 26.3328 27.0122 26.2533C26.9335 26.1739 26.8716 26.0783 26.8265 25.9673C26.7814 25.8562 26.7592 25.7344 26.7592 25.6005C26.7592 25.4672 26.7814 25.3447 26.8265 25.2336C26.8716 25.1226 26.9335 25.027 27.0122 24.9476C27.091 24.8681 27.1845 24.8062 27.2922 24.7618ZM12.6003 24.6911C12.0713 24.6911 11.7475 25.097 11.7475 25.591C11.7475 26.0851 12.0713 26.4903 12.6003 26.4903C13.1058 26.4903 13.447 26.1026 13.447 25.591C13.447 25.0795 13.1058 24.6911 12.6003 24.6911ZM14.0232 25.591V24.1856H13.412V24.5269C13.2175 24.2738 12.9241 24.115 12.5243 24.115C11.7361 24.115 11.1189 24.7322 11.1189 25.591C11.1189 26.4492 11.7361 27.0671 12.5243 27.0671C12.9241 27.0671 13.2175 26.9082 13.412 26.6552V26.9964H14.0232V25.591ZM10.5777 25.2323V26.9964H9.96051V25.4322C9.96051 24.9556 9.76061 24.6911 9.34262 24.6911C8.93743 24.6911 8.65474 24.9503 8.65474 25.4382V26.9964H8.03753V25.4322C8.03753 24.9556 7.83157 24.6911 7.4257 24.6911C7.00839 24.6911 6.73782 24.9503 6.73782 25.4382V26.9964H6.12061V24.1856H6.73176V24.5323C6.96128 24.2031 7.25541 24.115 7.55493 24.115C7.98436 24.115 8.29061 24.3034 8.48445 24.6151C8.74291 24.2206 9.11378 24.1089 9.47253 24.115C10.1544 24.121 10.5777 24.568 10.5777 25.2323Z" fill="#231F20"/>
<path fill-rule="evenodd" clip-rule="evenodd" d="M30.2028 26.3495C30.1518 26.3275 30.0978 26.3165 30.0388 26.3165C29.9788 26.3165 29.9238 26.3275 29.8718 26.3495C29.8198 26.3705 29.7748 26.4005 29.7368 26.4385C29.6988 26.4755 29.6688 26.5195 29.6468 26.5705C29.6248 26.6205 29.6138 26.6745 29.6138 26.7315C29.6138 26.7885 29.6248 26.8425 29.6468 26.8925C29.6688 26.9425 29.6988 26.9865 29.7368 27.0235C29.7748 27.0615 29.8198 27.0915 29.8718 27.1135C29.9238 27.1355 29.9788 27.1465 30.0388 27.1465C30.0978 27.1465 30.1518 27.1355 30.2028 27.1135C30.2548 27.0915 30.2988 27.0615 30.3378 27.0235C30.3758 26.9865 30.4058 26.9425 30.4278 26.8925C30.4498 26.8425 30.4608 26.7885 30.4608 26.7315C30.4608 26.6745 30.4498 26.6205 30.4278 26.5705C30.4058 26.5195 30.3758 26.4755 30.3378 26.4385C30.2988 26.4005 30.2548 26.3705 30.2028 26.3495ZM30.0388 27.0545C30.0838 27.0545 30.1258 27.0465 30.1638 27.0295C30.2028 27.0125 30.2368 26.9895 30.2658 26.9605C30.2948 26.9315 30.3178 26.8975 30.3348 26.8575C30.3508 26.8185 30.3598 26.7765 30.3598 26.7315C30.3598 26.6865 30.3508 26.6445 30.3348 26.6055C30.3178 26.5665 30.2948 26.5315 30.2658 26.5025C30.2368 26.4735 30.2028 26.4505 30.1638 26.4345C30.1258 26.4175 30.0838 26.4095 30.0388 26.4095C29.9938 26.4095 29.9508 26.4175 29.9118 26.4345C29.8718 26.4505 29.8368 26.4735 29.8078 26.5025C29.7788 26.5315 29.7558 26.5665 29.7398 26.6055C29.7228 26.6445 29.7148 26.6865 29.7148 26.7315C29.7148 26.7765 29.7228 26.8185 29.7398 26.8575C29.7558 26.8975 29.7788 26.9315 29.8078 26.9605C29.8368 26.9895 29.8718 27.0125 29.9118 27.0295C29.9508 27.0465 29.9938 27.0545 30.0388 27.0545ZM30.1778 26.5705C30.1508 26.5485 30.1128 26.5375 30.0638 26.5375H29.8858V26.9225H29.9678V26.7785H30.0058L30.1228 26.9225H30.2208L30.0948 26.7775C30.1338 26.7725 30.1648 26.7595 30.1858 26.7395C30.2078 26.7185 30.2178 26.6925 30.2178 26.6605C30.2178 26.6225 30.2048 26.5925 30.1778 26.5705ZM29.9678 26.7125V26.6095H30.0628C30.0838 26.6095 30.1018 26.6135 30.1138 26.6225C30.1268 26.6305 30.1338 26.6435 30.1338 26.6605C30.1338 26.6775 30.1268 26.6915 30.1138 26.6995C30.1018 26.7075 30.0838 26.7125 30.0628 26.7125H29.9678Z" fill="#231F20"/>
</svg>
