<svg width="36" height="28" viewBox="0 0 36 28" fill="none" xmlns="http://www.w3.org/2000/svg">
<path fill-rule="evenodd" clip-rule="evenodd" d="M34.373 27.1327C34.338 27.1176 34.3017 27.1101 34.262 27.1101C34.2216 27.1101 34.1846 27.1176 34.1496 27.1327C34.1146 27.1471 34.0843 27.1677 34.0587 27.1938C34.0331 27.2192 34.013 27.2494 33.9981 27.2844C33.9833 27.3187 33.9759 27.3558 33.9759 27.3949C33.9759 27.434 33.9833 27.4711 33.9981 27.5054C34.013 27.5397 34.0331 27.5699 34.0587 27.596C34.0843 27.6214 34.1146 27.6419 34.1496 27.657C34.1846 27.6721 34.2216 27.6797 34.262 27.6797C34.3017 27.6797 34.338 27.6721 34.373 27.657C34.4074 27.6419 34.437 27.6214 34.4632 27.596C34.4888 27.5699 34.509 27.5397 34.5238 27.5054C34.5386 27.4711 34.546 27.434 34.546 27.3949C34.546 27.3558 34.5386 27.3187 34.5238 27.2844C34.509 27.2494 34.4888 27.2192 34.4632 27.1938C34.437 27.1677 34.4074 27.1471 34.373 27.1327ZM34.262 27.6172C34.2923 27.6172 34.3205 27.6111 34.3461 27.5994C34.3724 27.5877 34.3953 27.5719 34.4148 27.552C34.4343 27.5321 34.4498 27.5088 34.4612 27.4814C34.472 27.4546 34.478 27.4258 34.478 27.3949C34.478 27.364 34.472 27.3352 34.4612 27.3084C34.4498 27.2816 34.4343 27.2576 34.4148 27.2377C34.3953 27.2178 34.3724 27.202 34.3461 27.1904C34.3205 27.1794 34.2923 27.1739 34.262 27.1739C34.2317 27.1739 34.2028 27.1794 34.1765 27.1904C34.1496 27.202 34.126 27.2178 34.1065 27.2377C34.087 27.2576 34.0715 27.2816 34.0607 27.3084C34.0493 27.3352 34.0439 27.364 34.0439 27.3949C34.0439 27.4258 34.0493 27.4546 34.0607 27.4814C34.0715 27.5088 34.087 27.5321 34.1065 27.552C34.126 27.5719 34.1496 27.5877 34.1765 27.5994C34.2028 27.6111 34.2317 27.6172 34.262 27.6172ZM34.3555 27.2844C34.3374 27.2693 34.3118 27.2617 34.2788 27.2617H34.159V27.526H34.2142V27.4271H34.2398L34.3185 27.526H34.3845L34.2997 27.4265C34.3266 27.423 34.3468 27.4141 34.3609 27.4004C34.3757 27.386 34.3825 27.3681 34.3825 27.3462C34.3825 27.3201 34.3737 27.2995 34.3555 27.2844ZM34.2142 27.3818V27.3112H34.2781C34.2923 27.3112 34.3044 27.3139 34.3131 27.3201C34.3212 27.3256 34.3259 27.3345 34.3259 27.3462C34.3259 27.3578 34.3212 27.3674 34.3131 27.3729C34.3044 27.3784 34.2923 27.3818 34.2781 27.3818H34.2142ZM8.03824 26.0923C8.03824 25.5886 8.36199 25.1748 8.89103 25.1748C9.39651 25.1748 9.73776 25.5708 9.73776 26.0923C9.73776 26.6139 9.39651 27.0099 8.89103 27.0099C8.36199 27.0099 8.03824 26.5961 8.03824 26.0923ZM10.3139 24.6594V26.0923V27.5253H9.70276V27.1773C9.50891 27.4354 9.21478 27.5973 8.81497 27.5973C8.0268 27.5973 7.40891 26.968 7.40891 26.0923C7.40891 25.2173 8.0268 24.5873 8.81497 24.5873C9.21478 24.5873 9.50891 24.7493 9.70276 25.0073V24.6594H10.3139ZM30.9666 26.0923C30.9666 25.5886 31.2904 25.1748 31.8194 25.1748C32.3255 25.1748 32.6661 25.5708 32.6661 26.0923C32.6661 26.6139 32.3255 27.0099 31.8194 27.0099C31.2904 27.0099 30.9666 26.5961 30.9666 26.0923ZM33.243 23.5085V26.0923V27.5253H32.6311V27.1773C32.4373 27.4354 32.1431 27.5973 31.7433 27.5973C30.9552 27.5973 30.3373 26.968 30.3373 26.0923C30.3373 25.2173 30.9552 24.5873 31.7433 24.5873C32.1431 24.5873 32.4373 24.7493 32.6311 25.0073V23.5085H33.243ZM17.9002 25.1453C18.2939 25.1453 18.547 25.3971 18.6116 25.8405L17.153 25.8405C17.2183 25.4266 17.4647 25.1453 17.9002 25.1453ZM16.5123 26.0923C16.5123 25.1988 17.0884 24.5873 17.9123 24.5873C18.6998 24.5873 19.2409 25.1988 19.247 26.0923C19.247 26.1761 19.2409 26.2543 19.2349 26.3318L17.1477 26.3318C17.2358 26.8479 17.5946 27.0339 17.9883 27.0339C18.2704 27.0339 18.5705 26.9255 18.8061 26.734L19.1056 27.1959C18.7644 27.4896 18.3767 27.5973 17.9533 27.5973C17.112 27.5973 16.5123 27.0037 16.5123 26.0923ZM25.2919 26.0923C25.2919 25.5886 25.6156 25.1748 26.1447 25.1748C26.6502 25.1748 26.9914 25.5708 26.9914 26.0923C26.9914 26.6139 26.6502 27.0099 26.1447 27.0099C25.6156 27.0099 25.2919 26.5961 25.2919 26.0923ZM27.5676 24.6594V26.0923V27.5253H26.9564V27.1773C26.7619 27.4354 26.4684 27.5973 26.0686 27.5973C25.2805 27.5973 24.6626 26.968 24.6626 26.0923C24.6626 25.2173 25.2805 24.5873 26.0686 24.5873C26.4684 24.5873 26.7619 24.7493 26.9564 25.0073V24.6594H27.5676ZM21.8404 26.0923C21.8404 26.9618 22.434 27.5973 23.34 27.5973C23.7633 27.5973 24.0454 27.5013 24.3509 27.2556L24.0575 26.7518C23.828 26.92 23.587 27.0099 23.3218 27.0099C22.8338 27.0037 22.4751 26.6441 22.4751 26.0923C22.4751 25.5406 22.8338 25.181 23.3218 25.1748C23.587 25.1748 23.828 25.2647 24.0575 25.4328L24.3509 24.9291C24.0454 24.6834 23.7633 24.5873 23.34 24.5873C22.434 24.5873 21.8404 25.2228 21.8404 26.0923ZM28.979 25.0073C29.1379 24.7555 29.3674 24.5873 29.7201 24.5873C29.8439 24.5873 30.0203 24.6114 30.1556 24.6656L29.9671 25.253C29.8379 25.1988 29.7086 25.181 29.5848 25.181C29.185 25.181 28.9851 25.4445 28.9851 25.9187V27.5253H28.3732V24.6594H28.979V25.0073ZM13.3367 24.8872C13.0426 24.6896 12.6374 24.5873 12.1905 24.5873C11.4783 24.5873 11.02 24.9353 11.02 25.5049C11.02 25.9722 11.3612 26.2605 11.9899 26.3504L12.2786 26.3922C12.6138 26.4403 12.772 26.5302 12.772 26.6921C12.772 26.9138 12.5485 27.0401 12.1312 27.0401C11.7079 27.0401 11.4023 26.9021 11.1963 26.7402L10.9082 27.2254C11.2434 27.4772 11.6668 27.5973 12.1252 27.5973C12.9369 27.5973 13.4074 27.2075 13.4074 26.6619C13.4074 26.1582 13.0372 25.8947 12.4254 25.8048L12.1373 25.7622C11.8728 25.7266 11.6607 25.673 11.6607 25.4809C11.6607 25.2709 11.8606 25.1453 12.1958 25.1453C12.5546 25.1453 12.9019 25.2832 13.0722 25.391L13.3367 24.8872ZM20.4821 25.0073C20.6403 24.7555 20.8698 24.5873 21.2225 24.5873C21.3463 24.5873 21.5227 24.6114 21.658 24.6656L21.4695 25.253C21.3403 25.1988 21.211 25.181 21.0872 25.181C20.6874 25.181 20.4875 25.4445 20.4875 25.9187V27.5253H19.8763V24.6594H20.4821V25.0073ZM16.0068 24.6594H15.0073V23.7899H14.3894V24.6594H13.8193V25.229H14.3894V26.5364C14.3894 27.2014 14.6425 27.5973 15.3654 27.5973C15.6305 27.5973 15.9361 27.5136 16.13 27.3757L15.9536 26.8417C15.7712 26.9495 15.5713 27.0037 15.4125 27.0037C15.1069 27.0037 15.0073 26.8116 15.0073 26.524V25.229H16.0068V24.6594ZM6.86843 25.7266V27.5253H6.25055V25.9304C6.25055 25.4445 6.05064 25.1748 5.63334 25.1748C5.22747 25.1748 4.94545 25.439 4.94545 25.9366V27.5253H4.32757V25.9304C4.32757 25.4445 4.12228 25.1748 3.71641 25.1748C3.29843 25.1748 3.02786 25.439 3.02786 25.9366V27.5253H2.41064L2.41064 24.6594H3.02247V25.0128C3.25199 24.6772 3.54545 24.5873 3.84564 24.5873C4.27507 24.5873 4.58064 24.7795 4.77449 25.0972C5.03363 24.6951 5.40382 24.5812 5.76257 24.5873C6.44507 24.5935 6.86843 25.0492 6.86843 25.7266Z" fill="#231F20"/>
<path fill-rule="evenodd" clip-rule="evenodd" d="M34.0934 18.1668V18.8613H33.9648V18.1668H33.7305V18.0254H34.3277V18.1668H34.0934ZM35.2522 18.0241V18.8613H35.1236V18.2286L34.926 18.7749H34.7917L34.5941 18.23V18.8613H34.4643V18.0241H34.6481L34.8583 18.5992L35.0696 18.0241H35.2522Z" fill="#F79410"/>
<path d="M22.3972 19.7893H13.1343V2.81641H22.3972V19.7893Z" fill="#FF5F00"/>
<path d="M13.7218 11.3032C13.7218 7.86021 15.3029 4.79325 17.765 2.81677C15.9645 1.37148 13.6922 0.508833 11.2227 0.508833C5.37634 0.508833 0.637207 5.34158 0.637207 11.3032C0.637207 17.2649 5.37634 22.0977 11.2227 22.0977C13.6922 22.0977 15.9645 21.235 17.765 19.7897C15.3029 17.8132 13.7218 14.7463 13.7218 11.3032Z" fill="#EB001B"/>
<path d="M34.8936 11.3032C34.8936 17.2649 30.1545 22.0977 24.3081 22.0977C21.8386 22.0977 19.5663 21.235 17.7651 19.7897C20.2279 17.8132 21.809 14.7463 21.809 11.3032C21.809 7.86021 20.2279 4.79325 17.7651 2.81677C19.5663 1.37148 21.8386 0.508833 24.3081 0.508833C30.1545 0.508833 34.8936 5.34158 34.8936 11.3032Z" fill="#F79E1B"/>
</svg>
