<svg width="80" height="80" viewBox="0 0 80 80" fill="none" xmlns="http://www.w3.org/2000/svg">
<g clip-path="url(#clip0)">
<path d="M59.4126 59.8931H2.34707V20.1029H11.5895C12.2376 20.1029 12.763 19.5775 12.763 18.9294C12.763 18.2813 12.2376 17.7559 11.5895 17.7559H1.17353C0.525431 17.7559 0 18.2813 0 18.9294V61.0666C0 61.7147 0.525431 62.2402 1.17353 62.2402H11.3806L15.7527 71.6677C16.0217 72.2478 16.7302 72.5081 17.311 72.2385L21.5918 70.2534L34.5692 79.5127C35.0899 79.8842 35.8352 79.7588 36.2062 79.239L48.3349 62.24H59.4129C60.061 62.24 60.5865 61.7146 60.5865 61.0665C60.5861 60.4185 60.0607 59.8931 59.4126 59.8931ZM13.9677 62.2402H33.2924L17.388 69.6158L13.9677 62.2402ZM34.977 76.9206L24.0409 69.1177L38.8715 62.2402H45.4513L34.977 76.9206Z" fill="url(#paint0_linear)"/>
<path d="M78.8257 17.7561H68.6186L64.2467 8.32842C63.978 7.74917 63.2687 7.48833 62.6884 7.75762L58.4076 9.74277L45.4304 0.483423C44.9096 0.112273 44.1644 0.237137 43.7934 0.757248L31.6647 17.7563H16.2829C15.6348 17.7563 15.1094 18.2817 15.1094 18.9298C15.1094 19.5779 15.6348 20.1034 16.2829 20.1034H32.2671C32.2674 20.1034 32.2677 20.1035 32.268 20.1035C32.2685 20.1035 32.2689 20.1034 32.2693 20.1034H67.8657C67.8671 20.1034 67.8685 20.1037 67.8701 20.1037C67.872 20.1037 67.8738 20.1034 67.8757 20.1034H77.652V59.8935H64.1058C63.4576 59.8935 62.9323 60.419 62.9323 61.0671C62.9323 61.7152 63.4576 62.2406 64.1058 62.2406H78.8256C79.4738 62.2406 79.9991 61.7152 79.9991 61.0671V18.9297C79.9993 18.2816 79.474 17.7561 78.8257 17.7561ZM66.0315 17.7561H46.7067L62.6112 10.3805L66.0315 17.7561ZM45.0225 3.07568L55.9585 10.8786L41.1279 17.7563H34.5481L45.0225 3.07568Z" fill="url(#paint1_linear)"/>
<path d="M40 51.2129C46.1759 51.2129 51.2002 46.1885 51.2002 40.0127C51.2002 33.8369 46.1759 28.8125 40 28.8125C33.8243 28.8125 28.7998 33.8368 28.7998 40.0127C28.7998 46.1885 33.8243 51.2129 40 51.2129ZM40 31.1596C44.8816 31.1596 48.8531 35.131 48.8531 40.0127C48.8531 44.8943 44.8816 48.8659 40 48.8659C35.1184 48.8659 31.1469 44.8943 31.1469 40.0127C31.1469 35.1311 35.1184 31.1596 40 31.1596Z" fill="url(#paint2_linear)"/>
<path d="M30.066 56.4887H65.8147C66.463 56.4887 66.9883 55.9633 66.9883 55.3152C66.9883 52.3609 69.9675 49.4613 73.0027 49.4613C73.651 49.4613 74.1762 48.9359 74.1762 48.2878V31.7068C74.1762 31.0587 73.651 30.5333 73.0027 30.5333C69.9675 30.5333 66.9883 27.6337 66.9883 24.6794C66.9883 24.0313 66.463 23.5059 65.8147 23.5059H13.5483C12.9002 23.5059 12.3748 24.0313 12.3748 24.6794C12.3748 27.8146 9.86262 30.5646 6.99873 30.5646C6.35063 30.5646 5.8252 31.09 5.8252 31.7381V48.2562C5.8252 48.9043 6.35063 49.4297 6.99873 49.4297C9.86262 49.4297 12.3748 52.1798 12.3748 55.3149C12.3748 55.963 12.9002 56.4884 13.5483 56.4884H25.3719C26.02 56.4884 26.5454 55.963 26.5454 55.3149C26.5454 54.6668 26.02 54.1414 25.3719 54.1414H14.6345C14.3907 52.4947 13.6444 50.9002 12.5051 49.6384C11.3026 48.3066 9.79503 47.4583 8.17211 47.1817V32.8123C9.79487 32.5357 11.3025 31.6874 12.5051 30.3555C13.6444 29.0939 14.3907 27.4993 14.6345 25.8526H64.7446C65.3365 29.2257 68.3884 32.2125 71.8292 32.7824V47.2114C68.3884 47.7811 65.3365 50.7682 64.7446 54.1412H30.066C29.4179 54.1412 28.8925 54.6666 28.8925 55.3147C28.8925 55.9633 29.4179 56.4887 30.066 56.4887Z" fill="url(#paint3_linear)"/>
</g>
<defs>
<linearGradient id="paint0_linear" x1="46.0238" y1="25.0458" x2="-0.584464" y2="42.968" gradientUnits="userSpaceOnUse">
<stop stop-color="#FF803B"/>
<stop offset="1" stop-color="#FF9100"/>
</linearGradient>
<linearGradient id="paint1_linear" x1="64.4021" y1="7.55945" x2="15.4117" y2="27.7357" gradientUnits="userSpaceOnUse">
<stop stop-color="#FF803B"/>
<stop offset="1" stop-color="#FF9100"/>
</linearGradient>
<linearGradient id="paint2_linear" x1="45.816" y1="31.4476" x2="28.6857" y2="38.1852" gradientUnits="userSpaceOnUse">
<stop stop-color="#FF803B"/>
<stop offset="1" stop-color="#FF9100"/>
</linearGradient>
<linearGradient id="paint3_linear" x1="57.7472" y1="27.3858" x2="21.4831" y2="56.9438" gradientUnits="userSpaceOnUse">
<stop stop-color="#FF803B"/>
<stop offset="1" stop-color="#FF9100"/>
</linearGradient>
<clipPath id="clip0">
<rect width="80" height="80" fill="white"/>
</clipPath>
</defs>
</svg>
