<svg width="60" height="60" viewBox="0 0 60 60" fill="none" xmlns="http://www.w3.org/2000/svg">
<path d="M37.5521 15.4075H1.42969V42.3463C1.42969 42.8361 2.58615 43.7068 3.16438 44.081C17.6202 44.047 46.5317 43.9993 46.5317 44.081V39.2851H31.7358V28.4687H46.5317V23.3667C46.5317 23.3667 47.246 19.5909 44.797 17.1421C42.3481 14.6932 37.5521 15.4075 37.5521 15.4075Z" fill="url(#paint0_linear)"/>
<path d="M36.3276 29.6931C36.4637 29.9992 36.0419 29.8972 35.7154 29.8972C35.3072 31.2237 40.8174 30.4074 42.0419 32.6523C43.14 34.6654 43.6066 36.6999 47.144 36.5299V29.6931H36.3276Z" fill="url(#paint1_linear)"/>
<path d="M52.0419 44.081L50.4093 52.2441L49.3889 53.2645L5.40928 47.9584L4.18479 46.4278L4.59295 44.7952H49.3889L52.0419 44.081Z" fill="url(#paint2_linear)"/>
<path d="M31.9879 39.4965H47.9829C48.5827 39.4965 48.9825 39.0967 48.9825 38.4968V29.4996C48.9825 28.8998 48.5827 28.5 47.9829 28.5H31.9879C31.3881 28.5 30.9883 28.8998 30.9883 29.4996V38.4968C30.9882 39.0965 31.3881 39.4965 31.9879 39.4965ZM32.9876 30.4993H46.9832V37.4971H32.9876V30.4993Z" fill="#474216"/>
<path d="M4.99965 26.5012H12.9972C13.597 26.5012 13.9968 26.1014 13.9968 25.5016C13.9968 24.9018 13.597 24.502 12.9972 24.502H4.99965C4.39984 24.502 4 24.9018 4 25.5016C4 26.1014 4.39984 26.5012 4.99965 26.5012Z" fill="#474216"/>
<path d="M16.9957 26.5012H24.9933C25.5931 26.5012 25.9929 26.1014 25.9929 25.5016C25.9929 24.9018 25.5931 24.502 24.9933 24.502H16.9957C16.3959 24.502 15.9961 24.9018 15.9961 25.5016C15.9961 26.1014 16.3959 26.5012 16.9957 26.5012Z" fill="#474216"/>
<path d="M4.99965 30.4993H17.9955C18.5954 30.4993 18.9952 30.0995 18.9952 29.4996C18.9952 28.8998 18.5954 28.5 17.9955 28.5H4.99965C4.39984 28.5 4 28.8998 4 29.4996C4 30.0995 4.39984 30.4993 4.99965 30.4993Z" fill="#474216"/>
<path d="M24.9909 28.5H21.9918C21.392 28.5 20.9922 28.8998 20.9922 29.4997C20.9922 30.0995 21.392 30.4993 21.9918 30.4993H24.9909C25.5907 30.4993 25.9905 30.0995 25.9905 29.4997C25.9905 28.8998 25.5907 28.5 24.9909 28.5Z" fill="#474216"/>
<path d="M59.0815 16.1045C58.3818 15.2047 57.4821 14.7049 56.3824 14.6049L53.9831 14.3142V11.5058V9.50653C53.9831 7.30725 52.1837 5.50781 49.9844 5.50781H3.99871C1.79944 5.5077 0 7.30713 0 9.50653V11.5059V19.5035V41.4966C0 43.3022 1.21333 44.8375 2.86469 45.3295C2.81432 47.3518 4.34442 49.1074 6.39808 49.2941L52.5836 54.4925C52.6836 54.4925 52.8836 54.4925 52.9835 54.4925C54.9829 54.4925 56.7823 52.9929 56.9822 51.0936L59.9813 19.0036C60.0812 18.0038 59.7813 16.9041 59.0815 16.1045ZM1.99941 12.5056H51.9838V15.1048V18.5037H1.99941V12.5056ZM3.99871 7.50711H49.9843C51.084 7.50711 51.9837 8.40683 51.9837 9.50653V10.5062H1.99941V9.50653C1.99941 8.40683 2.89913 7.50711 3.99871 7.50711ZM1.99941 41.4965V20.503H51.9838V41.4965C51.9838 42.5962 51.0841 43.4959 49.9844 43.4959H4.09876H3.99883C2.89913 43.4959 1.99941 42.5962 1.99941 41.4965ZM57.9818 18.6036L54.9828 50.6936C54.8829 51.7933 53.8831 52.593 52.7835 52.4931L6.69787 47.2947C5.69822 47.1948 4.99836 46.395 4.89843 45.4953H49.9843C52.1836 45.4953 53.983 43.6958 53.983 41.4966V19.5034V16.2044L56.2823 16.4044C56.7822 16.4044 57.282 16.7043 57.5819 17.1041C57.8819 17.5039 58.0819 18.1038 57.9818 18.6036Z" fill="#474216"/>
<defs>
<linearGradient id="paint0_linear" x1="1.42969" y1="15.3105" x2="1.42969" y2="53.2645" gradientUnits="userSpaceOnUse">
<stop stop-color="#FF803B"/>
<stop offset="1" stop-color="#FF9100"/>
</linearGradient>
<linearGradient id="paint1_linear" x1="1.42969" y1="15.3105" x2="1.42969" y2="53.2645" gradientUnits="userSpaceOnUse">
<stop stop-color="#FF803B"/>
<stop offset="1" stop-color="#FF9100"/>
</linearGradient>
<linearGradient id="paint2_linear" x1="1.42969" y1="15.3105" x2="1.42969" y2="53.2645" gradientUnits="userSpaceOnUse">
<stop stop-color="#FF803B"/>
<stop offset="1" stop-color="#FF9100"/>
</linearGradient>
</defs>
</svg>
