<svg width="75" height="75" viewBox="0 0 75 75" fill="none" xmlns="http://www.w3.org/2000/svg">
<g clip-path="url(#clip0)">
<path d="M11.25 45C3.61934 45 0.53833 47.7075 0.411329 47.8229C0.149122 48.0598 -0.000292539 48.3967 4.30028e-07 48.75V71.25C-0.000292539 71.6033 0.149122 71.9402 0.411329 72.1771C0.53833 72.2925 3.61934 75 11.25 75C18.8807 75 21.9617 72.2925 22.0887 72.1771C22.3509 71.9402 22.5003 71.6033 22.5 71.25V48.75C22.5003 48.3967 22.3509 48.0598 22.0887 47.8229C21.9617 47.7075 18.8807 45 11.25 45ZM4.31821 48.5489L4.36231 48.532C4.62407 48.4387 4.91836 48.347 5.22964 48.2575C5.31138 48.2341 5.39854 48.2115 5.48364 48.1885C5.74702 48.1176 6.029 48.05 6.32637 47.9858C6.41206 47.9672 6.49321 47.9477 6.58184 47.93C6.96108 47.854 7.36699 47.7857 7.79971 47.7255C7.88789 47.7133 7.98428 47.7044 8.07495 47.6931C8.43809 47.6478 8.82114 47.6104 9.22149 47.5803C9.3583 47.5701 9.49497 47.5598 9.63618 47.5516C10.148 47.5216 10.6792 47.5002 11.2501 47.5002C11.822 47.5002 12.3538 47.5216 12.8662 47.5516C13.0081 47.56 13.1458 47.5702 13.2833 47.5806C13.6833 47.6108 14.0659 47.6483 14.4286 47.6936C14.5198 47.705 14.6172 47.7141 14.7062 47.7262C15.1384 47.7857 15.5432 47.8548 15.9217 47.9307C16.0134 47.949 16.0972 47.9692 16.1856 47.9884C16.4802 48.0521 16.7597 48.1192 17.0209 48.1897C17.107 48.2128 17.1954 48.2358 17.278 48.2596C17.5876 48.3486 17.88 48.44 18.1406 48.5329C18.1646 48.5416 18.1841 48.55 18.2079 48.5587C18.3877 48.624 18.5423 48.6885 18.6987 48.7532C16.3206 49.6493 13.7906 50.0729 11.2503 50.0005C8.71011 50.0728 6.18018 49.6494 3.802 48.754C3.96606 48.6855 4.12808 48.6174 4.31821 48.5489ZM2.50005 50.9123C5.27344 52.0478 8.25439 52.5886 11.25 52.5C14.2456 52.5886 17.2266 52.0478 20 50.9123V55.6024L19.9652 55.6239C19.856 55.6901 19.7281 55.7637 19.5769 55.8437C19.5524 55.8565 19.5226 55.8708 19.4971 55.8839C19.3582 55.9556 19.1993 56.0314 19.0266 56.1094C18.9804 56.1302 18.9363 56.1507 18.8877 56.1716C18.6813 56.261 18.4523 56.3525 18.2005 56.4438C18.1494 56.4624 18.0924 56.4807 18.0393 56.4993C17.8078 56.5799 17.5569 56.6594 17.2884 56.7369C17.2295 56.7539 17.1746 56.7713 17.1138 56.788C16.8012 56.8742 16.4606 56.9559 16.0988 57.0324C16.0165 57.0498 15.9294 57.0659 15.8446 57.0826C15.497 57.151 15.1298 57.2139 14.7378 57.2685C14.6868 57.2755 14.6404 57.2843 14.5887 57.2911C14.1577 57.3479 13.6926 57.392 13.2078 57.427C13.0937 57.4352 12.9766 57.4421 12.8593 57.4488C12.3488 57.4787 11.8194 57.4999 11.25 57.4999C10.6806 57.4999 10.1512 57.4786 9.64072 57.4487C9.52339 57.4418 9.4065 57.4351 9.29224 57.4269C8.80693 57.3917 8.34141 57.3476 7.91016 57.2908C7.8605 57.2842 7.81597 57.2758 7.76689 57.2691C7.37095 57.2142 7.0002 57.1506 6.64951 57.0814C6.56836 57.0655 6.48501 57.0499 6.4062 57.0334C6.03999 56.9561 5.69517 56.8736 5.3792 56.7863C5.3272 56.7719 5.28003 56.7568 5.22935 56.7423C4.94517 56.6607 4.68032 56.5768 4.43745 56.4917C4.39658 56.4773 4.35264 56.4633 4.31294 56.4489C4.04868 56.3534 3.80874 56.2576 3.59399 56.1643L3.50713 56.1253C3.29927 56.0326 3.10884 55.9418 2.94844 55.8577L2.94478 55.8558C2.77207 55.7653 2.62778 55.6821 2.50825 55.6088L2.4999 55.6037V50.9123H2.50005ZM20 70.6043C19.0307 71.1993 16.3305 72.5001 11.25 72.5001C6.15967 72.5001 3.45952 71.1946 2.50005 70.6056V65.9145C2.55088 65.937 2.61226 65.9599 2.66499 65.9826C2.80942 66.0445 2.95606 66.1063 3.11558 66.1685C3.20273 66.2024 3.29707 66.2355 3.38877 66.2694C3.54331 66.3262 3.70049 66.3823 3.86821 66.4381C3.97573 66.4737 4.08838 66.5083 4.20132 66.5432C4.37007 66.5955 4.54307 66.6463 4.72441 66.6964C4.8501 66.7311 4.97915 66.7646 5.11084 66.798C5.29688 66.8452 5.48936 66.8902 5.6877 66.9341C5.82993 66.9656 5.97275 66.9964 6.12129 67.026C6.32886 67.0673 6.54522 67.1052 6.76538 67.1423C6.92124 67.1685 7.0749 67.195 7.23706 67.2189C7.47349 67.2536 7.72192 67.2831 7.97212 67.3122C8.13516 67.3313 8.29321 67.3519 8.46196 67.3683C8.74614 67.3959 9.046 67.4153 9.34717 67.4345C9.49878 67.4442 9.64263 67.4575 9.79849 67.465C10.2636 67.4871 10.7454 67.5004 11.2499 67.5004C11.7543 67.5004 12.2361 67.4871 12.7014 67.465C12.8574 67.4575 13.0011 67.4442 13.1527 67.4345C13.4539 67.4153 13.7539 67.3957 14.0379 67.3683C14.2068 67.3519 14.3648 67.3313 14.5277 67.3122C14.7778 67.2831 15.0264 67.2538 15.2628 67.2189C15.425 67.195 15.5786 67.1685 15.7345 67.1423C15.9546 67.1052 16.171 67.0674 16.3786 67.026C16.5272 66.9964 16.6701 66.9656 16.8122 66.9341C17.0105 66.8902 17.203 66.8452 17.389 66.798C17.5208 66.7646 17.6498 66.7311 17.7754 66.6964C17.9566 66.6464 18.1298 66.5955 18.2985 66.5432C18.4115 66.5082 18.5243 66.4737 18.6316 66.4381C18.7994 66.3825 18.9565 66.3262 19.1111 66.2694C19.2029 66.2357 19.2971 66.2024 19.3843 66.1685C19.5438 66.1063 19.6904 66.0447 19.8349 65.9826C19.8876 65.9599 19.949 65.9372 19.9998 65.9145L20 70.6043ZM20.0001 63.1025L19.9654 63.1241C19.8561 63.1903 19.7282 63.2638 19.577 63.3438C19.5526 63.3567 19.5227 63.3709 19.4972 63.3841C19.3583 63.4557 19.1994 63.5316 19.0267 63.6095C18.9806 63.6303 18.9365 63.6508 18.8878 63.6718C18.6814 63.7611 18.4525 63.8527 18.2007 63.9439C18.1496 63.9625 18.0926 63.9809 18.0394 63.9995C17.808 64.08 17.557 64.1596 17.2885 64.2371C17.2296 64.2541 17.1747 64.2715 17.1139 64.2882C16.8013 64.3743 16.4607 64.4561 16.0989 64.5325C16.0166 64.5499 15.9296 64.5661 15.8448 64.5828C15.4972 64.6512 15.1299 64.714 14.7379 64.7687C14.687 64.7757 14.6405 64.7845 14.5888 64.7912C14.1579 64.848 13.6928 64.8921 13.2079 64.9271C13.0938 64.9354 12.9768 64.9422 12.8594 64.949C12.3488 64.9787 11.8194 65.0001 11.25 65.0001C10.68 65.0001 10.1502 64.9787 9.63926 64.9488C9.52119 64.9419 9.40313 64.9351 9.28828 64.9269C8.80386 64.8917 8.33936 64.8476 7.90884 64.7908C7.85391 64.7834 7.80425 64.7744 7.7502 64.7667C7.3604 64.7123 6.99448 64.6496 6.64863 64.5814C6.5647 64.5649 6.47827 64.5491 6.39697 64.5318C6.03472 64.4552 5.69399 64.3734 5.3811 64.287C5.31943 64.2699 5.26333 64.2523 5.20356 64.2349C4.93462 64.1571 4.68311 64.0774 4.45166 63.9967C4.40068 63.979 4.34575 63.9612 4.29653 63.9434C4.04356 63.8517 3.81387 63.7598 3.60689 63.67C3.56001 63.6497 3.51694 63.6297 3.47227 63.6098C3.29414 63.5297 3.13008 63.4513 2.98814 63.3778L2.92588 63.3464C2.77163 63.265 2.64243 63.1906 2.53213 63.1236L2.50005 63.1037V58.4143C2.55088 58.4369 2.61226 58.4597 2.66499 58.4824C2.80942 58.5444 2.95606 58.6062 3.11543 58.6683C3.20259 58.7023 3.29692 58.7354 3.38862 58.7692C3.54316 58.8261 3.70034 58.8822 3.86807 58.938C3.97559 58.9736 4.08823 59.0082 4.20117 59.043C4.36992 59.0953 4.54292 59.1461 4.72427 59.1962C4.84995 59.231 4.979 59.2645 5.11069 59.2979C5.29673 59.3451 5.48921 59.39 5.68755 59.434C5.82979 59.4655 5.97261 59.4962 6.12114 59.5258C6.32871 59.5671 6.54507 59.6051 6.76523 59.6421C6.92109 59.6684 7.07476 59.6949 7.23691 59.7187C7.47334 59.7535 7.72178 59.7829 7.97197 59.8121C8.13501 59.8311 8.29307 59.8518 8.46182 59.8682C8.746 59.8957 9.046 59.9152 9.34702 59.9344C9.49863 59.944 9.64248 59.9574 9.79834 59.9648C10.2634 59.987 10.7452 60.0003 11.2497 60.0003C11.7542 60.0003 12.236 59.987 12.7012 59.9648C12.8572 59.9574 13.0009 59.944 13.1525 59.9344C13.4537 59.9152 13.7537 59.8956 14.0377 59.8682C14.2066 59.8518 14.3647 59.8311 14.5276 59.8121C14.7776 59.7829 15.0262 59.7536 15.2626 59.7187C15.4248 59.6949 15.5785 59.6684 15.7343 59.6421C15.9545 59.6051 16.1708 59.5671 16.3784 59.5258C16.5271 59.4962 16.6699 59.4655 16.812 59.434C17.0104 59.39 17.2028 59.3451 17.3889 59.2979C17.5207 59.2645 17.6496 59.231 17.7753 59.1962C17.9565 59.1463 18.1296 59.0953 18.2984 59.043C18.4113 59.008 18.5241 58.9736 18.6315 58.938C18.7992 58.8823 18.9564 58.8261 19.1109 58.7692C19.2028 58.7355 19.297 58.7023 19.3841 58.6683C19.5437 58.6062 19.6903 58.5445 19.8347 58.4824C19.8875 58.4597 19.9488 58.437 19.9997 58.4143V63.1025H20.0001Z" fill="url(#paint0_linear)"/>
<path d="M75.0887 17.8229C74.9617 17.7075 71.8807 15 64.25 15C56.6193 15 53.5383 17.7075 53.4113 17.8229C53.1491 18.0598 52.9997 18.3967 53 18.75V71.25C52.9997 71.6033 53.1491 71.9403 53.4113 72.1771C53.5383 72.2926 56.6193 75 64.25 75C71.8807 75 74.9617 72.2926 75.0887 72.1771C75.3509 71.9403 75.5003 71.6033 75.5 71.25V18.75C75.5003 18.3967 75.3509 18.0598 75.0887 17.8229ZM57.3182 18.5489L57.3623 18.532C57.6241 18.4387 57.9184 18.3469 58.2296 18.2575C58.3114 18.2341 58.3985 18.2115 58.4836 18.1885C58.747 18.1176 59.029 18.05 59.3264 17.9858C59.4121 17.9672 59.4932 17.9477 59.5818 17.93C59.9611 17.854 60.367 17.7857 60.7997 17.7255C60.8879 17.7133 60.9843 17.7044 61.075 17.6931C61.4381 17.6479 61.8212 17.6104 62.2215 17.5803C62.3583 17.5701 62.495 17.5598 62.6362 17.5516C63.148 17.5216 63.6792 17.5002 64.2502 17.5002C64.822 17.5002 65.3538 17.5216 65.8662 17.5516C66.0081 17.56 66.1458 17.5702 66.2834 17.5806C66.6833 17.6108 67.0659 17.6483 67.4286 17.6936C67.5198 17.705 67.6173 17.7141 67.706 17.7262C68.1383 17.7857 68.543 17.8548 68.9216 17.9307C69.0133 17.9492 69.097 17.9692 69.1855 17.9884C69.4801 18.0521 69.7596 18.1192 70.0208 18.1897C70.1069 18.2128 70.1952 18.2358 70.2779 18.2596C70.5875 18.3486 70.8799 18.44 71.1405 18.5329C71.1645 18.5416 71.184 18.5501 71.2077 18.5587C71.3876 18.624 71.5422 18.6885 71.6986 18.7532C69.3206 19.6493 66.7905 20.0729 64.2502 20.0005C61.71 20.0728 59.18 19.6494 56.8019 18.754C56.9661 18.6855 57.1281 18.6174 57.3182 18.5489ZM55.5001 20.9123C58.2736 22.0477 61.2544 22.5886 64.25 22.5C67.2456 22.5886 70.2266 22.0478 73 20.9123V25.6024L72.9653 25.6239C72.856 25.6901 72.7281 25.7637 72.5769 25.8437C72.5525 25.8565 72.5226 25.8708 72.4971 25.8839C72.3582 25.9556 72.1993 26.0315 72.0266 26.1094C71.9804 26.1302 71.9363 26.1507 71.8877 26.1716C71.6813 26.261 71.4524 26.3525 71.2006 26.4438C71.1493 26.4624 71.0925 26.4807 71.0393 26.4993C70.8078 26.5799 70.5569 26.6594 70.2884 26.7369C70.2295 26.7539 70.1746 26.7713 70.1138 26.7882C69.8012 26.8743 69.4606 26.9561 69.0988 27.0325C69.0165 27.05 68.9295 27.0661 68.8446 27.0828C68.497 27.1512 68.1298 27.214 67.7378 27.2687C67.6868 27.2757 67.6404 27.2845 67.5887 27.2912C67.1577 27.3481 66.6926 27.3921 66.2078 27.4272C66.0937 27.4354 65.9766 27.4422 65.8593 27.4491C65.3488 27.4789 64.8194 27.5002 64.25 27.5002C63.6806 27.5002 63.1512 27.4789 62.6407 27.4491C62.5234 27.4422 62.4065 27.4355 62.2922 27.4272C61.8069 27.392 61.3414 27.3479 60.9102 27.2911C60.8605 27.2845 60.816 27.2761 60.7669 27.2694C60.371 27.2145 60.0002 27.1509 59.6495 27.0817C59.5684 27.0658 59.485 27.0504 59.4062 27.0337C59.04 26.9564 58.6952 26.8739 58.3792 26.7866C58.3272 26.7722 58.28 26.7571 58.2294 26.7426C57.9452 26.661 57.6803 26.5771 57.4375 26.492C57.3966 26.4776 57.3526 26.4636 57.3129 26.4492C57.0487 26.3537 56.8087 26.2579 56.594 26.1646L56.5071 26.1256C56.2993 26.0329 56.1088 25.9421 55.9484 25.858L55.9448 25.8561C55.7721 25.7656 55.6278 25.6824 55.5083 25.6091L55.4999 25.6039V20.9123H55.5001ZM55.5001 28.4143C55.5509 28.4369 55.6123 28.4597 55.665 28.4824C55.8094 28.5444 55.9561 28.6062 56.1156 28.6683C56.2027 28.7023 56.2971 28.7354 56.3888 28.7692C56.5433 28.8261 56.7005 28.8822 56.8682 28.938C56.9757 28.9736 57.0884 29.0082 57.2013 29.043C57.3701 29.0953 57.5431 29.1461 57.7244 29.1962C57.8501 29.231 57.9792 29.2645 58.1108 29.2979C58.2969 29.3451 58.4894 29.39 58.6877 29.434C58.8299 29.4655 58.9728 29.4962 59.1213 29.5258C59.3289 29.5671 59.5452 29.6051 59.7654 29.6421C59.9212 29.6684 60.0749 29.6949 60.2371 29.7188C60.4735 29.7535 60.7219 29.7829 60.972 29.8119C61.135 29.831 61.2931 29.8516 61.4618 29.868C61.746 29.8956 62.046 29.915 62.347 29.9342C62.4986 29.9439 62.6425 29.9572 62.7984 29.9647C63.2634 29.987 63.7452 30.0002 64.2499 30.0002C64.7544 30.0002 65.2361 29.9868 65.7014 29.9647C65.8574 29.9572 66.0011 29.9439 66.1527 29.9342C66.4539 29.915 66.7539 29.8954 67.0379 29.868C67.2068 29.8516 67.3649 29.831 67.5278 29.8119C67.7778 29.7828 68.0264 29.7535 68.2627 29.7188C68.4248 29.6949 68.5785 29.6684 68.7343 29.6421C68.9545 29.6051 69.1709 29.5673 69.3784 29.5258C69.5271 29.4962 69.6699 29.4655 69.812 29.434C70.0104 29.39 70.2029 29.3451 70.3889 29.2979C70.5207 29.2645 70.6496 29.231 70.7755 29.1962C70.9567 29.1463 71.1298 29.0953 71.2986 29.043C71.4115 29.008 71.5243 28.9736 71.6317 28.938C71.7994 28.8823 71.9566 28.8261 72.1111 28.7692C72.203 28.7356 72.2971 28.7023 72.3843 28.6683C72.5438 28.6062 72.6905 28.5445 72.8349 28.4824C72.8876 28.4596 72.949 28.4369 72.9998 28.4143V33.1024L72.9651 33.1239C72.8558 33.1901 72.728 33.2637 72.5768 33.3437C72.5523 33.3566 72.5224 33.3708 72.4969 33.3839C72.3581 33.4556 72.1991 33.5315 72.0264 33.6094C71.9803 33.6302 71.9362 33.6507 71.8876 33.6716C71.6812 33.761 71.4522 33.8525 71.2004 33.9438C71.1491 33.9624 71.0923 33.9807 71.0391 33.9993C70.8077 34.0799 70.5568 34.1594 70.2883 34.2369C70.2294 34.2539 70.1744 34.2713 70.1136 34.2882C69.801 34.3743 69.4605 34.4561 69.0986 34.5325C69.0163 34.55 68.9293 34.5661 68.8445 34.5828C68.4969 34.6512 68.1297 34.714 67.7377 34.7687C67.6867 34.7757 67.6403 34.7845 67.5885 34.7912C67.1576 34.8481 66.6925 34.8921 66.2076 34.9272C66.0935 34.9354 65.9765 34.9422 65.8591 34.9491C65.3486 34.9789 64.8193 35.0003 64.2499 35.0003C63.6799 35.0003 63.1501 34.9789 62.6391 34.949C62.5211 34.9421 62.403 34.9352 62.2881 34.927C61.8037 34.8919 61.3392 34.8478 60.9087 34.7909C60.8538 34.7836 60.8041 34.7745 60.7499 34.7669C60.3601 34.7124 59.9942 34.6497 59.6484 34.5816C59.5644 34.565 59.4781 34.5492 59.3967 34.5319C59.0344 34.4553 58.6937 34.3736 58.3808 34.2872C58.3191 34.27 58.263 34.2524 58.2031 34.235C57.9342 34.1572 57.6827 34.0775 57.4512 33.9968C57.4002 33.9791 57.3453 33.9614 57.2961 33.9435C57.0431 33.8518 56.8134 33.76 56.6064 33.6702C56.5596 33.6498 56.5165 33.63 56.4718 33.61C56.2937 33.5298 56.1296 33.4515 55.9877 33.3779L55.9254 33.3466C55.7712 33.2651 55.642 33.1907 55.5317 33.1238L55.4996 33.1039V28.4143H55.5001ZM55.5001 35.9143C55.5509 35.9369 55.6123 35.9597 55.665 35.9824C55.8094 36.0444 55.9561 36.1062 56.1156 36.1683C56.2027 36.2023 56.2971 36.2354 56.3888 36.2692C56.5433 36.3261 56.7005 36.3822 56.8682 36.438C56.9757 36.4736 57.0884 36.5082 57.2013 36.543C57.3701 36.5953 57.5431 36.6462 57.7244 36.6963C57.8501 36.731 57.9792 36.7645 58.1108 36.7979C58.2969 36.8451 58.4894 36.89 58.6877 36.934C58.8299 36.9655 58.9728 36.9963 59.1213 37.0258C59.3289 37.0671 59.5452 37.1051 59.7654 37.1421C59.9212 37.1684 60.0749 37.1949 60.2371 37.2188C60.4735 37.2535 60.7219 37.2829 60.972 37.3119C61.135 37.331 61.2931 37.3516 61.4618 37.368C61.746 37.3956 62.046 37.415 62.347 37.4342C62.4986 37.4439 62.6425 37.4572 62.7984 37.4647C63.2634 37.487 63.7452 37.5002 64.2499 37.5002C64.7544 37.5002 65.2361 37.4868 65.7014 37.4647C65.8574 37.4572 66.0011 37.4439 66.1527 37.4342C66.4539 37.415 66.7539 37.3954 67.0379 37.368C67.2068 37.3516 67.3649 37.331 67.5278 37.3119C67.7778 37.2828 68.0264 37.2535 68.2627 37.2188C68.4248 37.1949 68.5785 37.1684 68.7343 37.1421C68.9545 37.1051 69.1709 37.0673 69.3784 37.0258C69.5271 36.9963 69.6699 36.9655 69.812 36.934C70.0104 36.89 70.2029 36.8451 70.3889 36.7979C70.5207 36.7645 70.6496 36.731 70.7755 36.6963C70.9567 36.6463 71.1298 36.5953 71.2986 36.543C71.4115 36.508 71.5243 36.4736 71.6317 36.438C71.7994 36.3823 71.9566 36.3261 72.1111 36.2692C72.203 36.2356 72.2971 36.2023 72.3843 36.1683C72.5438 36.1062 72.6905 36.0445 72.8349 35.9824C72.8876 35.9596 72.949 35.9369 72.9998 35.9143V40.6024L72.9651 40.6239C72.8558 40.6901 72.728 40.7637 72.5768 40.8437C72.5523 40.8566 72.5224 40.8708 72.4969 40.8839C72.3581 40.9556 72.1991 41.0315 72.0264 41.1094C71.9803 41.1302 71.9362 41.1507 71.8876 41.1716C71.6812 41.261 71.4522 41.3526 71.2004 41.4438C71.1491 41.4624 71.0923 41.4807 71.0391 41.4993C70.8077 41.5799 70.5568 41.6594 70.2883 41.7369C70.2294 41.7539 70.1744 41.7714 70.1136 41.788C69.801 41.8742 69.4605 41.9559 69.0986 42.0324C69.0163 42.0498 68.9293 42.0659 68.8445 42.0826C68.4969 42.151 68.1297 42.2139 67.7377 42.2685C67.6867 42.2756 67.6403 42.2843 67.5885 42.2911C67.1576 42.3479 66.6925 42.392 66.2076 42.427C66.0935 42.4352 65.9765 42.4421 65.8591 42.4488C65.3486 42.4787 64.8193 42.5 64.2499 42.5C63.6799 42.5 63.1501 42.4786 62.6391 42.4487C62.5211 42.4418 62.403 42.4349 62.2881 42.4266C61.8037 42.3914 61.3392 42.3473 60.9087 42.2905C60.8538 42.2832 60.8041 42.2741 60.7499 42.2665C60.3601 42.212 59.9942 42.1493 59.6484 42.0812C59.5644 42.0646 59.4781 42.0488 59.3967 42.0315C59.0344 41.9549 58.6937 41.8732 58.3808 41.7867C58.3191 41.7696 58.263 41.752 58.2031 41.7346C57.9342 41.6568 57.6827 41.5771 57.4512 41.4964C57.4002 41.4787 57.3453 41.4609 57.2961 41.4431C57.0431 41.3514 56.8134 41.2595 56.6064 41.1697C56.5596 41.1494 56.5165 41.1295 56.4718 41.1095C56.2937 41.0294 56.1296 40.951 55.9877 40.8775L55.9254 40.8462C55.7712 40.7647 55.642 40.6903 55.5317 40.6234L55.4996 40.6034V35.9143H55.5001ZM55.5001 43.4143C55.5509 43.4369 55.6123 43.4597 55.665 43.4824C55.8094 43.5444 55.9561 43.6062 56.1156 43.6683C56.2027 43.7023 56.2971 43.7354 56.3888 43.7693C56.5433 43.8261 56.7005 43.8822 56.8682 43.938C56.9757 43.9736 57.0884 44.0082 57.2013 44.043C57.3701 44.0953 57.5431 44.1462 57.7244 44.1963C57.8501 44.231 57.9792 44.2645 58.1108 44.2979C58.2969 44.3451 58.4894 44.3901 58.6877 44.434C58.8299 44.4655 58.9728 44.4963 59.1213 44.5258C59.3289 44.5672 59.5452 44.6051 59.7654 44.6422C59.9212 44.6684 60.0749 44.6949 60.2371 44.7188C60.4735 44.7536 60.7219 44.7829 60.972 44.8121C61.135 44.8311 61.2931 44.8518 61.4618 44.8682C61.746 44.8957 62.046 44.9152 62.347 44.9344C62.4986 44.9441 62.6425 44.9574 62.7984 44.9649C63.2634 44.987 63.7452 45.0003 64.2499 45.0003C64.7544 45.0003 65.2361 44.987 65.7014 44.9649C65.8574 44.9574 66.0011 44.9441 66.1527 44.9344C66.4539 44.9152 66.7539 44.8956 67.0379 44.8682C67.2068 44.8518 67.3649 44.8311 67.5278 44.8121C67.7778 44.7829 68.0264 44.7536 68.2627 44.7188C68.4248 44.6949 68.5785 44.6684 68.7343 44.6422C68.9545 44.6051 69.1709 44.5673 69.3784 44.5258C69.5271 44.4963 69.6699 44.4655 69.812 44.434C70.0104 44.3901 70.2029 44.3451 70.3889 44.2979C70.5207 44.2645 70.6496 44.231 70.7755 44.1963C70.9567 44.1463 71.1298 44.0953 71.2986 44.043C71.4115 44.008 71.5243 43.9736 71.6317 43.938C71.7994 43.8823 71.9566 43.8261 72.1111 43.7693C72.203 43.7356 72.2971 43.7023 72.3843 43.6683C72.5438 43.6062 72.6905 43.5445 72.8349 43.4824C72.8876 43.4597 72.949 43.4369 72.9998 43.4143V48.1024L72.9651 48.1239C72.8558 48.1902 72.728 48.2637 72.5768 48.3437C72.5523 48.3566 72.5224 48.3708 72.4969 48.3839C72.3581 48.4556 72.1991 48.5315 72.0264 48.6094C71.9803 48.6302 71.9362 48.6507 71.8876 48.6716C71.6812 48.761 71.4522 48.8526 71.2004 48.9438C71.1491 48.9624 71.0923 48.9807 71.0391 48.9993C70.8077 49.08 70.5568 49.1594 70.2883 49.2369C70.2294 49.2539 70.1744 49.2714 70.1136 49.2881C69.801 49.3742 69.4605 49.4559 69.0986 49.5324C69.0163 49.5498 68.9293 49.5659 68.8445 49.5826C68.4969 49.651 68.1297 49.7139 67.7377 49.7685C67.6867 49.7756 67.6403 49.7843 67.5885 49.7911C67.1576 49.8479 66.6925 49.892 66.2076 49.927C66.0935 49.9352 65.9765 49.9421 65.8591 49.9488C65.3486 49.9787 64.8193 50 64.2499 50C63.6799 50 63.1501 49.9786 62.6391 49.9487C62.5211 49.9418 62.403 49.9349 62.2881 49.9267C61.8037 49.8916 61.3392 49.8475 60.9087 49.7906C60.8538 49.7833 60.8041 49.7742 60.7499 49.7666C60.3601 49.7121 59.9942 49.6494 59.6484 49.5813C59.5644 49.5648 59.4781 49.5489 59.3967 49.5317C59.0344 49.455 58.6937 49.3733 58.3808 49.2869C58.3191 49.2697 58.263 49.2522 58.2031 49.2347C57.9342 49.1569 57.6827 49.0774 57.4512 48.9965C57.4002 48.9788 57.3453 48.9611 57.2961 48.9432C57.0431 48.8515 56.8134 48.7597 56.6064 48.6699C56.5596 48.6495 56.5165 48.6296 56.4718 48.6097C56.2937 48.5296 56.1296 48.4512 55.9877 48.3777L55.9254 48.3463C55.7712 48.2649 55.642 48.1904 55.5317 48.1235L55.4996 48.1036V43.4143H55.5001ZM55.5001 50.9143C55.5509 50.9369 55.6123 50.9597 55.665 50.9824C55.8094 51.0444 55.9561 51.1062 56.1156 51.1683C56.2027 51.2023 56.2971 51.2354 56.3888 51.2693C56.5433 51.3261 56.7005 51.3822 56.8682 51.438C56.9757 51.4736 57.0884 51.5082 57.2013 51.543C57.3701 51.5953 57.5431 51.6462 57.7244 51.6963C57.8501 51.731 57.9792 51.7645 58.1108 51.7979C58.2969 51.8451 58.4894 51.8901 58.6877 51.934C58.8299 51.9655 58.9728 51.9963 59.1213 52.0258C59.3289 52.0672 59.5452 52.1051 59.7654 52.1422C59.9212 52.1684 60.0749 52.1949 60.2371 52.2188C60.4735 52.2536 60.7219 52.2829 60.972 52.3121C61.135 52.3311 61.2931 52.3518 61.4618 52.3682C61.746 52.3957 62.046 52.4152 62.347 52.4344C62.4986 52.4441 62.6425 52.4574 62.7984 52.4649C63.2634 52.487 63.7452 52.5003 64.2499 52.5003C64.7544 52.5003 65.2361 52.487 65.7014 52.4649C65.8574 52.4574 66.0011 52.4441 66.1527 52.4344C66.4539 52.4152 66.7539 52.3956 67.0379 52.3682C67.2068 52.3518 67.3649 52.3311 67.5278 52.3121C67.7778 52.2829 68.0264 52.2536 68.2627 52.2188C68.4248 52.1949 68.5785 52.1684 68.7343 52.1422C68.9545 52.1051 69.1709 52.0673 69.3784 52.0258C69.5271 51.9963 69.6699 51.9655 69.812 51.934C70.0104 51.8901 70.2029 51.8451 70.3889 51.7979C70.5207 51.7645 70.6496 51.731 70.7755 51.6963C70.9567 51.6463 71.1298 51.5953 71.2986 51.543C71.4115 51.508 71.5243 51.4736 71.6317 51.438C71.7994 51.3823 71.9566 51.3261 72.1111 51.2693C72.203 51.2356 72.2971 51.2023 72.3843 51.1683C72.5438 51.1062 72.6905 51.0445 72.8349 50.9824C72.8876 50.9597 72.949 50.9369 72.9998 50.9143V55.6024L72.9651 55.6239C72.8558 55.6902 72.728 55.7637 72.5768 55.8437C72.5523 55.8566 72.5224 55.8708 72.4969 55.884C72.3581 55.9556 72.1991 56.0315 72.0264 56.1094C71.9803 56.1302 71.9362 56.1507 71.8876 56.1716C71.6812 56.261 71.4522 56.3526 71.2004 56.4438C71.1491 56.4624 71.0923 56.4807 71.0391 56.4993C70.8077 56.5799 70.5568 56.6594 70.2883 56.7369C70.2294 56.7539 70.1744 56.7714 70.1136 56.7881C69.801 56.8742 69.4605 56.9559 69.0986 57.0324C69.0163 57.0498 68.9293 57.0659 68.8445 57.0826C68.4969 57.151 68.1297 57.2139 67.7377 57.2685C67.6867 57.2756 67.6403 57.2843 67.5885 57.2911C67.1576 57.3479 66.6925 57.392 66.2076 57.427C66.0935 57.4352 65.9765 57.4421 65.8591 57.4488C65.3486 57.4787 64.8193 57.5 64.2499 57.5C63.6799 57.5 63.1501 57.4786 62.6391 57.4487C62.5211 57.4418 62.403 57.4349 62.2881 57.4267C61.8037 57.3916 61.3392 57.3475 60.9087 57.2906C60.8538 57.2833 60.8041 57.2742 60.7499 57.2666C60.3601 57.2121 59.9942 57.1494 59.6484 57.0813C59.5644 57.0648 59.4781 57.0489 59.3967 57.0317C59.0344 56.955 58.6937 56.8733 58.3808 56.7869C58.3191 56.7697 58.263 56.7522 58.2031 56.7347C57.9342 56.657 57.6827 56.5774 57.4512 56.4966C57.4002 56.4788 57.3453 56.4611 57.2961 56.4432C57.0431 56.3515 56.8134 56.2597 56.6064 56.1699C56.5596 56.1495 56.5165 56.1296 56.4718 56.1097C56.2937 56.0296 56.1296 55.9512 55.9877 55.8777L55.9254 55.8463C55.7712 55.7649 55.642 55.6904 55.5317 55.6235L55.4996 55.6036V50.9143H55.5001ZM55.5001 58.4143C55.5509 58.4369 55.6123 58.4597 55.665 58.4824C55.8094 58.5444 55.9561 58.6062 56.1156 58.6683C56.2027 58.7023 56.2971 58.7354 56.3888 58.7693C56.5433 58.8261 56.7005 58.8822 56.8682 58.938C56.9757 58.9736 57.0884 59.0082 57.2013 59.043C57.3701 59.0953 57.5431 59.1462 57.7244 59.1963C57.8501 59.231 57.9792 59.2645 58.1108 59.2979C58.2969 59.3451 58.4894 59.3901 58.6877 59.434C58.8299 59.4655 58.9728 59.4963 59.1213 59.5258C59.3289 59.5672 59.5452 59.6051 59.7654 59.6422C59.9212 59.6684 60.0749 59.6949 60.2371 59.7188C60.4735 59.7535 60.7219 59.7829 60.972 59.8121C61.135 59.8311 61.2931 59.8518 61.4618 59.8682C61.746 59.8957 62.046 59.9152 62.347 59.9344C62.4986 59.9441 62.6425 59.9574 62.7984 59.9649C63.2634 59.987 63.7452 60.0003 64.2499 60.0003C64.7544 60.0003 65.2361 59.987 65.7014 59.9649C65.8574 59.9574 66.0011 59.9441 66.1527 59.9344C66.4539 59.9152 66.7539 59.8956 67.0379 59.8682C67.2068 59.8518 67.3649 59.8311 67.5278 59.8121C67.7778 59.7829 68.0264 59.7536 68.2627 59.7188C68.4248 59.6949 68.5785 59.6684 68.7343 59.6422C68.9545 59.6051 69.1709 59.5672 69.3784 59.5258C69.5271 59.4963 69.6699 59.4655 69.812 59.434C70.0104 59.3901 70.2029 59.3451 70.3889 59.2979C70.5207 59.2645 70.6496 59.231 70.7755 59.1963C70.9567 59.1463 71.1298 59.0953 71.2986 59.043C71.4115 59.008 71.5243 58.9736 71.6317 58.938C71.7994 58.8823 71.9566 58.8261 72.1111 58.7693C72.203 58.7356 72.2971 58.7023 72.3843 58.6683C72.5438 58.6062 72.6905 58.5445 72.8349 58.4824C72.8876 58.4597 72.949 58.4369 72.9998 58.4143V63.1024L72.9651 63.1239C72.8558 63.1902 72.728 63.2637 72.5768 63.3437C72.5523 63.3566 72.5224 63.3708 72.4969 63.384C72.3581 63.4556 72.1991 63.5315 72.0264 63.6094C71.9803 63.6302 71.9362 63.6507 71.8876 63.6717C71.6812 63.761 71.4522 63.8526 71.2004 63.9438C71.1491 63.9624 71.0923 63.9807 71.0391 63.9993C70.8077 64.0799 70.5568 64.1594 70.2883 64.2369C70.2294 64.2539 70.1744 64.2714 70.1136 64.2881C69.801 64.3742 69.4605 64.4559 69.0986 64.5324C69.0163 64.5498 68.9293 64.5659 68.8445 64.5826C68.4969 64.651 68.1297 64.7139 67.7377 64.7685C67.6867 64.7756 67.6403 64.7843 67.5885 64.7911C67.1576 64.8479 66.6925 64.892 66.2076 64.927C66.0935 64.9352 65.9765 64.9421 65.8591 64.949C65.3486 64.9789 64.8193 65.0001 64.2499 65.0001C63.6799 65.0001 63.1501 64.9787 62.6391 64.9488C62.5211 64.942 62.403 64.9351 62.2881 64.9269C61.8037 64.8917 61.3392 64.8476 60.9087 64.7908C60.8538 64.7835 60.8041 64.7744 60.7499 64.7668C60.3601 64.7123 59.9942 64.6496 59.6484 64.5815C59.5644 64.5649 59.4781 64.5491 59.3967 64.5318C59.0344 64.4552 58.6937 64.3735 58.3808 64.287C58.3191 64.2699 58.263 64.2523 58.2031 64.2349C57.9342 64.1571 57.6827 64.0774 57.4512 63.9967C57.4002 63.979 57.3453 63.9613 57.2961 63.9434C57.0431 63.8517 56.8134 63.7598 56.6064 63.67C56.5596 63.6497 56.5165 63.6298 56.4718 63.6098C56.2937 63.5297 56.1296 63.4513 55.9877 63.3778L55.9254 63.3465C55.7712 63.265 55.642 63.1906 55.5317 63.1237L55.4996 63.1037V58.4143H55.5001ZM73 70.6043C72.0307 71.1993 69.3305 72.5001 64.25 72.5001C59.1597 72.5001 56.4595 71.1947 55.5001 70.6056V65.9145C55.5509 65.937 55.6123 65.9599 55.665 65.9826C55.8094 66.0446 55.9561 66.1064 56.1156 66.1685C56.2027 66.2025 56.2971 66.2356 56.3888 66.2694C56.5433 66.3262 56.7005 66.3823 56.8682 66.4382C56.9757 66.4738 57.0884 66.5083 57.2013 66.5432C57.3701 66.5955 57.5431 66.6463 57.7244 66.6964C57.8501 66.7311 57.9792 66.7647 58.1108 66.7981C58.2969 66.8452 58.4894 66.8902 58.6877 66.9342C58.8299 66.9656 58.9728 66.9964 59.1213 67.026C59.3289 67.0673 59.5452 67.1052 59.7654 67.1423C59.9212 67.1685 60.0749 67.195 60.2371 67.2189C60.4735 67.2536 60.7219 67.2831 60.972 67.3122C61.135 67.3313 61.2931 67.3519 61.4618 67.3683C61.746 67.3959 62.046 67.4154 62.347 67.4345C62.4986 67.4442 62.6425 67.4575 62.7984 67.465C63.2634 67.4871 63.7452 67.5005 64.2499 67.5005C64.7544 67.5005 65.2361 67.4871 65.7014 67.465C65.8574 67.4575 66.0011 67.4442 66.1527 67.4345C66.4539 67.4154 66.7539 67.3957 67.0379 67.3683C67.2068 67.3519 67.3649 67.3313 67.5278 67.3122C67.7778 67.2831 68.0264 67.2538 68.2627 67.2189C68.4248 67.195 68.5785 67.1685 68.7343 67.1423C68.9545 67.1052 69.1709 67.0675 69.3784 67.026C69.5271 66.9964 69.6699 66.9656 69.812 66.9342C70.0104 66.8902 70.2029 66.8452 70.3889 66.7981C70.5207 66.7647 70.6496 66.7311 70.7755 66.6964C70.9567 66.6465 71.1298 66.5955 71.2986 66.5432C71.4115 66.5082 71.5243 66.4738 71.6317 66.4382C71.7994 66.3825 71.9566 66.3262 72.1111 66.2694C72.203 66.2357 72.2971 66.2025 72.3843 66.1685C72.5438 66.1064 72.6905 66.0447 72.8349 65.9826C72.8876 65.9599 72.949 65.9372 72.9998 65.9145L73 70.6043Z" fill="url(#paint1_linear)"/>
<path d="M37.5 30C29.8693 30 26.7883 32.7075 26.6613 32.8229C26.3991 33.0598 26.2497 33.3967 26.25 33.75V71.25C26.2497 71.6033 26.3991 71.9402 26.6613 72.1771C26.7883 72.2925 29.8693 75 37.5 75C45.1307 75 48.2117 72.2925 48.3387 72.1771C48.6009 71.9402 48.7503 71.6033 48.75 71.25V33.75C48.7503 33.3967 48.6009 33.0598 48.3387 32.8229C48.2117 32.7075 45.1307 30 37.5 30ZM30.5682 33.5489L30.6123 33.532C30.8741 33.4387 31.1684 33.3469 31.4796 33.2575C31.5614 33.2341 31.6485 33.2115 31.7336 33.1885C31.997 33.1176 32.279 33.05 32.5764 32.9858C32.6621 32.9672 32.7432 32.9477 32.8318 32.93C33.2111 32.854 33.617 32.7857 34.0497 32.7255C34.1379 32.7133 34.2343 32.7044 34.325 32.6931C34.6881 32.6479 35.0711 32.6104 35.4715 32.5803C35.6083 32.5701 35.745 32.5598 35.8862 32.5516C36.398 32.5216 36.9292 32.5002 37.5002 32.5002C38.072 32.5002 38.6038 32.5216 39.1162 32.5516C39.2581 32.56 39.3958 32.5702 39.5334 32.5806C39.9333 32.6108 40.3159 32.6483 40.6786 32.6936C40.7698 32.705 40.8672 32.7141 40.956 32.7262C41.3883 32.7857 41.793 32.8548 42.1715 32.9307C42.2632 32.9492 42.347 32.9692 42.4355 32.9884C42.7301 33.0521 43.0096 33.1192 43.2708 33.1897C43.3569 33.2128 43.4452 33.2358 43.5278 33.2596C43.8375 33.3486 44.1299 33.44 44.3905 33.5329C44.4145 33.5416 44.434 33.55 44.4577 33.5587C44.6376 33.624 44.7922 33.6885 44.9486 33.7532C42.5706 34.6493 40.0405 35.0729 37.5002 35.0005C34.96 35.0728 32.43 34.6494 30.0519 33.754C30.2161 33.6855 30.3781 33.6174 30.5682 33.5489ZM28.7501 35.9123C31.5234 37.0478 34.5044 37.5886 37.5 37.5C40.4956 37.5886 43.4766 37.0478 46.25 35.9123V40.6024L46.2152 40.6239C46.106 40.6901 45.9781 40.7637 45.8269 40.8436C45.8025 40.8565 45.7726 40.8708 45.7471 40.8839C45.6082 40.9556 45.4493 41.0314 45.2766 41.1094C45.2304 41.1302 45.1863 41.1507 45.1377 41.1716C44.9313 41.261 44.7024 41.3525 44.4506 41.4438C44.3993 41.4624 44.3424 41.4807 44.2893 41.4993C44.0578 41.5799 43.8069 41.6594 43.5384 41.7369C43.4795 41.7539 43.4246 41.7713 43.3638 41.788C43.0512 41.8742 42.7106 41.9559 42.3488 42.0324C42.2665 42.0498 42.1795 42.0659 42.0946 42.0826C41.747 42.151 41.3798 42.2139 40.9878 42.2685C40.9368 42.2755 40.8904 42.2843 40.8387 42.2911C40.4077 42.3479 39.9426 42.392 39.4578 42.427C39.3437 42.4352 39.2266 42.4421 39.1093 42.4488C38.5988 42.4787 38.0694 42.5 37.5 42.5C36.9306 42.5 36.4012 42.4786 35.8907 42.4487C35.7734 42.4418 35.6565 42.4351 35.5422 42.4267C35.0569 42.3916 34.5914 42.3475 34.1602 42.2906C34.1105 42.284 34.066 42.2757 34.0169 42.2689C33.621 42.214 33.2502 42.1504 32.8995 42.0813C32.8184 42.0653 32.735 42.0498 32.6562 42.0332C32.29 41.9559 31.9452 41.8734 31.6292 41.7861C31.5772 41.7718 31.53 41.7567 31.4794 41.7422C31.1952 41.6606 30.9303 41.5767 30.6875 41.4916C30.6466 41.4772 30.6026 41.4631 30.5629 41.4488C30.2987 41.3533 30.0587 41.2575 29.844 41.1642L29.7571 41.1252C29.5493 41.0325 29.3588 40.9416 29.1984 40.8576L29.1948 40.8557C29.0221 40.7651 28.8778 40.6819 28.7583 40.6087L28.7499 40.6036V35.9123H28.7501ZM46.25 70.6043C45.2807 71.1993 42.5805 72.5001 37.5 72.5001C32.4097 72.5001 29.7095 71.1946 28.7501 70.6056V65.9145C28.8009 65.937 28.8623 65.9599 28.915 65.9826C29.0594 66.0445 29.2061 66.1063 29.3656 66.1685C29.4527 66.2024 29.5471 66.2355 29.6388 66.2694C29.7933 66.3262 29.9505 66.3823 30.1182 66.4381C30.2257 66.4737 30.3384 66.5083 30.4513 66.5432C30.6201 66.5955 30.7931 66.6463 30.9744 66.6964C31.1001 66.7311 31.2292 66.7646 31.361 66.798C31.547 66.8452 31.7395 66.8902 31.9378 66.9341C32.0801 66.9656 32.2229 66.9964 32.3714 67.026C32.579 67.0673 32.7954 67.1052 33.0155 67.1423C33.1714 67.1685 33.3251 67.195 33.4872 67.2189C33.7236 67.2536 33.9721 67.2831 34.2221 67.3122C34.3852 67.3312 34.5432 67.3519 34.712 67.3683C34.9961 67.3959 35.2961 67.4153 35.5972 67.4345C35.7488 67.4442 35.8926 67.4575 36.0485 67.465C36.5136 67.4871 36.9954 67.5004 37.4999 67.5004C38.0044 67.5004 38.4861 67.4871 38.9514 67.465C39.1074 67.4575 39.2511 67.4442 39.4027 67.4345C39.7039 67.4153 40.0039 67.3957 40.2879 67.3683C40.4568 67.3519 40.6149 67.3312 40.7777 67.3122C41.0278 67.2831 41.2764 67.2538 41.5127 67.2189C41.6748 67.195 41.8285 67.1685 41.9843 67.1423C42.2045 67.1052 42.4209 67.0674 42.6284 67.026C42.7771 66.9964 42.9199 66.9656 43.062 66.9341C43.2604 66.8902 43.4528 66.8452 43.6389 66.798C43.7707 66.7646 43.8996 66.7311 44.0253 66.6964C44.2065 66.6464 44.3797 66.5955 44.5484 66.5432C44.6613 66.5082 44.7741 66.4737 44.8815 66.4381C45.0492 66.3825 45.2064 66.3262 45.361 66.2694C45.4528 66.2357 45.547 66.2024 45.6341 66.1685C45.7937 66.1063 45.9403 66.0447 46.0847 65.9826C46.1375 65.9599 46.1988 65.9372 46.2497 65.9145L46.25 70.6043ZM46.2501 63.1025L46.2154 63.1241C46.1061 63.1903 45.9782 63.2638 45.8271 63.3438C45.8026 63.3567 45.7727 63.3709 45.7472 63.3841C45.6084 63.4557 45.4494 63.5316 45.2767 63.6095C45.2306 63.6303 45.1865 63.6508 45.1379 63.6718C44.9315 63.7611 44.7025 63.8527 44.4507 63.9439C44.3994 63.9625 44.3426 63.9809 44.2894 63.9995C44.058 64.08 43.807 64.1596 43.5385 64.2371C43.4796 64.2541 43.4247 64.2715 43.3639 64.2882C43.0513 64.3743 42.7108 64.4561 42.3489 64.5325C42.2666 64.5499 42.1796 64.5661 42.0948 64.5828C41.7472 64.6512 41.3799 64.714 40.9879 64.7687C40.937 64.7757 40.8905 64.7845 40.8388 64.7912C40.4079 64.848 39.9428 64.8921 39.4579 64.9271C39.3438 64.9353 39.2268 64.9422 39.1094 64.9491C38.5989 64.979 38.0695 65.0002 37.5002 65.0002C36.9302 65.0002 36.4003 64.9789 35.8894 64.949C35.7713 64.9421 35.6533 64.9352 35.5384 64.927C35.054 64.8918 34.5895 64.8478 34.159 64.7909C34.1041 64.7836 34.0544 64.7745 34.0002 64.7669C33.6104 64.7124 33.2445 64.6497 32.8986 64.5816C32.8147 64.565 32.7284 64.5492 32.647 64.5319C32.2847 64.4553 31.944 64.3736 31.6311 64.2872C31.5694 64.27 31.5133 64.2524 31.4536 64.235C31.1846 64.1572 30.9331 64.0775 30.7017 63.9968C30.6507 63.9791 30.5958 63.9614 30.5465 63.9435C30.2936 63.8518 30.0639 63.76 29.8569 63.6702C29.81 63.6498 29.7669 63.6299 29.7223 63.61C29.5441 63.5298 29.3801 63.4515 29.2381 63.3779L29.1759 63.3466C29.0216 63.2651 28.8924 63.1907 28.7821 63.1238L28.7501 63.1039V58.4145C28.8009 58.437 28.8623 58.4599 28.915 58.4826C29.0594 58.5445 29.2061 58.6063 29.3656 58.6685C29.4527 58.7024 29.5471 58.7355 29.6388 58.7694C29.7933 58.8262 29.9505 58.8823 30.1182 58.9381C30.2257 58.9737 30.3384 59.0083 30.4513 59.0432C30.6201 59.0955 30.7931 59.1463 30.9744 59.1964C31.1001 59.2311 31.2292 59.2647 31.361 59.298C31.547 59.3452 31.7395 59.3902 31.9378 59.4341C32.0801 59.4656 32.2229 59.4964 32.3714 59.526C32.579 59.5673 32.7954 59.6052 33.0155 59.6423C33.1714 59.6685 33.3251 59.695 33.4872 59.7189C33.7236 59.7536 33.9721 59.7831 34.2221 59.8122C34.3852 59.8312 34.5432 59.8519 34.712 59.8683C34.9961 59.8958 35.2961 59.9153 35.5972 59.9345C35.7488 59.9442 35.8926 59.9575 36.0485 59.965C36.5136 59.9871 36.9954 60.0004 37.4999 60.0004C38.0044 60.0004 38.4861 59.9871 38.9514 59.965C39.1074 59.9575 39.2511 59.9442 39.4027 59.9345C39.7039 59.9153 40.0039 59.8957 40.2879 59.8683C40.4568 59.8519 40.6149 59.8312 40.7777 59.8122C41.0278 59.7831 41.2764 59.7538 41.5127 59.7189C41.6748 59.695 41.8285 59.6685 41.9843 59.6423C42.2045 59.6052 42.4209 59.5673 42.6284 59.526C42.7771 59.4964 42.9199 59.4656 43.062 59.4341C43.2604 59.3902 43.4528 59.3452 43.6389 59.298C43.7707 59.2647 43.8996 59.2311 44.0253 59.1964C44.2065 59.1464 44.3797 59.0955 44.5484 59.0432C44.6613 59.0082 44.7741 58.9737 44.8815 58.9381C45.0492 58.8825 45.2064 58.8262 45.361 58.7694C45.4528 58.7357 45.547 58.7024 45.6341 58.6685C45.7937 58.6063 45.9403 58.5447 46.0847 58.4826C46.1375 58.4599 46.1988 58.4372 46.2497 58.4145V63.1025H46.2501ZM46.2501 55.6025L46.2154 55.6241C46.1061 55.6903 45.9782 55.7638 45.8271 55.8438C45.8026 55.8567 45.7727 55.8709 45.7472 55.8841C45.6084 55.9557 45.4494 56.0316 45.2767 56.1095C45.2306 56.1303 45.1865 56.1508 45.1379 56.1718C44.9315 56.2611 44.7025 56.3527 44.4507 56.4439C44.3994 56.4625 44.3426 56.4809 44.2894 56.4995C44.058 56.58 43.807 56.6596 43.5385 56.7371C43.4796 56.7541 43.4247 56.7715 43.3639 56.7882C43.0513 56.8743 42.7108 56.9561 42.3489 57.0325C42.2666 57.05 42.1796 57.0661 42.0948 57.0828C41.7472 57.1512 41.3799 57.214 40.9879 57.2687C40.937 57.2757 40.8905 57.2845 40.8388 57.2912C40.4079 57.348 39.9428 57.3921 39.4579 57.4271C39.3438 57.4354 39.2268 57.4422 39.1094 57.449C38.5989 57.4787 38.0695 57.5001 37.5002 57.5001C36.9302 57.5001 36.4003 57.4787 35.8894 57.4488C35.7713 57.4419 35.6533 57.4351 35.5384 57.4269C35.054 57.3917 34.5895 57.3476 34.159 57.2908C34.1041 57.2834 34.0544 57.2744 34.0002 57.2667C33.6104 57.2123 33.2445 57.1496 32.8986 57.0814C32.8147 57.0649 32.7284 57.0491 32.647 57.0318C32.2847 56.9552 31.944 56.8734 31.6311 56.787C31.5694 56.7699 31.5133 56.7523 31.4536 56.7349C31.1846 56.6571 30.9331 56.5775 30.7017 56.4967C30.6507 56.479 30.5958 56.4612 30.5465 56.4434C30.2936 56.3517 30.0639 56.2598 29.8569 56.17C29.81 56.1497 29.7669 56.1297 29.7223 56.1098C29.5441 56.0297 29.3801 55.9513 29.2381 55.8778L29.1759 55.8464C29.0216 55.765 28.8924 55.6906 28.7821 55.6236L28.7501 55.6037V50.9143C28.8009 50.9369 28.8623 50.9597 28.915 50.9824C29.0594 51.0444 29.2061 51.1062 29.3654 51.1683C29.4526 51.2023 29.5469 51.2354 29.6386 51.2692C29.7932 51.3261 29.9503 51.3822 30.1181 51.438C30.2256 51.4736 30.3382 51.5082 30.4512 51.543C30.6199 51.5953 30.7929 51.6461 30.9743 51.6962C31.1 51.731 31.229 51.7645 31.3607 51.7979C31.5467 51.8451 31.7392 51.89 31.9376 51.934C32.0798 51.9655 32.2226 51.9962 32.3711 52.0258C32.5787 52.0671 32.7951 52.1051 33.0152 52.1421C33.1711 52.1684 33.3248 52.1949 33.4869 52.2188C33.7233 52.2536 33.9718 52.2829 34.2218 52.3121C34.3849 52.3311 34.5429 52.3518 34.7117 52.3682C34.9959 52.3957 35.2959 52.4152 35.5969 52.4344C35.7485 52.444 35.8923 52.4574 36.0482 52.4648C36.5134 52.487 36.9952 52.5003 37.4997 52.5003C38.0042 52.5003 38.486 52.487 38.9512 52.4648C39.1072 52.4574 39.2509 52.444 39.4025 52.4344C39.7037 52.4152 40.0037 52.3956 40.2878 52.3682C40.4567 52.3518 40.6147 52.3311 40.7776 52.3121C41.0276 52.2829 41.2762 52.2536 41.5125 52.2188C41.6747 52.1949 41.8283 52.1684 41.9842 52.1421C42.2044 52.1051 42.4207 52.0673 42.6283 52.0258C42.777 51.9962 42.9198 51.9655 43.0619 51.934C43.2602 51.89 43.4527 51.8451 43.6387 51.7979C43.7706 51.7645 43.8995 51.731 44.0252 51.6962C44.2064 51.6463 44.3795 51.5953 44.5483 51.543C44.6612 51.508 44.774 51.4736 44.8814 51.438C45.0491 51.3823 45.2063 51.3261 45.3608 51.2692C45.4526 51.2355 45.5468 51.2023 45.634 51.1683C45.7935 51.1062 45.9401 51.0445 46.0846 50.9824C46.1373 50.9597 46.1987 50.937 46.2495 50.9143V55.6025H46.2501ZM46.2501 48.1025L46.2154 48.1241C46.1061 48.1903 45.9782 48.2638 45.8271 48.3438C45.8026 48.3567 45.7727 48.3709 45.7472 48.3841C45.6084 48.4557 45.4494 48.5316 45.2767 48.6095C45.2306 48.6303 45.1865 48.6508 45.1379 48.6718C44.9315 48.7611 44.7025 48.8527 44.4507 48.9439C44.3994 48.9625 44.3426 48.9809 44.2894 48.9995C44.058 49.08 43.807 49.1596 43.5385 49.2371C43.4796 49.2541 43.4247 49.2715 43.3639 49.2882C43.0513 49.3743 42.7108 49.4561 42.3489 49.5325C42.2666 49.5499 42.1796 49.5661 42.0948 49.5828C41.7472 49.6512 41.3799 49.714 40.9879 49.7687C40.937 49.7757 40.8905 49.7845 40.8388 49.7912C40.4079 49.848 39.9428 49.8921 39.4579 49.9271C39.3438 49.9354 39.2268 49.9422 39.1094 49.949C38.5989 49.9787 38.0695 50.0001 37.5002 50.0001C36.9302 50.0001 36.4003 49.9787 35.8894 49.9488C35.7713 49.9419 35.6533 49.9351 35.5384 49.9269C35.054 49.8917 34.5895 49.8476 34.159 49.7908C34.1041 49.7834 34.0544 49.7744 34.0002 49.7667C33.6104 49.7123 33.2445 49.6496 32.8986 49.5814C32.8147 49.5649 32.7284 49.5491 32.647 49.5318C32.2847 49.4552 31.944 49.3734 31.6311 49.287C31.5694 49.2699 31.5133 49.2523 31.4536 49.2349C31.1846 49.1571 30.9331 49.0775 30.7017 48.9967C30.6507 48.979 30.5958 48.9612 30.5465 48.9434C30.2936 48.8517 30.0639 48.7598 29.8569 48.67C29.81 48.6497 29.7669 48.6297 29.7223 48.6098C29.5441 48.5297 29.3801 48.4513 29.2381 48.3778L29.1759 48.3464C29.0216 48.265 28.8924 48.1906 28.7821 48.1236L28.7501 48.1037V43.4143C28.8009 43.4369 28.8623 43.4597 28.915 43.4824C29.0594 43.5444 29.2061 43.6062 29.3654 43.6683C29.4526 43.7023 29.5469 43.7354 29.6386 43.7692C29.7932 43.8261 29.9503 43.8822 30.1181 43.938C30.2256 43.9736 30.3382 44.0082 30.4512 44.043C30.6199 44.0953 30.7929 44.1461 30.9743 44.1962C31.1 44.231 31.229 44.2645 31.3607 44.2979C31.5467 44.3451 31.7392 44.39 31.9376 44.434C32.0798 44.4655 32.2226 44.4962 32.3711 44.5258C32.5787 44.5671 32.7951 44.6051 33.0152 44.6421C33.1711 44.6684 33.3248 44.6949 33.4869 44.7187C33.7233 44.7536 33.9718 44.7829 34.2218 44.8121C34.3849 44.8311 34.5429 44.8518 34.7117 44.8682C34.9959 44.8957 35.2959 44.9152 35.5969 44.9344C35.7485 44.944 35.8923 44.9574 36.0482 44.9648C36.5134 44.987 36.9952 45.0003 37.4997 45.0003C38.0042 45.0003 38.486 44.987 38.9512 44.9648C39.1072 44.9574 39.2509 44.944 39.4025 44.9344C39.7037 44.9152 40.0037 44.8956 40.2878 44.8682C40.4567 44.8518 40.6147 44.8311 40.7776 44.8121C41.0276 44.7829 41.2762 44.7536 41.5125 44.7187C41.6747 44.6949 41.8283 44.6684 41.9842 44.6421C42.2044 44.6051 42.4207 44.5673 42.6283 44.5258C42.777 44.4962 42.9198 44.4655 43.0619 44.434C43.2602 44.39 43.4527 44.3451 43.6387 44.2979C43.7706 44.2645 43.8995 44.231 44.0252 44.1962C44.2064 44.1463 44.3795 44.0953 44.5483 44.043C44.6612 44.008 44.774 43.9736 44.8814 43.938C45.0491 43.8823 45.2063 43.8261 45.3608 43.7692C45.4526 43.7355 45.5468 43.7023 45.634 43.6683C45.7935 43.6062 45.9401 43.5445 46.0846 43.4824C46.1373 43.4597 46.1987 43.437 46.2495 43.4143V48.1025H46.2501Z" fill="url(#paint2_linear)"/>
<path d="M11.25 42.5C11.5814 42.5001 11.8995 42.3684 12.134 42.1339C12.3684 41.8995 12.5 41.5815 12.5 41.2499V18.75C12.5008 18.0599 13.0599 17.5006 13.75 17.5H36.25V24.2273L35.559 23.8819C35.1594 23.681 34.6828 23.7088 34.3094 23.9549C33.9358 24.2011 33.7224 24.6281 33.7495 25.0746C33.7766 25.5211 34.0403 25.9191 34.4409 26.1182L36.941 27.3681C36.952 27.3735 36.9647 27.3712 36.9757 27.3763C37.3059 27.5413 37.6945 27.5413 38.0247 27.3763C38.0356 27.3712 38.0484 27.3735 38.0592 27.3681L40.5593 26.1182C40.9599 25.9191 41.2236 25.5211 41.2507 25.0746C41.2778 24.6281 41.0644 24.2011 40.6908 23.9549C40.3173 23.7086 39.8408 23.6808 39.4412 23.8819L38.7502 24.2273V3.75C38.7509 3.05991 39.3102 2.50063 40.0001 2.50005H61.2502C61.9403 2.50078 62.4996 3.05991 62.5001 3.75V9.22734L61.8092 8.88193C61.4096 8.68096 60.9329 8.70879 60.5594 8.95488C60.1858 9.20112 59.9724 9.62813 59.9995 10.0746C60.0266 10.5211 60.2903 10.9191 60.6909 11.1182L63.191 12.3681C63.202 12.3735 63.2147 12.3712 63.2257 12.3763C63.5559 12.5413 63.9445 12.5413 64.2747 12.3763C64.2856 12.3712 64.2984 12.3735 64.3092 12.3681L66.8093 11.1182C67.4251 10.8085 67.674 10.0588 67.3658 9.44224C67.0576 8.82568 66.3084 8.57505 65.6912 8.88179L65.0002 9.2272V3.75C64.998 1.67988 63.3203 0.00219727 61.2502 0H40C37.9299 0.00219727 36.2522 1.67988 36.25 3.75V15H13.75C11.6799 15.0022 10.0022 16.6799 10 18.75V41.25C9.99985 41.5815 10.1315 41.8995 10.3661 42.134C10.6004 42.3684 10.9185 42.5001 11.25 42.5Z" fill="url(#paint3_linear)"/>
</g>
<defs>
<linearGradient id="paint0_linear" x1="17.0919" y1="48.529" x2="-1.18592" y2="53.9207" gradientUnits="userSpaceOnUse">
<stop stop-color="#FF803B"/>
<stop offset="1" stop-color="#FF9100"/>
</linearGradient>
<linearGradient id="paint1_linear" x1="70.0919" y1="22.0581" x2="50.6466" y2="24.9261" gradientUnits="userSpaceOnUse">
<stop stop-color="#FF803B"/>
<stop offset="1" stop-color="#FF9100"/>
</linearGradient>
<linearGradient id="paint2_linear" x1="43.3419" y1="35.2935" x2="24.2134" y2="39.0553" gradientUnits="userSpaceOnUse">
<stop stop-color="#FF803B"/>
<stop offset="1" stop-color="#FF9100"/>
</linearGradient>
<linearGradient id="paint3_linear" x1="53.6777" y1="4.99945" x2="14.1088" y2="26.0547" gradientUnits="userSpaceOnUse">
<stop stop-color="#FF803B"/>
<stop offset="1" stop-color="#FF9100"/>
</linearGradient>
<clipPath id="clip0">
<rect width="75" height="75" fill="white"/>
</clipPath>
</defs>
</svg>
