<svg width="80" height="80" viewBox="0 0 80 80" fill="none" xmlns="http://www.w3.org/2000/svg">
<g clip-path="url(#clip0)">
<path d="M59.559 5.24097C58.811 4.8091 57.8535 5.06566 57.4216 5.81363C56.9898 6.56315 57.2463 7.51909 57.9943 7.95096C58.7422 8.38439 59.6997 8.12783 60.1316 7.37831C60.5635 6.6305 60.3069 5.67441 59.559 5.24097Z" fill="url(#paint0_linear)"/>
<path d="M40.0002 0C39.1365 0 38.4355 0.700933 38.4355 1.56468C38.4355 2.42842 39.1365 3.12936 40.0002 3.12936C40.864 3.12936 41.5649 2.42842 41.5649 1.56468C41.5649 0.700933 40.864 0 40.0002 0Z" fill="url(#paint1_linear)"/>
<path d="M40.0002 41.6191C39.1365 41.6191 38.4355 42.3201 38.4355 43.1838C38.4355 44.0476 39.1365 44.7485 40.0002 44.7485C40.864 44.7485 41.5649 44.0476 41.5649 43.1838C41.5649 42.3202 40.864 41.6191 40.0002 41.6191Z" fill="url(#paint2_linear)"/>
<path d="M22.5799 5.81363C22.148 5.06566 21.1905 4.8091 20.4425 5.24097C19.6946 5.67441 19.438 6.63034 19.8699 7.37831C20.3018 8.12783 21.2592 8.38439 22.0072 7.95096C22.755 7.51909 23.0117 6.563 22.5799 5.81363Z" fill="url(#paint3_linear)"/>
<path d="M40.0002 6.25977C39.1362 6.25977 38.4355 6.96023 38.4355 7.82444V14.0832C38.4355 14.9474 39.1362 15.6478 40.0002 15.6478C40.8643 15.6478 41.5649 14.9474 41.5649 14.0832V7.82429C41.5649 6.96023 40.8643 6.25977 40.0002 6.25977Z" fill="url(#paint4_linear)"/>
<path d="M28.8374 16.6537L25.7082 11.2322C25.276 10.4838 24.3193 10.2267 23.5709 10.6592C22.8224 11.0913 22.5659 12.048 22.9979 12.7966L26.1273 18.2183C26.4173 18.7203 26.943 19.0009 27.484 19.0009C27.7491 19.0009 28.0183 18.9333 28.2646 18.7911C29.0129 18.359 29.2694 17.4022 28.8374 16.6537Z" fill="url(#paint5_linear)"/>
<path d="M56.4287 10.6591C55.6798 10.227 54.7234 10.4835 54.2913 11.2321L51.162 16.6536C50.7299 17.4019 50.9865 18.3588 51.7349 18.7908C51.9813 18.933 52.2502 19.0007 52.5156 19.0007C53.0565 19.0007 53.5823 18.7199 53.8723 18.218L57.0016 12.7965C57.4337 12.048 57.1771 11.091 56.4287 10.6591Z" fill="url(#paint6_linear)"/>
<path d="M72.8578 43.174C72.8577 43.1548 72.8566 43.1357 72.8556 43.1163C72.8547 43.0963 72.8534 43.0763 72.8519 43.0562C72.8508 43.0434 72.8506 43.0304 72.8492 43.0177C72.8473 43.0002 72.8442 42.9827 72.8419 42.9654C72.8391 42.9459 72.8358 42.9263 72.8323 42.9066C72.8297 42.8919 72.828 42.8771 72.8248 42.8626C72.8217 42.848 72.8175 42.8337 72.8141 42.8191C72.8092 42.7991 72.8039 42.7791 72.7983 42.7591C72.7938 42.743 72.7898 42.7266 72.7849 42.7107C72.7812 42.6994 72.7766 42.6884 72.7727 42.6771C72.7653 42.6559 72.7575 42.6348 72.7494 42.6137C72.7428 42.5969 72.7367 42.5801 72.7297 42.5637C72.7259 42.5551 72.7214 42.5466 72.7175 42.538C72.7075 42.516 72.6969 42.4944 72.6859 42.4727C72.6775 42.4562 72.6694 42.4396 72.6603 42.4235C72.6588 42.4207 72.6577 42.4179 72.6561 42.4151L63.2804 25.8295C63.2757 25.8212 63.2697 25.8142 63.2649 25.8061C63.2388 25.7616 63.2104 25.7183 63.1797 25.6766C63.1718 25.6656 63.1641 25.6545 63.156 25.6438C63.1171 25.5933 63.0754 25.5444 63.0302 25.4988C63.0296 25.4981 63.0288 25.4975 63.028 25.4967C62.9852 25.4536 62.9388 25.4134 62.8907 25.3752C62.8787 25.3656 62.8665 25.3567 62.8543 25.3477C62.8155 25.3188 62.7749 25.2916 62.7329 25.2658C62.7193 25.2575 62.706 25.2488 62.6921 25.2409C62.6388 25.2106 62.5838 25.1823 62.526 25.158C62.5254 25.1577 62.5247 25.1573 62.524 25.157C62.5238 25.1569 62.5235 25.1569 62.5233 25.1567C62.4652 25.1323 62.4062 25.113 62.3469 25.0959C62.3304 25.0913 62.3137 25.0877 62.2969 25.0834C62.2504 25.0717 62.2037 25.0623 62.1568 25.055C62.1401 25.0525 62.1237 25.0497 62.1068 25.0477C62.0441 25.04 61.9815 25.0352 61.9191 25.0352C61.919 25.0352 61.9188 25.0352 61.9185 25.0352H61.9182C61.9155 25.0352 61.913 25.0352 61.9104 25.0352H40.0004H39.9963H18.0977C18.0328 25.035 17.968 25.04 17.9028 25.048C17.8877 25.0498 17.8728 25.0525 17.8578 25.0548C17.8105 25.0622 17.7631 25.0717 17.716 25.0836C17.6985 25.088 17.6811 25.092 17.6639 25.097C17.6128 25.1117 17.562 25.1292 17.5117 25.1494C17.5033 25.1528 17.4947 25.1552 17.4863 25.1588C17.4849 25.1594 17.4833 25.1597 17.4819 25.1603C17.4253 25.1844 17.3716 25.2122 17.3195 25.242C17.3064 25.2495 17.2941 25.258 17.2813 25.2658C17.2391 25.2914 17.1985 25.3188 17.1596 25.348C17.1467 25.3575 17.1341 25.3672 17.1214 25.3772C17.078 25.4117 17.0364 25.4483 16.9974 25.4869C16.9922 25.4919 16.9867 25.4964 16.9817 25.5016C16.9369 25.547 16.8952 25.5953 16.8566 25.6456C16.8492 25.6552 16.8427 25.6653 16.8355 25.675C16.8047 25.717 16.776 25.7606 16.7497 25.8055C16.745 25.8136 16.7391 25.8206 16.7344 25.8287L7.36492 42.3799C7.36461 42.3804 7.36445 42.3807 7.36414 42.3812L7.34555 42.4138C7.34398 42.4166 7.34289 42.4196 7.34117 42.4224C7.33148 42.4398 7.32273 42.4576 7.31367 42.4754C7.30242 42.4974 7.29148 42.5194 7.28133 42.5421C7.2782 42.549 7.27476 42.5559 7.27164 42.5627C7.26398 42.5804 7.25742 42.5985 7.25039 42.6166C7.24195 42.6382 7.23383 42.6598 7.22633 42.6818C7.22305 42.6912 7.2193 42.7005 7.21633 42.7099C7.21086 42.7271 7.2068 42.7448 7.2018 42.7623C7.19602 42.7829 7.19023 42.8035 7.18539 42.8246C7.18242 42.8371 7.17883 42.8494 7.17617 42.8619C7.17289 42.8777 7.17086 42.894 7.16805 42.9099C7.16445 42.9302 7.16086 42.9505 7.15805 42.9713C7.15602 42.9866 7.15336 43.0019 7.1518 43.0173C7.15023 43.0313 7.15008 43.0455 7.14883 43.0596C7.14711 43.0804 7.14555 43.101 7.14477 43.1219C7.14414 43.1391 7.1432 43.1563 7.14305 43.1735C7.14305 43.1771 7.14258 43.1807 7.14258 43.1843C7.14258 43.194 7.14383 43.2035 7.14398 43.2132C7.1443 43.2338 7.14508 43.2544 7.14617 43.2752C7.14711 43.2923 7.14805 43.3093 7.14961 43.3263C7.15086 43.3408 7.15258 43.3551 7.1543 43.3694C7.15664 43.3891 7.15945 43.4087 7.16258 43.4283C7.16508 43.4438 7.16742 43.4593 7.17039 43.4746C7.17336 43.4905 7.17648 43.5063 7.18008 43.5221C7.1843 43.541 7.18914 43.5596 7.19398 43.5783C7.19758 43.5923 7.20133 43.6062 7.20523 43.6201C7.21008 43.6368 7.21492 43.6533 7.22023 43.6699C7.22602 43.6877 7.23258 43.7052 7.23898 43.7227C7.24398 43.7363 7.24914 43.7499 7.25445 43.7635C7.26101 43.7798 7.26742 43.796 7.27445 43.8121C7.28148 43.8283 7.2893 43.8443 7.29695 43.8602C7.30398 43.8748 7.31117 43.8891 7.31852 43.9035C7.32648 43.9187 7.3343 43.9338 7.34273 43.9488C7.3507 43.963 7.35898 43.9769 7.36742 43.991C7.3768 44.0066 7.38664 44.0221 7.39664 44.0374C7.40586 44.0516 7.41539 44.0655 7.42508 44.0794C7.43367 44.0916 7.44211 44.1038 7.45117 44.116C7.46273 44.1316 7.47461 44.1468 7.4868 44.1621C7.49789 44.1758 7.50945 44.1891 7.52086 44.2026C7.52742 44.2102 7.53289 44.2183 7.53976 44.226L39.0288 79.4777C39.0674 79.521 39.1086 79.5618 39.1515 79.6C39.1577 79.6055 39.1644 79.6102 39.1707 79.6157C39.2158 79.6549 39.2632 79.691 39.3121 79.7246C39.328 79.7355 39.3443 79.7458 39.3605 79.7561C39.4061 79.7849 39.453 79.8111 39.5011 79.8352C39.5144 79.8418 39.5271 79.8491 39.5405 79.8553C39.6013 79.8833 39.6636 79.9072 39.7277 79.9274C39.743 79.9322 39.7586 79.9357 39.7741 79.9399C39.8255 79.9543 39.8777 79.966 39.9305 79.9752C39.9499 79.9785 39.9691 79.9819 39.9886 79.9846C40.0569 79.9936 40.1255 79.9999 40.1954 79.9999C40.1971 79.9999 40.1986 79.9999 40.2002 79.9999C40.2702 79.9997 40.3391 79.9932 40.4075 79.9838C40.4271 79.9811 40.4461 79.9777 40.4657 79.9743C40.5186 79.9649 40.5711 79.953 40.6227 79.9383C40.6382 79.9339 40.6538 79.9305 40.6691 79.9255C40.7332 79.9052 40.7957 79.8808 40.8566 79.8524C40.8699 79.8461 40.8825 79.8388 40.8957 79.8322C40.9439 79.808 40.991 79.7813 41.0366 79.7521C41.053 79.7416 41.0691 79.7311 41.0852 79.72C41.1336 79.6864 41.1805 79.6503 41.2252 79.6113C41.2319 79.6054 41.2393 79.6002 41.246 79.5943C41.2888 79.5553 41.33 79.5143 41.3688 79.4703L72.467 44.2201C72.4727 44.2137 72.4772 44.2068 72.4827 44.2004C72.493 44.1883 72.5033 44.1762 72.5133 44.1638C72.5267 44.1471 72.5395 44.1302 72.5522 44.113C72.5609 44.1012 72.5695 44.0893 72.578 44.0773C72.5867 44.0648 72.5952 44.0519 72.6036 44.0391C72.6145 44.0224 72.6248 44.0055 72.6352 43.9885C72.6436 43.9744 72.652 43.9607 72.66 43.9465C72.6675 43.9329 72.6745 43.9191 72.6817 43.9052C72.6897 43.8897 72.6973 43.874 72.7048 43.8582C72.7127 43.8419 72.7206 43.8258 72.7278 43.8094C72.7342 43.7947 72.7398 43.7799 72.7458 43.7651C72.7516 43.7505 72.757 43.7358 72.7623 43.721C72.7689 43.703 72.7758 43.6851 72.7817 43.6669C72.7866 43.6519 72.7906 43.6368 72.7952 43.6216C72.7995 43.6066 72.8033 43.5915 72.8072 43.5763C72.812 43.5573 72.8173 43.5383 72.8214 43.519C72.8245 43.5048 72.8272 43.4904 72.8298 43.4758C72.833 43.4591 72.8355 43.4423 72.8381 43.4254C72.8411 43.4057 72.8442 43.3862 72.8466 43.3663C72.8481 43.3535 72.8495 43.3405 72.8506 43.3276C72.8523 43.3088 72.8531 43.2901 72.8542 43.271C72.8553 43.2508 72.8562 43.2307 72.8566 43.2107C72.8567 43.2023 72.8578 43.194 72.8578 43.1855C72.8583 43.181 72.8578 43.1776 72.8578 43.174ZM59.566 28.1639L54.4929 40.2698L43.5286 28.1639H59.566ZM36.4969 28.1639L25.6318 40.2866L20.4633 28.1639H36.4969ZM17.8974 30.1248L22.7984 41.6199H11.3908L17.8974 30.1248ZM12.203 44.7493H24.1323L35.0262 70.2987L12.203 44.7493ZM40.1835 74.4163L27.5342 44.7493H33.7418C34.6059 44.7493 35.3065 44.0488 35.3065 43.1846C35.3065 42.3204 34.6059 41.6199 33.7418 41.6199H28.6393L40.0066 28.9365L51.4939 41.6199H46.2592C45.3952 41.6199 44.6945 42.3204 44.6945 43.1846C44.6945 44.0488 45.3952 44.7493 46.2592 44.7493H52.6159L40.1835 74.4163ZM45.3155 70.2668L56.0089 44.7493H67.8269L45.3155 70.2668ZM57.3199 41.6199L62.1273 30.1484L68.6119 41.6199H57.3199Z" fill="url(#paint7_linear)"/>
</g>
<defs>
<linearGradient id="paint0_linear" x1="59.5891" y1="5.3995" x2="57.1958" y2="6.34054" gradientUnits="userSpaceOnUse">
<stop stop-color="#FF803B"/>
<stop offset="1" stop-color="#FF9100"/>
</linearGradient>
<linearGradient id="paint1_linear" x1="40.8127" y1="0.36812" x2="38.4196" y2="1.30937" gradientUnits="userSpaceOnUse">
<stop stop-color="#FF803B"/>
<stop offset="1" stop-color="#FF9100"/>
</linearGradient>
<linearGradient id="paint2_linear" x1="40.8127" y1="41.9873" x2="38.4196" y2="42.9285" gradientUnits="userSpaceOnUse">
<stop stop-color="#FF803B"/>
<stop offset="1" stop-color="#FF9100"/>
</linearGradient>
<linearGradient id="paint3_linear" x1="22.0374" y1="5.3995" x2="19.644" y2="6.34053" gradientUnits="userSpaceOnUse">
<stop stop-color="#FF803B"/>
<stop offset="1" stop-color="#FF9100"/>
</linearGradient>
<linearGradient id="paint4_linear" x1="40.8127" y1="7.36412" x2="38.0961" y2="7.72029" gradientUnits="userSpaceOnUse">
<stop stop-color="#FF803B"/>
<stop offset="1" stop-color="#FF9100"/>
</linearGradient>
<linearGradient id="paint5_linear" x1="27.5428" y1="11.4552" x2="22.4387" y2="12.9245" gradientUnits="userSpaceOnUse">
<stop stop-color="#FF803B"/>
<stop offset="1" stop-color="#FF9100"/>
</linearGradient>
<linearGradient id="paint6_linear" x1="55.7069" y1="11.4552" x2="50.6028" y2="12.9246" gradientUnits="userSpaceOnUse">
<stop stop-color="#FF803B"/>
<stop offset="1" stop-color="#FF9100"/>
</linearGradient>
<linearGradient id="paint7_linear" x1="57.0625" y1="31.5009" x2="9.54189" y2="53.8473" gradientUnits="userSpaceOnUse">
<stop stop-color="#FF803B"/>
<stop offset="1" stop-color="#FF9100"/>
</linearGradient>
<clipPath id="clip0">
<rect width="80" height="80" fill="white"/>
</clipPath>
</defs>
</svg>
