<svg width="135" height="155" viewBox="0 0 135 155" fill="none" xmlns="http://www.w3.org/2000/svg">
<path fill-rule="evenodd" clip-rule="evenodd" d="M95.6031 96.4641C95.0648 95.2551 95.6079 93.8389 96.8162 93.301C98.0244 92.763 99.4402 93.307 99.9785 94.516C100.517 95.725 99.9737 97.1412 98.7654 97.6791C97.5572 98.217 96.1414 97.6731 95.6031 96.4641Z" fill="#4D4A2F"/>
<path fill-rule="evenodd" clip-rule="evenodd" d="M85.0118 81.507C84.4735 80.2981 85.0166 78.8819 86.2248 78.344C87.4331 77.806 88.8489 78.35 89.3872 79.559C89.9255 80.768 89.3823 82.1841 88.1741 82.7221C86.9659 83.26 85.5501 82.716 85.0118 81.507Z" fill="#4D4A2F"/>
<path fill-rule="evenodd" clip-rule="evenodd" d="M82.9987 75.7626C82.9132 75.8007 82.7545 76.0049 82.7651 76.0574C81.7632 77.3874 81.4388 79.2613 82.1086 80.7944C82.4488 81.5586 83.04 82.2682 83.8439 82.4635C84.588 82.6536 85.3857 82.3747 86.0632 81.9841C87.3814 81.2064 88.4371 79.9543 88.9659 78.5107C89.2151 77.8338 89.3476 77.0818 89.114 76.3846C88.7187 75.238 87.3823 74.6376 86.1686 74.701C85.3981 74.7389 84.6544 74.981 83.9492 75.295L84.3495 74.6843M92.6305 94.3335C93.3288 95.8729 94.9331 96.8882 96.6019 97.0418C96.6338 97.0848 96.8604 97.1047 96.9352 97.0714C97.5076 97.0773 98.0949 96.9875 98.657 96.769L97.933 96.6526C98.6543 96.3315 99.3228 95.9639 99.8779 95.3988C100.724 94.5388 101.175 93.1492 100.586 92.1012C100.241 91.454 99.5823 91.054 98.9001 90.7727C97.4806 90.2156 95.8573 90.1499 94.3943 90.6169C93.6513 90.8459 92.9079 91.2469 92.5407 91.9318C92.1526 92.6705 92.2814 93.5924 92.6305 94.3335ZM19.4235 64.8058C24.3506 61.2091 32.8525 55.6004 41.4857 57.7655C52.3878 60.4974 57.9084 72.4359 61.9337 82.8714C61.9384 82.882 90.9137 69.9686 97.015 67.2522C96.7622 70.8111 95.3477 73.8349 99.1341 79.5644C102.921 85.2939 113.637 79.2707 113.882 78.6405C103.25 106.596 82.3267 129.035 56.5317 141.525C57.2566 143.714 57.9867 145.353 52.2877 151.159C53.6623 149.746 42.9667 131.604 42.0259 129.117C39.0345 121.248 35.8828 113.45 32.6 105.717C29.2267 97.7959 25.6664 89.9576 21.9566 82.1859C20.0659 78.2269 18.1378 74.2846 16.1801 70.3619C15.1985 68.4017 14.2223 66.4391 13.214 64.4908C12.5574 63.2317 8.83806 49.8302 10.6996 45.2117C23.0063 14.7495 50.2652 35.3205 51.5108 43.6108C52.0481 47.1613 54.1692 52.8376 51.1263 54.8028C48.9796 47.8675 40.2743 38.1932 32.9873 38.6779C29.3017 38.9263 24.8572 43.4855 22.4839 46.4319C15.0749 55.63 19.1709 63.7928 19.4235 64.8058Z" fill="url(#paint0_linear)"/>
<path fill-rule="evenodd" clip-rule="evenodd" d="M89.748 117.838C89.748 117.838 98.2865 115.796 99.6474 120.501C101.008 125.205 102.366 125.632 100.762 126.596C99.8182 127.163 98.895 127.024 97.5265 126.136C96.5712 125.515 96.0278 122.86 94.0426 122.946C91.5639 123.052 80.8098 128.353 80.8098 128.353C80.8098 128.353 86.6478 122.79 89.4253 119.801C92.2029 116.811 89.748 117.838 89.748 117.838Z" fill="url(#paint1_linear)"/>
<path fill-rule="evenodd" clip-rule="evenodd" d="M102.557 117.054C101.243 114.778 99.0881 112.438 96.0971 110.015L95.0547 109.171L94.3339 110.302C92.0402 113.9 89.9413 116.661 88.0487 118.58C86.1089 120.546 83.0941 123.374 79.0099 127.058L70.7385 134.519L80.4071 128.988C84.1861 126.826 87.1904 125.304 89.4056 124.426C91.3617 123.65 92.6161 123.433 92.9206 123.592C93.5787 123.936 94.182 124.355 94.8094 124.883C95.0572 125.091 95.3001 125.308 95.6011 125.588C95.6055 125.592 95.6271 125.612 95.6605 125.643C95.8133 125.786 96.2137 126.161 96.343 126.279C98.0205 127.811 99.273 128.234 100.859 127.11C103.669 125.119 104.582 120.561 102.557 117.054ZM87.231 122.733C88.2075 121.801 89.0484 120.978 89.7539 120.263C91.5685 118.424 93.5192 115.915 95.6141 112.732C97.8583 114.67 99.4804 116.514 100.483 118.252C101.898 120.703 101.26 123.889 99.4736 125.155C99.0824 125.432 98.8997 125.371 97.9576 124.51C97.8434 124.406 97.4773 124.063 97.3114 123.908C97.2671 123.867 97.2371 123.839 97.2299 123.832C96.9027 123.528 96.6326 123.287 96.3505 123.049C95.5982 122.416 94.8548 121.9 94.0286 121.468C92.7935 120.823 90.5984 121.249 87.231 122.733Z" fill="#4D4A2F"/>
<path d="M106.821 122.121C106.821 122.121 115.123 121.352 117.76 118.118" stroke="#4D4A2F" stroke-width="2"/>
<path d="M105.856 119.083C105.856 119.083 110.032 116.05 111.055 112.005" stroke="#4D4A2F" stroke-width="2"/>
<path d="M78.9929 88.9566L81.1806 87.9826C81.8333 89.4485 83.4797 89.8778 86.5497 89.0747L89.6426 88.2656L87.843 90.9085C85.6415 94.1416 85.0341 96.6378 85.8336 98.4334L83.6459 99.4074C82.6867 97.2531 82.9997 94.7249 84.4902 91.8412C81.8276 91.9961 79.931 91.0638 78.9929 88.9566Z" fill="#4D4A2F"/>
<path fill-rule="evenodd" clip-rule="evenodd" d="M50.4793 53.7621C41.8795 50.9244 32.1009 51.0696 22.9965 54.8957C22.584 55.0667 22.1709 55.2506 21.7601 55.4398C21.7741 54.9723 21.8993 54.3984 22.137 53.7491L22.1347 53.7439C22.695 52.18 23.7036 50.5683 24.5236 49.3311C26.4482 46.4269 29.0646 44.093 32.0807 42.5858C33.2301 42.0172 34.1546 41.713 34.9988 41.6278C36.609 41.467 38.3849 42.0349 40.5948 43.4206C45.7031 46.6123 48.5767 49.6171 50.4793 53.7621ZM112.333 79.8654C108.593 88.7278 91.4517 125.162 57.2358 140.023L56.1241 140.505L56.5036 141.657C56.5664 142.482 56.5983 144.806 54.0186 148.135C52.1001 142.771 45.3564 130.418 44.6036 128.428C41.7125 120.837 38.5581 112.996 35.2132 105.127C31.1475 95.582 26.733 85.952 21.7126 75.6882C17.7297 67.5406 11.9552 54.2003 12.3702 50.856C12.867 46.8118 13.7854 41.6194 16.4566 37.3274C20.3927 30.9873 28.3194 27.1675 35.7323 28.0376C43.1428 28.9025 49.9353 34.4658 52.2551 41.515C53.3607 44.8963 53.2391 47.8446 51.8505 50.6556C49.2289 46.1357 45.5973 43.424 42.0087 41.1798C39.2744 39.4714 36.9674 38.7798 34.7477 38.9971C33.2052 39.1531 31.8122 39.7733 30.9041 40.2282C27.466 41.9422 24.5005 44.5895 22.3167 47.8809C21.416 49.2361 20.2925 51.0317 19.6443 52.8685C18.8516 55.0792 18.944 56.8263 19.9281 58.0817L20.5797 58.9037L21.5343 58.4534C22.3482 58.0721 23.1833 57.6813 24.0166 57.3293C41.7675 49.8747 62.2385 57.3669 69.6557 74.0263L70.076 74.9703L71.1039 74.7844C74.248 74.206 77.2186 73.0667 80.0944 71.9569C84.2742 70.355 88.5306 68.7254 92.5989 66.7876C94.8989 65.6815 97.1701 64.4681 99.3708 63.1534C99.3381 63.4649 99.3031 63.7712 99.2652 64.085C98.9863 66.5662 98.701 69.1324 98.8262 71.6232C98.9552 73.9228 100.324 76.1697 102.785 78.1197C104.287 79.3275 106.041 79.9875 108.148 80.13C108.691 80.1663 110.666 80.0135 112.333 79.8654ZM53.093 153.425L54.5788 151.645C56.9457 148.822 58.574 144.982 59.0633 142.103C98.4719 124.494 115.45 79.2548 115.616 78.8017L116.333 76.8333L114.246 77.0357C111.703 77.2831 108.788 77.5196 108.327 77.4972C106.769 77.3887 105.532 76.9345 104.444 76.0601C103.147 75.0266 101.576 73.3942 101.471 71.4759C101.356 69.2079 101.631 66.7473 101.9 64.3718C102.04 63.1339 102.175 61.9112 102.261 60.7226L102.449 58.0927L100.227 59.5178C97.4201 61.3236 94.4703 62.9656 91.4547 64.403C87.4893 66.3012 83.283 67.9149 79.2144 69.4673C76.7111 70.4302 74.1866 71.4025 71.6336 71.983C67.6713 63.7821 60.7398 57.7498 52.5451 54.5105L52.8249 54.1269C55.7612 50.0455 56.3989 45.6479 54.7753 40.6899C52.1171 32.5529 44.5863 26.4146 36.0489 25.4133C27.5191 24.4148 18.7355 28.6478 14.2026 35.9424C11.2622 40.6701 10.2722 46.2293 9.73982 50.5358C9.10675 55.6138 17.623 73.3448 19.335 76.8479C24.3336 87.0772 28.7293 96.665 32.7739 106.163C36.1048 114 39.2474 121.814 42.1244 129.374C43.0463 131.8 52.244 151.048 52.315 151.25L53.093 153.425Z" fill="#4D4A2F"/>
<defs>
<linearGradient id="paint0_linear" x1="86.9332" y1="18.9894" x2="71.3373" y2="140.553" gradientUnits="userSpaceOnUse">
<stop stop-color="#FF9100"/>
<stop offset="1" stop-color="#FFC400"/>
</linearGradient>
<linearGradient id="paint1_linear" x1="93.8411" y1="118.818" x2="97.5412" y2="130.301" gradientUnits="userSpaceOnUse">
<stop stop-color="#FFC400"/>
<stop offset="1" stop-color="#FF9100"/>
</linearGradient>
</defs>
</svg>
