<svg width="678" height="480" viewBox="0 0 678 480" fill="none" xmlns="http://www.w3.org/2000/svg">
<path d="M175.36 285.96V301.96H146.56V349H129.6V301.96H8.96V285.96L94.08 125H112.64L27.84 285.96H129.6V215.56H146.56V285.96H175.36Z" fill="#474216"/>
<path d="M673.36 285.96V301.96H644.56V349H627.6V301.96H506.96V285.96L592.08 125H610.64L525.84 285.96H627.6V215.56H644.56V285.96H673.36Z" fill="#474216"/>
<path fill-rule="evenodd" clip-rule="evenodd" d="M379.373 66.9493C379.351 67.1077 379.503 67.5227 379.589 67.5549C380.61 70.2111 383.033 72.377 385.86 72.7926C387.276 72.9905 388.839 72.7751 389.849 71.7858C390.797 70.8788 391.115 69.4696 391.161 68.1336C391.226 65.5182 390.367 62.8542 388.753 60.7813C387.997 59.8075 387.027 58.935 385.805 58.643C383.786 58.1789 381.707 59.5739 380.702 61.3915C380.059 62.5433 379.738 63.8408 379.555 65.1477L379.032 64.0147M414.998 69.7816C417.861 70.1618 420.783 68.7535 422.515 66.4722C422.606 66.4648 422.84 66.1543 422.859 66.0157C423.386 65.1909 423.787 64.2577 423.978 63.2449L423.155 64.1896C423.342 62.853 423.414 61.5508 423.097 60.2346C422.616 58.2293 421.009 56.3189 418.958 56.2239C417.708 56.1398 416.533 56.7325 415.508 57.4674C413.417 59.0222 411.853 61.317 411.207 63.8611C410.867 65.146 410.776 66.5868 411.436 67.7391C412.156 68.9702 413.608 69.6175 414.998 69.7816ZM305.994 149.24C305.238 138.84 304.799 121.435 315.744 110.873C329.564 97.5337 351.859 100.328 370.624 103.932C370.643 103.934 378.134 50.2284 379.715 38.922C384.645 42.5084 387.748 47.2957 399.476 46.9877C411.204 46.6798 412.167 25.6882 411.475 24.7637C442.374 65.4745 455.972 116.121 450.743 164.831C454.571 165.76 457.608 166.184 460.867 179.702C460.062 176.43 424.097 175.529 419.641 174.643C405.532 171.862 391.38 169.378 377.204 167.143C362.672 164.869 348.092 162.941 333.474 161.29C326.026 160.45 318.569 159.68 311.113 158.97C307.384 158.621 303.657 158.261 299.922 157.96C297.503 157.774 274.717 151.043 269.707 144.165C236.689 98.7568 291.156 77.8342 304.297 83.528C309.929 85.961 320.074 88.0201 320.17 94.2112C308.177 91.0501 286.283 94.9229 280.395 105.93C277.422 111.5 280.01 122.07 282.133 128.178C288.763 147.245 304.298 148.69 305.994 149.24Z" fill="#4D4A2F"/>
<path fill-rule="evenodd" clip-rule="evenodd" d="M448.081 108.579C448.081 108.579 454.542 95.0345 462.252 98.2815C469.963 101.528 471.988 100.183 471.546 103.349C471.285 105.214 470.109 106.293 467.458 107.157C465.608 107.76 461.498 105.629 459.478 108.359C456.957 111.768 452.445 131.76 452.445 131.76C452.445 131.76 451.327 118.021 450.341 111.116C449.354 104.212 448.081 108.579 448.081 108.579Z" fill="#4D4A2F"/>
<path fill-rule="evenodd" clip-rule="evenodd" d="M446.128 92.9878C446.128 92.9878 455.399 90.8401 461.652 91.7145C467.905 92.589 471.852 98.0651 471.65 102.455C471.447 106.845 465.955 104.869 459.765 107.686C455.921 109.435 452.703 131.796 452.703 131.796C452.703 131.796 451.696 117.675 450.772 110.582C449.848 103.488 446.128 92.9878 446.128 92.9878Z" stroke="#4D4A2F" stroke-width="2"/>
<path d="M395.155 82.6685C401.017 83.4883 403.831 74.4511 403.831 74.4511C403.831 74.4511 408.258 84.5009 414.509 85.3752" stroke="white" stroke-width="2"/>
<mask id="mask0" mask-type="alpha" maskUnits="userSpaceOnUse" x="250" y="0" width="236" height="182">
<path fill-rule="evenodd" clip-rule="evenodd" d="M485.931 30.0427L271.116 2.80317e-06L250.001 150.981L464.816 181.023L485.931 30.0427Z" fill="white"/>
</mask>
<g mask="url(#mask0)">
<path fill-rule="evenodd" clip-rule="evenodd" d="M318.075 94.2076C306.184 104.113 297.551 118.426 294.862 135.091C294.736 135.844 294.629 136.61 294.532 137.377C293.867 136.934 293.149 136.233 292.423 135.301L292.413 135.299C290.653 133.072 289.23 130.151 288.178 127.842C285.71 122.424 284.694 116.518 285.237 110.78C285.453 108.598 285.848 106.982 286.488 105.681C287.711 103.2 290.14 101.138 294.147 99.1869C303.393 94.666 310.347 93.2168 318.075 94.2076ZM411.848 28.1177C421.31 41.5593 458.61 99.382 449.202 162.45L448.896 164.499L450.908 164.991C452.161 165.646 455.557 167.702 458.048 174.455C448.54 172.385 424.538 170.989 420.972 170.281C407.356 167.606 393.14 165.087 378.711 162.819C361.2 160.08 343.251 157.77 323.835 155.765C308.425 154.17 283.868 150.476 279.397 146.848C273.985 142.469 267.29 136.439 263.486 128.682C257.857 117.238 259.49 102.286 267.456 92.3219C275.411 82.3569 289.618 77.539 301.932 80.5521C307.832 82.0077 311.995 84.8515 314.813 89.4085C305.892 89.1214 298.677 91.935 292.179 95.1091C287.23 97.5291 284.141 100.249 282.449 103.665C281.28 106.043 280.919 108.625 280.757 110.353C280.131 116.89 281.286 123.586 284.081 129.731C285.23 132.263 286.816 135.517 288.892 138.119C291.379 141.269 293.995 142.716 296.704 142.424L298.485 142.223L298.696 140.431C298.879 138.906 299.068 137.341 299.312 135.814C304.562 103.325 333.935 80.4147 364.787 84.7295L366.536 84.974L367.196 83.3151C369.201 78.2319 370.237 72.893 371.229 67.7181C372.688 60.2068 374.176 52.5595 375.047 44.906C375.524 40.5697 375.819 36.178 375.904 31.7969C376.326 32.1261 376.739 32.4539 377.159 32.7929C380.503 35.442 383.964 38.1776 387.687 40.2494C391.136 42.1428 395.631 42.1909 400.683 40.3857C403.792 39.2995 406.334 37.3535 408.446 34.4267C408.99 33.6721 410.555 30.6688 411.848 28.1177ZM464.878 180.584L463.642 176.819C461.691 170.832 457.598 164.996 453.87 161.682C463.991 88.5967 413.782 23.0446 413.276 22.3933L411.071 19.5733L409.477 22.7827C407.536 26.6941 405.242 31.1366 404.793 31.7843C403.226 33.9467 401.449 35.3294 399.198 36.1154C396.527 37.0626 392.74 37.864 389.865 36.281C386.474 34.3959 383.157 31.7705 379.957 29.2315C378.29 27.9077 376.64 26.6061 374.996 25.4055L371.353 22.7547L371.41 27.2656C371.488 32.9705 371.2 38.7342 370.556 44.408C369.72 51.8764 368.255 59.4368 366.825 66.7419C365.956 71.2437 365.082 75.7846 363.615 80.0124C348.145 78.3393 333.134 82.9345 321.028 91.8888L320.725 91.1359C317.466 83.1849 311.669 78.2814 303.015 76.1505C288.818 72.644 273.111 78.0125 263.938 89.4884C254.777 100.956 252.967 117.524 259.44 130.698C263.632 139.24 270.793 145.705 276.553 150.373C283.34 155.886 316.74 159.576 323.365 160.262C342.711 162.267 360.582 164.567 378.005 167.293C392.376 169.554 406.543 172.065 420.101 174.732C424.451 175.59 460.665 179.664 461.022 179.744L464.878 180.584Z" fill="#4D4A2F"/>
</g>
<path fill-rule="evenodd" clip-rule="evenodd" d="M420.773 67.3974C418.534 67.0843 416.973 65.0154 417.286 62.7764C417.599 60.5374 419.668 58.9762 421.907 59.2894C424.146 59.6025 425.708 61.6714 425.394 63.9104C425.081 66.1494 423.012 67.7106 420.773 67.3974Z" fill="#4D4A2F"/>
<path fill-rule="evenodd" clip-rule="evenodd" d="M389.518 69.2262C387.279 68.913 385.717 66.8441 386.031 64.6052C386.344 62.3662 388.413 60.805 390.652 61.1181C392.891 61.4312 394.452 63.5001 394.139 65.7391C393.825 67.9781 391.757 69.5393 389.518 69.2262Z" fill="#4D4A2F"/>
<rect x="227" y="59" width="92" height="123" fill="white"/>
<path d="M152.693 474.115C153.367 471.937 154.296 469.152 170.378 459.142C177.343 455.063 184.532 451.381 191.913 448.114C204.482 442.708 224.122 435.723 246.114 433.178C258.099 431.793 271.215 432.998 283.881 434.158C309.483 436.509 333.663 438.733 350.157 421.745C353.902 417.897 350.906 412.012 345.453 402.744C340.958 395.085 336.329 387.164 338.651 379.782C339.925 375.724 343.146 372.467 348.284 370.116C358.703 365.31 377.744 368.013 399.788 371.142C424.919 374.706 453.398 378.741 463.383 369.248C464.206 368.462 466.079 366.493 465.63 365.213C465.39 364.464 463.383 360.623 447.57 356.693C437.63 354.222 426.507 352.777 420.53 351.998C419.114 351.811 416.342 351.392 416.088 351.354C400.762 349.251 392.98 334.494 393.062 333.214C393.062 332.855 396.702 329.605 400.553 329.411C400.935 329.411 408.418 342.355 421.526 344.212C427.646 345.073 439.068 346.496 449.443 349.078C463.675 352.605 471.165 356.962 473.075 362.779C473.989 365.572 473.982 369.952 468.746 374.93C456.012 387.051 426.837 382.919 398.635 378.913C379.564 376.211 359.842 373.411 351.52 377.244C348.456 378.651 346.681 380.238 346.089 382.133C344.816 386.198 348.561 392.614 352.179 398.776C357.422 407.7 363.909 418.803 355.737 427.226C336.636 446.901 309.424 444.4 283.08 441.982C270.818 440.859 258.129 439.691 246.938 440.986C217.86 444.348 178.812 465.169 164.543 475.635C160.251 478.81 150.611 480.868 152.693 474.115Z" fill="#FF9100"/>
<path d="M210.242 205.002C208.887 218.078 209.49 231.283 212.032 244.181C233.271 291.052 271.461 328.158 318.936 348.053C326.175 349.277 333.504 349.896 340.846 349.902C344.591 349.902 348.336 349.73 352.007 349.423C317.832 339.79 286.771 321.395 261.903 296.062C237.036 270.729 219.227 239.338 210.242 205.002Z" fill="#FF9100"/>
<path d="M340.845 351.287C333.426 351.285 326.02 350.666 318.703 349.438H318.546L318.396 349.378C270.596 329.342 232.145 291.979 210.758 244.787L210.691 244.638L210.654 244.48C208.088 231.446 207.479 218.103 208.848 204.89L209.642 197.179L211.597 204.666C220.545 238.755 238.245 269.919 262.944 295.072C287.643 320.225 318.485 338.495 352.418 348.075L359.909 350.171L352.171 350.823C348.336 351.122 344.538 351.287 340.845 351.287ZM319.325 346.698C326.437 347.881 333.635 348.477 340.845 348.479C341.879 348.479 342.913 348.479 343.954 348.442C312.545 338.222 284.066 320.582 260.931 297.018C237.796 273.454 220.688 244.661 211.058 213.081C210.968 214.952 210.923 216.807 210.923 218.643C210.923 227.07 211.738 235.477 213.358 243.747C234.361 290.239 272.233 327.033 319.325 346.698Z" fill="white"/>
<path d="M330.704 351.452L318.719 349.438C292.187 344.937 267.649 332.489 248.352 313.741C229.054 294.994 215.908 270.831 210.654 244.45L208.31 232.554L213.313 243.589C234.318 290.2 272.271 327.082 319.476 346.757L330.704 351.452ZM216.624 256.676C223.083 277.536 234.673 296.443 250.335 311.666C265.996 326.89 285.228 337.944 306.27 343.815C268.062 324.775 236.73 294.32 216.624 256.676Z" fill="white"/>
<path d="M216.302 176.957C213.26 186.05 211.228 195.45 210.242 204.988C219.227 239.323 237.036 270.714 261.903 296.047C286.771 321.38 317.832 339.775 352.007 349.408C359.595 348.772 367.114 347.477 374.478 345.537C334.112 336.8 297.362 315.993 269.109 285.882C240.856 255.771 222.438 217.78 216.302 176.957Z" fill="#FF9100"/>
<path d="M351.871 350.823L351.632 350.756C317.233 341.04 285.969 322.515 260.933 297.014C235.896 271.513 217.956 239.921 208.886 205.362L208.818 205.115V204.86C209.817 195.22 211.869 185.717 214.938 176.523L216.796 170.983L217.657 176.762C229.964 259.334 293.086 326.611 374.732 344.167L380.455 345.395L374.792 346.892C367.354 348.85 359.76 350.16 352.096 350.808L351.871 350.823ZM211.672 204.898C220.636 238.888 238.303 269.958 262.934 295.049C287.565 320.139 318.31 338.383 352.141 347.985C357.582 347.519 362.989 346.709 368.328 345.56C329.947 336.061 295.134 315.67 268.085 286.844C241.037 258.018 222.907 221.988 215.882 183.096C213.859 190.23 212.451 197.524 211.672 204.898Z" fill="white"/>
<path d="M241.815 132.47C230.464 145.476 221.794 160.594 216.303 176.957C219.092 195.659 224.493 213.877 232.347 231.079C228.713 197.908 231.935 164.345 241.815 132.47Z" fill="#FF9100"/>
<path d="M234.692 239.599L231.074 231.678C223.162 214.356 217.723 196.008 214.917 177.174L214.864 176.845L214.969 176.523C220.506 159.975 229.272 144.689 240.759 131.55L245.133 126.533L243.133 132.89C233.26 164.583 230.057 197.976 233.725 230.967L234.692 239.599ZM217.741 177.099C220.087 192.643 224.251 207.858 230.145 222.432C228.044 194.226 230.883 165.87 238.534 138.64C229.461 150.181 222.428 163.189 217.741 177.099Z" fill="white"/>
<path d="M274.457 105.391C268.48 108.899 262.789 112.874 257.439 117.28C240.327 164.077 237.974 214.992 250.698 263.167C256.768 271.873 263.505 280.096 270.847 287.761C248.383 228.796 249.677 163.421 274.457 105.391Z" fill="#FF9100"/>
<path d="M274.592 293.654L269.821 288.697C262.421 280.997 255.627 272.737 249.499 263.991L249.357 263.789L249.29 263.542C236.497 215.083 238.871 163.87 256.091 116.801L256.226 116.449L256.518 116.202C261.937 111.763 267.698 107.758 273.746 104.223L277.424 102.067L275.746 105.982C250.962 163.633 249.68 228.678 272.173 287.26L274.592 293.654ZM251.971 262.569C256.65 269.238 261.725 275.621 267.169 281.682C247.556 225.451 249.095 164.007 271.499 108.827C267.022 111.655 262.722 114.753 258.623 118.103C241.66 164.442 239.338 214.869 251.971 262.569Z" fill="white"/>
<path d="M212.032 244.181C217.227 270.28 230.231 294.187 249.321 312.735C268.411 331.284 292.688 343.6 318.936 348.053C271.461 328.158 233.271 291.052 212.032 244.181Z" fill="#FF9100"/>
<path d="M257.439 117.28C251.821 121.904 246.594 126.985 241.814 132.47C231.932 164.35 228.71 197.918 232.346 231.094C237.472 242.317 243.607 253.053 250.675 263.167C237.959 214.99 240.32 164.075 257.439 117.28Z" fill="#FF9100"/>
<path d="M254.046 270.43L249.552 263.969C242.434 253.786 236.257 242.978 231.095 231.678L230.998 231.468V231.244C227.278 197.875 230.504 164.099 240.474 132.036L240.563 131.752L240.758 131.527C245.591 125.985 250.872 120.849 256.548 116.172L260.533 112.893L258.758 117.737C241.642 164.243 239.288 214.893 252.016 262.786L254.046 270.43ZM233.717 230.75C237.688 239.411 242.263 247.782 247.41 255.801C237.213 211.352 239.62 164.943 254.361 121.787C250.37 125.355 246.6 129.163 243.073 133.189C233.298 164.715 230.114 197.912 233.717 230.72V230.75Z" fill="white"/>
<path d="M315.401 89.8706C309.435 91.033 303.558 92.6141 297.813 94.6023C263.05 158.405 257.447 232.097 279.836 296.529C283.132 299.553 286.525 302.468 290.016 305.273C277.285 269.854 272.952 231.964 277.357 194.587C281.762 157.21 294.785 121.364 315.401 89.8706Z" fill="#FF9100"/>
<path d="M293.042 309.473L289.162 306.351C285.604 303.491 282.158 300.527 278.915 297.547L278.653 297.307L278.54 296.97C255.612 231.087 262.174 157.065 296.518 93.9435L296.78 93.4718L297.289 93.2921C303.11 91.2764 309.064 89.6679 315.109 88.4781L318.382 87.8342L316.555 90.6268C275.237 153.606 265.814 233.669 291.342 304.786L293.042 309.473ZM281.057 295.72C282.99 297.494 285.005 299.254 287.05 300.998C275.422 266.463 271.661 229.768 276.041 193.593C280.421 157.419 292.833 122.68 312.367 91.9145C307.749 92.9479 303.19 94.2325 298.712 95.7627C265.043 157.993 258.601 230.817 281.072 295.735L281.057 295.72Z" fill="white"/>
<path d="M279.836 296.529C257.447 232.097 263.05 158.405 297.813 94.6023C289.706 97.4152 281.896 101.019 274.496 105.361C249.695 163.395 248.388 228.783 270.848 287.762C273.774 290.756 276.77 293.679 279.836 296.529Z" fill="#FF9100"/>
<path d="M283.019 301.328L278.914 297.584C275.873 294.784 272.825 291.804 269.851 288.72L269.656 288.51L269.551 288.241C246.96 228.945 248.257 163.204 273.169 104.844L273.349 104.418L273.746 104.185C281.227 99.7985 289.119 96.155 297.311 93.3071L300.742 92.1167L299.004 95.2986C265.012 157.723 258.555 230.899 281.184 296.064L283.019 301.328ZM272.076 286.953C273.619 288.555 275.177 290.122 276.75 291.655C256.346 228.234 262.855 157.896 294.817 97.2002C288.158 99.7212 281.719 102.789 275.566 106.372C250.992 163.83 249.74 228.589 272.076 286.953Z" fill="white"/>
<path d="M326.366 88.1936C322.666 88.5979 319.003 89.1594 315.4 89.8706C294.787 121.366 281.768 157.212 277.367 194.59C272.966 231.967 277.303 269.855 290.037 305.273C294.482 308.847 299.071 312.243 303.805 315.463C273.798 242.317 280.524 156.855 326.366 88.1936Z" fill="#FF9100"/>
<path d="M306.869 319.206L303.056 316.601C298.352 313.426 293.686 309.982 289.191 306.366L288.884 306.119L288.749 305.745C275.936 270.125 271.568 232.02 275.988 194.427C280.409 156.834 293.498 120.779 314.225 89.0995L314.547 88.6054L315.131 88.4931C318.771 87.7444 322.502 87.2054 326.217 86.8011L329.213 86.4717L327.543 88.9723C305.552 121.905 292.004 159.74 288.095 199.141C284.185 238.542 290.033 278.3 305.124 314.909L306.869 319.206ZM291.229 304.435C294.352 306.935 297.551 309.354 300.787 311.652C286.747 275.537 281.488 236.607 285.443 198.064C289.398 159.521 302.453 122.467 323.535 89.953C321.093 90.275 318.651 90.7017 316.247 91.136C275.289 153.928 265.941 233.587 291.229 304.427V304.435Z" fill="white"/>
<path d="M308.585 318.555C309.768 319.303 310.959 320.052 312.158 320.801C313.157 320.062 314.123 319.313 315.057 318.555C312.907 318.562 310.75 318.577 308.585 318.555Z" fill="#FF9100"/>
<path d="M312.247 322.463L311.43 321.969C310.374 321.332 309.265 320.643 307.835 319.723L303.67 317.08L308.606 317.132C310.711 317.132 312.838 317.132 315.025 317.132L319.205 317.05L315.924 319.633C314.956 320.396 313.982 321.145 313.003 321.879L312.247 322.463Z" fill="white"/>
<path d="M315.041 318.525C381.744 265.99 409.556 176.044 381.706 93.9211C377.363 92.4986 372.947 91.3065 368.478 90.3499C394.073 170.968 366.59 258.383 301.753 310.222C302.42 311.966 303.101 313.703 303.813 315.463C305.386 316.526 306.981 317.559 308.584 318.577C310.749 318.577 312.906 318.562 315.041 318.525Z" fill="#FF9100"/>
<path d="M310.877 319.955H308.57H308.173L307.836 319.745C305.993 318.57 304.465 317.574 303.027 316.608L302.682 316.376L302.517 315.979C301.873 314.407 301.192 312.685 300.443 310.739L300.061 309.773L300.862 309.136C365.542 257.418 392.178 169.658 367.153 90.7467L366.404 88.4482L368.763 88.9573C373.28 89.9245 377.743 91.1291 382.134 92.566L382.808 92.7831L383.032 93.4494C396.54 133.467 397.339 176.681 385.32 217.17C373.302 257.66 349.053 293.446 315.895 319.625L315.521 319.917H315.049C313.663 319.955 312.248 319.955 310.877 319.955ZM309.004 317.14C310.832 317.14 312.667 317.14 314.555 317.14C347.043 291.368 370.811 256.228 382.631 216.49C394.452 176.752 393.752 134.341 380.628 95.0142C377.317 93.951 373.947 93.0152 370.561 92.2216C382.356 131.18 382.269 172.768 370.313 211.678C358.356 250.588 335.072 285.054 303.431 310.679C303.971 312.071 304.472 313.329 304.929 314.512C306.173 315.336 307.476 316.212 309.004 317.155V317.14Z" fill="white"/>
<path d="M335.879 317.102C342.026 316.379 348.126 315.393 354.178 314.145C409.975 262.396 433.015 182.377 410.858 107.607C405.078 103.953 399.02 100.759 392.739 98.0537C420.394 176.905 396.477 263.325 335.879 317.102Z" fill="#FF9100"/>
<path d="M331.61 319.019L334.944 316.024C364.964 289.517 386.38 254.652 396.446 215.9C406.512 177.148 404.771 136.274 391.444 98.5179L390.388 95.5232L393.324 96.7885C399.67 99.5265 405.793 102.753 411.639 106.439L412.088 106.723L412.238 107.225C423.012 143.766 423.378 182.586 413.296 219.324C403.213 256.062 383.081 289.262 355.16 315.193L354.876 315.463L354.494 315.538C348.419 316.795 342.224 317.784 336.075 318.532L331.61 319.019ZM395.107 100.644C407.47 137.905 408.861 177.933 399.114 215.961C389.366 253.99 368.892 288.418 340.127 315.148C344.621 314.519 349.116 313.756 353.512 312.85C408.942 261.191 430.971 181.082 409.691 108.513C405.002 105.582 400.131 102.954 395.107 100.644Z" fill="white"/>
<path d="M376.868 172.6C377.581 165.742 377.946 158.853 377.961 151.959C359.861 133.296 338.489 118.111 314.906 107.158C313.019 110.652 311.226 114.145 309.528 117.639C335.516 131.138 358.439 149.848 376.868 172.6Z" fill="#FF9100"/>
<path d="M377.909 176.111L375.774 173.483C357.499 150.865 334.727 132.283 308.899 118.912L307.686 118.29L308.3 117.063C310.015 113.506 311.835 109.943 313.715 106.491L314.337 105.331L315.536 105.885C339.283 116.895 360.797 132.184 379.002 150.985L379.399 151.39V151.959C379.382 158.903 379.009 165.843 378.283 172.749L377.909 176.111ZM311.401 117.063C336.073 130.03 357.959 147.711 375.819 169.103C376.306 163.578 376.568 158.023 376.568 152.535C358.997 134.483 338.322 119.736 315.528 108.999C314.105 111.642 312.719 114.345 311.401 117.063Z" fill="white"/>
<path d="M371.564 202.038C372.522 198.309 373.376 194.551 374.125 190.763C355.442 165.696 331.473 145.042 303.917 130.262C302.774 133.032 301.685 135.815 300.651 138.61C328.767 154.144 353.008 175.826 371.564 202.038Z" fill="#FF9100"/>
<path d="M372.171 205.317L370.419 202.847C351.967 176.837 327.904 155.304 300.008 139.838L298.952 139.254L299.372 138.123C300.42 135.286 301.521 132.463 302.652 129.731L303.244 128.301L304.555 129.042C332.273 143.948 356.394 164.733 375.228 189.939L375.602 190.441L375.482 191.047C374.733 194.843 373.864 198.661 372.905 202.405L372.171 205.317ZM302.39 137.936C329.329 153.063 352.704 173.794 370.936 198.729C371.55 196.191 372.119 193.623 372.628 191.07C354.408 166.837 331.223 146.77 304.622 132.209C303.858 134.125 303.117 136.042 302.39 137.966V137.936Z" fill="white"/>
<path d="M374.126 190.763C375.31 184.773 376.223 178.719 376.868 172.6C358.441 149.86 335.523 131.161 309.543 117.669C307.546 121.832 305.671 126.029 303.918 130.262C331.474 145.042 355.443 165.697 374.126 190.763Z" fill="#FF9100"/>
<path d="M374.891 194.132L373.003 191.601C354.415 166.725 330.609 146.213 303.252 131.505L302.136 130.906L302.623 129.73C304.383 125.463 306.285 121.195 308.278 117.063L308.907 115.76L310.188 116.426C336.363 129.971 359.441 148.798 377.962 171.716L378.329 172.173L378.269 172.749C377.632 178.851 376.703 185.005 375.512 191.032L374.891 194.132ZM305.701 129.633C332.012 143.989 355.046 163.659 373.34 187.394C374.201 182.64 374.891 177.826 375.407 173.034C357.502 150.995 335.313 132.813 310.181 119.586C308.622 122.88 307.117 126.249 305.701 129.633Z" fill="white"/>
<path d="M368.501 90.3272C359.412 88.3797 350.142 87.3984 340.846 87.3999C336.009 87.403 331.175 87.668 326.367 88.1935C325.843 88.9796 325.333 89.7732 324.816 90.5668C342.873 97.6468 359.868 107.177 375.325 118.889C373.743 109.216 371.463 99.6707 368.501 90.3272Z" fill="#FF9100"/>
<path d="M377.272 122.131L374.479 120.013C359.12 108.375 342.233 98.9056 324.292 91.8696L322.689 91.2408L323.761 89.6086C324.233 88.86 324.712 88.1113 325.191 87.415L325.558 86.876L326.21 86.8011C331.068 86.2697 335.952 86.0023 340.839 86C350.234 86.0133 359.601 87.0171 368.786 88.9947L369.587 89.1594L369.834 89.9081C372.813 99.3188 375.108 108.932 376.703 118.672L377.272 122.131ZM326.929 89.8931C343.425 96.5152 359.026 105.175 373.37 115.67C371.888 107.507 369.905 99.4439 367.43 91.5253C354.204 88.7807 340.632 88.1039 327.199 89.5188L326.929 89.8931Z" fill="white"/>
<path d="M377.961 151.959C377.961 147.541 377.824 143.119 377.549 138.692C360.254 122.691 340.412 109.683 318.839 100.202C317.49 102.508 316.172 104.822 314.906 107.158C338.489 118.111 359.861 133.296 377.961 151.959Z" fill="#FF9100"/>
<path d="M379.369 155.41L376.965 152.932C359 134.377 337.766 119.291 314.329 108.431L312.974 107.802L313.723 106.491C314.966 104.193 316.299 101.842 317.67 99.4913L318.307 98.4207L319.445 98.9223C341.169 108.454 361.146 121.547 378.553 137.659L378.965 138.041V138.602C379.249 143.094 379.392 147.586 379.377 151.966L379.369 155.41ZM316.869 106.521C339.03 116.983 359.221 131.186 376.553 148.507C376.5 145.468 376.388 142.398 376.201 139.328C359.428 123.886 340.254 111.274 319.43 101.984C318.554 103.512 317.693 105.024 316.869 106.521Z" fill="white"/>
<path d="M375.325 118.889C359.869 107.177 342.873 97.6469 324.817 90.5669C322.739 93.7413 320.742 96.9531 318.824 100.202C340.398 109.683 360.24 122.691 377.534 138.692C377.135 132.099 376.398 125.498 375.325 118.889Z" fill="#FF9100"/>
<path d="M379.189 142.099L376.612 139.718C359.44 123.815 339.728 110.894 318.291 101.49L316.846 100.854L317.64 99.4912C319.55 96.2494 321.565 92.9852 323.632 89.8033L324.254 88.845L325.317 89.2567C343.499 96.3979 360.61 106.006 376.17 117.811L376.62 118.148L376.709 118.702C377.788 125.283 378.545 131.991 378.957 138.64L379.189 142.099ZM320.861 99.5586C340.95 108.555 359.522 120.609 375.915 135.293C375.489 130.052 374.859 124.812 374.028 119.676C359.092 108.419 342.718 99.2084 325.34 92.2889C323.819 94.6922 322.314 97.1254 320.861 99.5586Z" fill="white"/>
<path d="M368.433 212.968C369.581 209.355 370.625 205.711 371.564 202.038C353.008 175.826 328.767 154.143 300.652 138.61C299.708 141.16 298.809 143.723 297.955 146.299C326.258 162.818 350.373 185.631 368.433 212.968Z" fill="#FF9100"/>
<path d="M368.883 216.188L367.265 213.74C349.297 186.606 325.346 163.95 297.251 147.512L296.263 146.935L296.622 145.857C297.491 143.252 298.405 140.616 299.341 138.123L299.903 136.626L301.334 137.374C329.616 153.043 354.012 174.866 372.718 201.229L373.092 201.761L372.935 202.39C371.991 206.058 370.928 209.764 369.774 213.388L368.883 216.188ZM299.648 145.662C326.838 161.766 350.159 183.641 367.961 209.742C368.71 207.279 369.4 204.793 370.044 202.322C351.952 176.991 328.524 155.933 301.409 140.631C300.809 142.293 300.218 144.015 299.648 145.662Z" fill="white"/>
<path d="M297.956 146.299C296.657 150.182 295.466 154.092 294.383 158.03C322.476 174.723 346.36 197.64 364.194 225.015C365.737 221.022 367.15 217.006 368.434 212.968C350.374 185.631 326.258 162.818 297.956 146.299Z" fill="#FF9100"/>
<path d="M364.515 228.069L363.017 225.778C345.269 198.607 321.545 175.847 293.656 159.236L292.734 158.689L293.019 157.656C294.098 153.755 295.311 149.787 296.614 145.857L297.161 144.217L298.659 145.086C327.125 161.743 351.394 184.699 369.602 212.19L369.969 212.751L369.766 213.388C368.455 217.52 367.025 221.623 365.504 225.516L364.515 228.069ZM296.023 157.379C323.088 173.684 346.244 195.727 363.856 221.953C364.92 219.093 365.939 216.15 366.89 213.178C349.281 186.776 325.993 164.64 298.727 148.387C297.813 151.39 296.862 154.399 296.023 157.379Z" fill="white"/>
<path d="M354.179 314.145C368.168 311.25 381.831 306.961 394.964 301.343C393.172 291.983 390.755 282.753 387.729 273.716C378.349 288.591 367.071 302.182 354.179 314.145Z" fill="#FF9100"/>
<path d="M349.535 316.533L353.22 313.112C366.027 301.235 377.23 287.74 386.546 272.968L388.126 270.467L389.062 273.275C392.104 282.372 394.536 291.661 396.343 301.081L396.553 302.189L395.512 302.63C382.294 308.286 368.543 312.603 354.464 315.515L349.535 316.533ZM387.317 276.966C379.116 289.565 369.548 301.22 358.786 311.719C370.613 308.968 382.183 305.211 393.369 300.489C391.802 292.539 389.781 284.685 387.317 276.966Z" fill="white"/>
<path d="M417.766 189.086C432.293 214.384 441.49 242.384 444.791 271.365C449.285 267.717 453.65 263.876 457.885 259.843C453.094 225.094 439.806 192.06 419.196 163.668C419.25 172.162 418.772 180.651 417.766 189.086Z" fill="#FF9100"/>
<path d="M443.683 274.061L443.391 271.53C440.144 242.73 431.009 214.905 416.553 189.782L416.32 189.378L416.373 188.921C417.372 180.544 417.845 172.112 417.788 163.676V159.303L420.35 162.844C441.054 191.446 454.428 224.684 459.301 259.649L459.398 260.36L458.881 260.854C454.656 264.897 450.222 268.805 445.698 272.459L443.683 274.061ZM419.212 188.786C433.298 213.387 442.361 240.537 445.878 268.663C449.466 265.668 452.994 262.554 456.364 259.327C451.689 226.534 439.439 195.28 420.582 168.04C420.479 174.974 420.021 181.899 419.212 188.786Z" fill="white"/>
<path d="M415.338 204.381C426.859 227.225 434.19 251.948 436.985 277.377C439.627 275.441 442.229 273.444 444.79 271.388C441.489 242.407 432.292 214.406 417.765 189.108C417.151 194.229 416.342 199.32 415.338 204.381Z" fill="#FF9100"/>
<path d="M435.862 279.945L435.592 277.535C432.825 252.271 425.541 227.708 414.087 205.018L413.87 204.583L413.96 204.112C414.956 199.066 415.773 193.952 416.372 188.921L416.874 184.721L418.986 188.389C433.629 213.844 442.886 242.032 446.184 271.208L446.266 271.957L445.667 272.444C443.098 274.525 440.424 276.561 437.817 278.493L435.862 279.945ZM416.806 204.187C427.92 226.324 435.124 250.214 438.102 274.802C439.847 273.492 441.592 272.137 443.308 270.759C440.132 243.638 431.739 217.386 418.589 193.451C418.11 197.029 417.503 200.623 416.806 204.187Z" fill="white"/>
<path d="M409.256 227.778C416.758 246.575 421.562 266.339 423.525 286.482C428.124 283.632 432.619 280.597 437.008 277.378C434.213 251.948 426.881 227.226 415.361 204.381C413.791 212.294 411.753 220.107 409.256 227.778Z" fill="#FF9100"/>
<path d="M422.349 288.862L422.132 286.616C420.165 266.604 415.381 246.97 407.923 228.294L407.735 227.822L407.893 227.343C410.362 219.733 412.378 211.983 413.93 204.134L414.724 200.136L416.559 203.775C428.163 226.766 435.543 251.652 438.349 277.25L438.439 278.051L437.787 278.53C433.383 281.765 428.799 284.849 424.237 287.694L422.349 288.862ZM410.747 227.725C417.904 245.804 422.593 264.763 424.686 284.093C428.342 281.765 431.975 279.294 435.503 276.726C432.82 253.099 426.188 230.089 415.885 208.656C414.477 215.08 412.754 221.474 410.747 227.725Z" fill="white"/>
<path d="M398.59 254.206C403.259 267.416 406.621 281.053 408.627 294.919C410.689 293.861 412.734 292.765 414.762 291.632C412.707 275.425 408.809 259.505 403.144 244.181C401.721 247.56 400.203 250.902 398.59 254.206Z" fill="#FF9100"/>
<path d="M407.519 297.068L407.234 295.121C405.238 281.353 401.902 267.812 397.272 254.692L397.077 254.146L397.332 253.614C398.92 250.35 400.44 246.996 401.826 243.657L403.204 240.393L404.433 243.717C410.142 259.132 414.077 275.147 416.163 291.453L416.283 292.396L415.451 292.853C413.279 294.065 411.257 295.151 409.272 296.169L407.519 297.068ZM400.111 254.296C404.485 266.8 407.702 279.678 409.721 292.77C410.867 292.164 412.036 291.535 413.249 290.869C411.326 276.26 407.9 261.889 403.025 247.984C402.088 250.103 401.115 252.214 400.111 254.296Z" fill="white"/>
<path d="M403.144 244.181C408.808 259.505 412.706 275.425 414.761 291.632C417.717 289.985 420.639 288.268 423.525 286.481C421.561 266.339 416.757 246.575 409.256 227.777C407.453 233.328 405.416 238.795 403.144 244.181Z" fill="#FF9100"/>
<path d="M413.63 293.863L413.368 291.804C411.327 275.695 407.457 259.871 401.832 244.637L401.638 244.113L401.855 243.604C404.102 238.289 406.139 232.801 407.922 227.313L409.121 223.622L410.559 227.223C418.104 246.147 422.938 266.041 424.918 286.316L425.008 287.185L424.259 287.642C421.495 289.364 418.529 291.108 415.435 292.822L413.63 293.863ZM404.641 244.211C410.004 258.823 413.771 273.972 415.877 289.394C418.012 288.181 420.079 286.96 422.042 285.755C420.164 267.328 415.899 249.223 409.353 231.895C407.922 236.05 406.342 240.175 404.649 244.211H404.641Z" fill="white"/>
<path d="M393.257 264.433C396.875 275.549 399.581 286.942 401.347 298.498C403.793 297.355 406.22 296.162 408.627 294.919C406.621 281.053 403.259 267.416 398.59 254.206C396.912 257.66 395.134 261.069 393.257 264.433Z" fill="#FF9100"/>
<path d="M400.238 300.557L399.961 298.707C398.2 287.226 395.512 275.907 391.924 264.86L391.736 264.283L392.036 263.744C393.849 260.495 395.631 257.081 397.332 253.592L398.83 250.597L399.946 253.757C404.639 267.056 408.021 280.782 410.043 294.739L410.185 295.728L409.294 296.184C406.867 297.435 404.395 298.647 401.968 299.778L400.238 300.557ZM394.777 264.553C398.132 274.961 400.693 285.607 402.44 296.401C403.988 295.658 405.539 294.894 407.092 294.11C405.244 281.78 402.322 269.636 398.358 257.814C397.189 260.13 395.996 262.376 394.777 264.553Z" fill="white"/>
<path d="M387.698 273.716C390.725 282.753 393.142 291.983 394.934 301.343C397.076 300.429 399.204 299.481 401.316 298.498C399.55 286.942 396.844 275.549 393.226 264.433C391.493 267.572 389.651 270.667 387.698 273.716Z" fill="#FF9100"/>
<path d="M393.915 303.319L393.586 301.605C391.8 292.31 389.4 283.144 386.402 274.166L386.2 273.537L386.552 272.975C388.455 269.98 390.297 266.858 392.043 263.751L393.608 260.951L394.597 264.006C398.239 275.193 400.962 286.659 402.739 298.288L402.896 299.329L401.93 299.74C399.893 300.691 397.795 301.635 395.503 302.608L393.915 303.319ZM389.271 273.904C392.035 282.243 394.287 290.744 396.013 299.359C397.324 298.782 398.582 298.221 399.803 297.659C398.212 287.588 395.904 277.642 392.897 267.899C391.721 269.928 390.507 271.935 389.271 273.904Z" fill="white"/>
<path d="M338.599 327.194C334.179 327.614 329.742 327.901 325.288 328.055C327.685 329.276 330.104 330.466 332.554 331.589C335.67 333.017 338.823 334.367 342.014 335.639C381.01 331.492 418.103 316.662 449.203 292.785C453.222 286.929 456.759 280.758 459.779 274.33C426.031 304.372 383.586 322.889 338.599 327.194Z" fill="#FF9100"/>
<path d="M341.819 337.077L341.49 336.942C338.261 335.655 335.055 334.285 331.969 332.862C329.722 331.821 327.31 330.661 324.651 329.306L319.805 326.835L325.243 326.656C329.632 326.506 334.082 326.221 338.463 325.795C383.136 321.441 425.281 303.061 458.858 273.29L463.981 268.708L461.06 274.929C458.01 281.426 454.436 287.663 450.371 293.579L450.251 293.766L450.071 293.901C418.783 317.944 381.454 332.874 342.209 337.04L341.819 337.077ZM330.771 329.209C331.58 329.59 332.374 329.957 333.145 330.317C336.081 331.664 339.138 332.974 342.209 334.21C380.752 330.063 417.41 315.395 448.169 291.812C450.773 288.008 453.171 284.067 455.352 280.005C439.812 292.973 422.496 303.653 403.93 311.719C383.23 320.734 361.238 326.429 338.763 328.595C336.096 328.842 333.43 329.051 330.771 329.209Z" fill="white"/>
<path d="M374.463 345.537C393.939 340.401 411.916 329.598 426.387 317.342C405.968 328.572 383.16 337.803 360.119 341.891C364.833 343.269 369.615 344.484 374.463 345.537Z" fill="#FF9100"/>
<path d="M374.5 346.975L374.171 346.907C369.377 345.874 364.515 344.661 359.721 343.239L353.991 341.554L359.879 340.513C380.957 336.77 403.106 328.535 425.72 316.107L437.944 309.368L427.3 318.398C415.877 328.093 397.511 340.918 374.822 346.907L374.5 346.975ZM366.216 342.131C368.957 342.842 371.706 343.501 374.455 344.092C389.586 340.049 402.762 332.862 413.136 325.75C397.129 333.386 381.421 338.874 366.216 342.131Z" fill="white"/>
<path d="M423.526 319.955C438.731 310.544 442.574 302.451 449.203 292.8C418.103 316.687 381.007 331.524 342.007 335.677C347.904 338.038 353.939 340.122 360.111 341.929C383.159 337.803 403.099 331.185 423.526 319.955Z" fill="#FF9100"/>
<path d="M360.037 343.328L359.722 343.239C353.565 341.434 347.43 339.316 341.49 336.942L336.247 334.846L341.865 334.247C380.615 330.144 417.476 315.411 448.372 291.677L455.405 286.264L450.379 293.579C449.443 294.949 448.552 296.304 447.683 297.607C442.492 305.475 437.586 312.902 424.29 321.138H424.223C404.26 332.136 384.576 338.949 360.381 343.246L360.037 343.328ZM347.805 336.358C351.887 337.856 356.044 339.226 360.194 340.454C383.909 336.216 403.234 329.515 422.814 318.742C434.14 311.719 438.971 305.535 443.57 298.692C415.189 318.846 382.317 331.775 347.805 336.358Z" fill="white"/>
<path d="M354.179 314.145C348.131 315.388 342.032 316.374 335.88 317.102C328.988 317.911 322.047 318.385 315.056 318.525C314.097 319.284 313.131 320.032 312.157 320.771C315.882 323.032 319.688 325.171 323.573 327.187C324.142 327.487 324.719 327.764 325.288 328.056C329.747 327.906 334.184 327.619 338.599 327.195C383.585 322.889 426.031 304.373 459.779 274.33C463.629 266.128 466.614 257.546 468.685 248.726C438.459 282.161 398.343 305.08 354.179 314.145Z" fill="#FF9100"/>
<path d="M324.974 329.471L323.977 328.961L322.929 328.437C318.996 326.386 315.131 324.215 311.431 321.969L309.663 320.898L311.311 319.655C312.277 318.907 313.236 318.158 314.187 317.409L314.554 317.117H315.041C321.932 316.983 328.891 316.511 335.73 315.702C341.797 314.991 347.917 314.003 353.909 312.76C397.661 303.723 438.057 280.642 467.659 247.775L471.315 243.717L470.064 249.04C467.973 257.955 464.96 266.629 461.075 274.922L460.955 275.176L460.738 275.371C443.863 290.437 424.685 302.709 403.931 311.719C383.231 320.733 361.238 326.429 338.764 328.595C334.322 329.021 329.812 329.343 325.363 329.463L324.974 329.471ZM314.644 320.629C317.753 322.463 320.966 324.252 324.225 325.944L325.228 326.453L325.603 326.64C329.872 326.491 334.202 326.206 338.464 325.794C383.033 321.449 425.089 303.138 458.626 273.477C461.595 267.112 464.042 260.517 465.944 253.757C451.635 268.819 435.178 281.686 417.106 291.939C397.591 303.033 376.452 310.991 354.464 315.523C348.389 316.78 342.194 317.769 336.044 318.517C329.266 319.311 322.382 319.79 315.551 319.94L314.644 320.629Z" fill="white"/>
<path d="M315.041 318.525C322.032 318.39 328.973 317.916 335.864 317.102C396.462 263.325 420.379 176.905 392.725 98.0536C389.129 96.5113 385.459 95.1263 381.714 93.8984C409.571 176.044 381.759 265.99 315.041 318.525Z" fill="#FF9100"/>
<path d="M310.906 320.007L314.187 317.424C346.896 291.601 370.816 256.301 382.67 216.36C394.524 176.419 393.732 133.791 380.403 94.318L379.504 91.6602L382.163 92.5361C385.908 93.7714 389.653 95.1789 393.294 96.7362L393.856 96.9833L394.058 97.5598C407.444 135.857 409.15 177.266 398.957 216.533C388.765 255.801 367.134 291.158 336.808 318.121L336.479 318.413L336.044 318.465C329.116 319.281 322.06 319.76 315.071 319.895L310.906 320.007ZM383.953 96.0998C396.535 135.161 397.089 177.1 385.543 216.479C373.997 255.859 350.884 290.865 319.198 316.96C324.569 316.743 329.962 316.331 335.28 315.717C365.102 289.262 386.381 254.542 396.412 215.97C406.443 177.398 404.774 136.716 391.616 99.0945C389.109 98.0364 386.555 97.0382 383.953 96.0998Z" fill="white"/>
<path d="M455.038 243.829C458.034 247.138 460.918 250.55 463.689 254.064C465.382 252.312 467.047 250.532 468.685 248.725C468.85 248.029 468.992 247.333 469.142 246.637C463.244 238.771 456.804 231.326 449.869 224.356C451.867 230.69 453.589 237.181 455.038 243.829Z" fill="#FF9100"/>
<path d="M463.592 256.19L462.603 254.932C459.847 251.458 456.948 248.037 453.997 244.765L453.75 244.488L453.675 244.121C452.259 237.608 450.529 231.102 448.521 224.783L446.769 219.265L450.843 223.375C457.825 230.395 464.315 237.887 470.266 245.798L470.648 246.307L470.401 247.468C470.289 247.992 470.176 248.523 470.049 249.047L469.967 249.399L469.727 249.669C468.154 251.421 466.461 253.225 464.701 255.044L463.592 256.19ZM456.326 243.163C458.873 246 461.382 248.943 463.817 251.937C465.075 250.627 466.281 249.324 467.427 248.052C467.51 247.692 467.592 247.303 467.667 246.966C463.054 240.877 458.113 235.044 452.866 229.492C454.169 233.999 455.323 238.581 456.326 243.163Z" fill="white"/>
<path d="M434.582 188.187C437.713 194.027 440.577 200.031 443.174 206.2C453.378 214.968 462.728 224.682 471.098 235.212C471.597 231.399 471.914 227.538 472.049 223.63C461.042 210.343 448.461 198.441 434.582 188.187Z" fill="#FF9100"/>
<path d="M472.071 238.715L470.004 236.103C461.693 225.645 452.413 215.995 442.289 207.278L442.035 207.061L441.907 206.762C439.346 200.668 436.477 194.648 433.376 188.861L430.395 183.373L435.413 187.116C449.381 197.441 462.044 209.42 473.128 222.791L473.472 223.203V223.742C473.322 227.642 473 231.581 472.513 235.451L472.071 238.715ZM444.357 205.377C453.676 213.413 462.287 222.235 470.094 231.745C470.341 229.215 470.528 226.669 470.633 224.131C461.105 212.698 450.4 202.299 438.694 193.106C440.694 197.126 442.589 201.237 444.334 205.407L444.357 205.377Z" fill="white"/>
<path d="M443.173 206.223C445.67 212.127 447.894 218.172 449.847 224.356C456.789 231.325 463.237 238.77 469.142 246.637C469.956 242.893 470.608 239.092 471.097 235.234C462.727 224.704 453.377 214.99 443.173 206.223Z" fill="#FF9100"/>
<path d="M469.862 249.923L468.019 247.475C462.147 239.668 455.745 232.274 448.858 225.344L448.619 225.105L448.514 224.783C446.589 218.718 444.357 212.654 441.877 206.77L439.57 201.282L444.065 205.16C454.332 213.988 463.744 223.764 472.176 234.358L472.543 234.823L472.468 235.407C471.982 239.247 471.322 243.118 470.491 246.921L469.862 249.923ZM451.083 223.607C457.25 229.823 463.028 236.411 468.386 243.335C468.881 240.782 469.3 238.207 469.63 235.646C462.642 226.912 454.976 218.744 446.701 211.217C448.289 215.312 449.757 219.46 451.083 223.607Z" fill="white"/>
<path d="M457.884 259.843C459.852 257.957 461.787 256.03 463.69 254.064C460.903 250.57 458.019 247.158 455.038 243.829C456.177 249.095 457.125 254.433 457.884 259.843Z" fill="#FF9100"/>
<path d="M456.873 262.748L456.491 260.038C455.742 254.737 454.805 249.384 453.667 244.121L452.551 238.97L456.079 242.886C459.075 246.202 461.996 249.669 464.79 253.188L465.539 254.153L464.685 255.037C462.753 257.028 460.79 258.99 458.835 260.854L456.873 262.748ZM457.465 248.711C457.989 251.443 458.461 254.191 458.873 256.946C459.861 255.98 460.85 254.992 461.824 253.996C460.401 252.199 458.94 250.44 457.465 248.711Z" fill="white"/>
<path d="M436.888 129.161C429.449 125.473 421.801 122.224 413.982 119.428C415.176 124.589 416.175 129.76 416.979 134.941C431.38 141.312 445.033 149.254 457.689 158.622C452.143 147.893 445.144 137.979 436.888 129.161Z" fill="#FF9100"/>
<path d="M461.659 163.354L456.821 159.775C444.246 150.467 430.681 142.575 416.372 136.244L415.668 135.937L415.556 135.188C414.807 130.075 413.795 124.886 412.612 119.78L412.035 117.287L414.455 118.148C422.322 120.944 430.02 124.194 437.51 127.881L437.742 128.001L437.915 128.188C446.242 137.11 453.3 147.137 458.888 157.986L461.659 163.354ZM418.215 133.998C430.57 139.515 442.378 146.186 453.48 153.92C448.576 145.417 442.726 137.496 436.042 130.307C429.486 127.077 422.768 124.186 415.915 121.645C416.807 125.755 417.578 129.895 418.215 133.998Z" fill="white"/>
<path d="M419.158 161.901C419.158 162.485 419.158 163.077 419.158 163.668C424.847 171.484 430 179.675 434.581 188.187C448.455 198.442 461.031 210.344 472.033 223.63C472.093 221.968 472.138 220.298 472.138 218.621C472.139 213.776 471.874 208.935 471.344 204.119C456.286 187.383 438.673 173.135 419.158 161.901Z" fill="#FF9100"/>
<path d="M473.307 227.373L470.97 224.543C460.027 211.357 447.53 199.542 433.75 189.355L433.495 189.168L433.345 188.891C428.806 180.429 423.699 172.285 418.057 164.514L417.795 164.147V163.698C417.795 163.324 417.795 162.949 417.795 162.575L417.75 159.475L419.892 160.703C439.538 172.018 457.268 186.371 472.423 203.228L472.723 203.565L472.775 204.014C473.307 208.88 473.575 213.771 473.576 218.666C473.576 220.163 473.576 221.81 473.472 223.727L473.307 227.373ZM435.637 187.266C448.511 196.815 460.276 207.771 470.715 219.931C470.715 219.489 470.715 219.063 470.715 218.643C470.712 214.002 470.462 209.363 469.966 204.748C456.005 189.278 439.833 175.955 421.975 165.21C426.969 172.281 431.531 179.646 435.637 187.266Z" fill="white"/>
<path d="M410.859 107.607C412.028 111.54 413.069 115.488 413.983 119.451C421.801 122.246 429.45 125.496 436.889 129.184C429.176 120.903 420.428 113.651 410.859 107.607Z" fill="#FF9100"/>
<path d="M443.166 133.826L436.267 130.419C428.875 126.775 421.277 123.565 413.511 120.806L412.762 120.544L412.59 119.795C411.668 115.753 410.642 111.822 409.519 108.004L408.455 104.425L411.609 106.417C421.265 112.526 430.096 119.851 437.885 128.211L443.166 133.826ZM415.174 118.388C420.268 120.23 425.331 122.274 430.305 124.505C425.009 119.477 419.301 114.902 413.241 110.826C413.916 113.319 414.575 115.835 415.174 118.388Z" fill="white"/>
<path d="M416.911 134.964C417.44 138.482 417.877 142.001 418.222 145.52C435.283 153.881 451.153 164.478 465.412 177.032C463.298 170.714 460.704 164.567 457.652 158.644C444.986 149.274 431.323 141.332 416.911 134.964Z" fill="#FF9100"/>
<path d="M468.394 181.524L464.484 178.08C450.335 165.616 434.589 155.089 417.661 146.778L416.957 146.433L416.882 145.685C416.545 142.196 416.133 138.67 415.586 135.203L415.204 132.68L417.541 133.713C432.025 140.11 445.758 148.084 458.491 157.491L458.754 157.686L458.903 157.978C461.988 163.963 464.61 170.175 466.746 176.56L468.394 181.524ZM419.571 144.607C434.877 152.18 449.225 161.55 462.312 172.517C460.63 168.104 458.71 163.785 456.559 159.58C444.743 150.858 432.053 143.383 418.695 137.277C419.032 139.725 419.324 142.173 419.571 144.607Z" fill="white"/>
<path d="M419.159 161.901C438.677 173.141 456.293 187.397 471.352 204.142C470.338 194.92 468.344 185.832 465.405 177.032C451.146 164.479 435.276 153.881 418.215 145.52C418.764 151.005 419.079 156.466 419.159 161.901Z" fill="#FF9100"/>
<path d="M473.232 208.319L470.311 205.078C455.36 188.438 437.862 174.274 418.47 163.114L417.78 162.717V161.924C417.698 156.488 417.391 151.023 416.867 145.655L416.627 143.154L418.874 144.262C436.038 152.679 452.004 163.344 466.349 175.976L466.633 176.231L466.753 176.59C469.718 185.486 471.727 194.671 472.746 203.992L473.232 208.319ZM420.552 161.085C438.649 171.587 455.11 184.681 469.412 199.949C468.321 192.437 466.567 185.036 464.169 177.833C450.718 166.019 435.823 155.957 419.84 147.886C420.245 152.251 420.47 156.683 420.552 161.085Z" fill="white"/>
<path d="M353.16 248.83C355.122 245.222 356.975 241.556 358.718 237.832C335.833 217.655 317.575 192.779 305.191 164.903C301.655 162.515 298.052 160.217 294.382 158.038C293.828 160.03 293.311 162.029 292.816 164.028C305.576 196.864 326.314 226.008 353.16 248.83Z" fill="#FF9100"/>
<path d="M353.564 251.009L352.254 249.893C325.244 226.912 304.37 197.584 291.506 164.544L291.349 164.132L291.453 163.698C292.015 161.452 292.532 159.468 293.026 157.671L293.521 155.904L295.094 156.84C298.734 158.996 302.397 161.332 305.978 163.75L306.307 163.975L306.472 164.342C318.816 192.013 336.951 216.718 359.654 236.792L360.441 237.48L359.991 238.431C358.238 242.175 356.358 245.918 354.396 249.504L353.564 251.009ZM294.285 163.93C306.768 195.821 326.819 224.202 352.711 246.629C354.209 243.859 355.609 241.029 356.958 238.177C334.427 218.05 316.395 193.401 304.037 165.839C301.124 163.87 298.165 161.976 295.214 160.187C294.937 161.347 294.622 162.59 294.285 163.93Z" fill="white"/>
<path d="M358.718 237.825C360.686 233.617 362.511 229.347 364.194 225.015C348.715 201.258 328.658 180.821 305.191 164.896C317.576 192.772 335.834 217.647 358.718 237.825Z" fill="#FF9100"/>
<path d="M359.191 240.116L357.79 238.88C334.789 218.539 316.417 193.508 303.911 165.472L301.911 160.98L305.978 163.735C329.623 179.738 349.818 200.315 365.37 224.251L365.767 224.85L365.505 225.516C363.835 229.829 361.977 234.171 359.985 238.424L359.191 240.116ZM308.615 168.991C320.615 194.217 337.479 216.828 358.239 235.526C359.805 232.097 361.273 228.631 362.629 225.179C348.278 203.255 329.96 184.2 308.615 168.991Z" fill="white"/>
<path d="M301.753 310.222C305.154 307.507 308.45 304.692 311.641 301.777C305.636 297.396 299.868 292.7 294.36 287.709C296.453 295.311 298.917 302.815 301.753 310.222Z" fill="#FF9100"/>
<path d="M301.132 312.52L300.443 310.731C297.619 303.379 295.117 295.758 293.004 288.084L291.724 283.427L295.304 286.676C300.771 291.638 306.499 296.304 312.465 300.654L313.85 301.665L312.585 302.818C309.341 305.775 305.993 308.635 302.63 311.323L301.132 312.52ZM297.064 291.954C298.66 297.352 300.458 302.698 302.413 307.924C304.78 305.984 307.139 303.963 309.454 301.897C305.177 298.745 301.027 295.413 297.064 291.954Z" fill="white"/>
<path d="M285.634 218.629C285.504 226.046 285.714 233.458 286.263 240.864C299.373 256.284 314.647 269.725 331.61 280.769C333.658 278.273 335.635 275.753 337.543 273.207C317.101 258.278 299.517 239.79 285.634 218.629Z" fill="#FF9100"/>
<path d="M331.902 282.626L330.846 281.944C313.752 270.831 298.362 257.299 285.154 241.77L284.862 241.426V240.969C284.315 233.565 284.113 226.04 284.233 218.606L284.315 214.062L286.809 217.857C300.587 238.876 318.054 257.232 338.366 272.039L339.512 272.878L338.666 274.016C336.741 276.584 334.733 279.152 332.673 281.63L331.902 282.626ZM287.626 240.303C300.308 255.155 315.019 268.15 331.325 278.905C332.763 277.13 334.186 275.318 335.565 273.492C316.693 259.535 300.281 242.532 287.004 223.18C287.011 228.893 287.221 234.605 287.626 240.303Z" fill="white"/>
<path d="M287.326 194.237C286.367 202.335 285.815 210.475 285.671 218.629C299.554 239.79 317.138 258.278 337.58 273.207C340.201 269.688 342.698 266.095 345.07 262.426C321.18 244.07 301.492 220.82 287.326 194.237Z" fill="#FF9100"/>
<path d="M337.834 275.154L336.71 274.338C316.123 259.324 298.423 240.711 284.464 219.4L284.225 219.04V218.606C284.367 210.445 284.929 202.187 285.887 194.072L286.412 189.632L288.517 193.578C302.557 220.009 322.126 243.11 345.894 261.311L346.927 262.097L346.223 263.19C343.834 266.866 341.287 270.512 338.658 274.046L337.834 275.154ZM287.049 218.254C300.528 238.74 317.517 256.689 337.235 271.276C339.28 268.498 341.264 265.645 343.16 262.771C320.721 245.38 302.026 223.641 288.195 198.856C287.558 205.265 287.168 211.771 287.049 218.224V218.254Z" fill="white"/>
<path d="M292.817 164.027C290.35 173.971 288.516 184.061 287.326 194.237C301.496 220.822 321.189 244.072 345.085 262.426C347.971 257.984 350.676 253.45 353.197 248.823C326.339 226.007 305.588 196.865 292.817 164.027Z" fill="#FF9100"/>
<path d="M345.4 264.463L344.202 263.535C320.113 245.106 300.28 221.705 286.053 194.926L285.844 194.536L285.896 194.102C287.107 183.866 288.963 173.716 291.454 163.713L292.525 159.431L294.121 163.548C306.81 196.152 327.401 225.096 354.044 247.782L354.913 248.531L354.367 249.527C351.857 254.139 349.123 258.75 346.209 263.228L345.4 264.463ZM288.735 193.967C302.517 219.789 321.587 242.419 344.704 260.383C347.056 256.692 349.295 252.896 351.378 249.152C325.923 227.246 305.978 199.663 293.154 168.632C291.232 176.992 289.756 185.45 288.735 193.967Z" fill="white"/>
<path d="M288.824 262.374C290.223 270.914 292.075 279.374 294.375 287.717C299.882 292.708 305.651 297.403 311.655 301.785C315.176 298.57 318.571 295.249 321.842 291.82C309.827 283.197 298.76 273.327 288.824 262.374Z" fill="#FF9100"/>
<path d="M311.738 303.589L310.809 302.915C304.765 298.505 298.959 293.777 293.417 288.75L293.117 288.48L293.005 288.084C290.697 279.703 288.836 271.206 287.432 262.628L286.683 257.949L289.874 261.461C299.745 272.34 310.739 282.144 322.674 290.711L323.978 291.655L322.869 292.823C319.596 296.252 316.128 299.628 312.607 302.848L311.738 303.589ZM295.604 286.946C300.667 291.527 306.023 295.93 311.536 299.973C314.337 297.397 317.071 294.732 319.701 292.014C309.394 284.491 299.789 276.052 291.005 266.799C292.256 273.589 293.799 280.342 295.604 286.946Z" fill="white"/>
<path d="M286.263 240.864C286.792 248.067 287.641 255.236 288.809 262.374C298.745 273.326 309.812 283.197 321.827 291.819C325.233 288.246 328.494 284.562 331.61 280.769C314.647 269.725 299.372 256.284 286.263 240.864Z" fill="#FF9100"/>
<path d="M322.007 293.676L321.033 293.002C308.943 284.315 297.803 274.377 287.798 263.355L287.521 263.048L287.453 262.636C286.277 255.493 285.416 248.216 284.884 241.007L284.569 236.724L287.356 239.996C300.375 255.313 315.546 268.663 332.396 279.631L333.714 280.484L332.718 281.697C329.55 285.545 326.239 289.296 322.868 292.83L322.007 293.676ZM290.127 261.737C299.651 272.204 310.214 281.676 321.655 290.008C324.336 287.155 326.98 284.175 329.535 281.121C314.178 270.964 300.219 258.839 288.015 245.057C288.524 250.605 289.236 256.212 290.127 261.737Z" fill="white"/>
</svg>
