<svg width="75" height="75" viewBox="0 0 75 75" fill="none" xmlns="http://www.w3.org/2000/svg">
<path d="M68.9321 54.1745C68.6464 53.4004 67.7874 53.0044 67.0132 53.2901L51.4753 59.0233C50.7011 59.3089 50.3052 60.1681 50.5908 60.9423C50.8136 61.5458 51.3848 61.9195 51.9927 61.9195C52.1644 61.9195 52.3391 61.8896 52.5098 61.8267L68.0477 56.0935C68.8218 55.8078 69.2178 54.9487 68.9321 54.1745Z" fill="url(#paint0_linear)"/>
<path d="M49.1216 61.4852C48.8361 60.7109 47.9768 60.315 47.2026 60.6006L46.5446 60.8433C45.7706 61.129 45.3745 61.9881 45.6602 62.7621C45.8828 63.3656 46.4541 63.7395 47.062 63.7395C47.2337 63.7395 47.4084 63.7096 47.5791 63.6467L48.2371 63.404C49.0111 63.1184 49.4072 62.2594 49.1216 61.4852Z" fill="url(#paint1_linear)"/>
<path d="M68.9311 48.0865C68.6453 47.3123 67.7863 46.9167 67.0122 47.202L54.7331 51.7328C53.959 52.0184 53.563 52.8776 53.8486 53.6517C54.0715 54.2553 54.6426 54.6289 55.2505 54.6289C55.4222 54.6289 55.5969 54.5991 55.7676 54.5362L68.0466 50.0055C68.8208 49.7198 69.2168 48.8607 68.9311 48.0865Z" fill="url(#paint2_linear)"/>
<path d="M68.9311 42.0631C68.6453 41.2889 67.7863 40.8933 67.0122 41.1786L54.7331 45.7094C53.959 45.995 53.563 46.8541 53.8486 47.6283C54.0715 48.2318 54.6426 48.6055 55.2505 48.6055C55.4222 48.6055 55.5969 48.5756 55.7676 48.5128L68.0466 43.982C68.8208 43.6964 69.2168 42.8373 68.9311 42.0631Z" fill="url(#paint3_linear)"/>
<path d="M74.0232 14.7255L38.0172 1.43994C37.6834 1.31689 37.3166 1.31689 36.9829 1.43994L0.976904 14.7255L0.976611 14.7267C0.858691 14.7703 0.745313 14.828 0.639844 14.9014C0.238916 15.1809 0 15.6387 0 16.1272V58.8722C0 59.4979 0.389795 60.0573 0.976758 60.2739L36.9828 73.5595C37.1506 73.6214 37.3257 73.6518 37.4999 73.6518C37.6758 73.6518 37.8508 73.6198 38.0167 73.5586L38.0172 73.5595L74.0232 60.2739C74.6102 60.0573 75 59.498 75 58.8722V16.1272C75 15.5014 74.6102 14.9421 74.0232 14.7255ZM36.006 70.0141L2.98799 57.831V18.271L9.71103 20.7519V38.8541C9.71103 39.4797 10.1008 40.0392 10.6878 40.2558L26.8232 46.2097C26.9911 46.2716 27.1661 46.302 27.3403 46.302C27.6417 46.302 27.9406 46.2107 28.1947 46.0336C28.5955 45.7542 28.8344 45.2965 28.8344 44.808V27.808L36.0057 30.4541V70.0141H36.006ZM25.8466 26.7054V42.6639L12.6992 37.8126V21.8542L25.8466 26.7054ZM15.521 19.6985L27.3406 15.3372L39.1601 19.6985L27.3406 24.0598L15.521 19.6985ZM37.5 27.8203L31.6405 25.6582L43.9934 21.1C44.5803 20.8834 44.9701 20.3241 44.9701 19.6983C44.9701 19.0726 44.5803 18.5133 43.9934 18.2966L27.8578 12.3429C27.524 12.2199 27.1573 12.2199 26.8233 12.3429L11.1889 18.1121L5.81001 16.1272L37.5 4.43423L69.19 16.1273L37.5 27.8203ZM72.012 57.831L38.9941 70.014V30.4541L72.012 18.271V57.831Z" fill="url(#paint4_linear)"/>
<defs>
<linearGradient id="paint0_linear" x1="64.5718" y1="54.2233" x2="54.9368" y2="62.2728" gradientUnits="userSpaceOnUse">
<stop stop-color="#FF803B"/>
<stop offset="1" stop-color="#FF9100"/>
</linearGradient>
<linearGradient id="paint1_linear" x1="48.3378" y1="60.888" x2="45.6474" y2="62.0821" gradientUnits="userSpaceOnUse">
<stop stop-color="#FF803B"/>
<stop offset="1" stop-color="#FF9100"/>
</linearGradient>
<linearGradient id="paint2_linear" x1="65.354" y1="47.9939" x2="57.122" y2="54.5681" gradientUnits="userSpaceOnUse">
<stop stop-color="#FF803B"/>
<stop offset="1" stop-color="#FF9100"/>
</linearGradient>
<linearGradient id="paint3_linear" x1="65.354" y1="41.9705" x2="57.122" y2="48.5446" gradientUnits="userSpaceOnUse">
<stop stop-color="#FF803B"/>
<stop offset="1" stop-color="#FF9100"/>
</linearGradient>
<linearGradient id="paint4_linear" x1="56.9728" y1="9.8531" x2="0.195797" y2="33.0171" gradientUnits="userSpaceOnUse">
<stop stop-color="#FF803B"/>
<stop offset="1" stop-color="#FF9100"/>
</linearGradient>
</defs>
</svg>
