<svg width="222" height="171" viewBox="0 0 222 171" fill="none" xmlns="http://www.w3.org/2000/svg">
<g opacity="0.625046" filter="url(#filter0_f)">
<path fill-rule="evenodd" clip-rule="evenodd" d="M111.118 136.81C146.35 138.658 188.486 137.78 188.624 135.157C188.762 132.533 146.849 129.157 111.617 127.309C76.3863 125.461 33.7277 124.501 33.5898 127.125C33.452 129.749 75.887 134.963 111.118 136.81Z" fill="url(#paint0_linear)"/>
</g>
<path fill-rule="evenodd" clip-rule="evenodd" d="M116.315 73.3957C112.503 75.3379 108.033 76.2194 104.921 79.1662C100.269 83.5658 100.264 90.8279 100.396 97.2281C100.535 103.628 100.017 111.015 94.8884 114.842C93.1137 116.166 90.9567 116.899 89.1488 118.181C87.3409 119.463 85.8378 121.64 86.3842 123.791C86.9656 126.086 89.6018 127.247 91.9706 127.328C97.6904 127.521 102.826 123.285 105.461 118.181C107.342 114.543 108.712 109.941 112.574 108.599C116.067 107.383 119.705 109.546 123.111 110.982C126.518 112.41 131.394 112.631 132.979 109.28" fill="#3D3922"/>
<path fill-rule="evenodd" clip-rule="evenodd" d="M76.9682 63.8005C77.9932 74.3105 80.2212 84.6945 83.5889 94.6913C84.8199 98.3484 86.4468 102.242 89.8072 104.101C90.8329 104.668 92.1107 105.158 92.4394 106.288C92.9467 108.032 90.7833 109.342 88.9938 109.576C83.6133 110.28 78.1479 107.575 74.6554 103.397C71.163 99.2195 69.4649 93.7622 68.9248 88.3261C68.3864 82.8847 68.9336 77.4022 69.48 71.9597C69.9055 71.6874 70.5592 71.9396 70.6967 72.4248" fill="#3D3922"/>
<path fill-rule="evenodd" clip-rule="evenodd" d="M83.4307 28.002C84.8114 28.002 85.9307 26.8827 85.9307 25.502C85.9307 24.1212 84.8114 23.002 83.4307 23.002C82.05 23.002 80.9307 24.1212 80.9307 25.502C80.9307 26.8827 82.05 28.002 83.4307 28.002Z" fill="#4D4A2F"/>
<path fill-rule="evenodd" clip-rule="evenodd" d="M100.738 31.8047C102.119 31.8047 103.238 30.6854 103.238 29.3047C103.238 27.924 102.119 26.8047 100.738 26.8047C99.3571 26.8047 98.2378 27.924 98.2378 29.3047C98.2378 30.6854 99.3571 31.8047 100.738 31.8047Z" fill="#4D4A2F"/>
<path fill-rule="evenodd" clip-rule="evenodd" d="M75.6165 102.693C72.5317 99.0037 70.723 93.9988 70.1558 88.2495C69.7272 83.8875 69.9002 80.3054 70.6841 72.4994L71.9024 72.1518C71.5574 70.9319 70.0473 70.3541 68.9778 71.0387L68.5124 71.3367L68.4567 71.887C67.6244 80.1126 67.4334 83.8418 67.8889 88.4771C68.4981 94.6511 70.4618 100.085 73.8696 104.161C78.1443 109.273 83.9338 112.474 89.2441 111.776C91.9276 111.423 96.1828 108.214 96.4417 105.543C96.5509 104.418 96.0944 103.52 95.206 102.88C94.641 102.473 94.1193 102.253 92.8687 101.816C92.466 101.676 92.3084 101.62 92.1011 101.542C91.4447 101.295 90.9818 101.073 90.6196 100.815C87.9958 98.9526 86.5733 96.9505 85.7283 94.4361C81.3665 81.4691 79.0866 72.6806 78.2195 63.7256L75.9522 63.9495C76.8402 73.1197 79.1566 82.0489 83.5695 95.1681C84.5631 98.1244 86.2704 100.527 89.301 102.679C89.8534 103.071 90.4757 103.371 91.2996 103.68C91.5288 103.766 91.6964 103.826 92.1159 103.972C93.8724 104.586 94.2219 104.838 94.1745 105.326C94.0352 106.762 90.6921 109.284 88.9512 109.513C84.5485 110.092 79.4416 107.268 75.6165 102.693ZM70.2019 72.9622C69.9825 73.1026 69.7809 73.0255 69.7107 72.7773L70.0268 72.687L70.2019 72.9622Z" fill="url(#paint1_linear)"/>
<path fill-rule="evenodd" clip-rule="evenodd" d="M102.173 33.5443C103.766 33.5331 105.27 32.5226 106.039 31.1325C106.088 31.1214 106.204 30.9037 106.204 30.8143C106.442 30.3175 106.597 29.7815 106.619 29.2177L106.243 29.8039C106.243 29.067 106.166 28.3245 105.9 27.6378C105.486 26.5547 104.446 25.6224 103.296 25.7229C102.605 25.7899 101.997 26.1975 101.504 26.6776C100.454 27.6992 99.7737 29.106 99.6078 30.5575C99.5304 31.3 99.5968 32.1039 100.05 32.679C100.531 33.3042 101.377 33.5443 102.173 33.5443ZM82.4332 27.2135C83.2129 28.6092 84.7169 29.6141 86.326 29.6252C87.1056 29.642 87.9572 29.3963 88.4493 28.7711C88.9027 28.1849 88.9635 27.381 88.8751 26.6441C88.7147 25.187 88.0291 23.7969 86.995 22.7753C86.4863 22.2896 85.8836 21.8709 85.1869 21.8206C84.0478 21.7146 83.0138 22.6469 82.5936 23.7187C82.3171 24.4222 82.2563 25.1479 82.2563 25.9016L81.8747 25.3154C81.9024 25.8904 82.0517 26.4375 82.2784 26.9344C82.2784 27.0125 82.3835 27.2023 82.4332 27.2135ZM139.116 56.9134C144.341 63.6014 146 70.6803 147.184 78.8031C148.162 78.63 149.08 77.9545 149.898 77.039C151.474 75.2748 153.49 72.9741 154.043 71.2937C154.359 70.3273 154.861 69.2501 155.384 68.1269C156.663 65.3832 158.07 62.365 157.211 60.016C154.811 53.4731 143.634 49.6503 136.771 50.471C137.302 47.0544 142.793 45.4689 146.089 44.5589C153.78 42.4263 184.004 57.3153 162.279 79.875C160.016 82.2207 152.421 84.8821 147.445 86.293C147.409 86.4727 147.358 86.6418 147.292 86.7995C146.729 88.1362 145.917 89.3105 144.897 90.3396L145.075 90.3436C142.414 94.1123 140 100.142 140.145 104.024C140.274 107.487 143.018 109.97 145.68 112.378C146.318 112.955 146.951 113.527 147.542 114.108C151.835 118.319 154.496 124.778 152.551 130.466C151.745 132.822 149.777 135.115 147.306 134.996C144.989 134.885 143.274 132.708 142.547 130.499C142.198 129.437 141.999 128.334 141.801 127.231C141.587 126.038 141.373 124.845 140.968 123.708C138.714 117.382 131.492 114.598 125.053 112.777C118.618 110.947 111.363 108.717 108.391 102.695C107.426 100.742 107.043 98.6185 106.817 96.4445C98.2614 95.6603 91.7933 94.3788 91.7933 94.3788C91.7933 94.3788 82.8589 91.1003 76.9452 88.1974C74.4064 96.6329 65.9899 113.864 63.1443 117.698C59.8116 122.182 54.3603 125.299 48.7853 124.922C46.9364 124.793 44.6378 123.594 45.0481 121.783C45.2764 120.782 46.2336 120.214 47.1424 119.674L47.1426 119.673L47.1428 119.673C47.3075 119.575 47.4707 119.479 47.6276 119.38C50.9659 117.27 52.4046 113.185 53.4499 109.371C56.3048 98.9508 57.4908 86.2817 57.9179 75.4847L59.4176 76.188C61.0543 49.9638 72.3494 24.3301 91.7449 5C91.3565 5.39212 93.1913 8.70879 93.9481 10.0767C94.0748 10.3058 94.1713 10.4802 94.2221 10.5771C94.9796 12.0174 96.0081 13.1786 97.5343 13.9714C99.4585 14.9818 101.731 15.6183 103.727 14.8534C105.746 14.0704 105.795 14.0406 106.312 13.7207C106.614 13.5343 107.075 13.2494 108.179 12.6594C108.179 19.0349 111.955 44.5589 111.966 44.5589C122.599 44.0174 132.519 48.4668 139.116 56.9134Z" fill="url(#paint2_linear)"/>
<path d="M97.1328 38.7363C94.3665 38.7363 93.0627 31.7363 93.0627 31.7363C93.0627 31.7363 89.2904 39.3976 86.1328 37.7394" stroke="#2D2B1A" stroke-width="2"/>
<path d="M99.7688 96L101.987 96.3678C100.566 105.115 98.9461 110.771 97.0356 113.453C96.096 114.771 94.8522 115.729 92.0981 117.508C92.0576 117.534 91.6706 117.784 91.5576 117.857C91.3527 117.989 91.1857 118.098 91.0269 118.202C87.8402 120.288 86.8692 121.449 87.3943 122.628C88.0681 124.141 91.3111 125.54 94.9804 125.711C99.1103 125.903 102.64 124.576 104.284 121.923C104.798 121.094 105.269 120.21 105.714 119.255C106.277 118.046 106.77 116.79 107.326 115.208C107.391 115.024 108.34 112.24 108.608 111.519C109.816 108.259 110.94 106.757 113 106.757V109.027C112.265 109.027 111.604 109.909 110.713 112.315C110.458 113.003 109.518 115.758 109.445 115.967C108.867 117.614 108.348 118.935 107.748 120.222C107.267 121.255 106.753 122.219 106.19 123.128C104.046 126.586 99.7391 128.205 94.8769 127.979C90.4512 127.773 86.4522 126.048 85.344 123.559C84.6727 122.052 85.0093 120.594 86.1321 119.253C86.9199 118.311 87.986 117.487 89.8039 116.296C89.9668 116.19 90.1373 116.079 90.3454 115.944C90.4595 115.87 90.847 115.62 90.8868 115.595C93.3829 113.982 94.502 113.121 95.2108 112.126C96.8519 109.823 98.4022 104.409 99.7688 96Z" fill="url(#paint3_linear)"/>
<path fill-rule="evenodd" clip-rule="evenodd" d="M77.3411 90.589C73.4599 106.266 69.8459 116.172 66.3989 120.43C61.2495 126.79 55.363 128.556 48.1489 126.376C42.9263 124.798 42.6156 121.672 47.3231 118.736L47.4456 118.66L47.5831 118.617C49.085 118.145 50.0975 117.215 50.6922 115.762C51.9698 112.642 53.8729 103.251 55.8955 88.7918C55.9908 88.1111 56.2449 86.1957 56.4675 84.5173L56.4676 84.5172C56.6233 83.3434 56.7636 82.2856 56.8235 81.8471C57.244 78.7665 57.6434 76.1328 58.1128 73.4477C59.3413 66.4204 60.9364 59.7893 63.1486 53.0525C68.8756 35.6113 78.2768 19.0134 92.6689 3.02222L95.3889 0L94.6283 4.00388C94.2093 6.21006 94.5622 8.25093 95.5089 10.0426C96.2401 11.4265 97.303 12.5709 98.1716 13.0869C99.3805 13.805 100.609 14.0899 102.376 13.714C105.073 13.1404 108.364 11.0262 112.312 6.9185L114.668 4.46759L114.258 7.85119C114.255 7.87165 114.24 7.99443 114.215 8.18701L114.214 8.19378L114.214 8.19444C114.11 9.00115 113.851 11.0032 113.75 11.8761C113.326 15.5299 113.101 18.9931 113.129 22.7494C113.154 25.9492 113.504 31.5972 114.18 39.6746C124.03 40.4692 131.826 44.0151 137.546 50.2727L138.044 49.1251C139.676 45.3643 144.13 42.9416 151.291 41.7137C156.522 40.8167 161.979 43.4832 166.364 48.5049C170.415 53.1445 173 59.2257 173 64.3553C173 69.2493 169.803 74.6172 164.74 79.24C160.222 83.3666 154.895 86.2136 151.482 86.2136H148.304C143.415 98.1204 143.047 105.959 146.894 109.772C147.122 109.997 147.678 110.543 148.275 111.129C149.03 111.869 149.851 112.674 150.16 112.982C151.342 114.159 152.219 115.084 152.991 115.985C156.593 120.191 157.865 124.092 156.969 129.72L156.961 129.773L156.947 129.825C155.998 133.512 153.937 135.833 151.169 136.668C148.847 137.369 146.209 136.927 144.162 135.651C143.173 135.034 142.548 134.116 142.178 132.902C141.917 132.044 141.807 131.257 141.658 129.586C141.498 127.798 141.418 127.127 141.215 126.207C140.884 124.706 140.335 123.486 139.443 122.43C137.43 120.046 133.519 118.191 123.545 114.38L123.006 114.174C118.615 112.496 116.434 111.621 114.173 110.583C111.767 109.477 110.051 108.222 108.889 106.784C107.584 105.168 107.2 103.959 106.769 101.292C106.559 99.9874 106.391 99.4348 106.026 99.0164C105.958 98.9876 105.863 98.9521 105.743 98.9122C105.442 98.8124 105.02 98.694 104.485 98.5595C103.536 98.321 102.29 98.0443 100.603 97.6915C100.316 97.6315 100.015 97.5689 99.6868 97.5013C99.8265 97.5301 96.6456 96.8778 95.8744 96.7154C94.5665 96.4401 93.7191 96.2467 93.2009 96.0985C86.3433 94.1381 81.0613 92.3049 77.3411 90.589ZM60.352 73.8436C61.5625 66.9193 63.1322 60.3939 65.3075 53.7695C70.6519 37.4934 79.2525 21.9622 92.2369 6.95601C92.3852 8.43141 92.8209 9.82803 93.5011 11.1154C94.4247 12.8633 95.7782 14.3206 97.0153 15.0555C98.678 16.0432 100.464 16.4575 102.846 15.951C105.436 15.4002 108.331 13.7519 111.589 10.8041C111.55 11.1166 111.516 11.3966 111.491 11.6112C111.057 15.3522 110.827 18.9066 110.856 22.7667C110.882 26.1698 111.262 32.1882 111.997 40.8433L112.08 41.8269L113.06 41.8871C131.981 43.0488 142.93 54.5236 146.091 76.6331C146.033 77.5123 146.036 78.1446 146.114 78.5823L146.33 79.8092L147.527 79.487C153.558 77.8637 157.05 72.7765 157.991 64.4849C158.927 56.236 153.063 50.9793 140.913 48.7334C142.65 46.521 146.213 44.9038 151.673 43.9676C156.015 43.2231 160.744 45.534 164.655 50.0134C168.362 54.2591 170.726 59.8202 170.726 64.3553C170.726 68.4797 167.846 73.3157 163.212 77.5474C159.072 81.328 154.209 83.9272 151.482 83.9272H146.963L146.963 85.3279L146.5 84.6258C141.009 97.7052 140.5 106.645 145.298 111.4C145.531 111.632 146.097 112.186 146.7 112.778C147.45 113.513 148.259 114.306 148.56 114.607C149.703 115.745 150.542 116.63 151.268 117.477C154.441 121.183 155.501 124.408 154.733 129.304C153.971 132.214 152.478 133.886 150.516 134.478C148.846 134.982 146.875 134.652 145.36 133.708C144.465 133.149 144.174 132.193 143.922 129.381C143.754 127.492 143.666 126.762 143.435 125.712C143.029 123.871 142.327 122.314 141.176 120.95C139.821 119.345 137.526 117.857 134.199 116.28C131.736 115.112 129.453 114.192 124.353 112.243L123.813 112.037C119.469 110.376 117.318 109.514 115.118 108.503C113.012 107.536 111.579 106.487 110.654 105.342C109.671 104.126 109.384 103.221 109.014 100.926C108.715 99.076 108.428 98.2071 107.567 97.3267C107.016 96.7625 105.471 96.3741 101.066 95.453C100.777 95.3925 100.474 95.3296 100.144 95.2616C100.278 95.2892 97.1046 94.6385 96.3403 94.4775C95.0861 94.2135 94.2712 94.0275 93.8226 93.8993C86.2629 91.7382 80.6763 89.7436 77.0822 87.9294L75.8072 87.2858L75.468 88.6793C71.5405 104.815 67.8933 114.962 64.6358 118.986C60.0721 124.623 55.1422 126.102 48.8031 124.187C47.8443 123.897 47.139 123.586 46.6975 123.274C46.5201 123.148 46.3992 123.032 46.3295 122.933C46.2889 122.875 46.2745 122.838 46.2716 122.808C46.2382 122.473 46.8835 121.718 48.4054 120.752C50.4759 120.061 51.9613 118.668 52.7945 116.633C54.1696 113.274 56.0976 103.761 58.1469 89.1103C58.2435 88.4202 58.4998 86.4881 58.7232 84.8043L58.7232 84.8039C58.878 83.6374 59.0169 82.5903 59.0759 82.158C59.4928 79.1037 59.8881 76.4971 60.352 73.8436ZM147.547 86.2136H146.963L146.963 85.3279L147.547 86.2136ZM148.375 76.5497L148.358 76.4295C146.783 65.2946 143.252 56.6517 137.785 50.5364L138.912 50.712C151.128 52.6145 156.539 57.1119 155.732 64.2257C154.971 70.9316 152.516 75.0581 148.359 76.7954C148.36 76.7713 148.362 76.7469 148.363 76.7223C148.365 76.7052 148.366 76.6881 148.367 76.6708L148.375 76.5497Z" fill="#4D4A2F"/>
<defs>
<filter id="filter0_f" x="0.969975" y="92.8943" width="220.274" height="77.5173" filterUnits="userSpaceOnUse" color-interpolation-filters="sRGB">
<feFlood flood-opacity="0" result="BackgroundImageFix"/>
<feBlend mode="normal" in="SourceGraphic" in2="BackgroundImageFix" result="shape"/>
<feGaussianBlur stdDeviation="16.3097" result="effect1_foregroundBlur"/>
</filter>
<linearGradient id="paint0_linear" x1="33.3327" y1="132.031" x2="165.481" y2="138.956" gradientUnits="userSpaceOnUse">
<stop stop-color="#797979"/>
<stop offset="0.788364" stop-color="#080808"/>
<stop offset="1" stop-color="#636363"/>
</linearGradient>
<linearGradient id="paint1_linear" x1="74.248" y1="62.5113" x2="63.4651" y2="97.7804" gradientUnits="userSpaceOnUse">
<stop stop-color="#3D3922"/>
<stop offset="1" stop-color="#3D3922"/>
</linearGradient>
<linearGradient id="paint2_linear" x1="62.1499" y1="65.5997" x2="72.505" y2="139.879" gradientUnits="userSpaceOnUse">
<stop stop-color="#3D3922"/>
<stop offset="1" stop-color="#706B47"/>
</linearGradient>
<linearGradient id="paint3_linear" x1="87.2119" y1="96" x2="87.2119" y2="122.944" gradientUnits="userSpaceOnUse">
<stop stop-color="#3D3922"/>
<stop offset="1" stop-color="#3D3922"/>
</linearGradient>
</defs>
</svg>
