<svg width="75" height="75" viewBox="0 0 75 75" fill="none" xmlns="http://www.w3.org/2000/svg">
<g clip-path="url(#clip0)">
<path d="M74.8554 41.4646C74.182 34.6907 71.156 28.3047 66.3346 23.4827C62.2142 19.3621 57.171 16.7141 51.8643 15.5367V11.8144C54.0318 11.2752 55.6428 9.3131 55.6428 6.98098C55.6428 4.23441 53.4086 2 50.6623 2H40.1152C37.3689 2 35.1347 4.23441 35.1347 6.98098C35.1347 9.31295 36.7457 11.275 38.913 11.8144V15.5471C33.6226 16.7295 28.5961 19.3738 24.4874 23.4828C23.5883 24.382 22.7592 25.3253 22.0002 26.3057C21.9635 26.3029 21.9267 26.3001 21.8892 26.3001H11.4504C10.6415 26.3001 9.98556 26.956 9.98556 27.7651C9.98556 28.5742 10.6415 29.2301 11.4504 29.2301H20.007C18.933 31.0284 18.0669 32.9169 17.4077 34.861H1.46487C0.655967 34.861 0 35.5168 0 36.326C0 37.1351 0.655967 37.7909 1.46487 37.7909H16.5799C16.1578 39.6443 15.9155 41.5305 15.8529 43.4219H9.37515C8.56625 43.4219 7.91028 44.0778 7.91028 44.8869C7.91028 45.696 8.56625 46.3519 9.37515 46.3519H15.8997C16.0233 48.2482 16.3281 50.1345 16.8143 51.9829H7.32433C6.51543 51.9829 5.85947 52.6388 5.85947 53.4479C5.85947 54.257 6.51543 54.9129 7.32433 54.9129H17.7492C19.1862 58.7147 21.432 62.278 24.4874 65.3337C29.3136 70.1603 35.7057 73.1872 42.486 73.8572C43.4537 73.9527 44.4221 74 45.3892 74C51.1054 74 56.7489 72.3456 61.5376 69.2269C62.2155 68.7854 62.4073 67.8778 61.9658 67.1998C61.5243 66.5218 60.6168 66.33 59.9388 66.7716C49.4567 73.598 35.4184 72.122 26.5591 63.2619C16.1641 52.866 16.1641 35.9508 26.5591 25.5547C36.9539 15.159 53.8677 15.159 64.2628 25.5547C73.1105 34.4033 74.5944 48.4307 67.7911 58.9087C67.3505 59.5873 67.5434 60.4947 68.2218 60.9352C68.9006 61.3759 69.8076 61.1829 70.2481 60.5043C73.883 54.9059 75.5193 48.1442 74.8554 41.4646ZM38.0644 6.98112C38.0644 5.85015 38.9844 4.93013 40.1152 4.93013H50.6623C51.7931 4.93013 52.7131 5.85015 52.7131 6.98112C52.7131 8.1121 51.7931 9.03211 50.6623 9.03211H50.3995H40.3779H40.1152C38.9844 9.03211 38.0644 8.11195 38.0644 6.98112ZM41.8427 15.0434V11.9621H48.9346V15.0381C46.5797 14.758 44.1972 14.7598 41.8427 15.0434Z" fill="url(#paint0_linear)"/>
<path d="M65.2998 62.3301C64.9131 62.3301 64.5366 62.4868 64.2643 62.7593C63.9904 63.0317 63.835 63.4097 63.835 63.7949C63.835 64.1802 63.9904 64.5581 64.2643 64.8306C64.5366 65.1045 64.9132 65.2598 65.2998 65.2598C65.6851 65.2598 66.0615 65.1045 66.3355 64.8306C66.6079 64.5581 66.7646 64.1802 66.7646 63.7949C66.7646 63.4097 66.6081 63.0317 66.3355 62.7593C66.0615 62.4868 65.6849 62.3301 65.2998 62.3301Z" fill="url(#paint1_linear)"/>
<path d="M45.4109 21.1816C32.8807 21.1816 22.6865 31.3756 22.6865 43.906C22.6865 56.4363 32.8807 66.6303 45.4109 66.6303C57.941 66.6303 68.1352 56.4363 68.1352 43.906C68.1352 31.3756 57.941 21.1816 45.4109 21.1816ZM45.4109 63.7006C34.496 63.7006 25.6163 54.8207 25.6163 43.906C25.6163 32.9913 34.496 24.1114 45.4109 24.1114C56.3257 24.1114 65.2055 32.9913 65.2055 43.906C65.2055 54.8207 56.3257 63.7006 45.4109 63.7006Z" fill="url(#paint2_linear)"/>
<path d="M54.6771 32.5677L47.4216 39.823C46.8149 39.523 46.1324 39.3535 45.411 39.3535C44.6894 39.3535 44.007 39.523 43.4003 39.823L40.1531 36.5759C39.581 36.0038 38.6537 36.0038 38.0814 36.5759C37.5093 37.1479 37.5093 38.0754 38.0814 38.6475L41.3285 41.8946C41.0284 42.5014 40.859 43.1839 40.859 43.9053C40.859 46.4152 42.9009 48.4573 45.411 48.4573C47.921 48.4573 49.9629 46.4152 49.9629 43.9053C49.9629 43.1839 49.7934 42.5014 49.4934 41.8946L56.5359 34.8522L56.7487 34.6393C57.3208 34.0673 57.3208 33.1397 56.7487 32.5677C56.1767 31.9957 55.2495 31.9957 54.6771 32.5677ZM45.411 45.5277C44.5165 45.5277 43.7888 44.7999 43.7888 43.9055C43.7888 43.011 44.5165 42.2833 45.411 42.2833C46.3054 42.2833 47.0332 43.011 47.0332 43.9055C47.0332 44.7999 46.3054 45.5277 45.411 45.5277Z" fill="url(#paint3_linear)"/>
<path d="M61.073 42.4609H59.7158C58.9069 42.4609 58.251 43.1167 58.251 43.9258C58.251 44.7348 58.9069 45.3906 59.7158 45.3906H61.073C61.8819 45.3906 62.5378 44.7348 62.5378 43.9258C62.5378 43.1167 61.8819 42.4609 61.073 42.4609Z" fill="url(#paint4_linear)"/>
<path d="M31.1061 42.4238H29.749C28.9401 42.4238 28.2842 43.0796 28.2842 43.8887C28.2842 44.6977 28.9401 45.3535 29.749 45.3535H31.1061C31.9149 45.3535 32.5709 44.6977 32.5709 43.8887C32.5709 43.0796 31.9149 42.4238 31.1061 42.4238Z" fill="url(#paint5_linear)"/>
<path d="M45.4287 31.066C46.2376 31.066 46.8936 30.4102 46.8936 29.6012V28.2441C46.8936 27.4351 46.2376 26.7793 45.4287 26.7793C44.6198 26.7793 43.9639 27.4351 43.9639 28.2441V29.6012C43.9639 30.4102 44.6198 31.066 45.4287 31.066Z" fill="url(#paint6_linear)"/>
<path d="M45.3926 56.7461C44.5837 56.7461 43.9277 57.4019 43.9277 58.2109V59.568C43.9277 60.377 44.5837 61.0328 45.3926 61.0328C46.2015 61.0328 46.8574 60.377 46.8574 59.568V58.2109C46.8574 57.4019 46.2015 56.7461 45.3926 56.7461Z" fill="url(#paint7_linear)"/>
<path d="M1.46484 51.4805C1.07959 51.4805 0.70166 51.6372 0.429199 51.9097C0.156738 52.1821 0 52.5601 0 52.9453C0 53.332 0.156592 53.7085 0.429199 53.981C0.701807 54.2534 1.07959 54.4102 1.46484 54.4102C1.8501 54.4102 2.22803 54.2534 2.50034 53.981C2.7728 53.7085 2.92969 53.3306 2.92969 52.9453C2.92969 52.5601 2.77295 52.1821 2.50034 51.9097C2.22803 51.6372 1.8501 51.4805 1.46484 51.4805Z" fill="url(#paint8_linear)"/>
</g>
<defs>
<linearGradient id="paint0_linear" x1="56.9729" y1="10.4697" x2="0.264307" y2="33.7034" gradientUnits="userSpaceOnUse">
<stop stop-color="#FF803B"/>
<stop offset="1" stop-color="#FF9100"/>
</linearGradient>
<linearGradient id="paint1_linear" x1="66.0605" y1="62.6747" x2="63.82" y2="63.5559" gradientUnits="userSpaceOnUse">
<stop stop-color="#FF803B"/>
<stop offset="1" stop-color="#FF9100"/>
</linearGradient>
<linearGradient id="paint2_linear" x1="57.2111" y1="26.528" x2="22.455" y2="40.1981" gradientUnits="userSpaceOnUse">
<stop stop-color="#FF803B"/>
<stop offset="1" stop-color="#FF9100"/>
</linearGradient>
<linearGradient id="paint3_linear" x1="52.4846" y1="34.0583" x2="38.3692" y2="40.7011" gradientUnits="userSpaceOnUse">
<stop stop-color="#FF803B"/>
<stop offset="1" stop-color="#FF9100"/>
</linearGradient>
<linearGradient id="paint4_linear" x1="61.5074" y1="42.8056" x2="58.6639" y2="44.4421" gradientUnits="userSpaceOnUse">
<stop stop-color="#FF803B"/>
<stop offset="1" stop-color="#FF9100"/>
</linearGradient>
<linearGradient id="paint5_linear" x1="31.5405" y1="42.7685" x2="28.697" y2="44.4049" gradientUnits="userSpaceOnUse">
<stop stop-color="#FF803B"/>
<stop offset="1" stop-color="#FF9100"/>
</linearGradient>
<linearGradient id="paint6_linear" x1="46.1894" y1="27.2836" x2="43.7767" y2="27.9321" gradientUnits="userSpaceOnUse">
<stop stop-color="#FF803B"/>
<stop offset="1" stop-color="#FF9100"/>
</linearGradient>
<linearGradient id="paint7_linear" x1="46.1532" y1="57.2504" x2="43.7406" y2="57.8989" gradientUnits="userSpaceOnUse">
<stop stop-color="#FF803B"/>
<stop offset="1" stop-color="#FF9100"/>
</linearGradient>
<linearGradient id="paint8_linear" x1="2.2255" y1="51.8251" x2="-0.014923" y2="52.7063" gradientUnits="userSpaceOnUse">
<stop stop-color="#FF803B"/>
<stop offset="1" stop-color="#FF9100"/>
</linearGradient>
<clipPath id="clip0">
<rect width="75" height="75" fill="white"/>
</clipPath>
</defs>
</svg>
