<svg width="21" height="19" viewBox="0 0 21 19" fill="none" xmlns="http://www.w3.org/2000/svg">
<path fill-rule="evenodd" clip-rule="evenodd" d="M15.7192 4.09591e-05C17.2057 4.09591e-05 18.5634 0.605089 19.5422 1.70373C20.4823 2.75884 21 4.17439 21 5.68967C21 9.58103 17.1519 12.8973 11.9096 17.4152C11.5361 17.7371 11.1554 18.0652 10.7686 18.3999C10.6915 18.4667 10.5958 18.5 10.5 18.5C10.4042 18.5 10.3085 18.4667 10.2314 18.3999C9.83979 18.061 9.45444 17.729 9.07628 17.4031C3.85201 12.9015 0 9.58237 0 5.68967C0 2.59931 2.16948 0 5.28076 0C6.90621 0 8.38938 0.629173 9.56993 1.81957C9.98045 2.23354 10.2873 2.64702 10.5 2.97515C10.7127 2.64698 11.0195 2.23346 11.4301 1.81957C12.6106 0.629214 14.0938 4.09591e-05 15.7192 4.09591e-05ZM9.59457 16.7667C9.89206 17.0231 10.194 17.2833 10.5 17.5477C10.8736 17.2249 11.2435 16.9069 11.6083 16.5933C16.3215 12.541 20.1797 9.22377 20.1797 5.68881C20.1797 2.91219 18.2622 0.818359 15.7193 0.818359C14.3073 0.818359 13.0671 1.34202 12.0332 2.37485C11.2454 3.16171 10.8779 3.96467 10.8743 3.9727C10.8079 4.11958 10.6614 4.21432 10.5002 4.21432H10.4994C10.3381 4.21399 10.1918 4.11962 10.1258 3.9727C10.1222 3.96467 9.75462 3.16167 8.96688 2.37485C7.93287 1.34206 6.69268 0.818359 5.28076 0.818359C2.73787 0.818359 0.820312 2.91219 0.820312 5.68881C0.820312 9.20525 4.56542 12.4327 9.59457 16.7667Z" fill="#4D4A2F"/>
</svg>
