<svg width="23" height="20" viewBox="0 0 23 20" fill="none" xmlns="http://www.w3.org/2000/svg">
<path d="M21.3564 2.95179C20.2527 1.69067 18.7219 0.996141 17.0459 0.996141C15.2133 0.996141 13.541 1.71836 12.2099 3.08475C11.747 3.55985 11.4011 4.03453 11.1612 4.41123C10.9214 4.03458 10.5754 3.55995 10.1126 3.08475C8.7815 1.71831 7.10923 0.996094 5.27653 0.996094C1.76855 0.996094 0 2.33091 0 5.8783C0 10.6701 5.80517 14.1178 12.3464 19.8812C12.4333 19.9578 12.5413 19.9961 12.6493 19.9961C12.7573 19.9961 12.8652 19.9578 12.9521 19.8812C19.509 14.104 23 12.3123 23 7.52719C23 5.78782 22.4163 4.16293 21.3564 2.95179Z" fill="#FF803B"/>
</svg>
