<svg width="88" height="32" viewBox="0 0 88 32" fill="none" xmlns="http://www.w3.org/2000/svg">
<path fill-rule="evenodd" clip-rule="evenodd" d="M18.2044 27.2285V30.2897H17.9017V27.761L16.0164 30.2897H15.7554V27.2285H16.0521V29.7572L17.9434 27.2285H18.2044Z" fill="#7E7A5C"/>
<path fill-rule="evenodd" clip-rule="evenodd" d="M22.4898 27.2285V30.2897H22.1875V28.9061H20.3372V30.2897H20.0408V27.2285H20.3372V28.6122H22.1875V27.2285H22.4898Z" fill="#7E7A5C"/>
<path fill-rule="evenodd" clip-rule="evenodd" d="M25.551 27.5285H24.4741V30.2897H24.1789V27.5285H23.1021V27.2285H25.551V27.5285Z" fill="#7E7A5C"/>
<path fill-rule="evenodd" clip-rule="evenodd" d="M26.4215 28.4367H29.0341C28.9626 27.6422 28.4038 27.2 27.7665 27.2C27.026 27.2 26.4866 27.7139 26.4215 28.4367ZM29.3721 28.5989C29.3721 28.6512 29.3656 28.7029 29.3656 28.7551H26.4217C26.4997 29.4904 27.0585 29.9724 27.7995 29.9724C28.3325 29.9724 28.7353 29.7247 28.9236 29.3799L29.2096 29.5491C28.9434 29.9918 28.4368 30.2848 27.7931 30.2848C26.7923 30.2848 26.084 29.569 26.084 28.586C26.084 27.6289 26.7729 26.8867 27.7668 26.8867C28.7547 26.8867 29.3721 27.7075 29.3721 28.5989Z" fill="#7E7A5C"/>
<path fill-rule="evenodd" clip-rule="evenodd" d="M33.2451 28.5864C33.2451 27.8119 32.6406 27.2 31.8673 27.2C31.094 27.2 30.4895 27.8119 30.4895 28.5864C30.4895 29.3609 31.094 29.9728 31.8673 29.9728C32.6406 29.9728 33.2451 29.3609 33.2451 28.5864ZM33.5703 28.5865C33.5703 29.5495 32.8164 30.2853 31.8871 30.2853C31.2568 30.2853 30.7561 29.9599 30.4899 29.4585V31.5155H30.165V26.9593H30.4899V27.7145C30.7561 27.213 31.2568 26.8877 31.8871 26.8877C32.8164 26.8877 33.5703 27.6229 33.5703 28.5865Z" fill="#7E7A5C"/>
<path fill-rule="evenodd" clip-rule="evenodd" d="M37.0738 26.958V30.2123H36.7425V28.7414H34.7145V30.2123H34.3896V26.958H34.7145V28.429H36.7425V26.958H37.0738Z" fill="#7E7A5C"/>
<path fill-rule="evenodd" clip-rule="evenodd" d="M38.2242 28.4367H40.8368C40.7653 27.6422 40.2065 27.2 39.5693 27.2C38.8287 27.2 38.2893 27.7139 38.2242 28.4367ZM41.1743 28.5989C41.1743 28.6512 41.1679 28.7029 41.1679 28.7551H38.224C38.302 29.4904 38.8607 29.9724 39.6018 29.9724C40.1347 29.9724 40.5376 29.7247 40.7258 29.3799L41.0119 29.5491C40.7452 29.9918 40.2386 30.2848 39.5953 30.2848C38.594 30.2848 37.8857 29.569 37.8857 28.586C37.8857 27.6289 38.5746 26.8867 39.569 26.8867C40.5569 26.8867 41.1743 27.7075 41.1743 28.5989Z" fill="#7E7A5C"/>
<path fill-rule="evenodd" clip-rule="evenodd" d="M44.1124 27.2769H42.9293V30.2123H42.6045V27.2769H41.4219V26.958H44.1124V27.2769Z" fill="#7E7A5C"/>
<mask id="mask0" mask-type="alpha" maskUnits="userSpaceOnUse" x="0" y="0" width="89" height="32">
<path fill-rule="evenodd" clip-rule="evenodd" d="M0.000244141 32H88.0002V0H0.000244141V32Z" fill="white"/>
</mask>
<g mask="url(#mask0)">
<path fill-rule="evenodd" clip-rule="evenodd" d="M44.5999 28.358H46.9398V28.0457H44.5999V28.358Z" fill="#7E7A5C"/>
<path fill-rule="evenodd" clip-rule="evenodd" d="M51.1706 30.2123H50.8393V27.4525L49.6239 29.3726H49.5782L48.3568 27.4395V30.2123H48.0315V26.958H48.4149L49.5981 28.8259L50.7807 26.958H51.1706V30.2123Z" fill="#7E7A5C"/>
<path fill-rule="evenodd" clip-rule="evenodd" d="M55.0635 28.5864C55.0635 27.8119 54.4654 27.2 53.6921 27.2C52.9188 27.2 52.3143 27.8119 52.3143 28.5864C52.3143 29.3609 52.9188 29.9728 53.6921 29.9728C54.4654 29.9728 55.0635 29.3609 55.0635 28.5864ZM55.3947 26.9593V30.2136H55.0634V29.4784C54.7907 29.9664 54.29 30.2853 53.6662 30.2853C52.7433 30.2853 51.9829 29.5495 51.9829 28.5865C51.9829 27.6229 52.7433 26.8877 53.6662 26.8877C54.29 26.8877 54.7907 27.2066 55.0634 27.6946V26.9593H55.3947Z" fill="#7E7A5C"/>
<path fill-rule="evenodd" clip-rule="evenodd" d="M58.4631 27.2769H56.754V30.2123H56.4287V26.958H58.4631V27.2769Z" fill="#7E7A5C"/>
<path fill-rule="evenodd" clip-rule="evenodd" d="M61.8034 28.5864C61.8034 27.8119 61.2053 27.2 60.432 27.2C59.6587 27.2 59.0542 27.8119 59.0542 28.5864C59.0542 29.3609 59.6587 29.9728 60.432 29.9728C61.2053 29.9728 61.8034 29.3609 61.8034 28.5864ZM62.1352 26.9593V30.2136H61.8034V29.4784C61.5307 29.9664 61.03 30.2853 60.4062 30.2853C59.4833 30.2853 58.7229 29.5495 58.7229 28.5865C58.7229 27.6229 59.4833 26.8877 60.4062 26.8877C61.03 26.8877 61.5307 27.2066 61.8034 27.6946V26.9593H62.1352Z" fill="#7E7A5C"/>
<path fill-rule="evenodd" clip-rule="evenodd" d="M65.3454 29.3406C65.3454 29.8356 64.949 30.2843 64.1499 30.2843C63.4217 30.2843 63.0447 29.946 62.8823 29.5162L63.162 29.3536C63.2851 29.7182 63.5841 29.9724 64.1499 29.9724C64.7022 29.9724 65.0141 29.6988 65.0141 29.3212C65.0141 28.9695 64.7409 28.7223 64.2994 28.7223H63.8509V28.4034H64.1757C64.5979 28.4034 64.8582 28.1691 64.8582 27.8045C64.8582 27.4598 64.5527 27.1991 64.0913 27.1991C63.6621 27.1991 63.3502 27.3881 63.2136 27.7264L62.9409 27.5702C63.1163 27.1732 63.4997 26.8867 64.0913 26.8867C64.7802 26.8867 65.183 27.31 65.183 27.7916C65.183 28.1104 65.027 28.3905 64.728 28.5338C65.1244 28.6636 65.3454 28.9695 65.3454 29.3406Z" fill="#7E7A5C"/>
<path fill-rule="evenodd" clip-rule="evenodd" d="M68.7769 26.958V30.2123H68.4456V27.5241L66.3789 30.2123H66.0928V26.958H66.4181V29.6462L68.4908 26.958H68.7769Z" fill="#7E7A5C"/>
<path fill-rule="evenodd" clip-rule="evenodd" d="M72.4942 26.958V30.2123H72.1629V28.7414H70.1354V30.2123H69.8101V26.958H70.1354V28.429H72.1629V26.958H72.4942Z" fill="#7E7A5C"/>
<path fill-rule="evenodd" clip-rule="evenodd" d="M8.03433 10.8814H5.52506V18.5048H3.29443V10.8814H0.785156V8.73145H8.03433V10.8814Z" fill="#4D4A2F"/>
<path fill-rule="evenodd" clip-rule="evenodd" d="M16.6084 8.73047V18.5038H14.3782V14.6223H11.3112V18.5038H9.08057V8.73047H11.3112V12.4723H14.3782V8.73047H16.6084Z" fill="#4D4A2F"/>
<path fill-rule="evenodd" clip-rule="evenodd" d="M24.4847 16.3544V18.5048H18.3511V8.73145H24.4151V10.8814H20.5817V12.5011H24.0665V14.6232H20.5817V16.3544H24.4847Z" fill="#4D4A2F"/>
</g>
<mask id="mask1" mask-type="alpha" maskUnits="userSpaceOnUse" x="25" y="8" width="11" height="11">
<path fill-rule="evenodd" clip-rule="evenodd" d="M33.4548 8.95898L30.8117 13.2339L28.1685 8.95898H25.9431V18.582H28.1685V12.9866L30.6863 17.0695H30.9366L33.4548 12.9866V18.582H35.6802V8.95898H33.4548Z" fill="white"/>
</mask>
<g mask="url(#mask1)">
<path fill-rule="evenodd" clip-rule="evenodd" d="M33.4548 8.95898L30.8117 13.2339L28.1685 8.95898H25.9431V18.582H28.1685V12.9866L30.6863 17.0695H30.9366L33.4548 12.9866V18.582H35.6802V8.95898H33.4548Z" fill="url(#paint0_linear)"/>
</g>
<mask id="mask2" mask-type="alpha" maskUnits="userSpaceOnUse" x="37" y="8" width="7" height="11">
<path fill-rule="evenodd" clip-rule="evenodd" d="M37.2205 8.95898V18.582H43.557V16.4646H39.5249V14.7601H43.1249V12.6707H39.5249V11.0764H43.4851V8.95898H37.2205Z" fill="white"/>
</mask>
<g mask="url(#mask2)">
<path fill-rule="evenodd" clip-rule="evenodd" d="M37.2205 8.95898V18.582H43.557V16.4646H39.5249V14.7601H43.1249V12.6707H39.5249V11.0764H43.4851V8.95898H37.2205Z" fill="url(#paint1_linear)"/>
</g>
<mask id="mask3" mask-type="alpha" maskUnits="userSpaceOnUse" x="44" y="8" width="8" height="11">
<path fill-rule="evenodd" clip-rule="evenodd" d="M44.5671 8.95898V18.582H48.5792C50.2848 18.582 51.6636 17.4682 51.6636 15.7637C51.6636 14.788 51.1993 14.045 50.4895 13.592C51.0078 13.1379 51.3218 12.5056 51.3218 11.7082C51.3218 10.0449 49.9707 8.95898 48.3065 8.95898H44.5671ZM46.7499 11.0205H48.3058C48.8104 11.0205 49.1381 11.3775 49.1381 11.8732C49.1381 12.3679 48.7968 12.725 48.3058 12.725H46.7499V11.0205ZM46.7499 14.6779H48.5785C49.1245 14.6779 49.4794 15.0629 49.4794 15.5992C49.4794 16.1346 49.1245 16.52 48.5785 16.52H46.7499V14.6779Z" fill="white"/>
</mask>
<g mask="url(#mask3)">
<path fill-rule="evenodd" clip-rule="evenodd" d="M44.5671 8.95898V18.582H48.5792C50.2848 18.582 51.6636 17.4682 51.6636 15.7637C51.6636 14.788 51.1993 14.045 50.4895 13.592C51.0078 13.1379 51.3218 12.5056 51.3218 11.7082C51.3218 10.0449 49.9707 8.95898 48.3065 8.95898H44.5671ZM46.7499 11.0205H48.3058C48.8104 11.0205 49.1381 11.3775 49.1381 11.8732C49.1381 12.3679 48.7968 12.725 48.3058 12.725H46.7499V11.0205ZM46.7499 14.6779H48.5785C49.1245 14.6779 49.4794 15.0629 49.4794 15.5992C49.4794 16.1346 49.1245 16.52 48.5785 16.52H46.7499V14.6779Z" fill="url(#paint2_linear)"/>
</g>
<mask id="mask4" mask-type="alpha" maskUnits="userSpaceOnUse" x="53" y="8" width="7" height="11">
<path fill-rule="evenodd" clip-rule="evenodd" d="M53.1379 8.95898V18.582H59.4745V16.4646H55.4424V14.7601H59.0429V12.6707H55.4424V11.0764H59.4026V8.95898H53.1379Z" fill="white"/>
</mask>
<g mask="url(#mask4)">
<path fill-rule="evenodd" clip-rule="evenodd" d="M53.1379 8.95898V18.582H59.4745V16.4646H55.4424V14.7601H59.0429V12.6707H55.4424V11.0764H59.4026V8.95898H53.1379Z" fill="url(#paint3_linear)"/>
</g>
<mask id="mask5" mask-type="alpha" maskUnits="userSpaceOnUse" x="60" y="8" width="7" height="11">
<path fill-rule="evenodd" clip-rule="evenodd" d="M60.4658 8.95898V18.582H66.302V16.4646H62.7436V8.95898H60.4658Z" fill="white"/>
</mask>
<g mask="url(#mask5)">
<path fill-rule="evenodd" clip-rule="evenodd" d="M60.4658 8.95898V18.582H66.302V16.4646H62.7436V8.95898H60.4658Z" fill="url(#paint4_linear)"/>
</g>
<path fill-rule="evenodd" clip-rule="evenodd" d="M67.634 17.3731C67.634 16.6468 68.2335 16.0469 68.9582 16.0469C69.6834 16.0469 70.2829 16.6468 70.2829 17.3731C70.2829 18.0993 69.6834 18.6998 68.9582 18.6998C68.2335 18.6998 67.634 18.0993 67.634 17.3731Z" fill="#4D4A2F"/>
<path fill-rule="evenodd" clip-rule="evenodd" d="M74.0472 13.3386H75.72C76.3334 13.3386 76.8351 12.7939 76.8351 12.082C76.8351 11.3697 76.3334 10.8255 75.72 10.8255H74.0472V13.3386ZM75.106 15.2923H74.0465V18.5038H71.8159V8.73047H75.7194C77.5735 8.73047 79.0651 10.2243 79.0651 12.0813C79.0651 13.2816 78.3404 14.3705 77.2666 14.9153L79.3437 18.5038H76.9462L75.106 15.2923Z" fill="#4D4A2F"/>
<path fill-rule="evenodd" clip-rule="evenodd" d="M80.3203 15.3476V8.72949H82.5509V15.1521C82.5509 15.8923 82.8991 16.5205 84.0842 16.5205C85.2693 16.5205 85.618 15.8923 85.618 15.1521V8.72949H87.8481V15.3476C87.8481 17.4418 86.2309 18.6984 84.0842 18.6984C81.9375 18.6984 80.3203 17.4418 80.3203 15.3476Z" fill="#4D4A2F"/>
<mask id="mask6" mask-type="alpha" maskUnits="userSpaceOnUse" x="0" y="0" width="88" height="32">
<path fill-rule="evenodd" clip-rule="evenodd" d="M0 31.8367H87.551V0H0V31.8367Z" fill="white"/>
</mask>
<g mask="url(#mask6)">
</g>
<defs>
<linearGradient id="paint0_linear" x1="33.2456" y1="22.749" x2="39.7796" y2="11.2982" gradientUnits="userSpaceOnUse">
<stop stop-color="#FF9000"/>
<stop offset="1" stop-color="#FF803B"/>
</linearGradient>
<linearGradient id="paint1_linear" x1="40.6426" y1="23.1926" x2="49.2043" y2="17.0551" gradientUnits="userSpaceOnUse">
<stop stop-color="#FF9000"/>
<stop offset="1" stop-color="#FF803B"/>
</linearGradient>
<linearGradient id="paint2_linear" x1="48.1324" y1="22.2678" x2="55.5487" y2="15.2304" gradientUnits="userSpaceOnUse">
<stop stop-color="#FF9000"/>
<stop offset="1" stop-color="#FF803B"/>
</linearGradient>
<linearGradient id="paint3_linear" x1="56.5603" y1="23.1926" x2="65.122" y2="17.0551" gradientUnits="userSpaceOnUse">
<stop stop-color="#FF9000"/>
<stop offset="1" stop-color="#FF803B"/>
</linearGradient>
<linearGradient id="paint4_linear" x1="62.9743" y1="22.6261" x2="70.1635" y2="18.2029" gradientUnits="userSpaceOnUse">
<stop stop-color="#FF9000"/>
<stop offset="1" stop-color="#FF803B"/>
</linearGradient>
</defs>
</svg>
