<svg width="72" height="72" viewBox="0 0 72 72" fill="none" xmlns="http://www.w3.org/2000/svg">
<path d="M47.175 21.6758H12.15C11.075 22.2758 8.67 23.6408 7.65 24.3008C6.63 24.9608 6.075 24.5758 5.925 24.3008V26.7758H1.875V49.2008H7.05C7.83 49.2008 7.775 51.6508 7.65 52.8758H60V49.2008H49.95V42.9758L52.2 39.0008V26.7758C52.2 26.7758 49.7939 26.0802 48.75 24.9758C47.7691 23.938 47.175 21.6758 47.175 21.6758Z" fill="url(#paint0_linear)"/>
<path d="M28.9492 25.8008C28.4692 25.8008 26.2492 27.5008 25.1992 28.0508C25.1992 28.0508 28.8862 29.0477 30.8242 30.4508C32.4892 31.6562 34.3492 34.8008 34.3492 34.8008C34.4742 34.5258 35.2768 34.9212 35.9992 34.8008C37.3492 34.5758 36.5992 31.7258 36.5992 31.2008C36.5992 30.6758 35.0992 26.4008 34.7992 26.4008C34.4992 26.4008 29.5492 25.8008 28.9492 25.8008Z" fill="#E9EAEB"/>
<path d="M62.4168 12.043H0.128906V50.374H6.11812V55.1653H67.2082V15.6365H62.4168V12.043ZM2.52459 14.4387H60.0211V47.9783H2.52459V14.4387ZM64.8125 18.0322V52.7697H8.51381V50.374H62.4168V18.0322H64.8125Z" fill="#474216"/>
<path d="M36.0676 2.46061C43.5004 2.42025 50.8576 3.95674 57.654 6.96773L53.9692 7.95502L54.5898 10.2694L62.6892 8.0989L60.5187 0L58.2049 0.619393L59.4256 5.16746C52.1099 1.76752 44.1344 0.0245651 36.0676 0.0649222C26.1386 -0.0491303 16.3763 2.6197 7.88672 7.76902L9.15182 9.80559C17.2618 4.89256 26.5861 2.34831 36.0676 2.46061Z" fill="#474216"/>
<path d="M33.6706 66.3088C26.2379 66.3486 18.8807 64.8121 12.0855 61.8011L15.7685 60.8138L15.1479 58.5L7.05078 60.6705L9.22129 68.7688L11.5357 68.1494L10.3162 63.5979C17.6296 66.9995 25.6045 68.7431 33.6706 68.7045C43.5991 68.8185 53.3614 66.1497 61.851 60.9998L60.5859 58.9632C52.4758 63.8768 43.1522 66.4211 33.6706 66.3088Z" fill="#474216"/>
<path d="M31.273 24.0234C27.3034 24.0234 24.0859 27.2409 24.0859 31.2105C24.0859 35.1795 27.3034 38.3976 31.273 38.3976C35.242 38.3976 38.4601 35.1795 38.4601 31.2105C38.456 27.2426 35.2403 24.0269 31.273 24.0234ZM31.273 36.0019C28.6264 36.0019 26.4816 33.8565 26.4816 31.2105C26.4816 28.5639 28.6264 26.4191 31.273 26.4191C33.919 26.4191 36.0644 28.5639 36.0644 31.2105C36.0644 33.8565 33.919 36.0019 31.273 36.0019Z" fill="#474216"/>
<path d="M51.6378 18.0318V16.834H10.9111V18.0318C10.9111 20.6778 8.76574 22.8232 6.11972 22.8232H4.92188V39.593H6.11972C8.76574 39.593 10.9111 41.7378 10.9111 44.3844V45.5822H51.6378V44.3844C51.6378 41.7378 53.7826 39.593 56.4292 39.593H57.627V22.8232H56.4292C53.7826 22.8232 51.6378 20.6778 51.6378 18.0318ZM55.2313 37.2967C52.2174 37.812 49.8568 40.1726 49.3415 43.1865H13.2074C12.6921 40.1726 10.3309 37.812 7.31756 37.2967V25.1195C10.3309 24.6042 12.6921 22.243 13.2074 19.2297H49.3415C49.8568 22.243 52.2174 24.6042 55.2313 25.1195V37.2967Z" fill="#474216"/>
<path d="M43.25 30.0098H50.4371V32.4055H43.25V30.0098Z" fill="#474216"/>
<path d="M12.1094 30.0098H19.2964V32.4055H12.1094V30.0098Z" fill="#474216"/>
<defs>
<linearGradient id="paint0_linear" x1="40.1038" y1="25.346" x2="8.41796" y2="45.4478" gradientUnits="userSpaceOnUse">
<stop stop-color="#FF803B"/>
<stop offset="1" stop-color="#FF9100"/>
</linearGradient>
</defs>
</svg>
