<svg width="27" height="38" viewBox="0 0 27 38" fill="none" xmlns="http://www.w3.org/2000/svg">
<path d="M13.0378 0C5.84873 0 0 6.0944 0 13.5854C0 22.882 11.6676 36.5298 12.1643 37.1063C12.6309 37.6478 13.4456 37.6469 13.9113 37.1063C14.4081 36.5298 26.0757 22.882 26.0757 13.5854C26.0755 6.0944 20.2269 0 13.0378 0ZM13.0378 20.4206C9.42082 20.4206 6.47824 17.3543 6.47824 13.5854C6.47824 9.81645 9.42089 6.75028 13.0378 6.75028C16.6548 6.75028 19.5974 9.81653 19.5974 13.5855C19.5974 17.3544 16.6548 20.4206 13.0378 20.4206Z" fill="#FF803B"/>
</svg>
