<svg width="56" height="18" viewBox="0 0 56 18" fill="none" xmlns="http://www.w3.org/2000/svg">
<path d="M24.1528 17.8031H19.6001L22.4477 0.396484H27.0001L24.1528 17.8031Z" fill="#00579F"/>
<path d="M40.6 0.741829C39.7057 0.389269 38.2874 0 36.5336 0C32.0564 0 28.9035 2.37257 28.8842 5.76463C28.847 8.26729 31.1415 9.65732 32.8576 10.4918C34.6117 11.3445 35.2079 11.901 35.2079 12.6611C35.1901 13.8284 33.7906 14.3665 32.4853 14.3665C30.6752 14.3665 29.7053 14.0891 28.2314 13.4396L27.6344 13.1612L27 17.0727C28.0633 17.5541 30.0224 17.9813 32.0564 18C36.8135 18 39.9105 15.6641 39.9472 12.0494C39.9653 10.0658 38.7537 8.54593 36.1416 7.30397C34.5559 6.50671 33.5848 5.96912 33.5848 5.15338C33.6034 4.4118 34.4062 3.65223 36.1962 3.65223C37.6701 3.61503 38.753 3.9671 39.5734 4.31941L39.9834 4.50443L40.6 0.741829Z" fill="#00579F"/>
<path fill-rule="evenodd" clip-rule="evenodd" d="M48.8655 0.396484H52.3576L55.9998 17.8031H51.8196C51.8196 17.8031 51.4106 15.8031 51.2809 15.192H45.4845C45.3168 15.6547 44.5369 17.8031 44.5369 17.8031H39.7998L46.5058 1.84074C46.9704 0.71103 47.7886 0.396484 48.8655 0.396484ZM48.5872 6.76641C48.5872 6.76641 47.1566 10.6367 46.7848 11.6367H50.5373C50.3517 10.7664 49.4967 6.59978 49.4967 6.59978L49.1812 5.0999C49.0484 5.48613 48.8562 6.01714 48.7266 6.37529C48.6388 6.61807 48.5797 6.78142 48.5872 6.76641Z" fill="#00579F"/>
<path d="M16.002 0.396484L11.5585 12.2787L11.0729 9.86886C10.2514 7.0882 7.67497 4.06707 4.7998 2.56489L8.8699 17.8031H13.668L20.7998 0.396484H16.002V0.396484Z" fill="#00579F"/>
<path d="M7.36447 0.396484H0.0745788L0 0.749358C5.68657 2.19864 9.45268 5.69206 11 9.89099L9.41526 1.86453C9.15436 0.749111 8.35258 0.433278 7.36447 0.396484Z" fill="#FAA61A"/>
</svg>
