<svg width="45" height="34" viewBox="0 0 45 34" fill="none" xmlns="http://www.w3.org/2000/svg">
	<g id="bedroom">
		<g class="hover">
			<path opacity="0.7" fill-rule="evenodd" clip-rule="evenodd" d="M2.6718 31.5L40.4594 31L40.4575 25.4118L4.6511 23.912L37.642 22.295L21.3219 20.553L37.642 19.283L36.2873 15L7 16.0091L6.708 19.283H4.6511V22.295L2 23L2.6718 31.5Z" fill="url(#bedroom-paint01_linear22)" />
		</g>
		<g class="outline">
			<g>
				<mask id="path-5-inside-12" fill="white">
					<path fill-rule="evenodd" clip-rule="evenodd" d="M42.822 30.662V23.795H2.5V30.662H42.822ZM1.809 32.162H43.514C43.96 32.162 44.322 31.8 44.322 31.353V23.103C44.322 22.656 43.96 22.295 43.514 22.295H1.809C1.362 22.295 1 22.656 1 23.103V31.353C1 31.8 1.362 32.162 1.809 32.162Z" />
				</mask>
				<path d="M42.822 23.795H44.322V22.295H42.822V23.795ZM42.822 30.662V32.162H44.322V30.662H42.822ZM2.5 23.795V22.295H1V23.795H2.5ZM2.5 30.662H1V32.162H2.5V30.662ZM41.322 23.795V30.662H44.322V23.795H41.322ZM2.5 25.295H42.822V22.295H2.5V25.295ZM4 30.662V23.795H1V30.662H4ZM42.822 29.162H2.5V32.162H42.822V29.162ZM43.514 30.662H1.809V33.662H43.514V30.662ZM42.822 31.353C42.822 30.9728 43.1304 30.662 43.514 30.662V33.662C44.7896 33.662 45.822 32.6273 45.822 31.353H42.822ZM42.822 23.103V31.353H45.822V23.103H42.822ZM43.514 23.795C43.1328 23.795 42.822 23.4857 42.822 23.103H45.822C45.822 21.8264 44.7872 20.795 43.514 20.795V23.795ZM1.809 23.795H43.514V20.795H1.809V23.795ZM2.5 23.103C2.5 23.4869 2.18801 23.795 1.809 23.795V20.795C0.535991 20.795 -0.5 21.8252 -0.5 23.103H2.5ZM2.5 31.353V23.103H-0.5V31.353H2.5ZM1.809 30.662C2.19043 30.662 2.5 30.9716 2.5 31.353H-0.5C-0.5 32.6285 0.533572 33.662 1.809 33.662V30.662Z" fill="#4D4A2F" mask="url(#path-5-inside-12)" />
			</g>
			<path fill-rule="evenodd" clip-rule="evenodd" d="M7.816 31.1219H4.904C4.777 31.1219 4.673 31.2249 4.673 31.3529V33.7689C4.673 33.8959 4.777 33.9999 4.904 33.9999H7.816C7.944 33.9999 8.047 33.8959 8.047 33.7689V31.3529C8.047 31.2249 7.944 31.1219 7.816 31.1219Z" fill="#4D4A2F" />
			<path fill-rule="evenodd" clip-rule="evenodd" d="M40.785 31.1219H37.873C37.746 31.1219 37.642 31.2249 37.642 31.3529V33.7689C37.642 33.8959 37.746 33.9999 37.873 33.9999H40.785C40.912 33.9999 41.016 33.8959 41.016 33.7689V31.3529C41.016 31.2249 40.912 31.1219 40.785 31.1219Z" fill="#4D4A2F" />
			<g>
				<mask id="bedroom-path-9-inside-22" fill="white">
					<path fill-rule="evenodd" clip-rule="evenodd" d="M38.731 19.053V11.5H6.591V19.053H38.731ZM5.9 20.553H39.423C39.869 20.553 40.231 20.192 40.231 19.745V10.808C40.231 10.362 39.869 10 39.423 10H5.9C5.453 10 5.091 10.362 5.091 10.808V19.745C5.091 20.192 5.453 20.553 5.9 20.553Z" />
				</mask>
				<path d="M38.731 11.5H40.231V10H38.731V11.5ZM38.731 19.053V20.553H40.231V19.053H38.731ZM6.591 11.5V10H5.091V11.5H6.591ZM6.591 19.053H5.091V20.553H6.591V19.053ZM37.231 11.5V19.053H40.231V11.5H37.231ZM6.591 13H38.731V10H6.591V13ZM8.091 19.053V11.5H5.091V19.053H8.091ZM38.731 17.553H6.591V20.553H38.731V17.553ZM39.423 19.053H5.9V22.053H39.423V19.053ZM38.731 19.745C38.731 19.3624 39.0418 19.053 39.423 19.053V22.053C40.6962 22.053 41.731 21.0216 41.731 19.745H38.731ZM38.731 10.808V19.745H41.731V10.808H38.731ZM39.423 11.5C39.0406 11.5 38.731 11.1904 38.731 10.808H41.731C41.731 9.53358 40.6974 8.5 39.423 8.5V11.5ZM5.9 11.5H39.423V8.5H5.9V11.5ZM6.591 10.808C6.591 11.1916 6.28022 11.5 5.9 11.5V8.5C4.62578 8.5 3.591 9.53236 3.591 10.808H6.591ZM6.591 19.745V10.808H3.591V19.745H6.591ZM5.9 19.053C6.27901 19.053 6.591 19.3612 6.591 19.745H3.591C3.591 21.0228 4.62699 22.053 5.9 22.053V19.053Z" fill="#4D4A2F" mask="url(#bedroom-path-9-inside-22)" />
			</g>
			<g>
				<mask id="bedroom-path-11-inside-32" fill="white">
					<path fill-rule="evenodd" clip-rule="evenodd" d="M40.396 22.412V20.437H4.927V22.412H40.396ZM4.236 23.912H41.087C41.534 23.912 41.896 23.55 41.896 23.103V19.745C41.896 19.298 41.534 18.937 41.087 18.937H4.236C3.789 18.937 3.427 19.298 3.427 19.745V23.103C3.427 23.55 3.789 23.912 4.236 23.912Z" />
				</mask>
				<path d="M40.396 20.437H41.896V18.937H40.396V20.437ZM40.396 22.412V23.912H41.896V22.412H40.396ZM4.927 20.437V18.937H3.427V20.437H4.927ZM4.927 22.412H3.427V23.912H4.927V22.412ZM38.896 20.437V22.412H41.896V20.437H38.896ZM4.927 21.937H40.396V18.937H4.927V21.937ZM6.427 22.412V20.437H3.427V22.412H6.427ZM40.396 20.912H4.927V23.912H40.396V20.912ZM41.087 22.412H4.236V25.412H41.087V22.412ZM40.396 23.103C40.396 22.7216 40.7056 22.412 41.087 22.412V25.412C42.3624 25.412 43.396 24.3784 43.396 23.103H40.396ZM40.396 19.745V23.103H43.396V19.745H40.396ZM41.087 20.437C40.708 20.437 40.396 20.1289 40.396 19.745H43.396C43.396 18.4672 42.36 17.437 41.087 17.437V20.437ZM4.236 20.437H41.087V17.437H4.236V20.437ZM4.927 19.745C4.927 20.1289 4.61501 20.437 4.236 20.437V17.437C2.96299 17.437 1.927 18.4672 1.927 19.745H4.927ZM4.927 23.103V19.745H1.927V23.103H4.927ZM4.236 22.412C4.61743 22.412 4.927 22.7216 4.927 23.103H1.927C1.927 24.3784 2.96057 25.412 4.236 25.412V22.412Z" fill="#4D4A2F" mask="url(#bedroom-path-11-inside-32)" />
			</g>
			<g>
				<mask id="bedroom-path-13-inside-42" fill="white">
					<path fill-rule="evenodd" clip-rule="evenodd" d="M20.382 18.7071V14.4351H11.504V18.7071H20.382ZM10.466 20.2071H21.42C21.675 20.2071 21.882 20.0001 21.882 19.7451V13.3971C21.882 13.1421 21.675 12.9351 21.42 12.9351H10.466C10.211 12.9351 10.004 13.1421 10.004 13.3971V19.7451C10.004 20.0001 10.211 20.2071 10.466 20.2071Z" />
				</mask>
				<path d="M20.382 14.4351H21.882V12.9351H20.382V14.4351ZM20.382 18.7071V20.2071H21.882V18.7071H20.382ZM11.504 14.4351V12.9351H10.004V14.4351H11.504ZM11.504 18.7071H10.004V20.2071H11.504V18.7071ZM18.882 14.4351V18.7071H21.882V14.4351H18.882ZM11.504 15.9351H20.382V12.9351H11.504V15.9351ZM13.004 18.7071V14.4351H10.004V18.7071H13.004ZM20.382 17.2071H11.504V20.2071H20.382V17.2071ZM21.42 18.7071H10.466V21.7071H21.42V18.7071ZM20.382 19.7451C20.382 19.1716 20.8466 18.7071 21.42 18.7071V21.7071C22.5034 21.7071 23.382 20.8285 23.382 19.7451H20.382ZM20.382 13.3971V19.7451H23.382V13.3971H20.382ZM21.42 14.4351C20.8466 14.4351 20.382 13.9705 20.382 13.3971H23.382C23.382 12.3136 22.5034 11.4351 21.42 11.4351V14.4351ZM10.466 14.4351H21.42V11.4351H10.466V14.4351ZM11.504 13.3971C11.504 13.9705 11.0394 14.4351 10.466 14.4351V11.4351C9.38257 11.4351 8.504 12.3136 8.504 13.3971H11.504ZM11.504 19.7451V13.3971H8.504V19.7451H11.504ZM10.466 18.7071C11.0394 18.7071 11.504 19.1716 11.504 19.7451H8.504C8.504 20.8285 9.38257 21.7071 10.466 21.7071V18.7071Z" fill="#4D4A2F" mask="url(#bedroom-path-13-inside-42)" />
			</g>
			<g>
				<mask id="bedroom-path-15-inside-52" fill="white">
					<path fill-rule="evenodd" clip-rule="evenodd" d="M33.22 18.7071V14.4351H24.342V18.7071H33.22ZM23.304 20.2071H34.258C34.513 20.2071 34.72 20.0001 34.72 19.7451V13.3971C34.72 13.1421 34.513 12.9351 34.258 12.9351H23.304C23.049 12.9351 22.842 13.1421 22.842 13.3971V19.7451C22.842 20.0001 23.049 20.2071 23.304 20.2071Z" />
				</mask>
				<path d="M33.22 14.4351H34.72V12.9351H33.22V14.4351ZM33.22 18.7071V20.2071H34.72V18.7071H33.22ZM24.342 14.4351V12.9351H22.842V14.4351H24.342ZM24.342 18.7071H22.842V20.2071H24.342V18.7071ZM31.72 14.4351V18.7071H34.72V14.4351H31.72ZM24.342 15.9351H33.22V12.9351H24.342V15.9351ZM25.842 18.7071V14.4351H22.842V18.7071H25.842ZM33.22 17.2071H24.342V20.2071H33.22V17.2071ZM34.258 18.7071H23.304V21.7071H34.258V18.7071ZM33.22 19.7451C33.22 19.1716 33.6846 18.7071 34.258 18.7071V21.7071C35.3414 21.7071 36.22 20.8285 36.22 19.7451H33.22ZM33.22 13.3971V19.7451H36.22V13.3971H33.22ZM34.258 14.4351C33.6846 14.4351 33.22 13.9705 33.22 13.3971H36.22C36.22 12.3136 35.3414 11.4351 34.258 11.4351V14.4351ZM23.304 14.4351H34.258V11.4351H23.304V14.4351ZM24.342 13.3971C24.342 13.9705 23.8774 14.4351 23.304 14.4351V11.4351C22.2206 11.4351 21.342 12.3136 21.342 13.3971H24.342ZM24.342 19.7451V13.3971H21.342V19.7451H24.342ZM23.304 18.7071C23.8774 18.7071 24.342 19.1716 24.342 19.7451H21.342C21.342 20.8285 22.2206 21.7071 23.304 21.7071V18.7071Z" fill="#4D4A2F" mask="url(#bedroom-path-15-inside-52)" />
			</g>
		</g>
	</g>
	<defs>
		<linearGradient id="bedroom-paint01_linear22" x1="2" y1="15" x2="2" y2="31.5" gradientUnits="userSpaceOnUse">
			<stop stop-color="#FF803B" />
			<stop offset="1" stop-color="#FF9100" />
		</linearGradient>
	</defs>
</svg>