<svg width="45" height="34" viewBox="0 0 45 34" fill="none" xmlns="http://www.w3.org/2000/svg">
  <g id="bedroom">
    <g class="hover">
      <path opacity="0.7" fill-rule="evenodd"
            clip-rule="evenodd"
            d="M2.6718 31.5L40.4594 31L40.4575 25.4118L4.6511 23.912L37.642 22.295L21.3219 20.553L37.642 19.283L36.2873 15L7 16.0091L6.708 19.283H4.6511V22.295L2 23L2.6718 31.5Z"
            fill="url(#bedroom-paint0_linear)"/>
    </g>
    <g class="cat">
      <mask id="bedroom-mask0" mask-type="alpha" maskUnits="userSpaceOnUse" x="0" y="0" width="39" height="11">
        <rect id="bedroom-Mask" width="39" height="11" fill="white"/>
      </mask>
      <g mask="url(#bedroom-mask0)">
        <g id="c">
          <path fill-rule="evenodd" clip-rule="evenodd"
                d="M18.8503 9.78123C18.8554 9.80332 18.841 9.86298 18.8293 9.86813C18.7245 10.2536 18.4239 10.5838 18.0445 10.6751C17.855 10.7188 17.6395 10.7061 17.4901 10.5778C17.3484 10.4623 17.2883 10.268 17.264 10.0813C17.2203 9.71424 17.3033 9.33136 17.4951 9.02258C17.5845 8.8758 17.7063 8.74236 17.8687 8.68773C18.1362 8.60026 18.4365 8.77216 18.5972 9.0155C18.7 9.17058 18.7599 9.34899 18.8021 9.53153L18.8588 9.36535C18.8852 9.50499 18.879 9.64602 18.8503 9.78123ZM14.5037 10.2557C14.4209 10.4365 14.2328 10.5423 14.0461 10.583C13.663 10.6678 13.2468 10.503 12.9815 10.203C12.9684 10.2024 12.9342 10.1613 12.9299 10.1427C12.8471 10.0332 12.7789 9.90565 12.7409 9.76626L12.8645 9.88958C12.8218 9.70472 12.7961 9.52207 12.8218 9.33365C12.8601 9.04683 13.0547 8.76065 13.3315 8.72369C13.4992 8.69722 13.6683 8.7684 13.8161 8.85919C14.1215 9.05319 14.3635 9.35859 14.4852 9.70767C14.5471 9.88441 14.5783 10.0854 14.5037 10.2557ZM31.8883 18.7552C31.745 19.0246 31.5649 19.2413 31.3418 19.3381C30.5983 17.4047 29.8002 15.7532 28.176 14.3942C26.1231 12.6785 23.5082 12.1299 21.0046 12.8463C21.0013 12.847 18.6505 6.77442 18.2879 5.20369C17.6657 5.76371 18.0447 5.50843 17.3536 5.98882C16.9211 6.28707 16.343 6.2552 15.8274 6.11217C15.4181 6.00217 15.1079 5.77253 14.8454 5.45962C14.7234 5.31267 13.8568 4.3616 13.9387 4.2227C10.2695 10.2866 9.0826 17.5507 10.428 24.3293C9.91972 24.503 9.51282 24.5969 9.24653 26.5308C9.31221 26.0626 14.1887 25.5282 14.7829 25.3555C16.6638 24.805 18.554 24.2951 20.4525 23.8213C22.3968 23.3369 24.3526 22.9025 26.3169 22.5053C27.3186 22.3022 28.3216 22.1099 29.3268 21.9268C29.828 21.8344 30.3303 21.7417 30.8333 21.6574C31.159 21.603 34.4097 19.7944 34.9991 18.7718C38.8946 12.0249 30.8466 10.0218 29.1349 10.9692C28.401 11.3762 27.1836 12.0688 27.2514 12.9373C28.8401 12.3574 31.8654 12.6546 32.8091 14.1328C33.2846 14.8802 32.9325 16.3968 32.862 17.2764C32.8257 17.7195 32.1636 18.2336 31.8883 18.7552Z"
                fill="#4D4A2F"/>
          <path fill-rule="evenodd" clip-rule="evenodd"
                d="M27.7243 12.9496C29.4822 14.2165 30.8496 16.1468 31.4387 18.4747C31.4654 18.58 31.4901 18.6869 31.5136 18.7942C31.5985 18.7244 31.6876 18.6168 31.775 18.4767C31.9867 18.1424 32.143 17.7108 32.2566 17.3735C32.5225 16.5774 32.5841 15.7304 32.4331 14.924C32.3753 14.6177 32.301 14.3924 32.1957 14.2159C31.9946 13.879 31.6352 13.6142 31.0628 13.3826C29.7382 12.8483 28.7673 12.7222 27.7243 12.9496ZM14.0295 4.65508C12.9122 6.66666 8.57437 15.2766 10.6923 24.0995L10.762 24.3859L10.4942 24.4772C10.3311 24.5846 9.89412 24.9145 9.64247 25.8996C10.9154 25.498 14.178 25.0276 14.6576 24.8875C16.4838 24.3545 18.3946 23.8374 20.3383 23.3507C22.696 22.7648 25.1204 22.2344 27.7494 21.7303C29.8362 21.3294 33.1458 20.5286 33.7083 19.964C34.3905 19.2823 35.2266 18.3521 35.6457 17.212C36.2631 15.5277 35.842 13.4291 34.6222 12.1077C33.4016 10.7878 31.3965 10.2661 29.7509 10.8334C28.9648 11.1055 28.4322 11.5554 28.1072 12.233C29.3239 12.0917 30.3469 12.4078 31.2778 12.7831C31.9861 13.069 32.4441 13.4201 32.7206 13.8853C32.9126 14.2083 32.9958 14.5687 33.0413 14.8117C33.2122 15.7299 33.1429 16.6913 32.8416 17.5936C32.7175 17.9664 32.5436 18.4437 32.2949 18.8367C31.9967 19.3096 31.6576 19.5447 31.2841 19.5342L31.0368 19.5263L30.9833 19.2742C30.9398 19.0601 30.8929 18.8419 30.8385 18.6267C29.6922 14.0885 25.3739 11.1765 21.2123 12.1373L20.9749 12.1921L20.8636 11.9643C20.522 11.268 20.3099 10.5222 20.1059 9.80142C19.8067 8.75487 19.503 7.68855 19.2836 6.61624C19.1594 6.0069 19.0622 5.38764 18.9932 4.76801C18.9393 4.81963 18.8869 4.87216 18.8341 4.92351C18.4118 5.33698 17.9751 5.76476 17.4924 6.10029C17.0456 6.40796 16.4329 6.46492 15.7166 6.26657C15.277 6.14764 14.9041 5.90063 14.5769 5.51082C14.4938 5.41001 14.2399 5.00204 14.0295 4.65508ZM8.78865 26.845L8.90757 26.2971C9.09678 25.428 9.57864 24.555 10.0452 24.0432C7.69682 13.8101 13.6976 3.9602 13.7582 3.8617L14.0219 3.43712L14.2822 3.87299C14.6001 4.40577 14.9717 5.00822 15.0422 5.09481C15.2848 5.3829 15.5462 5.55891 15.8643 5.64468C16.2417 5.74858 16.7699 5.8189 17.1417 5.56284C17.5818 5.25672 18.0006 4.84777 18.4047 4.45199C18.6145 4.24681 18.8232 4.04188 19.0331 3.85258L19.495 3.43735L19.5475 4.07672C19.6119 4.88478 19.7281 5.69805 19.8894 6.49353C20.1031 7.54143 20.4039 8.59496 20.6955 9.61387C20.8733 10.2415 21.0524 10.8749 21.3101 11.4571C23.4023 11.0438 25.5165 11.5244 27.2897 12.6544L27.3218 12.5441C27.6629 11.3816 28.3894 10.6224 29.5454 10.2232C31.4414 9.56506 33.6601 10.1476 35.0654 11.6674C36.4697 13.1875 36.9358 15.5119 36.2245 17.4506C35.763 18.7071 34.8696 19.7044 34.1427 20.4319C33.2872 21.2882 28.7703 22.1902 27.872 22.3633C25.2542 22.8648 22.8398 23.3928 20.4936 23.9774C18.5574 24.4611 16.6544 24.9764 14.8349 25.5079C14.2507 25.6783 9.35343 26.6668 9.30518 26.6816L8.78865 26.845Z"
                fill="#4D4A2F"/>
        </g>
      </g>
    </g>
    <g class="outline">
      <g>
        <mask id="path-5-inside-1" fill="white">
          <path fill-rule="evenodd" clip-rule="evenodd"
                d="M42.822 30.662V23.795H2.5V30.662H42.822ZM1.809 32.162H43.514C43.96 32.162 44.322 31.8 44.322 31.353V23.103C44.322 22.656 43.96 22.295 43.514 22.295H1.809C1.362 22.295 1 22.656 1 23.103V31.353C1 31.8 1.362 32.162 1.809 32.162Z"/>
        </mask>
        <path
          d="M42.822 23.795H44.322V22.295H42.822V23.795ZM42.822 30.662V32.162H44.322V30.662H42.822ZM2.5 23.795V22.295H1V23.795H2.5ZM2.5 30.662H1V32.162H2.5V30.662ZM41.322 23.795V30.662H44.322V23.795H41.322ZM2.5 25.295H42.822V22.295H2.5V25.295ZM4 30.662V23.795H1V30.662H4ZM42.822 29.162H2.5V32.162H42.822V29.162ZM43.514 30.662H1.809V33.662H43.514V30.662ZM42.822 31.353C42.822 30.9728 43.1304 30.662 43.514 30.662V33.662C44.7896 33.662 45.822 32.6273 45.822 31.353H42.822ZM42.822 23.103V31.353H45.822V23.103H42.822ZM43.514 23.795C43.1328 23.795 42.822 23.4857 42.822 23.103H45.822C45.822 21.8264 44.7872 20.795 43.514 20.795V23.795ZM1.809 23.795H43.514V20.795H1.809V23.795ZM2.5 23.103C2.5 23.4869 2.18801 23.795 1.809 23.795V20.795C0.535991 20.795 -0.5 21.8252 -0.5 23.103H2.5ZM2.5 31.353V23.103H-0.5V31.353H2.5ZM1.809 30.662C2.19043 30.662 2.5 30.9716 2.5 31.353H-0.5C-0.5 32.6285 0.533572 33.662 1.809 33.662V30.662Z"
          fill="#4D4A2F" mask="url(#path-5-inside-1)"/>
      </g>
      <path fill-rule="evenodd" clip-rule="evenodd"
            d="M7.816 31.1219H4.904C4.777 31.1219 4.673 31.2249 4.673 31.3529V33.7689C4.673 33.8959 4.777 33.9999 4.904 33.9999H7.816C7.944 33.9999 8.047 33.8959 8.047 33.7689V31.3529C8.047 31.2249 7.944 31.1219 7.816 31.1219Z"
            fill="#4D4A2F"/>
      <path fill-rule="evenodd" clip-rule="evenodd"
            d="M40.785 31.1219H37.873C37.746 31.1219 37.642 31.2249 37.642 31.3529V33.7689C37.642 33.8959 37.746 33.9999 37.873 33.9999H40.785C40.912 33.9999 41.016 33.8959 41.016 33.7689V31.3529C41.016 31.2249 40.912 31.1219 40.785 31.1219Z"
            fill="#4D4A2F"/>
      <g>
        <mask id="bedroom-path-9-inside-2" fill="white">
          <path fill-rule="evenodd" clip-rule="evenodd"
                d="M38.731 19.053V11.5H6.591V19.053H38.731ZM5.9 20.553H39.423C39.869 20.553 40.231 20.192 40.231 19.745V10.808C40.231 10.362 39.869 10 39.423 10H5.9C5.453 10 5.091 10.362 5.091 10.808V19.745C5.091 20.192 5.453 20.553 5.9 20.553Z"/>
        </mask>
        <path
          d="M38.731 11.5H40.231V10H38.731V11.5ZM38.731 19.053V20.553H40.231V19.053H38.731ZM6.591 11.5V10H5.091V11.5H6.591ZM6.591 19.053H5.091V20.553H6.591V19.053ZM37.231 11.5V19.053H40.231V11.5H37.231ZM6.591 13H38.731V10H6.591V13ZM8.091 19.053V11.5H5.091V19.053H8.091ZM38.731 17.553H6.591V20.553H38.731V17.553ZM39.423 19.053H5.9V22.053H39.423V19.053ZM38.731 19.745C38.731 19.3624 39.0418 19.053 39.423 19.053V22.053C40.6962 22.053 41.731 21.0216 41.731 19.745H38.731ZM38.731 10.808V19.745H41.731V10.808H38.731ZM39.423 11.5C39.0406 11.5 38.731 11.1904 38.731 10.808H41.731C41.731 9.53358 40.6974 8.5 39.423 8.5V11.5ZM5.9 11.5H39.423V8.5H5.9V11.5ZM6.591 10.808C6.591 11.1916 6.28022 11.5 5.9 11.5V8.5C4.62578 8.5 3.591 9.53236 3.591 10.808H6.591ZM6.591 19.745V10.808H3.591V19.745H6.591ZM5.9 19.053C6.27901 19.053 6.591 19.3612 6.591 19.745H3.591C3.591 21.0228 4.62699 22.053 5.9 22.053V19.053Z"
          fill="#4D4A2F" mask="url(#bedroom-path-9-inside-2)"/>
      </g>
      <g>
        <mask id="bedroom-path-11-inside-3" fill="white">
          <path fill-rule="evenodd" clip-rule="evenodd"
                d="M40.396 22.412V20.437H4.927V22.412H40.396ZM4.236 23.912H41.087C41.534 23.912 41.896 23.55 41.896 23.103V19.745C41.896 19.298 41.534 18.937 41.087 18.937H4.236C3.789 18.937 3.427 19.298 3.427 19.745V23.103C3.427 23.55 3.789 23.912 4.236 23.912Z"/>
        </mask>
        <path
          d="M40.396 20.437H41.896V18.937H40.396V20.437ZM40.396 22.412V23.912H41.896V22.412H40.396ZM4.927 20.437V18.937H3.427V20.437H4.927ZM4.927 22.412H3.427V23.912H4.927V22.412ZM38.896 20.437V22.412H41.896V20.437H38.896ZM4.927 21.937H40.396V18.937H4.927V21.937ZM6.427 22.412V20.437H3.427V22.412H6.427ZM40.396 20.912H4.927V23.912H40.396V20.912ZM41.087 22.412H4.236V25.412H41.087V22.412ZM40.396 23.103C40.396 22.7216 40.7056 22.412 41.087 22.412V25.412C42.3624 25.412 43.396 24.3784 43.396 23.103H40.396ZM40.396 19.745V23.103H43.396V19.745H40.396ZM41.087 20.437C40.708 20.437 40.396 20.1289 40.396 19.745H43.396C43.396 18.4672 42.36 17.437 41.087 17.437V20.437ZM4.236 20.437H41.087V17.437H4.236V20.437ZM4.927 19.745C4.927 20.1289 4.61501 20.437 4.236 20.437V17.437C2.96299 17.437 1.927 18.4672 1.927 19.745H4.927ZM4.927 23.103V19.745H1.927V23.103H4.927ZM4.236 22.412C4.61743 22.412 4.927 22.7216 4.927 23.103H1.927C1.927 24.3784 2.96057 25.412 4.236 25.412V22.412Z"
          fill="#4D4A2F" mask="url(#bedroom-path-11-inside-3)"/>
      </g>
      <g>
        <mask id="bedroom-path-13-inside-4" fill="white">
          <path fill-rule="evenodd" clip-rule="evenodd"
                d="M20.382 18.7071V14.4351H11.504V18.7071H20.382ZM10.466 20.2071H21.42C21.675 20.2071 21.882 20.0001 21.882 19.7451V13.3971C21.882 13.1421 21.675 12.9351 21.42 12.9351H10.466C10.211 12.9351 10.004 13.1421 10.004 13.3971V19.7451C10.004 20.0001 10.211 20.2071 10.466 20.2071Z"/>
        </mask>
        <path
          d="M20.382 14.4351H21.882V12.9351H20.382V14.4351ZM20.382 18.7071V20.2071H21.882V18.7071H20.382ZM11.504 14.4351V12.9351H10.004V14.4351H11.504ZM11.504 18.7071H10.004V20.2071H11.504V18.7071ZM18.882 14.4351V18.7071H21.882V14.4351H18.882ZM11.504 15.9351H20.382V12.9351H11.504V15.9351ZM13.004 18.7071V14.4351H10.004V18.7071H13.004ZM20.382 17.2071H11.504V20.2071H20.382V17.2071ZM21.42 18.7071H10.466V21.7071H21.42V18.7071ZM20.382 19.7451C20.382 19.1716 20.8466 18.7071 21.42 18.7071V21.7071C22.5034 21.7071 23.382 20.8285 23.382 19.7451H20.382ZM20.382 13.3971V19.7451H23.382V13.3971H20.382ZM21.42 14.4351C20.8466 14.4351 20.382 13.9705 20.382 13.3971H23.382C23.382 12.3136 22.5034 11.4351 21.42 11.4351V14.4351ZM10.466 14.4351H21.42V11.4351H10.466V14.4351ZM11.504 13.3971C11.504 13.9705 11.0394 14.4351 10.466 14.4351V11.4351C9.38257 11.4351 8.504 12.3136 8.504 13.3971H11.504ZM11.504 19.7451V13.3971H8.504V19.7451H11.504ZM10.466 18.7071C11.0394 18.7071 11.504 19.1716 11.504 19.7451H8.504C8.504 20.8285 9.38257 21.7071 10.466 21.7071V18.7071Z"
          fill="#4D4A2F" mask="url(#bedroom-path-13-inside-4)"/>
      </g>
      <g>
        <mask id="bedroom-path-15-inside-5" fill="white">
          <path fill-rule="evenodd" clip-rule="evenodd"
                d="M33.22 18.7071V14.4351H24.342V18.7071H33.22ZM23.304 20.2071H34.258C34.513 20.2071 34.72 20.0001 34.72 19.7451V13.3971C34.72 13.1421 34.513 12.9351 34.258 12.9351H23.304C23.049 12.9351 22.842 13.1421 22.842 13.3971V19.7451C22.842 20.0001 23.049 20.2071 23.304 20.2071Z"/>
        </mask>
        <path
          d="M33.22 14.4351H34.72V12.9351H33.22V14.4351ZM33.22 18.7071V20.2071H34.72V18.7071H33.22ZM24.342 14.4351V12.9351H22.842V14.4351H24.342ZM24.342 18.7071H22.842V20.2071H24.342V18.7071ZM31.72 14.4351V18.7071H34.72V14.4351H31.72ZM24.342 15.9351H33.22V12.9351H24.342V15.9351ZM25.842 18.7071V14.4351H22.842V18.7071H25.842ZM33.22 17.2071H24.342V20.2071H33.22V17.2071ZM34.258 18.7071H23.304V21.7071H34.258V18.7071ZM33.22 19.7451C33.22 19.1716 33.6846 18.7071 34.258 18.7071V21.7071C35.3414 21.7071 36.22 20.8285 36.22 19.7451H33.22ZM33.22 13.3971V19.7451H36.22V13.3971H33.22ZM34.258 14.4351C33.6846 14.4351 33.22 13.9705 33.22 13.3971H36.22C36.22 12.3136 35.3414 11.4351 34.258 11.4351V14.4351ZM23.304 14.4351H34.258V11.4351H23.304V14.4351ZM24.342 13.3971C24.342 13.9705 23.8774 14.4351 23.304 14.4351V11.4351C22.2206 11.4351 21.342 12.3136 21.342 13.3971H24.342ZM24.342 19.7451V13.3971H21.342V19.7451H24.342ZM23.304 18.7071C23.8774 18.7071 24.342 19.1716 24.342 19.7451H21.342C21.342 20.8285 22.2206 21.7071 23.304 21.7071V18.7071Z"
          fill="#4D4A2F" mask="url(#bedroom-path-15-inside-5)"/>
      </g>
    </g>
  </g>
  <defs>
    <linearGradient id="bedroom-paint0_linear" x1="2" y1="15" x2="2" y2="31.5" gradientUnits="userSpaceOnUse">
      <stop stop-color="#FF803B"/>
      <stop offset="1" stop-color="#FF9100"/>
    </linearGradient>
  </defs>
</svg>
