<svg width="45" height="43" viewBox="0 0 45 43" fill="none" xmlns="http://www.w3.org/2000/svg">
	<g id="couch" transform="translate(0 -8)">
		<g class="hover">
			<path id="&#209;&#133;&#208;&#190;&#208;&#178;&#208;&#181;&#209;&#128;" opacity="0.7" fill-rule="evenodd"
				clip-rule="evenodd"
				d="M1.16721 39.7412L1.67201 30.408L4.64521 30.3771L3.69865 23C3.69865 23 17.4879 24.7534 24.3826 24.9242C31.2773 25.095 36.6252 23.8158 36.6252 23.8158L37.8602 32.0215L41.6554 32.5215L43.034 39.9367L1.16721 39.7412Z"
				fill="url(#paint01_linear)" />
		</g>
		<g class="outline">
			<path id="Fill 1" fill-rule="evenodd" clip-rule="evenodd"
				d="M1.6718 39.0751H43.0338V30.3771H39.9638V34.9511C39.9638 35.4131 39.5898 35.7871 39.1278 35.7871H5.5778C5.1168 35.7871 4.7418 35.4131 4.7418 34.9511V30.3771H1.6718V39.0751ZM43.8698 40.7471H0.835802C0.373802 40.7471 -0.000198364 40.3731 -0.000198364 39.9111V29.5411C-0.000198364 29.0791 0.373802 28.7051 0.835802 28.7051H5.5778C6.0398 28.7051 6.4138 29.0791 6.4138 29.5411V34.1151H38.2918V29.5411C38.2918 29.0791 38.6658 28.7051 39.1278 28.7051H43.8698C44.3318 28.7051 44.7058 29.0791 44.7058 29.5411V39.9111C44.7058 40.3731 44.3318 40.7471 43.8698 40.7471Z"
				fill="#4D4A2F" />
			<path id="Fill 4" fill-rule="evenodd" clip-rule="evenodd"
				d="M40.816 39.7412H38.099C37.967 39.7412 37.86 39.8482 37.86 39.9802V42.7612C37.86 42.8932 37.967 43.0002 38.099 43.0002H40.816C40.948 43.0002 41.055 42.8932 41.055 42.7612V39.9802C41.055 39.8482 40.948 39.7412 40.816 39.7412Z"
				fill="#4D4A2F" />
			<path id="Fill 7" fill-rule="evenodd" clip-rule="evenodd"
				d="M6.60711 39.7412H3.89011C3.75811 39.7412 3.65111 39.8482 3.65111 39.9802V42.7612C3.65111 42.8932 3.75811 43.0002 3.89011 43.0002H6.60711C6.73911 43.0002 6.84611 42.8932 6.84611 42.7612V39.9802C6.84611 39.8482 6.73911 39.7412 6.60711 39.7412Z"
				fill="#4D4A2F" />
			<path id="Fill 10" fill-rule="evenodd" clip-rule="evenodd"
				d="M42.6096 29.8482H40.9376V21.6722H4.38561V29.8482H2.71361V20.8362C2.71361 20.3742 3.08761 20.0002 3.54961 20.0002H41.7736C42.2356 20.0002 42.6096 20.3742 42.6096 20.8362V29.8482Z"
				fill="#4D4A2F" />
			<mask id="mask0" mask-type="alpha" maskUnits="userSpaceOnUse" x="0" y="20" width="45" height="23">
				<path id="Clip 13" fill-rule="evenodd" clip-rule="evenodd" d="M0 43H44.706V20H0V43Z" fill="white" />
			</mask>
			<g mask="url(#mask0)">
				<path id="Fill 12" fill-rule="evenodd" clip-rule="evenodd" d="M6.39 32.499H39.128V31.544H6.39V32.499Z"
					fill="#4D4A2F" />
			</g>
		</g>
	</g>
	<defs>
		<linearGradient id="paint01_linear" x1="1.16721" y1="23" x2="1.16721" y2="39.9367"
			gradientUnits="userSpaceOnUse">
			<stop stop-color="#FF803B" />
			<stop offset="1" stop-color="#FF9100" />
		</linearGradient>
	</defs>
</svg>