<svg width="33" height="18" viewBox="0 0 33 18" fill="none" xmlns="http://www.w3.org/2000/svg">
<path fill-rule="evenodd" clip-rule="evenodd" d="M1.96875 11.374H31.0312V15.1465H1.96875V11.374Z" stroke="currentColor" stroke-width="1.5" stroke-linecap="round" stroke-linejoin="round"/>
<path fill-rule="evenodd" clip-rule="evenodd" d="M4.09225 15.1465C3.98918 15.1465 3.90625 15.2283 3.90625 15.33V17.3985C3.90625 17.501 3.98918 17.5828 4.09225 17.5828H6.61953C6.7226 17.5828 6.80553 17.501 6.80553 17.3985V15.33C6.80553 15.2283 6.7226 15.1465 6.61953 15.1465H4.09225Z" fill="currentColor"/>
<path fill-rule="evenodd" clip-rule="evenodd" d="M27.3423 15.1465C27.2392 15.1465 27.1562 15.2283 27.1562 15.33V17.3985C27.1562 17.501 27.2392 17.5828 27.3423 17.5828H29.8695C29.9726 17.5828 30.0555 17.501 30.0555 17.3985V15.33C30.0555 15.2283 29.9726 15.1465 29.8695 15.1465H27.3423Z" fill="currentColor"/>
<rect x="1" y="1" width="31" height="10.3744" stroke="currentColor" stroke-width="1.5" stroke-linecap="round" stroke-linejoin="round"/>
<path fill-rule="evenodd" clip-rule="evenodd" d="M1 8.35208H31.2901V7.61644H1V8.35208Z" fill="currentColor"/>
</svg>
