<svg width="36" height="26" viewBox="0 0 36 26" fill="none" xmlns="http://www.w3.org/2000/svg">
<path fill-rule="evenodd" clip-rule="evenodd" d="M1.3472 22.8288H33.8616V11.4904H28.412V16.9042C28.412 17.2812 28.1104 17.5869 27.7376 17.5869H7.4704C7.0984 17.5869 6.7968 17.2812 6.7968 16.9042V11.4904H1.3472V22.8288ZM34.5344 24.1942H0.6736C0.3016 24.1942 0 23.8885 0 23.5115V10.8077C0 10.4299 0.3016 10.125 0.6736 10.125H7.4704C7.8432 10.125 8.144 10.4299 8.144 10.8077V16.2215H27.064V10.8077C27.064 10.4299 27.3656 10.125 27.7376 10.125H34.5344C34.9072 10.125 35.2088 10.4299 35.2088 10.8077V23.5115C35.2088 23.8885 34.9072 24.1942 34.5344 24.1942Z" fill="currentColor"/>
<path fill-rule="evenodd" clip-rule="evenodd" d="M3.28136 23.417C3.17496 23.417 3.08936 23.5037 3.08936 23.6116V25.8048C3.08936 25.9135 3.17496 26.0002 3.28136 26.0002H5.89016C5.99656 26.0002 6.08216 25.9135 6.08216 25.8048V23.6116C6.08216 23.5037 5.99656 23.417 5.89016 23.417H3.28136Z" fill="currentColor"/>
<path fill-rule="evenodd" clip-rule="evenodd" d="M29.3188 23.417C29.2116 23.417 29.126 23.5037 29.126 23.6116V25.8048C29.126 25.9135 29.2116 26.0002 29.3188 26.0002H31.9268C32.0332 26.0002 32.1196 25.9135 32.1196 25.8048V23.6116C32.1196 23.5037 32.0332 23.417 31.9268 23.417H29.3188Z" fill="currentColor"/>
<path fill-rule="evenodd" clip-rule="evenodd" d="M31.3184 11.4904H29.9712V1.42009H5.23685V11.4904H3.88965V0.736579C3.88965 0.359552 4.19125 0.0546875 4.56325 0.0546875H30.6448C31.0168 0.0546875 31.3184 0.359552 31.3184 0.736579V11.4904Z" fill="currentColor"/>
<path fill-rule="evenodd" clip-rule="evenodd" d="M7.47119 13.9185H27.7384V13.1385H7.47119V13.9185Z" fill="currentColor"/>
</svg>
