<svg width="64" height="23" viewBox="0 0 64 23" fill="none" xmlns="http://www.w3.org/2000/svg">
<path fill-rule="evenodd" clip-rule="evenodd" d="M24.6191 12.4785H63.0001V20.1307H24.6191V12.4785Z" stroke="currentColor" stroke-width="1.5" stroke-linecap="round" stroke-linejoin="round"/>
<path fill-rule="evenodd" clip-rule="evenodd" d="M24.6191 1H63.0001V12.4783H24.6191V1Z" stroke="currentColor" stroke-width="1.5" stroke-linecap="round" stroke-linejoin="round"/>
<path fill-rule="evenodd" clip-rule="evenodd" d="M24.6191 16.2827H63.0001V15.3692H24.6191V16.2827Z" fill="currentColor"/>
<path fill-rule="evenodd" clip-rule="evenodd" d="M43.3398 1V12.9565H44.2796V1L43.3398 1Z" fill="currentColor"/>
<path fill-rule="evenodd" clip-rule="evenodd" d="M1 12.4785H21.6667V20.1307H1V12.4785Z" stroke="currentColor" stroke-width="1.5" stroke-linecap="round" stroke-linejoin="round"/>
<path fill-rule="evenodd" clip-rule="evenodd" d="M1 1H21.6667V12.4783H1V1Z" stroke="currentColor" stroke-width="1.5" stroke-linecap="round" stroke-linejoin="round"/>
<path fill-rule="evenodd" clip-rule="evenodd" d="M1 16.2827H21.6667V15.3692H1V16.2827Z" fill="currentColor"/>
<path fill-rule="evenodd" clip-rule="evenodd" d="M61.8353 19.8828H59.1615C59.0316 19.8828 58.9263 19.9852 58.9263 20.1114V22.7715C58.9263 22.8978 59.0316 23.0001 59.1615 23.0001H61.8353C61.9653 23.0001 62.0706 22.8978 62.0706 22.7715V20.1114C62.0706 19.9852 61.9653 19.8828 61.8353 19.8828Z" fill="currentColor"/>
<path fill-rule="evenodd" clip-rule="evenodd" d="M28.1693 19.8828H25.4955C25.3656 19.8828 25.2603 19.9852 25.2603 20.1114V22.7715C25.2603 22.8978 25.3656 23.0001 25.4955 23.0001H28.1693C28.2992 23.0001 28.4045 22.8978 28.4045 22.7715V20.1114C28.4045 19.9852 28.2992 19.8828 28.1693 19.8828Z" fill="currentColor"/>
<path fill-rule="evenodd" clip-rule="evenodd" d="M28.1693 19.8828H25.4955C25.3656 19.8828 25.2603 19.9852 25.2603 20.1114V22.7715C25.2603 22.8978 25.3656 23.0001 25.4955 23.0001H28.1693C28.2992 23.0001 28.4045 22.8978 28.4045 22.7715V20.1114C28.4045 19.9852 28.2992 19.8828 28.1693 19.8828Z" fill="currentColor"/>
<path fill-rule="evenodd" clip-rule="evenodd" d="M4.89297 19.8828H2.21909C2.08919 19.8828 1.98389 19.9852 1.98389 20.1114V22.7715C1.98389 22.8978 2.08919 23.0001 2.21909 23.0001H4.89297C5.02287 23.0001 5.12817 22.8978 5.12817 22.7715V20.1114C5.12817 19.9852 5.02287 19.8828 4.89297 19.8828Z" fill="currentColor"/>
<path fill-rule="evenodd" clip-rule="evenodd" d="M20.6391 19.8828H17.9652C17.8353 19.8828 17.73 19.9852 17.73 20.1114V22.7715C17.73 22.8978 17.8353 23.0001 17.9652 23.0001H20.6391C20.769 23.0001 20.8743 22.8978 20.8743 22.7715V20.1114C20.8743 19.9852 20.769 19.8828 20.6391 19.8828Z" fill="currentColor"/>
</svg>
