<svg width="45" height="43" viewBox="0 0 45 43" fill="none" xmlns="http://www.w3.org/2000/svg">
  <g id="couch">
    <g class="hover">
      <path id="&#209;&#133;&#208;&#190;&#208;&#178;&#208;&#181;&#209;&#128;" opacity="0.7" fill-rule="evenodd"
            clip-rule="evenodd"
            d="M1.16721 39.7412L1.67201 30.408L4.64521 30.3771L3.69865 23C3.69865 23 17.4879 24.7534 24.3826 24.9242C31.2773 25.095 36.6252 23.8158 36.6252 23.8158L37.8602 32.0215L41.6554 32.5215L43.034 39.9367L1.16721 39.7412Z"
            fill="url(#paint0_linear)"/>
    </g>
    <g class="cat">
      <path id="Fill 59" fill-rule="evenodd" clip-rule="evenodd"
            d="M26.6425 7.26765C26.6425 7.29032 26.615 7.34521 26.6025 7.3476C26.4137 7.6996 26.0464 7.95375 25.6563 7.95733C25.4618 7.95733 25.2547 7.89648 25.138 7.73778C25.0258 7.5934 25.011 7.39055 25.0293 7.20322C25.0693 6.83571 25.2364 6.48132 25.4926 6.22359C25.6128 6.10068 25.7615 5.99807 25.932 5.98136C26.2123 5.9563 26.4663 6.19137 26.5681 6.46462C26.6333 6.63883 26.6517 6.82616 26.6517 7.0135L26.7443 6.86434C26.7386 7.00634 26.7009 7.14236 26.6425 7.26765ZM22.3005 6.75218C22.1792 6.90969 21.9721 6.97054 21.7811 6.96815C21.3886 6.96458 21.0202 6.71042 20.8292 6.35842C20.8166 6.35484 20.7925 6.30711 20.7925 6.28802C20.7365 6.16273 20.6987 6.02312 20.693 5.87874L20.7857 6.0267C20.7857 5.83698 20.8017 5.65323 20.8692 5.47544C20.971 5.20458 21.225 4.96951 21.5031 4.99576C21.6724 5.00769 21.8211 5.11508 21.9447 5.23679C22.1987 5.49453 22.3657 5.84653 22.4058 6.21404C22.4264 6.40018 22.4115 6.60303 22.3005 6.75218ZM37.3276 18.9445C37.1273 19.1748 36.9031 19.3454 36.664 19.3896C36.3745 17.3384 35.9683 15.5498 34.6915 13.8602C33.0771 11.7267 30.6527 10.6039 28.0521 10.7387C28.0486 10.7387 27.1242 4.29295 27.1242 2.68091C26.3919 3.08661 26.8187 2.92314 26.0373 3.23576C25.5487 3.42906 24.9927 3.26798 24.5224 3.01263C24.1483 2.81336 23.8977 2.51983 23.7124 2.1559C23.6266 1.98527 22.9961 0.86364 23.1071 0.746704C18.1679 5.82982 15.3774 12.6407 15.1634 19.5483C14.6291 19.6032 14.2115 19.6032 13.517 21.4276C13.6863 20.9861 18.5581 21.5624 19.1759 21.5278C21.1324 21.4145 23.0888 21.3429 25.0453 21.3083C27.0487 21.2737 29.052 21.2904 31.0554 21.3453C32.0771 21.3727 33.0977 21.4109 34.1183 21.4586C34.6274 21.4813 35.1377 21.504 35.6468 21.535C35.9763 21.5553 39.5506 20.5243 40.3549 19.6604C45.6683 13.9628 38.2772 10.2006 36.3962 10.7387C35.5896 10.9702 34.2476 11.3711 34.1183 12.2326C35.7967 12.025 38.6776 12.9951 39.2646 14.6477C39.5598 15.483 38.8756 16.8814 38.609 17.7227C38.474 18.1462 37.7131 18.4982 37.3276 18.9445Z"
            fill="#4D4A2F"/>
      <path id="Fill 60" fill-rule="evenodd" clip-rule="evenodd"
            d="M34.5763 12.351C36.0042 13.981 36.9023 16.1693 36.9526 18.5701C36.9549 18.6787 36.9549 18.7884 36.9538 18.8982C37.0522 18.8493 37.1632 18.7646 37.2799 18.6476C37.5613 18.3696 37.8107 17.9842 37.9972 17.6811C38.4354 16.9652 38.686 16.1538 38.7203 15.3341C38.7329 15.0226 38.7112 14.7864 38.6482 14.5907C38.5281 14.2172 38.2375 13.8783 37.7318 13.524C36.5613 12.7054 35.6437 12.3641 34.5763 12.351ZM23.0983 1.18845C21.5572 2.89714 15.3937 10.3106 15.4727 19.3839L15.4761 19.6786L15.1946 19.7072C15.0116 19.7752 14.5116 19.9984 14.0448 20.9016C15.3754 20.7966 18.6602 21.0723 19.1591 21.0436C21.0583 20.9351 23.0365 20.8611 25.0399 20.8241C27.4689 20.7835 29.9505 20.8121 32.6255 20.9124C34.749 20.9911 38.154 20.9553 38.829 20.5317C39.6471 20.021 40.6711 19.3027 41.3358 18.2861C42.3163 16.7838 42.3781 14.6444 41.4868 13.0825C40.5944 11.5217 38.7581 10.5624 37.027 10.7449C36.1998 10.8332 35.5797 11.1518 35.1106 11.7389C36.3279 11.8749 37.2535 12.4131 38.0762 12.9882C38.702 13.4261 39.0693 13.8712 39.234 14.3867C39.3485 14.7446 39.3485 15.1145 39.3382 15.3615C39.2981 16.2946 39.0144 17.2158 38.5178 18.0272C38.313 18.3625 38.0361 18.7884 37.7055 19.1154C37.3085 19.5092 36.9252 19.6619 36.5636 19.5676L36.3245 19.5044L36.3291 19.2466C36.3348 19.0283 36.3382 18.8052 36.3337 18.5832C36.2376 13.9034 32.685 10.0946 28.414 10.0946H28.1703L28.1131 9.84765C27.9369 9.09234 27.898 8.31794 27.8614 7.56979C27.8053 6.48277 27.7492 5.37546 27.7767 4.28127C27.7927 3.65961 27.8373 3.03436 27.9094 2.41508C27.8453 2.45326 27.7824 2.49264 27.7195 2.53082C27.2149 2.83867 26.6932 3.15726 26.1474 3.37562C25.6429 3.57489 25.0331 3.49256 24.3798 3.13817C23.9782 2.92339 23.6704 2.59883 23.4393 2.14541C23.3809 2.02847 23.2253 1.57386 23.0983 1.18845ZM13.0002 21.6307L13.2393 21.1236C13.6192 20.3193 14.2851 19.5772 14.8548 19.1834C14.8686 8.68426 22.9313 0.436719 23.0125 0.354386L23.3649 0L23.5205 0.483254C23.7104 1.0739 23.937 1.74449 23.9862 1.84472C24.1578 2.18001 24.3729 2.41031 24.6635 2.56542C25.0079 2.75157 25.5067 2.9389 25.9266 2.77304C26.4243 2.57378 26.9243 2.26951 27.4071 1.97478C27.6577 1.82205 27.9071 1.66932 28.1542 1.53209L28.6977 1.2314L28.605 1.8662C28.486 2.66804 28.4163 3.48659 28.3945 4.29798C28.3671 5.36711 28.4231 6.46129 28.478 7.51967C28.5101 8.17117 28.5421 8.82864 28.6622 9.45389C30.7938 9.5219 32.7457 10.4657 34.2193 11.9656L34.2754 11.8654C34.8692 10.8094 35.7479 10.2331 36.9641 10.1042C38.9594 9.88941 40.9903 10.9561 42.0177 12.7531C43.044 14.5501 42.9754 16.9199 41.8461 18.6488C41.1138 19.7693 40.0189 20.5401 39.1471 21.0854C38.1208 21.7273 33.5168 21.5901 32.6026 21.5567C29.9391 21.4565 27.4678 21.4279 25.0502 21.4696C23.0548 21.5054 21.0846 21.5794 19.1922 21.688C18.5847 21.7226 13.5906 21.5842 13.5402 21.5877L13.0002 21.6307Z"
            fill="#4D4A2F"/>
    </g>
    <g class="outline">
      <path id="Fill 1" fill-rule="evenodd" clip-rule="evenodd"
            d="M1.6718 39.0751H43.0338V30.3771H39.9638V34.9511C39.9638 35.4131 39.5898 35.7871 39.1278 35.7871H5.5778C5.1168 35.7871 4.7418 35.4131 4.7418 34.9511V30.3771H1.6718V39.0751ZM43.8698 40.7471H0.835802C0.373802 40.7471 -0.000198364 40.3731 -0.000198364 39.9111V29.5411C-0.000198364 29.0791 0.373802 28.7051 0.835802 28.7051H5.5778C6.0398 28.7051 6.4138 29.0791 6.4138 29.5411V34.1151H38.2918V29.5411C38.2918 29.0791 38.6658 28.7051 39.1278 28.7051H43.8698C44.3318 28.7051 44.7058 29.0791 44.7058 29.5411V39.9111C44.7058 40.3731 44.3318 40.7471 43.8698 40.7471Z"
            fill="#4D4A2F"/>
      <path id="Fill 4" fill-rule="evenodd" clip-rule="evenodd"
            d="M40.816 39.7412H38.099C37.967 39.7412 37.86 39.8482 37.86 39.9802V42.7612C37.86 42.8932 37.967 43.0002 38.099 43.0002H40.816C40.948 43.0002 41.055 42.8932 41.055 42.7612V39.9802C41.055 39.8482 40.948 39.7412 40.816 39.7412Z"
            fill="#4D4A2F"/>
      <path id="Fill 7" fill-rule="evenodd" clip-rule="evenodd"
            d="M6.60711 39.7412H3.89011C3.75811 39.7412 3.65111 39.8482 3.65111 39.9802V42.7612C3.65111 42.8932 3.75811 43.0002 3.89011 43.0002H6.60711C6.73911 43.0002 6.84611 42.8932 6.84611 42.7612V39.9802C6.84611 39.8482 6.73911 39.7412 6.60711 39.7412Z"
            fill="#4D4A2F"/>
      <path id="Fill 10" fill-rule="evenodd" clip-rule="evenodd"
            d="M42.6096 29.8482H40.9376V21.6722H4.38561V29.8482H2.71361V20.8362C2.71361 20.3742 3.08761 20.0002 3.54961 20.0002H41.7736C42.2356 20.0002 42.6096 20.3742 42.6096 20.8362V29.8482Z"
            fill="#4D4A2F"/>
      <mask id="mask0" mask-type="alpha" maskUnits="userSpaceOnUse" x="0" y="20" width="45" height="23">
        <path id="Clip 13" fill-rule="evenodd" clip-rule="evenodd" d="M0 43H44.706V20H0V43Z" fill="white"/>
      </mask>
      <g mask="url(#mask0)">
        <path id="Fill 12" fill-rule="evenodd" clip-rule="evenodd" d="M6.39 32.499H39.128V31.544H6.39V32.499Z"
              fill="#4D4A2F"/>
      </g>
    </g>
  </g>
  <defs>
    <linearGradient id="paint0_linear" x1="1.16721" y1="23" x2="1.16721" y2="39.9367" gradientUnits="userSpaceOnUse">
      <stop stop-color="#FF803B"/>
      <stop offset="1" stop-color="#FF9100"/>
    </linearGradient>
  </defs>
</svg>
