<svg width="53" height="23" viewBox="0 0 53 23" fill="none" xmlns="http://www.w3.org/2000/svg">
<path fill-rule="evenodd" clip-rule="evenodd" d="M48.77 19.7412H45.9964C45.8617 19.7412 45.7524 19.8482 45.7524 19.9802V22.7612C45.7524 22.8932 45.8617 23.0002 45.9964 23.0002H48.77C48.9048 23.0002 49.014 22.8932 49.014 22.7612V19.9802C49.014 19.8482 48.9048 19.7412 48.77 19.7412Z" fill="currentColor"/>
<path fill-rule="evenodd" clip-rule="evenodd" d="M5.68165 19.7412H2.90804C2.77329 19.7412 2.66406 19.8482 2.66406 19.9802V22.7612C2.66406 22.8932 2.77329 23.0002 2.90804 23.0002H5.68165C5.8164 23.0002 5.92562 22.8932 5.92562 22.7612V19.9802C5.92562 19.8482 5.8164 19.7412 5.68165 19.7412Z" fill="currentColor"/>
<path fill-rule="evenodd" clip-rule="evenodd" d="M51 12H49.2895V2.03737H3.71054V12H2V1.01868C2 0.455727 2.38262 0 2.85527 0H50.1447C50.6174 0 51 0.455727 51 1.01868V12Z" fill="currentColor"/>
<path fill-rule="evenodd" clip-rule="evenodd" d="M5.45996 12.499H47.0467V11.544H5.45996V12.499Z" fill="currentColor"/>
<path fill-rule="evenodd" clip-rule="evenodd" d="M1 12H52V20H1V12Z" stroke="currentColor" stroke-width="1.5" stroke-linecap="round" stroke-linejoin="round"/>
<path fill-rule="evenodd" clip-rule="evenodd" d="M1 17.955H52V16.045H1V17.955Z" fill="currentColor"/>
</svg>
