<svg width="50" height="37" viewBox="0 0 50 37" fill="none" xmlns="http://www.w3.org/2000/svg">
<path fill-rule="evenodd" clip-rule="evenodd" d="M16.3241 4.46588L25.6947 35.1158L32.4204 33.0595L31.7249 30.7846L28.1881 31.8659C27.8308 31.9751 27.4569 31.7864 27.3523 31.4441L19.7515 6.58299C19.647 6.24138 19.8513 5.87508 20.2085 5.76587L23.7453 4.68455L23.0498 2.40964L16.3241 4.46588ZM14.8419 4.24166C14.7372 3.89931 14.9417 3.53375 15.2989 3.42453L23.3174 0.973024C23.6747 0.863806 24.0486 1.05253 24.1533 1.39488L25.2276 4.90877C25.3322 5.25112 25.1278 5.61668 24.7705 5.7259L21.2337 6.80721L28.4557 30.4293L31.9925 29.348C32.3498 29.2388 32.7237 29.4275 32.8284 29.7698L33.9027 33.2837C34.0073 33.6261 33.8029 33.9916 33.4456 34.1009L25.4271 36.5524C25.0699 36.6616 24.6959 36.4729 24.5913 36.1305L14.8419 4.24166Z" fill="currentColor"/>
<path fill-rule="evenodd" clip-rule="evenodd" d="M46.4621 26.5527H43.8477C43.7206 26.5527 43.6177 26.6569 43.6177 26.7854V29.4933C43.6177 29.6218 43.7206 29.726 43.8477 29.726H46.4621C46.5891 29.726 46.6921 29.6218 46.6921 29.4933V26.7854C46.6921 26.6569 46.5891 26.5527 46.4621 26.5527Z" fill="currentColor"/>
<path fill-rule="evenodd" clip-rule="evenodd" d="M8.93381 10H6.31934C6.19232 10 6.08936 10.1042 6.08936 10.2327V12.9405C6.08936 13.0691 6.19232 13.1732 6.31934 13.1732H8.93381C9.06083 13.1732 9.16379 13.0691 9.16379 12.9405V10.2327C9.16379 10.1042 9.06083 10 8.93381 10Z" fill="currentColor"/>
<path fill-rule="evenodd" clip-rule="evenodd" d="M49.978 16.6678H48.3691V11.628H30.7827V16.6678H29.1738V10.814C29.1738 10.3642 29.5337 10 29.9783 10L49.1735 10C49.6181 10 49.978 10.3642 49.978 10.814V16.6678Z" fill="currentColor"/>
<path fill-rule="evenodd" clip-rule="evenodd" d="M8.97607 22.6363H40.4787V21.7065H8.97607V22.6363Z" fill="currentColor"/>
</svg>
