<svg width="55" height="30" viewBox="0 0 55 30" fill="none" xmlns="http://www.w3.org/2000/svg">
	<path
		d="M26.6064 8.06641L54.0001 11.044M54.0001 11.044L45.0674 15.2126V24.1453M54.0001 11.044V19.3812L45.0674 24.1453M45.0674 24.1453L28.393 21.7632"
		stroke="currentColor" />
	<path
		d="M28.3942 13.4267L45.6641 15.2132M28.3942 13.4267L14.1019 19.3818M28.3942 13.4267V21.7639L14.1019 28.3145M2.19161 17.5953L26.6077 8.06706V0.920898M2.19161 17.5953V25.9325M2.19161 17.5953V9.25809M2.19161 17.5953L8.14675 18.4886L14.1019 19.3818M14.1019 19.3818V28.3145M2.19161 25.9325L14.1019 28.3145M2.19161 25.9325L1.23828 25.7055V9.31491M2.19161 9.25809L26.6077 0.920898M2.19161 9.25809L1.23828 9.31491M26.6077 0.920898H24.8211L1.23828 9.31491"
		stroke="currentColor" />
	<path
		d="M2.19189 27.1236C2.19189 26.6472 2.19189 26.1311 2.19189 25.9326M14.1022 29.5057C14.1022 29.0293 14.1022 28.5132 14.1022 28.3147"
		stroke="currentColor" />
	<path
		d="M45.0675 25.3378V24.1467M54.0002 20.5737C54.0002 20.0972 54.0002 19.1841 54.0002 18.7871M28.3931 22.9557V21.7647"
		stroke="currentColor" />
	<path d="M36.1465 8.06641L26.012 6.97078" stroke="currentColor" stroke-width="3" />
	<path d="M12.3271 17.5957L2.19265 16.5001" stroke="currentColor" stroke-width="3" />
	<path d="M29.5853 13.4262L18.2705 11.6396" stroke="currentColor" stroke-width="0.4" />
</svg>