<svg width="38" height="36" viewBox="0 0 38 36" fill="none" xmlns="http://www.w3.org/2000/svg">
  <g id="hall">
    <g class="hover">
      <path opacity="0.7" fill-rule="evenodd"
            clip-rule="evenodd"
            d="M15.958 27.4899C15.958 27.4899 13.0913 28.1751 12.5749 25.4989C11.8761 21.8773 13.8048 14.5132 11.405 9.61306C9.00524 4.71297 0.875763 7.94618 0.875763 7.94618L0.875763 25.4989L2.50001 30C2.50001 30 3.62142 33.2713 7.75705 32.5C11.8927 31.7287 15.958 27.4899 15.958 27.4899Z"
            fill="url(#hall-paint0_linear)"/>
    </g>
    <g class="cat">
      <mask id="hall-mask0" mask-type="alpha" maskUnits="userSpaceOnUse" x="2" y="2" width="13" height="29">
        <rect id="hall-Mask" x="2" y="2" width="13" height="29" rx="6.5" fill="white"/>
      </mask>
      <g mask="url(#hall-mask0)">
        <g id="s">
          <path fill-rule="evenodd" clip-rule="evenodd"
                d="M11.6423 19.2677C11.6423 19.2903 11.6148 19.3452 11.6023 19.3476C11.4135 19.6996 11.0462 19.9538 10.6561 19.9573C10.4616 19.9573 10.2545 19.8965 10.1378 19.7378C10.0256 19.5934 10.0108 19.3906 10.0291 19.2032C10.0691 18.8357 10.2362 18.4813 10.4924 18.2236C10.6126 18.1007 10.7613 17.9981 10.9318 17.9814C11.2121 17.9563 11.4661 18.1914 11.5679 18.4646C11.6331 18.6388 11.6515 18.8262 11.6515 19.0135L11.7441 18.8643C11.7384 19.0063 11.7007 19.1424 11.6423 19.2677M7.30031 18.7522C7.17904 18.9097 6.97195 18.9705 6.78088 18.9682C6.38844 18.9646 6.02003 18.7104 5.82896 18.3584C5.81637 18.3548 5.79235 18.3071 5.79235 18.288C5.73628 18.1627 5.69853 18.0231 5.69281 17.8787L5.78548 18.0267C5.78548 17.837 5.8015 17.6532 5.869 17.4754C5.97083 17.2046 6.22483 16.9695 6.50285 16.9958C6.67218 17.0077 6.82092 17.1151 6.94449 17.2368C7.19849 17.4945 7.36553 17.8465 7.40557 18.214C7.42617 18.4002 7.4113 18.603 7.30031 18.7522M22.3274 30.9445C22.1271 31.1748 21.9029 31.3454 21.6638 31.3896C21.3743 29.3384 20.9681 27.5498 19.6913 25.8602C18.0769 23.7267 15.6525 22.6039 13.0519 22.7387C13.0484 22.7387 12.124 16.293 12.124 14.6809C11.3917 15.0866 11.8185 14.9231 11.0371 15.2358C10.5485 15.4291 9.99246 15.268 9.52222 15.0126C9.14809 14.8134 8.89752 14.5198 8.71217 14.1559C8.62636 13.9853 7.99595 12.8636 8.10693 12.7467C3.1677 17.8298 0.377161 24.6407 0.163208 31.5483C-0.371102 31.6032 -0.788711 31.6032 -1.4832 33.4276C-1.31387 32.9861 3.55785 33.5624 4.17568 33.5278C6.13215 33.4145 8.08862 33.3429 10.0451 33.3083C12.0485 33.2737 14.0518 33.2904 16.0552 33.3453C17.0769 33.3727 18.0975 33.4109 19.1181 33.4586C19.6272 33.4813 20.1375 33.504 20.6466 33.535C20.9761 33.5553 24.5504 32.5243 25.3547 31.6604C30.6681 25.9628 23.277 22.2006 21.396 22.7387C20.5894 22.9702 19.2474 23.3711 19.1181 24.2326C20.7965 24.025 23.6774 24.9951 24.2644 26.6477C24.5596 27.483 23.8754 28.8814 23.6088 29.7227C23.4738 30.1462 22.7129 30.4982 22.3274 30.9445"
                fill="#4D4A2F"/>
          <path fill-rule="evenodd" clip-rule="evenodd"
                d="M19.5761 24.351C21.004 25.981 21.9021 28.1693 21.9524 30.5701C21.9547 30.6787 21.9547 30.7884 21.9536 30.8982C22.052 30.8493 22.163 30.7646 22.2797 30.6476V30.6476C22.5611 30.3696 22.8105 29.9842 22.997 29.6811C23.4352 28.9652 23.6858 28.1538 23.7201 27.3341C23.7327 27.0226 23.711 26.7864 23.648 26.5907C23.5279 26.2172 23.2373 25.8783 22.7316 25.524C21.5611 24.7054 20.6435 24.3641 19.5761 24.351V24.351ZM8.09812 13.1884C6.55698 14.8971 0.393528 22.3106 0.472473 31.3839L0.475905 31.6786L0.194448 31.7072C0.011387 31.7752 -0.488599 31.9984 -0.955406 32.9016C0.375221 32.7966 3.66003 33.0723 4.15887 33.0436C6.05813 32.9351 8.03634 32.8611 10.0397 32.8241C12.4687 32.7835 14.9503 32.8121 17.6253 32.9124C19.7488 32.9911 23.1538 32.9553 23.8288 32.5317C24.6469 32.021 25.6709 31.3027 26.3356 30.2861C27.3161 28.7838 27.3779 26.6444 26.4866 25.0825C25.5942 23.5217 23.7579 22.5624 22.0268 22.7449C21.1996 22.8332 20.5795 23.1518 20.1104 23.7389C21.3277 23.8749 22.2533 24.4131 23.076 24.9882C23.7018 25.4261 24.0691 25.8712 24.2338 26.3867C24.3483 26.7446 24.3483 27.1145 24.338 27.3615C24.2979 28.2946 24.0142 29.2158 23.5176 30.0272C23.3128 30.3625 23.0359 30.7884 22.7053 31.1154C22.3083 31.5092 21.925 31.6619 21.5634 31.5676L21.3243 31.5044L21.3289 31.2466C21.3346 31.0283 21.338 30.8052 21.3335 30.5832C21.2374 25.9034 17.6848 22.0946 13.4138 22.0946H13.1701L13.1129 21.8476C12.9367 21.0923 12.8978 20.3179 12.8612 19.5698C12.8051 18.4828 12.749 17.3755 12.7765 16.2813C12.7925 15.6596 12.8371 15.0344 12.9092 14.4151C12.8451 14.4533 12.7822 14.4926 12.7193 14.5308C12.2147 14.8387 11.693 15.1573 11.1472 15.3756C10.6427 15.5749 10.0329 15.4926 9.37955 15.1382C8.97796 14.9234 8.67019 14.5988 8.43908 14.1454C8.38072 14.0285 8.22512 13.5739 8.09812 13.1884V13.1884ZM-2 33.6307L-1.76088 33.1236C-1.38102 32.3193 -0.715138 31.5772 -0.145359 31.1834C-0.13163 20.6843 7.93108 12.4367 8.01231 12.3544L8.36471 12L8.52031 12.4833C8.71023 13.0739 8.93677 13.7445 8.98597 13.8447C9.15759 14.18 9.37269 14.4103 9.6633 14.5654C10.0077 14.7516 10.5065 14.9389 10.9264 14.773C11.4241 14.5738 11.9241 14.2695 12.4069 13.9748C12.6575 13.822 12.9069 13.6693 13.154 13.5321L13.6975 13.2314L13.6048 13.8662C13.4858 14.668 13.4161 15.4866 13.3943 16.298C13.3669 17.3671 13.4229 18.4613 13.4778 19.5197C13.5099 20.1712 13.5419 20.8286 13.662 21.4539C15.7936 21.5219 17.7455 22.4657 19.2191 23.9656L19.2752 23.8654C19.869 22.8094 20.7477 22.2331 21.9639 22.1042C23.9592 21.8894 25.9901 22.9561 27.0175 24.7531C28.0438 26.5501 27.9752 28.9199 26.8459 30.6488C26.1137 31.7693 25.0187 32.5401 24.1469 33.0854C23.1206 33.7273 18.5166 33.5901 17.6024 33.5567C14.9389 33.4565 12.4676 33.4279 10.05 33.4696C8.05465 33.5054 6.08445 33.5794 4.19205 33.688C3.58452 33.7226 -1.40963 33.5842 -1.45997 33.5877L-2 33.6307Z"
                fill="#4D4A2F"/>
        </g>
      </g>
    </g>
    <g class="outline">
      <path fill-rule="evenodd" clip-rule="evenodd" d="M28.8 33.6379H30.498V0.421387H28.8V33.6379Z"
            fill="#4D4A2F"/>
      <path fill-rule="evenodd" clip-rule="evenodd"
            d="M29.5 0C28.6713 0 28 0.671956 28 1.49954C28 2.32804 28.6713 3 29.5 3C30.3288 3 31 2.32804 31 1.49954C31 0.671956 30.3288 0 29.5 0Z"
            fill="#4D4A2F"/>
      <path fill-rule="evenodd" clip-rule="evenodd"
            d="M36.4995 2C35.671 2 35 2.67196 35 3.49954C35 4.32804 35.671 5 36.4995 5C37.328 5 38 4.32804 38 3.49954C38 2.67196 37.328 2 36.4995 2Z"
            fill="#4D4A2F"/>
      <path fill-rule="evenodd" clip-rule="evenodd"
            d="M30.4982 11.2228H28.8002C28.8002 9.42933 30.5922 7.50087 32.7952 6.92487C34.8812 6.38078 35.8112 5.88742 35.8112 4.40405H37.5092C37.5092 6.94042 35.4352 7.69396 33.3112 8.24951C31.8392 8.63323 30.4982 10.0503 30.4982 11.2228Z"
            fill="#4D4A2F"/>
      <path fill-rule="evenodd" clip-rule="evenodd"
            d="M22.4996 8C21.6711 8 21 8.67104 21 9.49954C21 10.328 21.6711 11 22.4996 11C23.3281 11 24 10.328 24 9.49954C24 8.67104 23.3281 8 22.4996 8Z"
            fill="#4D4A2F"/>
      <path fill-rule="evenodd" clip-rule="evenodd"
            d="M30.4982 17.3514H28.8002C28.8002 16.0456 27.3452 13.8128 25.9872 13.4585C23.8632 12.9029 21.7892 12.1494 21.7892 9.61304H23.4872C23.4872 11.0964 24.4172 11.5906 26.5032 12.1347C28.7822 12.7287 30.4982 15.7093 30.4982 17.3514Z"
            fill="#4D4A2F"/>
      <path fill-rule="evenodd" clip-rule="evenodd"
            d="M34.216 36H32.518C32.518 35.0803 31.604 34.3325 30.48 34.3325H28.818C27.695 34.3325 26.78 35.0803 26.78 36H25.083C25.083 34.3145 26.759 32.9432 28.818 32.9432H30.48C32.54 32.9432 34.216 34.3145 34.216 36Z"
            fill="#4D4A2F"/>
      <rect x="0.75" y="0.75" width="15.5" height="31.5" rx="7.25" stroke="#4D4A2F" stroke-width="1.5"/>
      <rect x="2.5" y="2.5" width="12" height="28" rx="6" stroke="#4D4A2F"/>
      <path fill-rule="evenodd" clip-rule="evenodd"
            d="M12.1066 16.5879L8.62559 19.2933L8.01195 18.5037L11.493 15.7983L12.1066 16.5879Z" fill="#4D4A2F"/>
      <path fill-rule="evenodd" clip-rule="evenodd"
            d="M12.0965 20.6478L6.62593 24.1914L6.08226 23.3521L11.5528 19.8085L12.0965 20.6478Z" fill="#4D4A2F"/>
      <path fill-rule="evenodd" clip-rule="evenodd"
            d="M14.9183 29.0596L16.9404 35.4905L15.5095 35.9404L13.4873 29.5095L14.9183 29.0596ZM2.45429 30.0905L3.9095 30.4543L2.5457 35.9095L1.09048 35.5457L2.45429 30.0905Z"
            fill="#4D4A2F"/>
      <path fill-rule="evenodd" clip-rule="evenodd"
            d="M11.3598 11.192L5.84802 17.2064L5.11078 16.5308L10.6226 10.5164L11.3598 11.192Z" fill="#4D4A2F"/>
    </g>
  </g>
  <defs>
    <linearGradient id="hall-paint0_linear" x1="0.875763" y1="6.66089" x2="0.875763" y2="32.6472"
                    gradientUnits="userSpaceOnUse">
      <stop stop-color="#FF803B"/>
      <stop offset="1" stop-color="#FF9100"/>
    </linearGradient>
  </defs>
</svg>
