<svg width="38" height="36" viewBox="0 0 38 36" fill="none" xmlns="http://www.w3.org/2000/svg">
	<g id="hall">
		<g class="hover">
			<path opacity="0.7" fill-rule="evenodd" clip-rule="evenodd"
				d="M15.958 27.4899C15.958 27.4899 13.0913 28.1751 12.5749 25.4989C11.8761 21.8773 13.8048 14.5132 11.405 9.61306C9.00524 4.71297 0.875763 7.94618 0.875763 7.94618L0.875763 25.4989L2.50001 30C2.50001 30 3.62142 33.2713 7.75705 32.5C11.8927 31.7287 15.958 27.4899 15.958 27.4899Z"
				fill="url(#hall-paint01_linear)" />
		</g>
		<g class="outline">
			<path fill-rule="evenodd" clip-rule="evenodd" d="M28.8 33.6379H30.498V0.421387H28.8V33.6379Z"
				fill="#4D4A2F" />
			<path fill-rule="evenodd" clip-rule="evenodd"
				d="M29.5 0C28.6713 0 28 0.671956 28 1.49954C28 2.32804 28.6713 3 29.5 3C30.3288 3 31 2.32804 31 1.49954C31 0.671956 30.3288 0 29.5 0Z"
				fill="#4D4A2F" />
			<path fill-rule="evenodd" clip-rule="evenodd"
				d="M36.4995 2C35.671 2 35 2.67196 35 3.49954C35 4.32804 35.671 5 36.4995 5C37.328 5 38 4.32804 38 3.49954C38 2.67196 37.328 2 36.4995 2Z"
				fill="#4D4A2F" />
			<path fill-rule="evenodd" clip-rule="evenodd"
				d="M30.4982 11.2228H28.8002C28.8002 9.42933 30.5922 7.50087 32.7952 6.92487C34.8812 6.38078 35.8112 5.88742 35.8112 4.40405H37.5092C37.5092 6.94042 35.4352 7.69396 33.3112 8.24951C31.8392 8.63323 30.4982 10.0503 30.4982 11.2228Z"
				fill="#4D4A2F" />
			<path fill-rule="evenodd" clip-rule="evenodd"
				d="M22.4996 8C21.6711 8 21 8.67104 21 9.49954C21 10.328 21.6711 11 22.4996 11C23.3281 11 24 10.328 24 9.49954C24 8.67104 23.3281 8 22.4996 8Z"
				fill="#4D4A2F" />
			<path fill-rule="evenodd" clip-rule="evenodd"
				d="M30.4982 17.3514H28.8002C28.8002 16.0456 27.3452 13.8128 25.9872 13.4585C23.8632 12.9029 21.7892 12.1494 21.7892 9.61304H23.4872C23.4872 11.0964 24.4172 11.5906 26.5032 12.1347C28.7822 12.7287 30.4982 15.7093 30.4982 17.3514Z"
				fill="#4D4A2F" />
			<path fill-rule="evenodd" clip-rule="evenodd"
				d="M34.216 36H32.518C32.518 35.0803 31.604 34.3325 30.48 34.3325H28.818C27.695 34.3325 26.78 35.0803 26.78 36H25.083C25.083 34.3145 26.759 32.9432 28.818 32.9432H30.48C32.54 32.9432 34.216 34.3145 34.216 36Z"
				fill="#4D4A2F" />
			<rect x="0.75" y="0.75" width="15.5" height="31.5" rx="7.25" stroke="#4D4A2F" stroke-width="1.5" />
			<rect x="2.5" y="2.5" width="12" height="28" rx="6" stroke="#4D4A2F" />
			<path fill-rule="evenodd" clip-rule="evenodd"
				d="M12.1066 16.5879L8.62559 19.2933L8.01195 18.5037L11.493 15.7983L12.1066 16.5879Z" fill="#4D4A2F" />
			<path fill-rule="evenodd" clip-rule="evenodd"
				d="M12.0965 20.6478L6.62593 24.1914L6.08226 23.3521L11.5528 19.8085L12.0965 20.6478Z" fill="#4D4A2F" />
			<path fill-rule="evenodd" clip-rule="evenodd"
				d="M14.9183 29.0596L16.9404 35.4905L15.5095 35.9404L13.4873 29.5095L14.9183 29.0596ZM2.45429 30.0905L3.9095 30.4543L2.5457 35.9095L1.09048 35.5457L2.45429 30.0905Z"
				fill="#4D4A2F" />
			<path fill-rule="evenodd" clip-rule="evenodd"
				d="M11.3598 11.192L5.84802 17.2064L5.11078 16.5308L10.6226 10.5164L11.3598 11.192Z" fill="#4D4A2F" />
		</g>
	</g>
	<defs>
		<linearGradient id="hall-paint01_linear" x1="0.875763" y1="6.66089" x2="0.875763" y2="32.6472"
			gradientUnits="userSpaceOnUse">
			<stop stop-color="#FF803B" />
			<stop offset="1" stop-color="#FF9100" />
		</linearGradient>
	</defs>
</svg>