<svg width="71" height="49" viewBox="0 0 71 49" fill="none" xmlns="http://www.w3.org/2000/svg">
<g id="kids">
<g class="hover">
<path id="Path 43" opacity="0.7" fill-rule="evenodd" clip-rule="evenodd" d="M33 36.3249L64.8766 35.7562C64.8766 35.7562 62.7182 31.0957 55.4298 29.1524C51.8781 28.2055 46.6128 28.3198 43.1589 29.1524C40.2034 29.8649 39.7477 27.0493 37.7737 26.3369C36.5894 25.9095 33.4931 26.3369 33.4931 26.3369L33 36.3249Z" fill="url(#paint0_linear)"/>
<path id="Oval" opacity="0.7" fill-rule="evenodd" clip-rule="evenodd" d="M58.1315 17.6911C58.1315 17.6911 66.8576 16.3306 67.3652 10.5277C67.8729 4.72479 59.526 1.75195 59.526 1.75195C59.526 1.75195 62.3514 5.98523 62.0165 10.0004C61.6864 13.9572 58.1315 17.6911 58.1315 17.6911Z" fill="url(#paint1_linear)"/>
</g>
<g class="cat">
<path id="Fill 1" opacity="0.7" fill-rule="evenodd" clip-rule="evenodd" d="M16.3431 34.4062C16.3431 34.4289 16.3723 34.484 16.3848 34.4868C16.5783 34.8389 16.9568 35.0948 17.3576 35.0976C17.558 35.0976 17.7709 35.0368 17.892 34.8785C18.0061 34.7328 18.0228 34.5292 18.0033 34.3412C17.9616 33.9736 17.7904 33.6173 17.526 33.3586C17.4021 33.237 17.2504 33.1338 17.0751 33.1168C16.7856 33.0913 16.524 33.3275 16.4196 33.6018C16.3528 33.7757 16.3333 33.9637 16.3333 34.1503L16.2387 34.0019M21.3461 34.1051C21.751 34.1023 22.1296 33.8478 22.3258 33.4943C22.3383 33.4915 22.3648 33.4434 22.3648 33.4236C22.4218 33.2978 22.4594 33.1592 22.4664 33.0136L22.3703 33.162C22.3703 32.9712 22.355 32.7874 22.2854 32.6092C22.1797 32.3378 21.9194 32.1016 21.6328 32.1285C21.4574 32.1412 21.3057 32.2473 21.1777 32.3703C20.9174 32.629 20.7449 32.9811 20.7045 33.3501C20.6823 33.5367 20.6976 33.7403 20.8117 33.8888C20.9355 34.0471 21.1499 34.1093 21.3461 34.1051ZM7.75003 47.3699C7.44296 45.928 7.04389 43.4988 8.359 41.805C10.0192 39.6658 13.1701 39.6205 15.8462 39.7576C15.849 39.7576 15.8462 32.0884 15.8462 30.4738C16.6005 30.8796 17.1245 31.4893 18.7474 31.2165C20.3704 30.9436 20.0964 27.9845 19.9823 27.8685C25.0646 32.9655 27.937 39.7931 28.1568 46.7182C28.7065 46.7733 29.1366 46.7733 29.8519 48.6029C29.6765 48.1603 24.6638 48.7386 24.0278 48.7018C22.0141 48.5887 20.0003 48.518 17.988 48.4827C15.9256 48.4487 13.8631 48.4643 11.8007 48.5194C10.75 48.5477 9.6993 48.5859 8.64999 48.6326C8.12534 48.6566 7.60068 48.6792 7.07603 48.7103C6.73647 48.7315 3.44097 48.2352 2.61155 47.3699C-2.85627 41.6565 4.30216 37.6589 6.23795 38.199C7.06738 38.4295 8.51639 38.5192 8.64999 39.3845C6.92295 39.1766 3.95732 40.1479 3.35335 41.805C3.04857 42.6434 3.61331 44.0733 4.02691 44.8872C5.31806 47.428 7.50371 47.3261 7.75003 47.3699Z" fill="url(#paint2_linear)"/>
<path id="Path 21 Copy 4" opacity="0.7" fill-rule="evenodd" clip-rule="evenodd" d="M26.6945 38.8912C26.6945 38.8912 27.3287 36.8675 28.4627 37.1712C29.5967 37.475 29.8519 37.2468 29.8519 37.6991C29.8519 37.9654 29.7095 38.1394 29.3581 38.3124C29.1129 38.4331 28.5006 38.2151 28.2732 38.6371C27.9892 39.164 27.7509 42.0526 27.7509 42.0526C27.7509 42.0526 27.3288 40.1501 27.0576 39.2023C26.7864 38.2545 26.6945 38.8912 26.6945 38.8912Z" fill="url(#paint3_linear)"/>
<path id="Path 21 Copy 5" fill-rule="evenodd" clip-rule="evenodd" d="M26.1204 36.7456C26.1204 36.7456 27.3664 36.2632 28.2518 36.2632C29.1372 36.2632 29.7919 36.9529 29.849 37.5718C29.9061 38.1906 29.1049 38.0215 28.2999 38.5373C27.8001 38.8575 27.7874 42.0527 27.7874 42.0527C27.7874 42.0527 27.3732 40.0945 27.1071 39.119C26.8411 38.1435 26.1204 36.7456 26.1204 36.7456Z" stroke="#4D4A2F" stroke-width="0.578947"/>
<path id="Path 12" d="M18.8404 36.2989C19.6706 36.2989 19.8859 34.9779 19.8859 34.9779C19.8859 34.9779 20.6958 36.2989 21.5811 36.2989" stroke="#4D4A2F" stroke-width="0.578947"/>
<g id="Group 5">
<mask id="mask0" mask-type="alpha" maskUnits="userSpaceOnUse" x="0" y="27" width="31" height="22">
<path id="Clip 4" fill-rule="evenodd" clip-rule="evenodd" d="M30.426 27.1494H0.00695419V48.7106H30.426V27.1494Z" fill="white"/>
</mask>
<g mask="url(#mask0)">
<path id="Fill 3" fill-rule="evenodd" clip-rule="evenodd" d="M8.35901 39.425C6.89995 41.0453 5.97887 43.2192 5.92908 45.6062C5.92632 45.7141 5.92632 45.8235 5.9277 45.9328C5.82674 45.8837 5.71334 45.7997 5.5944 45.6833H5.59301C5.30535 45.4058 5.05088 45.0245 4.86003 44.7218C4.41193 44.0112 4.15608 43.2038 4.12012 42.3895C4.10768 42.0797 4.13119 41.8456 4.19481 41.6508C4.31651 41.2794 4.61385 40.943 5.13248 40.5912C6.32877 39.7768 7.26644 39.4376 8.35901 39.425ZM20.0993 28.331C21.6745 30.0284 27.9782 37.3968 27.8966 46.415L27.8938 46.7079L28.1829 46.7373C28.3696 46.8046 28.8813 47.0261 29.3584 47.9231C27.9976 47.8194 24.6369 48.0941 24.1279 48.0647C22.1848 47.9568 20.1615 47.8825 18.1133 47.8474C15.628 47.8068 13.0902 47.8348 10.3547 47.9344C8.18337 48.0128 4.70098 47.9764 4.00948 47.5559C3.17277 47.0485 2.12584 46.3351 1.44679 45.3231C0.442734 43.8303 0.379116 41.7041 1.29189 40.1524C2.20329 38.6008 4.08278 37.6477 5.85163 37.8285C6.69941 37.9168 7.33282 38.2336 7.81273 38.8167C6.56803 38.9512 5.62067 39.4867 4.77981 40.0585C4.13948 40.4944 3.76331 40.936 3.59459 41.4476C3.47841 41.8036 3.47841 42.1722 3.48948 42.4175C3.52958 43.3454 3.82001 44.2606 4.32757 45.0666C4.53641 45.3988 4.81992 45.8235 5.15875 46.1473C5.56536 46.5397 5.95674 46.6911 6.32739 46.5972L6.57079 46.5341L6.56526 46.279C6.56111 46.0618 6.55696 45.8389 6.56111 45.6202C6.65931 40.9668 10.2938 37.1824 14.6627 37.1824H14.9103L14.9697 36.9371C15.1495 36.1858 15.1896 35.4177 15.227 34.6734C15.2837 33.5928 15.3418 32.4925 15.3141 31.4034C15.2961 30.7867 15.2519 30.1657 15.1786 29.5504C15.2436 29.5883 15.3072 29.6261 15.3722 29.6654C15.888 29.9709 16.4219 30.2863 16.9792 30.5035C17.4951 30.7012 18.1202 30.6199 18.7868 30.2681C19.1976 30.055 19.5129 29.7326 19.7494 29.2813C19.8102 29.165 19.9693 28.7136 20.0993 28.331ZM30.4261 48.6478L30.1813 48.1446C29.7941 47.3443 29.1123 46.607 28.53 46.2159C28.5162 35.7807 20.2694 27.5825 20.1864 27.5012L19.8254 27.1494L19.6664 27.6302C19.4728 28.2161 19.2404 28.8832 19.1906 28.9828C19.015 29.3164 18.7951 29.5448 18.4978 29.699C18.1451 29.884 17.6348 30.0704 17.2047 29.905C16.6971 29.7074 16.1854 29.4047 15.6917 29.1117C15.4344 28.9589 15.1799 28.809 14.9282 28.673L14.3709 28.373L14.4663 29.0038C14.588 29.8013 14.6599 30.6143 14.6807 31.4216C14.7097 32.4841 14.653 33.5717 14.5963 34.623C14.5631 35.2705 14.5299 35.9237 14.4082 36.5446C12.2272 36.6133 10.2316 37.551 8.72412 39.0423L8.66742 38.9428C8.06028 37.893 7.15995 37.3197 5.91664 37.1908C3.87671 36.9777 1.79945 38.0374 0.748377 39.8245C-0.301317 41.6101 -0.230785 43.9663 0.924017 45.6847C1.67222 46.799 2.79245 47.5643 3.6831 48.1054C4.73279 48.7445 9.44328 48.6071 10.3768 48.5735C13.1027 48.4754 15.6294 48.4474 18.1022 48.488C20.1421 48.523 22.1585 48.5973 24.0934 48.7053C24.7143 48.7403 29.8231 48.6015 29.8743 48.6057L30.4261 48.6478Z" fill="#4D4A2F"/>
</g>
</g>
</g>
<g class="outline">
<path id="Fill 1_2" fill-rule="evenodd" clip-rule="evenodd" d="M33.493 35.3634H64.7048V22.9418H33.493V35.3634ZM65.3506 36.5871H32.8465C32.4892 36.5871 32.1999 36.3134 32.1999 35.9753V22.3306C32.1999 21.9925 32.4892 21.7188 32.8465 21.7188H65.3506C65.7079 21.7188 65.9971 21.9925 65.9971 22.3306V35.9753C65.9971 36.3134 65.7079 36.5871 65.3506 36.5871Z" fill="#4D4A2F"/>
<path id="Fill 3_2" fill-rule="evenodd" clip-rule="evenodd" d="M40.9728 36.3249C40.7688 36.3249 40.603 36.1688 40.603 35.9757V22.3303C40.603 22.1372 40.7688 21.9811 40.9728 21.9811C41.1769 21.9811 41.3426 22.1372 41.3426 22.3303V35.9757C41.3426 36.1688 41.1769 36.3249 40.9728 36.3249Z" fill="#4D4A2F"/>
<path id="Fill 4" fill-rule="evenodd" clip-rule="evenodd" d="M49.0987 36.3249C48.8946 36.3249 48.7289 36.1688 48.7289 35.9757V22.3303C48.7289 22.1372 48.8946 21.9811 49.0987 21.9811C49.3027 21.9811 49.4685 22.1372 49.4685 22.3303V35.9757C49.4685 36.1688 49.3027 36.3249 49.0987 36.3249Z" fill="#4D4A2F"/>
<path id="Fill 5" fill-rule="evenodd" clip-rule="evenodd" d="M57.2252 36.3249C57.0211 36.3249 56.8562 36.1688 56.8562 35.9757V22.3303C56.8562 22.1372 57.0211 21.9811 57.2252 21.9811C57.4293 21.9811 57.595 22.1372 57.595 22.3303V35.9757C57.595 36.1688 57.4293 36.3249 57.2252 36.3249Z" fill="#4D4A2F"/>
<path id="Fill 6" fill-rule="evenodd" clip-rule="evenodd" d="M64.704 41.1965H65.9971V19.0005H64.704V41.1965Z" fill="#4D4A2F"/>
<path id="Oval Copy 9" fill-rule="evenodd" clip-rule="evenodd" d="M55.319 17.5963C55.319 17.5963 64.045 16.2359 64.5527 10.433C65.0604 4.63006 56.7135 1.65723 56.7135 1.65723C56.7135 1.65723 59.5389 5.8905 59.2039 9.90567C58.8739 13.8625 55.319 17.5963 55.319 17.5963Z" stroke="#4D4A2F" stroke-linecap="square"/>
<path id="Fill 7" fill-rule="evenodd" clip-rule="evenodd" d="M32.1999 41.1965H33.493V19.0005H32.1999V41.1965Z" fill="#4D4A2F"/>
<path id="Fill 8" fill-rule="evenodd" clip-rule="evenodd" d="M32.8461 38.7724C32.642 38.7724 32.4771 38.6163 32.4771 38.4232C32.4771 38.2294 32.642 38.0733 32.8461 38.0733H65.3509C65.555 38.0733 65.7207 38.2294 65.7207 38.4232C65.7207 38.6163 65.555 38.7724 65.3509 38.7724H32.8461Z" fill="#4D4A2F"/>
<path id="Fill 8 Copy" fill-rule="evenodd" clip-rule="evenodd" d="M32.8461 33.5688C32.642 33.5688 32.4771 33.4127 32.4771 33.2196C32.4771 33.0258 32.642 32.8697 32.8461 32.8697H65.3509C65.555 32.8697 65.7207 33.0258 65.7207 33.2196C65.7207 33.4127 65.555 33.5688 65.3509 33.5688H32.8461Z" fill="#4D4A2F"/>
<path id="Fill 8 Copy 2" fill-rule="evenodd" clip-rule="evenodd" d="M32.6099 35.7563C32.4073 35.7563 32.2436 35.6002 32.2436 35.4071C32.2436 35.2133 32.4073 35.0572 32.6099 35.0572H64.8765C65.0791 35.0572 65.2436 35.2133 65.2436 35.4071C65.2436 35.6002 65.0791 35.7563 64.8765 35.7563H32.6099Z" fill="#4D4A2F"/>
<path id="Path 34" d="M29.3999 38.9067C29.3999 38.9067 36.5339 45.0005 48.2989 45.0005C60.0639 45.0005 68.9999 38.9067 68.9999 38.9067" stroke="#4D4A2F" stroke-width="1.6" stroke-linecap="square"/>
</g>
</g>
<defs>
<linearGradient id="paint0_linear" x1="33" y1="26.1232" x2="33" y2="36.3249" gradientUnits="userSpaceOnUse">
<stop stop-color="#FF803B"/>
<stop offset="1" stop-color="#FF9100"/>
</linearGradient>
<linearGradient id="paint1_linear" x1="59.526" y1="1.75195" x2="58.1315" y2="17.6911" gradientUnits="userSpaceOnUse">
<stop stop-color="#FF803B"/>
<stop offset="1" stop-color="#FF9100"/>
</linearGradient>
<linearGradient id="paint2_linear" x1="29.8519" y1="27.8685" x2="29.8519" y2="48.711" gradientUnits="userSpaceOnUse">
<stop stop-color="#FF803B"/>
<stop offset="1" stop-color="#FF9100"/>
</linearGradient>
<linearGradient id="paint3_linear" x1="29.8519" y1="37.1316" x2="29.8519" y2="42.0526" gradientUnits="userSpaceOnUse">
<stop stop-color="#FF803B"/>
<stop offset="1" stop-color="#FF9100"/>
</linearGradient>
</defs>
</svg>
