<svg width="71" height="49" viewBox="0 0 71 49" fill="none" xmlns="http://www.w3.org/2000/svg">
	<g id="kids">
		<g class="hover">
			<path id="Path 43" opacity="0.7" fill-rule="evenodd" clip-rule="evenodd"
				d="M33 36.3249L64.8766 35.7562C64.8766 35.7562 62.7182 31.0957 55.4298 29.1524C51.8781 28.2055 46.6128 28.3198 43.1589 29.1524C40.2034 29.8649 39.7477 27.0493 37.7737 26.3369C36.5894 25.9095 33.4931 26.3369 33.4931 26.3369L33 36.3249Z"
				fill="url(#paint01_linear)" />
			<path id="Oval" opacity="0.7" fill-rule="evenodd" clip-rule="evenodd"
				d="M58.1315 17.6911C58.1315 17.6911 66.8576 16.3306 67.3652 10.5277C67.8729 4.72479 59.526 1.75195 59.526 1.75195C59.526 1.75195 62.3514 5.98523 62.0165 10.0004C61.6864 13.9572 58.1315 17.6911 58.1315 17.6911Z"
				fill="url(#paint11_linear)" />
		</g>
		<g class="outline">
			<path id="Fill 1_2" fill-rule="evenodd" clip-rule="evenodd"
				d="M33.493 35.3634H64.7048V22.9418H33.493V35.3634ZM65.3506 36.5871H32.8465C32.4892 36.5871 32.1999 36.3134 32.1999 35.9753V22.3306C32.1999 21.9925 32.4892 21.7188 32.8465 21.7188H65.3506C65.7079 21.7188 65.9971 21.9925 65.9971 22.3306V35.9753C65.9971 36.3134 65.7079 36.5871 65.3506 36.5871Z"
				fill="#4D4A2F" />
			<path id="Fill 3_2" fill-rule="evenodd" clip-rule="evenodd"
				d="M40.9728 36.3249C40.7688 36.3249 40.603 36.1688 40.603 35.9757V22.3303C40.603 22.1372 40.7688 21.9811 40.9728 21.9811C41.1769 21.9811 41.3426 22.1372 41.3426 22.3303V35.9757C41.3426 36.1688 41.1769 36.3249 40.9728 36.3249Z"
				fill="#4D4A2F" />
			<path id="Fill 4" fill-rule="evenodd" clip-rule="evenodd"
				d="M49.0987 36.3249C48.8946 36.3249 48.7289 36.1688 48.7289 35.9757V22.3303C48.7289 22.1372 48.8946 21.9811 49.0987 21.9811C49.3027 21.9811 49.4685 22.1372 49.4685 22.3303V35.9757C49.4685 36.1688 49.3027 36.3249 49.0987 36.3249Z"
				fill="#4D4A2F" />
			<path id="Fill 5" fill-rule="evenodd" clip-rule="evenodd"
				d="M57.2252 36.3249C57.0211 36.3249 56.8562 36.1688 56.8562 35.9757V22.3303C56.8562 22.1372 57.0211 21.9811 57.2252 21.9811C57.4293 21.9811 57.595 22.1372 57.595 22.3303V35.9757C57.595 36.1688 57.4293 36.3249 57.2252 36.3249Z"
				fill="#4D4A2F" />
			<path id="Fill 6" fill-rule="evenodd" clip-rule="evenodd"
				d="M64.704 41.1965H65.9971V19.0005H64.704V41.1965Z" fill="#4D4A2F" />
			<path id="Oval Copy 9" fill-rule="evenodd" clip-rule="evenodd"
				d="M55.319 17.5963C55.319 17.5963 64.045 16.2359 64.5527 10.433C65.0604 4.63006 56.7135 1.65723 56.7135 1.65723C56.7135 1.65723 59.5389 5.8905 59.2039 9.90567C58.8739 13.8625 55.319 17.5963 55.319 17.5963Z"
				stroke="#4D4A2F" stroke-linecap="square" />
			<path id="Fill 7" fill-rule="evenodd" clip-rule="evenodd"
				d="M32.1999 41.1965H33.493V19.0005H32.1999V41.1965Z" fill="#4D4A2F" />
			<path id="Fill 8" fill-rule="evenodd" clip-rule="evenodd"
				d="M32.8461 38.7724C32.642 38.7724 32.4771 38.6163 32.4771 38.4232C32.4771 38.2294 32.642 38.0733 32.8461 38.0733H65.3509C65.555 38.0733 65.7207 38.2294 65.7207 38.4232C65.7207 38.6163 65.555 38.7724 65.3509 38.7724H32.8461Z"
				fill="#4D4A2F" />
			<path id="Fill 8 Copy" fill-rule="evenodd" clip-rule="evenodd"
				d="M32.8461 33.5688C32.642 33.5688 32.4771 33.4127 32.4771 33.2196C32.4771 33.0258 32.642 32.8697 32.8461 32.8697H65.3509C65.555 32.8697 65.7207 33.0258 65.7207 33.2196C65.7207 33.4127 65.555 33.5688 65.3509 33.5688H32.8461Z"
				fill="#4D4A2F" />
			<path id="Fill 8 Copy 2" fill-rule="evenodd" clip-rule="evenodd"
				d="M32.6099 35.7563C32.4073 35.7563 32.2436 35.6002 32.2436 35.4071C32.2436 35.2133 32.4073 35.0572 32.6099 35.0572H64.8765C65.0791 35.0572 65.2436 35.2133 65.2436 35.4071C65.2436 35.6002 65.0791 35.7563 64.8765 35.7563H32.6099Z"
				fill="#4D4A2F" />
			<path id="Path 34"
				d="M29.3999 38.9067C29.3999 38.9067 36.5339 45.0005 48.2989 45.0005C60.0639 45.0005 68.9999 38.9067 68.9999 38.9067"
				stroke="#4D4A2F" stroke-width="1.6" stroke-linecap="square" />
		</g>
	</g>
	<defs>
		<linearGradient id="paint01_linear" x1="33" y1="26.1232" x2="33" y2="36.3249" gradientUnits="userSpaceOnUse">
			<stop stop-color="#FF803B" />
			<stop offset="1" stop-color="#FF9100" />
		</linearGradient>
		<linearGradient id="paint11_linear" x1="59.526" y1="1.75195" x2="58.1315" y2="17.6911"
			gradientUnits="userSpaceOnUse">
			<stop stop-color="#FF803B" />
			<stop offset="1" stop-color="#FF9100" />
		</linearGradient>
	</defs>
</svg>