<svg width="44" height="40" viewBox="0 0 44 40" fill="none" xmlns="http://www.w3.org/2000/svg">
<g id="kitchen">
<g class="hover">
<path id="Path 39" opacity="0.7" fill-rule="evenodd" clip-rule="evenodd" d="M0.5 38.8299L20 39.6699L19 25.9999L1.6213 24.8848L0.5 38.8299Z" fill="url(#paint0_linear)"/>
<path id="Path 40" opacity="0.7" fill-rule="evenodd" clip-rule="evenodd" d="M22.1052 25.4999L22 38.8299L42 39.6699L40.5092 24.8848L22.1052 25.4999Z" fill="url(#paint1_linear)"/>
<path id="Path 42" opacity="0.7" fill-rule="evenodd" clip-rule="evenodd" d="M26.84 8.49996H34V5.96496L30.3809 3.17078L28.8348 5.35941L26.84 6.25859V8.49996Z" fill="url(#paint2_linear)"/>
<path id="Path 41" opacity="0.7" fill-rule="evenodd" clip-rule="evenodd" d="M1.5 8.49993H19L18.2139 4.52175L0.5 3.42993L1.5 8.49993Z" fill="url(#paint3_linear)"/>
</g>
<g class="cat">
<path id="Path" fill-rule="evenodd" clip-rule="evenodd" d="M7.07878 38.2864C7.36825 36.1366 7.40869 33.9489 8.68554 32.178C10.2999 29.9419 12.4798 27.7089 15.0804 27.8502C15.1323 27.3097 15.7426 22.0373 15.7426 20.3477C16.4748 20.773 16.9241 21.0278 17.7055 21.3555C18.194 21.5581 18.7501 21.3893 19.2203 21.1216C19.5945 20.9128 19.845 20.6051 20.0304 20.2237C20.1162 20.0448 20.7466 18.8693 20.6356 18.7467C25.5748 24.0743 28.3654 31.2129 28.5793 38.4527C29.1137 38.5102 29.0481 37.1923 29.7426 39.1045C29.5732 38.6418 15.033 38.5127 13.0297 38.5703C12.0079 38.599 10.645 38.9957 9.62448 39.0457C9.11534 39.0695 8.54553 38.8834 8.03639 38.9159C7.70688 38.9372 4.91829 38.6953 4.05344 37.8199C-1.7545 31.9409 4.21044 27.2651 7.07878 28.4567C7.83951 28.7728 8.55626 29.0502 8.68554 29.9531C7.0071 29.7355 4.99154 31.6294 4.4046 33.3615C4.10941 34.2369 4.86717 35.6576 5.13375 36.5392C5.26876 36.9832 6.02961 37.3522 6.41518 37.8199C6.61541 38.0613 6.83966 38.2401 7.07878 38.2864Z" fill="#FFAD5F"/>
<path id="Fill 59" fill-rule="evenodd" clip-rule="evenodd" d="M17.1002 25.2677C17.1002 25.2903 17.1277 25.3452 17.1403 25.3476C17.3291 25.6996 17.6963 25.9538 18.0865 25.9573C18.281 25.9573 18.4881 25.8965 18.6048 25.7378C18.7169 25.5934 18.7318 25.3906 18.7135 25.2032C18.6734 24.8357 18.5064 24.4813 18.2501 24.2236C18.13 24.1007 17.9812 23.9981 17.8108 23.9814C17.5304 23.9563 17.2764 24.1914 17.1746 24.4646C17.1094 24.6388 17.0911 24.8262 17.0911 25.0135L16.9984 24.8643C17.0041 25.0063 17.0419 25.1424 17.1002 25.2677ZM21.4422 24.7522C21.5635 24.9097 21.7706 24.9705 21.9617 24.9682C22.3541 24.9646 22.7225 24.7104 22.9136 24.3584C22.9262 24.3548 22.9502 24.3071 22.9502 24.288C23.0063 24.1627 23.044 24.0231 23.0497 23.8787L22.9571 24.0267C22.9571 23.837 22.941 23.6532 22.8735 23.4754C22.7717 23.2046 22.5177 22.9695 22.2397 22.9958C22.0704 23.0077 21.9216 23.1151 21.7981 23.2368C21.5441 23.4945 21.377 23.8465 21.337 24.214C21.3164 24.4002 21.3313 24.603 21.4422 24.7522ZM6.41518 36.9445C6.6154 37.1748 6.83965 37.3454 7.07878 37.3896C7.36824 35.3384 7.77441 33.5498 9.05127 31.8602C10.6656 29.7267 13.0901 28.6039 15.6907 28.7387C15.6941 28.7387 16.6186 22.293 16.6186 20.6809C17.3508 21.0866 16.924 20.9231 17.7055 21.2358C18.194 21.4291 18.7501 21.268 19.2203 21.0126C19.5945 20.8134 19.845 20.5198 20.0304 20.1559C20.1162 19.9853 20.7466 18.8636 20.6356 18.7467C25.5748 23.8298 28.3654 30.6407 28.5793 37.5483C29.1136 37.6032 29.5313 37.6032 30.2257 39.4276C30.0564 38.9861 25.1847 39.5624 24.5669 39.5278C22.6104 39.4145 20.6539 39.3429 18.6975 39.3083C16.6941 39.2737 14.6907 39.2904 12.6873 39.3453C11.6656 39.3727 10.645 39.4109 9.62448 39.4586C9.11534 39.4813 8.60505 39.504 8.09591 39.535C7.7664 39.5553 4.19213 38.5243 3.3878 37.6604C-1.92555 31.9628 5.46555 28.2006 7.34651 28.7387C8.15312 28.9702 9.49519 29.3711 9.62448 30.2326C7.94603 30.025 5.0651 30.9951 4.47816 32.6477C4.18298 33.483 4.86717 34.8814 5.13375 35.7227C5.26876 36.1462 6.02961 36.4982 6.41518 36.9445Z" fill="#4D4A2F"/>
<path id="Fill 60" fill-rule="evenodd" clip-rule="evenodd" d="M9.16648 30.351C7.7386 31.981 6.84046 34.1693 6.79012 36.5701C6.78783 36.6787 6.78783 36.7884 6.78897 36.8982C6.69058 36.8493 6.5796 36.7646 6.46289 36.6476C6.18144 36.3696 5.93201 35.9842 5.74552 35.6811C5.30732 34.9652 5.05675 34.1538 5.02243 33.3341C5.00984 33.0226 5.03158 32.7864 5.09451 32.5907C5.21464 32.2172 5.50525 31.8783 6.01096 31.524C7.18141 30.7054 8.099 30.3641 9.16648 30.351ZM20.6444 19.1884C22.1856 20.8971 28.349 28.3106 28.2701 37.3839L28.2666 37.6786L28.5481 37.7072C28.7312 37.7752 29.2312 37.9984 29.698 38.9016C28.3673 38.7966 25.0825 39.0723 24.5837 39.0436C22.6844 38.9351 20.7062 38.8611 18.7028 38.8241C16.2738 38.7835 13.7922 38.8121 11.1172 38.9124C8.99372 38.9911 5.58878 38.9553 4.91374 38.5317C4.09568 38.021 3.07168 37.3027 2.40694 36.2861C1.42642 34.7838 1.36463 32.6444 2.25591 31.0825C3.14834 29.5217 4.98467 28.5624 6.71575 28.7449C7.54296 28.8332 8.16308 29.1518 8.63217 29.7389C7.41481 29.8749 6.48921 30.4131 5.66658 30.9882C5.04074 31.4261 4.67347 31.8712 4.50871 32.3867C4.3943 32.7446 4.3943 33.1145 4.4046 33.3615C4.44464 34.2946 4.72839 35.2158 5.22494 36.0272C5.42974 36.3625 5.70662 36.7884 6.03728 37.1154C6.43429 37.5092 6.81758 37.6619 7.17912 37.5676L7.41825 37.5044L7.41367 37.2466C7.40795 37.0283 7.40451 36.8052 7.40909 36.5832C7.5052 31.9034 11.0577 28.0946 15.3288 28.0946H15.5725L15.6297 27.8476C15.8059 27.0923 15.8448 26.3179 15.8814 25.5698C15.9375 24.4828 15.9935 23.3755 15.9661 22.2813C15.9501 21.6596 15.9054 21.0344 15.8333 20.4151C15.8974 20.4533 15.9603 20.4926 16.0233 20.5308C16.5278 20.8387 17.0496 21.1573 17.5953 21.3756C18.0999 21.5749 18.7097 21.4926 19.363 21.1382C19.7646 20.9234 20.0724 20.5988 20.3035 20.1454C20.3618 20.0285 20.5174 19.5739 20.6444 19.1884ZM30.7426 39.6307L30.5034 39.1236C30.1236 38.3193 29.4577 37.5772 28.8879 37.1834C28.8742 26.6843 20.8115 18.4367 20.7302 18.3544L20.3778 18L20.2222 18.4833C20.0323 19.0739 19.8058 19.7445 19.7566 19.8447C19.585 20.18 19.3699 20.4103 19.0793 20.5654C18.7349 20.7516 18.236 20.9389 17.8161 20.773C17.3184 20.5738 16.8184 20.2695 16.3356 19.9748C16.0851 19.822 15.8356 19.6693 15.5885 19.5321L15.045 19.2314L15.1377 19.8662C15.2567 20.668 15.3265 21.4866 15.3482 22.298C15.3757 23.3671 15.3196 24.4613 15.2647 25.5197C15.2327 26.1712 15.2006 26.8286 15.0805 27.4539C12.949 27.5219 10.9971 28.4657 9.52345 29.9656L9.46739 29.8654C8.87358 28.8094 7.99489 28.2331 6.77868 28.1042C4.78331 27.8894 2.75247 28.9561 1.72504 30.7531C0.69875 32.5501 0.767397 34.9199 1.89666 36.6488C2.6289 37.7693 3.72384 38.5401 4.59567 39.0854C5.62195 39.7273 10.2259 39.5901 11.1401 39.5567C13.8037 39.4565 16.275 39.4279 18.6925 39.4696C20.6879 39.5054 22.6581 39.5794 24.5505 39.688C25.158 39.7226 30.1522 39.5842 30.2025 39.5877L30.7426 39.6307Z" fill="#4D4A2F"/>
</g>
<g class="outline">
<g id="Fill 1">
<mask id="path-8-inside-1" fill="white">
<path fill-rule="evenodd" clip-rule="evenodd" d="M30.381 26.853H33.5238V26.147H30.381V26.853Z"/>
</mask>
<path d="M30.381 26.853H28.881V28.353H30.381V26.853ZM33.5238 26.853V28.353H35.0238V26.853H33.5238ZM33.5238 26.147H35.0238V24.647H33.5238V26.147ZM30.381 26.147V24.647H28.881V26.147H30.381ZM30.381 28.353H33.5238V25.353H30.381V28.353ZM35.0238 26.853V26.147H32.0238V26.853H35.0238ZM33.5238 24.647H30.381V27.647H33.5238V24.647ZM28.881 26.147V26.853H31.881V26.147H28.881Z" fill="#4D4A2F" mask="url(#path-8-inside-1)"/>
</g>
<g id="Group 20">
<g id="Fill 2">
<mask id="path-10-inside-2" fill="white">
<path fill-rule="evenodd" clip-rule="evenodd" d="M41.5999 38.4509V23.6045H23.1097V38.4509H41.5999ZM22.199 39.9509H42.5097C42.8359 39.9509 43.0999 39.6999 43.0999 39.3899V22.6654C43.0999 22.3554 42.8359 22.1045 42.5097 22.1045H22.199C21.8728 22.1045 21.6097 22.3554 21.6097 22.6654V39.3899C21.6097 39.6999 21.8728 39.9509 22.199 39.9509Z"/>
</mask>
<path d="M41.5999 23.6045H43.0999V22.1045H41.5999V23.6045ZM41.5999 38.4509V39.9509H43.0999V38.4509H41.5999ZM23.1097 23.6045V22.1045H21.6097V23.6045H23.1097ZM23.1097 38.4509H21.6097V39.9509H23.1097V38.4509ZM40.0999 23.6045V38.4509H43.0999V23.6045H40.0999ZM23.1097 25.1045H41.5999V22.1045H23.1097V25.1045ZM24.6097 38.4509V23.6045H21.6097V38.4509H24.6097ZM41.5999 36.9509H23.1097V39.9509H41.5999V36.9509ZM42.5097 38.4509H22.199V41.4509H42.5097V38.4509ZM41.5999 39.3899C41.5999 38.8005 42.0803 38.4509 42.5097 38.4509V41.4509C43.5915 41.4509 44.5999 40.5993 44.5999 39.3899H41.5999ZM41.5999 22.6654V39.3899H44.5999V22.6654H41.5999ZM42.5097 23.6045C42.0803 23.6045 41.5999 23.2548 41.5999 22.6654H44.5999C44.5999 21.456 43.5915 20.6045 42.5097 20.6045V23.6045ZM22.199 23.6045H42.5097V20.6045H22.199V23.6045ZM23.1097 22.6654C23.1097 23.2517 22.6317 23.6045 22.199 23.6045V20.6045C21.1139 20.6045 20.1097 21.4591 20.1097 22.6654H23.1097ZM23.1097 39.3899V22.6654H20.1097V39.3899H23.1097ZM22.199 38.4509C22.6317 38.4509 23.1097 38.8036 23.1097 39.3899H20.1097C20.1097 40.5963 21.1139 41.4509 22.199 41.4509V38.4509Z" fill="#4D4A2F" mask="url(#path-10-inside-2)"/>
</g>
<g id="Fill 4">
<mask id="path-12-inside-3" fill="white">
<path fill-rule="evenodd" clip-rule="evenodd" d="M22.1052 27.6872H42.6035V27.0463H22.1052V27.6872Z"/>
</mask>
<path d="M22.1052 27.6872H20.6052V29.1872H22.1052V27.6872ZM42.6035 27.6872V29.1872H44.1035V27.6872H42.6035ZM42.6035 27.0463H44.1035V25.5463H42.6035V27.0463ZM22.1052 27.0463V25.5463H20.6052V27.0463H22.1052ZM22.1052 29.1872H42.6035V26.1872H22.1052V29.1872ZM44.1035 27.6872V27.0463H41.1035V27.6872H44.1035ZM42.6035 25.5463H22.1052V28.5463H42.6035V25.5463ZM20.6052 27.0463V27.6872H23.6052V27.0463H20.6052Z" fill="#4D4A2F" mask="url(#path-12-inside-3)"/>
</g>
<g id="Fill 5">
<mask id="path-14-inside-4" fill="white">
<path fill-rule="evenodd" clip-rule="evenodd" d="M39.7463 35.9409V36.9409H38.7463H25.8495H24.8495V35.9409V30.5018V29.5018H25.8495H38.7463H39.7463V30.5018V35.9409ZM38.7463 30.5018H25.8495V35.9409H38.7463V30.5018Z"/>
</mask>
<path d="M39.7463 36.9409V38.4409H41.2463V36.9409H39.7463ZM24.8495 36.9409H23.3495V38.4409H24.8495V36.9409ZM24.8495 29.5018V28.0018H23.3495V29.5018H24.8495ZM39.7463 29.5018H41.2463V28.0018H39.7463V29.5018ZM25.8495 30.5018V29.0018H24.3495V30.5018H25.8495ZM38.7463 30.5018H40.2463V29.0018H38.7463V30.5018ZM25.8495 35.9409H24.3495V37.4409H25.8495V35.9409ZM38.7463 35.9409V37.4409H40.2463V35.9409H38.7463ZM41.2463 36.9409V35.9409H38.2463V36.9409H41.2463ZM38.7463 38.4409H39.7463V35.4409H38.7463V38.4409ZM25.8495 38.4409H38.7463V35.4409H25.8495V38.4409ZM24.8495 38.4409H25.8495V35.4409H24.8495V38.4409ZM23.3495 35.9409V36.9409H26.3495V35.9409H23.3495ZM23.3495 30.5018V35.9409H26.3495V30.5018H23.3495ZM23.3495 29.5018V30.5018H26.3495V29.5018H23.3495ZM25.8495 28.0018H24.8495V31.0018H25.8495V28.0018ZM38.7463 28.0018H25.8495V31.0018H38.7463V28.0018ZM39.7463 28.0018H38.7463V31.0018H39.7463V28.0018ZM41.2463 30.5018V29.5018H38.2463V30.5018H41.2463ZM41.2463 35.9409V30.5018H38.2463V35.9409H41.2463ZM25.8495 32.0018H38.7463V29.0018H25.8495V32.0018ZM27.3495 35.9409V30.5018H24.3495V35.9409H27.3495ZM38.7463 34.4409H25.8495V37.4409H38.7463V34.4409ZM37.2463 30.5018V35.9409H40.2463V30.5018H37.2463Z" fill="#4D4A2F" mask="url(#path-14-inside-4)"/>
</g>
<g id="Fill 6">
<mask id="path-16-inside-5" fill="white">
<path fill-rule="evenodd" clip-rule="evenodd" d="M25.0733 22.5455H25.7486V21.2864H25.0733V22.5455Z"/>
</mask>
<path d="M25.0733 22.5455H23.5733V24.0455H25.0733V22.5455ZM25.7486 22.5455V24.0455H27.2486V22.5455H25.7486ZM25.7486 21.2864H27.2486V19.7864H25.7486V21.2864ZM25.0733 21.2864V19.7864H23.5733V21.2864H25.0733ZM25.0733 24.0455H25.7486V21.0455H25.0733V24.0455ZM27.2486 22.5455V21.2864H24.2486V22.5455H27.2486ZM25.7486 19.7864H25.0733V22.7864H25.7486V19.7864ZM23.5733 21.2864V22.5455H26.5733V21.2864H23.5733Z" fill="#4D4A2F" mask="url(#path-16-inside-5)"/>
</g>
<g id="Fill 7">
<mask id="path-18-inside-6" fill="white">
<path fill-rule="evenodd" clip-rule="evenodd" d="M28.3293 22.5455H29.0037V21.2864H28.3293V22.5455Z"/>
</mask>
<path d="M28.3293 22.5455H26.8293V24.0455H28.3293V22.5455ZM29.0037 22.5455V24.0455H30.5037V22.5455H29.0037ZM29.0037 21.2864H30.5037V19.7864H29.0037V21.2864ZM28.3293 21.2864V19.7864H26.8293V21.2864H28.3293ZM28.3293 24.0455H29.0037V21.0455H28.3293V24.0455ZM30.5037 22.5455V21.2864H27.5037V22.5455H30.5037ZM29.0037 19.7864H28.3293V22.7864H29.0037V19.7864ZM26.8293 21.2864V22.5455H29.8293V21.2864H26.8293Z" fill="#4D4A2F" mask="url(#path-18-inside-6)"/>
</g>
<g id="Fill 8">
<mask id="path-20-inside-7" fill="white">
<path fill-rule="evenodd" clip-rule="evenodd" d="M35.464 22.5455H36.1383V21.2864H35.464V22.5455Z"/>
</mask>
<path d="M35.464 22.5455H33.964V24.0455H35.464V22.5455ZM36.1383 22.5455V24.0455H37.6383V22.5455H36.1383ZM36.1383 21.2864H37.6383V19.7864H36.1383V21.2864ZM35.464 21.2864V19.7864H33.964V21.2864H35.464ZM35.464 24.0455H36.1383V21.0455H35.464V24.0455ZM37.6383 22.5455V21.2864H34.6383V22.5455H37.6383ZM36.1383 19.7864H35.464V22.7864H36.1383V19.7864ZM33.964 21.2864V22.5455H36.964V21.2864H33.964Z" fill="#4D4A2F" mask="url(#path-20-inside-7)"/>
</g>
<g id="Fill 9">
<mask id="path-22-inside-8" fill="white">
<path fill-rule="evenodd" clip-rule="evenodd" d="M38.7181 22.5455H39.3934V21.2864H38.7181V22.5455Z"/>
</mask>
<path d="M38.7181 22.5455H37.2181V24.0455H38.7181V22.5455ZM39.3934 22.5455V24.0455H40.8934V22.5455H39.3934ZM39.3934 21.2864H40.8934V19.7864H39.3934V21.2864ZM38.7181 21.2864V19.7864H37.2181V21.2864H38.7181ZM38.7181 24.0455H39.3934V21.0455H38.7181V24.0455ZM40.8934 22.5455V21.2864H37.8934V22.5455H40.8934ZM39.3934 19.7864H38.7181V22.7864H39.3934V19.7864ZM37.2181 21.2864V22.5455H40.2181V21.2864H37.2181Z" fill="#4D4A2F" mask="url(#path-22-inside-8)"/>
</g>
<g id="Fill 10">
<mask id="path-24-inside-9" fill="white">
<path fill-rule="evenodd" clip-rule="evenodd" d="M34.3886 5.76159L34.3877 5.76105C33.9284 5.48548 33.6267 4.98713 33.6267 4.4281V4.17082H31.0813V4.4281C31.0813 4.98407 30.7832 5.48435 30.3193 5.76165C30.3192 5.76171 30.3191 5.76177 30.319 5.76183C30.3187 5.76199 30.3184 5.76215 30.3182 5.76231L29.0035 6.54901H35.7041L34.3886 5.76159ZM37.2791 6.54901V7.54901H36.2791H28.4298H27.4298V6.54901V6.32537L29.8058 4.90355C29.978 4.80082 30.0813 4.62082 30.0813 4.4281V4.17082V3.17082H31.0813H33.6267H34.6267V4.17082V4.4281C34.6267 4.62082 34.7309 4.80082 34.9021 4.90355L37.2791 6.32628V6.54901ZM28.9009 4.119L26.5249 5.54173C26.3537 5.64446 26.2494 5.82355 26.2494 6.01628L26.2504 8.10991C26.2504 8.41991 26.5144 8.67082 26.8396 8.67082H37.8693C38.1954 8.67082 38.4594 8.41991 38.4594 8.10991V6.01628C38.4594 5.82355 38.3552 5.64446 38.184 5.54173L35.807 4.119V2.609C35.807 2.29991 35.543 2.0481 35.2178 2.0481H29.4911C29.1649 2.0481 28.9009 2.29991 28.9009 2.609V4.119ZM36.9594 6.55696L35.0366 5.40607L34.307 4.96935V4.119V3.5481H30.4009V4.119V4.96917L29.6715 5.40593L27.7497 6.5567L27.75 7.17082H36.9594V6.55696Z"/>
</mask>
<path d="M34.3877 5.76105L33.6159 7.0473L33.6172 7.04804L34.3877 5.76105ZM34.3886 5.76159L33.6181 7.04858L33.6182 7.04865L34.3886 5.76159ZM33.6267 4.17082H35.1267V2.67082H33.6267V4.17082ZM31.0813 4.17082V2.67082H29.5813V4.17082H31.0813ZM30.3193 5.76165L31.088 7.04969L31.0889 7.04916L30.3193 5.76165ZM30.319 5.76183L29.5502 4.47378L29.5496 4.47417L30.319 5.76183ZM30.3182 5.76231L29.5496 4.47414L29.5479 4.47517L30.3182 5.76231ZM29.0035 6.54901L28.2333 5.26186L23.5757 8.04901H29.0035V6.54901ZM35.7041 6.54901V8.04901H41.1308L36.4745 5.26194L35.7041 6.54901ZM37.2791 7.54901V9.04901H38.7791V7.54901H37.2791ZM27.4298 7.54901H25.9298V9.04901H27.4298V7.54901ZM27.4298 6.32537L26.6596 5.03823L25.9298 5.47492V6.32537H27.4298ZM29.8058 4.90355L29.0372 3.61541L29.0356 3.61641L29.8058 4.90355ZM30.0813 3.17082V1.67082H28.5813V3.17082H30.0813ZM34.6267 3.17082H36.1267V1.67082H34.6267V3.17082ZM34.9021 4.90355L34.1304 6.1898L34.1318 6.19061L34.9021 4.90355ZM37.2791 6.32628H38.7791V5.47593L38.0495 5.03922L37.2791 6.32628ZM26.5249 5.54173L25.7543 4.25481L25.7532 4.25548L26.5249 5.54173ZM28.9009 4.119L29.6715 5.40593L30.4009 4.96917V4.119H28.9009ZM26.2494 6.01628H24.7494L24.7494 6.01696L26.2494 6.01628ZM26.2504 8.10991H27.7504L27.7504 8.10923L26.2504 8.10991ZM38.184 5.54173L38.9557 4.25548L38.9543 4.25467L38.184 5.54173ZM35.807 4.119H34.307V4.96935L35.0366 5.40607L35.807 4.119ZM35.0366 5.40607L34.2663 6.69313L35.0366 5.40607ZM36.9594 6.55696H38.4594V5.70662L37.7298 5.2699L36.9594 6.55696ZM34.307 4.96935H32.807V5.81969L33.5366 6.25641L34.307 4.96935ZM34.307 3.5481H35.807V2.0481H34.307V3.5481ZM30.4009 3.5481V2.0481H28.9009V3.5481H30.4009ZM30.4009 4.96917L31.1715 6.2561L31.9009 5.81934V4.96917H30.4009ZM29.6715 5.40593L28.9009 4.119L29.6715 5.40593ZM27.7497 6.5567L26.9791 5.26978L26.2493 5.70677L26.2497 6.55739L27.7497 6.5567ZM27.75 7.17082L26.25 7.17151L26.2507 8.67082H27.75V7.17082ZM36.9594 7.17082V8.67082H38.4594V7.17082H36.9594ZM33.6172 7.04804L33.6181 7.04858L35.1591 4.4746L35.1581 4.47406L33.6172 7.04804ZM32.1267 4.4281C32.1267 5.53818 32.7259 6.5133 33.6159 7.0473L35.1594 4.4748C35.1469 4.46733 35.1377 4.45724 35.1323 4.44801C35.1279 4.44041 35.1267 4.43477 35.1267 4.4281H32.1267ZM32.1267 4.17082V4.4281H35.1267V4.17082H32.1267ZM31.0813 5.67082H33.6267V2.67082H31.0813V5.67082ZM32.5813 4.4281V4.17082H29.5813V4.4281H32.5813ZM31.0889 7.04916C31.9897 6.51072 32.5813 5.5304 32.5813 4.4281H29.5813C29.5813 4.43539 29.5798 4.44141 29.5756 4.44867C29.5707 4.45713 29.5622 4.46664 29.5497 4.47413L31.0889 7.04916ZM31.0877 7.04988L31.088 7.04969L29.5506 4.4736L29.5502 4.47378L31.0877 7.04988ZM31.0867 7.05048C31.0869 7.05036 31.0876 7.04995 31.0883 7.04949L29.5496 4.47417L29.5496 4.47414L31.0867 7.05048ZM29.7738 7.83615L31.0884 7.04945L29.5479 4.47517L28.2333 5.26186L29.7738 7.83615ZM35.7041 5.04901H29.0035V8.04901H35.7041V5.04901ZM33.6182 7.04865L34.9337 7.83607L36.4745 5.26194L35.1589 4.47453L33.6182 7.04865ZM38.7791 7.54901V6.54901H35.7791V7.54901H38.7791ZM36.2791 9.04901H37.2791V6.04901H36.2791V9.04901ZM28.4298 9.04901H36.2791V6.04901H28.4298V9.04901ZM27.4298 9.04901H28.4298V6.04901H27.4298V9.04901ZM25.9298 6.54901V7.54901H28.9298V6.54901H25.9298ZM25.9298 6.32537V6.54901H28.9298V6.32537H25.9298ZM29.0356 3.61641L26.6596 5.03823L28.2 7.61251L30.576 6.19069L29.0356 3.61641ZM28.5813 4.4281C28.5813 4.07528 28.7709 3.77433 29.0372 3.61541L30.5744 6.19169C31.1851 5.82731 31.5813 5.16636 31.5813 4.4281H28.5813ZM28.5813 4.17082V4.4281H31.5813V4.17082H28.5813ZM28.5813 3.17082V4.17082H31.5813V3.17082H28.5813ZM31.0813 1.67082H30.0813V4.67082H31.0813V1.67082ZM33.6267 1.67082H31.0813V4.67082H33.6267V1.67082ZM34.6267 1.67082H33.6267V4.67082H34.6267V1.67082ZM36.1267 4.17082V3.17082H33.1267V4.17082H36.1267ZM36.1267 4.4281V4.17082H33.1267V4.4281H36.1267ZM35.6739 3.6173C35.9348 3.77384 36.1267 4.07136 36.1267 4.4281H33.1267C33.1267 5.17029 33.5271 5.8278 34.1304 6.1898L35.6739 3.6173ZM38.0495 5.03922L35.6725 3.61649L34.1318 6.19061L36.5087 7.61334L38.0495 5.03922ZM38.7791 6.54901V6.32628H35.7791V6.54901H38.7791ZM27.2955 6.82866L29.6715 5.40593L28.1303 2.83208L25.7543 4.25481L27.2955 6.82866ZM27.7494 6.01628C27.7494 6.37573 27.5551 6.67289 27.2966 6.82798L25.7532 4.25548C25.1523 4.61603 24.7494 5.27137 24.7494 6.01628H27.7494ZM27.7504 8.10923L27.7494 6.01559L24.7494 6.01696L24.7504 8.1106L27.7504 8.10923ZM26.8396 7.17082C27.2716 7.17082 27.7504 7.52206 27.7504 8.10991H24.7504C24.7504 9.31777 25.7571 10.1708 26.8396 10.1708V7.17082ZM37.8693 7.17082H26.8396V10.1708H37.8693V7.17082ZM36.9594 8.10991C36.9594 7.52052 37.4398 7.17082 37.8693 7.17082V10.1708C38.9511 10.1708 39.9594 9.31931 39.9594 8.10991H36.9594ZM36.9594 6.01628V8.10991H39.9594V6.01628H36.9594ZM37.4122 6.82798C37.1537 6.67289 36.9594 6.37574 36.9594 6.01628H39.9594C39.9594 5.27136 39.5566 4.61603 38.9557 4.25548L37.4122 6.82798ZM35.0366 5.40607L37.4136 6.82879L38.9543 4.25467L36.5774 2.83194L35.0366 5.40607ZM34.307 2.609V4.119H37.307V2.609H34.307ZM35.2178 3.5481C34.7841 3.5481 34.307 3.19623 34.307 2.609H37.307C37.307 1.4036 36.3019 0.548096 35.2178 0.548096V3.5481ZM29.4911 3.5481H35.2178V0.548096H29.4911V3.5481ZM30.4009 2.609C30.4009 3.19777 29.9222 3.5481 29.4911 3.5481V0.548096C28.4077 0.548096 27.4009 1.40206 27.4009 2.609H30.4009ZM30.4009 4.119V2.609H27.4009V4.119H30.4009ZM34.2663 6.69313L36.1891 7.84402L37.7298 5.2699L35.807 4.119L34.2663 6.69313ZM33.5366 6.25641L34.2663 6.69313L35.807 4.119L35.0774 3.68229L33.5366 6.25641ZM32.807 4.119V4.96935H35.807V4.119H32.807ZM32.807 3.5481V4.119H35.807V3.5481H32.807ZM30.4009 5.0481H34.307V2.0481H30.4009V5.0481ZM31.9009 4.119V3.5481H28.9009V4.119H31.9009ZM31.9009 4.96917V4.119H28.9009V4.96917H31.9009ZM30.4421 6.69286L31.1715 6.2561L29.6303 3.68225L28.9009 4.119L30.4421 6.69286ZM28.5203 7.84363L30.4421 6.69286L28.9009 4.119L26.9791 5.26978L28.5203 7.84363ZM29.25 7.17014L29.2497 6.55602L26.2497 6.55739L26.25 7.17151L29.25 7.17014ZM36.9594 5.67082H27.75V8.67082H36.9594V5.67082ZM35.4594 6.55696V7.17082H38.4594V6.55696H35.4594Z" fill="#4D4A2F" mask="url(#path-24-inside-9)"/>
</g>
<g id="Fill 12">
<mask id="path-26-inside-10" fill="white">
<path fill-rule="evenodd" clip-rule="evenodd" d="M8.83252 32.0136H9.75843V30.0836H8.83252V32.0136Z"/>
</mask>
<path d="M8.83252 32.0136H7.33252V33.5136H8.83252V32.0136ZM9.75843 32.0136V33.5136H11.2584V32.0136H9.75843ZM9.75843 30.0836H11.2584V28.5836H9.75843V30.0836ZM8.83252 30.0836V28.5836H7.33252V30.0836H8.83252ZM8.83252 33.5136H9.75843V30.5136H8.83252V33.5136ZM11.2584 32.0136V30.0836H8.25843V32.0136H11.2584ZM9.75843 28.5836H8.83252V31.5836H9.75843V28.5836ZM7.33252 30.0836V32.0136H10.3325V30.0836H7.33252Z" fill="#4D4A2F" mask="url(#path-26-inside-10)"/>
</g>
<g id="Fill 13">
<mask id="path-28-inside-11" fill="white">
<path fill-rule="evenodd" clip-rule="evenodd" d="M12.7122 32.0136H13.6381V30.0836H12.7122V32.0136Z"/>
</mask>
<path d="M12.7122 32.0136H11.2122V33.5136H12.7122V32.0136ZM13.6381 32.0136V33.5136H15.1381V32.0136H13.6381ZM13.6381 30.0836H15.1381V28.5836H13.6381V30.0836ZM12.7122 30.0836V28.5836H11.2122V30.0836H12.7122ZM12.7122 33.5136H13.6381V30.5136H12.7122V33.5136ZM15.1381 32.0136V30.0836H12.1381V32.0136H15.1381ZM13.6381 28.5836H12.7122V31.5836H13.6381V28.5836ZM11.2122 30.0836V32.0136H14.2122V30.0836H11.2122Z" fill="#4D4A2F" mask="url(#path-28-inside-11)"/>
</g>
<g id="Fill 14">
<mask id="path-30-inside-12" fill="white">
<path fill-rule="evenodd" clip-rule="evenodd" d="M20.9706 38.5V23.8536H1.5V38.5H20.9706ZM0.810174 40H21.6604C22.109 40 22.4706 39.6545 22.4706 39.23V23.1245C22.4706 22.6991 22.109 22.3536 21.6604 22.3536H0.810174C0.362522 22.3536 0 22.6991 0 23.1245V39.23C0 39.6545 0.362522 40 0.810174 40Z"/>
</mask>
<path d="M20.9706 23.8536H22.4706V22.3536H20.9706V23.8536ZM20.9706 38.5V40H22.4706V38.5H20.9706ZM1.5 23.8536V22.3536H0V23.8536H1.5ZM1.5 38.5H0V40H1.5V38.5ZM19.4706 23.8536V38.5H22.4706V23.8536H19.4706ZM1.5 25.3536H20.9706V22.3536H1.5V25.3536ZM3 38.5V23.8536H0V38.5H3ZM20.9706 37H1.5V40H20.9706V37ZM21.6604 38.5H0.810174V41.5H21.6604V38.5ZM20.9706 39.23C20.9706 38.7574 21.3511 38.5 21.6604 38.5V41.5C22.867 41.5 23.9706 40.5517 23.9706 39.23H20.9706ZM20.9706 23.1245V39.23H23.9706V23.1245H20.9706ZM21.6604 23.8536C21.3499 23.8536 20.9706 23.5951 20.9706 23.1245H23.9706C23.9706 21.8031 22.8682 20.8536 21.6604 20.8536V23.8536ZM0.810174 23.8536H21.6604V20.8536H0.810174V23.8536ZM1.5 23.1245C1.5 23.5962 1.12051 23.8536 0.810174 23.8536V20.8536C-0.395465 20.8536 -1.5 21.8019 -1.5 23.1245H1.5ZM1.5 39.23V23.1245H-1.5V39.23H1.5ZM0.810174 38.5C1.11933 38.5 1.5 38.7563 1.5 39.23H-1.5C-1.5 40.5528 -0.394287 41.5 0.810174 41.5V38.5Z" fill="#4D4A2F" mask="url(#path-30-inside-12)"/>
</g>
<g id="Fill 15">
<mask id="path-32-inside-13" fill="white">
<path fill-rule="evenodd" clip-rule="evenodd" d="M10.7724 39.67H11.6983V22.6764H10.7724V39.67Z"/>
</mask>
<path d="M10.7724 39.67H9.27235V41.17H10.7724V39.67ZM11.6983 39.67V41.17H13.1983V39.67H11.6983ZM11.6983 22.6764H13.1983V21.1764H11.6983V22.6764ZM10.7724 22.6764V21.1764H9.27235V22.6764H10.7724ZM10.7724 41.17H11.6983V38.17H10.7724V41.17ZM13.1983 39.67V22.6764H10.1983V39.67H13.1983ZM11.6983 21.1764H10.7724V24.1764H11.6983V21.1764ZM9.27235 22.6764V39.67H12.2724V22.6764H9.27235Z" fill="#4D4A2F" mask="url(#path-32-inside-13)"/>
</g>
<g id="Fill 16">
<mask id="path-34-inside-14" fill="white">
<path fill-rule="evenodd" clip-rule="evenodd" d="M8.83252 5.36005H9.75843V3.43005H8.83252V5.36005Z"/>
</mask>
<path d="M8.83252 5.36005H7.83252V6.36005H8.83252V5.36005ZM9.75843 5.36005V6.36005H10.7584V5.36005H9.75843ZM9.75843 3.43005H10.7584V2.43005H9.75843V3.43005ZM8.83252 3.43005V2.43005H7.83252V3.43005H8.83252ZM8.83252 6.36005H9.75843V4.36005H8.83252V6.36005ZM10.7584 5.36005V3.43005H8.75843V5.36005H10.7584ZM9.75843 2.43005H8.83252V4.43005H9.75843V2.43005ZM7.83252 3.43005V5.36005H9.83252V3.43005H7.83252Z" fill="#4D4A2F" mask="url(#path-34-inside-14)"/>
</g>
<g id="Fill 17">
<mask id="path-36-inside-15" fill="white">
<path fill-rule="evenodd" clip-rule="evenodd" d="M12.7122 5.36005H13.6381V3.43005H12.7122V5.36005Z"/>
</mask>
<path d="M12.7122 5.36005H11.7122V6.36005H12.7122V5.36005ZM13.6381 5.36005V6.36005H14.6381V5.36005H13.6381ZM13.6381 3.43005H14.6381V2.43005H13.6381V3.43005ZM12.7122 3.43005V2.43005H11.7122V3.43005H12.7122ZM12.7122 6.36005H13.6381V4.36005H12.7122V6.36005ZM14.6381 5.36005V3.43005H12.6381V5.36005H14.6381ZM13.6381 2.43005H12.7122V4.43005H13.6381V2.43005ZM11.7122 3.43005V5.36005H13.7122V3.43005H11.7122Z" fill="#4D4A2F" mask="url(#path-36-inside-15)"/>
</g>
<g id="Fill 18">
<mask id="path-38-inside-16" fill="white">
<path fill-rule="evenodd" clip-rule="evenodd" d="M20.8512 6.50364V7.50364H19.8512H2.6213H1.6213V6.50364V2.54V1.54H2.6213H19.8512H20.8512V2.54V6.50364ZM19.8512 2.54H2.6213V6.50364H19.8512V2.54ZM21.4706 8.04364V1H1V8.04364H21.4706ZM0.810174 9.04364H21.6604C22.109 9.04364 22.4706 8.7 22.4706 8.27455V0.77C22.4706 0.344545 22.109 0 21.6604 0H0.810174C0.362522 0 0 0.344545 0 0.77V8.27455C0 8.7 0.362522 9.04364 0.810174 9.04364Z"/>
</mask>
<path d="M20.8512 7.50364V8.50364H21.8512V7.50364H20.8512ZM1.6213 7.50364H0.621304V8.50364H1.6213V7.50364ZM1.6213 1.54V0.54H0.621304V1.54H1.6213ZM20.8512 1.54H21.8512V0.54H20.8512V1.54ZM2.6213 2.54V1.54H1.6213V2.54H2.6213ZM19.8512 2.54H20.8512V1.54H19.8512V2.54ZM2.6213 6.50364H1.6213V7.50364H2.6213V6.50364ZM19.8512 6.50364V7.50364H20.8512V6.50364H19.8512ZM21.4706 1H22.4706V0H21.4706V1ZM21.4706 8.04364V9.04364H22.4706V8.04364H21.4706ZM1 1V0H0V1H1ZM1 8.04364H0V9.04364H1V8.04364ZM21.8512 7.50364V6.50364H19.8512V7.50364H21.8512ZM19.8512 8.50364H20.8512V6.50364H19.8512V8.50364ZM2.6213 8.50364H19.8512V6.50364H2.6213V8.50364ZM1.6213 8.50364H2.6213V6.50364H1.6213V8.50364ZM0.621304 6.50364V7.50364H2.6213V6.50364H0.621304ZM0.621304 2.54V6.50364H2.6213V2.54H0.621304ZM0.621304 1.54V2.54H2.6213V1.54H0.621304ZM2.6213 0.54H1.6213V2.54H2.6213V0.54ZM19.8512 0.54H2.6213V2.54H19.8512V0.54ZM20.8512 0.54H19.8512V2.54H20.8512V0.54ZM21.8512 2.54V1.54H19.8512V2.54H21.8512ZM21.8512 6.50364V2.54H19.8512V6.50364H21.8512ZM2.6213 3.54H19.8512V1.54H2.6213V3.54ZM3.6213 6.50364V2.54H1.6213V6.50364H3.6213ZM19.8512 5.50364H2.6213V7.50364H19.8512V5.50364ZM18.8512 2.54V6.50364H20.8512V2.54H18.8512ZM20.4706 1V8.04364H22.4706V1H20.4706ZM1 2H21.4706V0H1V2ZM2 8.04364V1H0V8.04364H2ZM21.4706 7.04364H1V9.04364H21.4706V7.04364ZM21.6604 8.04364H0.810174V10.0436H21.6604V8.04364ZM21.4706 8.27455C21.4706 8.1951 21.5062 8.13046 21.5451 8.09351C21.5831 8.05746 21.6265 8.04364 21.6604 8.04364V10.0436C22.612 10.0436 23.4706 9.30035 23.4706 8.27455H21.4706ZM21.4706 0.77V8.27455H23.4706V0.77H21.4706ZM21.6604 1C21.6257 1 21.5822 0.985843 21.5445 0.950023C21.5061 0.913408 21.4706 0.849249 21.4706 0.77H23.4706C23.4706 -0.254304 22.6136 -1 21.6604 -1V1ZM0.810174 1H21.6604V-1H0.810174V1ZM1 0.77C1 0.850059 0.964158 0.914156 0.926124 0.950304C0.888997 0.985591 0.84572 1 0.810174 1V-1C-0.14123 -1 -1 -0.255054 -1 0.77H1ZM1 8.27455V0.77H-1V8.27455H1ZM0.810174 8.04364C0.844938 8.04364 0.888102 8.05771 0.925533 8.09323C0.963982 8.12971 1 8.19429 1 8.27455H-1C-1 9.3011 -0.139653 10.0436 0.810174 10.0436V8.04364Z" fill="#4D4A2F" mask="url(#path-38-inside-16)"/>
</g>
<g id="Fill 19">
<mask id="path-40-inside-17" fill="white">
<path fill-rule="evenodd" clip-rule="evenodd" d="M10.7724 7.50049H11.6983L11.6983 1.50049H10.7724L10.7724 7.50049Z"/>
</mask>
<path d="M10.7724 7.50049H9.77235V8.50049H10.7724V7.50049ZM11.6983 7.50049V8.50049H12.6983V7.50049H11.6983ZM11.6983 1.50049L12.6983 1.50049L12.6983 0.500488H11.6983V1.50049ZM10.7724 1.50049V0.500488H9.77235V1.50049L10.7724 1.50049ZM10.7724 8.50049H11.6983V6.50049H10.7724V8.50049ZM12.6983 7.50049V1.50049L10.6983 1.50049L10.6983 7.50049H12.6983ZM11.6983 0.500488H10.7724V2.50049H11.6983V0.500488ZM9.77235 1.50049V7.50049H11.7724V1.50049L9.77235 1.50049Z" fill="#4D4A2F" mask="url(#path-40-inside-17)"/>
</g>
</g>
</g>
</g>
<defs>
<linearGradient id="paint0_linear" x1="0.5" y1="24.8848" x2="0.5" y2="39.6699" gradientUnits="userSpaceOnUse">
<stop stop-color="#FF803B"/>
<stop offset="1" stop-color="#FF9100"/>
</linearGradient>
<linearGradient id="paint1_linear" x1="22" y1="24.8848" x2="22" y2="39.6699" gradientUnits="userSpaceOnUse">
<stop stop-color="#FF803B"/>
<stop offset="1" stop-color="#FF9100"/>
</linearGradient>
<linearGradient id="paint2_linear" x1="26.84" y1="3.17078" x2="26.84" y2="8.49996" gradientUnits="userSpaceOnUse">
<stop stop-color="#FF803B"/>
<stop offset="1" stop-color="#FF9100"/>
</linearGradient>
<linearGradient id="paint3_linear" x1="0.5" y1="3.42993" x2="0.5" y2="8.49993" gradientUnits="userSpaceOnUse">
<stop stop-color="#FF803B"/>
<stop offset="1" stop-color="#FF9100"/>
</linearGradient>
</defs>
</svg>
