<svg width="44" height="33" viewBox="0 0 44 33" fill="none" xmlns="http://www.w3.org/2000/svg">
<g id="lounge">
<g class="hover">
<path id="Path 36" opacity="0.7" fill-rule="evenodd" clip-rule="evenodd" d="M1 31.336L39.279 32L39.4594 23.5055H1V31.336Z" fill="url(#paint0_linear)"/>
<path id="Path 38" opacity="0.7" fill-rule="evenodd" clip-rule="evenodd" d="M9.92799 16.633H30.7158L30.1437 6.88806H10.2955L9.92799 16.633Z" fill="url(#paint1_linear)"/>
</g>
<g class="cat">
<path id="Path" fill-rule="evenodd" clip-rule="evenodd" d="M11.0788 20.2864C11.3682 18.1366 11.4087 15.9489 12.6855 14.178C14.2999 11.9419 16.4798 9.70885 19.0804 9.85017C19.1323 9.30972 19.7426 4.03733 19.7426 2.34774C20.4748 2.77295 20.9241 3.02783 21.7055 3.35549C22.194 3.55809 22.7501 3.38926 23.2203 3.12163C23.5945 2.91277 23.845 2.60512 24.0304 2.22368C24.1162 2.04485 24.7466 0.869265 24.6356 0.746704C29.5748 6.07434 32.3654 13.2129 32.5793 20.4527C33.1137 20.5102 33.0481 19.1923 33.7426 21.1045C33.5732 20.6418 19.033 20.5127 17.0297 20.5703C16.0079 20.599 14.645 20.9957 13.6245 21.0457C13.1153 21.0695 12.5455 20.8834 12.0364 20.9159C11.7069 20.9372 8.91829 20.6953 8.05344 19.8199C2.2455 13.9409 8.21044 9.26507 11.0788 10.4567C11.8395 10.7728 12.5563 11.0502 12.6855 11.9531C11.0071 11.7355 8.99154 13.6294 8.4046 15.3615C8.10941 16.2369 8.86717 17.6576 9.13375 18.5392C9.26876 18.9832 10.0296 19.3522 10.4152 19.8199C10.6154 20.0613 10.8397 20.2401 11.0788 20.2864Z" fill="#FFAD5F"/>
<path id="Fill 59" fill-rule="evenodd" clip-rule="evenodd" d="M21.1002 7.26765C21.1002 7.29032 21.1277 7.34521 21.1403 7.3476C21.3291 7.6996 21.6963 7.95375 22.0865 7.95733C22.281 7.95733 22.4881 7.89648 22.6048 7.73778C22.7169 7.5934 22.7318 7.39055 22.7135 7.20322C22.6734 6.83571 22.5064 6.48132 22.2501 6.22359C22.13 6.10068 21.9812 5.99807 21.8108 5.98136C21.5304 5.9563 21.2764 6.19137 21.1746 6.46462C21.1094 6.63883 21.0911 6.82616 21.0911 7.0135L20.9984 6.86434C21.0041 7.00634 21.0419 7.14236 21.1002 7.26765ZM25.4422 6.75218C25.5635 6.90969 25.7706 6.97054 25.9617 6.96815C26.3541 6.96458 26.7225 6.71042 26.9136 6.35842C26.9262 6.35484 26.9502 6.30711 26.9502 6.28802C27.0063 6.16273 27.044 6.02312 27.0497 5.87874L26.9571 6.0267C26.9571 5.83698 26.941 5.65323 26.8735 5.47544C26.7717 5.20458 26.5177 4.96951 26.2397 4.99576C26.0704 5.00769 25.9216 5.11508 25.7981 5.23679C25.5441 5.49453 25.377 5.84653 25.337 6.21404C25.3164 6.40018 25.3313 6.60303 25.4422 6.75218ZM10.4152 18.9445C10.6154 19.1748 10.8397 19.3454 11.0788 19.3896C11.3682 17.3384 11.7744 15.5498 13.0513 13.8602C14.6656 11.7267 17.0901 10.6039 19.6907 10.7387C19.6941 10.7387 20.6186 4.29295 20.6186 2.68091C21.3508 3.08661 20.924 2.92314 21.7055 3.23576C22.194 3.42906 22.7501 3.26798 23.2203 3.01263C23.5945 2.81336 23.845 2.51983 24.0304 2.1559C24.1162 1.98527 24.7466 0.86364 24.6356 0.746704C29.5748 5.82982 32.3654 12.6407 32.5793 19.5483C33.1136 19.6032 33.5313 19.6032 34.2257 21.4276C34.0564 20.9861 29.1847 21.5624 28.5669 21.5278C26.6104 21.4145 24.6539 21.3429 22.6975 21.3083C20.6941 21.2737 18.6907 21.2904 16.6873 21.3453C15.6656 21.3727 14.645 21.4109 13.6245 21.4586C13.1153 21.4813 12.6051 21.504 12.0959 21.535C11.7664 21.5553 8.19213 20.5243 7.3878 19.6604C2.07445 13.9628 9.46555 10.2006 11.3465 10.7387C12.1531 10.9702 13.4952 11.3711 13.6245 12.2326C11.946 12.025 9.0651 12.9951 8.47816 14.6477C8.18298 15.483 8.86717 16.8814 9.13375 17.7227C9.26876 18.1462 10.0296 18.4982 10.4152 18.9445Z" fill="#4D4A2F"/>
<path id="Fill 60" fill-rule="evenodd" clip-rule="evenodd" d="M13.1665 12.351C11.7386 13.981 10.8405 16.1693 10.7901 18.5701C10.7878 18.6787 10.7878 18.7884 10.789 18.8982C10.6906 18.8493 10.5796 18.7646 10.4629 18.6476C10.1814 18.3696 9.93201 17.9842 9.74552 17.6811C9.30732 16.9652 9.05675 16.1538 9.02243 15.3341C9.00984 15.0226 9.03158 14.7864 9.09451 14.5907C9.21464 14.2172 9.50525 13.8783 10.011 13.524C11.1814 12.7054 12.099 12.3641 13.1665 12.351ZM24.6444 1.18845C26.1856 2.89714 32.349 10.3106 32.2701 19.3839L32.2666 19.6786L32.5481 19.7072C32.7312 19.7752 33.2312 19.9984 33.698 20.9016C32.3673 20.7966 29.0825 21.0723 28.5837 21.0436C26.6844 20.9351 24.7062 20.8611 22.7028 20.8241C20.2738 20.7835 17.7922 20.8121 15.1172 20.9124C12.9937 20.9911 9.58878 20.9553 8.91374 20.5317C8.09568 20.021 7.07168 19.3027 6.40694 18.2861C5.42642 16.7838 5.36463 14.6444 6.25591 13.0825C7.14834 11.5217 8.98467 10.5624 10.7157 10.7449C11.543 10.8332 12.1631 11.1518 12.6322 11.7389C11.4148 11.8749 10.4892 12.4131 9.66658 12.9882C9.04074 13.4261 8.67347 13.8712 8.50871 14.3867C8.3943 14.7446 8.3943 15.1145 8.4046 15.3615C8.44464 16.2946 8.72839 17.2158 9.22494 18.0272C9.42974 18.3625 9.70662 18.7884 10.0373 19.1154C10.4343 19.5092 10.8176 19.6619 11.1791 19.5676L11.4182 19.5044L11.4137 19.2466C11.4079 19.0283 11.4045 18.8052 11.4091 18.5832C11.5052 13.9034 15.0577 10.0946 19.3288 10.0946H19.5725L19.6297 9.84765C19.8059 9.09234 19.8448 8.31794 19.8814 7.56979C19.9375 6.48277 19.9935 5.37546 19.9661 4.28127C19.9501 3.65961 19.9054 3.03436 19.8333 2.41508C19.8974 2.45326 19.9603 2.49264 20.0233 2.53082C20.5278 2.83867 21.0496 3.15726 21.5953 3.37562C22.0999 3.57489 22.7097 3.49256 23.363 3.13817C23.7646 2.92339 24.0724 2.59883 24.3035 2.14541C24.3618 2.02847 24.5174 1.57386 24.6444 1.18845ZM34.7426 21.6307L34.5034 21.1236C34.1236 20.3193 33.4577 19.5772 32.8879 19.1834C32.8742 8.68426 24.8115 0.436719 24.7302 0.354386L24.3778 0L24.2222 0.483254C24.0323 1.0739 23.8058 1.74449 23.7566 1.84472C23.585 2.18001 23.3699 2.41031 23.0793 2.56542C22.7349 2.75157 22.236 2.9389 21.8161 2.77304C21.3184 2.57378 20.8184 2.26951 20.3356 1.97478C20.0851 1.82205 19.8356 1.66932 19.5885 1.53209L19.045 1.2314L19.1377 1.8662C19.2567 2.66804 19.3265 3.48659 19.3482 4.29798C19.3757 5.36711 19.3196 6.46129 19.2647 7.51967C19.2327 8.17117 19.2006 8.82864 19.0805 9.45389C16.949 9.5219 14.9971 10.4657 13.5235 11.9656L13.4674 11.8654C12.8736 10.8094 11.9949 10.2331 10.7787 10.1042C8.78331 9.88941 6.75247 10.9561 5.72504 12.7531C4.69875 14.5501 4.7674 16.9199 5.89666 18.6488C6.6289 19.7693 7.72384 20.5401 8.59567 21.0854C9.62195 21.7273 14.2259 21.5901 15.1401 21.5567C17.8037 21.4565 20.275 21.4279 22.6925 21.4696C24.6879 21.5054 26.6581 21.5794 28.5505 21.688C29.158 21.7226 34.1522 21.5842 34.2025 21.5877L34.7426 21.6307Z" fill="#4D4A2F"/>
</g>
<g class="outline">
<path id="Fill 3" fill-rule="evenodd" clip-rule="evenodd" d="M1.664 31.3359H41.968V21.8319H1.664V31.3359ZM42.8 32.9999H0.832C0.372 32.9999 0 32.6279 0 32.1679V20.9999C0 20.5409 0.372 20.1689 0.832 20.1689H42.8C43.259 20.1689 43.632 20.5409 43.632 20.9999V32.1679C43.632 32.6279 43.259 32.9999 42.8 32.9999Z" fill="#4D4A2F"/>
<path id="Fill 5" fill-rule="evenodd" clip-rule="evenodd" d="M12.2869 32.6434C12.0239 32.6434 11.8119 32.4304 11.8119 32.1684V21.0004C11.8119 20.7374 12.0239 20.5254 12.2869 20.5254C12.5499 20.5254 12.7619 20.7374 12.7619 21.0004V32.1684C12.7619 32.4304 12.5499 32.6434 12.2869 32.6434Z" fill="#4D4A2F"/>
<path id="Fill 6" fill-rule="evenodd" clip-rule="evenodd" d="M31.2158 32.6434C30.9528 32.6434 30.7408 32.4304 30.7408 32.1684V21.0004C30.7408 20.7374 30.9528 20.5254 31.2158 20.5254C31.4788 20.5254 31.6908 20.7374 31.6908 21.0004V32.1684C31.6908 32.4304 31.4788 32.6434 31.2158 32.6434Z" fill="#4D4A2F"/>
<path id="Fill 7" fill-rule="evenodd" clip-rule="evenodd" d="M12.287 27.059H31.216V26.108H12.287V27.059Z" fill="#4D4A2F"/>
<path id="Fill 8" fill-rule="evenodd" clip-rule="evenodd" d="M10.298 16.633H33.334V4.663H10.298V16.633ZM34.166 18.297H9.466C9.006 18.297 8.634 17.925 8.634 17.465V3.832C8.634 3.372 9.006 3 9.466 3H34.166C34.626 3 34.998 3.372 34.998 3.832V17.465C34.998 17.925 34.626 18.297 34.166 18.297Z" fill="#4D4A2F"/>
<path id="Fill 9" fill-rule="evenodd" clip-rule="evenodd" d="M20.135 20.1691H23.498V18.2981H20.135V20.1691ZM24.329 21.8321H19.303C18.843 21.8321 18.471 21.4601 18.471 21.0001V17.4651C18.471 17.0061 18.843 16.6331 19.303 16.6331H24.329C24.789 16.6331 25.161 17.0061 25.161 17.4651V21.0001C25.161 21.4601 24.789 21.8321 24.329 21.8321Z" fill="#4D4A2F"/>
<path id="Fill 2" fill-rule="evenodd" clip-rule="evenodd" d="M20.673 29.852H22.829V28.901H20.673V29.852Z" fill="#4D4A2F"/>
<path id="Fill 1" fill-rule="evenodd" clip-rule="evenodd" d="M20.728 24.481H22.884V23.53H20.728V24.481Z" fill="#4D4A2F"/>
</g>
</g>
<defs>
<linearGradient id="paint0_linear" x1="1" y1="23.5055" x2="1" y2="32" gradientUnits="userSpaceOnUse">
<stop stop-color="#FF803B"/>
<stop offset="1" stop-color="#FF9100"/>
</linearGradient>
<linearGradient id="paint1_linear" x1="9.92799" y1="6.88806" x2="9.92799" y2="16.633" gradientUnits="userSpaceOnUse">
<stop stop-color="#FF803B"/>
<stop offset="1" stop-color="#FF9100"/>
</linearGradient>
</defs>
</svg>
