<svg width="45" height="42" viewBox="0 0 45 42" fill="none" xmlns="http://www.w3.org/2000/svg">
<g id="office">
<g class="hover">
<path id="Path 44" opacity="0.7" fill-rule="evenodd" clip-rule="evenodd" d="M6.50001 17.5H22L20.917 11.5745L6.2437 9.84253L6.50001 17.5Z" fill="url(#paint0_linear)"/>
<path id="Path 45" opacity="0.7" fill-rule="evenodd" clip-rule="evenodd" d="M28.537 41.5L39.9972 39.2443V23.68L2.16701 22L1.69501 24.5H28L28.537 41.5Z" fill="url(#paint1_linear)"/>
</g>
<g class="cat">
<path id="Path" fill-rule="evenodd" clip-rule="evenodd" d="M21.0788 20.2864C21.3682 18.1366 21.4087 15.4421 22.6855 13.6712C24.2999 11.4351 26.4798 9.70885 29.0804 9.85017C29.1323 9.30972 29.7425 4.03733 29.7425 2.34774C30.4748 2.77295 30.924 3.02783 31.7055 3.35549C32.194 3.55809 32.7501 3.38926 33.2203 3.12163C33.5945 2.91277 33.845 2.60512 34.0304 2.22368C34.1162 2.04485 34.7466 0.869265 34.6356 0.746704C39.5748 6.07434 42.3654 13.2129 42.5793 20.4527C43.1136 20.5102 43.0481 19.1923 43.7425 21.1045C43.5732 20.6418 29.033 20.5127 27.0296 20.5703C26.0079 20.599 24.645 20.9957 23.6245 21.0457C23.1153 21.0695 22.5455 20.8834 22.0364 20.9159C21.7069 20.9372 18.9183 20.6953 18.0534 19.8199C12.2455 13.9409 18.2104 9.26507 21.0788 10.4567C21.8395 10.7728 22.5562 11.0502 22.6855 11.9531C21.0071 11.7355 18.9915 13.6294 18.4046 15.3615C18.1094 16.2369 18.8672 17.6576 19.1337 18.5392C19.2688 18.9832 20.0296 19.3522 20.4152 19.8199C20.6154 20.0613 20.8396 20.2401 21.0788 20.2864Z" fill="#FFAD5F"/>
<path id="Fill 59" fill-rule="evenodd" clip-rule="evenodd" d="M31.1002 7.26765C31.1002 7.29032 31.1277 7.34521 31.1403 7.3476C31.3291 7.6996 31.6963 7.95375 32.0865 7.95733C32.281 7.95733 32.4881 7.89648 32.6048 7.73778C32.7169 7.5934 32.7318 7.39055 32.7135 7.20322C32.6734 6.83571 32.5064 6.48132 32.2501 6.22359C32.13 6.10068 31.9812 5.99807 31.8107 5.98136C31.5304 5.9563 31.2764 6.19137 31.1746 6.46462C31.1094 6.63883 31.0911 6.82616 31.0911 7.0135L30.9984 6.86434C31.0041 7.00634 31.0419 7.14236 31.1002 7.26765ZM35.4422 6.75218C35.5635 6.90969 35.7706 6.97054 35.9617 6.96815C36.3541 6.96458 36.7225 6.71042 36.9136 6.35842C36.9262 6.35484 36.9502 6.30711 36.9502 6.28802C37.0063 6.16273 37.044 6.02312 37.0497 5.87874L36.9571 6.0267C36.9571 5.83698 36.941 5.65323 36.8735 5.47544C36.7717 5.20458 36.5177 4.96951 36.2397 4.99576C36.0704 5.00769 35.9216 5.11508 35.798 5.23679C35.5441 5.49453 35.377 5.84653 35.337 6.21404C35.3164 6.40018 35.3312 6.60303 35.4422 6.75218ZM20.4152 18.9445C20.6154 19.1748 20.8396 19.3454 21.0788 19.3896C21.3682 17.3384 21.7744 15.5498 23.0513 13.8602C24.6656 11.7267 27.09 10.6039 29.6907 10.7387C29.6941 10.7387 30.6186 4.29295 30.6186 2.68091C31.3508 3.08661 30.924 2.92314 31.7055 3.23576C32.194 3.42906 32.7501 3.26798 33.2203 3.01263C33.5944 2.81336 33.845 2.51983 34.0304 2.1559C34.1162 1.98527 34.7466 0.86364 34.6356 0.746704C39.5748 5.82982 42.3654 12.6407 42.5793 19.5483C43.1136 19.6032 43.5312 19.6032 44.2257 21.4276C44.0564 20.9861 39.1847 21.5624 38.5669 21.5278C36.6104 21.4145 34.6539 21.3429 32.6974 21.3083C30.6941 21.2737 28.6907 21.2904 26.6873 21.3453C25.6656 21.3727 24.645 21.4109 23.6245 21.4586C23.1153 21.4813 22.605 21.504 22.0959 21.535C21.7664 21.5553 18.1921 20.5243 17.3878 19.6604C12.0744 13.9628 19.4655 10.2006 21.3465 10.7387C22.1531 10.9702 23.4952 11.3711 23.6245 12.2326C21.946 12.025 19.0651 12.9951 18.4782 14.6477C18.183 15.483 18.8672 16.8814 19.1337 17.7227C19.2688 18.1462 20.0296 18.4982 20.4152 18.9445Z" fill="#4D4A2F"/>
<path id="Fill 60" fill-rule="evenodd" clip-rule="evenodd" d="M23.1665 12.351C21.7386 13.981 20.8405 16.1693 20.7901 18.5701C20.7878 18.6787 20.7878 18.7884 20.789 18.8982C20.6906 18.8493 20.5796 18.7646 20.4629 18.6476C20.1814 18.3696 19.932 17.9842 19.7455 17.6811C19.3073 16.9652 19.0567 16.1538 19.0224 15.3341C19.0098 15.0226 19.0316 14.7864 19.0945 14.5907C19.2146 14.2172 19.5052 13.8783 20.011 13.524C21.1814 12.7054 22.099 12.3641 23.1665 12.351ZM34.6444 1.18845C36.1856 2.89714 42.349 10.3106 42.2701 19.3839L42.2666 19.6786L42.5481 19.7072C42.7312 19.7752 43.2311 19.9984 43.698 20.9016C42.3673 20.7966 39.0825 21.0723 38.5837 21.0436C36.6844 20.9351 34.7062 20.8611 32.7028 20.8241C30.2738 20.7835 27.7922 20.8121 25.1172 20.9124C22.9937 20.9911 19.5888 20.9553 18.9137 20.5317C18.0957 20.021 17.0717 19.3027 16.4069 18.2861C15.4264 16.7838 15.3646 14.6444 16.2559 13.0825C17.1483 11.5217 18.9847 10.5624 20.7157 10.7449C21.5429 10.8332 22.1631 11.1518 22.6322 11.7389C21.4148 11.8749 20.4892 12.4131 19.6666 12.9882C19.0407 13.4261 18.6735 13.8712 18.5087 14.3867C18.3943 14.7446 18.3943 15.1145 18.4046 15.3615C18.4446 16.2946 18.7284 17.2158 19.2249 18.0272C19.4297 18.3625 19.7066 18.7884 20.0373 19.1154C20.4343 19.5092 20.8176 19.6619 21.1791 19.5676L21.4182 19.5044L21.4137 19.2466C21.4079 19.0283 21.4045 18.8052 21.4091 18.5832C21.5052 13.9034 25.0577 10.0946 29.3288 10.0946H29.5725L29.6297 9.84765C29.8059 9.09234 29.8448 8.31794 29.8814 7.56979C29.9375 6.48277 29.9935 5.37546 29.9661 4.28127C29.95 3.65961 29.9054 3.03436 29.8333 2.41508C29.8974 2.45326 29.9603 2.49264 30.0233 2.53082C30.5278 2.83867 31.0496 3.15726 31.5953 3.37562C32.0999 3.57489 32.7097 3.49256 33.363 3.13817C33.7646 2.92339 34.0724 2.59883 34.3035 2.14541C34.3618 2.02847 34.5174 1.57386 34.6444 1.18845ZM44.7425 21.6307L44.5034 21.1236C44.1236 20.3193 43.4577 19.5772 42.8879 19.1834C42.8742 8.68426 34.8115 0.436719 34.7302 0.354386L34.3778 0L34.2222 0.483254C34.0323 1.0739 33.8058 1.74449 33.7566 1.84472C33.585 2.18001 33.3699 2.41031 33.0792 2.56542C32.7349 2.75157 32.236 2.9389 31.8161 2.77304C31.3184 2.57378 30.8184 2.26951 30.3356 1.97478C30.085 1.82205 29.8356 1.66932 29.5885 1.53209L29.045 1.2314L29.1377 1.8662C29.2567 2.66804 29.3265 3.48659 29.3482 4.29798C29.3757 5.36711 29.3196 6.46129 29.2647 7.51967C29.2327 8.17117 29.2006 8.82864 29.0805 9.45389C26.949 9.5219 24.9971 10.4657 23.5234 11.9656L23.4674 11.8654C22.8736 10.8094 21.9949 10.2331 20.7787 10.1042C18.7833 9.88941 16.7525 10.9561 15.725 12.7531C14.6987 14.5501 14.7674 16.9199 15.8966 18.6488C16.6289 19.7693 17.7238 20.5401 18.5957 21.0854C19.6219 21.7273 24.2259 21.5901 25.1401 21.5567C27.8036 21.4565 30.275 21.4279 32.6925 21.4696C34.6879 21.5054 36.6581 21.5794 38.5505 21.688C39.158 21.7226 44.1522 21.5842 44.2025 21.5877L44.7425 21.6307Z" fill="#4D4A2F"/>
</g>
<g class="outline">
<path id="Fill 1" fill-rule="evenodd" clip-rule="evenodd" d="M7.099 17.105H23.711V8.695H7.099V17.105ZM24.559 18.801H6.251C5.783 18.801 5.403 18.421 5.403 17.953V7.848C5.403 7.379 5.783 7 6.251 7H24.559C25.027 7 25.407 7.379 25.407 7.848V17.953C25.407 18.421 25.027 18.801 24.559 18.801Z" fill="#4D4A2F"/>
<path id="Fill 3" fill-rule="evenodd" clip-rule="evenodd" d="M13.6509 20.3481H17.1589L16.6649 18.9411H14.1449L13.6509 20.3481ZM18.3549 22.0431H12.4549C12.1799 22.0431 11.9219 21.9101 11.7629 21.6861C11.6049 21.4621 11.5639 21.1751 11.6549 20.9151L12.7449 17.8121C12.8639 17.4721 13.1849 17.2451 13.5449 17.2451H17.2659C17.6259 17.2451 17.9459 17.4721 18.0659 17.8121L19.1549 20.9151C19.2459 21.1751 19.2059 21.4621 19.0469 21.6861C18.8879 21.9101 18.6299 22.0431 18.3549 22.0431Z" fill="#4D4A2F"/>
<path id="Fill 4" fill-rule="evenodd" clip-rule="evenodd" d="M28.537 40.3051H41.114V25.3761H28.537V40.3051ZM41.962 42.0001H27.69C27.221 42.0001 26.842 41.6211 26.842 41.1521V25.3761H3.86201V42.0001H2.16701V24.5281C2.16701 24.0601 2.54601 23.6801 3.01401 23.6801H41.962C42.43 23.6801 42.809 24.0601 42.809 24.5281V41.1521C42.809 41.6211 42.43 42.0001 41.962 42.0001Z" fill="#4D4A2F"/>
<path id="Fill 5" fill-rule="evenodd" clip-rule="evenodd" d="M42.1712 31.9876H27.6892C27.4222 31.9876 27.2052 31.7706 27.2052 31.5036C27.2052 31.2356 27.4222 31.0186 27.6892 31.0186H42.1712C42.4392 31.0186 42.6552 31.2356 42.6552 31.5036C42.6552 31.7706 42.4392 31.9876 42.1712 31.9876Z" fill="#4D4A2F"/>
<path id="Fill 6" fill-rule="evenodd" clip-rule="evenodd" d="M1.695 23.68H43.28V22.44H1.695V23.68ZM44.128 25.376H0.848C0.379 25.376 0 24.997 0 24.528V21.592C0 21.124 0.379 20.745 0.848 20.745H44.128C44.596 20.745 44.976 21.124 44.976 21.592V24.528C44.976 24.997 44.596 25.376 44.128 25.376Z" fill="#4D4A2F"/>
<path id="Fill 7" fill-rule="evenodd" clip-rule="evenodd" d="M33.774 28.646H35.958V27.677H33.774V28.646Z" fill="#4D4A2F"/>
<path id="Fill 8" fill-rule="evenodd" clip-rule="evenodd" d="M33.774 34.973H35.958V34.004H33.774V34.973Z" fill="#4D4A2F"/>
</g>
</g>
<defs>
<linearGradient id="paint0_linear" x1="6.2437" y1="9.84253" x2="6.2437" y2="17.5" gradientUnits="userSpaceOnUse">
<stop stop-color="#FF803B"/>
<stop offset="1" stop-color="#FF9100"/>
</linearGradient>
<linearGradient id="paint1_linear" x1="1.69501" y1="22" x2="1.69501" y2="41.5" gradientUnits="userSpaceOnUse">
<stop stop-color="#FF803B"/>
<stop offset="1" stop-color="#FF9100"/>
</linearGradient>
</defs>
</svg>
