<svg width="40" height="44" viewBox="0 0 40 44" fill="none" xmlns="http://www.w3.org/2000/svg">
<g id="specials">
<g class="hover">
<path id="&#209;&#133;&#208;&#190;&#208;&#178;&#208;&#181;&#209;&#128;" opacity="0.7" fill-rule="evenodd" clip-rule="evenodd" d="M9.5 40.5L20 33L25.2052 37L29.2257 40.5L24.1751 27.2015L31.774 22.9197H21.4L18.8461 13.6292L15.1589 20L3.403 21L11.6509 28.5L9.5 40.5Z" fill="url(#paint0_linear)"/>
</g>
<g class="cat">
<path id="Path" fill-rule="evenodd" clip-rule="evenodd" d="M24.6638 20.2864C24.3743 18.1366 24.3339 15.4421 23.057 13.6712C21.4426 11.4351 19.2627 9.70885 16.6621 9.85017C16.6102 9.30972 16 4.03733 16 2.34774C15.2678 2.77295 14.8185 3.02783 14.0371 3.35549C13.5485 3.55809 12.9925 3.38926 12.5222 3.12163C12.1481 2.91277 11.8975 2.60512 11.7122 2.22368C11.6264 2.04485 10.996 0.869265 11.1069 0.746704C6.16771 6.07434 3.37717 13.2129 3.16321 20.4527C2.6289 20.5102 2.69449 19.1923 2 21.1045C2.16933 20.6418 16.7095 20.5127 18.7129 20.5703C19.7346 20.599 21.0975 20.9957 22.1181 21.0457C22.6272 21.0695 23.197 20.8834 23.7062 20.9159C24.0357 20.9372 26.8243 20.6953 27.6891 19.8199C33.4971 13.9409 27.5321 9.26507 24.6638 10.4567C23.903 10.7728 23.1863 11.0502 23.057 11.9531C24.7355 11.7355 26.751 13.6294 27.338 15.3615C27.6331 16.2369 26.8754 17.6576 26.6088 18.5392C26.4738 18.9832 25.7129 19.3522 25.3274 19.8199C25.1271 20.0613 24.9029 20.2401 24.6638 20.2864Z" fill="#FFAD5F"/>
<path id="Fill 59" fill-rule="evenodd" clip-rule="evenodd" d="M14.6423 7.26765C14.6423 7.29032 14.6148 7.34521 14.6023 7.3476C14.4135 7.6996 14.0462 7.95375 13.6561 7.95733C13.4616 7.95733 13.2545 7.89648 13.1378 7.73778C13.0256 7.5934 13.0108 7.39055 13.0291 7.20322C13.0691 6.83571 13.2362 6.48132 13.4924 6.22359C13.6126 6.10068 13.7613 5.99807 13.9318 5.98136C14.2121 5.9563 14.4661 6.19137 14.5679 6.46462C14.6331 6.63883 14.6515 6.82616 14.6515 7.0135L14.7441 6.86434C14.7384 7.00634 14.7007 7.14236 14.6423 7.26765ZM10.3003 6.75218C10.179 6.90969 9.97195 6.97054 9.78088 6.96815C9.38844 6.96458 9.02003 6.71042 8.82896 6.35842C8.81637 6.35484 8.79235 6.30711 8.79235 6.28802C8.73628 6.16273 8.69853 6.02312 8.69281 5.87874L8.78548 6.0267C8.78548 5.83698 8.8015 5.65323 8.869 5.47544C8.97083 5.20458 9.22483 4.96951 9.50285 4.99576C9.67218 5.00769 9.82092 5.11508 9.94449 5.23679C10.1985 5.49453 10.3655 5.84653 10.4056 6.21404C10.4262 6.40018 10.4113 6.60303 10.3003 6.75218ZM25.3274 18.9445C25.1271 19.1748 24.9029 19.3454 24.6638 19.3896C24.3743 17.3384 23.9681 15.5498 22.6913 13.8602C21.0769 11.7267 18.6525 10.6039 16.0519 10.7387C16.0484 10.7387 15.124 4.29295 15.124 2.68091C14.3917 3.08661 14.8185 2.92314 14.0371 3.23576C13.5485 3.42906 12.9925 3.26798 12.5222 3.01263C12.1481 2.81336 11.8975 2.51983 11.7122 2.1559C11.6264 1.98527 10.9959 0.86364 11.1069 0.746704C6.1677 5.82982 3.37716 12.6407 3.16321 19.5483C2.6289 19.6032 2.21129 19.6032 1.5168 21.4276C1.68613 20.9861 6.55785 21.5624 7.17568 21.5278C9.13215 21.4145 11.0886 21.3429 13.0451 21.3083C15.0485 21.2737 17.0518 21.2904 19.0552 21.3453C20.0769 21.3727 21.0975 21.4109 22.1181 21.4586C22.6272 21.4813 23.1375 21.504 23.6466 21.535C23.9761 21.5553 27.5504 20.5243 28.3547 19.6604C33.6681 13.9628 26.277 10.2006 24.396 10.7387C23.5894 10.9702 22.2474 11.3711 22.1181 12.2326C23.7965 12.025 26.6774 12.9951 27.2644 14.6477C27.5596 15.483 26.8754 16.8814 26.6088 17.7227C26.4738 18.1462 25.7129 18.4982 25.3274 18.9445Z" fill="#4D4A2F"/>
<path id="Fill 60" fill-rule="evenodd" clip-rule="evenodd" d="M22.5761 12.351C24.004 13.981 24.9021 16.1693 24.9524 18.5701C24.9547 18.6787 24.9547 18.7884 24.9536 18.8982C25.052 18.8493 25.163 18.7646 25.2797 18.6476C25.5611 18.3696 25.8105 17.9842 25.997 17.6811C26.4352 16.9652 26.6858 16.1538 26.7201 15.3341C26.7327 15.0226 26.711 14.7864 26.648 14.5907C26.5279 14.2172 26.2373 13.8783 25.7316 13.524C24.5611 12.7054 23.6435 12.3641 22.5761 12.351ZM11.0981 1.18845C9.55698 2.89714 3.39353 10.3106 3.47247 19.3839L3.47591 19.6786L3.19445 19.7072C3.01139 19.7752 2.5114 19.9984 2.04459 20.9016C3.37522 20.7966 6.66003 21.0723 7.15887 21.0436C9.05813 20.9351 11.0363 20.8611 13.0397 20.8241C15.4687 20.7835 17.9503 20.8121 20.6253 20.9124C22.7488 20.9911 26.1538 20.9553 26.8288 20.5317C27.6469 20.021 28.6709 19.3027 29.3356 18.2861C30.3161 16.7838 30.3779 14.6444 29.4866 13.0825C28.5942 11.5217 26.7579 10.5624 25.0268 10.7449C24.1996 10.8332 23.5795 11.1518 23.1104 11.7389C24.3277 11.8749 25.2533 12.4131 26.076 12.9882C26.7018 13.4261 27.0691 13.8712 27.2338 14.3867C27.3483 14.7446 27.3483 15.1145 27.338 15.3615C27.2979 16.2946 27.0142 17.2158 26.5176 18.0272C26.3128 18.3625 26.0359 18.7884 25.7053 19.1154C25.3083 19.5092 24.925 19.6619 24.5634 19.5676L24.3243 19.5044L24.3289 19.2466C24.3346 19.0283 24.338 18.8052 24.3335 18.5832C24.2374 13.9034 20.6848 10.0946 16.4138 10.0946H16.1701L16.1129 9.84765C15.9367 9.09234 15.8978 8.31794 15.8612 7.56979C15.8051 6.48277 15.749 5.37546 15.7765 4.28127C15.7925 3.65961 15.8371 3.03436 15.9092 2.41508C15.8451 2.45326 15.7822 2.49264 15.7193 2.53082C15.2147 2.83867 14.693 3.15726 14.1472 3.37562C13.6427 3.57489 13.0329 3.49256 12.3796 3.13817C11.978 2.92339 11.6702 2.59883 11.4391 2.14541C11.3807 2.02847 11.2251 1.57386 11.0981 1.18845ZM1 21.6307L1.23912 21.1236C1.61898 20.3193 2.28486 19.5772 2.85464 19.1834C2.86837 8.68426 10.9311 0.436719 11.0123 0.354386L11.3647 0L11.5203 0.483254C11.7102 1.0739 11.9368 1.74449 11.986 1.84472C12.1576 2.18001 12.3727 2.41031 12.6633 2.56542C13.0077 2.75157 13.5065 2.9389 13.9264 2.77304C14.4241 2.57378 14.9241 2.26951 15.4069 1.97478C15.6575 1.82205 15.9069 1.66932 16.154 1.53209L16.6975 1.2314L16.6048 1.8662C16.4858 2.66804 16.4161 3.48659 16.3943 4.29798C16.3669 5.36711 16.4229 6.46129 16.4778 7.51967C16.5099 8.17117 16.5419 8.82864 16.662 9.45389C18.7936 9.5219 20.7455 10.4657 22.2191 11.9656L22.2752 11.8654C22.869 10.8094 23.7477 10.2331 24.9639 10.1042C26.9592 9.88941 28.9901 10.9561 30.0175 12.7531C31.0438 14.5501 30.9752 16.9199 29.8459 18.6488C29.1137 19.7693 28.0187 20.5401 27.1469 21.0854C26.1206 21.7273 21.5166 21.5901 20.6024 21.5567C17.9389 21.4565 15.4676 21.4279 13.05 21.4696C11.0546 21.5054 9.08445 21.5794 7.19205 21.688C6.58452 21.7226 1.59037 21.5842 1.54003 21.5877L1 21.6307Z" fill="#4D4A2F"/>
</g>
<g class="outline">
<g id="Shape">
<path fill-rule="evenodd" clip-rule="evenodd" d="M38.2822 20.2305C38.6006 20.247 38.8746 20.461 38.9673 20.7654C39.06 21.07 38.9515 21.3998 38.6961 21.5903L28.8013 28.9689L32.0105 42.2132C32.0862 42.5255 31.9555 42.8516 31.685 43.0257C31.4145 43.1999 31.063 43.1843 30.8091 42.9865L20 34.5692L9.1908 42.9865C9.05446 43.0927 8.88991 43.1463 8.725 43.1463C8.58213 43.1463 8.43889 43.106 8.31323 43.0247C8.04248 42.8494 7.91282 42.522 7.99031 42.2093L11.2716 28.9691L1.30608 21.5919C1.04958 21.4019 0.940031 21.0717 1.03236 20.7665C1.12469 20.4614 1.399 20.2469 1.71799 20.2304L14.9903 19.5468L19.2868 7.50211C19.394 7.20172 19.6784 7.00081 20 7C20.3186 7 20.6031 7.19913 20.7116 7.49826L25.0825 19.5469L38.2822 20.2305ZM27.2124 28.8397C27.1412 28.5458 27.2523 28.2379 27.495 28.0568L36.1117 21.6313L24.5025 21.03C24.1986 21.0143 23.9336 20.8183 23.83 20.5327L20.006 9.99127L16.2469 20.5288C16.1444 20.8165 15.8783 21.0142 15.5729 21.0299L3.90055 21.6312L12.5784 28.0551C12.8237 28.2367 12.9357 28.5476 12.8623 28.8435L9.98568 40.4509L19.5344 33.0152C19.6712 32.9087 19.8356 32.8554 20 32.8554C20.1644 32.8554 20.3288 32.9087 20.4656 33.0153L30.0286 40.4621L27.2124 28.8397Z" fill="#4D4A2F"/>
<path d="M38.9673 20.7654L39.2064 20.6926L39.2064 20.6926L38.9673 20.7654ZM38.2822 20.2305L38.2952 19.9808L38.2952 19.9808L38.2822 20.2305ZM38.6961 21.5903L38.8455 21.7907L38.8456 21.7907L38.6961 21.5903ZM28.8013 28.9689L28.6518 28.7685L28.5194 28.8673L28.5583 29.0278L28.8013 28.9689ZM32.0105 42.2132L31.7675 42.2721L31.7675 42.2721L32.0105 42.2132ZM30.8091 42.9865L30.9628 42.7892L30.9627 42.7892L30.8091 42.9865ZM20 34.5692L20.1536 34.372L20 34.2524L19.8464 34.372L20 34.5692ZM9.1908 42.9865L9.34439 43.1838L9.3444 43.1838L9.1908 42.9865ZM8.31323 43.0247L8.17738 43.2346L8.17738 43.2346L8.31323 43.0247ZM7.99031 42.2093L7.74765 42.1492L7.74765 42.1492L7.99031 42.2093ZM11.2716 28.9691L11.5143 29.0292L11.5544 28.8674L11.4203 28.7682L11.2716 28.9691ZM1.30608 21.5919L1.1573 21.7928L1.15733 21.7928L1.30608 21.5919ZM1.71799 20.2304L1.70513 19.9808L1.70512 19.9808L1.71799 20.2304ZM14.9903 19.5468L15.0031 19.7965L15.1697 19.7879L15.2257 19.6308L14.9903 19.5468ZM19.2868 7.50211L19.0513 7.41811L19.0513 7.41812L19.2868 7.50211ZM20 7V6.75L19.9993 6.75L20 7ZM20.7116 7.49826L20.4766 7.58351L20.4766 7.58352L20.7116 7.49826ZM25.0825 19.5469L24.8475 19.6321L24.9041 19.788L25.0696 19.7966L25.0825 19.5469ZM27.495 28.0568L27.3456 27.8564L27.3455 27.8564L27.495 28.0568ZM27.2124 28.8397L26.9694 28.8985L26.9694 28.8986L27.2124 28.8397ZM36.1117 21.6313L36.2611 21.8318L36.8166 21.4175L36.1246 21.3817L36.1117 21.6313ZM24.5025 21.03L24.5155 20.7804L24.5154 20.7804L24.5025 21.03ZM23.83 20.5327L23.595 20.618L23.595 20.618L23.83 20.5327ZM20.006 9.99127L20.241 9.90601L20.004 9.25273L19.7705 9.90727L20.006 9.99127ZM16.2469 20.5288L16.0115 20.4448L16.0115 20.4448L16.2469 20.5288ZM15.5729 21.0299L15.56 20.7802L15.56 20.7802L15.5729 21.0299ZM3.90055 21.6312L3.88769 21.3815L3.19154 21.4174L3.7518 21.8321L3.90055 21.6312ZM12.5784 28.0551L12.4297 28.256L12.4297 28.256L12.5784 28.0551ZM12.8623 28.8435L12.6197 28.7833L12.8623 28.8435ZM9.98568 40.4509L9.74302 40.3907L9.56922 41.092L10.1393 40.6481L9.98568 40.4509ZM19.5344 33.0152L19.688 33.2124L19.688 33.2124L19.5344 33.0152ZM20.4656 33.0153L20.3119 33.2124L20.312 33.2125L20.4656 33.0153ZM30.0286 40.4621L29.875 40.6594L30.4403 41.0996L30.2716 40.4033L30.0286 40.4621ZM39.2064 20.6926C39.083 20.2872 38.7185 20.0028 38.2952 19.9808L38.2693 20.4802C38.4828 20.4912 38.6661 20.6347 38.7281 20.8382L39.2064 20.6926ZM38.8456 21.7907C39.1853 21.5372 39.3299 21.0982 39.2064 20.6926L38.7281 20.8382C38.79 21.0417 38.7176 21.2623 38.5466 21.3899L38.8456 21.7907ZM28.9507 29.1694L38.8455 21.7907L38.5466 21.3899L28.6518 28.7685L28.9507 29.1694ZM32.2535 42.1544L29.0443 28.9101L28.5583 29.0278L31.7675 42.2721L32.2535 42.1544ZM31.8203 43.2359C32.1801 43.0043 32.3543 42.5704 32.2535 42.1543L31.7675 42.2721C31.8181 42.4807 31.7309 42.6989 31.5497 42.8155L31.8203 43.2359ZM30.6555 43.1837C30.9932 43.4468 31.4606 43.4675 31.8203 43.2359L31.5497 42.8155C31.3684 42.9322 31.1328 42.9217 30.9628 42.7892L30.6555 43.1837ZM19.8464 34.7665L30.6555 43.1837L30.9627 42.7892L20.1536 34.372L19.8464 34.7665ZM9.3444 43.1838L20.1536 34.7665L19.8464 34.372L9.0372 42.7893L9.3444 43.1838ZM8.725 43.3963C8.94402 43.3963 9.16295 43.3251 9.34439 43.1838L9.03721 42.7893C8.94596 42.8603 8.8358 42.8963 8.725 42.8963V43.3963ZM8.17738 43.2346C8.34447 43.3427 8.5351 43.3963 8.725 43.3963V42.8963C8.62916 42.8963 8.5333 42.8693 8.44909 42.8148L8.17738 43.2346ZM7.74765 42.1492C7.64446 42.5656 7.81719 43.0014 8.17738 43.2346L8.44909 42.8148C8.26778 42.6975 8.18119 42.4784 8.23297 42.2694L7.74765 42.1492ZM11.0289 28.909L7.74765 42.1492L8.23297 42.2694L11.5143 29.0292L11.0289 28.909ZM1.15733 21.7928L11.1229 29.17L11.4203 28.7682L1.45483 21.3909L1.15733 21.7928ZM0.793074 20.6941C0.670106 21.1005 0.816086 21.5401 1.1573 21.7928L1.45486 21.391C1.28307 21.2637 1.20996 21.0428 1.27165 20.8389L0.793074 20.6941ZM1.70512 19.9808C1.28107 20.0026 0.916009 20.2878 0.793074 20.6941L1.27165 20.8389C1.33337 20.635 1.51693 20.4911 1.73087 20.4801L1.70512 19.9808ZM14.9774 19.2971L1.70513 19.9808L1.73085 20.4801L15.0031 19.7965L14.9774 19.2971ZM19.0513 7.41812L14.7548 19.4628L15.2257 19.6308L19.5223 7.58611L19.0513 7.41812ZM19.9993 6.75C19.573 6.75108 19.1941 7.01783 19.0513 7.41811L19.5223 7.58612C19.5938 7.38561 19.7839 7.25055 20.0006 7.25L19.9993 6.75ZM20.9467 7.41301C20.8022 7.01473 20.4235 6.75 20 6.75V7.25C20.2137 7.25 20.4041 7.38353 20.4766 7.58351L20.9467 7.41301ZM25.3176 19.4616L20.9467 7.413L20.4766 7.58352L24.8475 19.6321L25.3176 19.4616ZM38.2952 19.9808L25.0955 19.2972L25.0696 19.7966L38.2693 20.4802L38.2952 19.9808ZM27.3455 27.8564C27.0227 28.0973 26.8747 28.5072 26.9694 28.8985L27.4554 28.7808C27.4078 28.5844 27.482 28.3784 27.6445 28.2572L27.3455 27.8564ZM35.9622 21.4309L27.3456 27.8564L27.6445 28.2572L36.2611 21.8318L35.9622 21.4309ZM24.4896 21.2797L36.0988 21.881L36.1246 21.3817L24.5155 20.7804L24.4896 21.2797ZM23.595 20.618C23.733 20.9982 24.0855 21.2588 24.4896 21.2797L24.5154 20.7804C24.3117 20.7698 24.1343 20.6384 24.065 20.4475L23.595 20.618ZM19.771 10.0765L23.595 20.618L24.065 20.4475L20.241 9.90601L19.771 10.0765ZM16.4824 20.6128L20.2414 10.0753L19.7705 9.90727L16.0115 20.4448L16.4824 20.6128ZM15.5857 21.2796C15.9918 21.2587 16.3458 20.9958 16.4824 20.6128L16.0115 20.4448C15.9429 20.6371 15.7648 20.7697 15.56 20.7802L15.5857 21.2796ZM3.91341 21.8809L15.5857 21.2796L15.56 20.7802L3.88769 21.3815L3.91341 21.8809ZM12.7272 27.8542L4.04929 21.4303L3.7518 21.8321L12.4297 28.256L12.7272 27.8542ZM13.105 28.9036C13.2026 28.5096 13.0535 28.0957 12.7272 27.8542L12.4297 28.256C12.5939 28.3776 12.6687 28.5856 12.6197 28.7833L13.105 28.9036ZM10.2283 40.511L13.105 28.9036L12.6197 28.7833L9.74302 40.3907L10.2283 40.511ZM19.3808 32.8179L9.83208 40.2536L10.1393 40.6481L19.688 33.2124L19.3808 32.8179ZM20 32.6054C19.7817 32.6054 19.5628 32.6762 19.3808 32.8179L19.688 33.2124C19.7796 33.1411 19.8896 33.1054 20 33.1054V32.6054ZM20.6193 32.8181C20.4373 32.6762 20.2184 32.6054 20 32.6054V33.1054C20.1105 33.1054 20.2204 33.1411 20.3119 33.2124L20.6193 32.8181ZM30.1822 40.2649L20.6192 32.818L20.312 33.2125L29.875 40.6594L30.1822 40.2649ZM26.9694 28.8986L29.7857 40.521L30.2716 40.4033L27.4554 28.7808L26.9694 28.8986Z" fill="#4D4A2F"/>
</g>
<path id="%" d="M20.418 24.384C20.418 23.698 20.18 23.138 19.718 22.69C19.256 22.228 18.682 22.004 17.996 22.004C17.31 22.004 16.722 22.242 16.26 22.704C15.798 23.166 15.56 23.726 15.56 24.384C15.56 25.042 15.798 25.616 16.26 26.078C16.722 26.54 17.31 26.764 17.996 26.764C18.682 26.764 19.256 26.54 19.718 26.078C20.18 25.616 20.418 25.042 20.418 24.384ZM17.646 31.006L23.974 23.992L23.05 23.46L16.722 30.46L17.646 31.006ZM18.738 24.384C18.794 25.028 17.87 25.434 17.45 24.93C17.002 24.454 17.31 23.614 17.982 23.614C18.43 23.614 18.738 23.936 18.738 24.384ZM24.716 31.482C25.178 31.02 25.416 30.446 25.416 29.788C25.416 29.13 25.178 28.57 24.716 28.108C24.254 27.646 23.68 27.408 22.994 27.408C22.308 27.408 21.72 27.646 21.258 28.108C20.796 28.57 20.558 29.13 20.558 29.788C20.558 30.446 20.796 31.02 21.258 31.482C21.72 31.944 22.308 32.168 22.994 32.168C23.68 32.168 24.254 31.944 24.716 31.482ZM23.736 29.788C23.792 30.432 22.868 30.838 22.448 30.334C22 29.858 22.308 29.018 22.98 29.018C23.428 29.018 23.736 29.34 23.736 29.788Z" fill="#4D4A2F"/>
</g>
</g>
<defs>
<linearGradient id="paint0_linear" x1="3.403" y1="13.6292" x2="3.403" y2="40.5" gradientUnits="userSpaceOnUse">
<stop stop-color="#FF803B"/>
<stop offset="1" stop-color="#FF9100"/>
</linearGradient>
</defs>
</svg>
