<svg width="37" height="45" viewBox="0 0 37 45" fill="none" xmlns="http://www.w3.org/2000/svg">
<g id="wardrobe">
<g class="hover">
<path id="&#209;&#133;&#208;&#190;&#208;&#178;&#208;&#181;&#209;&#128;" opacity="0.7" fill-rule="evenodd" clip-rule="evenodd" d="M0.651093 40.75L2.35999 7.04876L31.6495 5.36987V40.75H0.651093Z" fill="url(#paint0_linear)"/>
</g>
<g class="outline">
<path id="Fill 1" fill-rule="evenodd" clip-rule="evenodd" d="M1.645 40.6479H35.178V1.645H1.645V40.6479ZM0.822 42.2929C0.368 42.2929 0 41.9249 0 41.4699V0.822C0 0.368 0.368 0 0.822 0H36C36.454 0 36.822 0.368 36.822 0.822V41.4699C36.822 41.9249 36.454 42.2929 36 42.2929H0.822Z" fill="#4D4A2F"/>
<path id="Fill 4" fill-rule="evenodd" clip-rule="evenodd" d="M22.2055 22.8705V19.3995H21.2655V22.8705H22.2055Z" fill="#4D4A2F"/>
<path id="Fill 4 Copy 2" fill-rule="evenodd" clip-rule="evenodd" d="M15.8245 22.8705V19.3995H14.8845V22.8705H15.8245Z" fill="#4D4A2F"/>
<path id="Fill 5" fill-rule="evenodd" clip-rule="evenodd" d="M18.0625 0.967529L18.0625 42.0325H19.0025L19.0025 0.967529L18.0625 0.967529Z" fill="#4D4A2F"/>
<path id="Line 4" d="M33.625 26.7256L20.875 34.0794" stroke="#4D4A2F" stroke-linecap="square"/>
<path id="Line 4 Copy" d="M33.5 32.5L24.5 37.5" stroke="#4D4A2F" stroke-linecap="square"/>
<path id="Line 4 Copy 3" d="M15.875 7.04872L5.5 12.8231" stroke="#4D4A2F" stroke-linecap="square"/>
<path id="Line 4 Copy 2" d="M15.75 12.8231L3.25 19.3231" stroke="#4D4A2F" stroke-linecap="square"/>
<path id="Fill 6" fill-rule="evenodd" clip-rule="evenodd" d="M33.064 41.6354H30.235C30.106 41.6354 30 41.7404 30 41.8704V44.7654C30 44.8954 30.106 45.0004 30.235 45.0004H33.064C33.193 45.0004 33.299 44.8954 33.299 44.7654V41.8704C33.299 41.7404 33.193 41.6354 33.064 41.6354Z" fill="#4D4A2F"/>
<path id="Fill 7" fill-rule="evenodd" clip-rule="evenodd" d="M6.8285 41.6354H4.0005C3.8715 41.6354 3.7655 41.7404 3.7655 41.8704V44.7654C3.7655 44.8954 3.8715 45.0004 4.0005 45.0004H6.8285C6.9575 45.0004 7.0635 44.8954 7.0635 44.7654V41.8704C7.0635 41.7404 6.9575 41.6354 6.8285 41.6354Z" fill="#4D4A2F"/>
</g>
<g class="cat">
<path id="Fill 59" fill-rule="evenodd" clip-rule="evenodd" d="M20.6423 27.2677C20.6423 27.2903 20.6148 27.3452 20.6023 27.3476C20.4135 27.6996 20.0462 27.9538 19.6561 27.9573C19.4616 27.9573 19.2545 27.8965 19.1378 27.7378C19.0256 27.5934 19.0108 27.3906 19.0291 27.2032C19.0691 26.8357 19.2362 26.4813 19.4924 26.2236C19.6126 26.1007 19.7613 25.9981 19.9318 25.9814C20.2121 25.9563 20.4661 26.1914 20.5679 26.4646C20.6331 26.6388 20.6515 26.8262 20.6515 27.0135L20.7441 26.8643C20.7384 27.0063 20.7007 27.1424 20.6423 27.2677ZM16.3003 26.7522C16.179 26.9097 15.9719 26.9705 15.7809 26.9682C15.3884 26.9646 15.02 26.7104 14.829 26.3584C14.8164 26.3548 14.7923 26.3071 14.7923 26.288C14.7363 26.1627 14.6985 26.0231 14.6928 25.8787L14.7855 26.0267C14.7855 25.837 14.8015 25.6532 14.869 25.4754C14.9708 25.2046 15.2248 24.9695 15.5029 24.9958C15.6722 25.0077 15.8209 25.1151 15.9445 25.2368C16.1985 25.4945 16.3655 25.8465 16.4056 26.214C16.4262 26.4002 16.4113 26.603 16.3003 26.7522ZM31.3274 38.9445C31.1271 39.1748 30.9029 39.3454 30.6638 39.3896C30.3743 37.3384 29.9681 35.5498 28.6913 33.8602C27.0769 31.7267 24.6525 30.6039 22.0519 30.7387C22.0484 30.7387 21.124 24.293 21.124 22.6809C20.3917 23.0866 20.8185 22.9231 20.0371 23.2358C19.5485 23.4291 18.9925 23.268 18.5222 23.0126C18.1481 22.8134 17.8975 22.5198 17.7122 22.1559C17.6264 21.9853 16.9959 20.8636 17.1069 20.7467C12.1677 25.8298 9.37716 32.6407 9.16321 39.5483C8.6289 39.6032 8.21129 39.6032 7.5168 41.4276C7.68613 40.9861 12.5579 41.5624 13.1757 41.5278C15.1322 41.4145 17.0886 41.3429 19.0451 41.3083C21.0485 41.2737 23.0518 41.2904 25.0552 41.3453C26.0769 41.3727 27.0975 41.4109 28.1181 41.4586C28.6272 41.4813 29.1375 41.504 29.6466 41.535C29.9761 41.5553 33.5504 40.5243 34.3547 39.6604C39.6681 33.9628 32.277 30.2006 30.396 30.7387C29.5894 30.9702 28.2474 31.3711 28.1181 32.2326C29.7965 32.025 32.6774 32.9951 33.2644 34.6477C33.5596 35.483 32.8754 36.8814 32.6088 37.7227C32.4738 38.1462 31.7129 38.4982 31.3274 38.9445Z" fill="#4D4A2F"/>
<path id="Fill 60" fill-rule="evenodd" clip-rule="evenodd" d="M28.5761 32.351C30.004 33.981 30.9021 36.1693 30.9524 38.5701C30.9547 38.6787 30.9547 38.7884 30.9536 38.8982C31.052 38.8493 31.163 38.7646 31.2797 38.6476C31.5611 38.3696 31.8105 37.9842 31.997 37.6811C32.4352 36.9652 32.6858 36.1538 32.7201 35.3341C32.7327 35.0226 32.711 34.7864 32.648 34.5907C32.5279 34.2172 32.2373 33.8783 31.7316 33.524C30.5611 32.7054 29.6435 32.3641 28.5761 32.351ZM17.0981 21.1884C15.557 22.8971 9.39353 30.3106 9.47247 39.3839L9.47591 39.6786L9.19445 39.7072C9.01139 39.7752 8.5114 39.9984 8.04459 40.9016C9.37522 40.7966 12.66 41.0723 13.1589 41.0436C15.0581 40.9351 17.0363 40.8611 19.0397 40.8241C21.4687 40.7835 23.9503 40.8121 26.6253 40.9124C28.7488 40.9911 32.1538 40.9553 32.8288 40.5317C33.6469 40.021 34.6709 39.3027 35.3356 38.2861C36.3161 36.7838 36.3779 34.6444 35.4866 33.0825C34.5942 31.5217 32.7579 30.5624 31.0268 30.7449C30.1996 30.8332 29.5795 31.1518 29.1104 31.7389C30.3277 31.8749 31.2533 32.4131 32.076 32.9882C32.7018 33.4261 33.0691 33.8712 33.2338 34.3867C33.3483 34.7446 33.3483 35.1145 33.338 35.3615C33.2979 36.2946 33.0142 37.2158 32.5176 38.0272C32.3128 38.3625 32.0359 38.7884 31.7053 39.1154C31.3083 39.5092 30.925 39.6619 30.5634 39.5676L30.3243 39.5044L30.3289 39.2466C30.3346 39.0283 30.338 38.8052 30.3335 38.5832C30.2374 33.9034 26.6848 30.0946 22.4138 30.0946H22.1701L22.1129 29.8476C21.9367 29.0923 21.8978 28.3179 21.8612 27.5698C21.8051 26.4828 21.749 25.3755 21.7765 24.2813C21.7925 23.6596 21.8371 23.0344 21.9092 22.4151C21.8451 22.4533 21.7822 22.4926 21.7193 22.5308C21.2147 22.8387 20.693 23.1573 20.1472 23.3756C19.6427 23.5749 19.0329 23.4926 18.3796 23.1382C17.978 22.9234 17.6702 22.5988 17.4391 22.1454C17.3807 22.0285 17.2251 21.5739 17.0981 21.1884ZM7 41.6307L7.23912 41.1236C7.61898 40.3193 8.28486 39.5772 8.85464 39.1834C8.86837 28.6843 16.9311 20.4367 17.0123 20.3544L17.3647 20L17.5203 20.4833C17.7102 21.0739 17.9368 21.7445 17.986 21.8447C18.1576 22.18 18.3727 22.4103 18.6633 22.5654C19.0077 22.7516 19.5065 22.9389 19.9264 22.773C20.4241 22.5738 20.9241 22.2695 21.4069 21.9748C21.6575 21.822 21.9069 21.6693 22.154 21.5321L22.6975 21.2314L22.6048 21.8662C22.4858 22.668 22.4161 23.4866 22.3943 24.298C22.3669 25.3671 22.4229 26.4613 22.4778 27.5197C22.5099 28.1712 22.5419 28.8286 22.662 29.4539C24.7936 29.5219 26.7455 30.4657 28.2191 31.9656L28.2752 31.8654C28.869 30.8094 29.7477 30.2331 30.9639 30.1042C32.9592 29.8894 34.9901 30.9561 36.0175 32.7531C37.0438 34.5501 36.9752 36.9199 35.8459 38.6488C35.1137 39.7693 34.0187 40.5401 33.1469 41.0854C32.1206 41.7273 27.5166 41.5901 26.6024 41.5567C23.9389 41.4565 21.4676 41.4279 19.05 41.4696C17.0546 41.5054 15.0844 41.5794 13.1921 41.688C12.5845 41.7226 7.59037 41.5842 7.54003 41.5877L7 41.6307Z" fill="#4D4A2F"/>
</g>
</g>
<defs>
<linearGradient id="paint0_linear" x1="0.651093" y1="5.36987" x2="0.651093" y2="40.75" gradientUnits="userSpaceOnUse">
<stop stop-color="#FF803B"/>
<stop offset="1" stop-color="#FF9100"/>
</linearGradient>
</defs>
</svg>
