<svg width="39" height="28" viewBox="0 0 39 28" fill="none" xmlns="http://www.w3.org/2000/svg">
<path fill-rule="evenodd" clip-rule="evenodd" d="M8.82568 6.4502H16.0001C16.0001 6.4502 18.7763 13.165 22.9987 14.0726C27.2211 14.9802 34.0001 14.9615 34.0001 14.9615L32.112 19.5726H11.9583" fill="url(#paint0_linear)"/>
<path d="M8 4.5V4H7.33447L7.51977 4.63921L8 4.5ZM17.315 4.5L17.7993 4.37537L17.7026 4H17.315V4.5ZM12.3693 19.5725L11.8891 19.7118L11.9937 20.0725H12.3693V19.5725ZM35.1677 19.5725V20.0725H35.5212L35.6391 19.7393L35.1677 19.5725ZM37.8467 12L38.3181 12.1668L38.5539 11.5H37.8467V12ZM8 5H17.315V4H8V5ZM12.8495 19.4333L8.48023 4.36079L7.51977 4.63921L11.8891 19.7118L12.8495 19.4333ZM35.1677 19.0725H12.3693V20.0725H35.1677V19.0725ZM37.3753 11.8332L34.6963 19.4058L35.6391 19.7393L38.3181 12.1668L37.3753 11.8332ZM37.8467 11.5H27V12.5H37.8467V11.5ZM27 11.5C22.5741 11.5 18.8539 8.47289 17.7993 4.37537L16.8308 4.62463C17.9964 9.15324 22.1067 12.5 27 12.5V11.5Z" fill="#4D4A2F"/>
<path fill-rule="evenodd" clip-rule="evenodd" d="M18.5 27C19.8807 27 21 25.8807 21 24.5C21 23.1193 19.8807 22 18.5 22C17.1193 22 16 23.1193 16 24.5C16 25.8807 17.1193 27 18.5 27Z" stroke="#4D4A2F"/>
<path fill-rule="evenodd" clip-rule="evenodd" d="M29.5 27C30.8807 27 32 25.8807 32 24.5C32 23.1193 30.8807 22 29.5 22C28.1193 22 27 23.1193 27 24.5C27 25.8807 28.1193 27 29.5 27Z" stroke="#4D4A2F"/>
<path d="M0 0.865234H6.74181L13.7318 24.5004H16" stroke="#4D4A2F"/>
<path d="M21 24.4619H27.0067" stroke="#4D4A2F"/>
<defs>
<linearGradient id="paint0_linear" x1="8.82568" y1="6.4502" x2="8.82568" y2="19.5726" gradientUnits="userSpaceOnUse">
<stop stop-color="#FF803B"/>
<stop offset="1" stop-color="#FF9100"/>
</linearGradient>
</defs>
</svg>
