<svg width="48" height="29" viewBox="0 0 48 29" fill="none" xmlns="http://www.w3.org/2000/svg">
<path fill-rule="evenodd" clip-rule="evenodd" d="M21.4999 27.9616C26.1223 27.9616 32.1321 26.9211 37.7486 22.9616C40.5998 20.9515 46.9999 15.0001 46.9999 15.0001C46.9999 15.0001 42.6829 15.5994 40.4188 15.1763C37.9806 14.7207 36.3116 14.126 34.3861 12.4616C31.1739 9.68482 30.5906 6.36885 28.6335 5.34234C25.6152 3.75923 21.0958 4.30923 19.4999 4.64804C10.9813 6.45644 1.32764 15.1763 1.32764 15.1763C1.32764 15.1763 11.0463 27.9616 21.4999 27.9616Z" fill="url(#paint0_linear)"/>
<path fill-rule="evenodd" clip-rule="evenodd" d="M32.2801 1.95394L31.9024 1.82004C29.3492 0.914754 26.7143 0.461914 23.9999 0.461914C15.3608 0.461914 7.55531 5.04338 0.602398 14.1587L0.371094 14.4619L0.602398 14.7652C7.55531 23.8804 15.3608 28.4619 23.9999 28.4619C32.6391 28.4619 40.4446 23.8804 47.3975 14.7652L47.6288 14.4619C47.6288 14.4619 46.5052 13.3613 46.0388 12.7991L45.8409 12.5605L45.5393 12.6316C43.1445 13.1961 39.8932 12.7631 38.5875 12.0768C33.642 9.47691 31.762 6.21133 32.2317 2.35169L32.2801 1.95394ZM1.63043 14.4619C8.3469 5.77991 15.7973 1.46191 23.9999 1.46191C26.4695 1.46191 29.3454 1.85734 31.6754 2.63943C31.3451 6.7826 33.4504 10.1495 38.049 12.4612C39.5716 13.2266 42.9999 13.2511 45.2168 13.2511C45.3638 13.4305 45.5583 13.6199 45.7554 13.8117C45.9784 14.0287 46.2048 14.249 46.3695 14.4619C39.653 23.1439 32.2026 27.4619 23.9999 27.4619C15.7973 27.4619 8.3469 23.1439 1.63043 14.4619Z" fill="#4D4A2F"/>
<path fill-rule="evenodd" clip-rule="evenodd" d="M24.3335 22.9619C28.7518 22.9619 32.3335 19.3802 32.3335 14.9619C32.3335 10.5436 28.7518 6.96191 24.3335 6.96191C19.9152 6.96191 16.3335 10.5436 16.3335 14.9619C16.3335 19.3802 19.9152 22.9619 24.3335 22.9619Z" fill="#E9E9E9" stroke="#4D4A2F"/>
<path fill-rule="evenodd" clip-rule="evenodd" d="M30.4927 17.5923C31.7792 14.2409 30.1052 10.4811 26.7538 9.19463C23.4024 7.90814 19.6426 9.58209 18.3562 12.9335C17.7032 14.6346 22.0843 12.2902 25.1184 13.4549C28.1526 14.6196 29.8592 19.2426 30.4927 17.5923Z" fill="url(#paint1_linear)"/>
<defs>
<linearGradient id="paint0_linear" x1="1.32764" y1="4.27344" x2="1.32764" y2="27.9616" gradientUnits="userSpaceOnUse">
<stop stop-color="#FF803B"/>
<stop offset="1" stop-color="#FF9100"/>
</linearGradient>
<linearGradient id="paint1_linear" x1="20.6855" y1="6.86523" x2="18.1775" y2="13.399" gradientUnits="userSpaceOnUse">
<stop stop-color="#FF803B"/>
<stop offset="1" stop-color="#FF9100"/>
</linearGradient>
</defs>
</svg>
