<svg width="75" height="75" viewBox="0 0 75 75" fill="none" xmlns="http://www.w3.org/2000/svg">
<g clip-path="url(#clip0)">
<path d="M68.552 66.7624L58.6228 42.7915C58.3699 42.181 57.6698 41.8907 57.0592 42.1438C56.4485 42.3969 56.1584 43.0969 56.4114 43.7074L65.3877 65.3778L57.2001 63.0054C56.6626 62.8495 56.0886 63.0873 55.8188 63.5777L51.7067 71.0446L42.0753 47.7921C53.1917 45.6483 61.6147 35.8474 61.6147 24.1147C61.6148 10.8179 50.7971 0 37.5003 0C24.2034 0 13.3855 10.8179 13.3855 24.1147C13.3855 29.5005 15.1606 34.4793 18.1562 38.4977L6.44852 66.7624C6.27251 67.1876 6.35565 67.6758 6.66251 68.0186C6.96921 68.3614 7.44554 68.498 7.8874 68.37L17.5469 65.5709L22.398 74.3805C22.6093 74.764 23.0119 75 23.4461 75C23.4681 75 23.4903 74.9994 23.5125 74.9982C23.9719 74.9727 24.3759 74.6863 24.5521 74.2612L33.8291 51.8644C34.082 51.2537 33.7921 50.5537 33.1814 50.3007C32.5707 50.0478 31.8706 50.3378 31.6177 50.9485L23.2935 71.0446L19.1818 63.5777C18.9118 63.0873 18.3375 62.8495 17.8003 63.0054L9.61288 65.3778L19.889 40.5689C24.2929 45.2796 30.5581 48.2293 37.5003 48.2293C38.2169 48.2293 38.9258 48.196 39.6266 48.1345L50.4486 74.2612C50.6246 74.6863 51.0288 74.9727 51.4881 74.9981C51.5104 74.9994 51.5325 75 51.5546 75C51.9888 75 52.3914 74.764 52.6026 74.3805L57.4538 65.5709L67.1133 68.37C67.5555 68.4981 68.0313 68.3614 68.3382 68.0186C68.6451 67.6758 68.728 67.1876 68.552 66.7624ZM15.7792 24.1147C15.7792 12.1377 25.5233 2.39362 37.5003 2.39362C49.4773 2.39362 59.2212 12.1377 59.2212 24.1147C59.2212 36.0918 49.4773 45.8357 37.5003 45.8357C25.5233 45.8357 15.7792 36.0918 15.7792 24.1147Z" fill="url(#paint0_linear)"/>
<path d="M51.329 19.6212C51.1913 19.197 50.8288 18.8846 50.3888 18.8107L42.3356 17.4593L38.5618 10.2179C38.3556 9.82236 37.9466 9.57422 37.5005 9.57422C37.0545 9.57422 36.6453 9.82236 36.4391 10.2179L32.6652 17.4593L24.6121 18.8107C24.1722 18.8844 23.8098 19.1969 23.6719 19.6212C23.534 20.0455 23.6435 20.5111 23.9561 20.8295L29.6769 26.6563L28.4737 34.7331C28.4079 35.1743 28.593 35.6153 28.954 35.8777C29.3146 36.1397 29.7916 36.1794 30.1908 35.9808L37.5005 32.3406L44.8099 35.9808C44.9789 36.0649 45.1615 36.1063 45.3434 36.1063C45.5919 36.1063 45.8387 36.0291 46.047 35.8778C46.4079 35.6155 46.593 35.1744 46.5273 34.7332L45.3242 26.6565L51.045 20.8295C51.3574 20.5111 51.4669 20.0455 51.329 19.6212ZM43.1986 25.4048C42.9356 25.6727 42.8135 26.0484 42.8689 26.4195L43.8215 32.8143L38.0341 29.9323C37.8659 29.8486 37.6833 29.8067 37.5005 29.8067C37.3178 29.8067 37.1349 29.8485 36.967 29.9323L31.1796 32.8143L32.1322 26.4195C32.1876 26.0484 32.0655 25.6726 31.8025 25.4048L27.273 20.7912L33.6491 19.7211C34.0194 19.659 34.339 19.4268 34.5124 19.094L37.5005 13.3606L40.4885 19.0941C40.6621 19.427 40.9816 19.6592 41.3518 19.7212L47.7281 20.7913L43.1986 25.4048Z" fill="url(#paint1_linear)"/>
<path d="M55.6299 25.3218C54.9746 25.2342 54.373 25.6957 54.2863 26.351C53.1761 34.7298 45.9597 41.0485 37.5004 41.0485C28.163 41.0485 20.5665 33.4521 20.5665 24.1146C20.5665 14.7771 28.163 7.18073 37.5004 7.18073C45.9599 7.18073 53.1761 13.4992 54.2863 21.8782C54.373 22.5335 54.9757 22.9954 55.6299 22.9074C56.285 22.8206 56.746 22.219 56.659 21.5638C55.392 11.9996 47.1556 4.78711 37.5004 4.78711C26.8432 4.78711 18.1729 13.4573 18.1729 24.1146C18.1729 34.772 26.8432 43.442 37.5004 43.442C47.1556 43.442 55.392 36.2295 56.6592 26.6652C56.746 26.0102 56.2851 25.4086 55.6299 25.3218Z" fill="url(#paint2_linear)"/>
</g>
<defs>
<linearGradient id="paint0_linear" x1="53.672" y1="8.82257" x2="3.97409" y2="25.0559" gradientUnits="userSpaceOnUse">
<stop stop-color="#FF803B"/>
<stop offset="1" stop-color="#FF9100"/>
</linearGradient>
<linearGradient id="paint1_linear" x1="44.7118" y1="12.6953" x2="23.7411" y2="21.3296" gradientUnits="userSpaceOnUse">
<stop stop-color="#FF803B"/>
<stop offset="1" stop-color="#FF9100"/>
</linearGradient>
<linearGradient id="paint2_linear" x1="47.4165" y1="9.33424" x2="17.9446" y2="20.8787" gradientUnits="userSpaceOnUse">
<stop stop-color="#FF803B"/>
<stop offset="1" stop-color="#FF9100"/>
</linearGradient>
<clipPath id="clip0">
<rect width="75" height="75" fill="white"/>
</clipPath>
</defs>
</svg>
