<svg width="32" height="29" viewBox="0 0 32 29" fill="none" xmlns="http://www.w3.org/2000/svg">
<path fill-rule="evenodd" clip-rule="evenodd" d="M16.0001 11.2718C10.7732 -1.78879 -7.86454 7.31216 6.75689 19.7295C13.9065 25.8013 15.6909 27.61 15.658 27.4486C15.6461 27.39 15.9736 27.1847 15.9736 27.1847L19.451 25.2112L30.0023 14.0336C30.0023 14.0336 26.2264 14.0415 24.3543 10.0148C22.7425 6.54803 24.6651 6.4039 22.9956 5.72108C21.1378 4.96121 18.0503 6.4515 15.9736 11.2718H16.0001Z" fill="url(#paint0_linear)"/>
<path fill-rule="evenodd" clip-rule="evenodd" d="M26.5024 1.03672C25.6981 0.765664 24.8407 0.625062 23.9531 0.625062C21.4763 0.625062 19.2162 1.57732 17.4172 3.37894C16.7917 4.00537 16.3241 4.63124 16 5.12792C15.6759 4.63131 15.2083 4.00549 14.5828 3.37894C12.7838 1.57726 10.5238 0.625 8.04688 0.625C3.30587 0.625 0 4.55908 0 9.23639C0 15.128 5.86973 20.1516 13.8305 26.9649C14.4068 27.4581 14.994 27.9606 15.5907 28.4736C15.7081 28.5745 15.8541 28.625 16 28.625C16.1459 28.625 16.2919 28.5745 16.4093 28.4736C16.9985 27.9671 17.5783 27.4708 18.1473 26.9837L18.148 26.9831C24.5385 21.5129 29.5694 17.2066 31.3262 12.6874C30.9469 12.4439 30.5933 12.1946 30.2639 11.9404C28.7158 16.3238 23.6513 20.6487 17.6888 25.7404L17.688 25.741C17.1324 26.2155 16.5691 26.6966 16 27.185C15.5341 26.7852 15.0744 26.3916 14.6214 26.0039L14.6203 26.003C6.95683 19.4434 1.25 14.5586 1.25 9.23639C1.25 5.03394 4.172 1.86491 8.04688 1.86491C10.1984 1.86491 12.0882 2.65754 13.6638 4.22067C14.8642 5.41154 15.4243 6.62689 15.4298 6.63905C15.5303 6.86141 15.7533 7.00424 15.9991 7.00474H16.0002C16.246 7.00474 16.4692 6.86135 16.5703 6.63905C16.5758 6.62689 17.1359 5.4116 18.3363 4.22067C19.9118 2.65747 21.8016 1.86491 23.9532 1.86491C24.7685 1.86491 25.5416 2.00521 26.2542 2.26592C26.3195 1.83105 26.4055 1.41926 26.5024 1.03672Z" fill="#4D4A2F"/>
<defs>
<linearGradient id="paint0_linear" x1="1.26855" y1="4.89355" x2="1.26855" y2="27.4584" gradientUnits="userSpaceOnUse">
<stop stop-color="#FF803B"/>
<stop offset="1" stop-color="#FF9100"/>
</linearGradient>
</defs>
</svg>
