<svg width="245" height="52" viewBox="0 0 245 52" fill="none" xmlns="http://www.w3.org/2000/svg">
<path fill-rule="evenodd" clip-rule="evenodd" d="M131 45V50H130.506V45.8698L127.426 50H127V45H127.485V49.1302L130.574 45H131Z" fill="#7E7A5C"/>
<path fill-rule="evenodd" clip-rule="evenodd" d="M138 45V50H137.506V47.74H134.484V50H134V45H134.484V47.26H137.506V45H138Z" fill="#7E7A5C"/>
<path fill-rule="evenodd" clip-rule="evenodd" d="M143 45.4899H141.241V50H140.759V45.4899H139V45H143V45.4899Z" fill="#7E7A5C"/>
<path fill-rule="evenodd" clip-rule="evenodd" d="M144.422 46.9714H148.689C148.572 45.6738 147.66 44.9515 146.619 44.9515C145.409 44.9515 144.528 45.7908 144.422 46.9714ZM149.241 47.2371C149.241 47.3224 149.23 47.4069 149.23 47.4922H144.422C144.549 48.6931 145.462 49.4804 146.672 49.4804C147.543 49.4804 148.201 49.0757 148.508 48.5127L148.975 48.7889C148.541 49.5121 147.713 49.9906 146.662 49.9906C145.027 49.9906 143.87 48.8214 143.87 47.2159C143.87 45.6527 144.995 44.4404 146.619 44.4404C148.232 44.4404 149.241 45.7811 149.241 47.2371Z" fill="#7E7A5C"/>
<path fill-rule="evenodd" clip-rule="evenodd" d="M155.568 47.2161C155.568 45.951 154.581 44.9517 153.318 44.9517C152.054 44.9517 151.067 45.951 151.067 47.2161C151.067 48.4812 152.054 49.4805 153.318 49.4805C154.581 49.4805 155.568 48.4812 155.568 47.2161ZM156.099 47.2161C156.099 48.7891 154.867 49.9908 153.349 49.9908C152.32 49.9908 151.502 49.4594 151.067 48.6404V52.0001H150.537V44.5584H151.067V45.7918C151.502 44.9728 152.32 44.4414 153.349 44.4414C154.867 44.4414 156.099 45.6423 156.099 47.2161Z" fill="#7E7A5C"/>
<path fill-rule="evenodd" clip-rule="evenodd" d="M161.82 44.5576V49.873H161.279V47.4704H157.967V49.873H157.436V44.5576H157.967V46.9602H161.279V44.5576H161.82Z" fill="#7E7A5C"/>
<path fill-rule="evenodd" clip-rule="evenodd" d="M163.699 46.9714H167.967C167.85 45.6738 166.937 44.9515 165.896 44.9515C164.687 44.9515 163.806 45.7908 163.699 46.9714ZM168.518 47.2371C168.518 47.3224 168.508 47.4069 168.508 47.4922H163.699C163.827 48.6931 164.739 49.4804 165.95 49.4804C166.82 49.4804 167.478 49.0757 167.786 48.5127L168.253 48.7889C167.817 49.5121 166.99 49.9906 165.939 49.9906C164.304 49.9906 163.147 48.8214 163.147 47.2159C163.147 45.6527 164.272 44.4404 165.896 44.4404C167.51 44.4404 168.518 45.7811 168.518 47.2371Z" fill="#7E7A5C"/>
<path fill-rule="evenodd" clip-rule="evenodd" d="M173.317 45.0794H171.385V49.874H170.854V45.0794H168.922V44.5586H173.317V45.0794Z" fill="#7E7A5C"/>
<mask id="mask0" mask-type="alpha" maskUnits="userSpaceOnUse" x="0" y="0" width="245" height="52">
<path fill-rule="evenodd" clip-rule="evenodd" d="M0 51.9998H244.753V0.202148H0V51.9998Z" fill="white"/>
</mask>
<g mask="url(#mask0)">
<path fill-rule="evenodd" clip-rule="evenodd" d="M174.113 46.843H177.935V46.3328H174.113V46.843Z" fill="#7E7A5C"/>
<path fill-rule="evenodd" clip-rule="evenodd" d="M184.845 49.874H184.304V45.3662L182.319 48.5025H182.244L180.249 45.3451V49.874H179.718V44.5586H180.344L182.276 47.6095L184.208 44.5586H184.845V49.874Z" fill="#7E7A5C"/>
<path fill-rule="evenodd" clip-rule="evenodd" d="M191.203 47.2161C191.203 45.951 190.227 44.9517 188.963 44.9517C187.7 44.9517 186.713 45.951 186.713 47.2161C186.713 48.4812 187.7 49.4805 188.963 49.4805C190.227 49.4805 191.203 48.4812 191.203 47.2161ZM191.744 44.5584V49.8738H191.203V48.6729C190.758 49.47 189.94 49.9908 188.921 49.9908C187.414 49.9908 186.172 48.7891 186.172 47.2161C186.172 45.6423 187.414 44.4414 188.921 44.4414C189.94 44.4414 190.758 44.9622 191.203 45.7593V44.5584H191.744Z" fill="#7E7A5C"/>
<path fill-rule="evenodd" clip-rule="evenodd" d="M196.756 45.0794H193.964V49.874H193.433V44.5586H196.756V45.0794Z" fill="#7E7A5C"/>
<path fill-rule="evenodd" clip-rule="evenodd" d="M202.212 47.2161C202.212 45.951 201.235 44.9517 199.972 44.9517C198.709 44.9517 197.721 45.951 197.721 47.2161C197.721 48.4812 198.709 49.4805 199.972 49.4805C201.235 49.4805 202.212 48.4812 202.212 47.2161ZM202.754 44.5584V49.8738H202.212V48.6729C201.766 49.47 200.948 49.9908 199.93 49.9908C198.422 49.9908 197.18 48.7891 197.18 47.2161C197.18 45.6423 198.422 44.4414 199.93 44.4414C200.948 44.4414 201.766 44.9622 202.212 45.7593V44.5584H202.754Z" fill="#7E7A5C"/>
<path fill-rule="evenodd" clip-rule="evenodd" d="M207.997 48.4485C207.997 49.2569 207.35 49.9898 206.044 49.9898C204.855 49.9898 204.239 49.4373 203.974 48.7353L204.431 48.4696C204.632 49.0652 205.12 49.4804 206.044 49.4804C206.947 49.4804 207.456 49.0335 207.456 48.4168C207.456 47.8424 207.01 47.4386 206.289 47.4386H205.556V46.9177H206.087C206.776 46.9177 207.201 46.5351 207.201 45.9395C207.201 45.3764 206.702 44.9507 205.949 44.9507C205.248 44.9507 204.738 45.2594 204.515 45.8119L204.07 45.5568C204.356 44.9084 204.983 44.4404 205.949 44.4404C207.074 44.4404 207.732 45.1319 207.732 45.9184C207.732 46.4392 207.477 46.8966 206.989 47.1306C207.636 47.3427 207.997 47.8424 207.997 48.4485Z" fill="#7E7A5C"/>
<path fill-rule="evenodd" clip-rule="evenodd" d="M213.602 44.5576V49.873H213.061V45.4822L209.685 49.873H209.218V44.5576H209.749V48.9484L213.135 44.5576H213.602Z" fill="#7E7A5C"/>
<path fill-rule="evenodd" clip-rule="evenodd" d="M219.674 44.5576V49.873H219.132V47.4704H215.821V49.873H215.29V44.5576H215.821V46.9602H219.132V44.5576H219.674Z" fill="#7E7A5C"/>
<path fill-rule="evenodd" clip-rule="evenodd" d="M114.389 18.2987H110.291V30.7503H106.647V18.2987H102.549V14.7871H114.389V18.2987Z" fill="#4D4A2F"/>
<path fill-rule="evenodd" clip-rule="evenodd" d="M128.393 14.7871V30.7503H124.751V24.4104H119.741V30.7503H116.098V14.7871H119.741V20.8987H124.751V14.7871H128.393Z" fill="#4D4A2F"/>
<path fill-rule="evenodd" clip-rule="evenodd" d="M141.258 27.2379V30.7503H131.24V14.7871H141.145V18.2987H134.884V20.9442H140.575V24.4104H134.884V27.2379H141.258Z" fill="#4D4A2F"/>
</g>
<mask id="mask1" mask-type="alpha" maskUnits="userSpaceOnUse" x="143" y="15" width="17" height="16">
<path fill-rule="evenodd" clip-rule="evenodd" d="M155.909 15.1592L151.592 22.1416L147.275 15.1592H143.64V30.8768H147.275V21.7376L151.387 28.4064H151.796L155.909 21.7376V30.8768H159.544V15.1592H155.909Z" fill="white"/>
</mask>
<g mask="url(#mask1)">
<path fill-rule="evenodd" clip-rule="evenodd" d="M155.909 15.1592L151.592 22.1416L147.275 15.1592H143.64V30.8768H147.275V21.7376L151.387 28.4064H151.796L155.909 21.7376V30.8768H159.544V15.1592H155.909Z" fill="url(#paint0_linear)"/>
</g>
<mask id="mask2" mask-type="alpha" maskUnits="userSpaceOnUse" x="162" y="15" width="11" height="16">
<path fill-rule="evenodd" clip-rule="evenodd" d="M162.061 15.1592V30.8768H172.41V27.4184H165.824V24.6344H171.705V21.2216H165.824V18.6176H172.293V15.1592H162.061Z" fill="white"/>
</mask>
<g mask="url(#mask2)">
<path fill-rule="evenodd" clip-rule="evenodd" d="M162.061 15.1592V30.8768H172.41V27.4184H165.824V24.6344H171.705V21.2216H165.824V18.6176H172.293V15.1592H162.061Z" fill="url(#paint1_linear)"/>
</g>
<mask id="mask3" mask-type="alpha" maskUnits="userSpaceOnUse" x="174" y="15" width="12" height="16">
<path fill-rule="evenodd" clip-rule="evenodd" d="M174.059 15.1592V30.8768H180.612C183.398 30.8768 185.65 29.0576 185.65 26.2736C185.65 24.68 184.892 23.4664 183.732 22.7264C184.579 21.9848 185.092 20.952 185.092 19.6496C185.092 16.9328 182.885 15.1592 180.167 15.1592H174.059ZM177.625 18.5272H180.167C180.991 18.5272 181.526 19.1104 181.526 19.92C181.526 20.728 180.969 21.3112 180.167 21.3112H177.625V18.5272ZM177.625 24.5H180.612C181.504 24.5 182.084 25.1288 182.084 26.0048C182.084 26.8792 181.504 27.5088 180.612 27.5088H177.625V24.5Z" fill="white"/>
</mask>
<g mask="url(#mask3)">
<path fill-rule="evenodd" clip-rule="evenodd" d="M174.059 15.1592V30.8768H180.612C183.398 30.8768 185.65 29.0576 185.65 26.2736C185.65 24.68 184.892 23.4664 183.732 22.7264C184.579 21.9848 185.092 20.952 185.092 19.6496C185.092 16.9328 182.885 15.1592 180.167 15.1592H174.059ZM177.625 18.5272H180.167C180.991 18.5272 181.526 19.1104 181.526 19.92C181.526 20.728 180.969 21.3112 180.167 21.3112H177.625V18.5272ZM177.625 24.5H180.612C181.504 24.5 182.084 25.1288 182.084 26.0048C182.084 26.8792 181.504 27.5088 180.612 27.5088H177.625V24.5Z" fill="url(#paint2_linear)"/>
</g>
<mask id="mask4" mask-type="alpha" maskUnits="userSpaceOnUse" x="188" y="15" width="11" height="16">
<path fill-rule="evenodd" clip-rule="evenodd" d="M188.059 15.1592V30.8768H198.408V27.4184H191.822V24.6344H197.703V21.2216H191.822V18.6176H198.291V15.1592H188.059Z" fill="white"/>
</mask>
<g mask="url(#mask4)">
<path fill-rule="evenodd" clip-rule="evenodd" d="M188.059 15.1592V30.8768H198.408V27.4184H191.822V24.6344H197.703V21.2216H191.822V18.6176H198.291V15.1592H188.059Z" fill="url(#paint3_linear)"/>
</g>
<mask id="mask5" mask-type="alpha" maskUnits="userSpaceOnUse" x="200" y="15" width="10" height="16">
<path fill-rule="evenodd" clip-rule="evenodd" d="M200.028 15.1592V30.8768H209.56V27.4184H203.748V15.1592H200.028Z" fill="white"/>
</mask>
<g mask="url(#mask5)">
<path fill-rule="evenodd" clip-rule="evenodd" d="M200.028 15.1592V30.8768H209.56V27.4184H203.748V15.1592H200.028Z" fill="url(#paint4_linear)"/>
</g>
<path fill-rule="evenodd" clip-rule="evenodd" d="M211.735 28.9025C211.735 27.7162 212.715 26.7363 213.898 26.7363C215.083 26.7363 216.062 27.7162 216.062 28.9025C216.062 30.0887 215.083 31.0694 213.898 31.0694C212.715 31.0694 211.735 30.0887 211.735 28.9025Z" fill="#4D4A2F"/>
<path fill-rule="evenodd" clip-rule="evenodd" d="M222.21 22.3125H224.942C225.944 22.3125 226.763 21.4228 226.763 20.2601C226.763 19.0966 225.944 18.2077 224.942 18.2077H222.21V22.3125ZM223.94 25.5048H222.21V30.7503H218.566V14.7871H224.942C227.971 14.7871 230.407 17.227 230.407 20.2601C230.407 22.2207 229.223 23.9992 227.469 24.8889L230.862 30.7503H226.946L223.94 25.5048Z" fill="#4D4A2F"/>
<path fill-rule="evenodd" clip-rule="evenodd" d="M232.457 25.5956V14.7861H236.1V25.2763C236.1 26.4853 236.669 27.5115 238.605 27.5115C240.54 27.5115 241.11 26.4853 241.11 25.2763V14.7861H244.752V25.5956C244.752 29.0163 242.111 31.0686 238.605 31.0686C235.098 31.0686 232.457 29.0163 232.457 25.5956Z" fill="#4D4A2F"/>
<mask id="mask6" mask-type="alpha" maskUnits="userSpaceOnUse" x="0" y="0" width="245" height="52">
<path fill-rule="evenodd" clip-rule="evenodd" d="M0 51.9998H244.753V0.202148H0V51.9998Z" fill="white"/>
</mask>
<g mask="url(#mask6)">
<path fill-rule="evenodd" clip-rule="evenodd" d="M9.38801 47.0104H85.0378V35.0439H9.38801V47.0104ZM8.96777 47.4321H85.4589V34.623H8.96777V47.4321Z" fill="#4D4A2F"/>
<path fill-rule="evenodd" clip-rule="evenodd" d="M3.90283 49.568H5.16515V47.2207H3.90283V49.568Z" fill="#4D4A2F"/>
<path fill-rule="evenodd" clip-rule="evenodd" d="M88.9561 49.7643H90.2184V47.417H88.9561V49.7643Z" fill="#4D4A2F"/>
</g>
<mask id="mask7" mask-type="alpha" maskUnits="userSpaceOnUse" x="1" y="16" width="93" height="30">
<path fill-rule="evenodd" clip-rule="evenodd" d="M38.3406 16.9806C33.5178 17.2677 28.6918 17.6705 23.8626 17.5209C19.5656 17.3874 15.2726 16.8165 10.9789 17.0478C10.3994 20.9111 10.0367 24.8067 9.88506 28.7113C7.37059 28.1953 4.71593 28.3659 2.29193 29.2038C1.44508 34.7533 1.36358 40.4176 2.05149 45.989C14.6271 45.9695 27.2035 45.9493 39.7791 45.9291C44.2017 45.9226 48.6234 45.9154 53.0451 45.9089C66.3747 45.8879 79.7083 45.8668 93.0256 45.2967C93.2701 45.2862 93.5464 45.2611 93.7021 45.0735C93.8293 44.9206 93.8366 44.7055 93.839 44.5066C93.8855 39.0937 93.9311 33.6809 93.9776 28.2681C91.9497 28.1759 89.9169 28.1864 87.8907 28.2988C87.1718 28.3392 86.3894 28.4193 85.8718 28.9159C84.8684 29.8815 85.5303 31.6364 84.9125 32.8795C84.5921 27.6049 84.271 22.3296 83.9507 17.0559C81.8429 16.3798 79.5868 16.3612 77.3723 16.3498C73.5912 16.3288 69.8085 16.3086 66.0266 16.3086C56.7911 16.3086 47.5573 16.4315 38.3406 16.9806ZM30.9553 35.0032C47.6478 34.6603 64.3492 34.5422 81.1183 34.6522C80.8151 37.2717 68.6039 35.8362 65.959 35.8216C59.8093 35.7885 53.6589 35.7925 47.51 35.8329C41.468 35.8742 35.4275 35.9502 29.3863 36.0626C27.5801 36.0958 25.6867 36.0472 23.7648 35.9979C19.6438 35.8928 15.3916 35.7868 11.5902 36.4969C17.9607 35.3073 24.4747 35.1366 30.9553 35.0032Z" fill="white"/>
</mask>
<g mask="url(#mask7)">
<path fill-rule="evenodd" clip-rule="evenodd" d="M38.3406 16.9806C33.5178 17.2677 28.6918 17.6705 23.8626 17.5209C19.5656 17.3874 15.2726 16.8165 10.9789 17.0478C10.3994 20.9111 10.0367 24.8067 9.88506 28.7113C7.37059 28.1953 4.71593 28.3659 2.29193 29.2038C1.44508 34.7533 1.36358 40.4176 2.05149 45.989C14.6271 45.9695 27.2035 45.9493 39.7791 45.9291C44.2017 45.9226 48.6234 45.9154 53.0451 45.9089C66.3747 45.8879 79.7083 45.8668 93.0256 45.2967C93.2701 45.2862 93.5464 45.2611 93.7021 45.0735C93.8293 44.9206 93.8366 44.7055 93.839 44.5066C93.8855 39.0937 93.9311 33.6809 93.9776 28.2681C91.9497 28.1759 89.9169 28.1864 87.8907 28.2988C87.1718 28.3392 86.3894 28.4193 85.8718 28.9159C84.8684 29.8815 85.5303 31.6364 84.9125 32.8795C84.5921 27.6049 84.271 22.3296 83.9507 17.0559C81.8429 16.3798 79.5868 16.3612 77.3723 16.3498C73.5912 16.3288 69.8085 16.3086 66.0266 16.3086C56.7911 16.3086 47.5573 16.4315 38.3406 16.9806ZM30.9553 35.0032C47.6478 34.6603 64.3492 34.5422 81.1183 34.6522C80.8151 37.2717 68.6039 35.8362 65.959 35.8216C59.8093 35.7885 53.6589 35.7925 47.51 35.8329C41.468 35.8742 35.4275 35.9502 29.3863 36.0626C27.5801 36.0958 25.6867 36.0472 23.7648 35.9979C19.6438 35.8928 15.3916 35.7868 11.5902 36.4969C17.9607 35.3073 24.4747 35.1366 30.9553 35.0032Z" fill="url(#paint5_linear)"/>
</g>
<path fill-rule="evenodd" clip-rule="evenodd" d="M9.39618 34.6671H85.112V15.2425H9.39618V34.6671ZM8.97559 35.0893H85.5334V14.8203H8.97559V35.0893Z" fill="#4D4A2F"/>
<path fill-rule="evenodd" clip-rule="evenodd" d="M85.5381 47.0714H94.093V27.6468H85.5381V47.0714ZM85.1167 47.4936H94.5136V27.2246H85.1167V47.4936Z" fill="#4D4A2F"/>
<path fill-rule="evenodd" clip-rule="evenodd" d="M78.0463 5.15802C78.0463 5.17347 78.0268 5.2109 78.0179 5.21252C77.8839 5.45252 77.6233 5.62581 77.3464 5.62825C77.2084 5.62825 77.0614 5.58676 76.9786 5.47856C76.899 5.38012 76.8885 5.24181 76.9014 5.11408C76.9299 4.86351 77.0484 4.62188 77.2303 4.44615C77.3155 4.36235 77.4211 4.29239 77.5421 4.281C77.741 4.26391 77.9213 4.42419 77.9935 4.61049C78.0398 4.72927 78.0528 4.857 78.0528 4.98473L78.1186 4.88303C78.1145 4.97985 78.0877 5.07259 78.0463 5.15802ZM74.9649 4.80656C74.8788 4.91395 74.7319 4.95544 74.5963 4.95381C74.3178 4.95137 74.0563 4.77808 73.9207 4.53808C73.9118 4.53564 73.8947 4.5031 73.8947 4.49008C73.8549 4.40466 73.8282 4.30947 73.8241 4.21103L73.8899 4.31191C73.8899 4.18256 73.9012 4.05727 73.9491 3.93605C74.0214 3.75137 74.2017 3.5911 74.399 3.609C74.5191 3.61713 74.6247 3.69035 74.7124 3.77334C74.8926 3.94907 75.0112 4.18907 75.0396 4.43964C75.0542 4.56656 75.0437 4.70486 74.9649 4.80656ZM85.6293 13.1195C85.4872 13.2765 85.328 13.3929 85.1583 13.423C84.9529 12.0245 84.6646 10.8049 83.7585 9.65293C82.6128 8.19829 80.8923 7.43273 79.0467 7.52466C79.0442 7.52466 78.3882 3.12981 78.3882 2.03069C77.8685 2.3073 78.1714 2.19585 77.6168 2.409C77.2701 2.5408 76.8755 2.43096 76.5417 2.25686C76.2762 2.121 76.0984 1.92086 75.9669 1.67273C75.906 1.55639 75.4586 0.791643 75.5373 0.711914C72.0321 4.17768 70.0517 8.82147 69.8999 13.5312C69.5207 13.5686 69.2243 13.5686 68.7314 14.8125C68.8516 14.5115 72.309 14.9045 72.7474 14.8809C74.1359 14.8036 75.5244 14.7548 76.9128 14.7312C78.3346 14.7076 79.7563 14.719 81.1781 14.7564C81.9032 14.7751 82.6274 14.8011 83.3517 14.8337C83.713 14.8491 84.0752 14.8646 84.4365 14.8857C84.6703 14.8996 87.2069 14.1967 87.7777 13.6076C91.5485 9.7229 86.3032 7.15774 84.9683 7.52466C84.3959 7.68249 83.4435 7.95585 83.3517 8.54324C84.5429 8.40168 86.5874 9.0631 87.0039 10.1899C87.2134 10.7594 86.7279 11.7129 86.5387 12.2864C86.4429 12.5752 85.9029 12.8152 85.6293 13.1195Z" fill="#4D4A2F"/>
<path fill-rule="evenodd" clip-rule="evenodd" d="M83.6768 8.62428C84.6901 9.7356 85.3275 11.2277 85.3633 12.8645C85.3649 12.9386 85.3649 13.0134 85.3641 13.0883C85.4339 13.0549 85.5127 12.9972 85.5955 12.9174C85.7952 12.7279 85.9722 12.4651 86.1046 12.2584C86.4156 11.7703 86.5934 11.2171 86.6177 10.6582C86.6267 10.4458 86.6112 10.2848 86.5666 10.1513C86.4813 9.89668 86.2751 9.66563 85.9162 9.42401C85.0856 8.8659 84.4344 8.63323 83.6768 8.62428ZM75.5312 1.01343C74.4374 2.17845 70.0634 7.23309 70.1194 13.4194L70.1218 13.6203L69.9221 13.6399C69.7922 13.6862 69.4374 13.8384 69.1061 14.4542C70.0504 14.3827 72.3815 14.5706 72.7356 14.5511C74.0834 14.477 75.4873 14.4266 76.9091 14.4014C78.6329 14.3737 80.394 14.3932 82.2924 14.4616C83.7994 14.5153 86.2158 14.4909 86.6949 14.202C87.2754 13.8538 88.0021 13.3641 88.4739 12.6709C89.1697 11.6467 89.2136 10.1879 88.5811 9.12299C87.9477 8.05885 86.6445 7.40475 85.416 7.52923C84.829 7.58943 84.3889 7.80665 84.056 8.20692C84.9199 8.29967 85.5768 8.66658 86.1606 9.05872C86.6047 9.35729 86.8654 9.66075 86.9823 10.0122C87.0635 10.2563 87.0635 10.5085 87.0562 10.6769C87.0278 11.3131 86.8264 11.9412 86.474 12.4944C86.3287 12.723 86.1322 13.0134 85.8975 13.2363C85.6158 13.5048 85.3438 13.609 85.0872 13.5447L84.9175 13.5016L84.9207 13.3258C84.9248 13.177 84.9272 13.0248 84.924 12.8735C84.8558 9.68272 82.3346 7.08584 79.3035 7.08584H79.1306L79.09 6.91743C78.965 6.40245 78.9374 5.87445 78.9114 5.36435C78.8716 4.62319 78.8318 3.86821 78.8513 3.12218C78.8627 2.69831 78.8943 2.27201 78.9455 1.84977C78.9 1.8758 78.8553 1.90265 78.8107 1.92868C78.4526 2.13858 78.0824 2.3558 77.695 2.50468C77.337 2.64055 76.9042 2.58441 76.4406 2.34279C76.1556 2.19635 75.9371 1.97506 75.7731 1.6659C75.7317 1.58618 75.6213 1.27621 75.5312 1.01343ZM68.3647 14.9513L68.5344 14.6056C68.804 14.0572 69.2766 13.5512 69.6809 13.2827C69.6907 6.12421 75.4126 0.500888 75.4703 0.444752L75.7203 0.203125L75.8308 0.532617C75.9656 0.935328 76.1263 1.39255 76.1612 1.46089C76.283 1.6895 76.4357 1.84651 76.6419 1.95228C76.8863 2.07919 77.2403 2.20692 77.5383 2.09384C77.8915 1.95797 78.2464 1.75051 78.589 1.54957C78.7668 1.44543 78.9438 1.34129 79.1192 1.24774L79.5049 1.04272L79.4391 1.47553C79.3547 2.02224 79.3052 2.58035 79.2897 3.13357C79.2703 3.86251 79.31 4.60855 79.349 5.33018C79.3718 5.77438 79.3945 6.22265 79.4797 6.64896C80.9924 6.69533 82.3777 7.33885 83.4235 8.3615L83.4633 8.29316C83.8847 7.57316 84.5083 7.18021 85.3714 7.09235C86.7874 6.9459 88.2287 7.67323 88.9578 8.89845C89.6862 10.1237 89.6374 11.7394 88.836 12.9182C88.3164 13.6822 87.5393 14.2077 86.9206 14.5795C86.1923 15.0172 82.9249 14.9237 82.2762 14.9009C80.3859 14.8325 78.6321 14.813 76.9164 14.8415C75.5003 14.8659 74.1021 14.9163 72.7591 14.9904C72.328 15.014 68.7837 14.9196 68.748 14.922L68.3647 14.9513Z" fill="#4D4A2F"/>
<path fill-rule="evenodd" clip-rule="evenodd" d="M0.42141 47.0714H8.97547V27.6468H0.42141V47.0714ZM0 47.4936H9.39607V27.2246H0V47.4936Z" fill="#4D4A2F"/>
<defs>
<linearGradient id="paint0_linear" x1="155.567" y1="37.6829" x2="166.24" y2="18.9799" gradientUnits="userSpaceOnUse">
<stop stop-color="#FF9000"/>
<stop offset="1" stop-color="#FF803B"/>
</linearGradient>
<linearGradient id="paint1_linear" x1="167.65" y1="38.4075" x2="181.634" y2="28.3828" gradientUnits="userSpaceOnUse">
<stop stop-color="#FF9000"/>
<stop offset="1" stop-color="#FF803B"/>
</linearGradient>
<linearGradient id="paint2_linear" x1="179.882" y1="36.897" x2="191.996" y2="25.4025" gradientUnits="userSpaceOnUse">
<stop stop-color="#FF9000"/>
<stop offset="1" stop-color="#FF803B"/>
</linearGradient>
<linearGradient id="paint3_linear" x1="193.648" y1="38.4075" x2="207.633" y2="28.3828" gradientUnits="userSpaceOnUse">
<stop stop-color="#FF9000"/>
<stop offset="1" stop-color="#FF803B"/>
</linearGradient>
<linearGradient id="paint4_linear" x1="204.125" y1="37.4821" x2="215.867" y2="30.2576" gradientUnits="userSpaceOnUse">
<stop stop-color="#FF9000"/>
<stop offset="1" stop-color="#FF803B"/>
</linearGradient>
<linearGradient id="paint5_linear" x1="1.58984" y1="45.9888" x2="93.9778" y2="45.9888" gradientUnits="userSpaceOnUse">
<stop stop-color="#FF9000"/>
<stop offset="1" stop-color="#FF803B"/>
</linearGradient>
</defs>
</svg>
