<svg width="22" height="22" viewBox="0 0 22 22" fill="none" xmlns="http://www.w3.org/2000/svg">
<path d="M21.1113 10.1113H0.88868C0.397891 10.1113 0 10.5092 0 11C0 11.4908 0.397891 11.8887 0.88868 11.8887H21.1113C21.6022 11.8887 22 11.4908 22 11C22 10.5092 21.6022 10.1113 21.1113 10.1113Z" fill="#474216"/>
<path d="M21.1113 3.37012H0.88868C0.397891 3.37012 0 3.76801 0 4.2588C0 4.74959 0.397891 5.14748 0.88868 5.14748H21.1113C21.6022 5.14748 22 4.74959 22 4.2588C22 3.76801 21.6022 3.37012 21.1113 3.37012Z" fill="#474216"/>
<path d="M21.1113 16.8525H0.88868C0.397891 16.8525 0 17.2504 0 17.7412C0 18.2321 0.397891 18.6299 0.88868 18.6299H21.1113C21.6022 18.6299 22 18.2321 22 17.7412C22 17.2504 21.6022 16.8525 21.1113 16.8525Z" fill="#474216"/>
</svg>
