<svg width="58" height="17" viewBox="0 0 58 17" fill="none" xmlns="http://www.w3.org/2000/svg">
<path fill-rule="evenodd" clip-rule="evenodd" d="M15.5577 1.58424e-07V0.00723659C15.5506 0.00723659 13.3026 2.38419e-07 12.7031 2.17817C12.1536 4.17542 10.6049 9.68958 10.5621 9.84155H10.1339C10.1339 9.84155 8.5496 4.20437 7.99295 2.17093C7.39348 -0.00723624 5.13833 1.58424e-07 5.13833 1.58424e-07H0V16.5714H5.13833V6.72988H5.35242H5.56652L8.56388 16.5714H12.1322L15.1295 6.73712H15.5577V16.5714H20.696V1.58424e-07H15.5577Z" fill="#4DB45E"/>
<path fill-rule="evenodd" clip-rule="evenodd" d="M34.471 0C34.471 0 32.9577 0.137492 32.2476 1.73674L28.5899 9.84155H28.1595V0H22.9956V16.5714H27.8726C27.8726 16.5714 29.4577 16.4267 30.1677 14.8347L33.7538 6.72988H34.1841V16.5714H39.348V0H34.471Z" fill="#4DB45E"/>
<path fill-rule="evenodd" clip-rule="evenodd" d="M41.6475 7.50977V16.5723H46.8215V11.2798H52.4266C54.8699 11.2798 56.9395 9.70652 57.7084 7.50977H41.6475Z" fill="#4DB45E"/>
<path fill-rule="evenodd" clip-rule="evenodd" d="M52.4129 0H40.9453C41.5183 3.12257 43.8605 5.62922 46.8904 6.44567C47.578 6.63188 48.3014 6.73214 49.0464 6.73214H57.8852C57.964 6.35973 57.9998 5.98015 57.9998 5.58625C57.9998 2.49949 55.5 0 52.4129 0Z" fill="url(#paint0_linear)"/>
<defs>
<linearGradient id="paint0_linear" x1="40.9467" y1="6.73187" x2="57.9998" y2="6.73187" gradientUnits="userSpaceOnUse">
<stop offset="0.3" stop-color="#00B4E6"/>
<stop offset="1" stop-color="#088CCB"/>
</linearGradient>
</defs>
</svg>
