<?xml version="1.0" encoding="UTF-8"?>
<!DOCTYPE svg PUBLIC "-//W3C//DTD SVG 1.1//EN" "http://www.w3.org/Graphics/SVG/1.1/DTD/svg11.dtd"><svg
    xmlns="http://www.w3.org/2000/svg" xmlns:xlink="http://www.w3.org/1999/xlink">
    <defs>
        <linearGradient id="paint0_linear" x1="26.828" y1="9" x2="1.211" y2="20.113" gradientUnits="userSpaceOnUse">
            <stop stop-color="#FF803B" />
            <stop offset=".569" stop-color="#FF9100" />
        </linearGradient>
        <linearGradient id="paint1_linear" x1="26.828" y1="9" x2=".827" y2="19.226" gradientUnits="userSpaceOnUse">
            <stop stop-color="#FF803B" />
            <stop offset="1" stop-color="#FF9100" />
        </linearGradient>

        <linearGradient id="paint0_linear" x1="26.828" y1="9" x2="1.211" y2="20.113" gradientUnits="userSpaceOnUse">
            <stop stop-color="#FF803B" />
            <stop offset=".569" stop-color="#FF9100" />
        </linearGradient>
        <linearGradient id="paint1_linear" x1="26.828" y1="9" x2=".827" y2="19.226" gradientUnits="userSpaceOnUse">
            <stop stop-color="#FF803B" />
            <stop offset="1" stop-color="#FF9100" />
        </linearGradient>

        <linearGradient id="paint0_linear" x1="40.947" y1="6.732" x2="58" y2="6.732" gradientUnits="userSpaceOnUse">
            <stop offset=".3" stop-color="#00B4E6" />
            <stop offset="1" stop-color="#088CCB" />
        </linearGradient>

        <clipPath id="clip0">
            <path fill="#fff" d="M0 0h30v30H0z" />
        </clipPath>
    </defs>
    <symbol id="icon-arrow_big_left" viewBox="0 0 33 64">
        <path vector-effect="non-scaling-stroke" d="M32 63L1 31.517 31.049 1" stroke="currentColor" fill="transparent"
            stroke-linecap="square" />
    </symbol>
    <symbol id="icon-arrow_big_right" viewBox="0 0 33 64">
        <path vector-effect="non-scaling-stroke" d="M1 1l31 31.483L1.951 63" stroke="currentColor" fill="transparent"
            stroke-linecap="square" />
    </symbol>
    <symbol id="icon-black_cat" viewBox="0 0 24 16">
        <path fill-rule="evenodd" clip-rule="evenodd"
            d="M10.966 5.019c0 .017-.023.06-.034.061a.95.95 0 01-.79.47c-.163 0-.336-.047-.433-.17-.094-.11-.106-.267-.09-.41.033-.284.172-.556.386-.755a.632.632 0 01.367-.186c.235-.02.447.162.532.372.054.134.07.278.07.422l.077-.115a.762.762 0 01-.085.31zm-3.628-.397c-.101.121-.274.168-.434.166a.958.958 0 01-.795-.469c-.01-.003-.03-.04-.03-.054a.805.805 0 01-.084-.315l.078.114c0-.146.013-.288.07-.425.085-.208.297-.389.53-.369.14.01.265.092.368.186.212.198.352.47.385.752.018.143.005.3-.088.414zm12.555 9.384c-.167.177-.355.309-.554.343-.242-1.58-.582-2.956-1.648-4.256-1.35-1.642-3.375-2.506-5.547-2.403-.003 0-.776-4.96-.776-6.201-.611.312-.255.186-.908.427-.408.148-.872.025-1.265-.172a1.519 1.519 0 01-.677-.66C8.446.955 7.92.09 8.012 0 3.886 3.912 1.554 9.154 1.376 14.47c-.447.043-.796.043-1.376 1.447.141-.34 4.212.104 4.728.077 1.634-.087 3.269-.142 4.904-.169 1.673-.026 3.347-.013 5.02.029.854.02 1.707.05 2.56.087.425.017.851.035 1.277.059.275.015 3.261-.778 3.933-1.443 4.44-4.385-1.736-7.28-3.307-6.867-.674.179-1.795.487-1.903 1.15 1.402-.16 3.809.587 4.3 1.859.246.643-.326 1.72-.548 2.367-.113.326-.749.596-1.071.94z"
            fill="#4D4A2F" />
    </symbol>
    <symbol id="icon-catalog1" viewBox="0 0 58 41">
        <path fill-rule="evenodd" clip-rule="evenodd"
            d="M1.6 1.6v16.631H.4V.401h16.925v1.2H1.6zm2.428 16.631V3.801h13.297v1.2H5.228v13.23h-1.2z"
            fill="currentColor" />
        <path fill-rule="evenodd" clip-rule="evenodd"
            d="M38.182.4H57.6v28.634H40.5v-1.2h15.9v-9.456h-5.442V1.6H38.182V.4zm13.976 1.2v15.578H56.4V1.6h-4.242z"
            fill="currentColor" />
        <path fill-rule="evenodd" clip-rule="evenodd"
            d="M.4 40.144V18.118h1.2v15.158h15.124V8.5h1.2v31.643H.4zm16.325-5.669H1.6v4.469h15.124v-4.469z"
            fill="currentColor" />
        <path fill-rule="evenodd" clip-rule="evenodd"
            d="M4.027 33.988V18.232h1.2v15.756h-1.2zm2.04.114v-15.87h1.2v15.87h-1.2zm1.815 0v-15.87h1.2v15.87h-1.2z"
            fill="currentColor" />
        <path fill-rule="evenodd" clip-rule="evenodd"
            d="M38.182 1.6H17.324V.4h20.858v1.2zM17.324 3.801h34.009v1.2h-34.01v-1.2zM6.068 5.77h45.628v1.2H7.268v11.262h-1.2V5.77zm1.814 2.014h43.814v1.2H9.082v9.248h-1.2V7.783zm33.522 10.822H17v-1.2h24.404v1.2z"
            fill="currentColor" />
        <path fill-rule="evenodd" clip-rule="evenodd" d="M41.6 8v21h-1.2V8h1.2z" fill="currentColor" />
    </symbol>
    <symbol id="icon-catalog10" viewBox="0 0 39 37">
        <path fill-rule="evenodd" clip-rule="evenodd"
            d="M0 0h38.838v36.5H0V0zm11 35.5h8v-1.75h-8v1.75zm0-2.75h8V30.5h-8v2.25zm0-3.25h8V28h-8v1.5zM10 28v7.5H1V28h9zm1-1h2.5v-1.5H16V25h-4v-9.5h14.97l.029.469c.085 1.354.084 3.497.064 5.287a222.877 222.877 0 01-.056 3.001l-.005.19-.002.066v.001l-.014.486H22.5v.5h3V27H28V12.5H11V27zm0-15.5h8V6.75h-8v4.75zm-1-4.75v4.75H6V6.75h4zm1-1h8V1h-8v4.75zM10 1v4.75H6V1h4zM5 1H1v4.75h4V1zm0 5.75H1v4.75h4V6.75zM1 12.5h9v3H1v-3zm0 4v3h9v-3H1zm9 4V27H1v-6.5h9zM20 1v4.75h8V1h-8zm9 0v4.75h4V1h-4zm5 0v4.75h3.838V1H34zm3.838 5.75H34v4.75h3.838V6.75zm0 5.75H29v3h8.838v-3zm0 4H29v3h8.838v-3zm0 4H29V27h8.838v-6.5zm0 7.5H29v7.5h8.838V28zM28 35.5v-1.75h-8v1.75h8zm-8-2.75h8V30.5h-8v2.25zm0-3.25h8V28h-8v1.5zm9-18h4V6.75h-4v4.75zm-1-4.75h-8v4.75h8V6.75zM24.5 27v-.5h-10v.5h10zm-3-1.5V25H17v.5h4.5zm4.513-1.5a220.955 220.955 0 00.05-2.756c.018-1.592.02-3.433-.037-4.744H13V24h13.013z"
            fill="currentColor" />
        <path d="M6.5 13.75a.75.75 0 11-1.5 0 .75.75 0 011.5 0z" fill="currentColor" />
        <path d="M6.5 17.75a.75.75 0 11-1.5 0 .75.75 0 011.5 0z" fill="currentColor" />
        <path d="M34.5 13.75a.75.75 0 11-1.5 0 .75.75 0 011.5 0z" fill="currentColor" />
        <path d="M34.5 17.75a.75.75 0 11-1.5 0 .75.75 0 011.5 0z" fill="currentColor" />
    </symbol>
    <symbol id="icon-catalog11" viewBox="0 0 47 37">
        <path fill-rule="evenodd" clip-rule="evenodd"
            d="M34.5.5H47v24H34.5V.5zm1 1V8h4.75V1.5H35.5zm5.75 0V8H46V1.5h-4.75zM46 9h-4.75v2.875H42V10.5h1v1.375h.5V11.5h1v.375H46V9zm0 3.875h-4.75v2.875H44V14.5h1v1.25h1v-2.875zm0 3.875h-4.75v6.75H46v-6.75zm-5.75 6.75v-6.75H35.5v6.75h4.75zm-4.75-7.75H38V14.5h1v1.25h.25V13.5h1v-.625H35.5v2.875zm0-3.875h2V10.5h1v1.375h1.75V9H35.5v2.875zM13 27h34v10H13V27zm1 1v8h32v-8H14z"
            fill="currentColor" />
        <path fill-rule="evenodd" clip-rule="evenodd"
            d="M0 0h14v27.5h-1V1H7.5v35h6v1H0V0zm6.5 36V1H1v35h5.5zm13-10.5h10v2h-1v-1h-8v1h-1v-2z"
            fill="currentColor" />
        <path fill-rule="evenodd" clip-rule="evenodd"
            d="M16 14.5h16.5V25h-6v1.5H22V25h-6V14.5zM23 25v.5h2.5V25H23zm-6-9.5V24h14.5v-8.5H17z"
            fill="currentColor" />
        <path d="M9.7 19.6a.6.6 0 11-1.2 0 .6.6 0 011.2 0z" fill="currentColor" />
        <path d="M5.7 19.6a.6.6 0 11-1.2 0 .6.6 0 011.2 0z" fill="currentColor" />
        <path fill-rule="evenodd" clip-rule="evenodd" d="M13.5 32.5v-1H47v1H35.5v4h-1v-4H24v4h-1v-4h-9.5z"
            fill="currentColor" />
        <path fill-rule="evenodd" clip-rule="evenodd" d="M13.5 6.5v-1h18v1h-18z" fill="currentColor" />
        <path fill-rule="evenodd" clip-rule="evenodd" d="M17.5 2.5v3h-1v-3h1zM19 4v1.5h-1V4h1z" fill="currentColor" />
        <path fill-rule="evenodd" clip-rule="evenodd" d="M25 3v2.5h-2v-1h1V3h1zm2 2.5h-1V4h1v1.5z"
            fill="currentColor" />
    </symbol>
    <symbol id="icon-catalog12" viewBox="0 0 33 31">
        <path fill-rule="evenodd" clip-rule="evenodd"
            d="M6 1a.5.5 0 01.5-.5h20a.5.5 0 01.5.5v13.5a.5.5 0 01-.5.5H17v1.005c.803.017 1.817.074 2.696.2.532.077 1.046.183 1.438.335.194.075.391.174.547.31a.86.86 0 01.319.65h10.5a.5.5 0 01.5.5v11a.5.5 0 01-.5.5h-1v1a.5.5 0 01-.5.5H1.5a.5.5 0 01-.5-.5v-1H.5A.5.5 0 010 29V18a.5.5 0 01.5-.5H11a.86.86 0 01.319-.65c.156-.136.353-.235.547-.31.392-.152.905-.258 1.438-.335a23.408 23.408 0 012.696-.2V15H6.5a.5.5 0 01-.5-.5V1zm6.16 16.5l.068-.028c.285-.11.709-.204 1.218-.277C14.456 17.049 15.68 17 16.5 17c.82 0 2.044.05 3.054.195.51.073.933.167 1.218.277l.068.028h-8.68zM2 29.5v.5h28.5v-.5H2zm-1-1h15v-10H1v10zm16-10v10h15v-10H17zM7 1.5V14h19V1.5H7zM2 20a.5.5 0 01.5-.5h12a.5.5 0 01.5.5v7.5a.5.5 0 01-.5.5h-12a.5.5 0 01-.5-.5V20zm1 .5v2.75h11V20.5H3zm11 3.75H3V27h11v-2.75zM18.5 21a.5.5 0 01.5.5V25a.5.5 0 01-1 0v-3.5a.5.5 0 01.5-.5z"
            fill="currentColor" />
    </symbol>
    <symbol id="icon-catalog13" viewBox="0 0 39 37">
        <path fill-rule="evenodd" clip-rule="evenodd"
            d="M0 1A.5.5 0 01.5.5h19a.5.5 0 01.5.5v17h9a.5.5 0 01.5.5v8.25h9a.5.5 0 01.5.5V36a.5.5 0 01-.5.5H.5A.5.5 0 010 36V1zm28.5 25.75V19H20v7.75h8.5zm-8.5 1h8.5v7.75H20v-7.75zm-1-1V19h-8.5v7.75H19zm-8.5 1H19v7.75h-8.5v-7.75zm-1-1V19H1v7.75h8.5zm-8.5 1h8.5v7.75H1v-7.75zM1 18h8.5v-7.75H1V18zm0-8.75h8.5V1.5H1v7.75zm9.5-7.75v7.75H19V1.5h-8.5zm8.5 8.75h-8.5V18H19v-7.75zM29.5 35.5v-7.75H38v7.75h-8.5z"
            fill="currentColor" />
    </symbol>
    <symbol id="icon-catalog14" viewBox="0 0 38 21">
        <path fill-rule="evenodd" clip-rule="evenodd"
            d="M28.468 1.611c-.383.077-.768.484-.768.911v6.9h1.53L29 2.542v-.02c0-.538-.136-.761-.215-.84-.064-.065-.159-.102-.317-.07zm1.962 7.811h2.17a.6.6 0 01.594.685l-.902 6.315H37.1a.6.6 0 01.6.6v2.5a.6.6 0 01-.6.6H.6a.6.6 0 01-.6-.6v-2.5a.6.6 0 01.6-.6h2.9v-13.9a.6.6 0 01.6-.6h4.5a.6.6 0 01.6.6v.9h2.9a.6.6 0 01.6.6v.09l2.664-1.141a.6.6 0 01.781.301l5.5 12a.6.6 0 01-.277.787l-.726.363h4.266l-.902-6.315a.6.6 0 01.594-.685h1.9v-6.9c0-1.072.865-1.914 1.732-2.088.467-.093.997-.005 1.402.399.387.387.564.972.566 1.679l.064 1.91H31.5v-2.4a.6.6 0 111.2 0v3a.6.6 0 01-.6.6h-1.796l.126 3.8zm-4.31 7h4.96l.828-5.8h-6.616l.828 5.8zm-8.162 0l2.355-1.177-5.015-10.94L12.7 5.417v.474l4.786 10.53h.472zm-1.79 0L12.7 8.792v7.63h3.468zm-4.668 0v-11.8H9.2v11.8h2.3zm-3.5 0v-13.3H4.7v13.3H8zm-6.8 1.2v1.3h35.3v-1.3H1.2z"
            fill="currentColor" />
    </symbol>
    <symbol id="icon-catalog15" viewBox="0 0 50 26">
        <path fill-rule="evenodd" clip-rule="evenodd"
            d="M0 1A.5.5 0 01.5.5h49a.5.5 0 01.5.5v2.5a.5.5 0 01-.5.5H37.75v6.5h.75a.5.5 0 01.5.5v14.5a.5.5 0 01-.5.5H36a.5.5 0 01-.5-.5v-12a.5.5 0 011 0V25H38V11.5H12V13h2.5a.5.5 0 010 1v11.5a.5.5 0 01-.5.5h-2.5a.5.5 0 01-.5-.5V11a.5.5 0 01.5-.5h.75V4H.5a.5.5 0 01-.5-.5V1zm13.25 3v6.5h23.5V4h-23.5zm.25 10H12v11h1.5V14zM1 1.5V3h23.5V1.5H1zm24.5 0V3H49V1.5H25.5z"
            fill="currentColor" />
        <path fill-rule="evenodd" clip-rule="evenodd" d="M14.5 14v-1h24v1h-24z" fill="currentColor" />
    </symbol>
    <symbol id="icon-catalog16" viewBox="0 0 39 28">
        <path fill-rule="evenodd" clip-rule="evenodd"
            d="M2.663.59A.6.6 0 013.1.4h2.5a.6.6 0 01.6.6v.9h1.4a.6.6 0 01.596.534c.087.783.097 1.963-.216 2.874-.157.457-.426.934-.896 1.21-.27.16-.569.231-.884.223v3.389l.542.27H7.6a.6.6 0 01.6.6v3.4H11v-1.9a.6.6 0 01.6-.6h.9v-1.3h-.9a.6.6 0 01-.6-.6V7a.6.6 0 01.6-.6h8a.6.6 0 01.6.6v2.4h.9a.6.6 0 01.6.6v2.5a.6.6 0 01-.6.6h-.9v1.3h8.205a4.73 4.73 0 00-2.423-1.311.6.6 0 01.118-1.189h10a.6.6 0 01.19 1.17 9.453 9.453 0 00-1.85.865c-.247.154-.465.31-.649.465H37.6a.6.6 0 01.6.6v3.5a.6.6 0 01-.6.6h-.9V27a.6.6 0 01-.6.6h-2a.6.6 0 01-.59-.495L32.096 19.1H6.103l-1.412 8.005a.6.6 0 01-.591.495h-2a.6.6 0 01-.6-.6v-7.9H.6a.6.6 0 01-.6-.6V15a.6.6 0 01.6-.6h2.9V11a.6.6 0 01.41-.569L5 10.068V7.913c-.35 0-.639-.161-.854-.363-.423-.4-.705-1.092-.909-1.78-.423-1.43-.651-3.383-.736-4.732A.6.6 0 012.663.59zM5 6.703V1.6H3.746c.107 1.232.316 2.727.642 3.83.2.68.412 1.087.581 1.246L5 6.703zm.554 4.445l-.854.285V14.4H7v-2.8h-.4a.6.6 0 01-.268-.063l-.778-.389zM2.7 19.1v7.3h.897l1.288-7.3H2.7zm30.615 0l1.288 7.3h.897v-7.3h-2.185zm-1.098-4.7c.302-.522.804-.957 1.307-1.3H28.75c.545.439.943.914 1.194 1.3h2.272zM19 14.4v-1.3h-6.8v1.3H19zm0-5V7.6h-6.8v1.8H19zm-5.3 1.2v1.3h6.8v-1.3h-6.8zM6.2 5.54a.459.459 0 00.275-.055c.119-.07.256-.237.37-.567.175-.51.222-1.2.198-1.818H6.2v2.44zm-5 10.06v2.3H37v-2.3H1.2z"
            fill="currentColor" />
    </symbol>
    <symbol id="icon-catalog17" viewBox="0 0 50 36">
        <path
            d="M49.266 12.57h-3.965l.002-.05V8.559h1.615a.741.741 0 00.724-.854l-.783-4.697a.734.734 0 00-.724-.613h-3.131a.734.734 0 00-.724.613l-.783 4.697a.741.741 0 00.724.854h1.615v3.963c0 .016 0 .032.002.049h-3.676s-.338-1.08-.338-1.126V3.128c0-1.268-1.032-2.3-2.3-2.3H12.476a2.302 2.302 0 00-2.3 2.3v8.365c0 .034-.338 1.077-.338 1.077H6.162l.002-.05V8.559H7.78a.741.741 0 00.724-.854L7.72 3.007a.734.734 0 00-.724-.613H3.865a.734.734 0 00-.724.613l-.783 4.697a.741.741 0 00.724.854h1.615v3.963c0 .016 0 .032.002.049H.734a.734.734 0 00-.734.734v9.393c0 .405.329.734.734.734h5.27l-.483 1.37a.737.737 0 00-.042.244v6.262c0 .64.8.972 1.253.52l.313-.313v.576c0 .406.328.734.734.734h.832v1.615c0 .405.328.734.733.734h31.312a.734.734 0 00.733-.734v-1.615h.832a.734.734 0 00.734-.734v-.576l.313.312c.453.453 1.253.12 1.253-.519v-6.262a.736.736 0 00-.042-.244l-.484-1.37h5.271a.734.734 0 00.734-.734v-9.393a.734.734 0 00-.734-.734zm-6.178-5.48l.538-3.229h1.888l.538 3.23h-2.965zM11.643 3.128c0-.459.373-.832.832-.832h25.048c.459 0 .832.373.832.832v7.876H37.32c.1-.258.156-.538.156-.831V5.476c0-1.268-1.031-2.3-2.299-2.3h-7.828a2.302 2.302 0 00-2.3 2.3v4.697c0 .293.057.573.157.831h-.41c.1-.258.156-.538.156-.831V5.476c0-1.268-1.032-2.3-2.3-2.3h-7.827a2.302 2.302 0 00-2.3 2.3v4.697c0 .293.056.573.157.831h-1.037V3.128zm22.905 5.838l-2.214-2.214a1.519 1.519 0 00-2.145 0l-2.214 2.214a1.518 1.518 0 00-.096 2.038h-.532a.833.833 0 01-.831-.832V5.476c0-.459.373-.832.831-.832h7.828c.459 0 .832.373.832.832v4.697a.833.833 0 01-.832.831h-.531a1.518 1.518 0 00-.096-2.038zm-1.038 1.107l-2.214 2.214a.05.05 0 01-.07 0l-2.213-2.214a.049.049 0 010-.07l2.213-2.213a.049.049 0 01.07 0l2.214 2.214c.019.019.019.05 0 .069zM22.024 8.966L19.81 6.752a1.519 1.519 0 00-2.145 0l-2.214 2.214a1.518 1.518 0 00-.096 2.038h-.531a.833.833 0 01-.832-.832V5.476c0-.459.373-.832.832-.832h7.828c.458 0 .831.373.831.832v4.697a.833.833 0 01-.831.831h-.532a1.519 1.519 0 00-.096-2.038zm-1.038 1.107l-2.213 2.214a.05.05 0 01-.07 0l-2.214-2.214a.049.049 0 010-.07l2.214-2.213a.049.049 0 01.07 0l2.213 2.214a.049.049 0 010 .069zm-9.557 2.399h5.254c.04 0 .982.853.982.853a1.533 1.533 0 002.145 0l.855-.855 8.672.002.853.853a1.533 1.533 0 002.145 0l.852-.853h5.384l.88 2.495H10.55l.88-2.495zM3.95 7.09l.538-3.229h1.888l.538 3.23H3.949zm-2.481 6.947H9.32l-1.14 3.23H1.469v-3.23zm5.055 7.926H1.468v-3.229h6.195l-1.14 3.23zm33.399 11.742H10.078v-.88h29.844v.88zm1.565-3.474v1.125H8.513v-1.174c0-.042 1.135-1.272 1.135-1.272h30.704l1.155 1.155a.735.735 0 00-.02.166zm1.566-.695l-1.878-1.879a.734.734 0 00-.52-.214H9.346a.734.734 0 00-.52.214l-1.878 1.879v-3.757h28.23a.734.734 0 100-1.468H7.25l2.78-7.876h29.94l2.78 7.876h-5.226a.734.734 0 100 1.468h5.529v3.757zm5.48-7.573h-5.056l-1.14-3.229h6.195v3.23zm0-4.697h-6.714l-1.14-3.229h7.853v3.23z"
            fill="currentColor" />
    </symbol>
    <symbol id="icon-catalog18" viewBox="0 0 38 32">
        <path
            d="M37.125 21.625H36.5V19.75c0-.79-.217-1.567-.625-2.244V2.875a2.5 2.5 0 00-5 0v2.5H7.125v-2.5a2.5 2.5 0 10-5 0v14.631A4.354 4.354 0 001.5 19.75v1.875H.875a.625.625 0 00-.625.625v5a.625.625 0 00.625.625H1.5V31a.625.625 0 00.625.625H4a.634.634 0 00.594-.425L5.7 27.875h26.6l1.106 3.325a.634.634 0 00.594.425h1.875A.624.624 0 0036.5 31v-3.125h.625a.624.624 0 00.625-.625v-5a.624.624 0 00-.625-.625zm-5-18.75a1.25 1.25 0 012.5 0v2.5h-2.5v-2.5zm-28.75 0a1.25 1.25 0 012.5 0v2.5h-2.5v-2.5zm0 3.75h31.25v9.538a4.367 4.367 0 00-2.5-.788V12.25a1.88 1.88 0 00-1.875-1.875H21.5a1.88 1.88 0 00-1.875 1.875v3.125h-1.25V12.25a1.88 1.88 0 00-1.875-1.875H7.75a1.88 1.88 0 00-1.875 1.875v3.125c-.894 0-1.767.275-2.5.788V6.625zm27.5 5.625v3.125h-10V12.25a.624.624 0 01.625-.625h8.75a.624.624 0 01.625.625zm-13.75 0v3.125h-10V12.25a.625.625 0 01.625-.625h8.75a.624.624 0 01.625.625zM2.75 19.75a3.125 3.125 0 013.125-3.125h26.25a3.125 3.125 0 013.125 3.125v1.875H2.75V19.75zm.8 10.625h-.8v-2.5h1.631l-.831 2.5zm31.7 0h-.8l-.831-2.5h1.631v2.5zm1.25-3.75h-35v-3.75h35v3.75z"
            fill="currentColor" />
    </symbol>
    <symbol id="icon-catalog19" viewBox="0 0 53 25">
        <path fill-rule="evenodd" clip-rule="evenodd"
            d="M26.488.426a.6.6 0 01.347 0l25.34 7.698a.6.6 0 01.425.574v6.416a.6.6 0 01-.41.569l-25.981 8.66a.6.6 0 01-.386-.002L.804 15.681a.6.6 0 01-.404-.567V8.698a.6.6 0 01.428-.574L26.488.426zM1.6 9.53l24.23 8.076a.6.6 0 00.373.002L51.4 9.521v5.16l-25.377 8.46L1.6 14.685V9.531zm48.388-.817L26.66 1.627 2.988 8.73l23.035 7.678 23.965-7.693z"
            fill="currentColor" />
        <path
            d="M26.981 5.651c0 .266-.43.481-.962.481-.531 0-.962-.215-.962-.481s.43-.481.962-.481c.531 0 .962.215.962.481z"
            fill="currentColor" />
        <path d="M33.397 7.575c0 .266-.43.481-.962.481s-.962-.215-.962-.481.43-.481.962-.481c.531 0 .962.215.962.48z"
            fill="currentColor" />
        <path
            d="M40.454 9.499c0 .265-.431.48-.962.48-.532 0-.963-.215-.963-.48 0-.266.431-.481.963-.481.531 0 .962.215.962.48z"
            fill="currentColor" />
        <path
            d="M29.546 12.71c0 .265-.431.48-.963.48-.531 0-.962-.215-.962-.48 0-.266.43-.482.962-.482s.963.216.963.482z"
            fill="currentColor" />
        <path d="M23.134 10.784c0 .266-.431.481-.963.481-.531 0-.962-.215-.962-.481s.43-.481.962-.481.963.215.963.48z"
            fill="currentColor" />
        <path
            d="M16.077 8.217c0 .266-.43.482-.962.482s-.963-.216-.963-.482c0-.265.431-.48.963-.48.531 0 .962.215.962.48z"
            fill="currentColor" />
    </symbol>
    <symbol id="icon-catalog2" viewBox="0 0 53 23">
        <path fill-rule="evenodd" clip-rule="evenodd"
            d="M.25 12a.75.75 0 01.75-.75h51a.75.75 0 01.75.75v8a.75.75 0 01-.75.75H1A.75.75 0 01.25 20v-8zm1.5.75v6.5h49.5v-6.5H1.75z"
            fill="currentColor" />
        <path fill-rule="evenodd" clip-rule="evenodd" d="M1 17.955h51v-1.91H1v1.91z" fill="currentColor" />
        <path fill-rule="evenodd" clip-rule="evenodd"
            d="M48.815 19.741h-2.717a.239.239 0 00-.239.24v2.78c0 .132.107.24.24.24h2.716a.239.239 0 00.24-.24v-2.78a.239.239 0 00-.24-.24z"
            fill="currentColor" />
        <path fill-rule="evenodd" clip-rule="evenodd"
            d="M6.606 19.741H3.89a.239.239 0 00-.239.24v2.78c0 .132.107.24.24.24h2.716a.239.239 0 00.24-.24v-2.78a.239.239 0 00-.24-.24z"
            fill="currentColor" />
        <path fill-rule="evenodd" clip-rule="evenodd"
            d="M51 12h-1.676V2.037H4.676V12H3V1.019C3 .456 3.375 0 3.838 0h46.324c.463 0 .838.456.838 1.019V12z"
            fill="currentColor" />
        <path fill-rule="evenodd" clip-rule="evenodd" d="M6.389 12.499h40.738v-.955H6.389v.955z" fill="currentColor" />
    </symbol>
    <symbol id="icon-catalog20" viewBox="0 0 26 40">
        <path
            d="M24.991 17.107h-8.438c-.14-.785-.372-1.5-.689-2.105.536-1.029.838-2.39.838-3.808 0-1.118-.189-2.202-.531-3.115h1.628v4.74a.662.662 0 101.325 0V8.08h.74a.662.662 0 00.565-1.006A49.264 49.264 0 0117.045.408.663.663 0 0016.433 0H10.29a.662.662 0 00-.611.408 49.268 49.268 0 01-3.384 6.665.662.662 0 00.566 1.006h3.692c-.343.913-.532 1.997-.532 3.115 0 1.418.303 2.78.839 3.808-.317.605-.55 1.32-.69 2.105H4.463a.662.662 0 100 1.325h19.867v.959H1.672v-.96h.582a.662.662 0 100-1.324H1.01a.662.662 0 00-.662.662v2.284c0 .366.296.662.662.662h.592v15.066c0 .366.297.662.663.662h.692c.128.41.372.778.714 1.059.195.159.234.464.09.694l-.496.79A.662.662 0 003.825 40H6.64a.662.662 0 00.662-.662v-2.895h11.397v2.895c0 .365.296.662.662.662h2.814a.662.662 0 00.561-1.014l-.495-.79c-.145-.23-.106-.535.09-.695.34-.28.585-.648.713-1.058h.692a.662.662 0 00.663-.662V24.704a.662.662 0 10-1.325 0v2.55H2.927v-6.539h20.147v1.794a.662.662 0 101.325 0v-1.794h.592a.662.662 0 00.663-.662v-2.284a.662.662 0 00-.663-.662zM8.021 6.755a50.574 50.574 0 002.71-5.43h5.262a50.57 50.57 0 002.709 5.43H8.022zm3.498 10.352c.113-.537.28-1.028.49-1.442h2.706c.21.414.377.906.49 1.442h-3.686zm3.196-2.767H12.01c-.424-.833-.664-1.957-.664-3.146 0-1.173.233-2.284.646-3.115h2.74c.414.83.647 1.942.647 3.115 0 1.189-.24 2.312-.663 3.146zM5.977 38.675h-.974c.347-.76.155-1.668-.492-2.198-.013-.01-.025-.022-.037-.034h1.503v2.233zm15.514-2.199c-.648.53-.84 1.44-.493 2.2h-.974v-2.233h1.503c-.012.011-.023.023-.036.033zm1.583-7.897v6.54H2.927v-6.54h20.147z"
            fill="currentColor" />
        <path
            d="M13.65 23.805a.692.692 0 00-.18-.34.615.615 0 00-.103-.081.611.611 0 00-.237-.099.64.64 0 00-.383.038.613.613 0 00-.297.244.618.618 0 00-.099.238.634.634 0 00.038.382.614.614 0 00.143.215.658.658 0 00.835.083.66.66 0 00.283-.68z"
            fill="currentColor" />
        <path
            d="M13.65 31.771a.667.667 0 00-.779-.52.7.7 0 00-.238.099.651.651 0 00-.282.421.635.635 0 00.038.382.619.619 0 00.143.216.672.672 0 00.598.181.662.662 0 00.482-.397.662.662 0 00.038-.382z"
            fill="currentColor" />
    </symbol>
    <symbol id="icon-catalog21" viewBox="0 0 37 35">
        <path d="M16.65 28.246h3.7a.615.615 0 100-1.228h-3.7a.615.615 0 100 1.228z" fill="currentColor" />
        <path d="M16.65 18.42h3.7a.615.615 0 100-1.229h-3.7a.615.615 0 100 1.229z" fill="currentColor" />
        <path
            d="M32.067 2.456v-.56c.204-.266 1.304-.668 1.85-.668h.616a.615.615 0 100-1.228h-9.866a.615.615 0 100 1.228h.616c.546 0 1.646.402 1.85.669v.56H0v30.701h1.85V35h3.7v-1.842h25.9V35h3.7v-1.842H37V2.456h-4.933zm-3.904-1.228h2.874a1.06 1.06 0 00-.204.614v.614h-2.466v-.614a1.06 1.06 0 00-.204-.614zM4.317 33.772H3.083v-.614h1.234v.614zm29.6 0h-1.234v-.614h1.234v.614zm1.85-1.842H1.233v-8.597h34.534v8.597zm0-9.825H1.233V13.51h34.534v8.596zM1.233 12.281V3.684h34.534v8.597H1.233z"
            fill="currentColor" />
        <path d="M20.35 7.37h-3.7a.615.615 0 100 1.227h3.7a.615.615 0 100-1.228z" fill="currentColor" />
    </symbol>
    <symbol id="icon-catalog22" viewBox="0 0 30 27">
        <path fill-rule="evenodd" clip-rule="evenodd"
            d="M.4 1A.6.6 0 011 .4h28a.6.6 0 01.6.6v22.4a.6.6 0 01-.6.6h-1.64v1.64a.6.6 0 01-.6.6h-2.8a.6.6 0 01-.6-.6V24H6.64v1.64a.6.6 0 01-.6.6h-2.8a.6.6 0 01-.6-.6V24H1a.6.6 0 01-.6-.6V1zm3.44 23v1.04h1.6V24h-1.6zM1.6 22.8V4.96h26.8V22.8H1.6zM28.4 3.76V1.6H1.6v2.16h26.8zM24.56 24v1.04h1.6V24h-1.6z"
            fill="currentColor" />
    </symbol>
    <symbol id="icon-catalog23" viewBox="0 0 27 33">
        <path
            d="M13.511 30.93c-6.258 0-11.349-6.475-11.349-14.434 0-7.958 5.091-14.433 11.35-14.433 6.258 0 11.348 6.475 11.348 14.433 0 7.96-5.09 14.434-11.349 14.434zm0-27.837c-5.69 0-10.318 6.013-10.318 13.403 0 7.391 4.629 13.403 10.318 13.403 5.69 0 10.319-6.012 10.319-13.403 0-7.39-4.63-13.403-10.319-13.403z"
            fill="currentColor" />
        <path
            d="M13.513 32.992c-7.395 0-13.411-7.4-13.411-16.496C.102 7.4 6.118 0 13.512 0c7.396 0 13.412 7.4 13.412 16.496 0 9.096-6.016 16.496-13.411 16.496zm0-31.961c-6.826 0-12.38 6.938-12.38 15.465 0 8.527 5.553 15.465 12.38 15.465 6.827 0 12.38-6.938 12.38-15.465 0-8.527-5.554-15.465-12.38-15.465z"
            fill="currentColor" />
        <path
            d="M7.06 5.835a.514.514 0 01-.446-.258L5.565 3.762a.515.515 0 01.893-.516l1.049 1.815a.516.516 0 01-.446.774z"
            fill="currentColor" />
        <path
            d="M21.014 30.004a.516.516 0 01-.447-.258l-1.047-1.814a.515.515 0 11.893-.516l1.047 1.815a.515.515 0 01-.446.773z"
            fill="currentColor" />
        <path
            d="M3.634 11.307a.511.511 0 01-.258-.07L1.561 10.19a.515.515 0 11.515-.893l1.816 1.049a.515.515 0 01-.258.962z"
            fill="currentColor" />
        <path
            d="M25.201 23.759a.511.511 0 01-.257-.07l-1.813-1.045a.515.515 0 11.516-.893l1.813 1.046a.515.515 0 01-.259.962z"
            fill="currentColor" />
        <path
            d="M1.828 23.758a.515.515 0 01-.258-.962l1.804-1.041a.516.516 0 01.516.893l-1.804 1.04a.512.512 0 01-.258.07z"
            fill="currentColor" />
        <path
            d="M23.366 11.324a.515.515 0 01-.259-.962l1.836-1.06a.516.516 0 01.515.892l-1.835 1.06a.513.513 0 01-.257.07z"
            fill="currentColor" />
        <path
            d="M6.011 30.003a.515.515 0 01-.446-.773l1.048-1.818a.514.514 0 11.893.516l-1.048 1.817a.515.515 0 01-.447.258z"
            fill="currentColor" />
        <path
            d="M19.966 5.831a.514.514 0 01-.446-.773l1.04-1.798a.515.515 0 11.892.515l-1.039 1.798a.515.515 0 01-.447.258z"
            fill="currentColor" />
        <path
            d="M1.664 18.052a1.549 1.549 0 01-1.547-1.546c0-.853.694-1.547 1.547-1.547.852 0 1.546.694 1.546 1.547 0 .852-.694 1.546-1.546 1.546zm0-2.062a.516.516 0 100 1.031.516.516 0 000-1.031z"
            fill="currentColor" />
        <path
            d="M25.377 18.052a1.548 1.548 0 01-1.547-1.546c0-.853.694-1.547 1.547-1.547.852 0 1.546.694 1.546 1.547 0 .852-.694 1.546-1.546 1.546zm0-2.062a.516.516 0 100 1.031.516.516 0 000-1.031z"
            fill="currentColor" />
        <path
            d="M13.521 3.1a1.549 1.549 0 01-1.546-1.546c0-.852.694-1.546 1.546-1.546.853 0 1.547.694 1.547 1.546 0 .853-.694 1.547-1.547 1.547zm0-2.061a.516.516 0 100 1.03.516.516 0 000-1.03z"
            fill="currentColor" />
        <path
            d="M13.521 33a1.548 1.548 0 01-1.546-1.547c0-.853.694-1.547 1.546-1.547.853 0 1.547.694 1.547 1.547 0 .852-.694 1.546-1.547 1.546zm0-2.063a.516.516 0 100 1.031.516.516 0 000-1.03z"
            fill="currentColor" />
        <path
            d="M8.873 21.651a.515.515 0 01-.364-.88l9.28-9.28a.515.515 0 11.728.729l-9.28 9.28a.512.512 0 01-.364.151z"
            fill="currentColor" />
        <path
            d="M13.52 21.144a.515.515 0 01-.365-.88l4.125-4.124a.515.515 0 11.729.728l-4.125 4.125a.516.516 0 01-.364.151z"
            fill="currentColor" />
        <path
            d="M9.397 17.021a.515.515 0 01-.365-.88l4.125-4.125a.515.515 0 11.729.73L9.761 16.87a.516.516 0 01-.364.151z"
            fill="currentColor" />
    </symbol>
    <symbol id="icon-catalog24" viewBox="0 0 36 47">
        <path fill-rule="evenodd" clip-rule="evenodd"
            d="M20.85 1a.65.65 0 01.65-.65H35a.65.65 0 01.65.65v44.5a.65.65 0 01-.65.65H1a.65.65 0 01-.65-.65v-9a.65.65 0 01.65-.65h19.85V1zm0 36.15H1.65v7.7h19.2v-7.7zm1.3 7.7h12.2V1.65h-12.2v43.2zM.35 6A.65.65 0 011 5.35h19a.65.65 0 01.65.65v2.5a.65.65 0 01-.65.65h-1.85v1.35a.65.65 0 11-1.3 0V9.15h-3.2v1.197c.252.514.597 1.258.89 1.985.16.397.308.797.418 1.157.103.342.192.708.192 1.01 0 .147.034.472.102.948.067.461.16 1.023.263 1.616.207 1.185.456 2.48.622 3.31a.65.65 0 01.013.127V31a.65.65 0 01-.579.646l-4.5.5a.65.65 0 01-.721-.646v-10c0-1.359.101-3.54.406-5.692.288-2.029.77-4.15 1.594-5.498V9.15h-3.7v1.35a.65.65 0 11-1.3 0V9.15h-3.7v1.35a.65.65 0 11-1.3 0V9.15H1a.65.65 0 01-.65-.65V6zm12.63 5.986c-.415 1.078-.723 2.5-.937 4.005a42.071 42.071 0 00-.393 5.509v9.273l3.2-.355v-9.854c-.168-.839-.411-2.109-.616-3.277-.104-.6-.2-1.175-.268-1.654-.067-.463-.116-.88-.116-1.133 0-.098-.037-.307-.136-.633-.094-.31-.227-.671-.38-1.05a26.07 26.07 0 00-.353-.831zM1.65 6.65v1.2h17.7v-1.2H1.65zM24 20.35a.65.65 0 01.65.65v5a.65.65 0 11-1.3 0v-5a.65.65 0 01.65-.65zM8.35 38.5a.65.65 0 01.65-.65h4.5a.65.65 0 110 1.3H9a.65.65 0 01-.65-.65z"
            fill="currentColor" />
    </symbol>
    <symbol id="icon-catalog25" viewBox="0 0 29 35">
        <path
            d="M21.478 2.036a1.75 1.75 0 00-1.435-.094c-.914.291-1.871.423-2.83.391-3.132 0-4.17-1.936-4.235-2.012A.583.583 0 0012.46 0h-2.333a.583.583 0 00-.513.32c-.07-.034-.963 2.013-4.241 2.013a8.417 8.417 0 01-2.83-.39 1.75 1.75 0 00-1.417.093 1.674 1.674 0 00.105 3.016c1.116.5 2.324.767 3.547.781a12.746 12.746 0 004.766-.822V15.75H6.626a1.75 1.75 0 00-1.75 1.57c-2.917 5.004-2.975 11.24-2.917 13.048.02.631.536 1.132 1.167 1.132a7.585 7.585 0 002.153-.443c.46-.17.764-.607.764-1.097v-1.663c.326.28.513.52.764.689a.986.986 0 001.569-.829c-.058-1.849-.297-6.113-1.283-8.907h2.45V31.5H8.376a1.75 1.75 0 00-1.75 1.75v.583c0 .645.522 1.167 1.167 1.167h7c.644 0 1.166-.522 1.166-1.167v-.583a1.75 1.75 0 00-1.75-1.75h-1.166V13.417h2.916a1.75 1.75 0 100-3.5h-2.916V5.01c1.521.576 3.139.855 4.765.822a8.925 8.925 0 003.565-.781 1.674 1.674 0 00.105-3.016zM4.777 4.666a7.66 7.66 0 01-3.092-.682.502.502 0 01-.291-.583.548.548 0 01.729-.356 9.695 9.695 0 003.249.455 6.353 6.353 0 004.17-1.37v1.603a10.926 10.926 0 01-4.765.934zM3.126 30.334a27.026 27.026 0 011.75-10.336v9.963a6.335 6.335 0 01-1.75.373zm2.917-3.395v-7.105c.81 2.421 1.056 6.026 1.131 7.945a3.22 3.22 0 00-1.131-.84zm.583-8.855a.583.583 0 110-1.166h2.917v1.166H6.626zm8.167 15.167v.583h-7v-.583c0-.322.26-.583.583-.583h5.833c.322 0 .584.26.584.583zm-4.084-1.75V1.167h1.167V31.5h-1.167zm5.25-20.417a.583.583 0 010 1.167h-2.916v-1.167h2.916zM20.9 3.984a7.66 7.66 0 01-3.091.683 10.926 10.926 0 01-4.766-.934V2.13a6.352 6.352 0 004.17 1.371c3.034 0 3.191-.712 3.722-.432a.508.508 0 01-.035.916z"
            fill="currentColor" />
        <path
            d="M27.043 10.5a1.75 1.75 0 00-1.75 1.75v3.063c-1.307.659-1.75 3.5-1.75 4.52a13.42 13.42 0 00.338 3.5 1.167 1.167 0 00-.922 1.167v8.75c0 .967.784 1.75 1.75 1.75h2.334a1.75 1.75 0 001.75-1.75V24.5a1.167 1.167 0 00-.922-1.167c.266-1.146.38-2.323.338-3.5 0-1.05-.443-3.861-1.75-4.526V12.25a.583.583 0 111.167 0v.583a.583.583 0 001.167 0v-.583a1.75 1.75 0 00-1.75-1.75zm.583 14v1.167h-3.5V24.5h3.5zm0 8.75a.583.583 0 01-.583.583h-2.334a.583.583 0 01-.583-.583v-6.417h3.5v6.417zm-.583-13.417c.06 1.18-.07 2.362-.385 3.5h-1.564a11.013 11.013 0 01-.385-3.5c0-1.44.689-3.5 1.167-3.5.478 0 1.167 2.06 1.167 3.5z"
            fill="currentColor" />
    </symbol>
    <symbol id="icon-catalog26" viewBox="0 0 37 35">
        <path d="M16.65 28.246h3.7a.615.615 0 100-1.228h-3.7a.615.615 0 100 1.228z" fill="currentColor" />
        <path d="M16.65 18.42h3.7a.615.615 0 100-1.229h-3.7a.615.615 0 100 1.229z" fill="currentColor" />
        <path
            d="M32.067 2.456v-.56c.204-.266 1.304-.668 1.85-.668h.616a.615.615 0 100-1.228h-9.866a.615.615 0 100 1.228h.616c.546 0 1.646.402 1.85.669v.56H0v30.701h1.85V35h3.7v-1.842h25.9V35h3.7v-1.842H37V2.456h-4.933zm-3.904-1.228h2.874a1.06 1.06 0 00-.204.614v.614h-2.466v-.614a1.06 1.06 0 00-.204-.614zM4.317 33.772H3.083v-.614h1.234v.614zm29.6 0h-1.234v-.614h1.234v.614zm1.85-1.842H1.233v-8.597h34.534v8.597zm0-9.825H1.233V13.51h34.534v8.596zM1.233 12.281V3.684h34.534v8.597H1.233z"
            fill="currentColor" />
        <path d="M20.35 7.37h-3.7a.615.615 0 100 1.227h3.7a.615.615 0 100-1.228z" fill="currentColor" />
    </symbol>
    <symbol id="icon-catalog27" viewBox="0 0 32 33">
        <path fill-rule="evenodd" clip-rule="evenodd"
            d="M0 .5h32v30h-2v2h-4v-2H5.5v2h-4v-2H0V.5zm1 20v9h3.566l-.061-.43a24.12 24.12 0 01-.217-2.238 6.276 6.276 0 01.024-1.016c.018-.135.05-.292.115-.429.06-.123.228-.387.573-.387h2.675l.137.11c.732.585 1.78.897 3.81 1.405.826.207 1.703.638 2.233 1.103.136.119.261.251.358.394.095.14.182.32.195.528a.816.816 0 01-.218.613 1.24 1.24 0 01-.532.321l-.077.026h4.485l-.061-.43a24.128 24.128 0 01-.217-2.238 6.273 6.273 0 01.024-1.016c.018-.135.05-.292.115-.429.06-.123.228-.387.573-.387h2.675l.137.11c.732.585 1.78.897 3.81 1.405.826.207 1.703.638 2.233 1.103.136.119.261.251.358.394.095.14.182.32.195.528a.816.816 0 01-.218.613 1.24 1.24 0 01-.532.321l-.077.026H31v-9H1zm0-1V11h30v8.5h-4.419l.077-.026a1.24 1.24 0 00.532-.321.816.816 0 00.218-.613 1.074 1.074 0 00-.195-.528 2.108 2.108 0 00-.358-.394c-.53-.465-1.407-.896-2.234-1.103-2.03-.508-3.077-.82-3.809-1.405l-.137-.11H18c-.345 0-.514.264-.573.387a1.466 1.466 0 00-.115.43c-.038.28-.039.644-.024 1.015.03.753.132 1.646.217 2.239l.061.429h-4.735l.077-.026a1.24 1.24 0 00.532-.321.816.816 0 00.218-.613 1.074 1.074 0 00-.195-.528 2.108 2.108 0 00-.358-.394c-.53-.465-1.407-.896-2.234-1.103-2.03-.508-3.077-.82-3.809-1.405L6.925 15H4.25c-.345 0-.514.264-.573.387a1.462 1.462 0 00-.115.43c-.037.28-.039.644-.024 1.015.03.753.132 1.646.217 2.239l.061.429H1zM31 10V4H1v6h30zM1 3h30V1.5H1V3zm1.5 27.5v1h2v-1h-2zm24.5 0v1h2v-1h-2zm-14.25-23v-1h7v1h-7zm-8.062 11h7.89a1.446 1.446 0 00-.133-.13c-.386-.34-1.11-.708-1.816-.885-1.871-.468-3.125-.81-4.048-1.485H4.547c-.02.192-.023.465-.01.793.022.545.085 1.181.15 1.707zm13.75 0h7.89a1.446 1.446 0 00-.133-.13c-.386-.34-1.11-.708-1.816-.885-1.871-.468-3.125-.81-4.048-1.485h-2.034c-.02.192-.023.465-.01.793.022.545.085 1.181.15 1.707zm-13 10h7.89a1.446 1.446 0 00-.133-.13c-.386-.34-1.11-.708-1.816-.885-1.871-.468-3.125-.81-4.048-1.485H5.297c-.02.192-.023.465-.01.793.022.545.085 1.181.15 1.707zm13.5 0h7.89a1.446 1.446 0 00-.133-.13c-.386-.34-1.11-.708-1.816-.885-1.871-.468-3.125-.81-4.048-1.485h-2.034c-.02.192-.023.465-.01.793.022.545.085 1.181.15 1.707z"
            fill="currentColor" />
    </symbol>
    <symbol id="icon-catalog28" viewBox="0 0 42 24">
        <path fill-rule="evenodd" clip-rule="evenodd"
            d="M.4.4h3.732v5.623C5.222 4.44 6.661 3.903 7.576 3.9c3.968-.083 10.095-.183 15.586-.212 2.746-.015 5.336-.012 7.419.02 2.065.032 3.674.092 4.427.198 1.31.185 2.233.817 2.86 1.597V.4H41.6v23.2H37.87v-3.5H4.132v3.5H.4V.4zm3.732 18.5h33.737v-1.3H4.132v1.3zm0-2.5h33.737v-3.8H4.132v3.8zm0-5h33.737V9.6H4.132v1.8zm.182-3h33.508a4.792 4.792 0 00-.58-1.697c-.456-.778-1.195-1.438-2.401-1.608-.665-.094-2.191-.155-4.279-.187-2.07-.032-4.65-.035-7.394-.02-5.485.029-11.609.129-15.573.212h-.012c-.643 0-2.406.57-3.269 3.3zm34.755 14H40.4V1.6H39.07v20.8zM1.6 1.6v20.8h1.332V1.6H1.6z"
            fill="currentColor" />
    </symbol>
    <symbol id="icon-catalog29" viewBox="0 0 45 45">
        <path
            d="M44.25 9h-13.5a.75.75 0 00-.75.75V27H13.5v-2.25a.75.75 0 00-.75-.75H10.5v1.5H12V27H9v-3H7.5v3h-3v-1.5H6V24H3.75a.75.75 0 00-.75.75V27H.75a.75.75 0 00-.75.75v16.5c0 .414.336.75.75.75h43.5a.75.75 0 00.75-.75V9.75a.75.75 0 00-.75-.75zM31.5 10.5h12v9h-12v-9zm-1.5 21H16.5v-3H30v3zm-28.5-3H15v3H1.5v-3zm0 4.5H15v10.5H1.5V33zm15 0h6v10.5h-6V33zm7.5 0h6v10.5h-6V33zm7.5 10.5V21h12v22.5h-12z"
            fill="currentColor" />
        <path d="M33 13.5h1.5v3H33v-3z" fill="currentColor" />
        <path d="M33 24h1.5v3H33v-3z" fill="currentColor" />
        <path d="M4.5 30A.75.75 0 113 30a.75.75 0 011.5 0z" fill="currentColor" />
        <path d="M7.5 30A.75.75 0 116 30a.75.75 0 011.5 0z" fill="currentColor" />
        <path d="M10.5 30A.75.75 0 119 30a.75.75 0 011.5 0z" fill="currentColor" />
        <path d="M13.5 30a.75.75 0 11-1.5 0 .75.75 0 011.5 0z" fill="currentColor" />
        <path
            d="M.75 14.25h15a.75.75 0 00.75-.75v-2.25a.75.75 0 00-.22-.53l-3-3a.75.75 0 00-.53-.22H12V.75a.75.75 0 00-.75-.75h-6a.75.75 0 00-.75.75V7.5h-.75a.75.75 0 00-.53.22l-3 3a.75.75 0 00-.22.53v2.25c0 .414.336.75.75.75zM6 1.5h4.5v6H6v-6zM1.5 11.56L4.06 9h8.38L15 11.56v1.19H1.5v-1.19z"
            fill="currentColor" />
        <path
            d="M12.75 34.5h-9a.75.75 0 00-.75.75v6c0 .414.336.75.75.75h9a.75.75 0 00.75-.75v-6a.75.75 0 00-.75-.75zm-.75 6H4.5V36H12v4.5z"
            fill="currentColor" />
        <path d="M21.75 29.25h3v1.5h-3v-1.5z" fill="currentColor" />
        <path d="M19.5 36.75H21v3h-1.5v-3z" fill="currentColor" />
        <path d="M25.5 36.75H27v3h-1.5v-3z" fill="currentColor" />
        <path
            d="M18 18.75h4.5a.75.75 0 00.75-.75v-.75A3 3 0 0021 14.357V0h-1.5v14.357a3 3 0 00-2.25 2.893V18c0 .414.336.75.75.75zm2.25-3a1.5 1.5 0 011.5 1.5h-3a1.5 1.5 0 011.5-1.5z"
            fill="currentColor" />
        <path
            d="M23.25 12.75h4.5a.75.75 0 00.75-.75v-.75a3 3 0 00-2.25-2.893V0h-1.5v8.357a3 3 0 00-2.25 2.893V12c0 .414.336.75.75.75zm2.25-3a1.5 1.5 0 011.5 1.5h-3a1.5 1.5 0 011.5-1.5z"
            fill="currentColor" />
    </symbol>
    <symbol id="icon-catalog3" viewBox="0 0 57 29">
        <path fill-rule="evenodd" clip-rule="evenodd"
            d="M37.053 0H57v29H37.053V0zm1.196 1.215v2.459h12.134V1.215H38.249zm13.33 0v15.777h4.226V1.215H51.58zm4.226 16.993h-5.422V8.793H38.249v18.992h17.556v-9.577zM38.25 7.578h12.134V6.84H38.249v.737zm0-1.952h12.134v-.737H38.249v.737z"
            fill="currentColor" />
        <path fill-rule="evenodd" clip-rule="evenodd"
            d="M0 0h38.249v17.748H0V0zm1.196 1.215v15.318h4.452V1.215H1.196zm5.648 0v15.318h14.507V1.215H6.844zm15.703 0v15.318h14.506V1.215H22.547z"
            fill="currentColor" />
        <path fill-rule="evenodd" clip-rule="evenodd"
            d="M6.472 3.675h31.179V4.89H6.472V3.675zM6.246 5.74h31.405v1.216H6.246V5.74zm0 1.837h31.405v1.216H6.246V7.578z"
            fill="currentColor" />
    </symbol>
    <symbol id="icon-catalog30" viewBox="0 0 50 36">
        <path fill-rule="evenodd" clip-rule="evenodd" d="M47.3 16.15H46V.65h1.3v15.5z" fill="currentColor" />
        <path fill-rule="evenodd" clip-rule="evenodd" d="M1.15 32h16v1.3h-16V32z" fill="currentColor" />
        <path fill-rule="evenodd" clip-rule="evenodd" d="M18.8 16.15h-1.3V.65h1.3v15.5zm-1.65.35v1.3H.65v-1.3h16.5z"
            fill="currentColor" />
        <path fill-rule="evenodd" clip-rule="evenodd"
            d="M6.179 6.028C5.626 6.8 5.3 7.796 5.3 8.65v24H4v-24c0-1.146.424-2.401 1.121-3.378C5.815 4.301 6.863 3.5 8.15 3.5h38.5v1.3H8.15c-.713 0-1.415.45-1.971 1.228z"
            fill="currentColor" />
        <path fill-rule="evenodd" clip-rule="evenodd"
            d="M.017 7.004C1.297 1.453 5.576 0 7.65 0H49.3v16.8H18.42l-.62.62V35.3H0V7.076l.017-.072zM18.15 16.15v-.65H48V1.3H7.65c-1.584 0-5.212 1.136-6.35 5.925V34h15.2V16.88l1.38-1.38h.27v.65z"
            fill="currentColor" />
    </symbol>
    <symbol id="icon-catalog31" viewBox="0 0 48 37">
        <path fill-rule="evenodd" clip-rule="evenodd" d="M42.5 6h1.3v8.5h-1.3V6z" fill="currentColor" />
        <path fill-rule="evenodd" clip-rule="evenodd"
            d="M44.157 6.65h-6.856v7.7h6.81c2.916-2.48 2.076-6.361.047-7.7zm.514-1.211c2.956 1.73 3.987 6.972.075 10.07l-.177.14H36V5.35h8.518l.152.09z"
            fill="currentColor" />
        <path fill-rule="evenodd" clip-rule="evenodd" d="M42.5 22h1.3v8.5h-1.3V22z" fill="currentColor" />
        <path fill-rule="evenodd" clip-rule="evenodd"
            d="M44.157 22.65h-6.856v7.7h6.81c2.916-2.48 2.076-6.362.047-7.7zm.514-1.211c2.956 1.73 3.987 6.972.075 10.07l-.177.14H36v-10.3h8.518l.152.09z"
            fill="currentColor" />
        <path fill-rule="evenodd" clip-rule="evenodd" d="M4.8 6H3.5v8.5h1.3V6z" fill="currentColor" />
        <path fill-rule="evenodd" clip-rule="evenodd"
            d="M3.143 6.65H10v7.7H3.19c-2.916-2.48-2.076-6.361-.047-7.7zM2.63 5.439c-2.957 1.73-3.988 6.972-.075 10.07l.177.14H11.3V5.35H2.782l-.152.09z"
            fill="currentColor" />
        <path fill-rule="evenodd" clip-rule="evenodd" d="M4.8 22H3.5v8.5h1.3V22z" fill="currentColor" />
        <path fill-rule="evenodd" clip-rule="evenodd"
            d="M3.143 22.65H10v7.7H3.19c-2.916-2.48-2.076-6.362-.047-7.7zm-.513-1.211c-2.957 1.73-3.988 6.972-.075 10.07l.177.14H11.3v-10.3H2.782l-.152.09z"
            fill="currentColor" />
        <path fill-rule="evenodd" clip-rule="evenodd" d="M33.35 1.3h-19.4v34.4h19.4V1.3zM12.65 0v37h22V0h-22z"
            fill="currentColor" />
    </symbol>
    <symbol id="icon-catalog32" viewBox="0 0 40 26">
        <path
            d="M39.324.252H.676A.676.676 0 000 .928V4.17c0 .373.302.676.676.676h.958v20.225c0 .373.303.675.676.675h2.588a.676.676 0 00.675-.675v-15.05h28.855v15.05c0 .373.302.675.675.675h2.588a.676.676 0 00.675-.675V4.847h.958A.676.676 0 0040 4.17V.928a.676.676 0 00-.676-.676zM2.986 24.396V4.846h1.236v19.55H2.986zm2.587-19.55h5.273V8.67H5.573V4.847zm6.624 3.824V4.847h15.606V8.67H12.197zm22.23 0h-5.273V4.847h5.273V8.67zm2.588 15.726h-1.236V4.846h1.236v19.55zm1.634-20.9H1.35V1.602H38.65v1.892z"
            fill="currentColor" />
        <path
            d="M20 6.084a.684.684 0 00-.479.197.683.683 0 00-.197.478c0 .178.072.352.197.478a.683.683 0 00.956 0 .68.68 0 00.199-.478.68.68 0 00-.199-.478.683.683 0 00-.477-.197z"
            fill="currentColor" />
    </symbol>
    <symbol id="icon-catalog33" viewBox="0 0 26 35">
        <path
            d="M24.61 19.688h-3.282v-7.11h.547a1.643 1.643 0 001.64-1.64v-8.75a1.643 1.643 0 00-1.64-1.641H3.281a1.642 1.642 0 00-1.64 1.64v8.75a1.643 1.643 0 001.64 1.641h.547v7.11H.547a.547.547 0 00-.547.546v2.188a.547.547 0 00.547.547h.547v10.937a.547.547 0 00.547.547h2.187a.547.547 0 00.547-.547V22.97h16.406v10.937a.547.547 0 00.547.547h2.188a.547.547 0 00.547-.547V22.97h.546a.547.547 0 00.547-.547v-2.188a.547.547 0 00-.547-.547zm-4.376 0h-1.093v-7.11h1.093v7.11zm-13.125 0v-7.11h10.938v7.11H7.109zm-4.375-8.75v-8.75a.547.547 0 01.547-.547h18.594a.547.547 0 01.547.546v8.75a.548.548 0 01-.547.547H3.281a.548.548 0 01-.547-.546zm2.188 1.64h1.094v7.11H4.922v-7.11zM3.282 33.36H2.186V22.97h1.094v10.39zm19.687 0h-1.094V22.97h1.094v10.39zm1.093-11.484H1.095v-1.094h22.968v1.094z"
            fill="currentColor" />
        <path d="M9.297 3.828a.547.547 0 100-1.094H4.375a.547.547 0 100 1.094h4.922z" fill="currentColor" />
        <path d="M10.938 3.828h.478a.547.547 0 100-1.094h-.479a.547.547 0 000 1.094z" fill="currentColor" />
    </symbol>
    <symbol id="icon-catalog34" viewBox="0 0 40 40">
        <path
            d="M19.375 25.625v-3.75h-7.563a3.13 3.13 0 00-3.062-2.5H6.875v-5h1.008l.276 1.659a2.49 2.49 0 002.876 2.057 2.485 2.485 0 001.624-1.013 2.484 2.484 0 00.432-1.864l-1.25-7.498A2.478 2.478 0 008.964 5.66c-.659.11-1.235.47-1.623 1.012a2.482 2.482 0 00-.432 1.865l.349 2.09H6.25a3.129 3.129 0 00-3.125 3.124v8.125h-2.5v17.5h13.75v-13.75h5zM8.358 7.398a1.24 1.24 0 011.016-.523c.615 0 1.133.44 1.234 1.046l1.25 7.498a1.24 1.24 0 01-.216.932 1.248 1.248 0 01-2.25-.522L8.142 8.33a1.24 1.24 0 01.216-.932zM4.375 13.75c0-1.034.841-1.875 1.875-1.875h1.216l.208 1.25h-.799c-.69 0-1.25.56-1.25 1.25v6.25H8.75c.814 0 1.501.524 1.76 1.25H4.375V13.75zm-2.5 9.375h16.25v1.25H1.875v-1.25zm11.25 15H1.875v-12.5h11.25v12.5z"
            fill="currentColor" />
        <path
            d="M39.375 3.75A3.129 3.129 0 0036.25.625H17.5a3.129 3.129 0 00-3.125 3.125v1.875h1.25v15h10.977l-.603 6.978a.623.623 0 01-.617.522H17.5A1.877 1.877 0 0015.625 30c0 1.034.841 1.875 1.875 1.875h.211l-2.307 7.5h3.807l2.308-7.5h1.962l2.308 7.5h3.807l-2.425-7.883a4.398 4.398 0 002.532-3.32l.653-7.547h7.769v-15h1.25V3.75zm-21.25 1.875v5h-1.25v-5h1.25zm8.75 3.75c0-.69.56-1.25 1.25-1.25h5v2.5h-5c-.69 0-1.25-.56-1.25-1.25zm1.25 2.5h8.75v1.25h-20v-1.25h11.25zM30 15.625h-6.25a.626.626 0 01-.625-.625v-.625h7.5V15c0 .344-.28.625-.625.625zm-8.125-5v-5h1.25v5h-1.25zm-1.25 0h-1.25v-5h1.25v5zm-3.75 8.75v-5h5V15c0 1.034.841 1.875 1.875 1.875h3.241a2.028 2.028 0 00-.097.365l-.184 2.135h-9.835zm1.414 18.75h-1.193l1.924-6.25h1.192l-1.923 6.25zm9.615 0H26.71l-1.923-6.25h.594c.199 0 .393-.017.585-.043l1.937 6.293zm.56-10.111a3.115 3.115 0 01-3.082 2.611H17.5a.626.626 0 010-1.25h7.882c.92 0 1.699-.659 1.855-1.616l.897-10.362a.62.62 0 01.72-.513.618.618 0 01.404.253c.097.137.136.302.102.515l-.896 10.362zm2-8.639l.135-1.566a1.854 1.854 0 00-.115-1.005A1.874 1.874 0 0031.875 15v-.625h5v5h-6.411zm6.411-8.75h-2.5v-3.75h-6.25a2.503 2.503 0 00-2.5 2.5c0 .457.133.88.348 1.25h-1.598v-5h12.5v5zm1.25-6.25h-22.5V3.75c0-1.034.841-1.875 1.875-1.875h18.75c1.034 0 1.875.841 1.875 1.875v.625z"
            fill="currentColor" />
        <path d="M3.125 35.625h1.25v1.25h-1.25v-1.25z" fill="currentColor" />
        <path d="M3.125 33.125h1.25v1.25h-1.25v-1.25z" fill="currentColor" />
        <path d="M3.125 30.625h1.25v1.25h-1.25v-1.25z" fill="currentColor" />
        <path d="M5.625 26.875h1.25v1.25h-1.25v-1.25z" fill="currentColor" />
        <path d="M8.125 26.875h1.25v1.25h-1.25v-1.25z" fill="currentColor" />
        <path d="M10.625 26.875h1.25v1.25h-1.25v-1.25z" fill="currentColor" />
    </symbol>
    <symbol id="icon-catalog35" viewBox="0 0 50 22">
        <path
            d="M49.54 14.04l-1.233-.615a7.505 7.505 0 00-7.474-6.964H21.667c-4.467-.013-12.464 0-12.464 0H2.721S1.669 7.985 1.667 9.863v3.262H.833a.833.833 0 00-.833.832v.787A4.027 4.027 0 001.797 18.1l.269.178c.662.443 1.44.678 2.237.677h1.884a4.16 4.16 0 007.626 0H37.02a4.16 4.16 0 007.627 0h4.52c.46 0 .833-.373.833-.833V14.79a.833.833 0 00-.46-.75zM5.832 17.29h-1.53a2.36 2.36 0 01-1.314-.399l-.268-.177a2.361 2.361 0 01-1.054-1.923h5.02a4.12 4.12 0 00-.854 2.498zM10 19.787a2.5 2.5 0 11-.001-4.999 2.5 2.5 0 01.001 5zm4.167-2.499A4.17 4.17 0 0010 13.125H3.333v-1.666h2.5V9.793H2.721V8.127h8.112v2.717c0 .38.258.711.625.806a5.825 5.825 0 014.375 5.64h-1.666zm7.5 0H17.5c0-.851-.148-1.697-.434-2.499h4.6v2.5zm0-4.164h-5.439a7.488 7.488 0 00-3.728-2.898v-2.1h9.167v4.998zm0-6.664H9.203s8.51-.011 12.464 0zm11.666 10.828h-10V14.79h10v2.5zm0-4.164h-10V8.127h10v4.998zm7.5 6.663a2.5 2.5 0 110-4.999 2.5 2.5 0 010 5zm0-6.663a4.17 4.17 0 00-4.166 4.164H35V8.127h5.833c1.525 0 2.989.598 4.076 1.666h-3.242v1.666h4.428a5.78 5.78 0 01.505 1.666h-5.767zm7.5 4.164H45a4.12 4.12 0 00-.855-2.499h3.158l1.03.515v1.984z"
            fill="currentColor" />
        <path fill-rule="evenodd" clip-rule="evenodd"
            d="M2.75 1.616c4.649-.49 14.491.37 24.355 6.476l.79-1.275C17.238.219 6.558-.48 1.89.213l-.64.095v13.146h1.5V1.616z"
            fill="currentColor" />
    </symbol>
    <symbol id="icon-catalog36" viewBox="0 0 45 29">
        <path
            d="M44.961 7.954c-.258-1.804-1.87-3.166-3.765-3.198C39.403 1.966 36.306.25 33 .25H12c-3.306 0-6.403 1.717-8.197 4.506C1.908 4.788.296 6.15.038 7.954-.206 9.672.74 11.352 2.25 12.03v7.721A5.258 5.258 0 006 24.78V28c0 .415.336.75.75.75H9a.752.752 0 00.697-.47L11.008 25h22.984l1.312 3.28c.114.284.39.47.697.47h2.25A.75.75 0 0039 28v-3.22a5.257 5.257 0 003.75-5.03V12.03c1.508-.677 2.455-2.358 2.21-4.075zM12 1.75h21c2.583 0 5.018 1.24 6.572 3.291-.21.08-.413.175-.606.286a.74.74 0 00-.715-.577.744.744 0 00-.334 1.412l-.018.022a4.36 4.36 0 00-.295.36c-.03.04-.06.077-.088.117a4.29 4.29 0 00-.27.453l-.082.17a4.333 4.333 0 00-.17.423c-.014.037-.03.073-.042.112a4.369 4.369 0 00-.154.705 4.34 4.34 0 00-.046.604V13.77a3.712 3.712 0 00-2.25-.77 3.754 3.754 0 00-3.75 3.75c0 .847.293 1.621.77 2.25H30a.75.75 0 00-1.5 0h-3a.75.75 0 00-1.5 0h-3a.75.75 0 00-1.5 0h-3a.75.75 0 00-1.5 0h-1.52a3.71 3.71 0 00.77-2.25 3.754 3.754 0 00-3.75-3.75c-.848 0-1.622.293-2.25.77V9.126c0-.205-.02-.406-.047-.604L8.18 8.37a4.347 4.347 0 00-.13-.552c-.012-.04-.029-.075-.041-.114a4.113 4.113 0 00-.171-.42 4.42 4.42 0 00-.352-.623c-.028-.041-.059-.079-.088-.118a4.53 4.53 0 00-.295-.36c-.006-.006-.01-.015-.018-.021a.744.744 0 00-.334-1.413.74.74 0 00-.715.577 4.473 4.473 0 00-.606-.286C6.981 2.99 9.416 1.75 12 1.75zm20.25 15c0-1.24 1.01-2.25 2.25-2.25s2.25 1.01 2.25 2.25c0 1.241-1.01 2.25-2.25 2.25a2.252 2.252 0 01-2.25-2.25zm-24 0c0-1.24 1.01-2.25 2.25-2.25s2.25 1.01 2.25 2.25c0 1.241-1.01 2.25-2.25 2.25a2.252 2.252 0 01-2.25-2.25zm.243 10.5h-.993V25H9.39l-.9 2.25zm29.007 0h-.992l-.9-2.25h1.892v2.25zm4.377-16.5H40.5a.75.75 0 100 1.5h.75v7.5a3.754 3.754 0 01-3.75 3.75h-30a3.754 3.754 0 01-3.75-3.75v-7.5h.75a.75.75 0 100-1.5H3.121c-1.064-.313-1.764-1.43-1.6-2.583.156-1.093 1.165-1.917 2.348-1.917.08 0 .156.018.234.024.01.002.019.006.029.006a2.915 2.915 0 011.05.303c.142.072.276.156.403.25.035.026.067.055.1.082.099.079.192.161.278.251.053.057.1.12.149.18.059.074.119.146.17.224.058.088.103.183.15.276.034.066.071.127.099.195.047.116.08.239.112.362.015.055.036.106.048.163.036.182.057.37.057.563V19.75c0 .414.335.75.75.75H37.499a.75.75 0 00.75-.75V9.128c0-.193.02-.381.057-.563.012-.057.033-.108.047-.164.033-.123.065-.245.113-.361.028-.069.066-.13.099-.196.047-.094.093-.188.15-.275.052-.08.112-.151.171-.225.049-.06.095-.123.148-.18.086-.09.18-.171.276-.25.034-.028.066-.057.101-.083.127-.093.262-.178.404-.25l.019-.01a2.904 2.904 0 011.032-.292c.01 0 .019-.005.029-.006.078-.006.153-.024.233-.024 1.183 0 2.193.824 2.348 1.917.164 1.153-.536 2.27-1.6 2.583z"
            fill="currentColor" />
        <path d="M8.998 4a.75.75 0 100-1.5.75.75 0 000 1.5z" fill="currentColor" />
        <path d="M13.498 4a.75.75 0 100-1.5.75.75 0 000 1.5z" fill="currentColor" />
        <path d="M8.998 8.5a.75.75 0 100-1.5.75.75 0 000 1.5z" fill="currentColor" />
        <path d="M13.498 8.5a.75.75 0 100-1.5.75.75 0 000 1.5z" fill="currentColor" />
        <path d="M11.248 6.25a.75.75 0 100-1.5.75.75 0 000 1.5z" fill="currentColor" />
        <path d="M15.748 6.25a.75.75 0 100-1.5.75.75 0 000 1.5z" fill="currentColor" />
        <path d="M11.248 10.75a.75.75 0 100-1.5.75.75 0 000 1.5z" fill="currentColor" />
        <path d="M15.748 10.75a.75.75 0 100-1.5.75.75 0 000 1.5z" fill="currentColor" />
        <path d="M17.998 4a.75.75 0 100-1.5.75.75 0 000 1.5z" fill="currentColor" />
        <path d="M22.498 4a.75.75 0 100-1.5.75.75 0 000 1.5z" fill="currentColor" />
        <path d="M17.998 8.5a.75.75 0 100-1.5.75.75 0 000 1.5z" fill="currentColor" />
        <path d="M22.498 8.5a.75.75 0 100-1.5.75.75 0 000 1.5z" fill="currentColor" />
        <path d="M20.248 6.25a.75.75 0 100-1.5.75.75 0 000 1.5z" fill="currentColor" />
        <path d="M24.748 6.25a.75.75 0 100-1.5.75.75 0 000 1.5z" fill="currentColor" />
        <path d="M20.248 10.75a.75.75 0 100-1.5.75.75 0 000 1.5z" fill="currentColor" />
        <path d="M24.748 10.75a.75.75 0 100-1.5.75.75 0 000 1.5z" fill="currentColor" />
        <path d="M26.998 4a.75.75 0 100-1.5.75.75 0 000 1.5z" fill="currentColor" />
        <path d="M31.5 4a.75.75 0 100-1.5.75.75 0 000 1.5z" fill="currentColor" />
        <path d="M26.998 8.5a.75.75 0 100-1.5.75.75 0 000 1.5z" fill="currentColor" />
        <path d="M31.5 8.5a.75.75 0 100-1.5.75.75 0 000 1.5z" fill="currentColor" />
        <path d="M29.25 6.25a.75.75 0 100-1.5.75.75 0 000 1.5z" fill="currentColor" />
        <path d="M33.75 6.25a.75.75 0 100-1.5.75.75 0 000 1.5z" fill="currentColor" />
        <path d="M29.25 10.75a.75.75 0 100-1.5.75.75 0 000 1.5z" fill="currentColor" />
        <path d="M33.75 10.75a.75.75 0 100-1.5.75.75 0 000 1.5z" fill="currentColor" />
        <path d="M36 4a.75.75 0 100-1.5.75.75 0 000 1.5z" fill="currentColor" />
        <path d="M36 8.5A.75.75 0 1036 7a.75.75 0 000 1.5z" fill="currentColor" />
        <path d="M8.998 13a.75.75 0 100-1.5.75.75 0 000 1.5z" fill="currentColor" />
        <path d="M13.498 13a.75.75 0 100-1.5.75.75 0 000 1.5z" fill="currentColor" />
        <path d="M15.748 15.25a.75.75 0 100-1.5.75.75 0 000 1.5z" fill="currentColor" />
        <path d="M17.998 13a.75.75 0 100-1.5.75.75 0 000 1.5z" fill="currentColor" />
        <path d="M22.498 13a.75.75 0 100-1.5.75.75 0 000 1.5z" fill="currentColor" />
        <path d="M17.998 17.5a.75.75 0 100-1.5.75.75 0 000 1.5z" fill="currentColor" />
        <path d="M22.498 17.5a.75.75 0 100-1.5.75.75 0 000 1.5z" fill="currentColor" />
        <path d="M20.248 15.25a.75.75 0 100-1.5.75.75 0 000 1.5z" fill="currentColor" />
        <path d="M24.748 15.25a.75.75 0 100-1.5.75.75 0 000 1.5z" fill="currentColor" />
        <path d="M26.998 13a.75.75 0 100-1.5.75.75 0 000 1.5z" fill="currentColor" />
        <path d="M31.5 13a.75.75 0 100-1.5.75.75 0 000 1.5z" fill="currentColor" />
        <path d="M26.998 17.5a.75.75 0 100-1.5.75.75 0 000 1.5z" fill="currentColor" />
        <path d="M29.25 15.25a.75.75 0 100-1.5.75.75 0 000 1.5z" fill="currentColor" />
        <path d="M36 13a.75.75 0 100-1.5.75.75 0 000 1.5z" fill="currentColor" />
    </symbol>
    <symbol id="icon-catalog37" viewBox="0 0 40 40">
        <path
            d="M31.283 23.327h1.33c.4 0 .666-.266.666-.665 0-.4-.266-.666-.665-.666h-1.331c-.4 0-.666.266-.666.666 0 .399.266.665.666.665z"
            fill="currentColor" />
        <path
            d="M31.283 29.983h1.33c.4 0 .666-.266.666-.665 0-.4-.266-.666-.665-.666h-1.331c-.4 0-.666.267-.666.666 0 .4.266.665.666.665z"
            fill="currentColor" />
        <path
            d="M31.283 36.64h1.33c.4 0 .666-.267.666-.666 0-.4-.266-.665-.665-.665h-1.331c-.4 0-.666.266-.666.665 0 .4.266.666.666.666z"
            fill="currentColor" />
        <path
            d="M39.268 15.94H35.94V9.351c0-.4-.266-.665-.665-.665h-1.997V6.689c0-.4-.266-.666-.666-.666H29.95c-.4 0-.665.267-.665.666v.665h-1.997c-.4 0-.666.267-.666.666v7.92h-8.718v-.4c0-.864-.666-1.53-1.531-1.53h-.4v-.666h6.656c.732 0 1.331-.599 1.331-1.33V1.363c0-.732-.599-1.33-1.331-1.33H5.324c-.732 0-1.33.598-1.33 1.33V12.013c0 .732.598 1.331 1.33 1.331h6.656v.666h-.466c-.865 0-1.53.665-1.53 1.53v.4H.731c-.4 0-.732.333-.732.732v2.596c0 .4.333.732.732.732h.6v19.301c0 .4.265.666.665.666h2.662c.4 0 .665-.266.665-.666V20h19.967V39.301c0 .4.266.666.666.666h11.98c.4 0 .665-.267.665-.666V20h.6c.399 0 .731-.333.798-.732v-2.596c0-.4-.333-.732-.732-.732zm-4.659-5.923v5.923h-1.331v-5.923h1.331zm-3.993-2.663h1.33v8.587h-1.33V7.353zm-2.663 1.332h1.332v7.254h-1.332V8.686zM22.63 1.364v7.987H5.324V1.364H22.63zM5.324 10.682H22.63v1.331H5.324v-1.33zm7.987 2.662h1.331v.666h-1.33v-.666zm-1.93 2.197c0-.133.067-.2.2-.2h4.858c.133 0 .2.067.2.2v.4H11.38v-.4zM3.993 38.636h-1.33V20h1.33v18.636zm33.278-6.656H26.622v-5.324h10.65v5.324zm0 6.656H26.622V33.31h10.65v5.325zm0-13.312H26.622V20h10.65v5.324zm1.331-6.655H1.331v-1.331H38.602v1.33z"
            fill="currentColor" />
        <path
            d="M6.656 4.692c.2 0 .333-.067.466-.2l1.33-1.331a.643.643 0 000-.932.643.643 0 00-.931 0L6.19 3.56a.643.643 0 000 .932c.133.133.266.2.466.2z"
            fill="currentColor" />
        <path
            d="M6.854 7.155c.133.133.266.2.466.2s.333-.067.466-.2l3.328-3.328a.643.643 0 000-.932.643.643 0 00-.932 0L6.854 6.223a.643.643 0 000 .932z"
            fill="currentColor" />
    </symbol>
    <symbol id="icon-catalog38" viewBox="0 0 32 40">
        <path
            d="M29.992 13.328h-2.665a2 2 0 00-.667.12V7.997A8.162 8.162 0 0018.358.001h-5.024a7.91 7.91 0 00-7.996 7.996v5.45a2 2 0 00-.666-.12H2.007a1.999 1.999 0 100 3.999h.666v4.097a1.906 1.906 0 001.9 1.9h.859a2.665 2.665 0 002.572 1.998h4.664v2c0 .367.298.665.666.665H14v2a.126.126 0 01-.106.126l-5.517.92a3.332 3.332 0 00-2.719 2.631l-.266 1.333a2.665 2.665 0 103.89 1.806l.554-2.219 4.131-.52v1.5a2.665 2.665 0 103.998 0V34.07l4.131.52.567 2.218a2.628 2.628 0 000 .507 2.665 2.665 0 103.944-2.325l-.266-1.333a3.332 3.332 0 00-2.719-2.632l-5.517-.92a.127.127 0 01-.107-.12v-1.998h.667a.666.666 0 00.666-.667v-1.999h4.664a2.665 2.665 0 002.572-1.999h.86a1.906 1.906 0 001.899-1.899v-4.097h.666a1.999 1.999 0 000-3.998zM5.338 21.99h-.766a.566.566 0 01-.566-.567v-4.097h.666a2 2 0 00.666-.12v4.784zm-.666-5.997H2.007a.666.666 0 010-1.333h2.665a.666.666 0 010 1.333zm1.999 22.655a1.333 1.333 0 110-2.666 1.333 1.333 0 010 2.666zm9.328 0a1.333 1.333 0 110-2.666 1.333 1.333 0 010 2.666zm10.661-1.333a1.333 1.333 0 11-2.665 0 1.333 1.333 0 012.665 0zm-3.258-4.977c.82.136 1.47.764 1.633 1.579l.146.733a2.664 2.664 0 00-1.512.586l-.34-1.413a.666.666 0 00-.567-.5l-5.33-.666a.666.666 0 00-.52.16.666.666 0 00-.246.5v1.426a2.426 2.426 0 00-1.333 0v-1.426a.666.666 0 00-.746-.66l-5.33.667a.666.666 0 00-.567.5l-.36 1.425a2.665 2.665 0 00-1.512-.6l.146-.746a2 2 0 011.633-1.579l5.517-.92a1.453 1.453 0 001.22-1.419v-1.998h1.332v1.998c0 .712.517 1.319 1.22 1.433l5.516.92zm-5.404-5.684H14V25.32h3.998v1.333zm5.517-2.665H8.483a1.799 1.799 0 01-1.812-1.573 1.333 1.333 0 011.333-1.093h15.991a1.333 1.333 0 011.333 1.093 1.8 1.8 0 01-1.813 1.573zm1.813-3.625a2.605 2.605 0 00-1.333-.373H8.004c-.47.002-.93.13-1.333.373V7.997a6.59 6.59 0 016.663-6.663h5.024a6.83 6.83 0 016.97 6.663v12.367zm2.665 1.06a.566.566 0 01-.566.566h-.767v-4.784a2 2 0 00.667.12h.666v4.097zm1.999-5.431h-2.665a.666.666 0 010-1.333h2.665a.666.666 0 110 1.333z"
            fill="currentColor" />
    </symbol>
    <symbol id="icon-catalog39" viewBox="0 0 40 37">
        <path fill-rule="evenodd" clip-rule="evenodd"
            d="M0 1A.6.6 0 01.6.4h19a.6.6 0 01.6.6v16.9h8.9a.6.6 0 01.6.6v8.15h8.9a.6.6 0 01.6.6V36a.6.6 0 01-.6.6H.6A.6.6 0 010 36V1zm28.5 25.65V19.1h-8.3v7.55h8.3zm-8.3 1.2h8.3v7.55h-8.3v-7.55zm-1.2-1.2V19.1h-8.3v7.55H19zm-8.3 1.2H19v7.55h-8.3v-7.55zm-1.2-1.2V19.1H1.2v7.55h8.3zm-8.3 1.2h8.3v7.55H1.2v-7.55zm0-9.95h8.3v-7.55H1.2v7.55zm0-8.75h8.3V1.6H1.2v7.55zm9.5-7.55v7.55H19V1.6h-8.3zm8.3 8.75h-8.3v7.55H19v-7.55zM29.7 35.4v-7.55H38v7.55h-8.3z"
            fill="currentColor" />
    </symbol>
    <symbol id="icon-catalog4" viewBox="0 0 36 26">
        <path fill-rule="evenodd" clip-rule="evenodd"
            d="M1.347 22.829h32.515V11.49h-5.45v5.414a.678.678 0 01-.674.683H7.47a.678.678 0 01-.673-.683V11.49h-5.45V22.83zm33.187 1.365H.674A.678.678 0 010 23.512V10.808c0-.378.302-.683.674-.683H7.47c.373 0 .674.305.674.683v5.413h18.92v-5.413c0-.378.302-.683.674-.683h6.796c.373 0 .675.305.675.683v12.704a.678.678 0 01-.675.682z"
            fill="currentColor" />
        <path fill-rule="evenodd" clip-rule="evenodd"
            d="M3.282 23.417a.193.193 0 00-.192.195v2.193c0 .108.085.195.192.195H5.89a.193.193 0 00.192-.195v-2.193a.193.193 0 00-.192-.195H3.28z"
            fill="currentColor" />
        <path fill-rule="evenodd" clip-rule="evenodd"
            d="M29.32 23.417a.193.193 0 00-.193.195v2.193c0 .108.086.195.193.195h2.608a.194.194 0 00.193-.195v-2.193a.193.193 0 00-.193-.195H29.32z"
            fill="currentColor" />
        <path fill-rule="evenodd" clip-rule="evenodd"
            d="M31.32 11.49h-1.348V1.42H5.238v10.07H3.89V.737c0-.377.301-.682.673-.682h26.082c.372 0 .673.305.673.682V11.49z"
            fill="currentColor" />
        <path fill-rule="evenodd" clip-rule="evenodd" d="M7.47 13.92h20.268v-.78H7.47v.78z" fill="currentColor" />
    </symbol>
    <symbol id="icon-catalog40" viewBox="0 0 38 21">
        <path fill-rule="evenodd" clip-rule="evenodd"
            d="M28.468 1.611c-.383.077-.768.484-.768.911v6.9h1.53L29 2.542v-.02c0-.538-.136-.761-.215-.84-.064-.065-.159-.102-.317-.07zm1.962 7.811h2.17a.6.6 0 01.594.685l-.902 6.315H37.1a.6.6 0 01.6.6v2.5a.6.6 0 01-.6.6H.6a.6.6 0 01-.6-.6v-2.5a.6.6 0 01.6-.6h2.9v-13.9a.6.6 0 01.6-.6h4.5a.6.6 0 01.6.6v.9h2.9a.6.6 0 01.6.6v.09l2.664-1.141a.6.6 0 01.781.301l5.5 12a.6.6 0 01-.277.787l-.726.363h4.266l-.902-6.315a.6.6 0 01.594-.685h1.9v-6.9c0-1.072.865-1.914 1.732-2.088.467-.093.997-.005 1.402.399.387.387.564.972.566 1.679l.064 1.91H31.5v-2.4a.6.6 0 111.2 0v3a.6.6 0 01-.6.6h-1.796l.126 3.8zm-4.31 7h4.96l.828-5.8h-6.616l.828 5.8zm-8.162 0l2.355-1.177-5.015-10.94L12.7 5.417v.474l4.786 10.53h.472zm-1.79 0L12.7 8.792v7.63h3.468zm-4.668 0v-11.8H9.2v11.8h2.3zm-3.5 0v-13.3H4.7v13.3H8zm-6.8 1.2v1.3h35.3v-1.3H1.2z"
            fill="currentColor" />
    </symbol>
    <symbol id="icon-catalog41" viewBox="0 0 45 23">
        <path fill-rule="evenodd" clip-rule="evenodd"
            d="M1.672 19.075h41.362v-8.698h-3.07v4.574a.836.836 0 01-.836.836H5.578a.836.836 0 01-.836-.836v-4.574h-3.07v8.698zm42.198 1.672H.836A.836.836 0 010 19.911V9.541c0-.462.374-.836.836-.836h4.742c.462 0 .836.374.836.836v4.574h31.878V9.541c0-.462.374-.836.836-.836h4.742c.462 0 .836.374.836.836v10.37a.836.836 0 01-.836.836z"
            fill="currentColor" />
        <path fill-rule="evenodd" clip-rule="evenodd"
            d="M39.956 19.74h-2.717a.239.239 0 00-.239.24v2.78c0 .132.107.24.239.24h2.717a.239.239 0 00.239-.24v-2.78a.239.239 0 00-.239-.24z"
            fill="currentColor" />
        <path fill-rule="evenodd" clip-rule="evenodd"
            d="M6.956 19.74H4.239a.239.239 0 00-.239.24v2.78c0 .132.107.24.239.24h2.717a.239.239 0 00.239-.24v-2.78a.239.239 0 00-.239-.24z"
            fill="currentColor" />
        <path fill-rule="evenodd" clip-rule="evenodd"
            d="M41.896 9.848h-1.672V1.672H3.672v8.176H2V.836C2 .374 2.374 0 2.836 0H41.06c.462 0 .836.374.836.836v9.012z"
            fill="currentColor" />
        <mask id="a" maskUnits="userSpaceOnUse" x="0" y="0" width="45" height="23">
            <path fill-rule="evenodd" clip-rule="evenodd" d="M0 23h44.706V0H0v23z" fill="#fff" />
        </mask>
        <g mask="url(#a)">
            <path fill-rule="evenodd" clip-rule="evenodd" d="M6 12.5h32.738v-.955H6v.955z" fill="currentColor" />
        </g>
    </symbol>
    <symbol id="icon-catalog42" viewBox="0 0 36 26">
        <path fill-rule="evenodd" clip-rule="evenodd"
            d="M1.347 22.774h32.515V11.436h-5.45v5.413a.678.678 0 01-.674.683H7.47a.678.678 0 01-.673-.683v-5.413h-5.45v11.338zm33.187 1.366H.674A.678.678 0 010 23.457V10.753c0-.378.302-.683.674-.683H7.47c.373 0 .674.305.674.683v5.414h18.92v-5.414c0-.378.302-.683.674-.683h6.796c.373 0 .675.305.675.683v12.704a.678.678 0 01-.675.683z"
            fill="currentColor" />
        <path fill-rule="evenodd" clip-rule="evenodd"
            d="M3.282 23.361a.193.193 0 00-.192.195v2.193c0 .109.085.196.192.196H5.89a.193.193 0 00.192-.196v-2.193a.193.193 0 00-.192-.195H3.28z"
            fill="currentColor" />
        <path fill-rule="evenodd" clip-rule="evenodd"
            d="M29.32 23.361a.193.193 0 00-.193.195v2.193c0 .109.086.196.193.196h2.608a.194.194 0 00.193-.196v-2.193a.194.194 0 00-.193-.195H29.32z"
            fill="currentColor" />
        <path fill-rule="evenodd" clip-rule="evenodd"
            d="M31.32 11.436h-1.348V1.366H5.238v10.07H3.89V.682c0-.377.301-.682.673-.682h26.082c.372 0 .673.305.673.682v10.754z"
            fill="currentColor" />
        <path fill-rule="evenodd" clip-rule="evenodd" d="M7.47 13.864h20.268v-.78H7.47v.78z" fill="currentColor" />
    </symbol>
    <symbol id="icon-catalog5" viewBox="0 0 34 19">
        <path fill-rule="evenodd" clip-rule="evenodd"
            d="M1.25 12a.75.75 0 01.75-.75h30a.75.75 0 01.75.75v4a.75.75 0 01-.75.75H2a.75.75 0 01-.75-.75v-4zm1.5.75v2.5h28.5v-2.5H2.75z"
            fill="currentColor" />
        <path fill-rule="evenodd" clip-rule="evenodd"
            d="M4.192 16a.193.193 0 00-.192.195v2.193c0 .108.086.195.192.195h2.609a.193.193 0 00.192-.195v-2.193A.193.193 0 006.8 16H4.192z"
            fill="currentColor" />
        <path fill-rule="evenodd" clip-rule="evenodd"
            d="M28.192 16a.193.193 0 00-.192.195v2.193c0 .108.086.195.192.195h2.609a.193.193 0 00.192-.195v-2.193A.193.193 0 0030.8 16h-2.609z"
            fill="currentColor" />
        <path fill-rule="evenodd" clip-rule="evenodd"
            d="M.25 1A.75.75 0 011 .25h32a.75.75 0 01.75.75v11a.75.75 0 01-.75.75H1A.75.75 0 01.25 12V1zm1.5.75v9.5h30.5v-9.5H1.75z"
            fill="currentColor" />
        <path fill-rule="evenodd" clip-rule="evenodd" d="M1 8.796h31.267v-.78H1v.78z" fill="currentColor" />
    </symbol>
    <symbol id="icon-catalog6" viewBox="0 0 50 37">
        <path fill-rule="evenodd" clip-rule="evenodd"
            d="M16.325 4.466l9.37 30.65 6.726-2.056-.695-2.275-3.537 1.08a.662.662 0 01-.836-.42l-7.6-24.862a.663.663 0 01.456-.817l3.537-1.081-.695-2.275-6.726 2.056zm-1.482-.224a.662.662 0 01.457-.817L23.318.973c.358-.11.732.08.836.422l1.075 3.514a.662.662 0 01-.457.817l-3.537 1.081 7.222 23.622 3.537-1.081c.357-.11.73.08.835.422l1.075 3.514a.662.662 0 01-.457.817l-8.019 2.451a.662.662 0 01-.836-.422l-9.75-31.888z"
            fill="currentColor" />
        <path fill-rule="evenodd" clip-rule="evenodd"
            d="M46.462 26.552h-2.615a.231.231 0 00-.23.233v2.707c0 .129.103.233.23.233h2.615c.127 0 .23-.104.23-.233v-2.707a.231.231 0 00-.23-.233z"
            fill="currentColor" />
        <path fill-rule="evenodd" clip-rule="evenodd"
            d="M8.934 10H6.32a.231.231 0 00-.23.233v2.707c0 .13.103.233.23.233h2.614c.127 0 .23-.104.23-.232v-2.708a.231.231 0 00-.23-.233z"
            fill="currentColor" />
        <path fill-rule="evenodd" clip-rule="evenodd"
            d="M49.978 16.668h-1.609v-5.04H30.783v5.04h-1.61v-5.854c0-.45.36-.814.805-.814h19.195c.445 0 .805.364.805.814v5.854z"
            fill="currentColor" />
        <path fill-rule="evenodd" clip-rule="evenodd" d="M8.977 22.636h31.502v-.93H8.977v.93z" fill="currentColor" />
    </symbol>
    <symbol id="icon-catalog7" viewBox="0 0 26 36">
        <path
            d="M24.561 0H.528A.528.528 0 000 .528V33.43a.528.528 0 00.528.528h2.358l.435 1.437a.529.529 0 00.506.375h2.662a.528.528 0 00.528-.529v-1.283h11.054v1.283a.528.528 0 00.529.529h2.662a.529.529 0 00.505-.375l.437-1.437h2.358a.528.528 0 00.528-.528V.53A.528.528 0 0024.56 0zm-.528 7.788h-10.96V1.056h10.96v6.732zM1.056 1.056h10.96v6.732H1.056V1.056zm0 7.788h10.96v24.057H1.056V8.844zm4.905 25.868H4.22l-.229-.755h1.971v.755zm14.91 0h-1.743v-.755h1.97l-.228.755zm-7.798-1.811V8.844h10.96v24.057h-10.96z"
            fill="currentColor" />
        <path d="M9.825 2.988a.529.529 0 00-.528.529v1.81a.528.528 0 101.056 0v-1.81a.528.528 0 00-.528-.529z"
            fill="currentColor" />
        <path d="M15.263 5.856a.528.528 0 00.528-.528V3.517a.528.528 0 10-1.057 0v1.81a.528.528 0 00.529.529z"
            fill="currentColor" />
        <path d="M9.825 22.722a.528.528 0 00.528-.528V17.2a.528.528 0 10-1.056 0v4.994a.528.528 0 00.528.528z"
            fill="currentColor" />
        <path d="M15.263 16.672a.528.528 0 00-.529.528v4.994a.528.528 0 101.057 0V17.2a.528.528 0 00-.528-.528z"
            fill="currentColor" />
    </symbol>
    <symbol id="icon-catalog8" viewBox="0 0 46 46">
        <path
            d="M24.473 5.167H.526A.526.526 0 000 5.693v32.783a.526.526 0 00.526.527h2.35l.433 1.43a.526.526 0 00.504.374h2.653a.526.526 0 00.526-.526v-1.278h11.015v1.278a.526.526 0 00.526.526h2.653a.526.526 0 00.503-.373l.435-1.431h2.35a.526.526 0 00.526-.526V5.693a.526.526 0 00-.527-.526zm-.526 7.76H13.026V6.22h10.92v6.707zM1.053 6.22h10.92v6.707H1.053V6.22zm0 7.76h10.92v23.97H1.053V13.98zM5.94 39.754H4.204l-.228-.752H5.94v.752zm14.855 0H19.06v-.752h1.964l-.228.752zm-7.769-1.805V13.98h10.92v23.97h-10.92z"
            fill="currentColor" />
        <path d="M9.79 8.145a.527.527 0 00-.526.526v1.804a.527.527 0 101.052 0V8.671a.526.526 0 00-.526-.526z"
            fill="currentColor" />
        <path d="M15.208 11.002a.526.526 0 00.526-.527V8.671a.526.526 0 10-1.052 0v1.804a.526.526 0 00.526.527z"
            fill="currentColor" />
        <path d="M9.79 27.808a.526.526 0 00.526-.526v-4.976a.526.526 0 10-1.052 0v4.976a.526.526 0 00.526.526z"
            fill="currentColor" />
        <path d="M15.208 21.78a.527.527 0 00-.526.526v4.976a.526.526 0 001.052 0v-4.976a.527.527 0 00-.526-.527z"
            fill="currentColor" />
        <path fill-rule="evenodd" clip-rule="evenodd"
            d="M32.365.5H45.5V44H32.351l-8.457-5.497a.5.5 0 01.545-.839l7.56 4.915V1.867l-7.166 4.149-.5-.865L32.364.5zm.634 1v7.42h11.5V1.5H33zm11.5 8.42h-9.807l2.921 1.405H44.5V9.92zm0 2.405h-7.114L33 10.216v4.719h11.5v-2.608zm0 3.609h-9.807l2.921 1.406H44.5v-1.406zm0 2.406h-7.114L33 16.23v5.12h11.5v-3.01zm0 4.01h-9.807l2.921 1.405H44.5v-1.406zm0 2.405h-7.114L33 22.645v4.518h11.5v-2.408zm0 3.408h-9.807l2.921 1.405H44.5v-1.405zm0 2.405h-7.114L33 28.458v5.32h11.5v-3.21zm0 4.21h-9.807l2.921 1.406H44.5v-1.406zm0 2.406h-7.114L33 35.074V43h11.5v-5.816zM28.416 21v5.833h-1V21h1z"
            fill="currentColor" />
        <path fill-rule="evenodd" clip-rule="evenodd"
            d="M32.053 43.724l.894-.448.695 1.39h1.275V43.5h1v2.167h-2.893l-.971-1.943z" fill="currentColor" />
        <path fill-rule="evenodd" clip-rule="evenodd"
            d="M45.484 43.62l-.97-.242-.322 1.288H43v-1.167h-1v2.167h2.974l.511-2.045z" fill="currentColor" />
    </symbol>
    <symbol id="icon-catalog9" viewBox="0 0 34 38">
        <path fill-rule="evenodd" clip-rule="evenodd"
            d="M.5.5h32.714v35.286H.5V.5zm1 1v3.286h7.571V1.5H1.5zm8.571 0v3.286h8V1.5h-8zm9 0v3.286h13.143V1.5H19.071zm13.143 4.286H19.071v1.571h13.143V5.786zm0 2.571h-4.836c.044.043.085.088.122.134.245.307.293.663.16.99-.115.281-.342.49-.54.633a2.841 2.841 0 01-.334.205v.531a20 20 0 011.94.39c.433.113.864.245 1.237.399.361.148.719.336.962.579.217.217.372.462.421.735.051.284-.023.536-.15.734-.23.36-.638.559-.895.645l-.077.025H22v-1h8.053a1.02 1.02 0 00.162-.084.466.466 0 00.139-.124l.008-.017v-.002c-.002-.01-.019-.08-.144-.205-.1-.1-.307-.226-.635-.361-.316-.13-.7-.25-1.108-.355a19.19 19.19 0 00-2.251-.427l-.438-.055V9.661l.314-.125c.15-.06.309-.142.436-.234a.706.706 0 00.188-.18l-.005-.007c-.052-.065-.195-.184-.528-.327-.211.01-.302.05-.334.07a.2.2 0 00.019.061l-.895.447c-.108-.217-.219-.624.004-1.009H19.07V21.93h13.143V8.357zm0 14.572H19.071v3.285h13.143V22.93zm0 4.285H19.071V30.5h13.143v-3.286zm0 4.286H19.071v3.286h13.143V31.5zm-14.143 3.286V31.5h-1.72c-.419.895-1.408 1.286-2.28 1.286-.871 0-1.86-.391-2.28-1.286H7.78c-.42.895-1.408 1.286-2.28 1.286-.872 0-1.86-.391-2.28-1.286H1.5v3.286h16.571zM1.5 30.5h16.571V8.357h-5.693c.044.043.085.088.122.134.245.307.293.663.16.99-.115.281-.342.49-.54.633a2.841 2.841 0 01-.334.205v.531a20 20 0 011.94.39c.433.113.864.245 1.237.399.361.148.719.336.962.579.217.217.372.462.421.735.051.284-.023.536-.15.734-.23.36-.638.559-.895.645l-.077.025H2.714v-1h8.053a1.02 1.02 0 00.163-.084.466.466 0 00.138-.124.078.078 0 00.008-.017v-.002c-.002-.01-.018-.08-.144-.205-.1-.1-.306-.226-.634-.361-.316-.13-.7-.25-1.109-.355a19.188 19.188 0 00-2.251-.427l-.438-.055V9.661l.314-.125c.15-.06.31-.142.436-.234a.705.705 0 00.188-.18.244.244 0 00-.005-.007c-.052-.065-.194-.184-.527-.327-.212.01-.302.05-.335.07a.199.199 0 00.02.061l-.895.447c-.11-.217-.22-.624.003-1.009H1.5V30.5zm0-23.143h16.571V5.786H1.5v1.571zm6.592 1h1.893c-.223.385-.112.792-.004 1.01l.895-.448a.2.2 0 01-.02-.06c.033-.022.124-.062.335-.071.333.143.476.262.528.327l.005.007a.706.706 0 01-.188.18 2.12 2.12 0 01-.436.234l-.314.125v2.024a9.765 9.765 0 00-1.346-.444 20.007 20.007 0 00-1.94-.39v-.532c.114-.06.228-.128.335-.205.198-.143.424-.352.539-.633.133-.327.085-.683-.16-.99a1.389 1.389 0 00-.122-.134zm2.824 3.386c.275.13.534.285.723.475.218.217.372.462.421.735.026.144.02.28-.009.404h3.002a1.02 1.02 0 00.162-.084.466.466 0 00.139-.124l.008-.017v-.002c-.002-.01-.019-.08-.144-.205-.1-.1-.307-.226-.635-.361-.316-.13-.7-.25-1.108-.355a19.19 19.19 0 00-2.251-.427l-.308-.039zM7.45 9.141zM4.5 31.5c.26.182.608.286 1.001.286.393 0 .742-.104 1.001-.286H4.5zm8.571 0c.26.182.609.286 1.001.286.393 0 .742-.104 1.002-.286H13.07zM26.736 9.14c0 .001 0 0 0 0z"
            fill="currentColor" />
        <path fill-rule="evenodd" clip-rule="evenodd"
            d="M23.043 11.523c1.014-.441 2.317-.662 3.2-.736l.084.997c-.83.069-2.013.276-2.885.656-.44.192-.745.404-.905.614a.583.583 0 00-.128.303h.448v1h-1.196l-.126-.314c-.239-.6-.131-1.15.206-1.594.311-.41.8-.707 1.302-.926z"
            fill="currentColor" />
        <path fill-rule="evenodd" clip-rule="evenodd"
            d="M7.709 11.523c1.014-.441 2.317-.662 3.2-.736l.084.997c-.83.069-2.013.276-2.885.656-.44.192-.745.404-.905.614a.584.584 0 00-.128.303h.448v1H6.327l-.126-.314c-.239-.6-.131-1.15.206-1.594.312-.41.8-.707 1.302-.926z"
            fill="currentColor" />
        <path fill-rule="evenodd" clip-rule="evenodd"
            d="M3.422 11.523c1.013-.441 2.317-.662 3.2-.736l.084.997c-.83.069-2.013.276-2.885.656-.44.192-.745.404-.905.614a.584.584 0 00-.129.303h.45v1H2.04l-.126-.314c-.24-.6-.131-1.15.206-1.594.311-.41.8-.707 1.302-.926z"
            fill="currentColor" />
        <path fill-rule="evenodd" clip-rule="evenodd" d="M10.5 35.286h-1V31h1v4.286z" fill="currentColor" />
        <path fill-rule="evenodd" clip-rule="evenodd" d="M2.215 35.286h1V36.5H30.5v-.785h1V37.5H2.215v-2.214z"
            fill="currentColor" />
    </symbol>
    <symbol id="icon-close" viewBox="0 0 13 13">
        <path
            d="M7.65 6.5l5.112-5.111a.813.813 0 10-1.15-1.15L6.5 5.351 1.388.24a.813.813 0 10-1.15 1.15L5.351 6.5.238 11.613a.813.813 0 101.15 1.15L6.5 7.65l5.112 5.112a.81.81 0 001.15 0 .813.813 0 000-1.15L7.65 6.502z"
            fill="currentColor" />
    </symbol>
    <symbol id="icon-collapse" viewBox="0 0 27 15">
        <path d="M1 1.5l12.695 12L26 1.868" stroke="currentColor" fill="transparent" stroke-linecap="square" />
    </symbol>
    <symbol id="icon-dropdown_link" viewBox="0 0 10 6">
        <path d="M8.48 0L4.8 3.73 1.12 0 0 1.135 4.8 6l4.8-4.865L8.48 0z" fill="currentColor" />
    </symbol>
    <symbol id="icon-dropdown_medium" viewBox="0 0 10 7">
        <path opacity=".24" d="M8.48.526L4.8 4.256 1.12.526 0 1.661l4.8 4.865 4.8-4.864L8.48.526z"
            fill="currentColor" />
    </symbol>
    <symbol id="icon-dropdown_thin" viewBox="0 0 11 6">
        <mask id="a" fill="#fff">
            <path fill-rule="evenodd" clip-rule="evenodd" d="M10.439 0l-5 6-5-6" />
        </mask>
        <path d="M9.67-.64l-5 6 1.537 1.28 5-6L9.671-.64zm-3.463 6l-5-6L-.329.64l5 6 1.536-1.28z" fill="currentColor"
            mask="url(#a)" />
    </symbol>
    <symbol id="icon-email" viewBox="0 0 30 24">
        <path
            d="M27.324 23.787c.674 0 1.259-.223 1.755-.663l-8.5-8.5-.587.423c-.636.469-1.153.835-1.55 1.097-.395.262-.923.53-1.581.803-.659.274-1.272.41-1.842.41h-.033c-.57 0-1.183-.136-1.842-.41-.658-.273-1.186-.54-1.582-.803a39.385 39.385 0 01-1.548-1.097l-.587-.425-8.501 8.502c.496.44 1.081.663 1.755.663h24.643z"
            fill="#474216" />
        <path d="M1.691 9.272A8.875 8.875 0 010 7.815v12.932l7.491-7.491a579.191 579.191 0 00-5.8-3.984z"
            fill="#474216" />
        <path d="M28.326 9.272a493.21 493.21 0 00-5.814 3.987L30 20.747V7.815a9.238 9.238 0 01-1.674 1.457z"
            fill="#474216" />
        <path
            d="M27.325.215H2.682c-.86 0-1.52.29-1.983.87-.464.58-.695 1.306-.695 2.176 0 .704.307 1.465.92 2.286.614.82 1.267 1.465 1.96 1.933.379.268 1.523 1.064 3.431 2.386a1117.305 1117.305 0 014.386 3.055l.25.178.462.333c.363.262.664.474.904.636.24.162.53.343.87.544.341.201.662.352.963.452.302.1.58.151.837.151h.034c.256 0 .535-.05.837-.15.301-.101.622-.252.962-.453.34-.2.63-.382.871-.544.24-.162.541-.374.904-.636a108.842 108.842 0 01.712-.51L21 11.743l6.14-4.264a7.962 7.962 0 002.043-2.059c.546-.803.82-1.646.82-2.527 0-.737-.266-1.367-.796-1.892-.53-.525-1.158-.787-1.883-.787z"
            fill="#474216" />
    </symbol>
    <symbol id="icon-eye" viewBox="0 0 33 20">
        <path clip-rule="evenodd"
            d="M16.5 18.742c7.916 0 14.333-8.6 14.333-8.6s-6.417-8.6-14.333-8.6-14.334 8.6-14.334 8.6 6.418 8.6 14.334 8.6z"
            stroke="#fff" stroke-width="1.944" />
        <path clip-rule="evenodd" d="M16.5 14.442a4.3 4.3 0 100-8.6 4.3 4.3 0 000 8.6z" stroke="#fff"
            stroke-width="1.944" />
    </symbol>
    <symbol id="icon-file" viewBox="0 0 40 40">
        <path
            d="M31.333 29.796c-1 2.856 3.111 4.02 3.667 3.491l-.667.635-2 5.078H1V18.687c.222-.529.933-1.904 2-3.174 1.333-1.586 1.333-.952 3.333-2.221 2-1.27 1.667-3.174 2-4.761.334-1.587 4.667-3.491 7-3.491h7.334c.942 0 4.666-.635 7 3.174 1.428 2.331.222 6.876.666 8.886 1.111 1.799 3.334 6.983 1 12.696z"
            fill="url(#paint0_linear)" stroke="url(#paint1_linear)" />
        <path
            d="M38.327 18H36v-4.179A1.824 1.824 0 0034.179 12h-.846V0H6.667v1.333h-2v1.334h-2v4.666H1.82A1.824 1.824 0 000 9.155v29.124h.004c-.003.376.113.743.348 1.05.327.427.821.671 1.358.671h29.84c.77 0 1.45-.52 1.632-1.209L40 20.1v-.118C40 18.833 39.296 18 38.327 18zm-4.148-4.667c.269 0 .488.219.488.488V18h-1.334v-4.667h.846zM32 1.333V18H8.487c-.155 0-.304.026-.449.065-.012.004-.026.002-.038.006V1.333h24zM6.667 2.667v17.056l-.042.116L6 21.55V2.667h.667zM4 4h.667v21.207L4 27.034V4zM1.333 9.155c0-.27.22-.488.488-.488h.846v21.962l-1.334 3.636V9.155zm30.579 29.234a.375.375 0 01-.363.278H1.71a.368.368 0 01-.299-.148c-.042-.055-.106-.171-.082-.272l1.338-3.667 2-5.483 2-5.483v.002l1.288-3.534.045-.123.107-.293.017-.055a.378.378 0 01.363-.278H38.327c.252 0 .318.364.334.546l-6.749 18.51z"
            fill="#474216" />
        <path d="M12 11.333h16A.666.666 0 1028 10H12a.666.666 0 100 1.333z" fill="#474216" />
        <path d="M12 6.667h6.667a.667.667 0 100-1.333H12a.666.666 0 100 1.333z" fill="#474216" />
        <path d="M12 16h16a.666.666 0 100-1.334H12a.666.666 0 100 1.333z" fill="#474216" />

    </symbol>
    <symbol id="icon-filter" viewBox="0 0 20 20">
        <path
            d="M18.925 0H1.095a.838.838 0 00-.747.455.85.85 0 00.066.884l6.532 9.202.007.01c.237.32.366.708.366 1.107v7.502a.834.834 0 001.164.774l3.67-1.4c.33-.1.548-.41.548-.784v-6.092c0-.399.129-.787.366-1.107l.007-.01 6.532-9.203a.849.849 0 00.066-.883.838.838 0 00-.747-.455zm-6.677 9.95a2.89 2.89 0 00-.563 1.708v5.969l-3.35 1.277v-7.246a2.889 2.889 0 00-.564-1.709L1.43 1.015h17.162L12.248 9.95z"
            fill="#4D4A2F" />
    </symbol>
    <symbol id="icon-folder-color" viewBox="0 0 40 40">
        <path
            d="M31.333 29.796c-1 2.856 3.111 4.02 3.667 3.491l-.667.635-2 5.078H1V18.687c.222-.529.933-1.904 2-3.174 1.333-1.586 1.333-.952 3.333-2.221 2-1.27 1.667-3.174 2-4.761.334-1.587 4.667-3.491 7-3.491h7.334c.942 0 4.666-.635 7 3.174 1.428 2.331.222 6.876.666 8.886 1.111 1.799 3.334 6.983 1 12.696z"
            fill="url(#paint0_linear)" stroke="url(#paint1_linear)" />
        <path
            d="M38.327 18H36v-4.179A1.824 1.824 0 0034.179 12h-.846V0H6.667v1.333h-2v1.334h-2v4.666H1.82A1.824 1.824 0 000 9.155v29.124h.004c-.003.376.113.743.348 1.05.327.427.821.671 1.358.671h29.84c.77 0 1.45-.52 1.632-1.209L40 20.1v-.118C40 18.833 39.296 18 38.327 18zm-4.148-4.667c.269 0 .488.219.488.488V18h-1.334v-4.667h.846zM32 1.333V18H8.487c-.155 0-.304.026-.449.065-.012.004-.026.002-.038.006V1.333h24zM6.667 2.667v17.056l-.042.116L6 21.55V2.667h.667zM4 4h.667v21.207L4 27.034V4zM1.333 9.155c0-.27.22-.488.488-.488h.846v21.962l-1.334 3.636V9.155zm30.579 29.234a.375.375 0 01-.363.278H1.71a.368.368 0 01-.299-.148c-.042-.055-.106-.171-.082-.272l1.338-3.667 2-5.483 2-5.483v.002l1.288-3.534.045-.123.107-.293.017-.055a.378.378 0 01.363-.278H38.327c.252 0 .318.364.334.546l-6.749 18.51z"
            fill="#474216" />
        <path d="M12 11.333h16A.666.666 0 1028 10H12a.667.667 0 100 1.333z" fill="#474216" />
        <path d="M12 6.667h6.667a.667.667 0 100-1.333H12a.667.667 0 100 1.333z" fill="#474216" />
        <path d="M12 16h16a.666.666 0 100-1.334H12a.667.667 0 100 1.333z" fill="#474216" />

    </symbol>
    <symbol id="icon-hint" viewBox="0 0 15 15">
        <path
            d="M7.5 0C3.36 0 0 3.355 0 7.496a7.5 7.5 0 1015 0A7.496 7.496 0 007.5 0zm.534 11.67a.883.883 0 01-.604.232.913.913 0 01-.62-.23c-.176-.153-.264-.367-.264-.642 0-.244.085-.45.256-.617.17-.166.38-.25.628-.25.244 0 .45.084.616.25.167.167.25.373.25.617 0 .271-.087.484-.262.64zm2.172-5.385a2.653 2.653 0 01-.477.642c-.183.18-.514.484-.991.91-.132.12-.238.226-.317.317a1.29 1.29 0 00-.177.25 1.205 1.205 0 00-.09.227 9.69 9.69 0 00-.097.398c-.073.404-.304.605-.691.605a.708.708 0 01-.51-.197c-.137-.132-.206-.328-.206-.588 0-.325.051-.607.152-.846.1-.238.234-.448.4-.628.168-.18.392-.395.675-.643.249-.217.428-.38.538-.491.111-.11.204-.234.28-.37a.89.89 0 00.112-.441c0-.31-.114-.572-.345-.785-.231-.213-.529-.32-.893-.32-.427 0-.74.108-.942.323-.202.215-.372.532-.512.95-.132.439-.382.658-.75.658a.738.738 0 01-.55-.23c-.149-.153-.223-.319-.223-.497 0-.368.118-.741.354-1.12.237-.378.582-.69 1.036-.939.453-.248.982-.372 1.587-.372.562 0 1.058.104 1.488.311.43.208.763.49.998.847.234.356.352.744.352 1.163 0 .329-.067.617-.2.866z"
            fill="#4D4A2F" />
    </symbol>
    <symbol id="icon-instagram" viewBox="0 0 26 26">
        <path fill-rule="evenodd" clip-rule="evenodd"
            d="M18.962 0H7.038A7.046 7.046 0 000 7.038v11.924A7.046 7.046 0 007.038 26h11.924A7.046 7.046 0 0026 18.962V7.038A7.046 7.046 0 0018.962 0zM13 20.11c-3.92 0-7.11-3.19-7.11-7.11 0-3.92 3.19-7.11 7.11-7.11 3.92 0 7.11 3.19 7.11 7.11 0 3.92-3.19 7.11-7.11 7.11zm5.178-14.643c0 1.158.943 2.1 2.101 2.1 1.159 0 2.101-.942 2.101-2.1 0-1.159-.942-2.101-2.1-2.101-1.16 0-2.102.942-2.102 2.1z"
            fill="currentColor" />
        <path
            d="M13 7.416a5.591 5.591 0 00-5.585 5.585A5.591 5.591 0 0013 18.586 5.591 5.591 0 0018.585 13 5.591 5.591 0 0013 7.416z"
            fill="currentColor" />
        <path d="M20.28 4.89a.577.577 0 100 1.155.577.577 0 000-1.154z" fill="currentColor" />
    </symbol>
    <symbol id="icon-length" viewBox="0 0 61 35">
        <path
            d="M58.458 23.299V34H39.486V13.963M58.458 23.3V6.448h-5.486m5.486 16.85h-5.486v-9.336m0-7.514H39.486v3.643M52.972 6.45v3.643m0 0H39.486m13.486 0v1.936m-13.486-1.936v1.936m13.486 1.935H39.486m13.486 0v-1.935m-13.486 1.935v-1.935m13.486 0H39.486"
            stroke="#95958C" />
        <path
            d="M7.714 22.843H2V6.45h5.714m0 16.394H23.6m-15.886 0V6.45m0 0H23.6m0 16.394h15.886V6.45H23.6m0 16.394V6.45"
            stroke="#95958C" />
        <path d="M39.486 10.092H7.943m31.543 3.87H7.715m31.771-1.821H7.715" stroke="#95958C" />
        <path d="M59 1.992H1" stroke="#FF9100" stroke-width="1.5" />
        <ellipse cx="2" cy="1.992" rx="2" ry="1.992" fill="#FF9100" />
        <ellipse cx="59" cy="1.992" rx="2" ry="1.992" fill="#FF9100" />
    </symbol>
    <symbol id="icon-maestro" viewBox="0 0 35 28">
        <path fill-rule="evenodd" clip-rule="evenodd"
            d="M33.786 17.469v.506h-.084v-.506h-.154v-.103h.392v.103h-.154zm.762-.104v.61h-.085v-.461l-.13.398h-.088l-.13-.397v.46h-.085v-.61h.12l.139.419.139-.42h.12z"
            fill="#0099DF" />
        <path d="M22.274 19.41H13.01V2.764h9.263V19.41z" fill="#6C6BBD" />
        <path
            d="M13.599 11.087c0-3.377 1.58-6.385 4.043-8.323A10.54 10.54 0 0011.1.5C5.253.5.514 5.24.514 11.087c0 5.847 4.74 10.587 10.586 10.587 2.47 0 4.742-.846 6.542-2.264a10.57 10.57 0 01-4.043-8.323z"
            fill="#EB001B" />
        <path
            d="M34.77 11.087c0 5.847-4.739 10.587-10.585 10.587-2.47 0-4.742-.846-6.543-2.264a10.568 10.568 0 004.044-8.323c0-3.377-1.581-6.385-4.044-8.323A10.544 10.544 0 0124.185.5c5.846 0 10.586 4.74 10.586 10.587z"
            fill="#0099DF" />
        <path fill-rule="evenodd" clip-rule="evenodd"
            d="M27.643 24.115c.218 0 .42.038.606.114a1.431 1.431 0 01.8.782c.077.18.115.377.115.59 0 .212-.038.408-.115.59a1.433 1.433 0 01-.8.782 1.598 1.598 0 01-.606.113c-.218 0-.42-.038-.606-.113a1.469 1.469 0 01-.48-.312 1.451 1.451 0 01-.317-.47 1.496 1.496 0 01-.115-.59c0-.213.038-.41.115-.59a1.45 1.45 0 01.317-.47c.135-.133.294-.237.48-.312.186-.076.388-.114.606-.114zm-5.495.63h1v-.56h-1v-.852h-.617v.853h-.571v.558h.57v1.282c0 .653.253 1.041.977 1.041.264 0 .57-.083.764-.218l-.177-.523a1.127 1.127 0 01-.54.159c-.306 0-.406-.189-.406-.47v-1.27zm3.695-.553a1.304 1.304 0 00-.435-.077c-.353 0-.583.165-.741.412v-.341h-.606v2.81h.612V25.42c0-.464.2-.723.6-.723a.99.99 0 01.382.07l.188-.575zM15.32 25.344c.066-.406.312-.683.747-.683.394 0 .647.247.712.683H15.32zm.759-1.229c.788 0 1.33.6 1.335 1.476 0 .081-.006.157-.012.233v.002h-2.087c.088.505.447.688.84.688.282 0 .583-.106.818-.294l.3.453c-.341.288-.73.393-1.152.393-.842 0-1.441-.582-1.441-1.475 0-.876.576-1.476 1.399-1.476zm4.022.788a1.803 1.803 0 00-.876-.241c-.335 0-.535.123-.535.33 0 .187.212.24.476.275l.288.041c.612.09.982.348.982.842 0 .535-.47.917-1.281.917-.46 0-.883-.118-1.218-.365l.288-.476c.206.159.512.294.936.294.417 0 .64-.123.64-.341 0-.159-.158-.247-.493-.294l-.288-.04c-.63-.09-.971-.372-.971-.83 0-.559.459-.9 1.17-.9.447 0 .853.1 1.147.294l-.265.494zm7.191-.141a.927.927 0 01.35-.066c.127 0 .244.022.352.066a.838.838 0 01.469.472.967.967 0 01.067.366.965.965 0 01-.067.367.855.855 0 01-.82.538.914.914 0 01-.35-.066.84.84 0 01-.466-.472.965.965 0 01-.068-.366c0-.134.022-.256.067-.367a.84.84 0 01.466-.472zm-14.692-.07c-.529 0-.852.405-.852.899s.323.9.852.9c.506 0 .847-.388.847-.9s-.341-.9-.847-.9zm1.423.899v-1.405h-.611v.34c-.195-.252-.488-.411-.888-.411-.788 0-1.405.617-1.405 1.476 0 .858.617 1.476 1.405 1.476.4 0 .694-.159.888-.412v.341h.611v-1.405zm-3.445-.359v1.764H9.96v-1.564c0-.476-.2-.74-.618-.74-.406 0-.688.258-.688.746v1.558h-.617v-1.564c0-.476-.206-.74-.612-.74-.418 0-.688.258-.688.746v1.558H6.12v-2.81h.61v.346c.23-.329.524-.417.824-.417.43 0 .736.188.93.5.258-.394.629-.506.988-.5.681.006 1.105.453 1.105 1.117z"
            fill="#231F20" />
        <path fill-rule="evenodd" clip-rule="evenodd"
            d="M30.203 26.35a.422.422 0 00-.589.382.396.396 0 00.123.291.42.42 0 00.302.123.431.431 0 00.389-.254.396.396 0 00.033-.16.407.407 0 00-.258-.382zm-.164.704a.328.328 0 00.296-.197.33.33 0 00-.07-.355.31.31 0 00-.101-.067.303.303 0 00-.125-.025.316.316 0 00-.127.024.308.308 0 00-.172.171.312.312 0 00-.025.127c0 .044.008.087.025.126a.303.303 0 00.172.171.316.316 0 00.127.026zm.139-.483a.176.176 0 00-.114-.034h-.178v.386h.082v-.144h.038l.117.143h.098l-.126-.145a.159.159 0 00.09-.038.103.103 0 00.033-.079.11.11 0 00-.04-.09zm-.21.141v-.102h.095c.02 0 .039.003.05.012.014.009.02.021.02.038a.044.044 0 01-.02.04.094.094 0 01-.05.012h-.095z"
            fill="#231F20" />
    </symbol>
    <symbol id="icon-mastercard" viewBox="0 0 36 28">
        <path fill-rule="evenodd" clip-rule="evenodd"
            d="M34.373 27.133a.279.279 0 00-.314.061.28.28 0 00-.083.2.277.277 0 00.083.202.292.292 0 00.203.084c.04 0 .076-.008.111-.023a.304.304 0 00.09-.061.277.277 0 00.083-.201.277.277 0 00-.083-.201.28.28 0 00-.09-.061zm-.111.484a.22.22 0 00.216-.222.23.23 0 00-.063-.157.211.211 0 00-.153-.064.22.22 0 00-.155.064.216.216 0 00-.046.07.218.218 0 00-.017.087c0 .03.005.06.017.086a.21.21 0 00.115.118.21.21 0 00.086.018zm.093-.333a.117.117 0 00-.076-.022h-.12v.264h.055v-.099h.026l.078.099h.067l-.085-.1a.104.104 0 00.06-.026.072.072 0 00.023-.054.076.076 0 00-.028-.062zm-.14.098v-.07h.063a.06.06 0 01.035.008.03.03 0 01.013.026.031.031 0 01-.013.027.066.066 0 01-.035.009h-.064zm-26.177-1.29c0-.503.324-.917.853-.917.506 0 .847.396.847.917 0 .522-.341.918-.847.918-.529 0-.853-.414-.853-.918zm2.276-1.433v2.866h-.611v-.348c-.194.258-.488.42-.888.42-.788 0-1.406-.629-1.406-1.505 0-.875.618-1.505 1.406-1.505.4 0 .694.162.888.42v-.348h.61zm20.653 1.433c0-.503.323-.917.852-.917.506 0 .847.396.847.917 0 .522-.34.918-.847.918-.529 0-.852-.414-.852-.918zm2.276-2.583v4.016h-.612v-.348c-.194.258-.488.42-.888.42-.788 0-1.406-.629-1.406-1.505 0-.875.618-1.505 1.406-1.505.4 0 .694.162.888.42V23.51h.612zM17.9 25.145c.394 0 .647.252.712.695h-1.459c.065-.413.312-.695.747-.695zm-1.388.947c0-.893.576-1.505 1.4-1.505.788 0 1.329.612 1.335 1.505 0 .084-.006.162-.012.24h-2.087c.088.516.447.702.84.702.282 0 .582-.108.818-.3l.3.462c-.342.294-.73.401-1.153.401-.841 0-1.44-.593-1.44-1.505zm8.78 0c0-.503.324-.917.853-.917.505 0 .846.396.846.917 0 .522-.34.918-.846.918-.53 0-.853-.414-.853-.918zm2.276-1.433v2.866h-.612v-.348c-.194.258-.488.42-.887.42-.788 0-1.406-.629-1.406-1.505 0-.875.617-1.505 1.406-1.505.4 0 .693.162.887.42v-.348h.612zm-5.728 1.433c0 .87.594 1.505 1.5 1.505.423 0 .705-.096 1.01-.341l-.293-.504a1.22 1.22 0 01-.735.258c-.488-.006-.847-.366-.847-.918 0-.551.359-.911.847-.917.265 0 .506.09.736.258l.293-.504c-.306-.246-.588-.342-1.011-.342-.906 0-1.5.636-1.5 1.505zm7.139-1.085c.159-.252.388-.42.741-.42.124 0 .3.024.436.079l-.189.587a.974.974 0 00-.382-.072c-.4 0-.6.264-.6.738v1.606h-.612V24.66h.606v.348zm-15.642-.12c-.294-.197-.7-.3-1.146-.3-.713 0-1.171.348-1.171.918 0 .467.341.756.97.845l.289.042c.335.048.493.138.493.3 0 .222-.223.348-.64.348-.424 0-.73-.138-.936-.3l-.288.485c.335.252.759.372 1.217.372.812 0 1.282-.39 1.282-.935 0-.504-.37-.767-.982-.857l-.288-.043c-.264-.035-.476-.089-.476-.281 0-.21.2-.336.535-.336.359 0 .706.138.876.246l.265-.504zm7.145.12c.158-.252.388-.42.74-.42.124 0 .3.024.436.079l-.189.587a.974.974 0 00-.382-.072c-.4 0-.6.264-.6.738v1.606h-.61V24.66h.605v.348zm-4.475-.348h-1v-.87h-.618v.87h-.57v.57h.57v1.307c0 .665.254 1.061.976 1.061.265 0 .571-.083.765-.221l-.176-.534a1.115 1.115 0 01-.542.162c-.305 0-.405-.192-.405-.48v-1.295h1v-.57zm-9.139 1.068v1.798h-.617V25.93c0-.485-.2-.755-.618-.755-.406 0-.688.264-.688.762v1.588h-.617V25.93c0-.485-.206-.755-.612-.755-.418 0-.688.264-.688.762v1.588H2.41V24.66h.611v.354c.23-.336.523-.426.824-.426.43 0 .735.192.928.51.26-.402.63-.516.989-.51.682.006 1.105.462 1.105 1.14z"
            fill="#231F20" />
        <path fill-rule="evenodd" clip-rule="evenodd"
            d="M34.093 18.167v.694h-.128v-.694h-.235v-.142h.598v.142h-.235zm1.16-.143v.837h-.13v-.632l-.197.546h-.134l-.198-.545v.631h-.13v-.837h.184l.21.575.212-.575h.182z"
            fill="#F79410" />
        <path d="M22.397 19.79h-9.263V2.815h9.263V19.79z" fill="#FF5F00" />
        <path
            d="M13.722 11.303c0-3.443 1.58-6.51 4.043-8.486A10.413 10.413 0 0011.223.509C5.376.509.637 5.342.637 11.303c0 5.962 4.74 10.795 10.586 10.795 2.47 0 4.741-.863 6.542-2.308a10.854 10.854 0 01-4.043-8.487z"
            fill="#EB001B" />
        <path
            d="M34.894 11.303c0 5.962-4.74 10.795-10.586 10.795-2.47 0-4.742-.863-6.543-2.308a10.852 10.852 0 004.044-8.487c0-3.443-1.581-6.51-4.044-8.486A10.416 10.416 0 0124.308.509c5.846 0 10.586 4.833 10.586 10.794z"
            fill="#F79E1B" />
    </symbol>
    <symbol id="icon-mir" viewBox="0 0 58 17">
        <path fill-rule="evenodd" clip-rule="evenodd"
            d="M15.558 0v.007c-.007 0-2.255-.007-2.855 2.171-.55 1.997-2.098 7.512-2.14 7.664h-.43S8.55 4.204 7.994 2.17C7.393-.007 5.138 0 5.138 0H0v16.571h5.138V6.73h.429l2.997 9.841h3.568l2.998-9.834h.428v9.834h5.138V0h-5.138z"
            fill="#4DB45E" />
        <path fill-rule="evenodd" clip-rule="evenodd"
            d="M34.471 0s-1.513.137-2.223 1.737L28.59 9.842h-.43V0h-5.164v16.571h4.877s1.585-.144 2.295-1.736l3.586-8.105h.43v9.841h5.164V0h-4.877z"
            fill="#4DB45E" />
        <path fill-rule="evenodd" clip-rule="evenodd"
            d="M41.648 7.51v9.062h5.173V11.28h5.606c2.443 0 4.513-1.573 5.281-3.77h-16.06z" fill="#4DB45E" />
        <path fill-rule="evenodd" clip-rule="evenodd"
            d="M52.413 0H40.945a8.238 8.238 0 008.101 6.732h8.84c.078-.372.114-.752.114-1.146C58 2.5 55.5 0 52.413 0z"
            fill="url(#paint0_linear)" />

    </symbol>
    <symbol id="icon-refresh" viewBox="0 0 30 30">
        <g clip-path="url(#clip0)" fill="#FF9100">
            <path
                d="M18.147 5.023l-4.012 4.012a.594.594 0 01-.839 0l-.057-.06V6.022c-4.844.339-8.682 4.385-8.682 9.314 0 3.46 1.9 6.622 4.959 8.25a1.58 1.58 0 11-1.485 2.794 12.487 12.487 0 01-6.638-11.044c0-6.674 5.256-12.143 11.846-12.486V.232l.057-.059a.594.594 0 01.84 0l4.011 4.01a.593.593 0 010 .84z" />
            <path
                d="M15.862 29.826l-4.01-4.01a.593.593 0 010-.839l4.01-4.01a.593.593 0 01.84 0l.056.058.002 2.953c4.842-.338 8.682-4.384 8.682-9.313a9.33 9.33 0 00-4.96-8.25 1.583 1.583 0 111.487-2.793 12.49 12.49 0 016.638 11.043c0 6.675-5.257 12.143-11.847 12.485v2.618l-.058.058a.594.594 0 01-.84 0z" />
        </g>

    </symbol>
    <symbol id="icon-search" viewBox="0 0 32 29">
        <path fill-rule="evenodd" clip-rule="evenodd"
            d="M13 25c6.627 0 12-5.373 12-12S19.627 1 13 1 1 6.373 1 13s5.373 12 12 12z" stroke="currentColor"
            stroke-width="2" fill="transparent" />
        <path d="M22 21l8.5 6.82" stroke="currentColor" stroke-width="2" stroke-linecap="round" />
    </symbol>
    <symbol id="icon-search_arrow" viewBox="0 0 12 19">
        <path d="M1 1l10 8.5v0L1 18" stroke="currentColor" fill="transparent" />
    </symbol>
    <symbol id="icon-tooltip-eye" viewBox="0 0 33 20">
        <path clip-rule="evenodd"
            d="M16.5 18.742c7.916 0 14.333-8.6 14.333-8.6s-6.417-8.6-14.333-8.6-14.334 8.6-14.334 8.6 6.418 8.6 14.334 8.6z"
            stroke="#fff" stroke-width="1.944" />
        <path clip-rule="evenodd" d="M16.5 14.442a4.3 4.3 0 100-8.6 4.3 4.3 0 000 8.6z" stroke="#fff"
            stroke-width="1.944" />
    </symbol>
    <symbol id="icon-visa" viewBox="0 0 56 18">
        <path d="M24.153 17.803H19.6L22.448.396H27l-2.847 17.407z" fill="#00579F" />
        <path
            d="M40.6.742C39.706.389 38.287 0 36.534 0c-4.478 0-7.63 2.373-7.65 5.765-.037 2.502 2.258 3.892 3.974 4.727 1.754.852 2.35 1.409 2.35 2.17-.018 1.166-1.417 1.704-2.723 1.704-1.81 0-2.78-.277-4.254-.926l-.597-.279L27 17.073c1.063.481 3.022.908 5.056.927 4.758 0 7.855-2.336 7.891-5.95.018-1.984-1.193-3.504-3.805-4.746-1.586-.797-2.557-1.335-2.557-2.15.018-.742.821-1.502 2.611-1.502 1.474-.037 2.557.315 3.377.667l.41.185L40.6.742z"
            fill="#00579F" />
        <path fill-rule="evenodd" clip-rule="evenodd"
            d="M48.865.396h3.493L56 17.803h-4.18s-.41-2-.54-2.611h-5.796l-.947 2.611H39.8l6.706-15.962C46.97.71 47.789.396 48.866.396zm-.278 6.37s-1.43 3.87-1.802 4.87h3.752c-.185-.87-1.04-5.036-1.04-5.036l-.316-1.5c-.133.386-.325.917-.454 1.275-.088.243-.147.406-.14.391z"
            fill="#00579F" />
        <path
            d="M16.002.396L11.559 12.28l-.486-2.41C10.25 7.089 7.675 4.067 4.8 2.565l4.07 15.238h4.798L20.8.396h-4.798z"
            fill="#00579F" />
        <path d="M7.364.396H.074L0 .75C5.687 2.2 9.453 5.692 11 9.891L9.415 1.865C9.155.749 8.353.433 7.365.396z"
            fill="#FAA61A" />
    </symbol>
    <symbol id="icon-vk" viewBox="0 0 26 26">
        <path fill-rule="evenodd" clip-rule="evenodd"
            d="M1.66 0h22.683C25.26 0 26.002.741 26 1.659V24.34A1.66 1.66 0 0124.341 26H1.661A1.66 1.66 0 010 24.341V1.66A1.66 1.66 0 011.66 0zm20.147 16.077c-.088-.085-.17-.163-.24-.234a9.266 9.266 0 00-.553-.5c-.558-.48-1.176-1.011-1.208-1.553-.042-.715.764-1.62 1.334-2.258.174-.196.327-.367.425-.5.721-.965 1.41-3.14 1.41-3.14l-4.4-.028s-1.567 4.025-3.402 4.987c-.696-.464-.563-1.527-.43-2.582.115-.924.23-1.842-.216-2.343-.656-.738-4.72-.54-4.87.411.445.13.876.264 1.056.648.451.946.32 3.772-.41 3.866-.387.049-.746-.468-1.003-.839A40.4 40.4 0 009 11.596c-.242-.331-.475-.651-.692-1.033-.319-.566-1.524-2.758-1.524-2.758l-3.758.013s1.318 3.313 2.23 4.856c1.882 3.185 4.016 6.468 9.33 5.631.11-.298.153-.642.194-.97.083-.674.16-1.286.801-1.318.438-.02.78.396 1.06.735.06.074.118.143.173.205.118.131.22.258.317.38.186.23.356.442.59.63.756.608 1.5.58 2.757.527.266-.01.533-.003.788.005.804.024 1.489.045 1.62-.531.16-.706-.568-1.401-1.08-1.891z"
            fill="currentColor" />
    </symbol>
    <symbol id="icon-youtube" viewBox="0 0 22 26">
        <path fill-rule="evenodd" clip-rule="evenodd"
            d="M6.942 10.179H5.333l-.002-5.475L3.309 0h1.74l1.026 3.495L7.085.01h1.76L6.944 4.702l-.002 5.477zM8.89 3.816c-.115.386-.173.92-.173 1.606v1.891c0 .626.03 1.096.094 1.408.064.313.17.58.32.801.15.22.358.385.63.495.269.11.596.163.985.163.348 0 .656-.063.925-.191.267-.127.486-.327.656-.594.173-.27.285-.558.337-.868.052-.31.079-.797.079-1.459V5.262c0-.524-.028-.912-.085-1.17a2.291 2.291 0 00-.316-.743 1.682 1.682 0 00-.654-.586c-.282-.15-.62-.226-1.015-.226-.469 0-.855.118-1.156.352-.302.233-.51.542-.627.927zm4.994 5.64c.08.189.202.342.368.458.164.113.374.17.626.17.22 0 .416-.058.586-.18.17-.12.313-.3.43-.54l-.03.591h1.706V2.814h-1.343v5.558a.555.555 0 01-.56.547.556.556 0 01-.558-.547V2.814h-1.4V7.63c0 .613.01 1.022.03 1.23.018.206.066.403.145.595zM22 22.656v-7.669c0-1.84-1.62-3.345-3.6-3.345H3.6c-1.98 0-3.6 1.506-3.6 3.345v7.668C0 24.495 1.62 26 3.6 26h14.8c1.98 0 3.6-1.505 3.6-3.345zm-8.825-5.414c-.368 0-.669.243-.669.541v4.031c0 .297.3.54.668.54.37 0 .67-.243.67-.54v-4.03c0-.299-.3-.542-.67-.542zm5.434 1.776H17.16l.007-.829c0-.368.307-.67.682-.67h.092c.377 0 .684.302.684.67l-.016.83zm-14.022 4.47l-.001-8.077H6.42v-1.197l-4.89-.007v1.177l1.526.004v8.1h1.53zm3.97-6.874h1.53v6.872l-1.228-.001.003-.89c-.33.697-1.65 1.258-2.338.77-.324-.23-.353-.61-.38-.964a8.64 8.64 0 00-.013-.146 9.661 9.661 0 01-.008-.738c.001-.186.003-.397.003-.628l-.005-4.275h1.521l.006 4.343c0 .225-.004.414-.008.569-.006.252-.01.412.013.483.218.654.777.299.902-.036.024-.066.02-.206.013-.444-.005-.157-.01-.355-.01-.602v-4.313zm6.423 4.94l-.003-3.59c0-1.37-1.04-2.188-2.45-1.081l.005-2.67-1.528.003-.007 9.213 1.257-.018.114-.574c1.605 1.45 2.615.456 2.612-1.284zm3.641-.47l1.147-.007c.524 3.061-3.865 3.564-3.866.005v-2.14c0-.642.065-1.148.195-1.518.13-.37.351-.645.642-.85.926-.66 2.76-.455 2.948.832.06.406.079 1.118.079 1.83v.973h-2.627V21.867c0 .337.283.612.628.612h.224a.622.622 0 00.627-.612v-.63l.002-.09.001-.064zM10.053 8.258c0 .405.305.735.677.735.373 0 .677-.33.677-.735V4.458c0-.404-.304-.735-.677-.735-.372 0-.678.33-.678.735v3.801z"
            fill="currentColor" />
    </symbol>
</svg>