<svg width="61" height="11" viewBox="0 0 61 11" fill="none" xmlns="http://www.w3.org/2000/svg">
<path opacity="0.4" d="M3 10.2543C6.336 10.2543 9.528 9.1443 12.113 7.1393C14.703 9.1443 17.894 10.2543 21.227 10.2543C24.56 10.2543 27.753 9.1443 30.342 7.1393C32.928 9.1443 36.12 10.2543 39.455 10.2543C42.789 10.2543 45.981 9.1443 48.569 7.1393C51.156 9.1443 54.348 10.2543 57.684 10.2543C59.341 10.2543 60.684 8.9113 60.684 7.2543C60.684 5.5973 59.341 4.2543 57.684 4.2543C55.051 4.2543 52.566 3.0943 50.867 1.0703C50.297 0.392303 49.456 0.000303053 48.57 0.000303053C48.57 0.000303053 48.57 0.000303053 48.569 0.000303053C47.683 0.000303053 46.842 0.392303 46.273 1.0693C44.572 3.0933 42.086 4.2543 39.455 4.2543C36.823 4.2543 34.339 3.0943 32.641 1.0713C32.071 0.392302 31.231 0.000303053 30.345 0.000303053H30.344C29.459 0.000303053 28.618 0.391303 28.048 1.0693C26.345 3.0933 23.86 4.2543 21.228 4.2543C18.598 4.2543 16.111 3.0933 14.407 1.0683C13.837 0.391302 12.997 0.000303053 12.112 0.000303053C11.192 -0.0126969 10.383 0.393304 9.813 1.0723C8.116 3.0943 5.633 4.2543 3 4.2543C1.343 4.2543 0 5.5973 0 7.2543C0 8.9113 1.343 10.2543 3 10.2543Z" fill="#FF9100"/>
</svg>
