<svg width="64" height="31" viewBox="0 0 64 31" fill="none" xmlns="http://www.w3.org/2000/svg">
<path d="M63.0006 19.3027C63.0006 25.0367 63.0006 29.7258 63.0006 30.0002H44.166V9.97093M63.0006 19.3027C63.0006 13.6219 63.0006 6.91535 63.0006 2.45996H57.5544M63.0006 19.3027H57.5544V9.97093M57.5544 2.45996H44.166V6.10164M57.5544 2.45996V6.10164M57.5544 6.10164H44.166M57.5544 6.10164V8.03628M44.166 6.10164V8.03628M57.5544 9.97093H44.166M57.5544 9.97093V8.03628M44.166 9.97093V8.03628M57.5544 8.03628H44.166" stroke="#95958C"/>
<path d="M12.6223 18.8475H6.94922V2.45996H12.6223M12.6223 18.8475H28.3934M12.6223 18.8475V5.41883V2.45996M12.6223 2.45996H28.3934M28.3934 18.8475H44.1645V2.45996H28.3934M28.3934 18.8475V2.45996" stroke="#95958C"/>
<path d="M44.1653 6.10059H12.85M44.1653 9.96987H12.623M44.1653 8.14903H12.623" stroke="#95958C"/>
<path d="M1.98633 18.9199L1.98633 1.9918" stroke="#FF9100" stroke-width="1.5"/>
<ellipse cx="1.98557" cy="1.99154" rx="1.98557" ry="1.99154" fill="#FF9100"/>
<ellipse cx="1.98557" cy="18.9193" rx="1.98557" ry="1.99154" fill="#FF9100"/>
</svg>
